<svg width="349" height="348" viewBox="0 0 349 348" fill="none" xmlns="http://www.w3.org/2000/svg">
<g clip-path="url(#clip0_53_2184)">
<path d="M307.301 125.047L84.9863 64.5391L47.8481 200.991L270.163 261.499L307.301 125.047Z" fill="white"/>
<path d="M307.301 125.047L84.9863 64.5391L75.7018 98.6521L298.017 159.16L307.301 125.047Z" fill="#FF4F19"/>
<path d="M309.343 107.282L92.2219 48.1883C81.3622 45.2326 70.1352 51.6192 67.1941 62.425L24.9444 217.658C24.3029 220.015 25.696 222.442 28.0592 223.085L276.026 290.575C278.389 291.218 280.82 289.831 281.462 287.474L323.711 132.241C326.652 121.436 320.206 110.239 309.343 107.282ZM49.009 196.727L83.8261 68.8032C84.4671 66.4484 86.901 65.0601 89.262 65.7027L303.026 123.883C305.387 124.526 306.782 126.956 306.141 129.311L271.324 257.235C270.683 259.59 268.249 260.978 265.888 260.335L52.1237 202.155C49.7627 201.512 48.3681 199.082 49.009 196.727Z" fill="#5C546A"/>
<path d="M286.897 284.374L21.8295 212.23C19.4663 211.587 17.0351 212.974 16.3936 215.331C13.8311 224.746 19.4247 234.493 28.8646 237.063L268.247 302.215C277.687 304.785 287.449 299.216 290.012 289.801C290.654 287.444 289.261 285.017 286.897 284.374Z" fill="#B9BBC1"/>
<path d="M130.487 99.8234L100.56 91.6782C98.1969 91.035 96.8039 88.6075 97.4454 86.2505C98.0869 83.8935 100.518 82.5068 102.881 83.1499L132.808 91.2952C135.171 91.9384 136.564 94.3659 135.923 96.7229C135.281 99.0799 132.85 100.467 130.487 99.8234Z" fill="#FFD200"/>
<path d="M207.442 120.768L203.167 119.604C200.804 118.961 199.411 116.533 200.052 114.176C200.694 111.819 203.125 110.433 205.488 111.076L209.763 112.239C212.127 112.883 213.52 115.31 212.878 117.667C212.237 120.024 209.805 121.411 207.442 120.768Z" fill="white"/>
<path d="M228.819 126.586L224.544 125.422C222.18 124.779 220.787 122.352 221.429 119.995C222.07 117.638 224.501 116.251 226.865 116.894L231.14 118.058C233.503 118.701 234.896 121.128 234.255 123.485C233.613 125.842 231.182 127.229 228.819 126.586Z" fill="white"/>
<path d="M250.195 132.404L245.92 131.241C243.557 130.598 242.164 128.17 242.805 125.813C243.447 123.456 245.878 122.069 248.241 122.712L252.516 123.876C254.88 124.519 256.273 126.947 255.631 129.304C254.99 131.661 252.558 133.047 250.195 132.404Z" fill="white"/>
<path d="M271.572 138.222L267.296 137.058C264.933 136.415 263.54 133.987 264.182 131.63C264.823 129.273 267.254 127.887 269.618 128.53L273.893 129.693C276.256 130.337 277.649 132.764 277.008 135.121C276.366 137.478 273.935 138.865 271.572 138.222Z" fill="white"/>
<path d="M145.386 213.798L72.7063 194.017C70.3453 193.374 68.9507 190.944 69.5916 188.589L88.1607 120.363C88.8016 118.008 91.2355 116.62 93.5966 117.262L166.276 137.044C168.638 137.686 170.032 140.116 169.391 142.471L150.822 210.697C150.181 213.052 147.747 214.441 145.386 213.798Z" fill="#53DCFF"/>
<path d="M266.563 173.499L185.332 151.39C182.969 150.747 181.576 148.319 182.217 145.962C182.859 143.605 185.29 142.219 187.653 142.862L268.884 164.97C271.247 165.614 272.64 168.041 271.998 170.398C271.357 172.755 268.926 174.142 266.563 173.499Z" fill="#FF4F19"/>
<path d="M210.25 194.812L176.047 185.503C173.684 184.86 172.291 182.433 172.933 180.076C173.574 177.719 176.005 176.332 178.369 176.975L212.571 186.284C214.934 186.927 216.327 189.355 215.686 191.712C215.044 194.069 212.613 195.455 210.25 194.812Z" fill="#B9BBC1"/>
<path d="M205.607 211.869L171.405 202.56C169.042 201.917 167.649 199.489 168.29 197.132C168.932 194.775 171.363 193.389 173.726 194.032L207.928 203.341C210.291 203.984 211.685 206.411 211.043 208.768C210.401 211.125 207.97 212.512 205.607 211.869Z" fill="#B9BBC1"/>
<path d="M200.965 228.926L166.763 219.617C164.4 218.973 163.007 216.546 163.648 214.189C164.29 211.832 166.721 210.445 169.084 211.088L203.286 220.397C205.649 221.04 207.042 223.468 206.401 225.825C205.759 228.182 203.328 229.569 200.965 228.926Z" fill="#B9BBC1"/>
<path d="M261.553 208.775L227.351 199.466C224.987 198.823 223.594 196.396 224.236 194.039C224.877 191.682 227.309 190.295 229.672 190.938L263.874 200.247C266.237 200.89 267.63 203.318 266.989 205.675C266.347 208.032 263.916 209.418 261.553 208.775Z" fill="#B9BBC1"/>
<path d="M256.911 225.832L222.709 216.523C220.345 215.88 218.952 213.452 219.594 211.095C220.235 208.738 222.667 207.351 225.03 207.995L259.232 217.304C261.595 217.947 262.988 220.374 262.347 222.731C261.705 225.088 259.274 226.475 256.911 225.832Z" fill="#B9BBC1"/>
<path d="M252.268 242.888L218.066 233.58C215.703 232.936 214.31 230.509 214.951 228.152C215.593 225.795 218.024 224.408 220.387 225.051L254.589 234.36C256.953 235.003 258.346 237.431 257.704 239.788C257.063 242.145 254.631 243.532 252.268 242.888Z" fill="#B9BBC1"/>
<path d="M236.268 183.574L180.689 168.447C178.326 167.804 176.933 165.376 177.575 163.019C178.216 160.662 180.647 159.275 183.011 159.918L238.589 175.045C240.953 175.689 242.346 178.116 241.704 180.473C241.063 182.83 238.631 184.217 236.268 183.574Z" fill="#E9001E"/>
<path d="M134.941 252.176L169.144 261.485C173.866 262.77 178.734 259.993 180.015 255.284L128.712 241.32C127.43 246.031 130.219 250.89 134.941 252.176Z" fill="#8B8996"/>
</g>
<defs>
<clipPath id="clip0_53_2184">
<rect width="283.572" height="282.832" fill="white" transform="translate(75) rotate(15.2254)"/>
</clipPath>
</defs>
</svg>
