<svg xmlns="http://www.w3.org/2000/svg" width="299" height="309" viewBox="0 0 299 309" fill="none">
  <g clip-path="url(#clip0_53_2237)">
    <path d="M197.499 29.9936L33.0889 89.5642C31.4519 90.1601 30.134 91.4251 29.4241 93.0819C28.7142 94.7388 28.6703 96.6522 29.302 98.4026L32.5444 107.351C33.1806 109.1 34.44 110.541 36.0464 111.359C37.6528 112.177 39.4752 112.304 41.1139 111.713L47.3482 109.454L91.1015 230.21C91.9134 232.441 93.3149 234.403 95.1355 235.857C96.9561 237.311 99.1172 238.195 101.356 238.4L103.514 263.336C103.653 264.959 104.148 266.542 104.959 267.959C105.77 269.377 106.876 270.591 108.188 271.505C109.501 272.419 110.984 273.009 112.522 273.228C114.06 273.446 115.611 273.288 117.051 272.765L117.809 272.49C119.826 271.75 121.533 270.333 122.675 268.451C123.817 266.568 124.333 264.321 124.146 262.045L121.56 232.2L220.929 196.195L238.061 220.77C239.375 222.638 241.211 224.033 243.294 224.747C245.377 225.461 247.595 225.456 249.617 224.732L250.376 224.457C251.817 223.936 253.109 223.065 254.15 221.912C255.191 220.759 255.952 219.356 256.375 217.813C256.797 216.27 256.868 214.63 256.583 213.022C256.298 211.414 255.664 209.881 254.731 208.546L240.415 188.015C242.003 186.423 243.097 184.361 243.563 182.078C244.03 179.795 243.849 177.39 243.043 175.157L199.29 54.4011L205.524 52.1423C207.161 51.5464 208.479 50.2813 209.189 48.6245C209.899 46.9677 209.943 45.0543 209.311 43.3038L206.069 34.355C205.433 32.6062 204.173 31.165 202.567 30.3474C200.96 29.5298 199.138 29.4026 197.499 29.9936Z" fill="#231F20"/>
    <path d="M119.537 262.277C119.639 263.498 119.364 264.705 118.751 265.715C118.139 266.726 117.223 267.487 116.141 267.884L115.382 268.159C114.609 268.44 113.778 268.525 112.952 268.407C112.127 268.29 111.331 267.974 110.627 267.483C109.923 266.993 109.33 266.341 108.895 265.581C108.46 264.82 108.195 263.971 108.12 263.1L105.933 237.841L106.045 237.8L117.069 233.806L119.537 262.277Z" fill="#FF8E5A"/>
    <path d="M251.043 211.314C251.543 212.031 251.884 212.853 252.037 213.716C252.19 214.578 252.152 215.458 251.925 216.286C251.699 217.114 251.29 217.867 250.732 218.486C250.173 219.104 249.48 219.572 248.707 219.851L247.948 220.126C246.863 220.514 245.672 220.517 244.555 220.133C243.437 219.749 242.452 218.999 241.748 217.996L225.413 194.57L236.437 190.576L236.549 190.535L251.043 211.314Z" fill="#FF8E5A"/>
    <path d="M238.732 176.719C239.396 178.551 239.351 180.555 238.608 182.29C237.865 184.025 236.483 185.349 234.768 185.971L104.383 233.213C102.668 233.834 100.759 233.702 99.0771 232.846C97.3948 231.99 96.0768 230.48 95.4129 228.647L51.6597 107.892L194.979 55.963L238.732 176.719Z" fill="white"/>
    <path d="M199.168 34.5987L34.7577 94.1693C33.7267 94.5429 33.2144 95.7386 33.6134 96.84L36.8558 105.789C37.2549 106.89 38.4142 107.48 39.4453 107.107L203.856 47.536C204.887 47.1625 205.399 45.9668 205 44.8654L201.758 35.9166C201.359 34.8152 200.199 34.2252 199.168 34.5987Z" fill="#FF8E5A"/>
    <path d="M153.595 160.856L212.903 139.367C213.474 139.16 213.935 138.718 214.182 138.14C214.43 137.562 214.445 136.894 214.224 136.283C214.003 135.672 213.563 135.169 213.002 134.883C212.442 134.598 211.806 134.554 211.234 134.761L205.737 136.753L188.589 89.4251C188.367 88.8144 187.928 88.3109 187.367 88.0255C186.806 87.7401 186.17 87.6962 185.599 87.9033C185.027 88.1105 184.566 88.5518 184.319 89.1301C184.071 89.7085 184.056 90.3765 184.277 90.9872L201.425 138.315L191.078 142.064L177.373 104.238C177.151 103.627 176.712 103.124 176.151 102.838C175.59 102.553 174.954 102.509 174.382 102.716C173.811 102.923 173.35 103.365 173.103 103.943C172.855 104.521 172.84 105.189 173.061 105.8L186.767 143.626L176.419 147.375L166.605 120.29C166.384 119.679 165.945 119.175 165.384 118.89C164.823 118.605 164.187 118.561 163.615 118.768C163.044 118.975 162.583 119.416 162.335 119.995C162.088 120.573 162.073 121.241 162.294 121.852L172.108 148.938L161.761 152.687L155.963 136.687C155.742 136.076 155.303 135.572 154.742 135.287C154.181 135.002 153.545 134.958 152.973 135.165C152.402 135.372 151.941 135.813 151.693 136.392C151.446 136.97 151.431 137.638 151.652 138.249L157.449 154.249L151.926 156.25C151.355 156.457 150.894 156.898 150.646 157.477C150.399 158.055 150.384 158.723 150.605 159.334C150.826 159.945 151.266 160.448 151.826 160.733C152.387 161.019 153.023 161.063 153.595 160.856Z" fill="#231F20"/>
    <path d="M116.395 173.939C131.507 168.463 139.017 150.936 133.167 134.792C127.318 118.648 110.324 109.999 95.2113 115.475C80.0984 120.951 72.589 138.477 78.4386 154.622C84.2881 170.766 101.282 179.415 116.395 173.939Z" fill="#231F20"/>
    <path d="M127.806 134.129L107.111 141.628L99.1013 119.521C104.614 118.125 110.499 118.821 115.74 121.488C120.981 124.155 125.249 128.627 127.806 134.129Z" fill="#D12200"/>
    <path d="M94.8095 121.096L102.039 141.048L82.5911 135.094C84.7046 128.852 89.0889 123.829 94.8095 121.096Z" fill="#00A1D3"/>
    <path d="M81.4789 139.765L105.249 147.054C105.298 147.068 105.339 147.021 105.399 147.052C105.811 147.165 106.241 147.156 106.638 147.025L129.488 138.746C131.235 145.242 130.556 152.091 127.595 157.865C124.634 163.64 119.619 167.894 113.594 169.741C107.57 171.588 101.001 170.885 95.2575 167.779C89.5138 164.674 85.0382 159.404 82.7637 153.07C81.2336 148.782 80.7905 144.192 81.4789 139.765Z" fill="#7CC05B"/>
    <path d="M216.911 150.429L131.037 181.544C130.465 181.751 130.005 182.193 129.757 182.771C129.509 183.349 129.494 184.017 129.715 184.628C129.937 185.239 130.376 185.742 130.937 186.028C131.498 186.313 132.134 186.357 132.706 186.15L218.58 155.035C219.152 154.828 219.612 154.387 219.86 153.808C220.108 153.23 220.122 152.562 219.901 151.951C219.68 151.34 219.24 150.837 218.68 150.552C218.119 150.266 217.483 150.222 216.911 150.429Z" fill="#231F20"/>
    <path d="M221.79 163.897L135.916 195.012C135.344 195.219 134.884 195.66 134.636 196.239C134.388 196.817 134.374 197.485 134.595 198.096C134.816 198.707 135.256 199.21 135.816 199.495C136.377 199.781 137.013 199.825 137.585 199.618L223.459 168.503C224.031 168.296 224.491 167.854 224.739 167.276C224.987 166.698 225.002 166.03 224.78 165.419C224.559 164.808 224.12 164.305 223.559 164.019C222.998 163.734 222.362 163.69 221.79 163.897Z" fill="#231F20"/>
  </g>
  <defs>
    <clipPath id="clip0_53_2237">
      <rect width="229.283" height="244.933" fill="white" transform="translate(0 78.1064) rotate(-19.9169)"/>
    </clipPath>
  </defs>
</svg>