<?xml version="1.0" encoding="UTF-8"?>
<svg id="_Слой_2" data-name="Слой 2" xmlns="http://www.w3.org/2000/svg" xmlns:xlink="http://www.w3.org/1999/xlink" viewBox="0 0 200.65 157.32">
  <defs>
    <style>
      .cls-1 {
        fill: #ff8e7f;
      }

      .cls-2 {
        fill: url(#linear-gradient-2);
      }

      .cls-3 {
        fill: #fff;
      }

      .cls-4 {
        fill: none;
        stroke: #eb6e59;
        stroke-linecap: round;
        stroke-linejoin: round;
      }

      .cls-5 {
        fill: #b0a8a8;
      }

      .cls-6 {
        fill: #e3c9c9;
      }

      .cls-7 {
        fill: url(#linear-gradient-5);
      }

      .cls-8 {
        fill: #ffa398;
      }

      .cls-9 {
        fill: url(#linear-gradient-3);
      }

      .cls-10 {
        fill: url(#linear-gradient);
      }

      .cls-11 {
        fill: url(#linear-gradient-4);
      }

      .cls-12 {
        fill: #db3c3c;
      }
    </style>
    <linearGradient id="linear-gradient" x1="100.7" y1="102.21" x2="100.7" y2="20.87" gradientUnits="userSpaceOnUse">
      <stop offset="0" stop-color="#ff7845"/>
      <stop offset="1" stop-color="#ffa94f"/>
    </linearGradient>
    <linearGradient id="linear-gradient-2" x1="100.7" y1="156.96" x2="100.7" y2="19.21" gradientUnits="userSpaceOnUse">
      <stop offset="0" stop-color="#ffc25f"/>
      <stop offset="1" stop-color="#ffe766"/>
    </linearGradient>
    <linearGradient id="linear-gradient-3" x1="101.23" y1="88.88" x2="99.32" y2="32.56" gradientUnits="userSpaceOnUse">
      <stop offset="0" stop-color="#bdb3b3"/>
      <stop offset="1" stop-color="#e1e6d1"/>
    </linearGradient>
    <linearGradient id="linear-gradient-4" x1="93.38" y1="104.77" x2="102.02" y2="41.23" gradientUnits="userSpaceOnUse">
      <stop offset=".16" stop-color="#ffaa9f"/>
      <stop offset="1" stop-color="#ffc8a1"/>
    </linearGradient>
    <linearGradient id="linear-gradient-5" x1="94.77" y1="146.02" x2="107.4" y2="109.96" gradientUnits="userSpaceOnUse">
      <stop offset="0" stop-color="#ff4545"/>
      <stop offset="1" stop-color="#ff519d"/>
    </linearGradient>
  </defs>
  <g id="OBJECTS">
    <g>
      <path class="cls-3" d="m29.32,113.55h-3.32l6.34,20.96-6.34,21h30.21v-5.56h8.8l10.15,7.36h51.08l10.13-7.36h8.89v5.56h30.21l-6.34-21,6.34-20.96h-3.44l9.24-28.41c5.41-1.82,10.05-5.2,13.79-10.06.34-.44.68-.9,1.02-1.38l.27-.37.2-.41c.59-1.21,1.09-2.47,1.5-3.72l2.58-7.99-22.14,2.47-3.61-11.11.14-.23,24.46-2.72-4.44-7.27c-1.6-2.62-3.64-5.03-6.06-7.16l-.82-.72-.18-.06c-5.13-4.14-10.95-6.24-17.32-6.24-1.1,0-2.22.06-3.34.19-.58.06-1.16.15-1.74.24L126.24,0h-51.08l-41.38,30.03-4.47,13.79c-.69.03-1.39.08-2.09.16-7.92.89-14.5,4.63-19.57,11.13l-.57.73-.57.81v.07c-1.5,2.19-2.69,4.53-3.57,6.97l-2.94,8.2,20.98-2.38-2.97,9.16.91,2.79-17.68,1.97,4.31,7.23c.2.33.39.62.59.88l.15.2.16.18c.67.74,1.36,1.45,2.15,2.2.45.42.9.81,1.33,1.18,4.68,4,9.96,6.31,15.7,6.88l3.69,11.36Z"/>
      <g>
        <g id="Layer0_6_FILL" data-name="Layer0 6 FILL">
          <path class="cls-10" d="m162.96,123.94l14.72-45.26-14.72-45.3L124.48,5.42h-47.56l-38.53,27.96-14.68,45.3,14.68,45.26,38.53,27.96h47.56l38.48-27.96m9.98-45.26l-13.82,42.46-36.13,26.24h-44.63l-36.13-26.24-13.78-42.46,13.78-42.5,36.13-26.24h44.63l36.13,26.24,13.82,42.5Z"/>
          <path class="cls-2" d="m159.12,121.14l13.82-42.46-13.82-42.5-36.13-26.24h-44.63l-36.13,26.24-13.78,42.5,13.78,42.46,36.13,26.24h44.63l36.13-26.24Z"/>
        </g>
        <g id="Layer0_7_FILL" data-name="Layer0 7 FILL">
          <path class="cls-5" d="m57.32,61.93v.77c0,.84.3,4.05.9,9.62.23,2.28.41,4.1.54,5.47,24.96-3.3,49.97-6.1,75.02-8.4-.2-1.42-.43-3.06-.68-4.92-.49-3.78-.94-7.36-1.36-10.75-24.57,2.98-49.38,5.72-74.44,8.22Z"/>
          <path class="cls-9" d="m185.41,39.25c-.09-.03-.17-.08-.23-.14-5.03-4.31-10.78-6.1-17.25-5.37-6.53.72-11.86,3.81-15.99,9.26-2.08,2.77-3.55,5.71-4.43,8.81-5.24.65-10.49,1.28-15.76,1.9.42,3.39.87,6.97,1.36,10.75.25,1.86.48,3.5.68,4.92,5.56-.51,11.11-.99,16.67-1.45,1.51,2.86,3.57,5.39,6.19,7.59,5.18,4.46,11.1,6.32,17.75,5.6,6.68-.72,12.15-3.84,16.4-9.35.3-.39.6-.8.9-1.22.48-.99.89-2,1.22-3.03l-19.02,2.12-9.39-10.3,7.27-12.1,18.65-2.08c-1.32-2.17-3-4.14-5.01-5.92M57.32,62.69v-.77c-2,.22-4,.43-6.01.63-1.45-2.86-3.45-5.41-6.01-7.63-5.12-4.43-10.95-6.28-17.48-5.56-6.44.72-11.74,3.75-15.9,9.08,0,.06-.05.14-.14.23-1.63,2.14-2.88,4.43-3.75,6.87l18.7-2.12,9.44,10.3-7.32,12.11-18.65,2.08c.09.15.18.29.27.41.57.63,1.17,1.25,1.81,1.85.39.36.78.71,1.17,1.04,5.21,4.46,11.16,6.31,17.84,5.56,6.65-.72,12.12-3.82,16.4-9.3,2.11-2.74,3.6-5.66,4.47-8.76,2.2-.3,4.4-.6,6.59-.9-.13-1.37-.31-3.19-.54-5.47-.6-5.57-.9-8.78-.9-9.62Z"/>
        </g>
        <g>
          <g id="Layer0_8_FILL" data-name="Layer0 8 FILL">
            <path class="cls-1" d="m119.24,106.87c-10.05,3.19-22.61,3.79-37.67,1.81l-2.8,38.75h43.45l-2.98-40.56Z"/>
            <path class="cls-8" d="m113.37,84.28c-1.66,0-3.21-.26-4.65-.77-1.17-.45-2.32-1.07-3.43-1.85h-.14c-.3.09-1.88.14-4.74.14s-4.94-.14-5.87-.41c-.57-.21-1.11-.69-1.63-1.45.36,2.35-1.26,3.78-4.88,4.29-3.67.54-6.16.3-7.45-.72-1.02-.78-1.87-1.72-2.53-2.8-.18,1.08-.6,1.88-1.26,2.39-.66.51-2.53.81-5.6.9-.23,0-.58-.08-1.04-.23-.41-.11-.93-.29-1.54-.54.03.6.06,1.19.09,1.76.03.69.08,1.37.14,2.03.3,5.21.83,8.96,1.58,11.25,1.02,2.77,2.24,5.06,3.66,6.87.99,1.26,2.54,2.21,4.65,2.85.87.24,1.82.44,2.85.59v.09c15.06,1.98,27.62,1.38,37.67-1.81,2.17-.48,4.05-1.1,5.65-1.85.1-.04.19-.09.27-.14-.04-1.48-.13-2.96-.27-4.43-.11-1.05-1.14-3.34-3.07-6.87-.42-.75-.88-1.56-1.4-2.44-.31-.55-.66-1.14-1.04-1.76-1.1-1.48-2.38-3.45-3.84-5.92-.93.54-1.66.81-2.17.81Z"/>
            <path class="cls-11" d="m61.29,58.09c-.33,1.29-.39,2.83-.18,4.61.15,1.78,1.1,5.8,2.85,12.06.87,3.1,1.9,5.42,3.07,6.96.15.18.3.35.45.5.37.41.74.76,1.13,1.04.61.25,1.12.43,1.54.54.46.15.81.23,1.04.23,3.07-.09,4.94-.39,5.6-.9.66-.51,1.08-1.31,1.26-2.39-.18-.27-.35-.56-.5-.86-.72-1.48-1.39-4.28-1.99-8.4-.6-4.07-1.01-7.78-1.22-11.16-.09-1.02-.14-2-.14-2.94,0,.93.05,1.91.14,2.94.21,3.37.62,7.09,1.22,11.16.6,4.13,1.26,6.93,1.99,8.4.15.3.32.59.5.86.66,1.08,1.51,2.02,2.53,2.8,1.29,1.02,3.78,1.26,7.45.72,3.61-.51,5.24-1.94,4.88-4.29-.18-.36-.36-.77-.54-1.22-.6-1.45-1.05-4.31-1.35-8.58-.33-4.28-.48-8.18-.45-11.7.03-1.72.12-3.28.27-4.7-.15,1.42-.24,2.98-.27,4.7-.03,3.52.12,7.42.45,11.7.3,4.28.75,7.14,1.35,8.58.18.45.36.86.54,1.22.51.75,1.05,1.23,1.63,1.45.93.27,2.89.41,5.87.41s4.44-.05,4.74-.14h.14c-.81-.66-1.61-1.4-2.39-2.21-2.41-2.68-3.61-5.1-3.61-7.27,0-.87.08-1.43.23-1.67.21-.33.71-.5,1.49-.5,5.06.33,7.8.5,8.22.5-.3-2.5-.45-4.52-.45-6.05,0-3.1.15-5.72.45-7.86-.3,2.14-.45,4.76-.45,7.86,0,1.54.15,3.55.45,6.05,1.57,0,3.69.02,6.37.05,2.68,0,4.82-.03,6.41-.09,1.22-.05,2.18-.12,2.89-.23-.71.1-1.67.18-2.89.23-1.6.06-3.73.09-6.41.09-2.68-.03-4.8-.05-6.37-.05-.42,0-3.16-.17-8.22-.5-.78,0-1.28.17-1.49.5-.15.24-.23.8-.23,1.67,0,2.17,1.2,4.59,3.61,7.27.78.81,1.58,1.55,2.39,2.21,1.11.78,2.26,1.4,3.43,1.85,1.45.51,3,.77,4.65.77.51,0,1.23-.27,2.17-.81.3-.18.62-.39.95-.63.3-.21.57-.41.81-.59-.24.18-.51.38-.81.59-.33.24-.65.45-.95.63,1.46,2.47,2.74,4.44,3.84,5.92.1.11.19.21.27.32.2.22.54.58,1.04,1.08-.5-.5-.84-.86-1.04-1.08-.08-.1-.17-.21-.27-.32.38.62.73,1.21,1.04,1.76.52.88.98,1.69,1.4,2.44,1.94,3.52,2.96,5.81,3.07,6.87.14,1.47.23,2.95.27,4.43,3.78-1.69,6.01-3.15,6.68-4.38.66-1.14,1.32-4.62,1.99-10.43,0-.21.01-.44.05-.68.6-6.2.9-10,.9-11.38,0-3.64-1.05-5.99-3.16-7.05-.38-.18-.86-.35-1.45-.5-.89-.21-2.04-.36-3.43-.45.03-.29.04-.57.05-.86,1.05-11.56.77-17.88-.81-18.97-1.63-1.14-3.18-1.82-4.65-2.03-1.42-.24-3.43-.36-6.05-.36s-4.31,1.69-5.33,5.06c0,.06-.02.11-.05.14-.12.48-.26,1.01-.41,1.58.03-.57.05-1.08.05-1.54-.09-2.41-.68-3.97-1.76-4.7-1.32-.87-4.22-1.4-8.67-1.58-4.16-.06-6.64.84-7.45,2.71-.03.12-.08.26-.14.41-.03.12-.05.23-.05.32-.18.69-.35,1.46-.5,2.3-.15-.9-.41-1.66-.77-2.26-.03-.06-.08-.11-.14-.14-.24-.36-.53-.65-.86-.86-1.29-.75-3.96-1.01-7.99-.77-3.97.18-6.17,1.34-6.59,3.48-.09.42-.17.89-.23,1.4-.06.45-.11.93-.14,1.45-.27-.51-.51-.93-.72-1.26-.3-.33-.59-.57-.86-.72-.45-.3-1.6-.39-3.43-.27-1.81.18-3.49.83-5.06,1.94-1.54,1.08-2.5,2.29-2.89,3.61Z"/>
          </g>
          <path id="Layer0_8_1_STROKES" data-name="Layer0 8 1 STROKES" class="cls-4" d="m70.17,83.81c.44.14.78.2,1.02.2,3.07-.09,4.94-.39,5.6-.9.66-.51,1.08-1.31,1.26-2.39-.18-.27-.35-.56-.5-.86-.72-1.48-1.39-4.28-1.99-8.4-.6-4.07-1.01-7.78-1.22-11.16-.09-1.02-.14-2-.14-2.94m50.68,12.9c-.71.09-1.67.16-2.89.2-1.6.06-3.73.09-6.41.09-2.68-.03-4.8-.05-6.37-.05-.42,0-3.16-.17-8.22-.5-.78,0-1.28.17-1.49.5-.15.24-.23.8-.23,1.67,0,2.17,1.2,4.59,3.61,7.27.78.81,1.58,1.55,2.39,2.21,1.11.78,2.26,1.4,3.43,1.85,1.45.51,3,.77,4.65.77.51,0,1.23-.27,2.17-.81.3-.18.62-.39.95-.63.3-.21.57-.41.81-.59m-8.09-25.66c-.3,2.14-.45,4.76-.45,7.86,0,1.54.15,3.55.45,6.05m-16.31,9.44c.51.75,1.05,1.23,1.63,1.45.93.27,2.89.41,5.87.41s4.44-.05,4.74-.14h.14m-14.45-27.91c-.15,1.42-.24,2.98-.27,4.7-.03,3.52.12,7.42.45,11.7.3,4.28.75,7.14,1.35,8.58.18.45.36.86.54,1.22.36,2.35-1.26,3.78-4.88,4.29-3.67.54-6.16.3-7.45-.72-1.02-.78-1.87-1.72-2.53-2.8m41.35,8.67c.09.11.17.21.25.32.2.22.54.59,1.04,1.11m-5.15-7.34c1.46,2.47,2.75,4.44,3.86,5.92"/>
        </g>
        <g id="Layer0_9_FILL" data-name="Layer0 9 FILL">
          <path class="cls-6" d="m150.68,150.09l5.08-5.56h-5.08v5.56m-99.88,0v-5.56h-5.08l5.08,5.56Z"/>
          <path class="cls-7" d="m155.76,118.97v-5.56H45.72v31.12h110.04v-25.57Z"/>
          <path class="cls-12" d="m168.18,118.97h-12.41v25.57l-5.08,5.56h17.49l-4.7-15.58,4.7-15.54m-122.46,0h-12.41l4.7,15.54-4.7,15.58h17.49l-5.08-5.56v-25.57Z"/>
        </g>
        <g id="Layer0_10_FILL" data-name="Layer0 10 FILL">
          <path class="cls-3" d="m121.02,21.6l-1.9-3.85-1.71,3.9-4.18.52,3.09,2.85-.81,4.14,3.76-2,3.66,2-.81-4.18,3.04-2.9-4.14-.48m-17.59-1l-2.8-5.66-2.61,5.7-6.18.86,4.61,4.23-1.19,6.18,5.51-3.04,5.47,2.99-1.24-6.18,4.56-4.33-6.13-.76m-24.91,8.56l3.76-2,3.66,2-.81-4.18,3.04-2.9-4.14-.48-1.9-3.85-1.71,3.9-4.18.52,3.09,2.85-.81,4.14Z"/>
        </g>
      </g>
    </g>
  </g>
</svg>