<?xml version="1.0" encoding="UTF-8"?>
<svg id="_Слой_2" data-name="Слой 2" xmlns="http://www.w3.org/2000/svg" viewBox="0 0 190.38 190.38">
  <defs>
    <style>
      .cls-1 {
        stroke-width: .85px;
      }

      .cls-1, .cls-2, .cls-3 {
        fill: none;
        stroke-linecap: round;
        stroke-linejoin: round;
      }

      .cls-1, .cls-3 {
        stroke: #7051b2;
      }

      .cls-4 {
        fill: #fff;
      }

      .cls-2 {
        stroke: #50334d;
      }

      .cls-5 {
        fill: #ff676b;
      }

      .cls-6 {
        fill: #50334d;
      }

      .cls-7 {
        fill: #ffa532;
      }

      .cls-8 {
        fill: #ffd080;
      }

      .cls-9 {
        fill: #a7b6ff;
      }

      .cls-10 {
        fill: #7051b2;
      }

      .cls-11 {
        fill: #fce6e0;
      }

      .cls-12 {
        fill: #feaaa8;
      }
    </style>
  </defs>
  <g id="OBJECTS">
    <g>
      <path class="cls-4" d="m95.19,190.38c-2.77,0-5.61-.13-8.46-.38H30.21c-3.31,0-6-2.69-6-6v-15.73c-2.98-3.04-4.72-7.18-4.72-11.66,0-1.11.11-2.21.33-3.29C7.01,136.74,0,116.23,0,95.19,0,42.7,42.7,0,95.19,0s95.19,42.7,95.19,95.19c0,17.83-4.94,35.15-14.31,50.21v.51c0,2.7-1.79,4.99-4.24,5.74-.74,1.01-1.51,2-2.29,2.98v8.04c.91,1.05,1.46,2.42,1.46,3.92v17.42c0,3.31-2.69,6-6,6h-61.36c-2.84.25-5.69.38-8.45.38Z"/>
      <g>
        <circle class="cls-9" cx="95.53" cy="95.19" r="89.19" transform="translate(-39.33 95.43) rotate(-45)"/>
        <g>
          <g>
            <path class="cls-5" d="m97.15,94.14c-9.14.58-17.21.77-25.52-5.38-10.72-7.95-14.97-21.93-13.62-34.83.92-8.82,5.36-18.05,13.37-22.45,10.57-5.8,24.52-3.34,30.62,7.08,5.63-3.6,10.43-7.01,17.17-8.43,11.95-2.51,25.57.53,32.13,11.62,3.01,5.09,3.83,11.23,3.37,17.12-1.19,15.3-11.47,32.22-27.57,34.99-9.8,1.68-20.04-.36-29.96.27Z"/>
            <g>
              <path class="cls-6" d="m84.3,62.6c0,2.77-2.25,5.02-5.02,5.02s-5.02-2.25-5.02-5.02,2.25-5.02,5.02-5.02,5.02,2.25,5.02,5.02Z"/>
              <circle class="cls-6" cx="125.23" cy="62.6" r="5.02"/>
              <path class="cls-2" d="m97.45,64.03c.12,2.22.63,4.68,2.87,5.69,3.69,1.66,5.77-2.17,5.97-5.24"/>
            </g>
            <g>
              <path class="cls-10" d="m101.94,39.43h0c-.06.04-.14.07-.25.1-.04.02-.09.03-.14.05-.87.28-2.36-.03-3.28-.1-2.21-.16-4.4-.52-6.54-1.11-1.91-.53-3.77-1.23-5.54-2.14-.13-.06-.25-.13-.38-.2h0c-.31-.17-.62-.34-.93-.52-3.16-1.86-5.94-4.44-7.95-7.5-.05-.07-.1-.14-.15-.22-1.24-1.93-2.17-4.06-2.69-6.3-.24-1.03-.39-2.1-.42-3.16,0-.09,0-.17,0-.25-.06-2.33.42-4.66,1.64-6.64.87-1.42,2.18-2.6,3.67-3.33.09-.05.19-.1.28-.13,1.54-.71,3.26-.94,4.89-.5.79.21,1.53.56,2.22,1,.08.04.16.09.23.15.47.3.91.65,1.33,1.02,1.83,1.61,3.28,3.6,4.56,5.68,1,1.63,1.91,3.31,2.71,5.05.05.11.11.22.15.33.59,1.28,1.12,2.59,1.59,3.92.24.69.47,1.38.69,2.08.05.13.09.26.13.4,1.05,3.39,1.92,6.84,3.37,10.08.21.49.47.96.69,1.45.23.54.39.66.15.79Z"/>
              <path class="cls-6" d="m101.93,39.43c-.06.04-.14.07-.25.1-1.48-1.57-2.73-3.35-3.8-5.11-.06-.08-.1-.15-.14-.23-.56-.92-1.07-1.83-1.54-2.7-.04-.08-.09-.16-.12-.24-.75-1.38-1.47-2.81-2.17-4.19-.1-.19-.19-.38-.29-.57-.04-.08-.08-.16-.13-.25-1.35-2.65-2.76-5.36-4.38-7.9-.17-.27-.35-.54-.52-.8h0c-.05-.09-.11-.17-.17-.26-2.87-4.24-5.97-7.25-9.46-9.17.09-.05.19-.1.28-.13,2.27,1.28,4.38,3.01,6.37,5.25.06.07.13.14.19.22,1.01,1.15,1.98,2.43,2.92,3.84.05.06.09.12.13.18h0c.16.25.32.49.48.74,1.59,2.49,2.98,5.15,4.31,7.75h0c.06.12.12.23.17.34h0c.11.22.22.44.33.65.66,1.29,1.34,2.62,2.03,3.93.05.1.11.21.16.31.04.06.07.12.1.18,1.42,2.64,3.17,5.6,5.51,8.06Z"/>
              <path class="cls-6" d="m88.85,17.42s0,.03,0,.05h0s-.07.07-.11.07h-.15c-4.98-.17-9.99.1-14.93.79,0-.09,0-.17,0-.25,4.89-.68,9.84-.95,14.77-.8.1,0,.2.01.3.01h.02c.07,0,.12.06.12.13Z"/>
              <path class="cls-6" d="m86.57,8.63c-.28,1.54-.51,3.05-.75,4.75,0,.03,0,.05-.03.07s-.06.04-.09.04h-.02c-.07-.01-.11-.08-.1-.15,0-.04,0-.07.02-.11.22-1.7.46-3.2.74-4.75.08.04.16.09.23.15Z"/>
              <path class="cls-6" d="m95.32,20.71c-.23.63-.44,1.27-.62,1.91-.24.89-.43,1.69-.63,2.53-.08.38-.18.75-.27,1.15h0s0,.07-.02.1c0,.05-.07.09-.12.09h-.04c-5.6-.11-11.22.4-16.71,1.52-.05-.07-.1-.14-.15-.22,5.5-1.14,11.11-1.66,16.73-1.55h.07c.02-.09.05-.18.07-.27h0c.07-.3.13-.59.2-.88.2-.84.38-1.64.63-2.54.21-.73.45-1.46.71-2.17.05.11.11.22.15.33Z"/>
              <path class="cls-6" d="m97.73,27.11c-.43,1.37-.91,2.73-1.41,4.08,0,.01,0,.03,0,.04-.02.05-.07.08-.12.08,0,0-.03,0-.04,0-.03-.01-.05-.03-.07-.05-.02-.03-.02-.07,0-.11.03-.09.06-.17.09-.26.52-1.37,1-2.77,1.44-4.17.05.13.09.26.13.4Z"/>
              <path class="cls-6" d="m98.02,34.28c0,.07-.04.13-.11.14h-.03c-2.55.38-5.1.78-7.56,1.17-1.36.21-2.74.43-4.14.64-.13-.06-.25-.13-.38-.2,1.51-.22,3.01-.46,4.48-.69,2.43-.38,4.94-.78,7.46-1.15.04,0,.09,0,.13-.02.07,0,.14.04.15.11Z"/>
            </g>
            <path class="cls-6" d="m101.74,39.62s-.34-9.11,2.43-20.68c1.82-7.61,3.36-10.43,4.21-11.48.24-.3.65-.03.59.39-.56,4-2.87,19.24-7.23,31.77Z"/>
          </g>
          <g>
            <g>
              <path class="cls-10" d="m50.86,93.66h110.75v31.02H50.86c-8.56,0-15.51-6.95-15.51-15.51h0c0-8.56,6.95-15.51,15.51-15.51Z"/>
              <g>
                <path class="cls-11" d="m161.62,96.93v23.95H54.28c-1.97,0-3.83-.48-5.46-1.32-.17-.07-.34-.17-.5-.27-1.47-.84-2.75-1.99-3.74-3.36-.06-.09-.13-.18-.19-.27-.63-.92-1.13-1.93-1.48-3.01-.03-.09-.06-.18-.09-.27-.33-1.07-.51-2.2-.52-3.36v-.27c.01-1.03.16-2.05.42-2.99.02-.1.05-.18.07-.27.36-1.22.91-2.36,1.61-3.37.05-.1.12-.18.18-.27.37-.51.78-.99,1.23-1.44.59-.59,1.23-1.11,1.93-1.56.14-.1.28-.18.43-.27,1.79-1.08,3.88-1.68,6.12-1.68h107.34Z"/>
                <g>
                  <g>
                    <path class="cls-12" d="m161.62,98.61v.27H47.74c.14-.1.28-.18.43-.27h113.46Z"/>
                    <path class="cls-12" d="m161.62,101.87v.27H44.4c.05-.1.12-.18.18-.27h117.04Z"/>
                  </g>
                  <g>
                    <path class="cls-12" d="m161.62,105.51v.27H42.72c.02-.1.05-.18.07-.27h118.83Z"/>
                    <rect class="cls-12" x="42.3" y="108.77" width="119.32" height=".27"/>
                  </g>
                  <g>
                    <path class="cls-12" d="m161.62,105.51v.27H42.72c.02-.1.05-.18.07-.27h118.83Z"/>
                    <rect class="cls-12" x="42.3" y="108.77" width="119.32" height=".27"/>
                  </g>
                  <g>
                    <path class="cls-12" d="m161.62,112.39v.27H42.91c-.03-.09-.06-.18-.09-.27h118.8Z"/>
                    <path class="cls-12" d="m161.62,115.67v.27H44.59c-.06-.09-.13-.18-.19-.27h117.23Z"/>
                  </g>
                  <g>
                    <path class="cls-12" d="m161.62,112.39v.27H42.91c-.03-.09-.06-.18-.09-.27h118.8Z"/>
                    <path class="cls-12" d="m161.62,115.67v.27H44.59c-.06-.09-.13-.18-.19-.27h117.23Z"/>
                  </g>
                  <path class="cls-12" d="m161.62,119.29v.27H48.83c-.17-.07-.34-.17-.5-.27h113.3Z"/>
                </g>
              </g>
            </g>
            <g>
              <path class="cls-8" d="m170.42,145.91H43.24c-5.91,0-10.7-4.79-10.7-10.7h0c0-5.91,4.79-10.7,10.7-10.7h127.17v21.41Z"/>
              <g>
                <path class="cls-11" d="m170.6,127.95v14.88H45.35c-1.75,0-3.37-.61-4.65-1.64-.05-.04-.12-.09-.17-.14-.61-.51-1.13-1.13-1.53-1.82-.04-.05-.07-.1-.1-.15-.3-.51-.53-1.06-.69-1.63-.01-.05-.03-.1-.03-.15-.16-.59-.25-1.19-.26-1.82v-.14c0-.56.07-1.11.19-1.63.01-.05.02-.1.04-.15.16-.65.4-1.26.72-1.82.03-.05.05-.11.1-.15.31-.53.68-1.02,1.12-1.46.05-.05.12-.12.18-.17.05-.05.11-.1.16-.14,1.31-1.16,3.04-1.87,4.91-1.87h125.24Z"/>
                <g>
                  <g>
                    <path class="cls-12" d="m170.6,129.82v.14H40.28c.05-.05.11-.1.16-.14h130.16Z"/>
                    <path class="cls-12" d="m170.6,131.59v.15H38.88c.03-.05.05-.11.1-.15h131.62Z"/>
                  </g>
                  <g>
                    <path class="cls-12" d="m170.6,133.56v.15H38.12c.01-.05.02-.1.04-.15h132.44Z"/>
                    <rect class="cls-12" x="37.92" y="135.34" width="132.67" height=".14"/>
                  </g>
                  <g>
                    <path class="cls-12" d="m170.6,133.56v.15H38.12c.01-.05.02-.1.04-.15h132.44Z"/>
                    <rect class="cls-12" x="37.92" y="135.34" width="132.67" height=".14"/>
                  </g>
                  <g>
                    <path class="cls-12" d="m170.6,137.3v.15H38.21c-.01-.05-.03-.1-.03-.15h132.42Z"/>
                    <path class="cls-12" d="m170.6,139.08v.15H39c-.04-.05-.07-.1-.1-.15h131.69Z"/>
                  </g>
                  <g>
                    <path class="cls-12" d="m170.6,137.3v.15H38.21c-.01-.05-.03-.1-.03-.15h132.42Z"/>
                    <path class="cls-12" d="m170.6,139.08v.15H39c-.04-.05-.07-.1-.1-.15h131.69Z"/>
                  </g>
                  <path class="cls-12" d="m170.6,141.05v.14H40.71c-.05-.04-.12-.09-.17-.14h130.06Z"/>
                </g>
              </g>
            </g>
            <g>
              <path class="cls-12" d="m163.7,167.32H36.53c-5.91,0-10.7-4.79-10.7-10.7h0c0-5.91,4.79-10.7,10.7-10.7h127.17v21.41Z"/>
              <g>
                <path class="cls-11" d="m163.88,149.36v14.88H38.64c-1.75,0-3.37-.61-4.65-1.64-.05-.04-.12-.09-.17-.14-.61-.51-1.13-1.13-1.53-1.82-.04-.05-.07-.1-.1-.15-.3-.51-.53-1.06-.69-1.63-.01-.05-.03-.1-.03-.15-.16-.59-.25-1.19-.26-1.82v-.14c0-.56.07-1.11.19-1.63.01-.05.02-.1.04-.15.16-.65.4-1.26.72-1.82.03-.05.05-.11.1-.15.31-.53.68-1.02,1.12-1.46.05-.05.12-.12.18-.17.05-.05.11-.1.16-.14,1.31-1.16,3.04-1.87,4.91-1.87h125.24Z"/>
                <g>
                  <g>
                    <path class="cls-12" d="m163.88,151.23v.14H33.57c.05-.05.11-.1.16-.14h130.16Z"/>
                    <path class="cls-12" d="m163.88,152.99v.15H32.17c.03-.05.05-.11.1-.15h131.62Z"/>
                  </g>
                  <g>
                    <path class="cls-12" d="m163.88,154.97v.15H31.4c.01-.05.02-.1.04-.15h132.44Z"/>
                    <rect class="cls-12" x="31.21" y="156.75" width="132.67" height=".14"/>
                  </g>
                  <g>
                    <path class="cls-12" d="m163.88,154.97v.15H31.4c.01-.05.02-.1.04-.15h132.44Z"/>
                    <rect class="cls-12" x="31.21" y="156.75" width="132.67" height=".14"/>
                  </g>
                  <g>
                    <path class="cls-12" d="m163.88,158.71v.15H31.5c-.01-.05-.03-.1-.03-.15h132.42Z"/>
                    <path class="cls-12" d="m163.88,160.49v.15H32.29c-.04-.05-.07-.1-.1-.15h131.69Z"/>
                  </g>
                  <g>
                    <path class="cls-12" d="m163.88,158.71v.15H31.5c-.01-.05-.03-.1-.03-.15h132.42Z"/>
                    <path class="cls-12" d="m163.88,160.49v.15H32.29c-.04-.05-.07-.1-.1-.15h131.69Z"/>
                  </g>
                  <path class="cls-12" d="m163.88,162.46v.14H33.99c-.05-.04-.12-.09-.17-.14h130.06Z"/>
                </g>
              </g>
            </g>
            <g>
              <rect class="cls-7" x="30.55" y="166.59" width="134.79" height="17.42"/>
              <rect class="cls-10" x="42.88" y="166.59" width="5.99" height="17.42"/>
              <rect class="cls-10" x="149.92" y="166.59" width="5.98" height="17.42"/>
              <rect class="cls-11" x="59.57" y="171.13" width="78.92" height="7.44"/>
            </g>
          </g>
        </g>
        <g>
          <polygon class="cls-8" points="20.78 98.22 21.9 84.42 25.63 97.85 37.57 97.29 27.87 102.33 30.48 113.71 23.21 104.01 12.95 112.96 18.73 102.52 8.47 98.97 20.78 98.22"/>
          <polygon class="cls-8" points="156.35 58.34 151.13 47.65 159.77 55.94 168.34 50.29 163.38 58.26 170.3 65.53 160.67 61.55 157.01 72.66 156.71 62.41 147.58 64.28 156.35 58.34"/>
          <polygon class="cls-8" points="54.64 29.29 55.59 19.16 58.21 29.06 66.98 28.76 59.81 32.37 61.62 40.75 56.37 33.56 48.75 40.04 53.1 32.42 45.59 29.72 54.64 29.29"/>
        </g>
        <g>
          <path class="cls-3" d="m30.98,46c-3.07,1.42-5.57,4.06-6.81,7.21-.75,1.89-1.02,4.15.02,5.9,1.03,1.73,3.12,2.56,5.13,2.75,2.15.2,4.41-.23,6.18-1.47,1.77-1.24,2.99-3.34,2.91-5.5-.03-.94-.38-1.97-1.21-2.41-.95-.5-2.12-.06-3.03.53-3.3,2.12-5.26,6.21-4.73,10.09.53,3.89,3.61,7.33,7.44,8.17,3.83.84,8.14-1.09,9.95-4.57.64-1.24.95-2.82.17-3.98-1.32-1.93-4.43-1.09-6.14.5-3.51,3.27-4.5,8.94-2.32,13.22s7.37,6.78,12.08,5.85"/>
          <path class="cls-1" d="m163.12,109.76c1.62,1.56,3.48,2.96,5.64,3.59,2.16.63,4.67.39,6.4-1.04.89-.74,1.54-1.75,1.89-2.85.71-2.19.19-4.76-1.41-6.41-1.6-1.65-4.26-2.22-6.34-1.26-.9.42-1.73,1.19-1.83,2.18-.09.91.48,1.8,1.26,2.29s1.71.65,2.63.68c3.28.13,6.71-1.32,8.5-4.07s1.58-6.8-.83-9.03"/>
        </g>
        <g>
          <path class="cls-11" d="m131.79,21.53c0,2.19-1.77,3.96-3.96,3.96s-3.96-1.77-3.96-3.96,1.77-3.96,3.96-3.96,3.96,1.77,3.96,3.96Z"/>
          <path class="cls-11" d="m176.6,84.72c0,2.19-1.77,3.96-3.96,3.96s-3.96-1.77-3.96-3.96,1.77-3.96,3.96-3.96,3.96,1.77,3.96,3.96Z"/>
          <path class="cls-11" d="m29.02,128.64c0,2.19-1.77,3.96-3.96,3.96s-3.96-1.77-3.96-3.96,1.77-3.96,3.96-3.96,3.96,1.77,3.96,3.96Z"/>
          <path class="cls-11" d="m25.19,75.28c0,2.19-1.77,3.96-3.96,3.96s-3.96-1.77-3.96-3.96,1.77-3.96,3.96-3.96,3.96,1.77,3.96,3.96Z"/>
        </g>
      </g>
    </g>
  </g>
</svg>