<?xml version="1.0" encoding="UTF-8"?>
<svg id="_Слой_2" data-name="Слой 2" xmlns="http://www.w3.org/2000/svg" viewBox="0 0 182.35 191.33">
  <defs>
    <style>
      .cls-1 {
        fill: #f66057;
      }

      .cls-2 {
        fill: #edded1;
      }

      .cls-3 {
        fill: #6d75fe;
      }

      .cls-4 {
        fill: #4e2957;
      }

      .cls-5 {
        fill: #b2bd66;
      }

      .cls-6 {
        fill: #ffabe7;
      }
    </style>
  </defs>
  <g id="OBJECTS">
    <g>
      <g>
        <polygon class="cls-2" points="4.84 110.6 0 18.42 76.88 16.34 74.61 106.08 4.84 110.6"/>
        <path class="cls-5" d="m8.59,105.09l-.02-.6L6.34,25.53l65.96-3.9v81.84l-63.71,1.62Zm-1.01-78.42l2.18,77.17,61.33-1.56V22.92l-63.51,3.76Z"/>
        <polygon class="cls-5" points="12.77 38.45 27.15 35.57 28.12 48.98 13.25 49.96 12.77 38.45"/>
        <polygon class="cls-2" points="14.9 43.63 17.03 41.83 19.16 45.92 23.71 37.2 26.15 38.09 19.16 47.63 14.9 43.63"/>
        <polygon class="cls-5" points="14.9 57.12 29.28 54.24 30.24 67.66 15.38 68.64 14.9 57.12"/>
        <polygon class="cls-2" points="17.03 62.3 19.16 60.5 21.29 64.59 25.84 55.87 28.28 56.76 21.28 66.3 17.03 62.3"/>
        <polygon class="cls-5" points="15.91 75.8 30.29 72.92 31.25 86.34 16.39 87.32 15.91 75.8"/>
        <polygon class="cls-2" points="18.04 80.98 20.17 79.18 22.3 83.27 26.85 74.55 29.29 75.44 22.29 84.98 18.04 80.98"/>
        <rect class="cls-4" x="32.03" y="39.53" width="23.84" height="3.63" transform="translate(-2.85 3.25) rotate(-4.11)"/>
        <rect class="cls-4" x="33.67" y="59.24" width="30.43" height="3.63" transform="translate(-1.53 1.26) rotate(-1.45)"/>
        <rect class="cls-4" x="33.68" y="77.95" width="18.97" height="3.63"/>
      </g>
      <g>
        <g>
          <path class="cls-6" d="m121.67,124.4l-1.66-11.65s-36.17,2.27-39.5-8.17c-3.33-10.44,22.25-76.57,50.24-91.1l25.58,7.57,8.78,19.22-1.51,27.09s15.89-7.72,18.31-.76-4.84,19.07-24.21,14.53c0,0,1.82,27.09-.76,27.69-2.57.61-23,3.78-23,3.78l-3.18,11.8h-9.08Z"/>
          <path class="cls-1" d="m154.81,73.24l6.05-11.96s-19.52,3.63,0-20.28l-12.56-16.8s-13.84,18.01-15.93,16.5c-2.08-1.51,4.58-14.98,4.58-14.98,0,0-19.98,21.94-23,18.46-3.03-3.48,8.47-17.86,8.47-17.86,0,0-24.67,17.25-28.45,12.11-3.78-5.15,37.53-38.44,37.53-38.44l40.25,30.27s-9.53,23.76-2.72,41.16l-14.23,1.82Z"/>
          <g>
            <path class="cls-4" d="m117.99,71.43s-.08,0-.13,0c-.77-.03-1.38-.37-1.76-.97-1.52-2.37.94-8.55,1.23-9.25l1.12.46c-.99,2.41-2.22,6.75-1.33,8.14.17.27.42.4.79.41,2.69.06,4.03-5.7,4.34-7.95l1.2.16c-.13.93-1.35,9-5.46,9Z"/>
            <path class="cls-4" d="m127.88,73.02s-.08,0-.13,0c-.77-.03-1.38-.37-1.76-.97-1.52-2.37.94-8.55,1.23-9.25l1.12.46c-.99,2.41-2.22,6.75-1.33,8.14.17.27.42.4.79.41.02,0,.05,0,.07,0,2.61,0,3.97-5.73,4.27-7.95l1.2.16c-.13.93-1.35,9-5.46,9Z"/>
            <g>
              <path class="cls-2" d="m145.12,90.95c-2.3,8.51-15.88,7.93-22.26,7.16l3.24-8.14-3.24-4.52c5.17-.45,14.65-2.78,15.31-13.86,0,0,9.98,8.17,6.95,19.37Z"/>
              <path class="cls-4" d="m138.55,71.11l-.07-.06c.98-.07,2.11.27,3.38,1.04l.63-1.04c-1.91-1.16-3.62-1.51-5.08-1.05-1.77.55-2.49,2.1-2.52,2.16l1.1.5s.48-1,1.59-1.43l-.02.3c-.24,3.95-1.66,7.1-4.24,9.35-4.54,3.97-11.42,4.07-13.26,4.03l-1.19-6.62-.83.89c-6.45,6.95-13.34,3.23-15.02,2.15l11.94-31.79-1.13-.43-12.27,32.66.36.27c.09.06,8.4,6.14,16.17-1.2l.94,5.22.47.04c.36.03,8.96.63,14.61-4.3,2.56-2.23,4.08-5.24,4.54-8.95,1.08,1.07,2.94,3.15,4.38,5.95l-10.62,8.74,12.13-4.85c.64,2.42.8,5.16,0,8.1-2.84,10.52-24.65,6.27-24.87,6.22l-.54-.11-2.65,8.64c-2.45-1.09-11.18-4.61-15.14-1.42-1.94,1.56-2.43,4.42-1.45,8.5l1.18-.28c-.86-3.58-.51-6.03,1.03-7.27,3.94-3.17,14.38,1.81,14.49,1.86l.63.31,2.74-8.93c3.57.64,22.83,3.56,25.74-7.2,3.09-11.44-7.06-19.91-7.16-20Z"/>
            </g>
            <rect class="cls-1" x="110.42" y="45.78" width="15.23" height="6.05" transform="translate(-8.03 28.26) rotate(-13.21)"/>
            <rect class="cls-1" x="128.78" y="49.95" width="6.05" height="13.3" transform="translate(38.88 165.89) rotate(-72.86)"/>
            <path class="cls-4" d="m168.27,79.99l-1.07-.57.53.28-.54-.28c.08-.15.72-1.45-.27-1.99-1.11-.6-2.65,1.08-2.66,1.1l-.97-.72c.13-.21,3.23-5.17,8.13-5.17.05,0,.11,0,.16,0,1.66.04,2.84.54,3.48,1.5,1,1.47.3,3.4.27,3.48l-1.13-.42s.51-1.44-.14-2.38c-.42-.61-1.26-.93-2.51-.96-2.11-.06-3.95,1.09-5.22,2.24.38-.01.77.07,1.16.28,1.66.89,1.23,2.76.77,3.62Z"/>
          </g>
        </g>
        <g>
          <g>
            <path class="cls-6" d="m71.76,112.56c-4.31-6.87-17.88-27.67-22.06-24.18-5.36,4.47,17.34,24.67,17.34,24.67,0,0-13.77,6.66-12.11,12.11,1.66,5.45,9.08.91,9.08.91l1.35,5.83,10.76-3.25,3.48-18.31s-4.06.88-7.84,2.24Z"/>
            <path class="cls-4" d="m79.47,109.73c-1.32.29-12.9,2.89-14.51,6.31-.29.61-.28,1.24.03,1.82.4.77,1.05,1.28,1.92,1.51.8.21,1.75.14,2.72-.07l-2.64,2.76-4.62-5.86-.95.75,4.73,6-.94.99-8.81-3.58-.46,1.12,8.37,3.4-.73.77.87.84,7.59-7.95c2.23-.92,4.12-2.16,4.26-2.25l-.67-1.01c-1.55,1.02-6.08,3.54-8.42,2.94-.53-.14-.91-.43-1.15-.89-.13-.25-.13-.48,0-.75,1.06-2.25,8.88-4.52,12.77-5.44l-3.31,17.4,1.19.23,3.65-19.21-.89.19Z"/>
          </g>
          <polygon class="cls-2" points="64.16 139.38 61.89 129.69 78.39 124.4 78.39 138.17 64.16 139.38"/>
          <path class="cls-2" d="m134.38,125.91s.65.3,1.79.91l-22.98,42.97,3.66-42.2,2.7-1.84-1.82-7.42,18.62-.75-1.97,8.33Z"/>
          <polygon class="cls-4" points="121.14 119.63 130.9 119.63 126.02 126.06 124.78 165.63 108.73 164.5 122.85 125.83 121.14 119.63"/>
          <path class="cls-3" d="m172.68,166.62c-7.22-22.82-29.94-36.31-36.5-39.79l-19.32,32.23v-31.45l-33.62,22.98-3.01-20.88-18.78,4.38s-3.49,23.61,10.15,29.77c13.41,6.07,38.62-22.29,39.33-23.1l-18.75,40.1c24.21,23.61,58.11,0,58.11,0l-.59-2.17c19.54.21,22.99-12.06,22.99-12.06Zm-27.47-4.39l-7.03-25.87,21.03,24.82-13.99,1.05Z"/>
          <polygon class="cls-4" points="115.25 160.15 110.24 134.58 113.68 133.47 111.84 132.41 112.44 131.36 116.65 133.78 111.63 135.4 116.44 159.92 115.25 160.15"/>
          <polygon class="cls-4" points="119.28 160.1 118.31 159.37 134.65 137.68 132.09 134.94 136.58 133.42 136.58 127.88 137.79 127.88 137.79 134.29 134.26 135.49 136.23 137.59 119.28 160.1"/>
          <rect class="cls-4" x="143.62" y="135.54" width="1.21" height="46.11" transform="translate(-36.58 43.43) rotate(-15.22)"/>
        </g>
      </g>
    </g>
  </g>
</svg>