<?xml version="1.0" encoding="UTF-8"?>
<svg id="_Слой_2" data-name="Слой 2" xmlns="http://www.w3.org/2000/svg" viewBox="0 0 430.28 512">
  <defs>
    <style>
      .cls-1 {
        fill: #fff;
      }

      .cls-2 {
        fill: #ffa5bc;
      }

      .cls-3 {
        fill: #f8bdff;
      }

      .cls-4 {
        fill: #e38066;
      }

      .cls-5, .cls-6 {
        fill: #2f2942;
      }

      .cls-7 {
        fill: #977bff;
      }

      .cls-8 {
        opacity: .22;
      }

      .cls-9 {
        fill: #ffc063;
      }

      .cls-10 {
        fill: none;
        stroke: #2f2942;
        stroke-linecap: round;
        stroke-linejoin: round;
        stroke-width: 2.16px;
      }

      .cls-6 {
        opacity: .3;
      }

      .cls-11 {
        fill: #f7ede5;
      }
    </style>
  </defs>
  <g id="_01" data-name="01">
    <g>
      <path class="cls-1" d="m204.72,512c-1.28,0-2.54-.01-3.75-.04-35.02-.75-57.13-17.27-68.42-28.92-1.03-.34-2.09-.7-3.19-1.09-2.74-.96-5.59-2.02-8.4-3.13-.71-.28-1.4-.58-2.1-.88l-1.88-.79c-1.44-.6-2.87-1.19-4.29-1.83-1.66-.74-3.3-1.54-4.95-2.34l-1.45-.69c-.56-.26-1.11-.53-1.66-.8-2.29-1.16-4.69-2.44-7.3-3.9-.14-.08-.51-.28-.55-.3-.56-.31-2.35-1.36-2.35-1.36-.38-.22-.81-.49-1.25-.77l-.76-.47c-1.67-1.01-3.34-2.01-4.98-3.07-.92-.6-1.82-1.22-2.72-1.84l-1.92-1.31c-.9-.61-1.8-1.22-2.68-1.86-1.73-1.25-3.43-2.58-5.13-3.92l-.54-.41c-.5-.38-1-.75-1.48-1.15-2.42-1.97-4.76-3.98-6.94-5.97-11.87-10.87-22.16-23.71-30.61-38.18-10.98-18.7-18.69-39.55-22.89-61.97-5.49-29.32-5.04-61.09,1.32-94.62l-3.8-1.12c-5.95-1.76-10.04-7.23-10.04-13.43s4.08-11.67,10.04-13.43l11.35-3.36c2-6.83,4.21-13.59,6.63-20.21l-4.66-8.59c-2.96-5.45-1.98-12.2,2.41-16.59,2.7-2.7,6.28-4.1,9.91-4.1.76,0,1.52.06,2.28.19l11.8-33.45c1.25-3.54,3.87-6.43,7.27-8.03,1.88-.88,3.91-1.32,5.94-1.32,1.04,0,2.09.12,3.12.35.24-.32.48-.64.71-.95l-1.36-.81c-3.91-2.33-6.44-6.42-6.79-10.95-.35-4.54,1.53-8.96,5.03-11.87l28.07-23.26c1.22-1.01,2.59-1.8,4.04-2.34-1.01-1.97-1.79-3.98-2.34-6.05-4.29-16,3.98-27.82,14.12-34.74-.51-9.4,2.66-20.75,14.88-30.05,5.54-4.22,12.82-6.28,22.25-6.28,27.11,0,68.87,17.78,77.14,21.43,38.67,10.71,61.42,18.73,67.64,23.85,2.39,1.97,3.93,4.3,4.92,6.65,4.06,1.45,8.06,3.05,11.98,4.79,2.12-3.02,5.38-5.11,9.09-5.75.79-.14,1.59-.2,2.38-.2,3.68,0,7.26,1.45,9.91,4.1l25.78,25.78c2.66,2.66,4.13,6.26,4.1,10.02,0,.44-.03.87-.07,1.31,1.73,1.7,3.44,3.43,5.13,5.21.51-.05,1.02-.08,1.53-.08,1.71,0,3.42.31,5.06.95,4.24,1.64,7.43,5.24,8.53,9.66l2.74,10.91c26.44,36.2,43.29,81.35,47.8,128.03,1.24,2.11,1.94,4.55,1.94,7.12,0,1.86-.37,3.65-1.04,5.3,1.65,34.02-3.65,66.49-15.44,94.23-6.23,14.66-14.04,28.73-23.24,41.92,1.22,31.26.52,58.54.07,70.76.38,1.72.71,3.39.98,5.08,1.2,7.4-3.63,14.43-10.97,15.96-4.9,1.02-120.68,24.99-175.92,24.99,0,0,0,0,0,0Z"/>
      <g>
        <path class="cls-4" d="m400.42,348.66c-6.49,15.27-14.76,29.77-24.54,43.17-10.13,13.89-21.9,26.62-34.95,37.78-15.15,13.05-32.04,23.98-50.18,32.27-8.92,4.09-18.12,7.52-27.53,10.3-36.87,10.93-76.75,11.81-113.97,2.15-2.17-.56-4.34-1.14-6.49-1.8-.4-.12-.82-.23-1.21-.35-.58-.16,23.28-29.2,22.7-29.39-2.1-.63-3.97-7.62-6.03-8.34-10.46-3.64-9.36,2.22-19-3.24-.72-.4-19.69-12.56-20.39-12.98-9.34-5.44-24.02-6.16-31.98-13.44-11.07-10.13-32.25,8.93-39.82-4.03-10.37-17.65-17.44-37.34-21.22-57.49-6.54-34.91-3.62-71.12,4.81-105.61,11.74-48.19,34.74-94.4,70.47-128.82,57.53-55.43,154.57-71.47,222.22-25.71,78.97,53.4,113.92,178.88,77.12,265.53Z"/>
        <polygon class="cls-9" points="161.36 236.67 118.25 249.43 139.71 288.94 100.2 267.48 87.44 310.59 74.69 267.48 35.17 288.94 56.63 249.43 13.52 236.67 56.63 223.92 35.17 184.4 74.69 205.86 87.44 162.75 100.2 205.86 139.71 184.4 118.25 223.92 161.36 236.67"/>
        <g>
          <polygon class="cls-3" points="154.62 175.98 50.34 176.17 62.47 141.79 154.62 175.98"/>
          <polygon class="cls-3" points="161.67 167.77 72.12 114.34 100.2 91.08 161.67 167.77"/>
        </g>
        <polygon class="cls-9" points="415.78 254.6 372.67 267.36 394.13 306.87 354.61 285.42 341.86 328.53 329.1 285.42 289.59 306.87 311.05 267.36 267.94 254.6 311.05 241.85 289.59 202.33 329.1 223.79 341.86 180.68 354.61 223.79 394.13 202.33 372.67 241.85 415.78 254.6"/>
        <g>
          <polygon class="cls-3" points="272.51 159.76 317.34 65.61 343.12 91.39 272.51 159.76"/>
          <polygon class="cls-3" points="276.87 169.66 363.72 111.95 372.58 147.31 276.87 169.66"/>
        </g>
        <g>
          <path class="cls-7" d="m375.9,472.18h-234.36c-2.69-.79-5.37-1.66-8.01-2.59-21.43-7.47-41.77-18.61-58.54-33.93-11.07-10.13-20.41-21.95-27.97-34.91,8.5-51.23,22.39-115.09,41.4-137.88,33.62-40.35,74.81-50.43,74.81-50.43,0,0,3.01-19.26,14.13-27.2,2.01-1.47,4.3-2.55,6.89-3.06,16.81-3.36,63.04-3.36,63.04-3.36l14.29,5.04,15.13,23.54s46.23,16.81,76.49,67.25c15.08,25.12,20.76,74.23,22.67,117.19,1.94,43.29.02,80.35.02,80.35Z"/>
          <g>
            <path class="cls-10" d="m163.23,212.43l-8.97,38.11s24.1-18.49,30.26-5.04c0,0,18.49-14.57,34.18-3.92,15.69,10.65,21.29,28.02,21.29,28.02l36.71-62.2"/>
            <line class="cls-10" x1="175" y1="314.43" x2="184.53" y2="243.82"/>
          </g>
          <path class="cls-5" d="m261.58,183.86c-.82,1.63-5.7,6.05-12.61,11.79-21.39,17.75-48.75,13.85-48.75,13.85,0,0-16.02,28.46-18.94,20.8-3.41-8.99-7.28-20.45-7.96-27.95-.63-7,1.63-12.96,4.04-17.12,2.01-1.47,4.3-2.55,6.89-3.06.47-.09.98-.19,1.49-.28,17.89-3.08,61.55-3.08,61.55-3.08l1.54.54,12.75,4.51Z"/>
          <ellipse class="cls-2" cx="255.14" cy="129.16" rx="19.05" ry="19.95"/>
          <g>
            <path class="cls-2" d="m248.97,195.65c-21.39,17.75-62.2,48.17-62.2,48.17,0,0-2.57-5.86-5.49-13.52l3.06-33.25,1.4-15.15,1.59-17.09,35.61-21.88,25.47-15.67.42,52.09.14,16.3Z"/>
            <path class="cls-6" d="m225.6,181.33c-5.67,7.33-13.8,12.59-22.56,15.6-6.02,2.05-12.77,2.31-18.7.12l1.4-15.15,1.59-17.09,35.61-21.88c3.11.82,6.07,2.26,7.96,4.81,1.61,2.17,2.29,4.93,2.57,7.61.96,9.22-2.17,18.66-7.87,25.99Z"/>
            <g>
              <path class="cls-5" d="m216.61,35.49s-68.51-30.68-86.16-17.23c-15.45,11.77-7.14,26.48-7.14,26.48,0,0-21.43,6.3-16.81,23.54,4.62,17.23,41.61,29.42,41.61,29.42l78.59-31.94-10.09-30.26Z"/>
              <g>
                <path class="cls-2" d="m259.06,100.92c0-33.12-26.85-59.96-59.96-59.96s-59.96,26.85-59.96,59.96c0,0-2.8,34.18,6.16,52.12,8.97,17.93,35.86,35.3,35.86,35.3,0,0,34.74-1.12,51-24.1,5.17-7.3,8.8-15.4,11.36-23.05,9.66-10.64,15.54-24.77,15.54-40.27Z"/>
                <path class="cls-5" d="m216.61,35.49l-7.99,16.81s0,23.96,18.91,29.84c0,0-14.71,20.59,17.23,38.25,0,0,7.99-14.71,22.7-5.88,0,0,19.75-51.7,12.61-57.58-7.14-5.88-63.46-21.43-63.46-21.43Z"/>
                <path class="cls-5" d="m146.76,52.78c.89,7.56,7.54,14.04,15.12,14.74,7.58.7,15.3-4.46,17.56-11.73,10.26,5.43,23.25,5.33,33.42-.27,3.91-2.15,7.77-5.94,7.06-10.34-.74-4.54-5.82-6.86-10.29-7.94-18.31-4.42-39.48-.38-52.06,13.64"/>
                <g>
                  <polyline class="cls-10" points="175.35 105.27 168.88 126.48 174.83 133.46"/>
                  <path class="cls-10" d="m171.99,140.7s5.69,5.17,10.09,2.59c4.4-2.59,4.14-8.79,4.14-8.79"/>
                  <g>
                    <g>
                      <g>
                        <path class="cls-5" d="m142.58,94.79l-.02.21c-.3,3.88,2.67,7.23,6.55,7.39l12.35.51c3.83.16,7.04-2.85,7.14-6.68h0c.09-3.7-2.76-6.8-6.45-7.02l-12.34-.72c-3.73-.22-6.94,2.59-7.24,6.31Z"/>
                        <path class="cls-5" d="m191.56,97.1l-.02.21c-.3,3.88,2.67,7.23,6.55,7.39l12.35.51c3.83.16,7.04-2.85,7.14-6.68h0c.09-3.7-2.76-6.8-6.45-7.02l-12.34-.72c-3.73-.22-6.94,2.59-7.24,6.31Z"/>
                      </g>
                      <path class="cls-5" d="m161.38,115.1c0,3-2.43,5.43-5.43,5.43s-5.43-2.43-5.43-5.43,2.43-5.43,5.43-5.43,5.43,2.43,5.43,5.43Z"/>
                      <circle class="cls-5" cx="198.63" cy="115.35" r="5.43"/>
                    </g>
                    <path class="cls-10" d="m248.68,136.84c.48-5.14,2.06-10.33,5.46-14.21,3.4-3.88,8.85-6.2,13.85-4.96"/>
                    <path class="cls-10" d="m251.48,127.07c5.98-1.42,12.74,1.73,15.49,7.23"/>
                  </g>
                </g>
              </g>
            </g>
          </g>
          <g>
            <path class="cls-5" d="m286.52,430.94c-.58,0-1.06-.46-1.08-1.05l-2.8-103.11c-.02-.6.45-1.09,1.05-1.11.67.01,1.09.45,1.11,1.05l2.8,103.11c.02.6-.45,1.09-1.05,1.11h-.03Z"/>
            <path class="cls-5" d="m103.23,332.92v123.03c-.72-.4-1.45-.82-2.15-1.24v-121.79c0-.58.49-1.07,1.07-1.07s1.07.49,1.07,1.07Z"/>
            <g>
              <g>
                <g>
                  <g>
                    <path class="cls-5" d="m266.63,386.02c0,43.41-35.19,78.59-78.59,78.59s-78.56-35.15-78.59-78.54v-.06c0-43.4,35.19-78.59,78.59-78.59,37.25,0,68.44,25.9,76.54,60.68,1.35,5.75,2.06,11.76,2.06,17.91Z"/>
                    <g>
                      <path class="cls-7" d="m146.42,334.15c.2.26.26.61.21,1.03-.24,1.77-2.64,4.73-6.12,7.36-3.48,2.63-6.98,4.13-8.76,3.87-.42-.06-.74-.22-.94-.48-1.05-1.39,1.6-5.15,5.91-8.41,4.31-3.25,8.65-4.77,9.7-3.38Z"/>
                      <path class="cls-7" d="m168,317.86c.2.26.26.61.21,1.03-.24,1.77-2.64,4.73-6.12,7.36-3.48,2.63-6.98,4.13-8.76,3.87-.42-.06-.74-.22-.94-.48-1.05-1.39,1.6-5.15,5.91-8.41,4.31-3.25,8.65-4.77,9.7-3.38Z"/>
                      <path class="cls-7" d="m161.9,334.85c.2.26.26.61.21,1.03-.24,1.77-2.64,4.73-6.12,7.36-3.48,2.63-6.98,4.13-8.76,3.87-.42-.06-.74-.22-.94-.48-1.05-1.39,1.6-5.15,5.91-8.41,4.3-3.25,8.65-4.77,9.7-3.38Z"/>
                    </g>
                  </g>
                  <g class="cls-8">
                    <path class="cls-7" d="m266.63,386.02c0,43.41-35.19,78.59-78.59,78.59s-78.56-35.15-78.59-78.54c1.96,7.41,4.85,14.49,8.95,21.07,9.7,15.56,25.92,26.9,43.85,30.65,11.54,2.4,24.34,1.54,34.05-5.18,10.08-6.98,15.24-18.93,21.38-29.55,5.37-9.27,11.93-18.03,20.41-24.59,7.62-5.89,16.91-9.93,26.49-10.37,1.35,5.75,2.06,11.76,2.06,17.91Z"/>
                  </g>
                </g>
                <path class="cls-11" d="m188.89,318.09h0c1.48-2.46,4.31-3.76,7.14-3.27,8.91,1.52,28.22,6.15,39.99,18.88,2.46,2.67,2.36,6.82-.14,9.45l-1.83,1.93c-2.62,2.76-6.95,2.89-9.75.32-5.73-5.25-16.45-13.33-31.2-17-4.5-1.12-6.6-6.32-4.21-10.29Z"/>
              </g>
              <g>
                <path class="cls-2" d="m295.21,427.2s72.01-15.27,82.1,46.93c0,0-123.85,25.78-176.52,24.66-52.68-1.12-76.21-43.15-75.09-56.6,0,0-6.16-7.29,1.68-12.33,0,0-9.53-10.65-2.8-12.89,6.72-2.24,32.5,20.17,49.87,21.29l17.37,1.12,1.26-12.61,12.75-4.2s25.92,11.77,27.6,11.77,61.78-7.14,61.78-7.14Z"/>
                <path class="cls-5" d="m170.38,460.43c-.05,0-.11,0-.16-.01-21.17-3.18-43.83-29.1-44.78-30.2-.39-.45-.34-1.13.11-1.52.45-.39,1.13-.34,1.52.11.23.26,23.1,26.42,43.48,29.48.59.09.99.64.91,1.23-.08.53-.54.92-1.06.92Z"/>
                <path class="cls-5" d="m166.39,473.04c-.14,0-.29-.03-.43-.09-14.71-6.49-35.48-21.71-41.16-30.16-2.32-3.46-3.18-6.51-2.55-9.07.63-2.57,2.57-3.64,2.65-3.68.52-.29,1.18-.09,1.46.44.28.52.09,1.17-.43,1.46-.07.04-1.22.72-1.6,2.36-.45,1.91.33,4.44,2.26,7.3,5.4,8.04,26.09,23.14,40.24,29.39.54.24.79.88.55,1.42-.18.4-.57.64-.99.64Z"/>
                <path class="cls-5" d="m161.76,483.55c-.15,0-.3-.03-.44-.09-.15-.07-15.07-6.84-26-16.93-8.93-8.24-10.9-21.58-10.98-22.15-.08-.59.33-1.13.92-1.22.59-.07,1.13.33,1.22.92.02.13,1.96,13.16,10.31,20.86,10.67,9.85,25.27,16.48,25.42,16.55.54.25.78.88.54,1.43-.18.4-.57.64-.98.64Z"/>
              </g>
            </g>
          </g>
        </g>
      </g>
    </g>
  </g>
</svg>