<?xml version="1.0" encoding="UTF-8"?>
<svg id="_Слой_2" data-name="Слой 2" xmlns="http://www.w3.org/2000/svg" viewBox="0 0 222.11 191.32">
  <defs>
    <style>
      .cls-1 {
        opacity: .18;
      }

      .cls-2, .cls-3, .cls-4 {
        fill: #fff;
      }

      .cls-5 {
        fill: #00d4fc;
      }

      .cls-6, .cls-3 {
        opacity: .5;
      }

      .cls-7 {
        fill: #3c1da1;
      }

      .cls-8 {
        fill: #d811ad;
      }

      .cls-9 {
        fill: #845ef9;
      }

      .cls-10 {
        fill: #0a1640;
      }

      .cls-4 {
        opacity: .75;
      }

      .cls-11 {
        fill: #ffce00;
      }

      .cls-12 {
        fill: #ff8cdb;
      }

      .cls-13 {
        fill: #e38921;
      }

      .cls-14 {
        opacity: .25;
      }
    </style>
  </defs>
  <g id="OBJECTS">
    <g>
      <g>
        <g>
          <path class="cls-2" d="m207.78,48.63l-45.51,119.59c-.8,2.09-3.13,3.14-5.22,2.34l-85.48-32.53c-2.08-.79-3.13-3.13-2.34-5.22L114.74,13.23s.02-.04.03-.06c.81-2.05,3.12-3.07,5.18-2.28l85.48,32.53c2.09.8,3.14,3.13,2.34,5.22Z"/>
          <g>
            <path class="cls-8" d="m134.36,48.62c-1.92-1.91-1.68-4.01-.11-4.98,4.59-2.85,13.51,2.61,10.11,6.39-1.65,1.84-6.93,1.64-9.99-1.4Z"/>
            <path class="cls-8" d="m169.6,62.03c2.7-.15,3.92-1.88,3.4-3.64-1.53-5.18-11.83-7.03-11.79-1.95.02,2.47,4.09,5.83,8.4,5.59Z"/>
            <path class="cls-8" d="m170.34,113.96l-2.56-.08-5.03-.16-1.67-.05-8.92-.27-1.67-.05-8.48-.26-3.38-.1c-.32-.01-.62.05-.89.17-1.02.45-1.55,1.73-.96,2.82l1.17,2.17.99,1.85,1.78,3.31,1.14,2.13,2.36,4.38.99,1.85,2.75,5.11,1.14,2.13,1.39,2.59.99,1.85.32.59c.74,1.38,2.69,1.44,3.51.11l1.38-2.24.85-1.37,4.51-7.31.85-1.37,4.52-7.3,4.58-7.4c.83-1.33-.1-3.05-1.66-3.1Zm-12.53,15.86l-.84,1.37-2.21,3.57s0,.01-.02.02c-.41.62-1.29.64-1.72.08-.03-.05-.06-.1-.09-.15l-3.42-6.36-1.14-2.12-.64-1.17-.99-1.85-1.65-3.06c-.39-.72.15-1.58.97-1.56l2.42.07,1.67.05,2.34.07,4.84.15,1.74.05,1.67.05,1.86.06c.81.02,1.3.92.87,1.62l-.28.45-.84,1.37-4.52,7.3Z"/>
          </g>
          <path class="cls-11" d="m123.99,45.85l3.16,7.8c.15.36.46.63.84.71l8.22,1.82c.96.21,1.25,1.43.5,2.06l-6.45,5.42c-.3.25-.45.63-.42,1.02l.81,8.38c.09.98-.97,1.63-1.8,1.12l-7.14-4.46c-.33-.21-.74-.24-1.1-.08l-7.72,3.36c-.9.39-1.85-.42-1.62-1.37l2.03-8.17c.09-.38,0-.78-.26-1.07l-5.58-6.3c-.65-.73-.18-1.89.8-1.96l8.4-.59c.39-.03.74-.24.93-.58l4.27-7.26c.5-.84,1.75-.75,2.11.16Z"/>
          <path class="cls-5" d="m117.41,89.62c-.3-.11-.57-.32-.76-.61-.48-.73-.28-1.71.45-2.19,2.14-1.41,4.35-.23,5.97.63,1.35.72,2.21,1.13,2.74.78.54-.35.5-1.3.37-2.83-.15-1.82-.35-4.32,1.79-5.73,2.14-1.41,4.35-.23,5.97.63,1.35.72,2.21,1.13,2.74.78.54-.35.5-1.3.37-2.83-.15-1.82-.35-4.32,1.79-5.73,2.14-1.41,4.35-.23,5.97.63,1.35.72,2.21,1.13,2.74.78.54-.35.5-1.3.37-2.83-.15-1.82-.36-4.32,1.79-5.73,2.14-1.41,4.35-.23,5.97.63,1.35.72,2.21,1.13,2.74.78.73-.48,1.71-.28,2.19.45.48.73.28,1.71-.45,2.19-2.14,1.41-4.35.23-5.97-.63-1.35-.72-2.21-1.13-2.74-.78-.54.35-.5,1.3-.37,2.83.15,1.82.36,4.32-1.79,5.73-2.14,1.41-4.35.23-5.97-.63-1.35-.72-2.21-1.13-2.74-.78-.54.35-.5,1.3-.37,2.83.15,1.82.35,4.32-1.79,5.73-2.14,1.41-4.35.23-5.97-.63-1.35-.72-2.2-1.13-2.74-.78-.54.35-.5,1.3-.37,2.83.15,1.82.35,4.32-1.79,5.73-2.14,1.41-4.35.23-5.97-.63-1.35-.72-2.21-1.13-2.74-.78-.44.29-.97.33-1.43.16Z"/>
          <g>
            <path class="cls-7" d="m146.74,87.79c-.7,1.84.22,3.89,2.06,4.59,1.84.7,3.89-.22,4.59-2.06.7-1.84-.22-3.89-2.06-4.59-1.84-.7-3.89.22-4.59,2.06Z"/>
            <path class="cls-7" d="m135.48,96.77c-.7,1.84.22,3.89,2.06,4.59,1.84.7,3.89-.22,4.59-2.06.7-1.84-.22-3.89-2.06-4.59-1.84-.7-3.89.22-4.59,2.06Z"/>
            <path class="cls-7" d="m149.36,102.05c-.7,1.84.22,3.89,2.06,4.59,1.84.7,3.89-.22,4.59-2.06.7-1.84-.22-3.89-2.06-4.59s-3.89.22-4.59,2.06Z"/>
          </g>
          <path class="cls-13" d="m122.86,53.26l1.44,3.55c.07.16.21.28.38.32l3.73.83c.43.1.57.65.23.94l-2.93,2.46c-.14.11-.21.29-.19.46l.37,3.81c.04.44-.44.74-.82.51l-3.25-2.02c-.15-.09-.34-.11-.5-.04l-3.51,1.53c-.41.18-.84-.19-.74-.62l.92-3.71c.04-.17,0-.35-.12-.49l-2.53-2.86c-.29-.33-.08-.86.36-.89l3.82-.27c.18-.01.34-.11.42-.26l1.94-3.3c.23-.38.79-.34.96.07Z"/>
          <g>
            <path class="cls-9" d="m125.98,149.22c-1.14-.43-2.25-.99-3.3-1.67-4.15-2.69-6.78-6.9-7.21-11.55-.02-.23-.04-.47-.05-.71-2.82-1.22-5.22-2.79-6.49-4.26-3.07-3.55-4.41-8.17-3.72-12.37-4-3.24-7.13-8.17-7.29-14.3-.04-1.71.22-3.42.74-5-1.22-1.19-2.25-2.55-2.94-4.02-1.79-3.81-.92-7.63,2.45-10.76.64-.59,1.64-.56,2.23.09.59.64.56,1.64-.09,2.23-2.34,2.17-2.92,4.55-1.73,7.09.37.79.9,1.56,1.53,2.28.49-.77,1.06-1.47,1.69-2.07,1.92-1.82,4.32-2.67,6.95-2.46,2.62.21,5.42,1.7,6.97,3.71,1.12,1.45,1.55,3.09,1.26,4.74-.45,2.53-2.27,4.18-4.98,4.54-3,.4-7.17-.86-10.66-3.21-.19.9-.29,1.83-.26,2.75.12,4.6,2.26,8.39,5.14,11.08,2.05-4.19,7.34-7.38,11.72-6.95,2.9.28,5.41,2.18,6.41,4.83.95,2.51.38,5.23-1.53,7.27-2.53,2.71-7.14,3.24-12.04,1.38,0,0,0,0,0,0-.86-.33-1.73-.73-2.58-1.21-.03,2.87,1.06,5.9,3.11,8.27.84.98,2.42,2.04,4.31,2.95.6-3.56,2.43-7.04,5.84-8.5,2.9-1.24,6.69-.68,9.2,1.36,2.03,1.65,2.91,4.04,2.4,6.56-.6,2.97-2.48,4.96-5.44,5.73-2.59.68-5.83.32-8.92-.59.55,3.37,2.59,6.41,5.69,8.42,3.59,2.32,8.01,2.93,11.83,1.62.83-.28,1.73.16,2.01.98.28.83-.16,1.73-.98,2.01-3.6,1.23-7.62,1.1-11.28-.29Zm1.16-22.87c-1.44-.55-3.13-.59-4.43-.03-2.39,1.02-3.72,3.92-4.06,6.82,2.87.97,5.95,1.45,8.18.86,1.79-.47,2.78-1.52,3.14-3.3.35-1.73-.51-2.85-1.29-3.48-.45-.36-.98-.66-1.54-.87Zm-18.33-8.99c1.01.65,2.06,1.17,3.1,1.57,0,0,0,0,0,0,3.61,1.37,6.99,1.14,8.6-.58,1.48-1.59,1.19-3.19.88-4-.58-1.53-2.06-2.63-3.76-2.8-3.23-.32-7.48,2.42-8.76,5.62-.02.06-.05.12-.07.19Zm-6.31-18.92c2.93,2.16,6.64,3.49,9.09,3.16,1.75-.23,2.14-1.17,2.28-1.96.14-.76-.08-1.52-.65-2.25-1.14-1.48-3.24-2.37-4.72-2.49-1.73-.14-3.25.4-4.52,1.61-.56.54-1.06,1.2-1.48,1.94Z"/>
            <path class="cls-9" d="m169.72,99.17c.12-.6.24-1.22.36-1.88.46-2.49.99-5.39,1.51-8.42.2-1.17.4-2.34.61-3.53.08-.53.17-1.06.27-1.59.5-2.99.98-5.92,1.4-8.49.09-.55.18-1.08.27-1.59.15-.92.29-1.78.42-2.56.08-.44-.23-.87-.67-.95l-3.93-.69-1.59-.27-1.62-.29c-.29-.05-.59.06-.78.28-.21.25-.5.61-.85,1.06-.3.39-.65.83-1.02,1.3-1.4,1.81-3.11,4.06-3.99,5.22-.31.41-.18.99.28,1.23,1.02.53,2.68,1.4,3.55,1.79.12.06.25.08.38.07.19,0,.38-.08.52-.22l1.3-1.2c.13-.12.31-.07.38.07.03.04.04.1.02.16l-.51,2.64-.3,1.58-1.63,8.41-.3,1.58-.99,5.11c-.09.46.21.9.68.98l4.03.67,1.26.21c.12.02.24.02.35-.02.3-.08.54-.32.6-.64Z"/>
            <path class="cls-9" d="m122.89,18.13h0c1.4.53,2.97-.17,3.5-1.57l2.15-5.65c.53-1.4-.17-2.97-1.57-3.5h0c-1.4-.53-2.97.17-3.5,1.57l-2.15,5.65c-.53,1.4.17,2.97,1.57,3.5Z"/>
            <path class="cls-9" d="m131.28,21.32h0c1.4.53,2.97-.17,3.5-1.57l2.15-5.65c.53-1.4-.17-2.97-1.57-3.5h0c-1.4-.53-2.97.17-3.5,1.57l-2.15,5.65c-.53,1.4.17,2.97,1.57,3.5Z"/>
            <path class="cls-9" d="m139.68,24.52h0c1.4.53,2.97-.17,3.5-1.57l2.15-5.65c.53-1.4-.17-2.97-1.57-3.5h0c-1.4-.53-2.97.17-3.5,1.57l-2.15,5.65c-.53,1.4.17,2.97,1.57,3.5Z"/>
            <path class="cls-9" d="m148.07,27.71h0c1.4.53,2.97-.17,3.5-1.57l2.15-5.65c.53-1.4-.17-2.97-1.57-3.5h0c-1.4-.53-2.97.17-3.5,1.57l-2.15,5.65c-.53,1.4.17,2.97,1.57,3.5Z"/>
            <path class="cls-9" d="m156.46,30.91h0c1.4.53,2.97-.17,3.5-1.57l2.15-5.65c.53-1.4-.17-2.97-1.57-3.5h0c-1.4-.53-2.97.17-3.5,1.57l-2.15,5.65c-.53,1.4.17,2.97,1.57,3.5Z"/>
            <path class="cls-9" d="m164.86,34.1h0c1.4.53,2.97-.17,3.5-1.57l2.15-5.65c.53-1.4-.17-2.97-1.57-3.5h0c-1.4-.53-2.97.17-3.5,1.57l-2.15,5.65c-.53,1.4.17,2.97,1.57,3.5Z"/>
            <path class="cls-9" d="m173.25,37.3h0c1.4.53,2.97-.17,3.5-1.57l2.15-5.65c.53-1.4-.17-2.97-1.57-3.5h0c-1.4-.53-2.97.17-3.5,1.57l-2.15,5.65c-.53,1.4.17,2.97,1.57,3.5Z"/>
            <path class="cls-9" d="m181.65,40.49h0c1.4.53,2.97-.17,3.5-1.57l2.15-5.65c.53-1.4-.17-2.97-1.57-3.5h0c-1.4-.53-2.97.17-3.5,1.57l-2.15,5.65c-.53,1.4.17,2.97,1.57,3.5Z"/>
            <path class="cls-9" d="m190.04,43.68h0c1.4.53,2.97-.17,3.5-1.57l2.15-5.65c.53-1.4-.17-2.97-1.57-3.5h0c-1.4-.53-2.97.17-3.5,1.57l-2.15,5.65c-.53,1.4.17,2.97,1.57,3.5Z"/>
            <path class="cls-9" d="m198.44,46.88h0c1.4.53,2.97-.17,3.5-1.57l2.15-5.65c.53-1.4-.17-2.97-1.57-3.5h0c-1.4-.53-2.97.17-3.5,1.57l-2.15,5.65c-.53,1.4.17,2.97,1.57,3.5Z"/>
          </g>
          <g class="cls-1">
            <path class="cls-10" d="m162.48,167.67l-.21.55c-.8,2.09-3.13,3.14-5.22,2.34l-85.48-32.53c-2.08-.79-3.13-3.13-2.34-5.22C115.96,10.03,114.72,13.23,114.77,13.17c13.68,11.18-.66,37.39-15.96,83.5-16.19,42.56,18.09,38.12,49.03,56.2,2.59,1.52,5,3.16,7.13,4.98,3.13,2.65,5.97,5.98,7.5,9.83Z"/>
            <path class="cls-10" d="m195.72,55.57c-2.82,11.33-9.93,29.89-15,39.59-.54,1.04-2.14.44-1.85-.71,2.66-10.59,9.68-29.2,15.11-39.55.24-.46.81-.64,1.27-.4.39.21.58.65.47,1.06Z"/>
          </g>
        </g>
        <g>
          <path class="cls-10" d="m208.47,45.19c-.54-1.2-1.51-2.11-2.73-2.58l-1.63-.62.77-2.03c.33-.9.31-1.86-.08-2.73-.39-.87-1.09-1.54-1.98-1.87-.9-.33-1.86-.31-2.73.08-.87.39-1.54,1.09-1.87,1.98l-.77,2.03-1.74-.66.77-2.03c.7-1.83-.23-3.9-2.06-4.6-.9-.33-1.86-.3-2.73.09-.87.38-1.54,1.09-1.87,1.98l-.77,2.03-1.74-.66.77-2.03c.33-.9.31-1.86-.08-2.73-.39-.87-1.09-1.54-1.98-1.87-.9-.34-1.86-.31-2.73.08-.87.38-1.54,1.09-1.87,1.98l-.77,2.03-1.74-.66.77-2.03c.33-.89.31-1.86-.08-2.73-.39-.87-1.09-1.53-1.98-1.87-.9-.33-1.86-.31-2.73.08-.87.39-1.54,1.09-1.87,1.99l-.77,2.03-1.74-.67.77-2.03c.7-1.83-.23-3.89-2.06-4.59-.9-.34-1.86-.31-2.73.08-.87.38-1.54,1.09-1.87,1.98l-.77,2.03-1.74-.66.77-2.03c.33-.9.31-1.86-.08-2.73-.39-.87-1.09-1.54-1.98-1.87-.9-.33-1.86-.31-2.73.08-.87.39-1.54,1.09-1.87,1.99l-.77,2.03-1.74-.67.77-2.03c.7-1.83-.23-3.89-2.06-4.59-.9-.34-1.86-.31-2.73.08-.87.38-1.54,1.09-1.87,1.98l-.77,2.03-1.74-.66.77-2.03c.33-.9.31-1.86-.08-2.73-.39-.87-1.09-1.54-1.98-1.87-.9-.34-1.86-.31-2.73.08-.87.39-1.54,1.09-1.87,1.98l-.77,2.04-1.74-.67.77-2.03c.33-.89.31-1.86-.08-2.73-.39-.87-1.09-1.53-1.98-1.87-.9-.33-1.86-.31-2.73.08-.87.39-1.54,1.09-1.87,1.99l-.77,2.03-1.74-.66.77-2.04c.7-1.83-.23-3.89-2.06-4.59-.9-.34-1.86-.31-2.73.08-.87.38-1.54,1.09-1.87,1.98l-.77,2.03-1.64-.62c-2.47-.93-5.26.29-6.26,2.72-.03.05-.04.09-.06.12l-45.5,119.59c-.95,2.53.31,5.36,2.82,6.32l85.49,32.52c.57.22,1.15.32,1.73.32,1.98,0,3.84-1.2,4.59-3.16l45.5-119.59c.46-1.22.42-2.55-.11-3.74Zm-8.66-7.15c.18-.46.53-.84.98-1.03.24-.12.5-.17.76-.17.23,0,.45.04.66.12.47.18.84.53,1.04.98.2.45.22.95.04,1.42l-.77,2.03-.61,1.59-.77,2.03c-.37.96-1.45,1.45-2.41,1.08-.46-.18-.83-.53-1.03-.98-.21-.45-.22-.95-.04-1.42l.78-2.04.6-1.58.77-2.03Zm-8.39-3.2c.18-.46.52-.83.98-1.03.24-.11.5-.17.76-.17.23,0,.44.04.66.13.96.36,1.45,1.44,1.08,2.4l-.77,2.03-.6,1.58-.78,2.04c-.29.74-.99,1.19-1.75,1.19-.22,0-.44-.04-.66-.12-.46-.18-.83-.52-1.03-.97-.21-.45-.22-.96-.04-1.43l.77-2.04.61-1.58.77-2.03Zm-8.39-3.19c.18-.47.52-.84.98-1.04.45-.21.95-.22,1.42-.04.47.18.84.52,1.04.97.2.46.22.96.04,1.43l-.77,2.03-.61,1.59-.77,2.03c-.18.46-.53.84-.98,1.03-.45.21-.95.23-1.43.05-.95-.37-1.44-1.45-1.07-2.41l.77-2.03.61-1.58.77-2.03Zm-8.39-3.2c.18-.46.52-.84.98-1.03.24-.11.5-.17.76-.17.23,0,.45.04.66.12.47.18.84.53,1.04.98.2.45.22.95.04,1.43l-.77,2.03-.61,1.58-.77,2.03c-.18.47-.53.84-.98,1.04-.25.11-.5.16-.77.16-.22,0-.44-.04-.66-.12-.46-.18-.83-.52-1.03-.97-.21-.46-.22-.96-.04-1.43l.77-2.04.61-1.58.77-2.03Zm-8.39-3.2c.18-.46.52-.83.98-1.03.44-.21.95-.22,1.42-.04.96.36,1.45,1.45,1.08,2.4l-.77,2.03-.61,1.58-.77,2.04c-.18.46-.53.83-.98,1.03-.45.21-.95.22-1.43.04-.95-.36-1.44-1.44-1.07-2.4l.77-2.03.61-1.59.77-2.03Zm-8.39-3.19c.18-.46.52-.84.98-1.03.24-.12.5-.17.76-.17.23,0,.44.04.66.12.47.18.84.53,1.04.98.2.45.22.95.04,1.42l-.77,2.04-.61,1.58-.77,2.03c-.18.46-.53.84-.98,1.04-.45.2-.96.22-1.43.04-.46-.18-.83-.53-1.03-.98-.21-.45-.22-.95-.04-1.42l.78-2.04.6-1.58.77-2.03Zm-8.39-3.2c.18-.46.52-.83.98-1.03.24-.11.49-.17.76-.17.23,0,.44.04.66.13.96.36,1.45,1.44,1.08,2.4l-.77,2.03-.61,1.58-.77,2.04c-.18.46-.53.83-.98,1.03-.24.11-.49.17-.75.17-.23,0-.46-.05-.68-.13-.46-.18-.83-.52-1.03-.97-.21-.45-.22-.96-.04-1.43l.77-2.03.61-1.59.77-2.03Zm-8.39-3.19c.18-.47.52-.84.97-1.04.46-.2.96-.22,1.43-.04.46.18.84.52,1.04.98.2.45.22.95.04,1.42l-.77,2.03-.61,1.59-.77,2.03c-.18.46-.53.84-.98,1.03-.45.21-.95.23-1.43.05-.95-.36-1.44-1.45-1.07-2.41l.77-2.03.61-1.58.77-2.03Zm-8.39-3.2c.18-.46.52-.84.97-1.03.25-.11.5-.17.77-.17.23,0,.44.04.66.12.46.18.84.53,1.04.98.2.45.22.95.04,1.43l-.78,2.03-.6,1.58-.78,2.03c-.17.47-.52.84-.97,1.04-.25.11-.5.16-.77.16-.22,0-.44-.04-.66-.12-.46-.18-.83-.52-1.03-.97-.21-.46-.22-.96-.04-1.43l.77-2.03.61-1.59.77-2.03Zm-8.39-3.2c.18-.46.52-.83.97-1.03.45-.21.96-.22,1.43-.04.96.36,1.45,1.45,1.08,2.4l-.78,2.03-.6,1.58-.78,2.04c-.17.46-.52.84-.97,1.03-.45.21-.96.22-1.43.04-.95-.36-1.44-1.44-1.07-2.4l.77-2.03.61-1.58.77-2.04Zm82.73,39.05l-45.5,119.59c-.63,1.64-2.49,2.48-4.13,1.85l-85.48-32.52c-1.64-.63-2.47-2.48-1.85-4.12L115.52,13.57s.03-.06.04-.1c.64-1.6,2.48-2.42,4.09-1.8l1.64.63-.77,2.03c-.16.41-.24.84-.24,1.26,0,1.44.88,2.79,2.29,3.34.41.15.84.23,1.27.23.49,0,.98-.1,1.46-.31.87-.39,1.53-1.1,1.87-1.99l.77-2.03,1.74.66-.77,2.03c-.34.9-.31,1.86.08,2.73.38.87,1.09,1.54,1.98,1.87.41.16.84.24,1.27.24.49,0,.98-.11,1.46-.31.87-.38,1.53-1.09,1.87-1.98l.77-2.04,1.74.67-.77,2.03c-.16.41-.24.84-.24,1.26,0,1.44.88,2.79,2.29,3.34.41.16.84.24,1.27.24.49,0,.98-.11,1.46-.31.87-.39,1.53-1.09,1.87-1.99l.77-2.03,1.74.66-.77,2.04c-.34.89-.31,1.85.08,2.72.38.88,1.09,1.54,1.98,1.87.41.16.84.24,1.27.24.49,0,.98-.1,1.46-.31.87-.38,1.53-1.09,1.87-1.98l.77-2.03,1.74.66-.77,2.03c-.34.9-.31,1.86.08,2.73.38.87,1.09,1.54,1.98,1.87.41.16.84.24,1.27.24.49,0,.98-.11,1.46-.31.87-.39,1.53-1.09,1.87-1.98l.78-2.04,1.73.67-.77,2.03c-.16.41-.24.84-.24,1.26,0,1.44.88,2.79,2.29,3.34.41.15.84.23,1.27.23.49,0,.98-.1,1.46-.31.87-.39,1.53-1.1,1.87-1.99l.77-2.03,1.74.66-.77,2.03c-.34.9-.31,1.86.08,2.73.38.87,1.09,1.54,1.98,1.87.41.16.84.24,1.27.24.49,0,.98-.11,1.46-.31.87-.39,1.53-1.09,1.87-1.98l.77-2.04,1.74.67-.77,2.03c-.16.41-.24.84-.24,1.26,0,1.44.88,2.79,2.29,3.34.41.16.84.24,1.27.24.49,0,.98-.11,1.46-.31.87-.39,1.53-1.09,1.87-1.99l.77-2.03,1.75.66-.78,2.04c-.34.89-.31,1.85.08,2.72.38.87,1.09,1.54,1.98,1.87.41.16.85.24,1.26.24,1.44,0,2.79-.88,3.34-2.29l.77-2.04,1.74.67-.77,2.03c-.34.9-.31,1.86.08,2.73.38.87,1.09,1.54,1.98,1.87.41.16.85.24,1.26.24,1.44,0,2.79-.88,3.34-2.29l.78-2.04,1.62.62c.81.31,1.44.91,1.79,1.68.19.41.28.86.28,1.31,0,.38-.07.77-.21,1.14Z"/>
          <path class="cls-10" d="m161.84,45.92c-.44-.16-.93.06-1.09.5-.96,2.6-3.59,4.93-6.57,4.13-1.54-.42-2.34-1.48-2.74-2.3-.77-1.55-.8-3.67-.09-5.39.18-.43-.03-.93-.46-1.11-.43-.18-.93.03-1.11.46-.9,2.18-.85,4.78.14,6.78.8,1.62,2.12,2.73,3.82,3.19.56.15,1.11.22,1.65.22,3.23,0,5.9-2.56,6.95-5.4.16-.44-.06-.93-.5-1.09Z"/>
          <path class="cls-10" d="m174.9,45.28c-.44-.16-.93.06-1.09.5-.73,1.96-2.55,3.79-4.48,3.29-.69-.18-1.22-.62-1.57-1.31-.57-1.14-.57-2.85,0-4.26.18-.43-.03-.93-.46-1.11-.43-.18-.93.03-1.11.46-.76,1.86-.74,4.08.05,5.66.57,1.14,1.49,1.9,2.66,2.2.36.09.72.14,1.07.14,2.45,0,4.56-2.15,5.43-4.48.16-.44-.06-.93-.5-1.09Z"/>
          <path class="cls-10" d="m149.15,35.48c-.44-.16-.93.06-1.09.5-.73,1.96-2.55,3.79-4.48,3.29-.69-.18-1.22-.62-1.57-1.31-.57-1.14-.57-2.85,0-4.26.18-.43-.03-.93-.46-1.11-.43-.18-.93.03-1.11.46-.76,1.86-.74,4.08.05,5.66.57,1.14,1.49,1.9,2.66,2.2.36.09.72.14,1.07.14,2.45,0,4.56-2.15,5.43-4.48.16-.44-.06-.93-.5-1.09Z"/>
        </g>
      </g>
      <g>
        <g>
          <path class="cls-12" d="m189.92,185l-18.22-63.14c-.32-1.11-1.47-1.75-2.58-1.44h0s-6.02-11.99-6.02-11.99c-.56-1.12-1.84-1.68-3.04-1.33h-.03c-1.2.36-1.99,1.51-1.87,2.76l1.29,13.35c-1.1.33-1.73,1.49-1.41,2.6l18.22,63.14c.32,1.12,1.49,1.76,2.6,1.44l9.63-2.78c1.12-.32,1.76-1.49,1.44-2.6Z"/>
          <polygon class="cls-8" points="187.91 178.05 183.18 179.41 183.17 179.41 174.24 181.99 172.88 177.29 160.03 132.77 173.7 128.82 187.91 178.05"/>
          <g>
            <path class="cls-12" d="m175.15,165.77c.74.69,1.45.99,2.05.82,1.98-.57,2.13-6.04.34-12.21-1.78-6.18-4.82-10.73-6.8-10.16-.06.02-.11.04-.16.06-1.82.82-1.91,6.15-.18,12.15,1.24,4.28,3.07,7.78,4.74,9.33h0Z"/>
            <polygon class="cls-12" points="175.06 133.53 165.72 136.22 161.39 137.47 162.76 142.21 169.03 140.4 176.43 138.27 175.06 133.53"/>
            <polygon class="cls-12" points="185.18 168.6 176.35 171.15 171.51 172.54 172.88 177.29 177.83 175.86 186.55 173.34 185.18 168.6"/>
          </g>
          <g class="cls-14">
            <path class="cls-10" d="m165.72,136.22l-4.33,1.25-.93-3.21c1.87.1,3.77.8,5.25,1.96Z"/>
            <path class="cls-10" d="m176.35,171.15l-4.83,1.4-8.76-30.33,6.28-1.81c.64,1.22,1.13,2.53,1.54,3.88-1.82.82-1.91,6.15-.18,12.15,1.24,4.28,3.07,7.78,4.74,9.33h0c.37,1.81.77,3.6,1.2,5.38Z"/>
            <path class="cls-10" d="m183.17,179.41l-8.93,2.58-1.36-4.7,4.95-1.43c.77,1.62,1.89,2.98,3.59,3.42.57.15,1.16.18,1.74.13Z"/>
          </g>
          <g class="cls-6">
            <path class="cls-8" d="m166.19,136.63c1.19,1.07,2.11,2.37,2.84,3.78l-6.28,1.81-1.37-4.74,4.33-1.25c.16.13.32.26.47.4Z"/>
            <path class="cls-8" d="m175.15,165.76c-1.67-1.55-3.5-5.05-4.74-9.33-1.73-6-1.64-11.34.18-12.15.4,1.31.73,2.64,1.02,3.96,1.31,5.82,2.32,11.69,3.54,17.53Z"/>
            <path class="cls-8" d="m188.48,187.6l-9.63,2.78c-1.11.31-2.27-.32-2.6-1.44l-2.01-6.96,8.93-2.58h0c1.2-.12,2.39-.56,3.55-.94.39-.13.8-.26,1.19-.37l2,6.91c.32,1.11-.32,2.28-1.44,2.6Z"/>
            <path class="cls-8" d="m177.83,175.86l-4.95,1.43-1.37-4.74,4.83-1.4c.11.45.22.92.33,1.37.28,1.11.64,2.28,1.15,3.35Z"/>
          </g>
          <path class="cls-3" d="m161.13,109.49c1.69,2.35,3.68,6.82,4.29,9.55.1.46-.5.73-.77.34-1.66-2.32-3.64-6.82-4.24-9.57-.09-.43.47-.68.73-.32Z"/>
        </g>
        <path class="cls-10" d="m182.2,155.22l-7.69-26.63s0,0,0,0l-2.01-6.96c-.38-1.3-1.59-2.15-2.91-2.12l-5.76-11.45c-.74-1.48-2.44-2.23-4.07-1.76-1.6.46-2.64,1.99-2.48,3.64l1.23,12.76c-1.12.67-1.7,2.04-1.33,3.34l2.01,6.96s0,0,0,0c.03.1,16.26,56.34,16.22,56.18.38,1.31,1.57,2.14,2.83,2.14.74,0,.31,0,10.45-2.9.76-.22,1.39-.72,1.77-1.41,1.08-1.96.25-1.17-8.28-31.79Zm-21.12-21.87l12.04-3.47,13.74,47.59-12.04,3.47-13.74-47.59Zm-.81-25.43c.16-.05.33-.07.49-.07.65,0,1.26.36,1.56.96l5.57,11.07-1.76.51-5.95,1.72-1.19-12.34c-.08-.84.45-1.61,1.29-1.86Zm-.61,16.11s0,0,0,0l8.35-2.41,1.31-.38c.11-.03.22-.05.33-.05.54,0,1.05.36,1.21.91,0,0,0,0,0,0l1.77,6.14-12.04,3.47-1.77-6.14c-.19-.65.19-1.35.83-1.54Zm28.57,62.76c-9.88,2.72-9.77,3.12-10.58,2.67-.79-.44-.5-.82-2.37-6.89l12.04-3.47,1.77,6.14c.19.67-.19,1.36-.86,1.55Z"/>
      </g>
      <g>
        <g>
          <path class="cls-5" d="m219.51,83h0s-.36-13.41-.36-13.41c-.03-1.25-.95-2.3-2.19-2.5h-.03c-1.24-.2-2.44.51-2.86,1.69l-4.5,12.64c-1.14-.17-2.2.61-2.38,1.75l-10.32,64.9c-.18,1.15.6,2.22,1.75,2.41l9.9,1.57c1.15.18,2.22-.6,2.41-1.75l10.32-64.9c.18-1.14-.59-2.21-1.72-2.4Z"/>
          <g class="cls-6">
            <rect class="cls-7" x="183.44" y="109.63" width="51.23" height="14.23" transform="translate(60.95 304.88) rotate(-80.97)"/>
          </g>
          <g>
            <path class="cls-5" d="m212.72,117.32c1.01-6.35.19-11.76-1.84-12.08-2.03-.32-4.48,4.56-5.49,10.91-1.01,6.35-.19,11.76,1.84,12.08,2.02.32,4.48-4.56,5.49-10.91Z"/>
            <rect class="cls-5" x="209.45" y="91.6" width="4.94" height="14.23" transform="translate(81.17 292.51) rotate(-80.97)"/>
            <rect class="cls-5" x="203.72" y="127.65" width="4.94" height="14.23" transform="translate(40.73 317.24) rotate(-80.97)"/>
          </g>
          <g class="cls-14">
            <path class="cls-10" d="m212.05,143.21l-1.13,7.1c-.18,1.15-1.26,1.93-2.41,1.75l-9.9-1.57c-1.15-.18-1.93-1.26-1.75-2.41l8.93-56.21c1.65.89,3.07,2.32,3.92,4,.09.19.18.38.26.57.61,1.48.9,3.04.96,4.63.11,2.71-.41,5.51-1,8.19-1.68,7.61-3.87,15.12-5.44,22.75-.1.46-.19.92-.28,1.39-.22,1.12-.39,2.34-.38,3.51,0,1.8.44,3.51,1.79,4.63.46.38.98.65,1.53.85,1.14.41,2.41.52,3.63.66.41.05.83.11,1.24.17Z"/>
          </g>
          <path class="cls-3" d="m216.93,69.71c.53,2.84.44,7.73-.17,10.47-.1.46-.76.45-.85-.02-.52-2.8-.4-7.72.22-10.47.1-.43.71-.42.8.02Z"/>
        </g>
        <path class="cls-10" d="m220.34,82.38l-.35-12.82c-.04-1.66-1.26-3.05-2.93-3.32-1.65-.26-3.24.68-3.79,2.25l-4.3,12.08c-1.3.13-2.41,1.12-2.62,2.46l-1.14,7.15s0,0,0,0l-5.71,35.95-3.46,21.8c-.12.78.06,1.56.53,2.2.46.64,1.15,1.06,1.93,1.18l9.9,1.57c.16.02.31.04.47.04.62,0,1.22-.19,1.73-.56.64-.46,1.06-1.15,1.18-1.93l1.14-7.15s0,0,0,0l4.02-25.3,5.16-32.45c.21-1.34-.53-2.62-1.73-3.15Zm-5.47-13.32c.28-.79,1.09-1.28,1.95-1.14.83.13,1.46.84,1.48,1.68l.34,12.39-7.93-1.26,4.16-11.68Zm-6.85,14.24c.1-.61.64-1.06,1.24-1.06.06,0,.12,0,.17.01,0,0,0,0,0,0l9.94,1.58c.67.12,1.13.76,1.02,1.43l-1,6.32-12.37-1.97,1-6.31Zm-1.27,7.99l12.37,1.97-7.77,48.92-12.37-1.97,7.77-48.92Zm3.33,58.88c-.05.33-.23.62-.5.82-.27.2-.6.27-.93.22l-9.9-1.57c-.33-.05-.62-.23-.82-.5-.2-.27-.28-.6-.22-.93l1-6.32,12.37,1.97-1,6.32Z"/>
      </g>
      <g>
        <g>
          <g>
            <path class="cls-9" d="m75.63,173.61l-26.33-60.21c-.46-1.06-1.68-1.54-2.75-1.09l-7.54-11.1c-.7-1.04-2.04-1.42-3.19-.92h-.03c-1.15.51-1.78,1.76-1.49,2.98l3.03,13.07h0c-1.05.48-1.52,1.7-1.06,2.76l26.33,60.21c.47,1.06,1.7,1.55,2.77,1.08l9.18-4.01c1.06-.47,1.55-1.7,1.08-2.77Z"/>
            <rect class="cls-7" x="48.84" y="120.73" width="14.23" height="51.23" transform="translate(-53.95 34.68) rotate(-23.62)"/>
            <g>
              <path class="cls-9" d="m60.61,157.01c1.88-.82,1.31-6.26-1.26-12.15-2.58-5.89-6.19-10-8.07-9.18s-1.31,6.26,1.26,12.15c2.58,5.89,6.19,10,8.07,9.18Z"/>
              <rect class="cls-9" x="41.52" y="127.16" width="14.23" height="4.94" transform="translate(-47.86 30.35) rotate(-23.62)"/>
              <rect class="cls-9" x="56.15" y="160.6" width="14.23" height="4.94" transform="translate(-60.04 39.01) rotate(-23.62)"/>
            </g>
            <g class="cls-14">
              <path class="cls-10" d="m59.72,172.72l2.88,6.59c.47,1.06,1.7,1.55,2.77,1.08l9.18-4.01c1.06-.47,1.55-1.7,1.08-2.77l-22.8-52.15c-1.37,1.27-2.39,3.02-2.79,4.86-.04.2-.08.41-.11.62-.22,1.59-.1,3.17.23,4.72.57,2.65,1.78,5.23,3.03,7.67,3.55,6.94,7.55,13.66,10.99,20.65.21.42.42.84.62,1.27.49,1.03.97,2.16,1.25,3.3.45,1.75.45,3.51-.57,4.93-.35.48-.78.88-1.27,1.21-1,.68-2.21,1.11-3.34,1.55-.39.15-.77.31-1.16.47Z"/>
            </g>
            <path class="cls-3" d="m36.49,102.82c.2,2.88,1.52,7.6,2.8,10.09.21.41.85.24.82-.23-.21-2.84-1.56-7.57-2.85-10.07-.2-.39-.8-.22-.77.22Z"/>
          </g>
          <path class="cls-10" d="m76.41,173.27l-26.33-60.21c-.54-1.24-1.86-1.92-3.15-1.72l-7.21-10.6c-.93-1.38-2.71-1.89-4.26-1.21-1.52.67-2.36,2.32-1.98,3.94l2.89,12.49c-1.02.81-1.42,2.24-.88,3.49h0l2.9,6.63s0,0,0,0l18.62,42.59,4.81,10.99c.48,1.11,1.57,1.77,2.71,1.77.39,0,.79-.08,1.18-.25l9.18-4.02c1.49-.65,2.17-2.4,1.52-3.89Zm-36.12-47.1l11.48-5.02,19.85,45.38-11.48,5.02-19.85-45.38Zm-4.12-25.11c.23-.1.47-.15.7-.15.57,0,1.11.27,1.45.77l6.97,10.25-7.35,3.21-2.8-12.08c-.19-.82.23-1.66,1.03-2.01Zm1.5,16.05s0,0,0,0l9.21-4.03c.63-.27,1.36.03,1.64.65l2.56,5.86-11.48,5.02-2.56-5.86h0c-.27-.62.01-1.36.62-1.64Zm36.54,58.49l-9.18,4.01c-.63.28-1.37-.01-1.65-.65l-2.56-5.86,11.48-5.02,2.56,5.86c.28.63-.01,1.38-.65,1.65Z"/>
        </g>
        <g>
          <g>
            <path class="cls-11" d="m81.93,126.17l-54.7,36.42c-.97.64-1.23,1.95-.58,2.92l5.55,8.34c.64.97,1.95,1.23,2.92.58l54.7-36.42c.96-.64,1.22-1.93.6-2.9l-5.58-8.38c-.65-.95-1.94-1.2-2.9-.56Z"/>
            <polygon class="cls-13" points="83.78 142.03 45.22 167.7 45.22 167.71 41.14 170.42 36 162.68 35.99 162.67 33.26 158.58 75.9 130.19 83.78 142.03"/>
            <g>
              <path class="cls-11" d="m60.58,153.39c-3.7,2.47-7.36,3.95-9.64,4.05-1.01.06-1.75-.17-2.11-.69-1.13-1.71,2.28-5.98,7.64-9.55,5.35-3.56,10.61-5.07,11.75-3.37l.09.15c.85,1.81-2.53,5.93-7.73,9.4Z"/>
              <polygon class="cls-11" points="79.71 144.74 75.6 147.48 71.98 142.05 67.71 135.64 71.83 132.9 77.22 140.99 79.71 144.74"/>
              <polygon class="cls-11" points="49.33 164.97 49.33 164.98 45.22 167.71 45.22 167.7 42.36 163.42 37.33 155.87 41.44 153.13 46.53 160.78 49.33 164.97"/>
              <path class="cls-11" d="m84.83,126.74l5.58,8.38,9.61-9.36c.9-.87,1.04-2.26.35-3.3l-.02-.02c-.69-1.04-2.03-1.44-3.18-.95l-12.34,5.26Z"/>
            </g>
            <g class="cls-1">
              <path class="cls-10" d="m75.6,147.48l-26.28,17.49-2.79-4.18c1.49-1.09,2.95-2.2,4.4-3.34,2.28-.11,5.94-1.58,9.64-4.05,5.2-3.46,8.57-7.59,7.73-9.4,1.18-.75,2.41-1.43,3.68-1.95l3.62,5.43Z"/>
              <path class="cls-10" d="m45.22,167.7h0s-4.07,2.72-4.07,2.72l-5.15-7.73c.4.42.88.78,1.41,1.04,1.58.76,3.32.44,4.96-.31l2.85,4.28Z"/>
              <path class="cls-10" d="m82.48,142.89l-2.78,1.85-2.49-3.75c1.88.07,3.78.77,5.26,1.9Z"/>
            </g>
            <g class="cls-6">
              <path class="cls-13" d="m41.14,170.42l-6.03,4.02c-.96.65-2.26.38-2.91-.58l-5.55-8.35c-.65-.96-.38-2.26.58-2.91l5.98-3.99c.23.35.45.71.67,1.05.64,1.04,1.27,2.16,2.11,3.01h0s5.15,7.74,5.15,7.74Z"/>
              <path class="cls-13" d="m49.33,164.97l-4.11,2.74-2.85-4.28c1.07-.47,2.11-1.14,3.03-1.8.38-.28.77-.55,1.14-.84l2.79,4.18Z"/>
              <path class="cls-13" d="m68.3,144c.85,1.81-2.53,5.93-7.73,9.4-3.7,2.47-7.36,3.95-9.64,4.05,4.7-3.66,9.27-7.5,14.02-11.09,1.07-.81,2.19-1.62,3.35-2.36Z"/>
              <path class="cls-13" d="m79.71,144.74l-4.1,2.74-3.62-5.43c1.47-.61,3-.99,4.61-1.05.21,0,.41,0,.63,0l2.49,3.75Z"/>
            </g>
            <path class="cls-4" d="m97.99,123.55c-2.81.7-7.21,2.82-9.44,4.52-.37.28-.09.88.37.76,2.76-.7,7.18-2.85,9.42-4.56.35-.27.08-.82-.35-.72Z"/>
          </g>
          <path class="cls-10" d="m101.06,121.96c-.92-1.39-2.7-1.91-4.22-1.26l-11.79,5.02c-.98-.86-2.46-1.01-3.59-.26l-6.03,4.01s0,0,0,0l-42.64,28.39h0s-6.03,4.01-6.03,4.01c-1.35.9-1.72,2.74-.82,4.09l5.55,8.34c.57.85,1.51,1.31,2.46,1.31.56,0,1.13-.16,1.63-.49l40.62-27.05,8.05-5.36s0,0,0,0l6.03-4.01c1.13-.75,1.56-2.16,1.14-3.41l9.19-8.95c1.19-1.15,1.39-3,.45-4.41Zm-25.77,24.7l-33.91,22.58-6.94-10.43,41.23-27.45,6.94,10.43-7.32,4.87Zm-40.65,27.07c-.58.38-1.36.23-1.74-.35l-5.55-8.34c-.38-.58-.23-1.36.35-1.74l5.32-3.54,6.94,10.43-5.32,3.54Zm54.7-36.42l-5.32,3.54-6.94-10.43,5.32-3.54c.21-.14.45-.21.69-.21.4,0,.79.19,1.03.54,0,0,0,0,0,0l5.58,8.38c.36.57.21,1.34-.36,1.72Zm10.09-12.16l-8.88,8.65-4.45-6.68,11.4-4.86c.77-.33,1.67-.06,2.16.66.47.7.37,1.64-.24,2.23Z"/>
        </g>
      </g>
      <g>
        <g>
          <path class="cls-10" d="m23.44,77.7c1.73,4.14,3.3,8.28,5.06,12.43-.13.13-.34.22-.56.34l-.62.32-.21.11c-.67-.33-1.79-1.96-2.53-2.38h-.02c-.2.63.62,2.56.56,3.34-.26.2-.47.35-.79.52-.19.1-.4.19-.68.29h-.02c-2.59-3.61-5.29-7.23-7.43-11.15v-.02c.31-.23.67-.46,1.06-.67.46-.24.94-.45,1.36-.65,1.24,1.92,2.57,5.24,4.09,6.95-.25-1.18-.53-2.27-.81-3.43-.01-.06-.02-.08-.01-.1.29.05,2.06,2.31,2.69,2.85-.84-2.07-2.64-5.34-3.5-7.44v-.02c.34-.29.74-.52,1.15-.74.39-.21.78-.39,1.17-.55h.03Z"/>
          <path class="cls-10" d="m33.66,76.68c.31.56.56,1.15.8,1.74.48,1.29,1.05,2.41,1.5,3.67l.2.61c.31.86.49,1.81.37,2.68-.16.74-.71,1.37-1.35,1.88-.57.48-1.23.81-1.94,1.06-1.01.34-2.05.53-2.88-.22-.59-.44-.96-1.1-1.28-1.78-.87-1.81-1.83-3.61-2.51-5.52-.45-1.07-.75-2.29-.38-3.44.07-.18.15-.34.27-.5,1.23-1.44,3.44-2.36,5.26-1.91.47.15.88.42,1.2.76.31.29.55.63.76.98Zm-1.33,2.99s-.32-.58-.51-.98c-.34-.63-.91-1.08-1.58-1.1-.56.01-1.03.41-1.27.85-.27.5-.37,1.03-.3,1.59.2.99.62,2.01,1.11,2.98.49.78.86,1.67,1.43,2.35.87.74,2.4.2,2.78-.94.19-.78.01-.7-.35-1.77-.19-.49-.34-.88-.37-.94l-.37-.85-.56-1.19Z"/>
          <path class="cls-10" d="m47.38,82.58c-.86.3-1.89.79-3.02,1.1h-.02c-.86-.94-2.65-2.77-4.14-3.68l-.06-.04c.24,1.15,1.27,3.51,1.65,4.42-.7.63-2.89,1.18-3.1,1.31.15-.05-3.99-11.55-4.6-12.71,1.3-.68,2.87-1.52,4.71-1.94,2.93-.86,5.9,1.64,5.27,4.71-.15,1.03-.67,1.94-1.81,2.42l-.07.03h-.02s0,.02,0,.02c1.65,1.45,3.75,2.62,5.18,4.37h.02Zm-8.84-5.78h.02c.58-.15,1.29-.36,1.84-.65.86-.53.42-2.01-.44-2.3-.7-.31-1.56.1-2.3.74.27.6.59,1.7.88,2.21Z"/>
          <path class="cls-10" d="m56.72,80c-.76.38-1.78.54-2.58.73-1.37-.91-2.73-3.01-3.89-4.18.33,1.45.97,3.4,1.35,4.8-.62.37-2.03.71-2.73.73-1.35-4.22-2.26-8.62-3.44-12.96.82-.24,1.71-.42,2.51-.63.44,1.4.8,3.07,1.24,4.47,0,.02.02-.07.06-.14.68-1.64.78-3.33,1.43-5.09.82-.16,1.72-.54,2.55-.63-.03,2.25-1.15,4.79-1.49,7.12l4.97,5.77Z"/>
          <path class="cls-10" d="m54.92,66.64c.65-.2,1.57-.6,2.32-.54.64,3.24,1.33,6.79,2.18,9.99-.64.22-1.68.44-2.41.62h-.02c-.66-3.33-1.58-6.58-2.12-10.06h.06Zm2.86,13.23c-.17.04-.27-1.52-.42-2.22v-.02c.55-.38,1.56-.38,2.29-.54.13.7.27,1.54.43,2.28l-.13.03c-.3.06-.44.07-.72.14h-.04s-1.41.33-1.41.33Z"/>
        </g>
        <g>
          <path class="cls-10" d="m11.9,74.48v.02c-.55.55-1.41,1.04-2.21,1.35h-.01c-.71-.52-1.78-1.69-2.48-2.14-.6.28-.53.32-1.02.64.15.87.95,2.22,1.04,3.17-.02.01-.02.04-.04.05-.15.16-.82.48-2.28,1.46t-.04,0c-.15-.52-3.05-6.73-4.87-12.93.28-.25.6-.32,1.94-1.38.74.72,4.09,3.96,5.06,4.88l4.9,4.89Zm-7.07-1.98c.38-.23.79-.52,1.2-.78-4.28-5.17-2.9-2.84-1.2.78Z"/>
          <path class="cls-10" d="m11.95,59.13c1.83,4.09,3.51,8.2,5.36,12.3-.12.14-.34.23-.56.35l-.61.34-.2.11c-.68-.31-1.84-1.92-2.59-2.32h-.02c-.18.64.68,2.55.64,3.32-.26.21-.46.37-.78.54-.19.1-.4.2-.67.3h-.02c-2.68-3.54-5.46-7.1-7.7-10.97v-.02c.3-.24.65-.48,1.04-.69.46-.25.93-.47,1.35-.68,1.29,1.89,2.69,5.18,4.26,6.85-.27-1.17-.59-2.26-.9-3.41-.01-.06-.02-.08-.01-.1.29.04,2.11,2.25,2.76,2.78-.89-2.05-2.77-5.27-3.68-7.35v-.02c.33-.3.73-.54,1.14-.77.39-.22.77-.4,1.16-.58h.03Z"/>
          <path class="cls-10" d="m25.63,64.71c.4.73.79,1.57.92,2.36-2.39,1.08-4.86,2.43-7.21,3.28-1.88-4.07-3.89-7.88-5.52-12.01,2.66-1.39,7.17-3.56,7.21-3.46.5.77.77,1.67,1.15,2.49v.02c-1.33,1.02-3.01,1.48-4.49,2.33l-.05.02v.02c.32.68.51,1.49.96,2.04h.02c.73-.26,1.45-.62,2.18-.93v.02c.5.73.75,1.57,1.17,2.42-.63.52-1.88.87-2.03,1.17.19.74.7,1.66,1.01,2.19h.03c1.54-.7,3.06-1.23,4.64-2.02l.02.03Z"/>
          <path class="cls-10" d="m31.83,55.27c-.79.47-1.78.93-2.71,1.02-.22-1.43-2.75-1.01-2.43.42,0,.18.11.33.19.49.42.5.94.45,1.47.32,1.34-.35,2.75-.06,3.85.7,1.26.76,1.88,2.3,1.78,3.77,0,1.7-1.18,2.9-2.69,3.41-2.13.76-4.94.29-5.68-2.06l-.02-.05-.02-.06c.8-.45,1.95-.75,2.75-1.08.68,1.5,3.33.52,2.39-1.04-.59-1.1-2.08-.71-3.16-.52-.52.1-1.01.01-1.46-.14-3.03-1.26-3.19-4.97-1.25-6.81.99-.94,2.73-1.42,4.08-1.34,1.38.15,2.57,1.04,2.93,2.98h-.02Z"/>
          <path class="cls-10" d="m41.07,51.29c.24.59.43,1.2.59,1.82.32,1.34.76,2.52,1.06,3.82l.13.63c.21.89.28,1.85.05,2.71-.25.72-.87,1.27-1.56,1.71-.62.41-1.31.66-2.05.82-1.05.22-2.09.29-2.83-.55-.54-.5-.83-1.2-1.07-1.92-.66-1.9-1.39-3.8-1.85-5.78-.32-1.11-.47-2.36.02-3.46.09-.17.19-.32.32-.46,1.39-1.29,3.69-1.95,5.45-1.29.45.21.82.52,1.1.9.28.32.47.69.64,1.06Zm-1.67,2.81s-.25-.61-.39-1.03c-.26-.67-.78-1.18-1.44-1.28-.56-.05-1.07.28-1.36.7-.32.46-.49.98-.48,1.54.08,1.01.38,2.07.75,3.08.39.83.66,1.76,1.14,2.5.78.84,2.36.48,2.86-.61.28-.75.09-.69-.14-1.8-.13-.5-.24-.92-.25-.97l-.27-.89-.42-1.25Z"/>
          <path class="cls-10" d="m52.76,59.08c-.78.08-1.89.41-2.49.55-.58-2.13-1.21-5.22-1.94-7.27-.2.58-.35,2.97-.56,3.02-.38.07-1.76-2.39-1.77-2.35.33,2.4,1,4.83,1.69,7.13-.78.32-1.81.47-2.63.66-.02,0-.04-.01-.07-.04-.17-.32-.7-2.62-2.96-12.87.63-.36,1.72-.43,2.54-.68h.02c.59.42,1.36,2.06,1.89,2.56.05.03.09.04.13.03.16.02.12-2.51.44-3.19.37-.03,1.98-.53,2.77-.71.46,2.43,1.19,4.71,1.61,7.15l1.32,6.02Z"/>
          <path class="cls-10" d="m61.63,55.06c.18.81.32,1.73.22,2.53-2.6.37-5.34.97-7.84,1.13-.66-4.43-1.53-8.66-1.93-13.07,2.94-.59,7.88-1.41,7.89-1.3.27.88.27,1.82.41,2.71v.02c-1.57.6-3.31.57-4.97.98h-.06s-.02.03-.02.03c.13.74.08,1.57.35,2.23l.02.02c.77-.06,1.57-.2,2.36-.29v.02c.26.84.28,1.72.44,2.65-.75.33-2.04.3-2.28.56-.02.76.21,1.79.36,2.39l.02.02c1.68-.25,3.29-.34,5.02-.65v.04Z"/>
        </g>
      </g>
      <g>
        <path class="cls-13" d="m71.84,18.82l-1.05-5.41c-.07-.35.04-.7.29-.95l3.87-3.93c.62-.63.25-1.7-.63-1.81l-5.47-.68c-.35-.04-.65-.26-.82-.57l-2.54-4.89c-.41-.79-1.54-.76-1.92.04l-2.34,4.99c-.15.32-.45.54-.79.6l-5.44.91c-.87.15-1.2,1.23-.55,1.84l4.03,3.76c.26.24.38.59.33.94l-.82,5.45c-.13.88.8,1.52,1.57,1.09l4.82-2.67c.31-.17.68-.18.99-.02l4.93,2.46c.79.4,1.69-.29,1.53-1.16Z"/>
        <path class="cls-13" d="m35.29,24.33l-4.45-1.88c-.28-.12-.49-.37-.55-.67l-.97-4.73c-.16-.76-1.12-1.01-1.63-.42l-3.16,3.65c-.2.23-.51.35-.81.32l-4.8-.54c-.77-.09-1.31.75-.91,1.41l2.49,4.14c.16.26.18.59.05.87l-1.99,4.4c-.32.71.31,1.47,1.07,1.3l4.71-1.09c.3-.07.62.01.84.22l3.57,3.26c.57.52,1.5.16,1.56-.61l.41-4.81c.03-.31.2-.58.47-.73l4.2-2.39c.68-.38.62-1.38-.1-1.68Z"/>
        <path class="cls-13" d="m83.18,51.28l1.1-4.07c.07-.26.26-.47.52-.56l3.98-1.4c.64-.22.74-1.09.18-1.46l-3.53-2.31c-.23-.15-.36-.4-.37-.67l-.1-4.22c-.02-.68-.8-1.04-1.33-.62l-3.29,2.65c-.21.17-.49.22-.75.15l-4.04-1.21c-.65-.19-1.24.44-1,1.08l1.5,3.95c.1.25.06.53-.09.76l-2.4,3.47c-.39.56.04,1.32.71,1.28l4.22-.21c.27-.01.53.11.69.32l2.56,3.35c.41.54,1.26.37,1.44-.28Z"/>
      </g>
    </g>
  </g>
</svg>