<?xml version="1.0" encoding="UTF-8"?>
<svg id="_Слой_2" data-name="Слой 2" xmlns="http://www.w3.org/2000/svg" xmlns:xlink="http://www.w3.org/1999/xlink" viewBox="0 0 238.27 194.74">
  <defs>
    <style>
      .cls-1 {
        clip-rule: evenodd;
      }

      .cls-1, .cls-2, .cls-3 {
        fill: #8f7ece;
      }

      .cls-4, .cls-5, .cls-6, .cls-7 {
        fill: #fff;
      }

      .cls-5, .cls-8, .cls-9, .cls-10, .cls-11, .cls-6, .cls-3, .cls-12 {
        fill-rule: evenodd;
      }

      .cls-8, .cls-13 {
        fill: #efad1b;
      }

      .cls-9 {
        opacity: .21;
      }

      .cls-10 {
        fill: #ed5d1d;
      }

      .cls-11 {
        fill: #b1bc00;
      }

      .cls-6, .cls-14 {
        opacity: .61;
      }

      .cls-7 {
        opacity: .7;
      }

      .cls-12, .cls-15 {
        fill: #4d3d87;
      }

      .cls-16 {
        clip-path: url(#clippath);
      }

      .cls-17 {
        opacity: .12;
      }

      .cls-18 {
        opacity: .62;
      }
    </style>
    <clipPath id="clippath">
      <path class="cls-1" d="m145.31,144.47c15.12-1.8,17.57,11.19,18.16,25.13.48,11.2-1.64,20.9-7.48,23.81-6.05,3.01-13.8.31-17.31-2.65-3.59-3.03-6.59-9.53-7.05-16.1-.79-11.24,1.43-24.63,7.27-28.44,1.69-1.1,3.83-1.46,6.41-1.76Z"/>
    </clipPath>
  </defs>
  <g id="OBJECTS">
    <g>
      <g>
        <path class="cls-8" d="m116.29,28.69c6.69-.21,14.57-.08,21.51.35,6.92.43,13.96.36,21.13.72,6.76.34,14.01.51,21,.84,7.18.34,13.99.52,19.72,2.08,7.3,1.98,7.95,11.49,8.48,20.15.32,5.29.53,10.85.75,15.99.73,17.44,1.14,31.66.58,49.47-.17,5.32-.44,11.32-.52,16.73-.18,11.35-.37,22.92-7.11,27.07-3.32,2.04-8.48,2.99-13.4,3.43-5.18.46-10.9.44-16.12.62-32.29,1.09-65.85.75-97.94,2.19-5.09.23-10.51.71-15.87.88-5.72.18-11.26-.05-15.2-1.76-7.77-3.37-9.71-12.73-10.45-23.2-.72-10.24-.9-21.46-.98-32.48-.08-10.77-.26-21.28-.35-32.98-.07-9.45.45-16.66.29-25.42-.09-5.21,0-11.58,1.38-15.58.75-2.16,1.86-3.54,3.73-4.72,3.29-2.09,8.36-3.02,13.27-3.43,5.26-.45,10.59-.52,16-.75,16.17-.69,32.65-.48,49.84-.2.08,0,.17,0,.25,0Z"/>
        <g>
          <path class="cls-13" d="m43.31,167.44c3.94,1.71,9.48,1.94,15.2,1.76,5.36-.17,10.78-.65,15.87-.88,32.09-1.44,65.65-1.1,97.94-2.19,5.22-.18,10.94-.16,16.12-.62,4.92-.44,10.08-1.39,13.4-3.43,6.74-4.15,6.92-15.71,7.11-27.07.09-5.41.35-11.41.52-16.73.56-17.81.15-32.02-.58-49.47-.21-5.14-.42-10.7-.75-15.99-.53-8.66-1.18-18.17-8.48-20.15-5.74-1.56-12.54-1.74-19.72-2.08-2.69-.13-5.42-.23-8.14-.33-.43,1.56-.9,3.18-1.54,4.79-5.24,15.73-17.83,22.02-33.55,20.97-19.4-1.57-49.81-.52-63.44,15.2-9.44,9.96-14.16,25.17-19.4,37.75-3.15,8.39-6.82,16.25-10.49,24.12-3.77,7.17-5.37,15.97-8.52,23.66,1.5,4.9,4.03,8.77,8.46,10.69Z"/>
          <g class="cls-17">
            <path d="m43.31,167.44c3.94,1.71,9.48,1.94,15.2,1.76,5.36-.17,10.78-.65,15.87-.88,32.09-1.44,65.65-1.1,97.94-2.19,5.22-.18,10.94-.16,16.12-.62,4.92-.44,10.08-1.39,13.4-3.43,6.74-4.15,6.92-15.71,7.11-27.07.09-5.41.35-11.41.52-16.73.56-17.81.15-32.02-.58-49.47-.21-5.14-.42-10.7-.75-15.99-.53-8.66-1.18-18.17-8.48-20.15-5.74-1.56-12.54-1.74-19.72-2.08-2.69-.13-5.42-.23-8.14-.33-.43,1.56-.9,3.18-1.54,4.79-5.24,15.73-17.83,22.02-33.55,20.97-19.4-1.57-49.81-.52-63.44,15.2-9.44,9.96-14.16,25.17-19.4,37.75-3.15,8.39-6.82,16.25-10.49,24.12-3.77,7.17-5.37,15.97-8.52,23.66,1.5,4.9,4.03,8.77,8.46,10.69Z"/>
          </g>
          <path class="cls-7" d="m208.14,52.83c-.03-.56-.07-1.13-.11-1.69v5.21h-12.41v-12.41h11.66c-.08-.49-.17-.98-.28-1.46h-11.39v-10.65c-.48-.08-.97-.15-1.46-.22v10.87h-12.42v-11.79c-.5-.02-1-.05-1.5-.07v11.86h-12.16v-2.24c-.67,1.32-1.41,2.55-2.21,3.69h.5v12.41h-12.16v-2.9c-.56.24-1.13.46-1.71.67v2.23h-12.16v-.22c-.5,0-1,0-1.5-.01v.23h-12.37v-.83c-.5,0-1-.02-1.5-.02v.85h-12.37v-.42c-.5.04-1,.08-1.5.13v.29h-2.75c-3.01.35-6.01.83-8.94,1.46h11.68v12.41h-12.37v-12.27c-.5.11-1,.23-1.5.35v11.92h-12.37v-7.58c-.51.25-1.01.51-1.5.77v6.81h-9.16c-.32.33-.64.67-.94,1.01-.14.15-.27.3-.41.44h10.5v12.42h-12.37v-10.25c-.52.64-1.02,1.3-1.5,1.97v8.28h-5.05c-.25.48-.5.97-.74,1.46h5.79v12.42h-11.23c-.19.49-.39.97-.58,1.46h11.8v12.41h-12.37v-10.99c-.51,1.28-1.01,2.55-1.5,3.81v7.18h-2.85c-.19.49-.39.97-.58,1.46h3.44v12.41h-8.81c-.22.49-.44.97-.67,1.46h9.48v12.41h-12.41v-6.13c-.52,1.02-1.01,2.08-1.46,3.15v2.97h-1.15c-.17.48-.35.97-.51,1.46h1.66v12.21h-5.57c-.17.49-.34.97-.52,1.46h6.09v11.94c.5.3,1.02.57,1.57.81,1.13.49,2.39.85,3.75,1.13h8.55v.68c.5,0,1,0,1.5-.02v-.66h12.37v.03c1.66-.1,3.3-.2,4.9-.27,15.76-.71,31.88-.98,48.03-1.21h-9.81v-12.42h12.37v12.38c.5,0,1-.01,1.5-.02v-12.36h12.37v12.18c.5,0,1-.01,1.5-.02v-12.16h12.16v11.95c.57-.01,1.14-.02,1.71-.03v-11.92h12.16v11.62c.57-.02,1.14-.04,1.71-.05v-11.57h12.16v11.24c.5-.01,1-.03,1.5-.05v-11.2h12.42v10.04c.49-.09.98-.2,1.46-.31v-9.73h11.38c.15-.47.29-.96.41-1.46h-11.79v-12.21h12.41v9.17c.74-4.6.83-9.91.91-15.18.09-5.41.35-11.41.52-16.73,0-.25.01-.49.02-.74v-4.26h.11c.01-.49.02-.98.03-1.46h-.14v-12.41h.23c0-.49,0-.97-.01-1.46h-.22v-12.33c-.15-5.41-.36-10.93-.6-16.81-.21-5.14-.42-10.7-.75-15.99ZM55.61,167.11h-12.41v-12.42h12.41v12.42Zm0-13.87h-12.41v-12.21h12.41v12.21Zm13.87,13.87h-12.37v-12.42h12.37v12.42Zm0-13.87h-12.37v-12.21h12.37v12.21Zm0-13.66h-12.37v-12.41h12.37v12.41Zm0-13.87h-12.37v-12.41h12.37v12.41Zm13.87,41.41h-12.37v-12.42h12.37v12.42Zm0-13.87h-12.37v-12.21h12.37v12.21Zm0-13.66h-12.37v-12.41h12.37v12.41Zm0-13.87h-12.37v-12.41h12.37v12.41Zm0-13.87h-12.37v-12.41h12.37v12.41Zm0-13.87h-12.37v-12.42h12.37v12.42Zm13.87,69.15h-12.37v-12.42h12.37v12.42Zm0-13.87h-12.37v-12.21h12.37v12.21Zm0-13.66h-12.37v-12.41h12.37v12.41Zm0-13.87h-12.37v-12.41h12.37v12.41Zm0-13.87h-12.37v-12.41h12.37v12.41Zm0-13.87h-12.37v-12.42h12.37v12.42Zm0-13.87h-12.37v-12.42h12.37v12.42Zm13.87,83.02h-12.37v-12.42h12.37v12.42Zm0-13.87h-12.37v-12.21h12.37v12.21Zm0-13.66h-12.37v-12.41h12.37v12.41Zm0-13.87h-12.37v-12.41h12.37v12.41Zm0-13.87h-12.37v-12.41h12.37v12.41Zm0-13.87h-12.37v-12.42h12.37v12.42Zm0-13.87h-12.37v-12.42h12.37v12.42Zm13.87,69.15h-12.37v-12.21h12.37v12.21Zm0-13.66h-12.37v-12.41h12.37v12.41Zm0-13.87h-12.37v-12.41h12.37v12.41Zm0-13.87h-12.37v-12.41h12.37v12.41Zm0-13.87h-12.37v-12.42h12.37v12.42Zm0-13.87h-12.37v-12.42h12.37v12.42Zm0-13.87h-12.37v-12.41h12.37v12.41Zm13.87,83.02h-12.37v-12.21h12.37v12.21Zm0-13.66h-12.37v-12.41h12.37v12.41Zm0-13.87h-12.37v-12.41h12.37v12.41Zm0-13.87h-12.37v-12.41h12.37v12.41Zm0-13.87h-12.37v-12.42h12.37v12.42Zm0-13.87h-12.37v-12.42h12.37v12.42Zm0-13.87h-12.37v-12.41h12.37v12.41Zm13.66,83.02h-12.16v-12.21h12.16v12.21Zm0-13.66h-12.16v-12.41h12.16v12.41Zm0-13.87h-12.16v-12.41h12.16v12.41Zm0-13.87h-12.16v-12.41h12.16v12.41Zm0-13.87h-12.16v-12.42h12.16v12.42Zm0-13.87h-12.16v-12.42h12.16v12.42Zm0-13.87h-12.16v-12.41h12.16v12.41Zm13.87,83.02h-12.16v-12.21h12.16v12.21Zm0-13.66h-12.16v-12.41h12.16v12.41Zm0-13.87h-12.16v-12.41h12.16v12.41Zm0-13.87h-12.16v-12.41h12.16v12.41Zm0-13.87h-12.16v-12.42h12.16v12.42Zm0-13.87h-12.16v-12.42h12.16v12.42Zm0-13.87h-12.16v-12.41h12.16v12.41Zm13.87,83.02h-12.16v-12.21h12.16v12.21Zm0-13.66h-12.16v-12.41h12.16v12.41Zm0-13.87h-12.16v-12.41h12.16v12.41Zm0-13.87h-12.16v-12.41h12.16v12.41Zm0-13.87h-12.16v-12.42h12.16v12.42Zm0-13.87h-12.16v-12.42h12.16v12.42Zm0-13.87h-12.16v-12.41h12.16v12.41Zm0-13.87h-12.16v-12.41h12.16v12.41Zm13.92,96.89h-12.42v-12.21h12.42v12.21Zm0-13.66h-12.42v-12.41h12.42v12.41Zm0-13.87h-12.42v-12.41h12.42v12.41Zm0-13.87h-12.42v-12.41h12.42v12.41Zm0-13.87h-12.42v-12.42h12.42v12.42Zm0-13.87h-12.42v-12.42h12.42v12.42Zm0-13.87h-12.42v-12.41h12.42v12.41Zm0-13.87h-12.42v-12.41h12.42v12.41Zm13.87,83.23h-12.41v-12.41h12.41v12.41Zm0-13.87h-12.41v-12.41h12.41v12.41Zm0-13.87h-12.41v-12.41h12.41v12.41Zm0-13.87h-12.41v-12.42h12.41v12.42Zm0-13.87h-12.41v-12.42h12.41v12.42Zm0-13.87h-12.41v-12.41h12.41v12.41Z"/>
        </g>
      </g>
      <g>
        <g>
          <path class="cls-12" d="m130.6,86.49c4.36,3.88,6.46,10.6,6.95,18.48.36,5.8-.76,10.96-2.17,15.77-1.41,4.83-3.13,9.16-5.24,13.06-1.98,3.64-4.76,8.05-8.45,10.11-3.18,1.77-7.02,1.22-9.25-.81-5.37-4.89-4.05-16.03-2.33-23.18,1.88-7.82,4.66-15.45,8.22-21.94,1.85-3.37,3.99-6.39,5.84-9.44-1.71-.43-3.27-.37-4.91.05-3.85,1-7.43,3.84-10.45,6.32-15.17,12.5-24.18,30.29-30.52,50.44-2.26,7.17-3.77,14.52-5.15,22.51-.17.96-.17,2.2-.95,2.96-.79,0-.75-1.04-.85-1.46-1.02-4.54-.07-9.75.66-13.66.88-4.72,2.24-9.33,3.45-13.45,2.51-8.56,5.78-16.81,9.7-24.43,5.64-10.98,13.34-21.29,23.55-28.82,4.52-3.34,11.96-7.62,18.5-4.56,6.26-6.85,12.01-15.13,22.87-17.44,5.48-1.16,10.47.67,12.47,3.89.19.3.65,1.23.87,1.84,1.42,3.89.67,11.52,2.01,16.01.5,1.67,1.16,3.3,2.24,3.52,2.49.49,6.27-3.09,7.68-4.26,4.55-3.78,8.02-7.17,12.69-10.88,2.32-1.84,4.59-3.73,7.14-4.73,1.77-.69,3.91-1.02,5.65-.35,3.39,1.3,4.22,5.53,6.48,8.93.71,1.07,1.62,1.89,2.47,3.25.37.59,1.89,3.11.24,3.89-1.22.58-4.54-2.06-5.22-2.83-.95-1.07-1.95-3.14-2.83-4.99-.71-1.49-1.72-4.26-3.18-4.47-1.61-.23-3.28,1.01-4.67,1.93-6.71,4.43-11.33,9.77-17.48,14.83-2.39,1.96-6.34,5.4-10.59,4.06-3.96-1.25-5.55-6.27-6.17-11.97-.47-4.41.58-9.5-1.64-12.13-2.43-2.89-8.2-1.79-11.73-.15-6.96,3.22-11.58,9.13-15.89,14.1Zm-14.57,27.26c-1.27,3.94-2.67,8.63-3.06,13.68-.35,4.53-.02,12.74,4.33,12.84,1.76.04,3.62-1.92,4.71-3.32,3.59-4.62,6.07-10.61,7.93-16.38,1.33-4.14,2.34-8.6,2.44-13.39.13-6.55-1.53-12.96-4.55-16.36-.13,0-.16-.09-.26-.11-4.74,6.56-8.66,14.05-11.55,23.03Z"/>
          <path class="cls-5" d="m114.26,79.66c-.5-1.52.92-2.17,1.51-3.02-13.56,3.24-23.28,11.22-29.19,22.52-.29.55-.85,1.76-1.76,1.64-1.91-.27.26-3.83.75-4.66,2.59-4.34,6.12-8.21,9.81-11.32,5.31-4.47,11.17-7.74,18.87-9.44-.98-.57-2.38-.72-3.02-1.64v-.38c.1-.02.13-.13.25-.13,1.04.06,2.27.43,3.77.88,1.04.31,2.82.77,3.02,1.38.37,1.13-.85,2.06-1.51,2.77-.73.79-1.34,1.75-2.52,1.38Z"/>
        </g>
        <path class="cls-11" d="m91.04,158.71c5-3.09,10.41-2.5,14.44-1.22,3.64,1.15,7.3,3.23,10.49,6.05,2.17,1.92,4.52,4.16,5.78,7.85.75,2.19.68,4.73-1.15,5.83-2.06,1.23-4.11-.09-5.21-1.03-2.33-1.98-4.15-4.6-6.9-5.52-.68-.23-1.81-.39-2.41-.4-3.93-.07-8.53,3.18-12.51,2.96-1.62-.09-3.55-.79-4.79-1.92-3.14-2.84-2.59-7.13-1.47-9.04.64-1.09,2.25-2.64,3.75-3.57Z"/>
        <g>
          <path class="cls-11" d="m85.06,19.74c3.5-.49,6.16,1.24,7.55,3.52.86,1.41,1.33,5,2.77,5.16,2.02.22,2.5-3.56,3.27-4.78.79-1.23,2.91-2.87,5.16-2.39,4.61.99,3.41,7.74,1.51,10.95-.74,1.24-2.86,3.05-2.89,4.4-.02.82.72,1.9,1.26,2.77,1.91,3.11,4.18,6.37,3.78,11.7-.38,5-3.96,11.03-8.81,11.7-4.68.64-8.04-2.41-8.3-6.17-.19-2.71.9-5.46,1.76-7.8.82-2.22,2.42-4.95,1.76-7.55-.36-1.44-1.83-2.68-3.27-3.52-4.07-2.39-11.4-2.98-12.71-8.3-1.37-5.57,3.27-9.14,7.17-9.69Z"/>
          <path class="cls-12" d="m54.69,117.19c.88.18,2.23,1.09,2.51,2.43.69,3.31-2.59,7.66-4.53,9.79-4.18,4.59-9.88,8.05-15.23,9.76-2.66.85-6.17,2-9.12,1.56-4.38-.66-6.26-4.57-3.14-8.03,1.65-1.83,4.33-2.54,6.73-3.18,4.29-1.15,9.47-2.26,13.21-5.47,1.99-1.7,3.53-4.31,5.61-5.82,1.01-.74,2.29-1.37,3.96-1.04Z"/>
          <path class="cls-12" d="m67.3,25.4c1.64-.12,3.24.56,3.01,3.41-.14,1.76-1.89,3.21-3.62,4.42-1.58,1.12-3.59,2.65-5.52,2.15-.79-.21-1.8-1.26-1.9-2.46-.12-1.61,1.4-3.49,2.49-4.44,1.28-1.11,2.68-2.28,3.75-2.74.48-.21,1.18-.3,1.78-.35Z"/>
          <path class="cls-10" d="m35.53,112.63c2.65-.11,5.25.61,4.9,3.5-.21,1.79-3.03,3.25-5.81,4.47-2.55,1.12-5.79,2.66-8.91,2.14-1.29-.22-2.93-1.3-3.09-2.52-.22-1.64,2.23-3.54,3.99-4.5,2.05-1.12,4.32-2.3,6.05-2.75.78-.21,1.91-.29,2.88-.33Z"/>
          <path class="cls-3" d="m228.86,83.07c2.94-.41,4.75,1.44,4.84,4.33.1,3.14-1.34,6.04-2.52,8.15-1.29,2.31-2.76,4.21-4.36,6.14-3.16,3.82-6.89,7.14-10.94,9.96-3.86,2.68-8.13,5.22-14.04,6.74-2.55.66-6.03,1.32-9.1.8-2.79-.47-5.41-2.26-5.33-5.13.07-2.45,2.33-3.66,4.16-4.33,2.04-.74,4.39-1.31,6.29-2.11,4.27-1.8,7.14-4.27,9.97-6.84,2.73-2.49,5.71-5.37,8.71-8.25,1.39-1.33,2.87-2.75,4.26-4.23,1.42-1.51,2.93-2.98,4.45-3.92.99-.61,1.73-1.05,3.58-1.31Z"/>
        </g>
        <g>
          <g>
            <path class="cls-5" d="m120.68,58.83c-1.87.28-1.38-1.93-1.23-3.32.2-1.87-.42-4.07-1.29-4.68-.9-.63-1.93-.19-2.09-1.44-.17-1.33.94-1.46,1.75-1.63,2.14-.44,2.77-.9,3.06-3.27.21-1.74-.13-3.61,1.49-3.56,2.2.06.84,4.18,1.9,6.28.25.49.55.91.97,1.17.48.29,2.25.35,2.31,1.67.02.37-.33,1-.72,1.21-.72.39-1.09.05-1.59.17-1.7.4-2.53,2.42-2.99,4.4-.33,1.39-.27,2.79-1.58,2.99Z"/>
            <path class="cls-5" d="m127.38,65.21c-.37-.2-.49-.36-.96-.27-.93.18-.81,1.07-1.07,1.75-.25.65-.78,1.53-1.4,1.8-.8.36-1.92.1-1.64,1.34.14.61.86.56,1.25,1.06.2.25.36.8.43,1.19.25,1.34-.56,4.06,1.09,3.85,1.48-.19.8-3.59,2.18-4.35.72-.4,1.83-.05,1.73-1.27-.07-.83-.98-.91-1.26-1.65-.46-1.24.21-2.11-.36-3.46Z"/>
          </g>
          <path class="cls-5" d="m61.03,152.22c.99.42,2.47.58,2.46,1.87-.02,1.63-2.08,1.36-3,2.03-1.54,1.13-1.41,3.82-2.14,5.99-.19.57-.37,1.34-1.32,1.34-1.21,0-1.29-1.2-1.42-2.59-.22-2.5-.91-4.69-2.43-5.67-.92-.59-2.1-.35-2.08-1.73.01-1.37,1.26-1.09,2.34-1.55,1.72-.73,2.33-2.92,2.86-5.08.12-.48.16-1.14.31-1.38.55-.88,2.18-.9,2.65.23.27.64,0,1.48.04,2.28.08,1.82.61,3.16,1.73,4.25Z"/>
          <path class="cls-5" d="m152.25,45.98c-.36.18-.48.33-.93.23-.88-.2-.74-1.05-.97-1.71-.22-.63-.7-1.49-1.28-1.77-.76-.37-1.83-.16-1.52-1.33.15-.58.84-.51,1.23-.98.19-.24.37-.75.45-1.12.28-1.27-.41-3.9,1.16-3.64,1.41.23.65,3.46,1.95,4.22.68.4,1.74.1,1.61,1.27-.09.79-.97.84-1.25,1.54-.47,1.17.14,2.02-.45,3.29Z"/>
        </g>
        <g>
          <g>
            <path class="cls-12" d="m176.24,80.69c-.98-.43-1.09-1.66-1.44-2.57-1.01-2.65-2.15-5.73-3.08-8.6.57-.54,1.71-1.14,2.46-.99.87.18.91,1.51,1.1,2.68.37,2.36.71,4.28,1.08,6.47.19,1.13.64,2.43-.12,3.01Z"/>
            <path class="cls-3" d="m165.7,24.43c1.08-1.38,1.32,1.66,1.44,2.46,1.63,11.28,4,22.37,6.2,33.15.37,1.83.83,3.72,1.19,5.92.19,1.17.94,5.3-.81,5.68-1.53.34-3.46-1.84-4.33-3.03-1.13-1.55-1.81-3.41-2.32-5.03-2.36-7.48-3.35-16.08-4.12-25-.16-1.9-.42-4.36-.52-6.8-.16-3.91-.22-7.68,3.27-7.34Z"/>
            <path class="cls-4" d="m169.16,67.72c.6-.13.69-1.4.68-2.23-.04-2.72-.6-5.74-.96-7.81-1.63-9.27-3-18.61-5.89-26.35-.13-.34-.33-.91-.61-1.33,0,.58.03,1.18.05,1.78.1,2.45.36,4.9.52,6.8.77,8.92,1.76,17.52,4.12,25,.41,1.31.94,2.77,1.72,4.1.12.05.25.06.38.03Z"/>
            <path class="cls-12" d="m203.19,69.8c.39-1-.39-1.95-.79-2.84-1.14-2.6-2.49-5.59-3.85-8.29-.78.01-2.02.39-2.44,1.02-.5.74.4,1.71,1.1,2.68,1.39,1.94,2.5,3.54,3.78,5.37.66.94,1.25,2.17,2.21,2.05Z"/>
            <path class="cls-3" d="m171.15,22.37c-1.74-.21.23,2.11.7,2.76,6.77,9.16,12.88,18.73,18.89,27.94,1.02,1.57,2.02,3.23,3.31,5.05.68.97,3.06,4.43,4.57,3.48,1.32-.84,1.17-3.74.95-5.2-.29-1.89-1.11-3.7-1.89-5.21-3.58-6.98-8.92-13.79-14.64-20.68-1.22-1.47-2.76-3.4-4.41-5.21-2.63-2.89-5.24-5.62-7.49-2.93Z"/>
            <path class="cls-6" d="m165.7,24.43c1.08-1.38,1.32,1.66,1.44,2.46,1.63,11.28,4,22.37,6.2,33.15.37,1.83.83,3.72,1.19,5.92.19,1.17.94,5.3-.81,5.68-1.53.34-3.46-1.84-4.33-3.03-1.13-1.55-1.81-3.41-2.32-5.03-2.36-7.48-3.35-16.08-4.12-25-.16-1.9-.42-4.36-.52-6.8-.16-3.91-.22-7.68,3.27-7.34Z"/>
            <path class="cls-6" d="m171.15,22.37c-1.74-.21.23,2.11.7,2.76,6.77,9.16,12.88,18.73,18.89,27.94,1.02,1.57,2.02,3.23,3.31,5.05.68.97,3.06,4.43,4.57,3.48,1.32-.84,1.17-3.74.95-5.2-.29-1.89-1.11-3.7-1.89-5.21-3.58-6.98-8.92-13.79-14.64-20.68-1.22-1.47-2.76-3.4-4.41-5.21-2.63-2.89-5.24-5.62-7.49-2.93Z"/>
            <path class="cls-4" d="m192.26,48.26c1.19,1.73,2.92,4.28,4.8,6.24.58.6,1.53,1.44,2.05,1.11.11-.07.19-.17.25-.29-.38-1.49-1.04-2.9-1.66-4.13-3.58-6.98-8.92-13.79-14.64-20.68-1.22-1.47-2.76-3.4-4.41-5.21-.4-.45-.81-.88-1.21-1.3.1.49.35,1.04.5,1.38,3.38,7.54,8.97,15.14,14.32,22.89Z"/>
            <g>
              <path class="cls-10" d="m165.44,7.62c-1.64.69-3.3,1.36-4.74,2.25-.87-1.07-1.36-2.4-2-3.63-.62-1.2-1.4-2.37-1.78-3.75,1.98-.73,3.76-1.65,5.62-2.5,1.09,2.4,1.95,5.05,2.89,7.62Z"/>
              <path class="cls-12" d="m165.08,6.96c5.94-.83,11.11,3.91,10.67,10.64-.36,5.43-4.92,9.46-9.9,9.53-3.47.05-6.6-1.96-8.16-4.58-2.46-4.13-1.36-9.9,1.66-12.88,1.34-1.32,3.38-2.39,5.73-2.72Z"/>
              <path class="cls-5" d="m165.43,10.5c3.84-.54,7.18,2.53,6.9,6.89-.23,3.51-3.18,6.12-6.4,6.16-2.24.03-4.27-1.27-5.28-2.96-1.59-2.67-.88-6.41,1.07-8.33.87-.86,2.19-1.55,3.71-1.76Z"/>
            </g>
          </g>
          <g>
            <path class="cls-3" d="m67.96,40.4c9.47-.74,17.04,5.69,17.49,14.6.18,3.59-.49,6.98-1.64,9.69-1.46,3.47-3.67,6.01-4.28,9.94-.64,4.16.46,7.7,1.13,11.45.64,3.6,1.05,7.79,0,11.45-1.75,6.11-6.31,11.06-11.7,13.72-3.1,1.52-6.85,2.36-10.44,2.27-7.47-.2-12.42-4.87-16.48-8.93-2.49-2.49-4.24-5.31-8.05-6.54-4.09-1.33-8.56-.55-12.46,0-4.79.68-8.18.13-11.45-1.64-3.13-1.69-5.43-3.79-7.3-6.67-1.76-2.72-3.25-6.39-2.64-10.95.95-7.08,6.64-12.52,11.58-16.23,2.52-1.9,5.49-3.96,7.3-6.54,1.86-2.65,2.82-6.02,4.91-8.93,1.52-2.12,3-3.48,5.29-4.53,3.09-1.41,7.03-1.64,10.32-1.13,3.08.47,5.89,2.1,9.19,2.64,1.63.27,3.66-.3,5.29-.63,4.8-.96,8.52-2.59,13.96-3.02Z"/>
            <g class="cls-14">
              <path class="cls-4" d="m29.28,64.31c-.13,0-.27.01-.4.02-.1,0-.18.02-.3.02-2.45-.16-4.4-.16-5.77,0-1.15.14-2.43.17-3.68.19-1.97.04-4,.09-5.56.57-.1.03-.17.12-.18.23-.37,3.88-.42,8.15-.47,12.28-.03,2.69-.07,5.45-.19,8.11-.14-.51-.28-1.02-.42-1.52-.18-.63-.35-1.26-.52-1.88-.07-.29-.14-.59-.21-.9-.31-1.43-.67-3.04-2.05-3.64-.11-.05-.24-.01-.32.08-.77,1.03-1.62,2.38-1.41,3.66.02.12.12.21.24.22.05,0,.09,0,.14,0,.86,0,1.07-.7,1.23-1.21.06-.19.12-.38.2-.53.53,1.67.97,3.54,1.39,5.35.28,1.2.57,2.44.88,3.58.04.13.07.26.1.4.21.87.48,1.96,1.41,2.34.03.01.07.02.1.02.08,0,.15-.03.2-.09.67-.78.61-1.83.55-2.75-.02-.25-.03-.5-.03-.73,0-5.99.19-13.15.59-21.89,1.54-.06,3.19-.12,4.86-.18,2.3-.08,4.65-.17,6.8-.26.33-.01.7,0,1.07.03.31.02.62.04.92.04.62,0,1.38-.07,1.69-.66.02-.04.03-.09.03-.14-.01-.28-.14-.75-.9-.75Z"/>
              <path class="cls-4" d="m16.86,75.67c.03.12.13.21.26.21,0,0,.02,0,.02,0,.98-.09,1.34-.81,1.65-1.44.16-.33.31-.65.54-.87.09.12.16.25.24.38.31.52.7,1.18,1.68,1.18h.1c.12,0,.21-.09.24-.2.21-.81-.34-1.35-.81-1.81-.26-.26-.51-.5-.65-.78.13-.18.28-.34.44-.52.45-.5.91-1.02,1.03-1.89.02-.12-.05-.23-.15-.28-.2-.09-.37-.13-.55-.13-.63,0-.95.54-1.23,1.01-.16.26-.31.52-.49.66-.04-.08-.09-.17-.13-.25-.3-.59-.67-1.32-1.71-1.32h-.08c-.14,0-.25.12-.25.26-.01.88.41,1.34.78,1.75.22.25.44.48.55.79-.15.28-.36.56-.59.86-.51.67-1.09,1.44-.9,2.37Z"/>
              <path class="cls-4" d="m20.81,77.81c-.44,0-.91.03-1.37.05-.47.03-.96.05-1.42.05-.2,0-.42-.02-.65-.03-.25-.02-.51-.04-.75-.04-.32,0-1.17,0-1.41.7-.03.07-.02.16.02.22.35.58,1.18.65,1.87.65.33,0,.68-.02,1.02-.04.65-.04,1.24-.04,1.88,0,.33.02.66.03.97.03.77,0,1.68-.1,1.96-.84.04-.11,0-.23-.09-.3-.42-.32-1.05-.46-2.04-.46Z"/>
              <path class="cls-4" d="m20.1,84.35c.1-.33.28-.66.46-1.01.36-.7.74-1.42.58-2.2-.02-.11-.12-.2-.23-.21-1.04-.09-1.27.68-1.45,1.24-.07.22-.14.43-.23.59-.12-.18-.21-.41-.3-.65-.21-.56-.47-1.26-1.34-1.33-.13,0-.24.07-.27.19-.29.99.21,1.79.64,2.5.22.36.43.7.54,1.05-.07.27-.21.56-.35.86-.3.63-.64,1.34-.38,2.08.03.09.11.15.2.17.1.02.2.03.28.03.75,0,.91-.61,1.03-1.06.04-.17.09-.31.14-.42.22.61.54,1.39,1.25,1.39.15,0,.31-.04.47-.11.1-.04.16-.14.16-.24-.02-.88-.37-1.41-.7-1.93-.19-.3-.38-.58-.49-.93Z"/>
            </g>
            <g>
              <g>
                <path class="cls-5" d="m31.68,48.47c-1.79-.87,2.28-4.02,2.67-2.11.2,1-1.72,1.94-2.67,2.11Z"/>
                <path class="cls-5" d="m28.23,48.74c.4-.11,1.3-.13,1.46.7.22,1.08-1.44,2.56-1.98,3.27-.67.86-1.53,2.78-2.74,2.61-1.73-.24,0-2.89.64-3.78.34-.47.72-.9,1.02-1.28.52-.66.83-1.31,1.61-1.52Z"/>
              </g>
              <g>
                <path class="cls-5" d="m59.22,109.65c.65-1.29,2.71-2.56,4.81-3.7.9-.49,2.37-1.25,2.89-.49.63.91-.9,2.04-1.45,2.44-1.74,1.27-4.09,2.46-5.53,2.72-.33-.09-.67-.58-.72-.97Z"/>
                <path class="cls-5" d="m65.38,103.02c-1.66-1.62,2.44-4.6,3.39-2.93.41.73-1.03,2.91-2.23,3.28-.43.13-.87-.07-1.16-.35Z"/>
                <path class="cls-5" d="m74.09,98.33c-.65-.51-.33-1.66.39-2.61.58-.77,2.03-1.97,2.66-1.06.28.4.14,1.36-.43,2.16-.67.95-1.78,2.16-2.61,1.51Z"/>
              </g>
            </g>
            <path class="cls-6" d="m74.83,52.83c-.85-.86-3.72-1.02-6.45-.81-4.96.38-9.89.76-14.33.69-2.53-.04-5.39-.28-7.43-.02-.56.07-1.08.13-1.52.24-.11-.08-.22-.15-.36-.18-1.09.71-2.37,1.64-3.45,2.62-.96.88-1.91,1.85-2.81,2.73-1.72,1.69-4.09,3.95-4.84,6.32-.93,2.91-.56,7.98-.64,11.85-.09,4.24-.31,8.48.14,12.58.28,2.56,1.44,4.24,3.67,4.8,2.69.67,6.49.5,10.21.57,3.68.07,7.5.39,10.58.3.78-.02,2.94-.12,3.77-.24,1.9-.28,2.47-.98,3.47-1.87,2.57-2.3,4.86-4.65,7.08-7.02.39-.42.91-.83,1.32-1.31,1.5-1.06,1.94-3.68,2.1-5.97.19-2.77.13-5.81.11-8.69-.02-3.58.06-5.52.11-8.56.04-2.15.59-6.67-.75-8.03Zm-21.22,1.66c2.22.03,4.55-.01,6.79-.08,4.22-.13,8.3-.85,12-.45-.24.31-.46.63-.66.86-2.41,2.74-4.88,5.66-7.3,8.16-2.29-.77-5.46-.11-8.31-.12-3.67-.01-7.31-.1-10.93-.17.01-1.54,0-3.08-.04-4.65-.03-1.06-.25-2.25.15-3.28,2.19-.75,5.27-.3,8.3-.26Zm-8.5,14.11c.02-1.38.05-2.75.07-4.13,4.35.12,8.81.32,12.77.21,1.98-.06,3.75-.58,5.66-.05.24,5.77.21,12.04-.05,18.08-4.06.05-8.28.11-12.23.18-2.21.03-4.38.06-6.07-.82-1.03-4.27-.24-8.91-.16-13.46Zm-1.43-13.43c0,.77.07,1.64.08,2.27.02,1.33-.09,2.89-.13,3.78-.02.49-.05.96-.07,1.43-2.48-.04-4.96-.08-7.44-.06,2.25-2.7,4.97-5.16,7.57-7.42Zm18.39,36.83c-1.1.79-4.79.6-6.78.59-2.52-.02-4.63-.11-6.8-.17-2.02-.05-4.3,0-6.8-.17-1.98-.14-4.94-.35-5.71-1.34-.91-1.18-.68-4.45-.71-6.53-.03-2.4.03-4.77.05-6.67.04-4.44-.47-9.32.35-13.23,2.41-.13,5.07-.12,7.8-.06-.19,3.94-.37,7.36-.52,11.67-.09,2.52-.17,5.9.85,7.15,1.15,1.4,3.77,1.37,6.21,1.45,4.87.16,9.14-.07,13.47-.13-.03.5-.05.99-.08,1.48-.13,2.13-.21,5.16-1.33,5.96Zm2.85-1.35c.25-1.94.42-3.99.54-6.11,1.21,0,2.43.01,3.68.06.6.02,1.17.06,1.72.06-1.9,2.19-4.02,4.34-5.94,5.99Zm8.52-21.79c-.02,2.54.11,5.15-.02,7.55-.12,2.28-.19,4.62-1.44,6.21-2.02.01-4.19.03-6.44.06.22-6.07.02-12.59-.18-18.61,2.5-2.53,5.13-5.45,7.56-8.04.22-.24.5-.49.78-.76.28,4.31-.22,9.1-.26,13.59Z"/>
          </g>
          <g>
            <g>
              <g>
                <path class="cls-4" d="m187.48,132.19l-.07-.22c-1.72-5.54-9.92-9.01-16.41-8.79-.02-.09-.05-.18-.07-.26-.75-2.36-1.48-5.21-1.13-8.52.05-.43.11-.85.19-1.27.77-4.21,2.75-6.84,4.56-8.84l.08-.08c.27-.27.77-.78.85-1.52.06-.52-.12-1.03-.49-1.43-.34-.35-.8-.54-1.29-.52-1.02.04-1.9.99-2.7,2l-.07.09c-2.22,2.75-3.65,5.62-4.35,8.79-.17.78-.3,1.57-.39,2.34-.39,3.73.3,6.7,1.17,9.62-4.46.85-8.6,2.65-12.32,5.34-4.85,3.52-8.03,7.32-10,11.96-1.06,2.51-1.78,5.48-2.14,8.83-.03.27-.05.53-.07.79-.54,6.2.14,11.43,2.14,16.47.72,1.81,1.73,3.57,2.92,5.07l.11.15c.34.45,1.12,1.5,2.36,1.33.18-.02.37-.08.55-.15l.28-.12c.12-.05.21-.14.27-.26l.13-.28c.1-.2.16-.42.18-.63.11-.99-.53-1.64-.87-1.99,0,0-.04-.04-.04-.04-.02-.02-.05-.05-.07-.07-1.87-2.38-3.25-5.64-4-9.44-.41-2.05-.6-4.33-.57-6.58.04-2.69.32-5.19.82-7.43,1.27-5.63,3.99-9.85,8.84-13.68,3.91-3.09,8.21-5.03,12.78-5.75,0,.01.01.03.02.04.09.24.19.53.33.81.74,1.52,1.7,3.1,3.03,4.97,1.32,1.85,3.45,4.44,6.72,5.54,1.34.45,2.82.6,4.16.42,1.03-.14,1.97-.46,2.71-.94,1.53-1,2.29-2.62,2.12-4.58-.04-.44-.17-.84-.28-1.16Zm-3.31,1.49c0,.09,0,.18-.01.27-.04.4-.2.69-.51.91-.68.48-2.13.59-3.34.27-2.42-.62-3.95-2.42-5.3-4.2-.9-1.18-1.71-2.53-2.48-4.1,4.48.25,9.53,2.62,11.14,5.34.27.45.51,1.16.51,1.51Z"/>
                <g>
                  <path class="cls-3" d="m145.31,144.47c15.12-1.8,17.57,11.19,18.16,25.13.48,11.2-1.64,20.9-7.48,23.81-6.05,3.01-13.8.31-17.31-2.65-3.59-3.03-6.59-9.53-7.05-16.1-.79-11.24,1.43-24.63,7.27-28.44,1.69-1.1,3.83-1.46,6.41-1.76Z"/>
                  <g class="cls-16">
                    <path class="cls-3" d="m145.31,144.47c15.12-1.8,17.57,11.19,18.16,25.13.48,11.2-1.64,20.9-7.48,23.81-6.05,3.01-13.8.31-17.31-2.65-3.59-3.03-6.59-9.53-7.05-16.1-.79-11.24,1.43-24.63,7.27-28.44,1.69-1.1,3.83-1.46,6.41-1.76Z"/>
                    <path class="cls-6" d="m145.31,144.47c15.12-1.8,17.57,11.19,18.16,25.13.48,11.2-1.64,20.9-7.48,23.81-6.05,3.01-13.8.31-17.31-2.65-3.59-3.03-6.59-9.53-7.05-16.1-.79-11.24,1.43-24.63,7.27-28.44,1.69-1.1,3.83-1.46,6.41-1.76Z"/>
                    <g>
                      <path class="cls-2" d="m163.47,169.61c-.43-10.15-1.85-19.78-8.42-23.59,4.19,4.66,5.24,12.79,5.61,21.29.48,11.2-1.64,20.9-7.48,23.81-5.23,2.6-11.71.94-15.64-1.46.37.41.75.78,1.15,1.11,3.51,2.96,11.25,5.66,17.31,2.65,5.84-2.91,7.96-12.61,7.48-23.81Z"/>
                      <g>
                        <rect class="cls-2" x="144.36" y="143.96" width="2.45" height="10.92"/>
                        <path class="cls-5" d="m148.48,160.59c0,1.65-1.3,2.99-2.9,2.99h0c-1.6,0-2.89-1.34-2.89-2.99v-5.36c0-1.65,1.29-2.99,2.89-2.99h0c1.6,0,2.9,1.34,2.9,2.99v5.36Z"/>
                      </g>
                    </g>
                  </g>
                </g>
              </g>
              <g>
                <path class="cls-5" d="m158.27,177.69c2.12,1.67,3.57-5.18.99-4.52-1.34.34-1.35,3.26-.99,4.52Z"/>
                <path class="cls-5" d="m159.98,182.07c-.1-.56-.61-1.66-1.73-1.37-1.45.38-2.27,3.28-2.82,4.36-.66,1.32-2.5,3.52-1.57,4.9,1.33,1.97,3.53-1.72,4.24-3.02.38-.69.68-1.41.96-2.01.49-1.03,1.11-1.79.91-2.87Z"/>
              </g>
            </g>
            <g>
              <g>
                <path class="cls-11" d="m221.99,144.75c.41.25.4.88.46,1.29.5,3.44.44,7.96.02,11.72-.47,4.22-1.75,7.93-3.69,10.54-1.95,2.63-4.93,4.5-6.96,7.22-2.1,2.81-2.95,6.36-3.3,10.95-3.21,1.46-7.25,2.4-11.76,2.09-4.22-.29-8.16-1.85-11.35-2.92-.43-3.15-1.27-6.22-2.86-8.43-2.19-3.07-5.79-4.98-8.08-8.16-3.79-5.26-2.87-13.51-3.24-22.46,16.52-1.24,33.62-1.24,50.75-1.83Z"/>
                <path class="cls-11" d="m220.87,171.99c.37,2.43-.12,5.69-2.69,5.75-1.41.03-2.2-1.03-2.8-2.33-.75-1.63-1.25-3.94-.27-5.52,1.91-3.07,7.25-1.1,11.26-1.9,3.38-.68,6.37-3.25,6.75-6.83.17-1.6-.19-3.09-1.17-4.56-.52-.78-1.56-2.13-3.2-2.04-3.13.17-2.98,4.7-5.63,5.19-1.95.36-3.32-.83-3.49-2.25-.14-1.22.48-2.6,1.06-3.42,1.46-2.04,5.05-3.86,7.97-3.95,5.75-.18,9.78,4.8,9.6,10.36-.08,2.5-1.34,4.8-2.81,6.63-3.16,3.93-7.63,6.21-14.58,4.88Z"/>
                <g class="cls-18">
                  <path class="cls-5" d="m220.87,171.99c.37,2.43-.12,5.69-2.69,5.75-1.41.03-2.2-1.03-2.8-2.33-.75-1.63-1.25-3.94-.27-5.52,1.91-3.07,7.25-1.1,11.26-1.9,3.38-.68,6.37-3.25,6.75-6.83.17-1.6-.19-3.09-1.17-4.56-.52-.78-1.56-2.13-3.2-2.04-3.13.17-2.98,4.7-5.63,5.19-1.95.36-3.32-.83-3.49-2.25-.14-1.22.48-2.6,1.06-3.42,1.46-2.04,5.05-3.86,7.97-3.95,5.75-.18,9.78,4.8,9.6,10.36-.08,2.5-1.34,4.8-2.81,6.63-3.16,3.93-7.63,6.21-14.58,4.88Z"/>
                </g>
                <path class="cls-11" d="m198.32,126.99c7.32-.62,15.65.57,20.73,5.81,1.55,1.6,3.54,4.83,3.53,8.97-.01,5.17-2.2,8.18-4.08,10.36-5.45,6.33-13.38,9.27-20.61,10.19-7.28.93-16.92.3-22.51-5.41-1.81-1.85-4.05-4.66-4.01-9.43.04-5,2.48-8.61,4.18-10.57,3.08-3.57,6.45-5.43,10.4-7.09,3.84-1.62,7.83-2.44,12.37-2.82Z"/>
                <path class="cls-9" d="m198.32,126.99c7.32-.62,15.65.57,20.73,5.81,1.55,1.6,3.54,4.83,3.53,8.97-.01,5.17-2.2,8.18-4.08,10.36-5.45,6.33-13.38,9.27-20.61,10.19-7.28.93-16.92.3-22.51-5.41-1.81-1.85-4.05-4.66-4.01-9.43.04-5,2.48-8.61,4.18-10.57,3.08-3.57,6.45-5.43,10.4-7.09,3.84-1.62,7.83-2.44,12.37-2.82Z"/>
                <g>
                  <path class="cls-13" d="m216.92,143.62c-4.64-4.79-12.26-5.88-18.94-5.31-4.14.35-7.8,1.11-11.3,2.59-3.61,1.52-6.68,3.22-9.5,6.48-1.28,1.48-3.02,3.97-3.61,7.36.59.85,1.23,1.57,1.82,2.18,5.59,5.71,15.23,6.34,22.51,5.41,7.22-.92,15.16-3.86,20.61-10.19.51-.59,1.03-1.24,1.53-1.96-.42-2.99-1.91-5.31-3.11-6.55Z"/>
                  <path class="cls-15" d="m216.92,143.62c-4.64-4.79-12.26-5.88-18.94-5.31-4.14.35-7.8,1.11-11.3,2.59-3.61,1.52-6.68,3.22-9.5,6.48-1.28,1.48-3.02,3.97-3.61,7.36.59.85,1.23,1.57,1.82,2.18,5.59,5.71,15.23,6.34,22.51,5.41,7.22-.92,15.16-3.86,20.61-10.19.51-.59,1.03-1.24,1.53-1.96-.42-2.99-1.91-5.31-3.11-6.55Z"/>
                </g>
                <path class="cls-4" d="m205.32,143.2c-3.27-1.16-6.23.39-8.5,2.11-2.24-5.11-10.59-4.35-11.4.79-.74,4.7,4.25,6.92,6.34,9.42.87,1.04,1.57,4.8,3.54,4.98,1.35.12,2.42-1.95,3.39-2.77,3.1-2.62,9.77-4.13,10-9.79.08-2.01-1.59-4.11-3.37-4.74Zm-1.5,7.68c-1.08.97-2.8,1.56-4.17,2.43-1.38.87-2.56,1.86-3.83,2.9-.98-2.49-2.83-3.46-5.1-5.66-.66-.65-2.99-2.63-1.92-4.71,1.23-2.38,5-.11,5.58,1.57.59,1.72-.18,3.14,1.52,3.39,1.54.23,3.08-3.53,4.48-4.25,1.57-.81,5.16-.96,5.17,1.5,0,.85-1.61,2.73-1.73,2.84Z"/>
              </g>
              <g>
                <path class="cls-5" d="m182.87,172.09c2-.46-1.36-4.57-2.2-2.73-.44.96,1.28,2.34,2.2,2.73Z"/>
                <path class="cls-5" d="m186.27,173.16c-.38-.21-1.27-.42-1.63.37-.47,1.04.86,2.9,1.24,3.74.47,1.02.89,3.15,2.15,3.26,1.8.16.66-2.91.23-3.94-.23-.55-.51-1.07-.73-1.52-.37-.78-.53-1.5-1.26-1.9Z"/>
              </g>
              <g>
                <path class="cls-5" d="m207.48,139.34c1.42-1.48-3.63-3.08-3.33-1.09.16,1.04,2.36,1.26,3.33,1.09Z"/>
                <path class="cls-5" d="m210.92,138.38c-.43.03-1.3.34-1.16,1.2.17,1.13,2.3,1.96,3.08,2.46.95.6,2.46,2.15,3.58,1.56,1.59-.85-1.03-2.8-1.96-3.43-.5-.34-1.01-.62-1.44-.88-.74-.45-1.27-.97-2.1-.91Z"/>
              </g>
            </g>
          </g>
        </g>
      </g>
    </g>
  </g>
</svg>