<?xml version="1.0" encoding="UTF-8"?>
<svg id="_Слой_2" data-name="Слой 2" xmlns="http://www.w3.org/2000/svg" viewBox="0 0 239.4 188.2">
  <defs>
    <style>
      .cls-1 {
        fill: #a7d640;
      }

      .cls-2, .cls-3 {
        opacity: .18;
      }

      .cls-4, .cls-5, .cls-6 {
        fill: #fff;
      }

      .cls-7 {
        fill: #00d4fc;
      }

      .cls-8, .cls-9, .cls-5, .cls-10 {
        opacity: .5;
      }

      .cls-9, .cls-11 {
        fill: #e38921;
      }

      .cls-12, .cls-13 {
        fill: #3c1da1;
      }

      .cls-14, .cls-10 {
        fill: #d811ad;
      }

      .cls-15 {
        fill: #845ef9;
      }

      .cls-16 {
        opacity: .45;
      }

      .cls-3, .cls-17, .cls-18 {
        fill: #0a1640;
      }

      .cls-6 {
        opacity: .75;
      }

      .cls-18, .cls-13, .cls-19 {
        opacity: .25;
      }

      .cls-20 {
        fill: #ffce00;
      }

      .cls-21 {
        fill: #ff8cdb;
      }
    </style>
  </defs>
  <g id="OBJECTS">
    <g>
      <g>
        <g>
          <g>
            <rect class="cls-7" x="69.45" y="7.7" width="97.91" height="60.61" rx="2.21" ry="2.21"/>
            <path class="cls-13" d="m166.8,9.92v56.18c0,.91-.73,1.65-1.65,1.65h-93.48c-.91,0-1.65-.74-1.65-1.65h0c0-4.78,3.87-8.65,8.65-8.65h72.37c3.3,0,5.97-2.67,5.97-5.97V16.41c0-4.49,3.64-8.14,8.14-8.14h0c.91,0,1.65.74,1.65,1.65Z"/>
            <rect class="cls-4" x="73.27" y="11.96" width="90.29" height="52.11" rx="1.79" ry="1.79"/>
            <path class="cls-3" d="m162.99,13.75v48.53c0,.68-.55,1.22-1.22,1.22h-86.7c-.68,0-1.23-.55-1.23-1.22v-3.34c1.38-.94,3.05-1.49,4.84-1.49h72.37c3.29,0,5.97-2.67,5.97-5.97V16.41c0-1.41.36-2.73.99-3.89h3.76c.67,0,1.22.55,1.22,1.22Z"/>
          </g>
          <g>
            <path class="cls-17" d="m165.15,7.14h-93.48c-1.53,0-2.78,1.25-2.78,2.78v56.18c0,1.53,1.25,2.78,2.78,2.78h93.48c1.53,0,2.78-1.25,2.78-2.78V9.92c0-1.53-1.25-2.78-2.78-2.78Zm1.65,58.97c0,.91-.73,1.65-1.65,1.65h-93.48c-.91,0-1.65-.74-1.65-1.65V9.92c0-.91.74-1.65,1.65-1.65h93.48c.91,0,1.65.74,1.65,1.65v56.18Z"/>
            <path class="cls-17" d="m161.76,11.39h-86.7c-1.3,0-2.36,1.06-2.36,2.36v48.52c0,1.3,1.06,2.36,2.36,2.36h86.7c1.3,0,2.36-1.06,2.36-2.36V13.75c0-1.3-1.06-2.36-2.36-2.36Zm1.22,50.88c0,.68-.55,1.22-1.22,1.22h-86.7c-.68,0-1.22-.55-1.22-1.22V13.75c0-.68.55-1.23,1.22-1.23h86.7c.68,0,1.22.55,1.22,1.23v48.52Z"/>
          </g>
        </g>
        <g>
          <g>
            <g>
              <rect class="cls-15" x="119.65" y="23.4" width="39.22" height="29.22" rx="1.42" ry="1.42" transform="translate(177.27 -101.25) rotate(90)"/>
              <path class="cls-7" d="m137,23.83c0,1.25,1.01,2.26,2.26,2.26s2.26-1.01,2.26-2.26-1.01-2.26-2.26-2.26-2.26,1.01-2.26,2.26Z"/>
            </g>
            <g>
              <path class="cls-17" d="m152.45,17.83h-26.38c-1.1,0-1.99.89-1.99,1.99v36.37c0,1.1.89,1.99,1.99,1.99h26.38c1.1,0,1.99-.89,1.99-1.99V19.82c0-1.1-.89-1.99-1.99-1.99Zm.86,38.36c0,.47-.38.86-.86.86h-26.38c-.47,0-.86-.38-.86-.86V19.82c0-.47.38-.86.86-.86h26.38c.47,0,.86.38.86.86v36.37Z"/>
              <path class="cls-17" d="m139.26,26.66c1.56,0,2.83-1.27,2.83-2.83s-1.27-2.83-2.83-2.83-2.83,1.27-2.83,2.83,1.27,2.83,2.83,2.83Zm0-4.53c.94,0,1.7.76,1.7,1.7s-.76,1.7-1.7,1.7-1.7-.76-1.7-1.7.76-1.7,1.7-1.7Z"/>
              <path class="cls-17" d="m149.66,32.57h-20.79c-.31,0-.57.25-.57.57s.25.57.57.57h20.79c.31,0,.57-.25.57-.57s-.25-.57-.57-.57Z"/>
              <path class="cls-17" d="m149.66,37.16h-20.79c-.31,0-.57.25-.57.57s.25.57.57.57h20.79c.31,0,.57-.25.57-.57s-.25-.57-.57-.57Z"/>
              <path class="cls-17" d="m149.66,41.76h-20.79c-.31,0-.57.25-.57.57s.25.57.57.57h20.79c.31,0,.57-.25.57-.57s-.25-.57-.57-.57Z"/>
              <path class="cls-17" d="m149.66,46.35h-20.79c-.31,0-.57.25-.57.57s.25.57.57.57h20.79c.31,0,.57-.25.57-.57s-.25-.57-.57-.57Z"/>
              <path class="cls-17" d="m149.66,50.95h-20.79c-.31,0-.57.25-.57.57s.25.57.57.57h20.79c.31,0,.57-.25.57-.57s-.25-.57-.57-.57Z"/>
            </g>
          </g>
          <g>
            <g>
              <rect class="cls-14" x="84.49" y="46.08" width="5.22" height="5.22"/>
              <g>
                <path class="cls-17" d="m89.71,45.51h-5.22c-.31,0-.57.25-.57.57v5.22c0,.31.25.57.57.57h5.22c.31,0,.57-.25.57-.57v-5.22c0-.31-.25-.57-.57-.57Zm-.57,5.22h-4.09v-4.09h4.09v4.09Z"/>
                <path class="cls-17" d="m93.84,46.78h18.11c.31,0,.57-.25.57-.57s-.25-.57-.57-.57h-18.11c-.31,0-.57.25-.57.57s.25.57.57.57Z"/>
                <path class="cls-17" d="m111.95,50.42h-18.11c-.31,0-.57.25-.57.57s.25.57.57.57h18.11c.31,0,.57-.25.57-.57s-.25-.57-.57-.57Z"/>
                <path class="cls-17" d="m111.95,55.19h-18.11c-.31,0-.57.25-.57.57s.25.57.57.57h18.11c.31,0,.57-.25.57-.57s-.25-.57-.57-.57Z"/>
              </g>
            </g>
            <g>
              <g>
                <rect class="cls-20" x="82.95" y="18.4" width="30.55" height="22.76" rx="1.11" ry="1.11"/>
                <path class="cls-11" d="m113.49,19.51v4.32h-30.55v-4.32c0-.61.5-1.11,1.11-1.11h28.33c.61,0,1.11.5,1.11,1.11Z"/>
              </g>
              <g>
                <path class="cls-17" d="m112.72,17.87c-.11-.02-.22-.03-.34-.03h-28.33c-.12,0-.23.01-.34.03-.76.16-1.34.83-1.34,1.64v20.55c0,.92.75,1.68,1.68,1.68h28.33c.92,0,1.68-.75,1.68-1.68v-20.55c0-.81-.58-1.49-1.34-1.64Zm-28.67,1.1h28.33c.3,0,.54.24.54.54v3.75h-29.41v-3.75c0-.3.24-.54.54-.54Zm28.33,21.63h-28.33c-.3,0-.54-.24-.54-.54v-15.66h29.41v15.66c0,.3-.24.54-.54.54Z"/>
                <path class="cls-17" d="m96.19,27.27h-9.07c-.31,0-.57.25-.57.57s.25.57.57.57h9.07c.31,0,.57-.25.57-.57s-.25-.57-.57-.57Z"/>
                <path class="cls-17" d="m96.19,31.81h-9.07c-.31,0-.57.25-.57.57s.25.57.57.57h9.07c.31,0,.57-.25.57-.57s-.25-.57-.57-.57Z"/>
                <path class="cls-17" d="m96.19,36.35h-9.07c-.31,0-.57.25-.57.57s.25.57.57.57h9.07c.31,0,.57-.25.57-.57s-.25-.57-.57-.57Z"/>
                <path class="cls-17" d="m109.32,27.27h-9.07c-.31,0-.57.25-.57.57s.25.57.57.57h9.07c.31,0,.57-.25.57-.57s-.25-.57-.57-.57Z"/>
                <path class="cls-17" d="m109.32,31.81h-9.07c-.31,0-.57.25-.57.57s.25.57.57.57h9.07c.31,0,.57-.25.57-.57s-.25-.57-.57-.57Z"/>
                <path class="cls-17" d="m109.32,36.35h-9.07c-.31,0-.57.25-.57.57s.25.57.57.57h9.07c.31,0,.57-.25.57-.57s-.25-.57-.57-.57Z"/>
              </g>
            </g>
          </g>
        </g>
      </g>
      <g>
        <g>
          <g>
            <path class="cls-21" d="m199.55,168.66c5.53-1.17,15.22,9.85,20.81,9.05,1.29-11.78-10.39-31.3-13.2-37.8-2.06-4.76-4.81-12.31-8.63-15.98-6.82-6.55-18.9.41-12.96,14.4,5.81,13.71,10.69,23.7,13.98,30.32Z"/>
            <path class="cls-21" d="m97.81,159.69c3.94,4.06-.05,17.86,3.6,22.17,10.66-5.18,20.78-25.19,24.79-31.02,2.94-4.27,7.86-10.62,8.94-15.81,1.92-9.26-10.4-15.79-19.09-3.31-8.52,12.22-14.38,21.66-18.24,27.97Z"/>
            <path class="cls-21" d="m104.02,165.4c-2.03-8.79-7.33-16.74-15.77-37.84-1.02-2.55-1.44-3.4-4.75-3.4-5.01,0-4.86,1.9-4.67,5.23.78,13.54,5.25,51.12,18.7,53.13,3.72.55,8.07-3.28,11.4-6.52"/>
            <path class="cls-21" d="m69.75,113.56c1.16-.56,2.64,3.02,2.64,3.02,0,0-2.32-6.19-.66-6.72,1.98-.64,4.34,4.72,4.34,4.72-1.03-3.2-3.52-8.15-1.96-9.1,1.99-1.2,4.8,5.54,5.42,7.65-2.69-9.16-3.27-10.26-3.26-11.76,0-1.65,1.65-2.02,2.71-.77,1.79,2.11,5.69,13.91,6.57,15.61.21.39.78.37.97-.03.89-1.87,1.71-4.3,4.5-6.79.93-.83,3.15-2.33,4.19-.82.53.78-.28,1.89-.68,2.54-2.28,3.71-2.69,7.31-3.95,11.42-4.13,13.46-14.94,10.34-20.26-2.33,0,0-2.44-5.72-.58-6.63Z"/>
          </g>
          <path class="cls-1" d="m139.13,128.74c-.54,4.46-1.82,9.17-3.93,13.92-.01.04-.03.07-.05.1-.13.3-.28.61-.42.91-.43.91-.89,1.82-1.38,2.73-.22.41-.45.81-.68,1.22-.02.03-.04.07-.06.1-.22.37-.44.75-.67,1.13-.18.3-.36.6-.55.9-.3.48-.61.95-.93,1.43-.28.42-.56.83-.85,1.25-.6.85-1.24,1.7-1.9,2.54-.26.34-.53.68-.81,1.02-.29.35-.59.72-.89,1.07h0s0,0,0,0c0,.01-.02.02-.02.03-.08.1-.17.19-.24.29-.16.18-.32.37-.48.54-.16.18-.32.36-.48.54-.32.35-.64.7-.97,1.05-.04.04-.08.09-.12.13-.34.37-.7.73-1.05,1.09-.02.02-.04.04-.06.06-.38.39-.76.76-1.16,1.14h0c-1.1,1.06-1.85,1.19-3.3.56-2.48-1.1-5.13-2.76-7.62-4.88-.22-.18-.44-.37-.65-.57-.09-.08-.18-.16-.28-.25-.31-.28-.61-.56-.91-.86-.31-.29-.61-.59-.89-.9-.29-.31-.59-.62-.87-.94-.26-.28-.51-.57-.75-.87-.15-.17-.29-.35-.43-.53-.11-.13-.21-.26-.32-.4-.11-.14-.22-.29-.32-.43-.13-.18-.27-.35-.39-.53-.11-.14-.21-.28-.31-.43-.21-.31-.42-.62-.63-.94,0-.01-.01-.02-.02-.03-.34-.54-.35-1.18-.18-1.83h0c.2-.76.62-1.54,1.05-2.25.02-.04.05-.09.08-.14.27-.45.53-.87.72-1.23.33-.63.67-1.27,1.02-1.92,0-.01,0-.02.01-.02,6.34-11.69,16.46-26.28,28.28-31.24,1.47-.62,1.9-.75,2.28.12,2.11,4.77,2.92,10.77,2.13,17.31Z"/>
          <path class="cls-18" d="m139.13,128.74c-.54,4.46-1.82,9.17-3.93,13.92-.01.04-.03.07-.05.1-.13.3-.28.61-.42.91-.43.91-.89,1.82-1.38,2.73-.22.41-.45.81-.68,1.22-.02.03-.04.07-.06.1-.22.37-.44.75-.67,1.13-.18.3-.36.6-.55.9-.3.48-.61.95-.93,1.43-.28.42-.56.83-.85,1.25-.6.85-1.24,1.7-1.9,2.54-.26.34-.53.68-.81,1.02-.29.35-.59.72-.89,1.07h0s0,0,0,0c0,.01-.02.02-.02.03-.08.1-.17.19-.24.29-.16.18-.32.37-.48.54-.16.18-.32.36-.48.54-.32.35-.64.7-.97,1.05-.04.04-.08.09-.12.13-.35.37-.7.73-1.05,1.09-.02.02-.04.04-.06.06-.38.39-.76.76-1.16,1.14h0c-1.1,1.06-1.85,1.19-3.3.56-2.48-1.1-5.13-2.76-7.62-4.88-.22-.18-.44-.37-.65-.57h0c2.72-2.04,4.62-4.92,6.06-8.09,4.09-8.96,4.56-20.19,9.92-21.06,1.1-.18,8.18.39,13.29.84Z"/>
          <path class="cls-4" d="m182.83,185.82h-54.04c3.72-24.04,6.49-27.07,6.8-74.29,0-.35.19-.72.52-1.09.25-.27.57-.53.97-.8.08-.06.17-.12.26-.17.67-.44,1.52-.87,2.5-1.28.68-.3,1.43-.58,2.23-.86,5.09-1.76,13.89-3.55,20.89-3.52,2.68.01,5.09.28,6.93.93,2.9.97,2.53,1.23,2.12,3.15-.32,1.48-.51,3.49-.6,5.87-.12,3.07-.07,6.74.07,10.62.41,10.8,1.63,23.25,2.43,28.99l.05.44c1.66,11.72,4.6,20.37,8.87,32.01Z"/>
          <path class="cls-21" d="m140.67,118.55c6.7,6.96,17.65,6.16,23.09-.33,3.18-3.8,3.94-9.08,5.75-13.6-8.24-2.49-27.03,1.29-32.43,5.01-.4.27-.72.54-.96.81-.47,2.74,2.99,6.49,4.55,8.11Z"/>
          <g class="cls-2">
            <path class="cls-17" d="m182.83,185.82h-43.12c2.16-.74,4.19-1.78,6.02-3.16,4.03-3.05,6.74-7.53,8.81-12.14,4.16-9.28,6.01-19.39,8.6-29.22,1.11-4.2,2.38-8.41,4.59-12.15,1.02-1.74,2.29-3.37,3.75-4.77.41,10.8,1.63,23.25,2.43,28.99l.05.44c1.66,11.72,4.6,20.37,8.87,32.01Z"/>
          </g>
          <g>
            <path class="cls-1" d="m124.98,117.67c5.69-4.45,7.88-5.76,12.36-8.21.8-.45,1.63-.87,2.5-1.28,3.19-1.48,3.62,1.61,3.78,4.25,1.22,20.77,3.34,30.39-4.82,73.38h-16.67c1.46-11.56,2.84-24.13,3.54-36.44.57-10.15.48-16.91.17-21.48"/>
            <path class="cls-1" d="m144.21,113.78c2.12-2.12,1.12-1.15,2.28-3.8,1.2-2.74,2-5,1.52-7.95-.27-1.64-.17-4.09-3.43-2.62-3.6,1.63-6.73,4.25-9.09,7.41-1.06,1.41-5.62,7.81-2.3,8.92,4.25,1.41,9.32-.26,11.01-1.95Z"/>
            <path class="cls-1" d="m196.9,185.81c.09.27.18.54.27.81-.1-.28-.19-.54-.28-.81,0,0-23.67,0-23.67,0-3.1-10-5.76-20.16-7.61-30.46-1.91-10.61-2.9-21.34-2.1-32.11.29-3.94,1.05-7.93,1.98-11.78.45-1.86,1.45-6.42,4.16-6.08,8.53,1.09,18.43,3.05,24.46,8.56,3.22,2.95,3.29,4.55.43,22.62-1.95,12.29-2.99,24.51-.77,36.85.75,4.2,1.82,8.34,3.14,12.39Z"/>
            <path class="cls-1" d="m176.91,106.31c17.21,2.65,22.02,10.56,25.5,17,4.19,7.76,7.76,15.7,10.74,23.72.59,1.58,1.15,3.17,1.69,4.75.41,1.2,1,2.35.2,3.52-4.07,5.89-13.29,9.97-18.25,9.87-1.71-.03-2.34-1.25-3.22-2.53-.76-1.1-1.5-2.22-2.21-3.38-6.18-10.01-10.41-22.24-8.95-33.93"/>
            <path class="cls-1" d="m179.34,112.97c.95-3.26-6.24-13.48-11.81-15.64-.87-.34-3.31-.92-2.46.76,2.89,5.74.02,15.09.02,15.09,2.27,1.56,13.48,2.45,14.25-.21Z"/>
          </g>
          <g class="cls-16">
            <path class="cls-17" d="m178.8,177.18l-2.04-6.38c-.66-2.13-1.3-4.25-1.89-6.4-.61-2.14-1.15-4.29-1.69-6.45l-1.56-6.52c-.06-.24-.27-.41-.53-.4-.29,0-.52.25-.51.54.07,2.27.32,4.53.69,6.77.36,2.24.87,4.46,1.46,6.65.61,2.19,1.32,4.35,2.15,6.47.83,2.11,1.77,4.19,2.89,6.17.13.23.4.34.66.26.29-.09.45-.41.36-.7Z"/>
            <path class="cls-17" d="m138.47,121.83c-.02-.26-.24-.46-.5-.47-.29,0-.53.22-.54.51h0s-.31,11.06-.31,11.06c-.12,3.68-.23,7.36-.41,11.03-.09,1.84-.17,3.67-.3,5.5-.06.92-.1,1.83-.18,2.75l-.21,2.74c-.32,3.65-.68,7.3-1.22,10.94h0c-.04.28.13.55.4.62.3.08.6-.09.68-.39.98-3.6,1.63-7.28,2.11-10.96.48-3.69.74-7.4.93-11.1.16-3.71.21-7.42.15-11.12-.06-3.71-.24-7.41-.59-11.11Z"/>
            <path class="cls-17" d="m126.5,156.76c-.04-.07-.1-.13-.17-.17-3.67-2.77-7.05-5.48-10.04-8.06-3.17-2.73-5.28-4.78-6.68-6.14-.84-.82-1.46-1.41-1.93-1.81-.13-.11-.3-.15-.46-.12-.16.03-.31.13-.39.27-.23.39-.45.79-.67,1.17l-.21.37h0s-.01.02-.02.04c-.48.85-.95,1.69-1.41,2.52-.13.23-.24.44-.32.59-.03.04-.05.08-.1.17-.55,1.02-.89,1.76-1.09,2.33,0,.02-.01.03-.01.05-.34,1.05-.16,1.63.24,2.25,0,.02.02.04.03.06.21.32.42.64.64.95l.04.06c.09.13.18.26.26.36.13.18.27.37.4.55.11.14.22.3.34.45.11.14.21.28.31.39.15.18.29.37.43.53.25.31.51.6.76.88.29.33.59.65.88.96.29.31.6.62.91.92.31.3.62.59.92.87.1.09.2.18.3.26.22.2.43.39.65.57,2.46,2.1,5.15,3.81,7.76,4.97.65.29,1.2.43,1.7.43.76,0,1.42-.34,2.17-1.06.02-.01.04-.03.06-.05.39-.38.78-.77,1.17-1.15,0,0,.06-.06.06-.06.36-.36.71-.73,1.05-1.09l.14-.14c.33-.35.65-.7.97-1.06.17-.19.33-.37.48-.55.15-.17.31-.35.5-.57l.11-.13s.07-.08.11-.13c.05-.05.1-.12.13-.18.08-.18.07-.38-.04-.55Z"/>
            <path class="cls-17" d="m215.53,152.04c-.05-.15-.11-.29-.16-.44-.54-1.58-1.11-3.19-1.69-4.77-.06-.17-.2-.3-.37-.35-.17-.05-.36-.02-.5.09-3.09,2.34-6.33,4.5-9.65,6.4-3.84,2.2-7.88,4.14-12.02,5.76-.16.06-.28.19-.33.35-.05.16-.03.33.06.48.7,1.13,1.45,2.28,2.23,3.4l.26.38c.78,1.16,1.59,2.36,3.41,2.4.06,0,.13,0,.19,0,5.39,0,14.56-4.36,18.54-10.11,0,0,0,0,0,0,.87-1.27.42-2.5.03-3.59Z"/>
          </g>
          <path class="cls-18" d="m196.89,185.81h-7.3c-1.81-6.66-2.99-13.7-2.47-21.05.23-3.13,1.69-7.98,3.89-10.26.29-.31.72-.58,1.11-.71-.37,8.68.39,18.76,4.77,32.02Z"/>
          <path class="cls-5" d="m186.95,115.12c.97.28,1.77.72,2.58,1.22.79.5,1.52,1.09,2.21,1.72,1.38,1.26,2.53,2.74,3.53,4.29,1.01,1.56,1.77,3.24,2.43,4.94.32.86.57,1.74.83,2.6.2.89.4,1.77.55,2.67.05.3-.15.59-.46.64-.25.04-.49-.09-.59-.31v-.03c-.4-.8-.73-1.62-1.06-2.43l-1.09-2.38c-.42-.76-.73-1.57-1.18-2.31l-.61-1.13-.68-1.09c-.9-1.45-1.91-2.83-3.04-4.1-.58-.62-1.16-1.25-1.8-1.8-.62-.57-1.32-1.11-1.98-1.53l-.06-.04c-.24-.15-.31-.48-.16-.72.13-.2.37-.28.58-.22Z"/>
          <g>
            <path class="cls-21" d="m220.41,174.5c.07.69.11,1.43.09,2.16-.03,1.35-.3,2.71-1.07,3.8-2.49,3.49-8.7,1.92-11.9.5-10.93-4.88-25.33-22.83-32.82-33.66-.42-.59-.81-1.17-1.17-1.72-1.86-2.77-2.96-4.33,1.36-6.88,2.85-1.68,3.64-1.17,5.82.51,18,13.88,26.61,18.03,32.81,24.57"/>
            <path class="cls-21" d="m157.68,136.57c.71-1.07,3.81,1.26,3.81,1.26,0,0-5.15-4.15-3.99-5.45,1.38-1.56,6.13,1.86,6.13,1.86-2.51-2.23-7.17-5.23-6.31-6.84,1.1-2.05,6.95,2.33,8.56,3.83-6.98-6.52-8.03-7.17-8.79-8.47-.83-1.42.4-2.57,1.94-2.04,2.61.9,11.97,9.08,13.59,10.1.38.24.86-.08.82-.52-.19-2.06-.71-4.57.43-8.14.38-1.19,1.53-3.61,3.19-2.83.85.4.72,1.77.71,2.53-.08,4.35,1.4,7.66,2.4,11.84,3.29,13.69-7.61,16.5-18.63,8.29,0,0-5.01-3.69-3.87-5.42Z"/>
            <path class="cls-21" d="m166.36,104.6c0-4.73-1.43-11.01-4.52-14.81-1.67-2.05-5.18-2.28-7.57-1.73-4.48,1.02-7.73,5.15-7.52,9.48.49,9.97-2.99,11.56-2.97,17.41"/>
          </g>
          <path class="cls-10" d="m146.29,106.2c.61-5.03-.16-9.29,1.38-12.54.65-1.37,1.33-2.27,2.21-3.07,2.42-.86,5.33-.99,8.15-.29,0,0,1.17,5.51,1.17,5.54.94,4.46-5.14,11.41-12.92,10.36Z"/>
          <path class="cls-21" d="m164.88,92.02l-5.97,5.56c-3.9,2.57-8.76,4.16-13.66,3.43-6.41-.96-9.28-6.37-10.02-12.64-.23-1.98-.25-4.05-.1-6.1.02-.23.04-.47.06-.7.6-6.44,3.1-12.86,7.77-17.44,4.33-4.24,10.48-6.77,16.49-4.96,15.03,4.52,13.97,21.9,5.43,32.85Z"/>
          <path class="cls-20" d="m175.68,88.41c-2.03,5.24-5.14,9.78-8.51,11.12-2.63,1.05-4.08-1.36-4.24-3.68-.32-4.59,2.5-6.07,3.3-8.61.33-1.05.17-2.34-.66-3.06-1.73-1.47-4.42.53-5.45-2.07-1.33-3.37,2.12-10.21,7.18-12.98,1.85-1.01,3.91-1.47,6.03-1.02,6.1,1.29,5.67,11.72,2.35,20.3Z"/>
          <path class="cls-9" d="m175.68,88.41c-2.03,5.24-5.14,9.78-8.51,11.12-2.63,1.05-4.08-1.36-4.24-3.68-.32-4.59,2.5-6.07,3.3-8.61.33-1.05.17-2.34-.66-3.06-1.73-1.47-4.42.53-5.45-2.07-1.33-3.37,2.12-10.21,7.18-12.98.09,3.37.48,6.74,1.55,9.93,1.24,3.7,3.49,7.16,6.77,9.3.02.02.05.03.07.05Z"/>
          <path class="cls-20" d="m134.32,65.46s.06,0,.09,0c-.57.56-.97,1.32-1.11,2.18-.32,2.09,1.05,4.04,3.06,4.36,1.86.29,3.62-.92,4.14-2.76.04-.15.08-.31.1-.47.01-.08.02-.16.03-.25.62.45,1.34.76,2.14.88,2.17.34,4.24-.8,5.3-2.68.44,2.12,2.08,3.82,4.24,4.16,1.62.25,3.2-.32,4.32-1.41-.02.09-.04.18-.05.27-.46,2.99,1.46,5.76,4.3,6.2,1.58.24,3.1-.28,4.22-1.32-.36.55-.63,1.18-.73,1.88-.38,2.45,1.2,4.72,3.53,5.08,1.89.29,3.7-.78,4.51-2.51.6,1.29,1.8,2.27,3.29,2.5,2.4.37,4.64-1.31,5.02-3.76.25-1.61-.38-3.14-1.51-4.11,1.85-.25,3.41-1.76,3.72-3.79.38-2.45-1.2-4.72-3.52-5.08-.63-.1-1.25-.04-1.83.14.18-.41.33-.85.4-1.32.4-2.58-1.19-5-3.62-5.74-.23-.07-.46-.12-.71-.16-.85-.13-1.68-.04-2.44.21.16-.37.28-.76.35-1.17.39-2.53-1.34-4.89-3.87-5.29-1.62-.25-3.17.37-4.19,1.51.32-2.48-1.39-4.78-3.88-5.16-2.53-.39-4.89,1.34-5.29,3.87-.05.31-.07.63-.05.93-.35-1.88-1.85-3.42-3.84-3.73-2.5-.39-4.83,1.3-5.27,3.78-.65-.58-1.46-.98-2.37-1.13-2.53-.39-4.89,1.34-5.29,3.87-.08.52-.07,1.04.02,1.53-.54-.35-1.14-.59-1.82-.7-2.53-.39-4.89,1.34-5.28,3.87-.39,2.53,1.34,4.89,3.86,5.28Z"/>
          <path class="cls-9" d="m140.5,69.25c.04-.15.08-.31.1-.47.01-.08.02-.16.03-.25.62.45,1.34.76,2.14.88,2.17.34,4.24-.8,5.3-2.68.44,2.12,2.08,3.82,4.24,4.16,1.62.25,3.2-.32,4.32-1.41-.02.09-.04.18-.05.27-.46,2.99,1.46,5.76,4.3,6.2,1.58.24,3.1-.28,4.22-1.32-.36.55-.63,1.18-.73,1.88-.38,2.45,1.2,4.72,3.53,5.08,1.89.29,3.7-.78,4.51-2.51.6,1.29,1.8,2.27,3.29,2.5,2.4.37,4.64-1.31,5.02-3.76.25-1.61-.38-3.14-1.51-4.11,1.85-.25,3.41-1.76,3.72-3.79.38-2.45-1.2-4.72-3.52-5.08-.63-.1-1.25-.04-1.83.14.18-.41.33-.85.4-1.32.4-2.58-1.19-5-3.62-5.74-2,4.24-2.13,9.54-5.72,9.73-3.85.21-3.26-5.74-6.66-6.18-2.57-.33-4.18,2.5-6.57,1.98-2.2-.47-2.83-3-4.94-3.77-5.09-1.86-10.59,2.59-9.98,9.55Z"/>
          <g class="cls-8">
            <path class="cls-14" d="m87.11,150.87c-.88-4.75-1.05-9.76-3.18-14.09-1.03-2.08-2.71-3.97-4.68-5.19.77,13.14,4.06,35.55,10.87,45.4,2.31,3.34,5.98,7.04,10.38,5.16.32-.14,2.91-1.46,2.63-1.68-8.27-6.45-14.04-19.03-16.01-29.58Z"/>
            <path class="cls-14" d="m149.4,87.4c-.17.8.06,1.69.88,2.55,1.88,1.96,6.75,1.65,7.01-1.39.37-4.23-7.03-5.1-7.89-1.16Z"/>
            <path class="cls-14" d="m140.11,85.89c-.19,2.18-2.75,2.96-4.88,2.48-.23-1.98-.25-4.05-.1-6.1,2.36-.38,5.22.95,4.98,3.62Z"/>
            <path class="cls-14" d="m164.23,86.03c-.59,0-1.06.19-1.49.44-.21.14-.41.28-.59.47-.18.18-.35.39-.47.66-.02.05-.04.12-.04.18,0,.26.2.48.46.49.3,0,.56-.05.8-.14.24-.08.46-.2.68-.33.41-.28.8-.61,1.05-1.15.03-.05.04-.12.04-.18,0-.24-.19-.45-.44-.45Z"/>
            <path class="cls-14" d="m191.46,159.7c-3.22-3.6-5.97-7.79-10.04-10.39-1.96-1.24-4.38-1.99-6.7-2.01,7.49,10.83,21.89,28.78,32.82,33.66,3.19,1.43,9.41,2.99,11.9-.5.78-1.09,1.04-2.45,1.07-3.8-10.42-1.22-21.88-8.96-29.05-16.96Z"/>
          </g>
        </g>
        <g>
          <path class="cls-17" d="m152.71,134.11c1.13.05,2.08-.83,2.13-1.96.05-1.13-.83-2.08-1.96-2.13-1.13-.05-2.08.83-2.13,1.96-.05,1.13.83,2.08,1.96,2.13Z"/>
          <path class="cls-17" d="m153.14,138.05c-1.13-.05-2.08.83-2.13,1.96-.05,1.13.83,2.08,1.96,2.13,1.13.05,2.08-.83,2.13-1.96.05-1.13-.83-2.08-1.96-2.13Z"/>
          <path class="cls-17" d="m220.97,174.43c-.36-5.7-2.81-12.5-5.55-18.69.03-.04.05-.07.08-.11.87-1.27.42-2.5.03-3.59-.05-.14-.11-.29-.16-.44-.53-1.58-1.1-3.18-1.69-4.76-3.02-8.16-6.65-16.16-10.77-23.79-3.1-5.74-7.78-14.4-25.58-17.24-1.9-2.88-4.56-5.81-7.11-7.62.66-.6,1.31-1.32,1.94-2.13,1.51-1.96,2.91-4.5,4.05-7.44.77-2,1.47-4.34,1.92-6.74.41-.16.81-.38,1.17-.65,1.06-.8,1.76-1.97,1.97-3.3.22-1.41-.15-2.81-.99-3.89,1.65-.62,2.92-2.16,3.2-4.01.43-2.76-1.36-5.33-3.99-5.73-.35-.06-.7-.07-1.06-.04.05-.17.08-.34.11-.5.43-2.81-1.29-5.55-4.01-6.37-.25-.07-.52-.13-.79-.18-.55-.08-1.12-.08-1.68,0,.03-.09.04-.19.06-.29.21-1.37-.12-2.75-.94-3.87-.82-1.12-2.03-1.85-3.4-2.06-1.32-.21-2.63.1-3.71.82-.27-2.25-2-4.11-4.35-4.47-1.38-.21-2.75.12-3.87.94-.83.61-1.45,1.43-1.8,2.37-.79-1.18-2.05-2.01-3.51-2.24-2.48-.38-4.86,1.09-5.69,3.38-.59-.37-1.25-.62-1.95-.73-1.38-.21-2.75.12-3.87.95-1.12.82-1.85,2.02-2.07,3.4-.03.21-.05.43-.05.65-.35-.14-.72-.24-1.09-.3-1.37-.21-2.75.13-3.87.95s-1.85,2.02-2.06,3.4c-.4,2.54,1.13,4.95,3.5,5.73-.34.52-.56,1.11-.66,1.74-.37,2.4,1.22,4.65,3.54,5,.15.02.31.04.47.04-1.11,2.74-1.83,5.74-2.12,8.91-.7,7.48.89,15.75,6.92,18.89-2.47,1.57-4.68,3.63-6.5,6.07-.86,1.15-2.44,3.42-3.19,5.52-.3.19-.61.39-.93.61-.11.07-.23.14-.34.22-1.94,1.16-3.8,2.56-5.6,4.13-.12.09-.23.18-.35.27-.05.04-.09.09-.12.14-2.59,2.31-5.02,4.94-7.24,7.67-4.88,6.02-8.78,12.54-11.34,17.25,0,0,0,.02,0,.03-.34.62-.66,1.23-.98,1.83l-.04.09c-.13.25-.3.53-.48.82l-.23.38s-.04.08-.08.14c-.43.72-.9,1.56-1.12,2.4v.04c-.2.78-.15,1.48.15,2.05-.91,1.42-1.77,2.79-2.59,4.1-.71-1.61-1.51-3.34-2.4-5.26-2.47-5.38-5.56-12.04-9.26-21.27.89-1.35,1.64-3.01,2.24-4.95.35-1.17.64-2.29.92-3.38.71-2.73,1.37-5.31,2.97-7.91l.12-.19c.46-.73,1.23-1.95.54-2.96-.34-.5-.83-.81-1.42-.88-1.49-.18-3.14,1.18-3.61,1.6-2.5,2.23-3.49,4.41-4.28,6.17-.12.28-.24.54-.32.81-.28-.53-.93-2.26-1.67-4.27-1.66-4.44-3.72-9.96-4.98-11.44-.68-.81-1.66-1.13-2.48-.83-.76.28-1.22,1.01-1.23,1.96,0,1.07.25,1.91,1.2,5-.53-.71-1.1-1.25-1.68-1.47-.49-.19-.98-.16-1.4.1-1.23.75-.83,2.73,0,5.07-.7-.63-1.47-1-2.25-.75-.34.11-.6.35-.77.69-.34.72-.24,1.96.02,3.2-.11-.08-.23-.14-.34-.18-.15-.06-.31-.09-.46-.09-.17,0-.34.04-.5.12-2.24,1.09-.14,6.32.3,7.36,2.13,5.08,5.25,8.82,8.56,10.47.62,8.52,4.39,50.01,19.08,52.2.28.04.55.06.82.06,1.01,0,2.06-.26,3.11-.72h.04c.08,0,.17-.01.25-.05,2.25-1.09,4.47-2.83,6.62-4.96.35-.33.7-.66,1.05-1,.06-.06.11-.14.14-.23,3.53-3.75,6.82-8.42,9.61-12.78.18.03.35.05.51.05.77,0,1.42-.34,2.18-1.06.02-.01.03-.03.05-.04.4-.39.78-.77,1.2-1.2,0,0,.06-.05.06-.05.35-.36.7-.71,1.02-1.05l.13-.15c.04-.05.07-.08.12-.13-.63,7.69-1.55,16.16-2.79,25.97-.02.16.03.32.14.44.11.13.26.2.42.2h74.62c.44,0,.75-.43.61-.85-.67-2.05-2.18-7.5-3.03-12.21-.11-.61-.21-1.2-.3-1.81,4.63,4.52,9.24,8.16,13.28,9.97,1.84.82,4.58,1.65,7.13,1.65,2.18,0,4.22-.6,5.46-2.34.75-1.06,1.14-2.4,1.18-4.12.02-.68,0-1.41-.1-2.25Zm-26.52-60.6c.58.47,1.11.96,1.61,1.45t0,.02c2.66,2.63,4.34,5.52,5.84,8.29,4.1,7.58,7.7,15.54,10.71,23.64.58,1.57,1.14,3.17,1.68,4.74.05.15.11.31.16.46.3.82.5,1.42.36,1.98-.04.2-.12.39-.26.58-.14.2-.29.4-.44.6h0c-1.14,1.48-2.62,2.84-4.27,4.04-2.65-2.16-5.78-4.32-9.77-7.08-1.95-1.35-4.09-2.83-6.46-4.51-.35-.24-.71-.5-1.08-.76-1.15-.82-2.36-1.69-3.63-2.62-.6-.44-1.21-.88-1.83-1.34h0c-.96-.72-1.95-1.46-2.97-2.23-1.37-5.43-1.77-10.74-1.15-15.68.04-.31-.18-.59-.5-.63-.31-.04-.59.18-.63.49-.58,4.66-.28,9.63.86,14.74-.45-.34-.9-.69-1.37-1.05.07-1.61-.13-3.42-.6-5.39-.28-1.19-.61-2.31-.92-3.39-.78-2.71-1.52-5.27-1.47-8.31v-.23c.04-.86.08-2.31-1.03-2.83-.55-.25-1.13-.27-1.67-.03-1.37.6-2.11,2.61-2.3,3.21-1.02,3.19-.75,5.57-.54,7.49.03.3.06.59.13.86-.13-.09-.33-.23-.59-.43-.33-.24-.73-.56-1.2-.94-.55-.43-1.16-.93-1.82-1.46-1.68-1.36-3.53-2.86-5.24-4.16v-.06c.12-1.7.34-3.49.67-5.4.17-1.06.38-2.15.63-3.29.03-.19.07-.38.12-.57.04,0,.08.03.12.05.32.12.68.24,1.09.35,1.14.31,2.59.55,4.1.69.38.03.76.06,1.14.08.51.03,1.03.04,1.54.04,1.8,0,3.49-.18,4.64-.59.98-.35,1.57-.86,1.76-1.52.38-1.32-.29-3.42-1.57-5.7-.06-.11-.12-.23-.19-.34,6.94,1.22,12.3,3.43,16.33,6.74Zm-18.51-8.04c.14.21.29.42.42.63.02.16.11.29.24.37.06.11.13.21.2.32,1.26,2.07,2.06,4,2.06,5.18,0,.19-.03.37-.07.52-.08.28-.45.55-1.05.77-1.39.49-3.59.61-5.77.49-.38-.03-.77-.06-1.14-.1-1.38-.12-2.68-.34-3.7-.59-.41-.11-.78-.23-1.08-.35-.11-.04-.2-.08-.29-.12.14-.53.39-1.48.62-2.69.21-1.15.42-2.54.51-4.02.03-.5.05-1.01.05-1.53v-.03c0-.1,0-.19,0-.28,0-.1,0-.19,0-.29,0-.18,0-.37,0-.56h0c0-.26-.02-.5-.05-.74,0-.03,0-.06,0-.09,0-.2-.03-.4-.06-.6-.04-.58-.12-1.18-.22-1.78.25-.05.52-.13.81-.24.66-.26,1.31-.64,1.96-1.13,2.41,1.6,4.81,4.26,6.6,6.86Zm-.79-17.58c-1.61,4.15-3.72,7.45-5.9,9.35-.33.28-.65.53-.98.74-.44.3-.87.54-1.31.71-.2.08-.39.14-.58.17-.08.01-.16.03-.23.03-.34.03-.66-.02-.95-.15-.07-.03-.15-.07-.22-.12-.08-.05-.15-.1-.22-.17-.7-.57-1.18-1.69-1.27-2.95-.05-.74-.02-1.4.08-1.99.11-.6.27-1.14.48-1.62.36-.84.84-1.54,1.32-2.24.56-.83,1.1-1.6,1.4-2.55.36-1.15.24-2.73-.84-3.66-.8-.68-1.73-.75-2.59-.75h-.34c-1.26.01-1.94-.03-2.36-1.1-.51-1.3-.2-3.28.74-5.33.85.04,1.7-.12,2.49-.46-.03.11-.05.21-.06.32-.21,1.33.09,2.66.84,3.74.76,1.09,1.88,1.79,3.16,1.99.23.04.46.06.69.06.31,0,.61-.03.91-.1.46-.08.91-.24,1.32-.47h0c.65-.34,1.22-.84,1.67-1.45.77,1.04,1.91,1.75,3.2,1.95.44.07.89.07,1.32.02-.39,1.96-.98,4-1.77,6.03Zm-38.7-16.76c-1.71-.26-2.87-1.92-2.59-3.71.11-.71.43-1.36.94-1.86.15-.15.21-.37.14-.58-.06-.2-.24-.35-.45-.38,0,0-.08,0-.1,0-2.21-.35-3.72-2.43-3.38-4.64.17-1.07.74-2.02,1.61-2.66.88-.64,1.95-.9,3.02-.73.57.08,1.11.29,1.6.61.19.12.44.12.62-.01.19-.12.29-.35.25-.57-.08-.45-.09-.9-.02-1.34.16-1.07.74-2.02,1.61-2.66.88-.64,1.95-.9,3.02-.74.78.12,1.5.47,2.09.99.15.14.37.19.56.12.2-.07.34-.24.37-.44.39-2.2,2.42-3.66,4.62-3.32,1.71.26,3.06,1.58,3.37,3.27.06.3.33.5.63.46.3-.03.51-.29.5-.59-.02-.25,0-.53.04-.81.17-1.08.74-2.02,1.62-2.66.88-.64,1.95-.9,3.02-.74,2.16.34,3.68,2.37,3.4,4.53-.03.25.1.49.33.59.23.1.5.04.66-.14.92-1.05,2.3-1.55,3.67-1.33,1.08.16,2.02.74,2.66,1.61.64.88.9,1.95.74,3.03-.05.33-.16.67-.31,1.02-.09.21-.05.45.1.61.16.17.39.23.6.16.7-.24,1.46-.31,2.18-.19.21.03.42.08.63.14,2.18.66,3.56,2.85,3.21,5.1-.06.39-.17.78-.35,1.18-.09.21-.06.44.09.61.15.17.38.23.59.17.53-.16,1.06-.2,1.57-.12,2.01.31,3.38,2.3,3.05,4.43-.27,1.73-1.6,3.09-3.24,3.32-.22.03-.4.18-.46.4-.07.21,0,.45.17.59,1.04.89,1.53,2.23,1.32,3.59-.16,1.04-.71,1.95-1.53,2.57-.08.06-.17.12-.26.18-.38.24-.79.4-1.22.49-.45.1-.9.12-1.36.05-1.25-.2-2.32-1.01-2.86-2.18-.1-.2-.3-.33-.52-.33s-.42.13-.51.33c-.2.42-.46.79-.76,1.1-.39.4-.86.71-1.37.9-.56.21-1.17.29-1.78.19-.97-.15-1.82-.69-2.4-1.52-.58-.84-.81-1.88-.65-2.92.09-.58.31-1.14.65-1.65.15-.24.11-.56-.11-.75-.11-.09-.24-.13-.37-.13-.14,0-.27.05-.38.15-.79.71-1.75,1.13-2.76,1.2-.33.03-.67.02-1-.03-.1-.01-.19-.03-.29-.06-1.09-.23-2.05-.88-2.71-1.84-.73-1.06-1.02-2.35-.82-3.65.02-.08.03-.16.05-.24.05-.24-.06-.49-.28-.62-.22-.12-.49-.08-.67.09-1.05,1.02-2.45,1.48-3.84,1.26-1.88-.29-3.37-1.75-3.78-3.72-.05-.23-.23-.4-.47-.44-.23-.03-.46.08-.58.28-.98,1.75-2.84,2.69-4.72,2.4-.68-.1-1.32-.37-1.9-.78-.14-.11-.33-.13-.49-.07-.02,0-.05.01-.07.02-.19.09-.32.27-.33.48,0,.05,0,.1-.02.15,0,0,0,.03,0,.04-.02.14-.05.28-.08.4-.2.71-.62,1.31-1.15,1.73-.46.35-1,.58-1.57.64-.26.03-.52.02-.78-.02Zm-.7,10.17c.31-3.28,1.09-6.37,2.28-9.16h0c1.39-.39,2.55-1.5,2.99-3.01.52.27,1.07.44,1.65.53,1.96.31,3.89-.45,5.19-1.97.78,1.84,2.39,3.15,4.35,3.45,1.3.2,2.6-.06,3.73-.73,0,1.22.38,2.41,1.08,3.41.78,1.12,1.88,1.91,3.15,2.25-.94,2.18-1.23,4.34-.6,5.94.73,1.85,2.23,1.83,3.43,1.82.82-.01,1.6-.02,2.18.47.69.59.74,1.69.49,2.46-.25.78-.73,1.49-1.25,2.25-.35.51-.72,1.05-1.05,1.66h0c-.21.4-.41.81-.58,1.27-.35.99-.55,2.16-.44,3.64.09,1.38.67,3.16,2.01,4,.24.15.54.3.91.38.24.85.37,1.74.45,2.65,0,.15.02.29.02.43,0,.01,0,.02,0,.02,0,.14.02.27.02.4,0,.25.02.49.02.73v.1c0,2.1-.3,4.13-.6,5.67,0,.08-.03.16-.05.23-.06.23-.11.44-.16.64l-.05.19c-.13.54-.25,1.07-.37,1.59,0,.04-.02.06-.02.07h0c-.34,1.55-.64,3.02-.88,4.43-.11.15-.22.29-.34.43-.91,1.09-1.98,2.02-3.19,2.76-.36-.2-.66-.34-.92-.43-1-.35-2-.13-2.56.55-.36.43-.48.99-.36,1.57-1.16.32-2.37.51-3.6.55-2.85.1-5.56-.55-7.95-1.87-.03-.56-.07-1.13-.11-1.7-.1-1.4-.19-2.84-.29-4.33v-.06c0-.16,0-.32.02-.48,0-.64.08-1.23.18-1.78.23-1.25.62-2.34,1.04-3.53.27-.77.56-1.57.82-2.46h0c.12-.4.23-.82.33-1.26h0c.25-1.06.44-2.25.55-3.65.04.01.08.01.12.01h.27c.29,0,.57-.01.86-.02h0c3.58-.18,7.28-1.43,10.68-3.67.27-.17.34-.53.17-.79-.18-.26-.53-.33-.79-.16-3.27,2.14-6.8,3.34-10.22,3.49-.35,0-.69.02-1.04,0t-.02,0s0,0-.02,0t-.02,0s0,0-.02,0t-.02,0s0,0-.02,0c-.34,0-.68-.02-1.01-.06-.29-.02-.58-.06-.87-.1-.3-.04-.68-.12-1.11-.24-.44-.12-.93-.28-1.46-.51-3.44-1.52-8.16-5.84-7.02-18.07Zm27.59,37.89c-.15,1.05-.26,2.06-.35,3.04-.64-.49-1.25-.91-1.8-1.27.77-.52,1.49-1.11,2.15-1.77Zm-30.59-6.62c.02-.05.03-.1.05-.15.14-.45.34-.94.59-1.45.05-.11.11-.23.17-.34.65-1.28,1.53-2.64,2.39-3.79,1.9-2.55,4.24-4.66,6.86-6.19.73.27,1.52.47,2.36.6.32.05.64.08.97.11-.12,1.58-.36,2.88-.66,4.02v.02c-.12.45-.24.87-.37,1.27,0,0,0,.01,0,.01-.19.61-.39,1.18-.59,1.73-.19.54-.38,1.07-.55,1.61-.34,1.07-.62,2.19-.71,3.51-.04.03-.07.05-.11.08-2.48,1.65-6.74,2.3-9.76,1.27-.4-.13-.63-.35-.74-.69-.13-.42-.07-.98.11-1.62Zm-25.02,63.48s-.07.06-.1.1c-1.97,1.85-4.06,3.62-6.08,4.64-.35.18-.7.33-1.04.46-1,.38-1.98.54-2.9.4-11.65-1.73-16.82-32.75-18.09-50.59-.03-.42-.06-.83-.08-1.23-.39-.16-.78-.35-1.17-.58h0c-2.83-1.66-5.52-5.05-7.42-9.59-.94-2.19-1.75-5.46-.85-5.9h.05c.56.22,1.41,1.75,1.81,2.73.12.28.45.42.73.31.29-.12.44-.44.33-.73-.72-1.91-1.54-5-1.11-5.88.04-.09.07-.1.09-.11,1.01-.32,2.77,2.44,3.64,4.41.12.28.44.41.72.31.28-.11.43-.42.34-.71-.25-.77-.58-1.63-.92-2.53-.78-2.03-2.07-5.43-1.28-5.91.09-.05.2-.09.4-.01,1.42.55,3.51,5.06,4.18,7.34.09.3.4.47.71.38.3-.08.47-.4.38-.7-.91-3.11-1.58-5.28-2.07-6.87-.93-3.02-1.17-3.82-1.17-4.73,0-.47.18-.8.48-.91.37-.13.85.07,1.23.51,1.13,1.32,3.32,7.21,4.77,11.1.79,2.12,1.42,3.8,1.73,4.4.19.37.59.61,1,.59.43-.01.81-.26.99-.64.13-.27.25-.54.38-.82.78-1.75,1.67-3.73,3.99-5.8.81-.72,1.97-1.4,2.72-1.31.26.03.46.16.62.39.27.4-.25,1.22-.56,1.71l-.13.21c-1.68,2.74-2.37,5.4-3.1,8.22-.27,1.07-.56,2.19-.91,3.33-.47,1.52-1.03,2.86-1.68,3.98-.24.41-.48.8-.75,1.15.03.09.07.19.11.29.13.32.26.64.38.95,3.59,8.91,6.6,15.4,9.02,20.65,1.01,2.19,1.91,4.14,2.71,5.94.19.43.38.85.55,1.27,1.4,3.25,2.42,6.04,3.09,8.94.07.31.38.5.68.43s.49-.38.42-.68c-.73-3.2-1.88-6.24-3.46-9.86.86-1.38,1.76-2.82,2.71-4.31.03.05.06.09.09.14l.04.07c.09.13.19.25.27.36.12.18.26.36.4.54.1.15.22.3.34.45.1.14.21.28.31.39.15.19.29.37.43.54.26.3.51.6.77.88.29.33.59.65.88.96.3.31.6.62.91.91.31.3.62.59.91.85.1.11.2.19.29.27.22.2.45.4.67.59,2.47,2.09,5.15,3.81,7.76,4.96.02.01.05.02.07.03-2.98,4.63-6.49,9.57-10.23,13.32Zm15.04,8.88c1.28-10.18,2.21-18.93,2.84-26.85.05-.65.1-1.28.15-1.91.12-1.52.22-3,.31-4.45,0,0,0-.02,0-.02.04-.73.08-1.46.13-2.17v-.02c0-.14,0-.28.02-.42.49-8.67.54-15.92.17-21.55-.02-.31-.29-.55-.61-.52-.31.02-.55.29-.53.6.38,5.58.32,12.78-.17,21.41-.04.78-.09,1.57-.14,2.36t0,.02c-.04.79-.09,1.58-.15,2.39-.09,1.25-.18,2.52-.28,3.81-.05.05-.1.11-.15.16-.31.36-.64.7-.94,1.03l-.14.15c-.33.35-.67.69-1.01,1.04l.37.43-.42-.38s-.04.04-.04.05c-.36.36-.73.72-1.1,1.08-.02.02-.04.03-.05.05-.47.45-.83.7-1.24.76-.35.06-.72-.02-1.21-.22-.07-.02-.15-.05-.23-.09-2.51-1.12-5.1-2.77-7.49-4.8-.21-.18-.42-.37-.64-.57-.08-.07-.17-.14-.27-.24-.3-.27-.6-.55-.9-.84-.3-.29-.59-.58-.87-.89-.29-.29-.58-.6-.86-.93-.25-.27-.5-.55-.74-.85-.15-.17-.28-.34-.43-.53-.1-.12-.2-.24-.3-.38-.11-.13-.22-.28-.32-.42-.13-.17-.26-.34-.4-.54-.09-.11-.17-.22-.25-.34l-.04-.06c-.12-.18-.25-.35-.36-.53-.09-.13-.18-.26-.26-.39,0-.01,0-.02-.02-.03-.16-.26-.23-.57-.19-.96,0-.13.04-.27.08-.42,0-.01,0-.02,0-.04.19-.69.6-1.43.99-2.07l.03-.06.27-.45c.19-.32.37-.61.51-.88l.05-.09c.31-.6.63-1.21.97-1.82,0,0,0-.02,0-.03,3.74-6.9,10.39-17.7,18.74-24.97h0c2.28-1.79,3.97-3.04,5.51-4.08.03-.02.06-.04.09-.06.07-.04.13-.08.19-.11-.05.45-.03.87.09,1.24.22.69.72,1.18,1.46,1.42,2.73.9,5.89.63,8.36-.25.68-.23,1.3-.51,1.84-.81.09,1.43.19,2.81.28,4.16.02.3.04.59.06.88.03.47.06.94.09,1.4,1.03,15.34,1.45,27.82-5.33,63.6h-15.55Zm16.7,0c6.66-35.18,6.35-47.88,5.36-62.94,2.24,1.11,4.71,1.7,7.3,1.7.2,0,.4,0,.6-.01,1.39-.05,2.75-.27,4.04-.65.52.78,1.27,1.46,3.39,3.39-.81-.33-1.58-.51-2.19-.41-.52.09-.92.37-1.16.81-.67,1.26.68,2.76,2.57,4.37-.92-.2-1.77-.12-2.32.5-.23.26-.33.6-.3.98.06.8.79,1.81,1.63,2.74-.13,0-.26,0-.38.02-.35.06-.63.24-.81.51-1.37,2.08,3.1,5.52,4,6.19.73.54,1.46,1.04,2.19,1.48.38,3.7.94,7.54,1.66,11.53,1.67,9.31,4.1,19.06,7.4,29.79h-32.98Zm56.64,0h-22.47c-3.35-10.82-5.79-20.63-7.48-29.99-.66-3.67-1.18-7.2-1.55-10.62,2.8,1.53,5.55,2.38,7.99,2.48.18.02.35.02.53.02.21,0,.41-.01.61-.02.05,0,.1,0,.15-.01.11.17.24.35.36.52,5.02,7.26,11.7,15.74,18.43,22.55.15,1.11.32,2.23.52,3.35.69,3.85,1.67,7.79,2.91,11.72Zm23.63-6.92c-.16.71-.41,1.31-.77,1.81-2.28,3.19-8.33,1.6-11.21.31-4.23-1.89-9.11-5.87-14-10.78h0c-.44-.44-.87-.88-1.3-1.33-6.31-6.55-12.54-14.5-17.28-21.36,0,0-.02-.03-.03-.04-.25-.35-.48-.69-.7-1.02h0c-.27.05-.53.07-.81.08-.16.02-.32.02-.49.02-.22,0-.44,0-.66-.02-2.43-.14-5.2-1.08-8.03-2.74-.4-.24-.81-.5-1.22-.78-.45-.29-.9-.61-1.35-.94-1.92-1.42-4.29-3.82-3.73-4.65l.05-.02s.07-.01.1-.01c.64,0,2.04.83,2.84,1.43.25.18.6.14.79-.11.19-.24.15-.59-.09-.79-1.59-1.28-3.87-3.52-3.95-4.5,0-.09,0-.12.02-.13.64-.72,3.06.41,4.81,1.55.2.13.39.26.57.39s.4.14.58.06c.08-.04.14-.09.2-.16.19-.24.16-.58-.07-.78-.06-.05-.11-.1-.17-.15-.35-.31-.73-.62-1.14-.95-.25-.2-.51-.41-.77-.62-1.7-1.35-4.54-3.62-4.11-4.43.06-.09.13-.18.35-.22.91-.15,2.79.84,4.51,2.01.39.26.77.53,1.13.8.66.5,1.25.98,1.69,1.39.23.21.59.2.8-.03.21-.23.2-.58-.03-.8-.91-.85-1.72-1.6-2.44-2.27-.39-.36-.76-.7-1.1-1.02-.67-.6-1.24-1.13-1.73-1.58-1.83-1.67-2.61-2.37-3.08-2.98-.14-.16-.24-.32-.34-.49-.1-.18-.17-.36-.18-.52-.02-.19.03-.36.14-.5.25-.31.77-.39,1.31-.2.03.01.06.02.09.04.31.11.72.34,1.2.64.77.48,1.73,1.17,2.77,1.94.35.27.71.55,1.08.83,1.59,1.23,3.26,2.58,4.62,3.69,1.03.83,1.94,1.56,2.62,2.09.49.39.86.67,1.1.82.03.02.06.03.09.05.34.17.74.15,1.07-.05.37-.23.57-.63.53-1.06-.03-.29-.06-.59-.09-.9-.21-1.9-.45-4.06.49-7.02.33-1.03.98-2.21,1.68-2.51.24-.11.47-.1.73.02.43.21.4,1.18.39,1.76v.25c-.07,3.21.69,5.85,1.5,8.64.31,1.07.63,2.18.91,3.34.37,1.55.56,2.98.57,4.28,0,.48,0,.94-.05,1.38.08.05.16.12.24.18.27.21.54.42.8.62.66.5,1.3.99,1.93,1.47.5.38.99.75,1.48,1.11,1.17.88,2.3,1.72,3.39,2.51.62.46,1.23.9,1.83,1.33h0c.9.66,1.77,1.28,2.61,1.87.37.26.73.52,1.08.77,2.16,1.53,4.13,2.88,5.93,4.13,3.84,2.65,6.87,4.75,9.44,6.82.31.25.61.5.91.74,1.21,1.02,2.31,2.04,3.35,3.14.21.23.57.24.8.02.23-.21.24-.57.02-.8-1.01-1.06-2.07-2.06-3.22-3.03,1.48-1.09,2.82-2.3,3.9-3.61,2.6,5.95,4.88,12.4,5.21,17.75v.05c.08.77.11,1.46.09,2.09,0,.62-.08,1.18-.19,1.68Z"/>
          <path class="cls-17" d="m144.22,74.41c-.58,1.8-5.08.93-5.28-.78-.27-2.43,6.16-1.94,5.28.78Z"/>
          <path class="cls-17" d="m155.74,76.54c-.73,1.56-5.27.93-5.24-.96.05-2.86,6.29-1.24,5.24.96Z"/>
          <path class="cls-17" d="m146.64,86.43c-.07.25-.3.41-.55.41-.05,0-.1-.01-.15-.02-1.77-.5-2.75-1.12-3.1-1.95-.14-.35-.23-.9.14-1.57.57-1.02,2.62-3.8,2.71-3.92.18-.25.54-.3.79-.12.25.19.31.55.12.8-.02.03-2.09,2.83-2.63,3.79-.16.3-.12.47-.08.58.11.27.56.79,2.36,1.3.3.08.47.4.39.7Z"/>
          <path class="cls-17" d="m153.56,81.27c-.09.48-.34.89-.7,1.17-.27.22-.59.34-.91.34-.09,0-.18-.01-.27-.03-.41-.08-.76-.34-.97-.74-.22-.4-.29-.88-.19-1.36.1-.47.34-.89.7-1.17.35-.28.77-.39,1.18-.31.41.08.76.35.98.75.21.39.28.87.18,1.35Z"/>
          <path class="cls-17" d="m142.04,79.3c-.09.48-.34.89-.69,1.17-.28.23-.6.34-.92.34-.09,0-.18-.01-.27-.03-.84-.17-1.36-1.11-1.16-2.1.1-.47.35-.89.7-1.17.36-.28.78-.39,1.19-.31.41.08.75.35.97.75.22.39.28.87.18,1.35Z"/>
          <path class="cls-17" d="m148.47,89.62c-.19.5-.41.96-.67,1.38-.1.17-.2.33-.3.49-.12.16-.24.31-.36.45-.96,1.14-2.15,1.73-3.28,1.52-.51-.09-.98-.35-1.38-.73h0c-.19-.19-.37-.4-.53-.64-.13-.19-.25-.41-.36-.64-.42-.87-.66-1.97-.67-3.18,0-.34.26-.62.55-.56.74.35,1.8.77,3.13,1.02,1.46.28,2.69.25,3.54.17.29.06.45.41.33.72Z"/>
        </g>
        <path class="cls-14" d="m147.5,91.49c-.12.16-.24.31-.36.45-.96,1.14-2.15,1.73-3.28,1.52-.51-.09-.98-.35-1.38-.73h0c-.19-.19-.37-.4-.53-.64.31-1.2,1.84-1.93,3.51-1.63.83.15,1.55.53,2.04,1.03Z"/>
      </g>
      <g>
        <g>
          <path class="cls-20" d="m228.25,145.29l-.4,5.35-1.21,16.32-1.05,14.19c-.05.64-.59,1.14-1.23,1.14h-14.41c-.65,0-1.18-.5-1.23-1.14l-.22-2.91-.84-11.28-1.21-16.32-.4-5.35c-.05-.71.51-1.32,1.23-1.32h19.73c.72,0,1.29.61,1.23,1.32Z"/>
          <path class="cls-9" d="m228.25,145.29l-.4,5.35-1.21,16.32-1.05,14.19c-.05.64-.59,1.14-1.23,1.14h-14.41c-.65,0-1.18-.5-1.23-1.14h0c-.12-1.57,1.13-2.91,2.7-2.91h7.94c1.42,0,2.61-1.1,2.7-2.53l1.97-28.96c.11-1.57,1.41-2.78,2.98-2.78h0c.72,0,1.29.61,1.23,1.32Z"/>
          <polygon class="cls-14" points="227.45 156.14 226.65 166.95 226.24 172.46 208.08 172.46 207.67 166.95 206.87 156.14 227.45 156.14"/>
          <g>
            <circle class="cls-15" cx="217.16" cy="164.3" r="5.01"/>
            <path class="cls-15" d="m227.91,139.63c-.03-.24-.24-.43-.49-.43h-20.52c-.25,0-.46.18-.49.43l-.72,5.08c-.04.3.19.57.49.57h21.98c.3,0,.53-.27.49-.57l-.73-5.08Z"/>
          </g>
          <path class="cls-18" d="m228.15,145.27h-14.42c1.87-1.65,3.34-3.77,4.18-6.07h9.52c.25,0,.46.18.49.43l.73,5.08c.04.3-.19.57-.49.57Z"/>
          <path class="cls-12" d="m230.36,145.26c0,.29-.12.56-.31.75-.19.19-.46.31-.75.31h-24.28c-.59,0-1.06-.48-1.06-1.06,0-.29.12-.56.31-.75.19-.19.46-.31.75-.31h24.28c.59,0,1.06.48,1.06,1.06Z"/>
          <path class="cls-6" d="m208.43,149.11c.97-.24,1.95-.36,2.92-.45.97-.09,1.95-.12,2.92-.13.97,0,1.95.03,2.92.12.97.08,1.95.2,2.92.43.31.07.49.38.42.69-.05.22-.22.37-.42.42-.97.23-1.95.35-2.92.43-.97.09-1.95.11-2.92.12-.97-.01-1.95-.04-2.92-.13-.97-.09-1.95-.21-2.92-.45-.29-.07-.46-.36-.39-.65.05-.2.21-.35.39-.39Z"/>
          <g class="cls-19">
            <polygon class="cls-17" points="222.3 172.46 226.24 172.46 226.65 166.95 227.45 156.14 223.41 156.14 222.3 172.46"/>
            <path class="cls-17" d="m229.3,144.19h-9.46c-.25.74-.57,1.46-.97,2.13h10.43c.29,0,.56-.12.75-.31.19-.19.31-.46.31-.75,0-.59-.48-1.06-1.06-1.06Z"/>
          </g>
        </g>
        <g>
          <path class="cls-17" d="m217.16,169.88c3.07,0,5.57-2.5,5.57-5.57s-2.5-5.58-5.57-5.58-5.58,2.5-5.58,5.58,2.5,5.57,5.58,5.57Zm0-10.01c2.45,0,4.44,1.99,4.44,4.44s-1.99,4.44-4.44,4.44-4.44-1.99-4.44-4.44,1.99-4.44,4.44-4.44Z"/>
          <path class="cls-17" d="m229.3,143.63h-.24l-.59-4.08c-.07-.52-.52-.91-1.05-.91h-20.52c-.53,0-.98.39-1.06.91l-.58,4.08h-.24c-.44,0-.85.17-1.15.48-.31.31-.48.72-.48,1.15,0,.9.73,1.63,1.63,1.63h.59l.69,9.26v.04l1.21,16.32.64,8.68c.07.94.86,1.67,1.8,1.67h14.41c.94,0,1.73-.73,1.8-1.67l.64-8.68,1.21-16.32v-.04l.69-9.26h.6c.43,0,.84-.17,1.16-.48.3-.31.47-.72.47-1.15,0-.9-.73-1.63-1.63-1.63Zm-22.34-3.85h20.4l.57,3.85h-21.52l.55-3.85Zm18.07,41.33c-.03.34-.32.61-.67.61h-14.41c-.35,0-.64-.26-.66-.61l-.6-8.07h16.94l-.6,8.07Zm.68-9.21h-17.1l-1.13-15.18h19.36l-1.13,15.18Zm1.21-16.32h-19.52l-.65-8.69h20.82l-.65,8.69Zm2.73-9.97c-.09.09-.22.14-.35.14h-24.28c-.27,0-.5-.22-.5-.49,0-.13.05-.26.15-.35.06-.07.18-.14.35-.14h24.28c.27,0,.49.22.49.49,0,.17-.08.29-.14.35Z"/>
        </g>
      </g>
      <g>
        <g>
          <g>
            <path class="cls-12" d="m127.32,82.74l-1.36,73.21c-.02.88-.73,1.58-1.61,1.58H11.29c-.88,0-1.6-.7-1.61-1.58l-.13-7.24-1.22-65.98c-.02-.9.71-1.64,1.61-1.64h115.77c.9,0,1.62.74,1.61,1.64Z"/>
            <path class="cls-15" d="m121.48,89.02l-1.13,60.69c-.02,1.17-.98,2.11-2.15,2.11H17.44c-1.17,0-2.13-.94-2.15-2.11l-.02-1.09-1.1-59.6c-.02-1.2.95-2.19,2.15-2.19h103.01c1.2,0,2.18.99,2.15,2.19Z"/>
            <path class="cls-18" d="m127.32,82.74l-1.36,73.21c-.02.88-.73,1.58-1.61,1.58H11.29c-.88,0-1.6-.7-1.61-1.58h0c-.07-3.97,3.13-7.24,7.11-7.24h91.53c3.99,0,7.25-3.18,7.36-7.16l1.38-52.02c.12-4.69,3.96-8.43,8.65-8.43h0c.9,0,1.62.74,1.61,1.64Z"/>
            <path class="cls-5" d="m22.34,130.16c-.64-6.33-.93-12.67-1.14-19.01-.18-6.34-.27-12.69-.01-19.04.01-.31.27-.54.58-.53.28.01.5.23.53.5.63,6.33.91,12.67,1.11,19.01.16,6.34.24,12.69-.02,19.04-.01.29-.26.51-.54.5-.26-.01-.47-.21-.5-.47Z"/>
            <g>
              <path class="cls-14" d="m84.69,105.61c-1.22-1.42-4.15-2.31-7.13-1.16-1.92.74-3.11,2.89-1.68,4.54,3.48,4.01,12.07.43,8.8-3.38Z"/>
              <path class="cls-14" d="m58.08,104.45c-2.97-1.15-5.91-.26-7.13,1.16-3.27,3.81,5.32,7.39,8.8,3.38,1.44-1.65.24-3.8-1.68-4.54Z"/>
            </g>
          </g>
          <g>
            <path class="cls-17" d="m127.26,81.19c-.41-.42-.96-.65-1.55-.65H9.94c-.59,0-1.15.23-1.56.65-.41.42-.63.97-.62,1.56l1.36,73.21c.02,1.18,1,2.14,2.18,2.14h113.05c1.2,0,2.16-.94,2.18-2.14l1.36-73.21c.01-.59-.21-1.14-.62-1.56Zm-.51,1.54l-1.36,73.21c-.01.58-.47,1.03-1.05,1.03H11.29c-.57,0-1.03-.46-1.05-1.03l-1.36-73.21c0-.28.1-.54.3-.74.2-.2.46-.31.75-.31h115.77c.28,0,.55.11.74.31.2.2.3.47.3.74h0Z"/>
            <path class="cls-17" d="m119.33,86.26H16.32c-.74,0-1.43.29-1.94.82-.52.53-.79,1.22-.78,1.96l1.1,59.6.02,1.09c.03,1.47,1.25,2.67,2.72,2.67h100.76c1.47,0,2.69-1.2,2.72-2.67l1.13-60.69c.01-.74-.26-1.43-.78-1.96-.52-.53-1.21-.82-1.94-.82Zm.46,63.44c-.02.86-.73,1.56-1.59,1.56H17.44c-.86,0-1.57-.7-1.59-1.56l-1.12-60.69c0-.43.15-.83.45-1.14.3-.31.7-.47,1.13-.47h103.01c.43,0,.83.17,1.13.47.3.31.46.71.45,1.14l-1.13,60.69Z"/>
            <path class="cls-17" d="m56.77,96.22c-1.67.02-2.93,1.31-2.96,2.97-.02,1.54,1.37,2.96,3.03,2.93,1.64-.03,2.93-1.28,2.93-3.01,0-1.65-1.3-2.9-3-2.88Z"/>
            <path class="cls-17" d="m78.89,96.22c-2,.04-2.94,1.64-3,2.97-.06,1.47,1.41,2.99,2.9,2.95,4.15-.11,3.9-6,.09-5.92Z"/>
            <path class="cls-17" d="m67.82,98.84c-2.83-.02-5.72,1.13-5.72,3.35,0,.84.24,1.61.63,2.28.99,1.72,3.03,2.83,5.09,2.87,2.06-.04,4.09-1.15,5.08-2.86.39-.68.62-1.45.63-2.29,0-2.21-2.88-3.37-5.71-3.35Z"/>
          </g>
          <path class="cls-21" d="m72.91,104.48c-.99,1.72-3.03,2.83-5.08,2.86-2.06-.04-4.1-1.15-5.09-2.87,1.31-1.26,3.11-2.05,5.09-2.05s3.77.79,5.08,2.06Z"/>
        </g>
        <g>
          <g>
            <path class="cls-12" d="m88.9,118.59l-.26,23.57c-.01.87-.72,1.57-1.59,1.57h-38.47c-.87,0-1.58-.7-1.59-1.57l-.06-5.88-.19-17.69c0-.88.71-1.61,1.59-1.61h38.99c.88,0,1.6.73,1.59,1.61Z"/>
            <path class="cls-18" d="m88.9,118.59l-.26,23.57c-.01.87-.72,1.57-1.59,1.57h-38.47c-.87,0-1.58-.7-1.59-1.57h0c-.04-3.24,2.58-5.88,5.82-5.88h21.64c2.89,0,5.26-2.3,5.34-5.19l.2-7c.12-3.96,3.36-7.11,7.32-7.11h0c.88,0,1.6.73,1.59,1.61Z"/>
            <path class="cls-15" d="m75.5,176.62c.02,1.1-.86,2-1.96,2h-11.44c-1.1,0-1.99-.9-1.96-2l.11-5.12.89-40.69c.02-1.06.89-1.92,1.96-1.92h9.43c1.06,0,1.94.85,1.96,1.92l1,45.81Z"/>
            <path class="cls-18" d="m75.5,176.62c.02,1.1-.86,2-1.96,2h-11.44c-1.1,0-1.99-.9-1.96-2l.11-5.12c7.41-10.47,9.88-25.76,9.64-38.33-.03-1.68-.21-3.07-.58-4.28h3.22c1.06,0,1.94.85,1.96,1.92l1,45.81Z"/>
            <path class="cls-12" d="m91.9,180.6c0,.46-.19.88-.49,1.19s-.73.49-1.19.49h-44.8c-.93,0-1.68-.76-1.68-1.68,0-1.5.61-2.86,1.6-3.85.98-.99,2.35-1.6,3.85-1.6h37.25c3.01,0,5.45,2.44,5.45,5.45Z"/>
            <path class="cls-18" d="m91.9,180.6c0,.46-.19.88-.49,1.19s-.73.49-1.19.49h-28.37c2.96-2.06,5.76-4.37,8.04-7.13h16.56c3.01,0,5.45,2.44,5.45,5.45Z"/>
          </g>
          <path class="cls-17" d="m86.44,174.59h-10.41l-.67-30.28h11.69c1.18,0,2.15-.96,2.16-2.13l.26-23.58c0-.58-.22-1.13-.63-1.54s-.95-.64-1.53-.64h-38.99c-.57,0-1.12.23-1.52.64-.41.41-.64.96-.63,1.54l.25,23.58c.02,1.17.99,2.13,2.16,2.13h11.7l-.67,30.28h-10.42c-1.61,0-3.12.62-4.25,1.76-1.14,1.14-1.77,2.65-1.77,4.25,0,1.24,1.01,2.25,2.25,2.25h44.8c.6,0,1.16-.24,1.59-.66.41-.42.65-1,.65-1.59,0-3.32-2.7-6.01-6.02-6.01Zm-37.86-31.41c-.56,0-1.02-.46-1.02-1.02l-.26-23.57c0-.28.11-.54.3-.73.2-.2.45-.31.72-.31h38.99c.27,0,.53.11.72.31.2.19.31.45.3.73l-.25,23.57c0,.56-.47,1.02-1.03,1.02h-11.71l-.27-12.38c-.03-1.36-1.17-2.47-2.53-2.47h-9.44c-1.36,0-2.5,1.11-2.53,2.47l-.27,12.38h-11.72Zm12.83,1.13l.03-1.13.27-12.36c0-.75.64-1.36,1.39-1.36h9.44c.75,0,1.38.61,1.39,1.36l.27,12.36.02,1.13.67,30.28h-14.14l.66-30.28Zm29.59,37.08c-.21.21-.49.32-.78.32h-44.8c-.61,0-1.11-.49-1.11-1.11,0-1.3.51-2.53,1.43-3.45.92-.92,2.14-1.43,3.45-1.43h37.25c2.7,0,4.89,2.19,4.89,4.88,0,.3-.12.58-.33.79Z"/>
        </g>
      </g>
      <g>
        <g>
          <g>
            <path class="cls-7" d="m138.72,174.1c0,1.58-1.28,2.87-2.87,2.87s-2.87-1.28-2.87-2.87,1.28-2.87,2.87-2.87,2.87,1.28,2.87,2.87Z"/>
            <path class="cls-7" d="m157.03,182.28h-23.2c-1.35,0-2.79-1.19-2.79-2.63,0-.06,0-.12,0-.18.05-.66.32-1.33.78-1.97,2.8-3.92,12.52-7.24,19.75-5.97.52.09,1.03.2,1.52.34,2.7.77,4.91,2.29,6.04,4.82.92,2.05.95,5.6-2.11,5.6Z"/>
          </g>
          <path class="cls-15" d="m151.57,171.51c-.5.64-1.06,1.22-1.66,1.76-2.9,2.59-6.67,4.04-10.5,4.69-2.54.44-5.23.52-7.59-.48,2.8-3.92,12.52-7.24,19.75-5.97Z"/>
          <path class="cls-13" d="m157.03,182.28h-23.2c-1.35,0-2.79-1.19-2.79-2.63,0-.06,0-.12,0-.18,7.87.09,12.03.45,16.37-1.73,2.62-1.31,4.66-3.37,5.69-5.87,2.7.77,4.91,2.29,6.04,4.82.92,2.05.95,5.6-2.11,5.6Z"/>
        </g>
        <path class="cls-17" d="m159.65,176.45c-1.13-2.52-3.29-4.25-6.41-5.14-.54-.15-1.05-.27-1.57-.35-3.95-.69-8.8-.06-12.87,1.39-.6-1.01-1.69-1.68-2.95-1.68-1.89,0-3.44,1.54-3.44,3.44,0,.55.13,1.07.36,1.53-.19.16-.37.33-.54.5-.33.33-.63.67-.88,1.02,0,.02-.02.04-.03.06-.52.73-.8,1.47-.85,2.19,0,.08,0,.16,0,.24,0,1.83,1.78,3.2,3.36,3.2h23.21c1.46,0,2.23-.72,2.62-1.32.93-1.43.65-3.64,0-5.08Zm-23.8-4.64c.77,0,1.45.38,1.87.95-1.51.61-2.88,1.34-4.02,2.15-.1-.25-.15-.52-.15-.8,0-1.27,1.03-2.3,2.3-2.3Zm-2.52,4.86s.08-.07.12-.1h0c.07-.07.14-.13.21-.18.22-.18.45-.36.69-.53.53-.37,1.11-.73,1.75-1.07.15-.08.31-.16.46-.24.32-.16.66-.32,1-.47.17-.07.34-.15.52-.22.02,0,.04-.02.05-.02.34-.14.68-.27,1.04-.4,0,0,.03-.01.05-.01.16-.06.33-.12.49-.18,1.13-.38,2.32-.7,3.54-.94.81-.16,1.63-.28,2.46-.37.41-.04.83-.07,1.24-.1.41-.02.82-.03,1.23-.03.28,0,.56.01.84.02.16,0,.32.01.48.02.25,0,.49.03.74.06.07,0,.14,0,.22.03-.3.32-.6.62-.93.92-2.55,2.27-6.08,3.85-10.22,4.55-2.62.45-4.77.39-6.55-.18.17-.19.36-.38.57-.56Zm25.37,4.25c-.35.53-.9.79-1.67.79h-23.21c-1,0-2.22-.92-2.22-2.06v-.15c.03-.42.18-.87.45-1.31,1.2.44,2.54.66,4.06.66,1.04,0,2.17-.11,3.39-.32,4.35-.74,8.08-2.41,10.78-4.83.55-.49,1.06-1.01,1.51-1.56.38.06.76.15,1.14.26,2.78.79,4.69,2.31,5.68,4.51.53,1.19.74,2.99.09,4.01Z"/>
      </g>
      <g>
        <g>
          <path class="cls-11" d="m3.32,187.63c-.73,0-1.42-.28-1.94-.8-.52-.53-.81-1.22-.81-1.95,0-1.51,1.23-2.74,2.75-2.74h231.36c.72,0,1.43.29,1.94.8.52.51.8,1.2.8,1.94,0,1.52-1.23,2.75-2.74,2.75H3.32Z"/>
          <path class="cls-3" d="m236.85,184.88c0,1.2-.97,2.18-2.18,2.18h-89.82c1.02-1.41,1.99-2.86,2.9-4.36h86.92c.6,0,1.15.25,1.54.64.4.39.64.93.64,1.54Z"/>
        </g>
        <path class="cls-17" d="m234.67,182.71c.6,0,1.15.25,1.54.64.4.39.64.93.64,1.54,0,1.2-.97,2.18-2.18,2.18H3.32c-.61,0-1.15-.25-1.55-.64-.39-.4-.64-.94-.64-1.55,0-1.2.98-2.18,2.18-2.18h231.36m0-1.14H3.32c-1.83,0-3.32,1.49-3.32,3.31,0,.88.34,1.71.96,2.34.64.63,1.48.98,2.35.98h231.36c1.83,0,3.31-1.49,3.31-3.32,0-.9-.35-1.73-.98-2.35-.61-.61-1.46-.96-2.34-.96h0Z"/>
      </g>
      <g>
        <g>
          <path class="cls-14" d="m238.84,57.62c0,13.04-10.57,23.61-23.61,23.61-5.59,0-10.72-1.94-14.76-5.18-5.4-4.33-8.86-10.98-8.86-18.43,0-13.04,10.57-23.61,23.62-23.61,3.92,0,7.63.96,10.89,2.66,7.56,3.94,12.72,11.84,12.72,20.96Z"/>
          <path class="cls-18" d="m238.84,57.62c0,13.04-10.57,23.61-23.61,23.61-5.59,0-10.72-1.94-14.76-5.18,1.61-.2,3.13-.44,4.57-.74,18.52-3.77,22.94-15.41,23.14-25.18.07-3.34-.35-6.47-.88-8.98-.4-1.9-.85-3.46-1.18-4.5,7.56,3.94,12.72,11.84,12.72,20.96Z"/>
          <path class="cls-4" d="m235.63,57.62c0,11.27-9.14,20.41-20.41,20.41-3.71,0-7.18-.99-10.18-2.71-6.11-3.53-10.22-10.14-10.22-17.7,0-11.27,9.14-20.41,20.41-20.41,4.52,0,8.7,1.47,12.08,3.95,5.06,3.71,8.34,9.71,8.34,16.46Z"/>
          <path class="cls-3" d="m235.63,57.62c0,11.27-9.14,20.41-20.41,20.41-3.71,0-7.18-.99-10.18-2.71,18.53-3.77,22.94-15.41,23.14-25.18.06-3.34-.36-6.47-.88-8.98,5.06,3.71,8.34,9.71,8.34,16.46Z"/>
        </g>
        <g>
          <path class="cls-17" d="m226.38,36.16c-3.41-1.78-7.27-2.72-11.15-2.72-13.34,0-24.18,10.85-24.18,24.18,0,7.38,3.31,14.26,9.07,18.88,4.32,3.47,9.55,5.3,15.11,5.3,13.33,0,24.18-10.85,24.18-24.18,0-9.05-4.99-17.27-13.03-21.46Zm-11.15,44.5c-5.3,0-10.28-1.75-14.4-5.05-5.5-4.4-8.65-10.96-8.65-17.99,0-12.71,10.34-23.04,23.05-23.04,3.7,0,7.38.9,10.63,2.59,7.66,3.99,12.42,11.83,12.42,20.45,0,12.71-10.34,23.04-23.04,23.04Z"/>
          <path class="cls-17" d="m227.63,40.7c-3.61-2.66-7.9-4.06-12.41-4.06-11.57,0-20.98,9.41-20.98,20.98,0,7.47,4.03,14.44,10.51,18.19,3.17,1.82,6.79,2.79,10.47,2.79,11.57,0,20.98-9.41,20.98-20.98,0-6.65-3.2-12.98-8.57-16.92Zm-12.41,36.76c-3.47,0-6.9-.91-9.9-2.64-6.13-3.54-9.94-10.14-9.94-17.21,0-10.94,8.9-19.85,19.84-19.85,4.27,0,8.32,1.33,11.74,3.84,5.08,3.73,8.11,9.71,8.11,16,0,10.94-8.9,19.85-19.85,19.85Z"/>
          <path class="cls-17" d="m215.27,43.69c.31,0,.57-.25.57-.57v-2.69c0-.31-.25-.57-.57-.57s-.57.25-.57.57v2.69c0,.31.25.57.57.57Z"/>
          <path class="cls-17" d="m224.11,42.27c-.27-.16-.62-.06-.78.21l-1.34,2.33c-.16.27-.06.62.21.78.09.05.19.08.28.08.2,0,.39-.1.49-.28l1.34-2.33c.16-.27.06-.62-.21-.78Z"/>
          <path class="cls-17" d="m227.74,50.96c.1,0,.19-.02.28-.08l2.33-1.34c.27-.16.37-.5.21-.78-.16-.27-.5-.36-.78-.21l-2.33,1.34c-.27.16-.37.5-.21.78.11.18.3.28.49.28Z"/>
          <path class="cls-17" d="m232.33,57.06h-2.69s0,0,0,0c-.31,0-.57.25-.57.57,0,.31.25.57.57.57h2.69s0,0,0,0c.31,0,.57-.25.57-.57,0-.31-.25-.57-.57-.57Z"/>
          <path class="cls-17" d="m230.28,65.69l-2.32-1.35c-.27-.16-.62-.07-.78.21-.16.27-.07.62.21.78l2.32,1.35c.09.05.19.08.28.08.2,0,.39-.1.49-.28.16-.27.07-.62-.21-.78Z"/>
          <path class="cls-17" d="m222.84,69.8c-.16-.27-.5-.37-.77-.21-.27.16-.37.5-.21.77l1.34,2.33c.1.18.3.29.49.29.1,0,.19-.02.28-.08.27-.16.37-.5.21-.77l-1.34-2.33Z"/>
          <path class="cls-17" d="m215.12,71.4h0c-.31,0-.57.25-.57.57v2.69c-.01.31.24.57.55.57h0c.31,0,.57-.25.57-.57v-2.69c.01-.31-.24-.57-.55-.57Z"/>
          <path class="cls-17" d="m208.2,69.49c-.27-.16-.62-.07-.78.2l-1.35,2.32c-.16.27-.07.62.2.78.09.05.19.08.29.08.2,0,.39-.1.49-.28l1.35-2.32c.16-.27.07-.62-.2-.78Z"/>
          <path class="cls-17" d="m202.39,64.15l-2.33,1.33c-.27.16-.37.5-.21.77.1.18.3.29.49.29.1,0,.19-.02.28-.07l2.33-1.33c.27-.16.37-.5.21-.77-.16-.27-.5-.37-.77-.21Z"/>
          <path class="cls-17" d="m200.8,57.98c.31,0,.57-.25.57-.56,0-.31-.25-.57-.56-.57l-2.69-.02h0c-.31,0-.57.25-.57.56,0,.31.25.57.56.57l2.69.02h0Z"/>
          <path class="cls-17" d="m203.09,49.72l-2.32-1.36c-.27-.16-.62-.07-.78.2-.16.27-.07.62.2.78l2.32,1.36c.09.05.19.08.29.08.19,0,.38-.1.49-.28.16-.27.07-.62-.2-.78Z"/>
          <path class="cls-17" d="m207.65,45.26c.1.18.3.29.49.29.09,0,.19-.02.28-.07.27-.15.37-.5.21-.77l-1.33-2.34c-.15-.27-.5-.37-.77-.21-.27.15-.37.5-.21.77l1.33,2.34Z"/>
          <path class="cls-17" d="m222.15,46.8c.16-.27.06-.62-.21-.78-.27-.16-.62-.06-.78.21l-5.68,9.8c-.09-.01-.18-.03-.27-.03-.89,0-1.62.72-1.62,1.62,0,.09.01.18.03.27l-6.19,3.61c-.27.16-.36.51-.2.78.11.18.3.28.49.28.1,0,.2-.02.29-.08l6.2-3.61c.28.23.63.37,1.01.37.89,0,1.62-.72,1.62-1.62,0-.39-.14-.74-.37-1.02l5.68-9.8Z"/>
        </g>
      </g>
      <g>
        <path class="cls-17" d="m20.05,48.34c-1.8.3-5.53,2.24-6.45,2.85h0c1.96,4.51,2.71,6.31,4.24,9.81h.02c.2.03,1.8-.69,2.51-1.09-.46-1.1-1-2.33-1.43-3.59h.01c.53-.36,1.21-.67,1.76-1.03.03-.01.04-.03.03-.05-.38-.66-.84-2.11-1.08-2.35-.41.23-1.24.63-1.82.79t-.03,0c-.31-.23-.59-.69-.6-1.29,1.15-.64,2.75-1.39,3.76-1.91-.17-.51-.71-1.63-.93-2.14Z"/>
        <path class="cls-17" d="m29.87,52.6c-.27-1.06-.66-2.01-.95-3.09-.15-.5-.32-.99-.53-1.47-.15-.3-.32-.59-.55-.85-.24-.3-.55-.55-.92-.71-1.45-.5-3.31.09-4.41,1.18-.11.12-.18.24-.25.38-.38.91-.22,1.92.06,2.82.42,1.61,1.07,3.14,1.65,4.67.21.58.47,1.14.91,1.54.62.67,1.48.59,2.32.39.6-.15,1.16-.37,1.65-.72.56-.37,1.05-.83,1.24-1.43.16-.7.08-1.49-.11-2.21l-.12-.51Zm-1.78,1.74c-.38.89-1.67,1.22-2.32.56-.41-.59-.65-1.35-.99-2.01-.32-.82-.6-1.68-.69-2.5-.02-.46.1-.88.36-1.27.23-.34.64-.63,1.1-.6.54.07.97.47,1.2,1.01.13.34.34.82.35.83l.37,1.01.24.72s.11.38.23.79c.22.89.37.84.16,1.46Z"/>
        <path class="cls-17" d="m35.05,50.3c.02.53.29,1.03.17,1.56-.1.46-.5.74-.96.8-.64-.02-1.01-.61-1.22-1.19-.46-1.36-1.05-4.26-1.01-4.38,0-.05,0-.16.04-.22.13-.21.46-.32.71-.43,1.18-.34,1.25.99,1.57,1.77.81-.05,1.54-.13,2.25-.49.28-3.07-3.26-4.93-5.83-3.32-.27.15-.51.32-.69.54-.3.45-.46.96-.51,1.54-.05.34-.05.73.08,1.07.77,3.32,1.17,4.89,1.61,6.34.59,1.67,2.57,1.74,3.98,1.18,2.22-.6,3.1-3.25,1.89-5.19-.62-.03-1.47.35-2.07.41Z"/>
        <path class="cls-17" d="m42.32,42.7c.33,2.42.78,5.05,1.08,7.56-.05.98-1.44,1.35-1.9.39-.62-2.55-1.08-5.1-1.38-7.62h0c-.65-.09-1.57.16-2.21.26h-.02s.02.02.02.02c.49,2.73.83,5.55,1.28,8.29.39,1.9,2.66,2.32,4.39,1.86,1.47-.38,2.19-1.58,2.14-2.98-.14-2.73-.56-5.45-1.12-8.09-.55-.22-1.71.18-2.28.32Z"/>
        <path class="cls-17" d="m50.78,45.6c-.45-.03-.86-.11-1.07-.6-.03-.14-.07-.28-.03-.42.09-1.19,2.16-.92,1.99.25.75.15,1.63.02,2.36-.16h.02c.18-1.6-.54-2.57-1.59-3.01-1.04-.38-2.51-.41-3.5.09-1.95.98-2.69,3.92-.62,5.61.32.23.68.41,1.11.45.89.11,2.14.16,2.35,1.15.36,1.44-1.94,1.58-2.12.25-.71.07-1.67.03-2.4.2v.05s0,.05,0,.05c.02,2.01,2.11,3.04,3.95,2.94,1.29-.05,2.49-.71,2.9-2.04.42-1.12.3-2.47-.51-3.36-.68-.85-1.72-1.4-2.84-1.45Z"/>
        <path class="cls-17" d="m57.52,41.04c-.58-.17-1.39,0-1.94.05h-.05c-.15,2.87.05,5.61.03,8.39h.02c.61-.02,1.48-.03,2.03-.1-.15-2.69-.11-5.64-.09-8.34Z"/>
        <path class="cls-17" d="m55.71,50.28v.02c0,.58-.17,1.85-.03,1.85l1.18-.03h.03c.24,0,.35.01.6,0h.11c0-.62.02-1.31.03-1.89-.62,0-1.42-.16-1.92.05Z"/>
        <path class="cls-17" d="m18,42.69h0s0-.03,0-.03c-3.1-6.15-3.62-7.18-3.69-7.48,0-.01,0-.04,0-.05h.01s.03-.02.03-.02c.87-.47,1.34-.74,1.73-.84-.23-.73-.66-1.62-1-2.23-2.05.72-4.13,1.82-6.06,2.76,0,.01.02,0,.03.02.36.93.99,2.1,1.13,2.2.26-.04,1.24-.67,1.79-.65h.02c2.78,5.2,3.62,7.38,3.75,7.53.63-.44,1.64-.77,2.28-1.22Z"/>
        <path class="cls-17" d="m20.51,41.75c.36-.28,2.42-.75,2.61-1.2-1.53-3.24-2.72-6.81-4.07-10.16l-.02-.06-.35.14c-.87.37-1.27.48-1.63.6-.13.05-.51.16-.61.21v.03c.98,3.42,2.93,6.79,4.07,10.43Z"/>
        <path class="cls-17" d="m23.96,40.27c.64-.21,1.47-.42,2.08-.74-.73-1.82-1.47-3.73-1.93-5.66,0-.03,1.31,1.86,1.62,1.77.17-.05.1-2.01.22-2.5.75,1.61,1.5,4.07,2.14,5.75.48-.16,1.36-.52,1.98-.64l-1.54-4.79c-.53-1.95-1.31-3.74-1.87-5.68-.63.21-1.9.74-2.2.79-.21.58.03,2.63-.11,2.63-.03,0-.07,0-.11-.02-.47-.36-1.22-1.64-1.74-1.93h-.02c-.64.27-1.53.41-2.01.75,2.63,8.15,3.24,9.98,3.4,10.22.02.03.04.04.06.03Z"/>
        <path class="cls-17" d="m37.35,36.36c.02-.65-.16-1.39-.37-2.04v-.03c-1.39.39-2.69.58-4.04.91h-.02c-.17-.49-.43-1.3-.47-1.93.17-.22,1.23-.3,1.81-.63-.2-.75-.28-1.46-.56-2.12v-.02c-.63.14-1.27.31-1.9.42h-.02c-.27-.53-.29-1.21-.46-1.8v-.02s.06-.01.06-.01c1.32-.45,2.74-.56,3.97-1.17v-.02c-.18-.72-.26-1.48-.54-2.17-.02-.09-3.97.95-6.32,1.66.67,3.56,1.69,6.92,2.57,10.48,2.02-.32,4.2-1.02,6.29-1.52Z"/>
        <path class="cls-17" d="m45.13,26.56h.02s.03,0,.03,0c.98-.17,1.51-.27,1.91-.25.01-.76-.11-1.75-.25-2.43-2.17.04-4.49.42-6.62.71,0,.02.02.01.02.03.05,1,.28,2.3.38,2.45.26.05,1.38-.24,1.9-.05h.02c1,5.81,1.11,8.15,1.18,8.33.73-.22,1.8-.22,2.55-.44v-.02s0-.02,0-.02c-1.01-6.82-1.17-7.96-1.15-8.26,0-.02.01-.03,0-.05Z"/>
        <path class="cls-17" d="m54.31,26.04c-.07-.33-.15-.66-.31-.96-.15-.36-.38-.67-.7-.93-1.26-.86-3.22-.79-4.57-.03-.14.09-.24.19-.35.3-.61.78-.72,1.79-.69,2.74-.02,1.66.2,3.31.35,4.94.05.61.15,1.22.47,1.73.42.81,1.27.96,2.14.99.62.01,1.21-.05,1.79-.26.64-.21,1.24-.53,1.57-1.05.34-.63.48-1.42.48-2.16l.02-.52c.02-1.09-.1-2.11-.1-3.23-.01-.52-.04-1.04-.12-1.56Zm-1.96,6c-.61.76-1.93.74-2.39-.07-.24-.68-.27-1.47-.42-2.2-.1-.88-.13-1.78,0-2.59.1-.45.33-.82.68-1.13.32-.27.78-.44,1.22-.29.5.21.81.71.89,1.29.04.36.11.88.11.89l.09,1.07.04.76s0,.39.01.82c-.03.92.13.91-.24,1.45Z"/>
      </g>
      <g>
        <path class="cls-11" d="m12.97,16.49c-1.43-.72-3.1-1.03-4.35-1.17-.17-2.06-.56-3.8-1.18-5.2-.13-.29-.41-.47-.73-.47h0c-.32,0-.6.18-.73.47-.62,1.39-1.01,3.14-1.18,5.19-1.24.13-2.91.43-4.33,1.15-.28.14-.46.43-.46.75,0,.32.18.6.46.75,1.15.58,2.64.97,4.33,1.15.14,1.49.7,5.2,1.58,5.6.11.05.22.07.33.07.1,0,.2-.02.3-.06.21-.08.37-.24.46-.44.62-1.39,1.01-3.13,1.16-5.18,1.24-.13,2.91-.45,4.34-1.16.15-.08.28-.2.36-.36.1-.19.11-.41.05-.62-.07-.2-.21-.37-.4-.47Z"/>
        <path class="cls-11" d="m233.71,115.54h0c-1.43-.72-3.1-1.03-4.35-1.17-.17-2.06-.56-3.8-1.18-5.2-.13-.29-.41-.47-.73-.47h0c-.32,0-.6.18-.73.47-.62,1.39-1.01,3.14-1.18,5.19-1.24.13-2.91.43-4.33,1.15-.28.14-.46.43-.46.75,0,.32.18.6.46.74,1.15.58,2.64.98,4.32,1.15.14,1.49.7,5.2,1.58,5.59.11.05.22.07.33.07.1,0,.2-.02.3-.06.21-.08.37-.23.46-.44.62-1.39,1.01-3.13,1.16-5.18,1.24-.13,2.91-.45,4.34-1.16.15-.08.28-.2.36-.36.2-.4.04-.88-.36-1.09Z"/>
        <path class="cls-11" d="m194.75,22.85c.16-.08.28-.2.36-.36.2-.4.04-.88-.36-1.09-1.43-.72-3.1-1.03-4.35-1.17-.17-2.05-.56-3.8-1.18-5.2-.13-.29-.41-.47-.73-.47h0c-.32,0-.6.18-.73.47-.62,1.39-1.01,3.14-1.18,5.19-1.24.13-2.91.43-4.33,1.15-.28.14-.46.43-.46.75,0,.32.18.6.46.75,1.15.58,2.64.98,4.32,1.15.14,1.49.7,5.2,1.58,5.59.11.05.22.07.33.07.1,0,.2-.02.3-.06.21-.08.37-.23.46-.44.62-1.39,1.01-3.14,1.16-5.18,1.24-.13,2.91-.45,4.34-1.17Z"/>
        <path class="cls-11" d="m200.4,91.44h0c-1.17-.59-2.53-.85-3.56-.97-.14-1.68-.47-3.12-.98-4.27-.12-.27-.37-.43-.66-.43h0c-.29,0-.54.16-.66.43-.51,1.15-.84,2.58-.98,4.26-1.03.11-2.39.36-3.55.95-.26.13-.42.39-.42.68,0,.29.16.55.42.67.95.48,2.17.8,3.55.95.12,1.15.55,4.28,1.34,4.63.1.04.2.06.3.06.29,0,.56-.17.68-.44.51-1.15.83-2.58.96-4.25,1.03-.11,2.39-.37,3.55-.96.14-.07.26-.18.33-.32.18-.36.04-.8-.32-.98Z"/>
        <path class="cls-11" d="m49.82,66.26h0c-1.17-.59-2.53-.85-3.56-.97-.14-1.68-.47-3.12-.98-4.27-.12-.26-.37-.43-.66-.43h0c-.29,0-.54.17-.66.43-.51,1.15-.84,2.58-.98,4.26-1.03.11-2.39.36-3.55.95-.26.13-.42.39-.42.68,0,.29.16.55.42.67.95.48,2.17.8,3.55.95.12,1.15.55,4.28,1.34,4.63.1.04.2.06.3.06.09,0,.18-.02.27-.05.19-.07.33-.21.41-.39.51-1.15.83-2.58.96-4.25,1.03-.11,2.39-.37,3.56-.96.14-.07.25-.18.32-.32.18-.36.04-.8-.32-.98Z"/>
        <path class="cls-11" d="m56.5,5.66h0c-1.17-.59-2.53-.85-3.56-.97-.14-1.68-.47-3.12-.98-4.27-.12-.26-.37-.43-.66-.43h0c-.29,0-.54.17-.66.43-.51,1.15-.84,2.58-.98,4.26-1.03.11-2.39.36-3.55.95-.26.13-.42.39-.42.68,0,.29.16.55.42.68.95.48,2.17.8,3.55.95.12,1.15.55,4.28,1.34,4.63.1.04.2.06.3.06.09,0,.18-.02.27-.05.19-.07.33-.21.41-.39.51-1.15.83-2.58.96-4.25,1.03-.11,2.39-.37,3.56-.96.14-.07.25-.18.33-.32.18-.36.04-.8-.32-.98Z"/>
        <path class="cls-11" d="m223.06,14.16c.95.48,2.17.8,3.55.95.12,1.15.55,4.28,1.34,4.63.1.04.2.06.3.06.09,0,.18-.02.27-.05.19-.07.33-.21.41-.39.51-1.15.83-2.58.96-4.25,1.03-.11,2.39-.37,3.56-.96.14-.07.25-.18.33-.32.18-.36.04-.8-.32-.98h0c-1.17-.59-2.53-.85-3.56-.97-.14-1.68-.47-3.12-.98-4.27-.12-.26-.37-.43-.66-.43h0c-.29,0-.54.17-.66.43-.51,1.15-.84,2.58-.98,4.26-1.03.11-2.39.36-3.55.95-.26.13-.42.39-.42.68,0,.29.16.55.42.67Z"/>
      </g>
    </g>
  </g>
</svg>