<?xml version="1.0" encoding="UTF-8"?>
<svg id="_Слой_2" data-name="Слой 2" xmlns="http://www.w3.org/2000/svg" viewBox="0 0 240.56 216.65">
  <defs>
    <style>
      .cls-1 {
        fill: #fff;
      }

      .cls-2, .cls-3 {
        stroke-width: .54px;
      }

      .cls-2, .cls-3, .cls-4, .cls-5 {
        fill: none;
      }

      .cls-2, .cls-4, .cls-5 {
        stroke: #3d2929;
        stroke-linecap: round;
        stroke-linejoin: round;
      }

      .cls-6 {
        fill: #4ebcf7;
      }

      .cls-7, .cls-8 {
        fill: #3d2929;
      }

      .cls-3 {
        stroke: #faeddc;
        stroke-miterlimit: 10;
      }

      .cls-4 {
        stroke-width: 1.09px;
      }

      .cls-9 {
        fill: #e7d8dd;
      }

      .cls-10 {
        fill: #ff988c;
      }

      .cls-8 {
        opacity: .14;
      }

      .cls-11 {
        fill: #fe6963;
      }

      .cls-12 {
        fill: #ffa255;
      }

      .cls-13 {
        fill: #faeddc;
      }

      .cls-5 {
        stroke-width: 3.26px;
      }
    </style>
  </defs>
  <g id="OBJECTS">
    <g>
      <path class="cls-1" d="m121.16,216.65c-3.23,0-6.36-.52-9.29-1.55-1.14-.39-2.27-.88-3.36-1.45-.26-.02-.52-.04-.78-.06-.21-.02-1.64-.16-2.04-.21-.87-.09-1.72-.19-2.58-.31,0,0-.87-.11-1.15-.15-1.03-.15-2.06-.32-3.07-.5l-.53-.09c-1.17-.22-2.33-.45-3.49-.71-.28-.06-1.16-.27-1.16-.27-.78-.18-1.57-.37-2.34-.58-.44-.12-.88-.23-1.31-.35-.76-.21-1.52-.43-2.27-.66,0,0-.89-.26-1.17-.35-1.12-.35-2.24-.72-3.34-1.11-7.56-2.69-14.76-6.3-21.45-10.75l-3.51,3.18c-.45.4-.92.79-1.42,1.16-.19.14-.35.25-.51.35-.36.25-.69.47-1.02.66-.17.1-.37.21-.58.32-.39.21-.68.37-.98.51-.21.1-.42.19-.63.28,0,0-.1.04-.1.04-.31.13-.6.25-.89.36-.25.09-.49.17-.74.25-.36.11-.65.2-.94.28-.26.07-.53.13-.81.19-.3.06-.58.12-.87.17-.29.05-.59.09-.88.12-.28.03-.56.06-.83.08-.3.02-.61.04-.92.04h-.36s-.41,0-.41,0c-.31,0-.63-.02-.95-.04-.25-.02-.5-.04-.74-.07-.32-.03-.65-.07-.99-.13-.18-.03-.36-.06-.55-.1-.44-.09-.8-.16-1.15-.25-.17-.04-.33-.09-.49-.14-.42-.12-.81-.24-1.19-.38-.08-.03-.24-.09-.34-.13-2.23-.86-4.25-2.12-5.99-3.75-.36-.33-.75-.71-1.11-1.11-3.33-3.67-5.04-8.44-4.81-13.43.26-5.03,2.43-9.61,6.11-12.95l1.95-1.77c-2.04-2.97-3.92-6.06-5.63-9.24-2.64-.18-5.02-1.97-5.81-4.66l-1.08-3.66c-.49-1.66-.3-3.44.53-4.96.09-.17.19-.33.29-.48-3.67-10.43-5.53-21.36-5.53-32.55,0-2.31.08-4.65.25-6.97-2.56-6.46-4.25-12.66-5.05-18.52l-1.79-.72c-9.25-3.73-13.75-14.29-10.03-23.54l.31-.76c2.77-6.88,9.37-11.33,16.82-11.33,1.28,0,2.54.13,3.78.4,1.2-1.51,2.51-2.97,3.92-4.36,7.48-7.41,16.53-11.17,26.88-11.17.69,0,1.4.02,2.11.05,4.18-3.32,8.63-6.29,13.29-8.89.23-2.23.71-4.28,1.43-6.21,2.86-7.63,10.07-12.09,16.71-14.01,1.67-1.92,3.83-3.26,5.68-3.98,1.64-.63,3.37-.96,5.16-.96.57,0,1.14.03,1.71.1.25-.23.51-.45.77-.67,3.31-2.7,7.51-4.19,11.8-4.19.62,0,1.25.03,1.87.09,4.29.45,8.19,2.29,11.19,5.23.8-.61,1.71-1.13,2.71-1.55,1.74-.73,3.6-1.1,5.51-1.1,1.78,0,3.52.32,5.16.96,1.85.71,4,2.05,5.67,3.96,6.64,1.91,13.86,6.38,16.72,14.02.83,2.22,1.33,4.62,1.52,7.26,5.6,2.96,10.88,6.43,15.78,10.38,4.11.38,8.16,1.42,12.11,3.09l22.2-10.75c2.67-1.29,5.52-1.95,8.48-1.95,7.47,0,14.39,4.33,17.64,11.02l.4.83c4.7,9.7.63,21.42-9.08,26.12l-11.87,5.75c2.59,10.25,1.39,21.88-3.59,34.71.19,2.49.29,5.06.29,7.65,0,42.54-27.13,80.04-67.5,93.31-2.61.87-5.4,1.65-8.29,2.32-1.43.89-2.86,1.66-4.26,2.3-1.77.83-3.68,1.51-5.63,2.03-2.46.64-4.99.97-7.53.97Z"/>
      <g>
        <path class="cls-9" d="m208.22,115.73c0,40.63-26.42,75.09-63.02,87.12-4.49,1.49-9.13,2.63-13.9,3.4-3.67.6-7.41.97-11.21,1.12-1.18.04-2.37.07-3.56.07-.53,0-1.06,0-1.6-.02-2.12-.03-4.21-.14-6.29-.32-7.94-.67-15.59-2.37-22.82-4.93-35.55-12.63-61-46.56-61-86.44,0-2.69.12-5.37.35-7.99,2.15-24.94,14.29-47.03,32.41-62.24,5.51-4.63,11.58-8.62,18.08-11.86,12.31-6.15,26.18-9.6,40.86-9.6,13.88,0,27.05,3.08,38.84,8.62,7.33,3.43,14.14,7.8,20.26,12.97,17.88,15.08,29.9,36.86,32.19,61.48.27,2.83.4,5.71.4,8.62Z"/>
        <g>
          <path class="cls-11" d="m207.82,107.1c-.91,2.27-1.96,4.56-3.1,6.85-.36.72-.72,1.42-1.1,2.14-20.06,38.37-67.2,78.17-83.54,91.27-1.18.04-2.37.07-3.56.07-.53,0-1.06,0-1.6-.02-2.12-.03-4.21-.14-6.29-.32-12.96-10.94-45.04-39.35-66.97-70.39-.33-.46-.65-.92-.98-1.39-6.33-9.11-11.75-18.42-15.52-27.58-8.18-19.77-8.68-38.75,5.91-53.19,7.89-7.81,17.07-10.09,26.5-9.05,30.13,3.32,62.65,40.72,62.65,40.72,0,0,24.81-41.64,55.39-40.59,6.47.22,13.21,2.36,20.02,7.21,19.65,13.99,20.6,33.6,12.18,54.26Z"/>
          <path class="cls-13" d="m204.72,113.96c-.36.72-.72,1.42-1.1,2.14l-3.18-21.4-10.28,34.5c-.09.3-.37.48-.67.5l-17.8-.39-3.45,13.03c-.08.29-.33.5-.62.52s-.58-.15-.7-.41l-7.22-16.63-5.43,17.75c-.09.28-.36.49-.65.49-.3-.01-.58-.18-.67-.47l-15.79-46.61-22.01,48.66c-.1.21-.27.35-.49.39-.21.05-.43-.01-.6-.15l-14.9-12.96h-16.39l-2.28,14.53c-.04.3-.27.53-.58.59h-.11c-.25,0-.5-.14-.62-.37l-19.51-38.34-15.9,27.03c-.13.21-.36.34-.6.34h-1.51c-.33-.46-.65-.92-.98-1.39h2.09l16.35-27.78c.13-.22.33-.37.62-.34.25.01.48.15.6.38l19.12,37.55,2.03-13c.05-.34.34-.59.68-.59h17.25c.17,0,.34.07.46.17l14.39,12.51,22.35-49.41c.11-.26.39-.41.66-.4.28.01.53.2.62.47l15.67,46.23,5.34-17.49c.09-.28.34-.48.63-.49.29-.01.55.15.67.41l7.18,16.52,3.08-11.63c.08-.3.36-.5.68-.52l17.82.39,11.01-36.98c.1-.31.38-.52.72-.5.33.02.59.27.64.59l3.36,22.56Z"/>
        </g>
        <g>
          <g>
            <path class="cls-4" d="m83.39,75.33c-2.64-9.82-4.86-19.82-6.32-29.89-.9-6.17-2.53-13.16-.24-19.27,2.65-7.08,11.53-10.73,18.64-10.62.18,0,.36,0,.54.02"/>
            <path class="cls-7" d="m94.94,11.79c1.85-.72,3.97-.69,5.8.08.57.24,1.11.55,1.56.97,1.32,1.23,1.63,3.42.69,4.96-.81,1.33-2.33,2.07-3.85,2.38-1.75.36-3.6.24-5.3-.34-.87-.3-1.72-.73-2.33-1.42-2.35-2.63,1.02-5.69,3.42-6.62Z"/>
          </g>
          <path class="cls-6" d="m154.52,155.02c-.1.8-.21,1.63-.31,2.49-.03.2-.07.4-.09.6-.21,1.48-.45,3.02-.7,4.61v.03c-.54,3.3-1.17,6.83-1.86,10.43-.16.84-.33,1.67-.5,2.52-1.12,5.75-2.37,11.59-3.57,17-.79,3.64-1.57,7.08-2.29,10.16-4.49,1.49-9.13,2.63-13.9,3.4-1.38.64-2.82,1.16-4.31,1.55-3.88,1.01-8.21.96-12.06-.39-10.2-.16-19.99-2.01-29.11-5.25-1.54-6.82-3.48-15.9-5.14-25.43-1.37-7.87-2.55-16.06-3.18-23.57-.3-3.5-.48-6.83-.5-9.93-.04-6.84.67-12.46,2.55-15.75.01-.02.03-.04.04-.07.59-1.01,1.29-1.8,2.11-2.34.03-.02.07-.04.1-.05.2-.13.4-.24.62-.34,0,0,0-.02-.01-.05h0c-.02-.09-.05-.22-.09-.39-.52-2.73-3.08-17.35,1.64-25.56.1-.17.21-.35.32-.51.1-.15.21-.3.31-.45.7-1.03,1.57-1.92,2.59-2.64.08-.06.15-.12.23-.17.09-.07.17-.12.27-.17.43-.28.9-.53,1.4-.74.15-.07.29-.12.43-.18,2.03-.86,3.63-1.53,4.87-2.04,1.37-.58,2.32-.97,2.98-1.22.37-.15.64-.26.84-.33.07-.02.13-.04.17-.05.8-2.25,12.82-35.4,21.03-36.12,8.5-.74-4.43,52.51-4.43,52.51l2.58.37s17.75-52.87,29.58-51.77c2.14.2,3.28,2.16,3.7,5.24.31,2.27.24,5.14-.1,8.36-.2,1.78-.47,3.68-.8,5.64-2.13,12.43-6.8,27.4-8.83,33.64,0,0-.01.01,0,.01-.04.12-.09.24-.12.35-.54,1.65-.87,2.6-.87,2.6,0,0,5.81,7.7,10.12,18.39.01.03.02.07.03.1,1.14,2.82,2.17,5.85,2.95,9,.01.04.02.08.02.11.59,2.3,1.02,4.67,1.29,7.07.1.96.17,1.92.22,2.89v.04c.1,2.13.03,4.28-.23,6.41Z"/>
          <g>
            <path class="cls-4" d="m147.67,73.25c2.64-9.82,4.86-19.82,6.32-29.89.9-6.17,2.53-13.16.24-19.27-2.65-7.08-11.53-10.73-18.64-10.62-.18,0-.36,0-.54.02"/>
            <path class="cls-7" d="m136.12,9.71c-1.85-.72-3.97-.69-5.8.08-.57.24-1.11.55-1.56.97-1.32,1.23-1.63,3.42-.69,4.96.81,1.33,2.33,2.07,3.85,2.38,1.75.36,3.6.24,5.3-.34.87-.3,1.72-.73,2.33-1.42,2.35-2.63-1.02-5.69-3.42-6.62Z"/>
          </g>
          <path class="cls-7" d="m82.97,71.9c-1.19.26-1.89,1.49-1.49,2.64,3.18,9.11,16.31,43.87,31.25,43.87,13.06,0,30.05-15.22,38.27-48.03.26-1.05-.36-2.12-1.4-2.43l-1.09-.32c-1-.29-2.05.21-2.44,1.18-3.18,7.86-17.22,40.35-32.33,41.29-12.18.75-25.48-29.69-28.49-36.99-.37-.9-1.33-1.41-2.29-1.2h0Z"/>
          <path class="cls-6" d="m117.91,167.13s-1.39-19.14,9.98-33.83c0,0-12.02-33.93-2.96-39.1,10.13-5.79,26.81,33.56,29.3,47.7,2.5,14.14-4.99,40.77-4.99,40.77l-31.34-15.53Z"/>
          <g>
            <path class="cls-6" d="m115.41,130.52c0,6.38-23.29,9.43-23.29,9.43l-15.13,3.29c-.07-9.59,1.38-16.77,5.42-18.54,0,0-5.55-25.51,6.66-30.68,5.9-2.51,8.25-3.45,9.11-3.77l.13.07s15.48-3.16,16.45,2.64c1.11,6.66-17.1,14.24-17.1,14.24l2.45,14.93s15.3,2.03,15.3,8.41Z"/>
            <path class="cls-2" d="m82.42,124.7s-5.36-22.55,4.99-29.77c10.35-7.21,26.62-6.42,27.32-2.4,1.01,5.88-10.45,12.11-16.92,14.7l2.5,14.56"/>
          </g>
          <path class="cls-2" d="m117.91,167.13s-.37-23.57,9.98-33.83c0,0-12.76-33.56-2.4-39.47,10.35-5.92,28.84,42.89,29.03,51.03"/>
          <path class="cls-2" d="m76.87,149.84s-2.77-23.85,7.4-25.88c10.17-2.03,32.72,2.4,31.43,9.24-1.29,6.84-22.37,5.36-22.37,5.36"/>
          <g>
            <path class="cls-5" d="m162.11,165.76c-.72,2.32-1.55,4.61-2.49,6.85-.99,2.39-2.11,4.72-3.33,7.01-2.49,4.64-5.43,9.03-8.8,13.08-1.04,1.27-2.14,2.51-3.27,3.7-3.74,3.96-8.02,7.6-12.93,9.85-1.38.64-2.82,1.16-4.31,1.55-3.88,1.01-8.21.96-12.06-.39-1.67-.58-3.26-1.4-4.66-2.5-4.67-3.64-6.27-9.93-6.32-15.6-.05-4.79.83-9.55,1.18-14.33.02-.29.04-.6.07-.89.43-7.17-.84-15.08-7.14-19.42-5.1-3.53-11.97-4.07-17.85-2.47-.92.25-1.84.56-2.72.96-2.56,1.12-4.87,2.8-6.39,5.12-5.05,7.74,2.27,15.73,9.36,18.38.07.02.14.05.21.08,5.54,2.04,11.56,2.85,17.3,1.39,2.55-.64,4.95-1.72,7.15-3.14,4.7-3.03,8.49-7.59,10.85-12.7,3.46-7.51,4.13-16.06,3.15-24.26-.79-6.72-2.63-13.26-4.75-19.69-.47-1.42-.94-2.85-1.43-4.26"/>
            <g>
              <circle class="cls-7" cx="165.33" cy="162.13" r="19.69" transform="translate(-66.22 164.4) rotate(-45)"/>
              <circle class="cls-3" cx="165.33" cy="162.13" r="11.92" transform="translate(-49.2 74.97) rotate(-22.33)"/>
            </g>
          </g>
        </g>
        <g>
          <rect class="cls-13" x="88.18" y="44.52" width="3.82" height="18.92" transform="translate(-11.58 27.66) rotate(-16.41)"/>
          <rect class="cls-13" x="88.18" y="44.52" width="3.82" height="18.92" transform="translate(116.42 -47.69) rotate(73.59)"/>
        </g>
        <g>
          <g>
            <rect class="cls-13" x="36.97" y="141.58" width="3.82" height="18.92" transform="translate(-41.09 17.14) rotate(-16.41)"/>
            <rect class="cls-13" x="36.97" y="141.58" width="3.82" height="18.92" transform="translate(172.78 71.07) rotate(73.59)"/>
          </g>
          <g>
            <rect class="cls-13" x="192.82" y="131.04" width="3.82" height="18.92" transform="translate(-31.76 60.74) rotate(-16.41)"/>
            <rect class="cls-13" x="192.82" y="131.04" width="3.82" height="18.92" transform="translate(274.49 -85.99) rotate(73.59)"/>
          </g>
        </g>
        <g>
          <g>
            <rect class="cls-12" x="160.9" y="46.95" width="75.8" height="26.99" rx="13.03" ry="13.03" transform="translate(-6.47 92.69) rotate(-25.84)"/>
            <rect class="cls-8" x="187.91" y="49.83" width="24.59" height="20.71" transform="translate(-6.21 93.28) rotate(-25.84)"/>
            <g>
              <path class="cls-13" d="m172.58,66.86c.32.65.04,1.44-.61,1.76-.65.32-1.44.04-1.76-.61-.32-.65-.04-1.44.61-1.76.65-.32,1.44-.04,1.76.61Z"/>
              <path class="cls-13" d="m179.8,69.37c.32.65.04,1.44-.61,1.76-.65.32-1.44.04-1.76-.61-.32-.65-.04-1.44.61-1.76.65-.32,1.44-.04,1.76.61Z"/>
              <path class="cls-13" d="m181.41,62.04c.32.65.04,1.44-.61,1.76-.65.32-1.44.04-1.76-.61s-.04-1.44.61-1.76c.65-.32,1.44-.04,1.76.61Z"/>
              <path class="cls-13" d="m186.43,72.4c.32.65.04,1.44-.61,1.76-.65.32-1.44.04-1.76-.61-.32-.65-.04-1.44.61-1.76.65-.32,1.44-.04,1.76.61Z"/>
              <path class="cls-13" d="m177.26,76.68c.32.65.04,1.44-.61,1.76-.65.32-1.44.04-1.76-.61-.32-.65-.04-1.44.61-1.76s1.44-.04,1.76.61Z"/>
            </g>
            <g>
              <path class="cls-13" d="m215.26,46.19c.32.65.04,1.44-.61,1.76-.65.32-1.44.04-1.76-.61-.32-.65-.04-1.44.61-1.76.65-.32,1.44-.04,1.76.61Z"/>
              <path class="cls-13" d="m222.48,48.7c.32.65.04,1.44-.61,1.76s-1.44.04-1.76-.61c-.32-.65-.04-1.44.61-1.76.65-.32,1.44-.04,1.76.61Z"/>
              <path class="cls-13" d="m224.09,41.37c.32.65.04,1.44-.61,1.76-.65.32-1.44.04-1.76-.61-.32-.65-.04-1.44.61-1.76.65-.32,1.44-.04,1.76.61Z"/>
              <path class="cls-13" d="m229.11,51.73c.32.65.04,1.44-.61,1.76-.65.32-1.44.04-1.76-.61-.32-.65-.04-1.44.61-1.76.65-.32,1.44-.04,1.76.61Z"/>
              <path class="cls-13" d="m219.94,56.02c.32.65.04,1.44-.61,1.76-.65.32-1.44.04-1.76-.61-.32-.65-.04-1.44.61-1.76.65-.32,1.44-.04,1.76.61Z"/>
            </g>
          </g>
          <g>
            <path class="cls-12" d="m17.02,68.6h44.17c6.39,0,11.58,5.19,11.58,11.58v.82c0,6.39-5.19,11.58-11.58,11.58H17.02c-6.39,0-11.58-5.19-11.58-11.58v-.82c0-6.39,5.19-11.58,11.58-11.58Z" transform="translate(32.92 -8.77) rotate(21.93)"/>
            <rect class="cls-8" x="29.2" y="72.16" width="21.84" height="18.39" transform="translate(33.28 -9.1) rotate(21.93)"/>
            <g>
              <path class="cls-13" d="m19.24,67.17c-.24.6-.92.89-1.52.65s-.89-.92-.65-1.52.92-.89,1.52-.65.89.92.65,1.52Z"/>
              <path class="cls-13" d="m21.9,73.42c-.24.6-.92.89-1.52.65s-.89-.92-.65-1.52.92-.89,1.52-.65c.6.24.89.92.65,1.52Z"/>
              <path class="cls-13" d="m27.68,70.11c-.24.6-.92.89-1.52.65-.6-.24-.89-.92-.65-1.52s.92-.89,1.52-.65.89.92.65,1.52Z"/>
              <path class="cls-13" d="m23.86,79.59c-.24.6-.92.89-1.52.65s-.89-.92-.65-1.52.92-.89,1.52-.65.89.92.65,1.52Z"/>
              <path class="cls-13" d="m15.57,76.12c-.24.6-.92.89-1.52.65-.6-.24-.89-.92-.65-1.52.24-.6.92-.89,1.52-.65s.89.92.65,1.52Z"/>
            </g>
            <g>
              <path class="cls-13" d="m58.31,82.9c-.24.6-.92.89-1.52.65-.6-.24-.89-.92-.65-1.52s.92-.89,1.52-.65.89.92.65,1.52Z"/>
              <path class="cls-13" d="m60.97,89.15c-.24.6-.92.89-1.52.65-.6-.24-.89-.92-.65-1.52s.92-.89,1.52-.65.89.92.65,1.52Z"/>
              <path class="cls-13" d="m66.75,85.84c-.24.6-.92.89-1.52.65s-.89-.92-.65-1.52.92-.89,1.52-.65c.6.24.89.92.65,1.52Z"/>
              <path class="cls-13" d="m62.94,95.32c-.24.6-.92.89-1.52.65s-.89-.92-.65-1.52c.24-.6.92-.89,1.52-.65s.89.92.65,1.52Z"/>
              <path class="cls-13" d="m54.64,91.85c-.24.6-.92.89-1.52.65s-.89-.92-.65-1.52.92-.89,1.52-.65c.6.24.89.92.65,1.52Z"/>
            </g>
          </g>
        </g>
        <g>
          <g>
            <path class="cls-13" d="m76.33,159.51c2.25,2.48,3.28,5.65,3.12,8.77-.14,3.12-1.48,6.17-3.96,8.42l-21.19,19.21c-4.61,4.18-11.61,4.15-16.18.14-.35-.29-.69-.63-1.01-.98-2.24-2.47-3.27-5.64-3.13-8.76.16-3.12,1.5-6.17,3.98-8.42l21.19-19.21c4.78-4.33,12.12-4.14,16.67.3.17.17.35.35.51.53Z"/>
            <path class="cls-10" d="m50.62,166.41l16.34,18.02-12.66,11.48c-4.96,4.5-12.69,4.12-17.19-.84-2.24-2.47-3.27-5.64-3.13-8.76.16-3.12,1.5-6.17,3.98-8.42l12.66-11.48Z"/>
            <g>
              <path class="cls-1" d="m44.8,177.08l-3.21,2.91c-.61.56-1.57.51-2.13-.1h0c-.56-.61-.51-1.57.1-2.13l3.21-2.91c.61-.56,1.57-.51,2.13.1h0c.56.61.51,1.57-.1,2.13Z"/>
              <path class="cls-1" d="m54.95,167.88l-6.98,6.33c-.61.56-1.57.51-2.13-.1h0c-.56-.61-.51-1.57.1-2.13l6.98-6.33c.61-.56,1.57-.51,2.13.1h0c.56.61.51,1.57-.1,2.13Z"/>
            </g>
          </g>
          <g>
            <path class="cls-13" d="m137.79,50.27c-2.6,2.12-5.81,2.98-8.92,2.65-3.11-.31-6.09-1.8-8.2-4.4l-18.07-22.17c-3.93-4.82-3.53-11.81.71-16.16.31-.33.66-.66,1.03-.96,2.59-2.11,5.8-2.97,8.91-2.66,3.11.33,6.08,1.82,8.2,4.41l18.07,22.17c4.08,5,3.49,12.32-1.18,16.63-.18.16-.36.33-.55.48Z"/>
            <path class="cls-6" d="m132.25,24.24l-18.86,15.37-10.8-13.25c-4.23-5.19-3.45-12.89,1.74-17.12,2.59-2.11,5.8-2.97,8.91-2.66,3.11.33,6.08,1.82,8.2,4.41l10.8,13.25Z"/>
            <g>
              <path class="cls-1" d="m121.9,17.87l-2.73-3.36c-.52-.64-.43-1.6.22-2.12h0c.64-.52,1.6-.43,2.12.22l2.74,3.36c.52.64.43,1.6-.22,2.12h0c-.64.52-1.6.43-2.12-.22Z"/>
              <path class="cls-1" d="m130.56,28.49l-5.95-7.31c-.52-.64-.43-1.6.22-2.12h0c.64-.52,1.6-.43,2.12.22l5.95,7.31c.52.64.43,1.6-.22,2.12h0c-.64.52-1.6.43-2.12-.22Z"/>
            </g>
          </g>
        </g>
        <g>
          <circle class="cls-1" cx="96.14" cy="33.6" r="3.47"/>
          <circle class="cls-1" cx="110.15" cy="53.15" r="3.47"/>
          <circle class="cls-1" cx="162.28" cy="47.6" r="3.47"/>
          <circle class="cls-1" cx="160.62" cy="187.09" r="3.47"/>
          <path class="cls-1" d="m38.18,125.53c0,1.91-1.55,3.47-3.47,3.47s-3.47-1.55-3.47-3.47,1.55-3.47,3.47-3.47,3.47,1.55,3.47,3.47Z"/>
        </g>
      </g>
    </g>
  </g>
</svg>