<?xml version="1.0" encoding="UTF-8"?>
<svg id="_Слой_2" data-name="Слой 2" xmlns="http://www.w3.org/2000/svg" viewBox="0 0 234.99 187.48">
  <defs>
    <style>
      .cls-1 {
        fill: #fff;
      }

      .cls-2 {
        fill: #ffc91f;
      }

      .cls-3 {
        fill: #60ccc2;
      }

      .cls-4 {
        fill: #001255;
      }

      .cls-5 {
        fill: #ffc2d3;
      }

      .cls-6 {
        fill: #ff5caa;
      }
    </style>
  </defs>
  <g id="OBJECTS">
    <g>
      <g>
        <path class="cls-2" d="m124.83,34.3c0,5.52-7.21,10-16.11,10s-16.11-4.48-16.11-10,7.21-10,16.11-10,16.11,4.48,16.11,10Z"/>
        <path class="cls-3" d="m137.03,33.81l-57.81,3.19,1.28-11.26L11.63,39.19l5.97,148.29H7.76c-3.78-33.97-15.19-147.48-.38-160.47C24.81,11.71,120.66,3.42,130.01,9.8c9.35,6.38,7.01,24.02,7.01,24.02Z"/>
        <polygon class="cls-4" points="78.11 38.9 77.95 34.3 136.95 32.54 137.11 35.09 78.11 38.9"/>
      </g>
      <g>
        <g>
          <g>
            <g>
              <path class="cls-4" d="m192.59,60.31c2.29,6.75-7.26,7.9-11.23,5.78-1.37,2.81-4.7,4.88-7.74,4.7-2.84-.25-5.31-3.28-5.77-6.08-1.61.93-3.59,1.07-5.07-.3-.98-.73-1.33-2.17-.91-3.3-5.24-5.47,4.84-15.65,3.89-21.78-1.56-9.99,12.94-9.97,19.57-10.86,2.6,1.52,4.33,5.54,3.81,8.31-.16.8-.59,1.78-1.17,2.73,0,0,9.07,1.29,9.76,3.91.69,2.59-4.73,5.05-4.73,5.05,1.85,4.08,3.62,10.91-.41,11.83Z"/>
              <g>
                <path class="cls-5" d="m172.35,52.09s12.68-8.06,15.35-1.51c4.25,10.41-17.47,6.19-17.47,6.19l-12.07,23.8-6.64,5.31-8.08-15.94s-19.34,7.65-22.95-1.91c-3.61-9.56,15.51-49.73,15.51-49.73l36.75,5.83s-9.69,13.37-2.54,17.19c0,0-3.9,3.31-2.98,3.99.92.68,4.39.47,4.39.47,0,0-4.89,2.48.71,6.31Z"/>
                <path class="cls-4" d="m140.46,39.6c-2.17,2.96-2.51,8.89,2.48,8.68,4.04-.18,5.01-6.15,5.74-9.13.14-.58-1.12-.42-1.25.11-.64,2.6-1.14,6.16-3.47,7.83-1.75,1.26-3.51-.57-3.79-2.21-.27-1.63.34-3.63,1.3-4.94.46-.63-.71-.77-1.02-.34h0Z"/>
                <path class="cls-4" d="m153.78,41.53c-2.18,2.97-2.34,8.69,2.53,8.47,4.05-.18,5.02-6.1,5.75-9.08.12-.49-1.12-.31-1.24.14-.64,2.59-1.13,6.2-3.46,7.87-1.96,1.41-3.67-.89-3.83-2.61-.16-1.61.46-3.45,1.4-4.74.35-.48-.9-.4-1.15-.05h0Z"/>
                <polygon class="cls-4" points="136.89 34.39 150.39 34.95 137.39 38.62 136.89 34.39"/>
                <polygon class="cls-4" points="154.88 32.78 166.03 39.23 153.38 36.76 154.88 32.78"/>
                <g>
                  <path class="cls-4" d="m128.84,57.88l3.92-26.68.84.12-3.74,25.46,18.53-3.99c-.52-.72-1.44-1.72-2.38-1.76-.67-.04-1.26.41-1.85,1.29l-.71-.47c.76-1.14,1.66-1.7,2.59-1.67,1.91.07,3.36,2.58,3.42,2.68l.29.5-20.9,4.5Z"/>
                  <path class="cls-4" d="m148.1,61.74c-3.04,0-5.62-.7-5.81-.75l-.31-.09v-5.84h.85v5.18c1.49.35,7.99,1.67,11.72-1.07,1.71-1.25,2.63-3.22,2.73-5.84l.85.03c-.11,2.9-1.15,5.08-3.08,6.5-1.99,1.45-4.6,1.87-6.95,1.87Z"/>
                  <path class="cls-4" d="m134.59,71.64h-.85c0-.12.03-3.09,2.46-4.98,2.01-1.55,5.01-1.88,8.92-.97l-.73-4.57.84-.14.94,5.84-.63-.16c-3.95-1.02-6.92-.8-8.81.67-2.11,1.63-2.13,4.28-2.13,4.3Z"/>
                  <path class="cls-4" d="m155.42,52.94v1.2s3.61-.99,6.02.78c0,0-.92-3.9-6.02-1.98Z"/>
                </g>
                <path class="cls-4" d="m187.73,54.28s-2.68-3.11-6.95-3.51c-4.27-.41-5.09,2.84-2.26,4.36,2.82,1.52,1.18-1.56,1.18-1.56l3.98,1.25-3-.34s.76,2.85-2.07,1.92c-2.83-.92-3.92-4.14-1.36-5.66,2.56-1.52,8.39-.24,10.48,3.53Z"/>
              </g>
            </g>
            <g>
              <path class="cls-2" d="m190.84,37l-62.91-10.41S138.56-4.02,167.04.44c28.48,4.46,23.8,36.56,23.8,36.56Z"/>
              <rect class="cls-4" x="159.46" y="-2.5" width=".85" height="64.06" transform="translate(104.6 182.43) rotate(-80.59)"/>
              <path class="cls-4" d="m137.14,20.99l19.42-16.37,1.61,21.26-21.03-4.89Zm18.76-14.8l-17.07,14.39,18.49,4.3-1.42-18.69Z"/>
              <polygon class="cls-1" points="149.63 6.74 155.53 7.87 150.76 15.8 155.49 15.46 146.99 24.76 149.98 18.97 145.22 18.84 149.63 6.74"/>
            </g>
          </g>
          <g>
            <path class="cls-4" d="m139.41,85.04l-7.23,29.33,29.97,1.06,4.25-30.39,17.43,33.37h11.05s-15.3-32.52-28.05-37.19h-6.38l3.08-9.56-7.97,1.06-2.55,7.01-3.93-5.95-6.06,1.27,1.91,7.23-5.53,2.76Z"/>
            <path class="cls-4" d="m138.64,83.05l-16.41,18.85-11.32-14.09-7.67,7.35,20.83,19.1s21.13-22.79,14.57-31.21Z"/>
            <g>
              <path class="cls-6" d="m101.5,92.62l2.74,8.87s21.79-11.47-.2-21.29c0,0,5.39-12.96,1.24-13.12-3.81-.15-3.36,10.49-3.36,10.49l-12.11-1.37s-2.38,27.15,11.7,16.42Z"/>
              <path class="cls-4" d="m95,94.69c8.33-.53,9.28-11.42,5.26-17.04-.24-.34-1.43.08-1.14.48,3.3,4.62,3.61,15.4-3.95,15.88-.61.04-1.02.73-.17.68h0Z"/>
              <path class="cls-4" d="m89.75,89.54c3.43,3.68,10.37,1.15,11.12-3.68.09-.61-1.16-.44-1.24.1-.6,3.85-5.93,6.06-8.75,3.04-.37-.4-1.54.09-1.13.53h0Z"/>
              <path class="cls-4" d="m89.52,85.4c1.53,3.52,7.74,1.13,9.4-1.14.31-.43-.92-.3-1.14,0-1.32,1.8-5.85,3.54-7.03.81-.17-.4-1.38-.02-1.23.33h0Z"/>
              <path class="cls-4" d="m89.4,79.22c.54,4.82,8.47,3.64,10.95,1.19.28-.28-.9-.14-1.12.07-2.22,2.19-8.16,2.28-8.6-1.59-.03-.27-1.27-.02-1.23.33h0Z"/>
            </g>
            <path class="cls-3" d="m138.1,82.45l5.35-.81-4.89,17.64s22.74-4.25,22.95-5.1c.21-.85,3.4-16.79,3.4-16.79l5.31,2.13-6.16,38.89h-36.13l10.16-35.96Z"/>
          </g>
        </g>
        <g>
          <g>
            <polygon class="cls-2" points="106.39 108.77 203.31 108.77 193 163.18 117.02 168 106.39 108.77"/>
            <path class="cls-4" d="m121.57,157.58l21.33-38.44,15.71,33.4-37.04,5.05Zm21.23-35.49l-18.75,33.8,32.56-4.44-13.81-29.36Z"/>
            <polygon class="cls-1" points="132.99 126.84 143.23 125.04 140.4 140.8 147.85 137.33 139.82 157.61 141.09 146.41 133.31 149.12 132.99 126.84"/>
          </g>
          <polygon class="cls-2" points="234.99 187.48 207.97 187.48 193.11 165.31 197.64 154.25 234.99 187.48"/>
          <g>
            <path class="cls-4" d="m200.62,157.94c0,7.43-3.01,13.46-6.73,13.46s-6.73-6.03-6.73-13.46,3.01-13.46,6.73-13.46,6.73,6.03,6.73,13.46Z"/>
            <path class="cls-2" d="m197.8,156.7c0,2.88-1.05,5.21-2.34,5.21s-2.34-2.33-2.34-5.21,1.05-5.21,2.34-5.21,2.34,2.33,2.34,5.21Z"/>
            <path class="cls-2" d="m195.7,169.52c-.4-.19-9.61-4.94-4.15-23.14l.81.24c-5.25,17.52,3.62,22.09,3.71,22.13l-.37.76Z"/>
            <rect class="cls-2" x="189.33" y="166.88" width="4.23" height=".85" transform="translate(-62.72 161.03) rotate(-39.74)"/>
            <rect class="cls-2" x="188.06" y="161.91" width="2.9" height=".85" transform="translate(-39.23 62.61) rotate(-17.03)"/>
            <rect class="cls-2" x="187.59" y="157.45" width="2.7" height=".85" transform="translate(-6.53 8.17) rotate(-2.43)"/>
            <rect class="cls-2" x="187.59" y="153.83" width="2.78" height=".85"/>
            <rect class="cls-2" x="189.57" y="148.84" width=".85" height="2.11" transform="translate(-8.93 287.72) rotate(-72.99)"/>
          </g>
        </g>
        <g>
          <path class="cls-6" d="m183.24,108.77l-6.44-5.61c.41.08-9.63,3.77-9.63,3.77,0,0-7.05-7.04-12.58-5.11-5.53,1.93.34,19.44.34,19.44l16.29-1.17-2.89-9.05s4.71,6.03,14.91-2.27Z"/>
          <path class="cls-4" d="m166.4,118.54c-2-3.44-3.32-7.45-2.9-11.46.05-.43-.84-.16-.88.23-.43,4.05.92,8.15,2.94,11.62.21.36,1.04-.04.84-.39h0Z"/>
          <path class="cls-4" d="m163.89,120.02c-3.55-2.65-4.07-8.58-2.78-12.53.14-.43-.73-.21-.83.1-1.33,4.07-.81,10.19,2.86,12.93.27.21,1.05-.28.75-.5h0Z"/>
          <path class="cls-4" d="m159.25,119.91c-3.48-2.95-3.28-10.23-1.54-13.93.18-.39-.7-.17-.83.11-1.81,3.87-1.97,11.28,1.62,14.32.25.21,1.04-.26.75-.5h0Z"/>
        </g>
      </g>
    </g>
  </g>
</svg>