<?xml version="1.0" encoding="UTF-8"?>
<svg id="_Слой_2" data-name="Слой 2" xmlns="http://www.w3.org/2000/svg" xmlns:xlink="http://www.w3.org/1999/xlink" viewBox="0 0 179.71 176.78">
  <defs>
    <style>
      .cls-1 {
        fill: #fff;
      }

      .cls-2 {
        fill: #f19e39;
      }

      .cls-3 {
        fill: #e88a23;
      }

      .cls-4 {
        clip-path: url(#clippath);
      }

      .cls-5 {
        fill: #06012c;
      }

      .cls-6 {
        fill: #5b13f1;
      }

      .cls-7, .cls-8 {
        fill: none;
      }

      .cls-8 {
        stroke: #fff;
        stroke-linecap: round;
        stroke-linejoin: round;
        stroke-width: .64px;
      }
    </style>
    <clipPath id="clippath">
      <rect class="cls-7" x="33.14" y="30.21" width="139.57" height="139.57"/>
    </clipPath>
  </defs>
  <g id="OBJECTS">
    <g>
      <path class="cls-1" d="m33.14,176.78c-3.87,0-7-3.13-7-7v-2.8c-5.64-1.01-11.1-2.91-16.25-5.66-2.08-1.11-3.45-3.18-3.67-5.53L.03,89.09c-.35-3.73,2.31-7.07,6.02-7.58l12.3-1.69c.32-.04.64-.07.96-.07.17,0,.34,0,.51.02,1.09-.73,2.4-1.15,3.79-1.17l2.54-.03V30.21c0-3.87,3.13-7,7-7h29.17l1.18-.85c.15-.11.3-.21.46-.3.34-1.2,1-2.33,1.97-3.24l8.06-7.49c1.02-.95,2.26-1.54,3.55-1.77.32-.36.69-.69,1.09-.98l10.07-7.26c1.24-.89,2.67-1.32,4.09-1.32,2.07,0,4.12.92,5.5,2.66l16.23,20.55h58.2c3.87,0,7,3.13,7,7v139.57c0,3.87-3.13,7-7,7H33.14Z"/>
      <rect class="cls-2" x="33.14" y="30.21" width="139.57" height="139.57"/>
      <g class="cls-4">
        <path class="cls-3" d="m48.39,81.85c4.87-5.67,7.31-13,11.41-19.25,6.82-10.4,18.42-17.51,30.77-18.88,9.8-1.08,19.6,1.27,29.32,2.95,9.72,1.68,20.03,2.63,29.17-1.06,9.14-3.69,16.55-13.36,14.57-23.02-1.69-8.24-9.31-13.86-16.89-17.49-28.85-13.81-63.32-9.9-93.47.79-9.76,3.46-19.41,7.67-27.54,14.09-8.13,6.42-14.69,15.27-16.7,25.44-1.66,8.39-.22,16.9-.03,25.35.11,4.77-3.13,15-.16,19.16,3.61,5.06,15.68,3.43,20.85,2.39,7.11-1.44,13.93-4.91,18.7-10.46Z"/>
        <path class="cls-3" d="m47.67,209.55c-5.34-18.27-1.41-39,10.26-54.03,11.66-15.04,30.76-24.01,49.78-23.38,12.3.41,25.98,4.22,35.98-2.95,5.65-4.05,8.63-10.72,12.34-16.6,3.93-6.23,9.17-11.99,16.04-14.66,6.87-2.67,15.57-1.53,20.27,4.14,3.09,3.73,4.07,8.73,4.77,13.52,2.44,16.78,2.69,33.87.73,50.71-.66,5.68-1.68,11.6-5.16,16.14-4.33,5.66-11.57,8.08-18.36,10.21-20.54,6.43-41.18,12.87-62.47,16.09-21.28,3.22-43.4,3.11-63.91-3.42.97-2.75,1.93-5.51,2.9-8.26"/>
      </g>
      <g>
        <g>
          <g>
            <path class="cls-5" d="m62.98,87.44l-.22,2.01-7.18,65.19-.23,2.09c-4.51,1.94-14.21,5.37-26.36,3.62-6.82-.98-12.19-3.27-15.79-5.2l-.23-2.51-5.75-61.92-.21-2.27,12.3-1.69,2.4,6.93c.14.41.74.36.81-.08l.92-6.31.25-1.7,11-.13.26,1.86.97,7.04c.06.43.65.49.8.09l2.52-6.76.53-1.41,8.79-1.21.32,1.93,1.15,6.97c.06.39.59.48.78.13l3.56-6.54.81-1.48,7.83,1.34Z"/>
            <path class="cls-6" d="m88.78,110.89l-2.21,2.53-31.65,36.3c-2.62,3-6.8,4.12-10.57,2.83l-.06-.02c-10.39-3.57-15.96-14.85-12.46-25.27l.48-1.44c.86-2.57,2.75-4.67,5.22-5.8l36.13-16.5,4.18-1.91,10.95,9.27Z"/>
            <path class="cls-6" d="m15.54,116.69l-.47-5.38c-.35-4.07,2.86-7.57,6.95-7.56l31.46.07c.86,0,1.55.7,1.55,1.55h0c0,.79-.59,1.46-1.38,1.55l-18.08,2.03c-4.5.5-8.46,3.21-10.55,7.23l-1.15,2.19c-.77,1.47-2.3,2.39-3.96,2.38h0c-2.28-.02-4.18-1.77-4.38-4.05Z"/>
          </g>
          <polygon class="cls-5" points="88.78 110.89 86.58 113.42 73.66 103.52 77.84 101.62 88.78 110.89"/>
          <polygon class="cls-6" points="19.3 86.76 19.93 88.56 7.21 90.71 7 88.44 19.3 86.76"/>
          <polygon class="cls-6" points="34.69 85.47 34.94 87.33 23.44 87.3 23.69 85.6 34.69 85.47"/>
          <polygon class="cls-6" points="48.54 85.08 48.86 87.01 39.23 87.7 39.76 86.29 48.54 85.08"/>
          <polygon class="cls-6" points="62.98 87.44 62.76 89.45 54.35 87.58 55.16 86.1 62.98 87.44"/>
          <path class="cls-6" d="m55.57,154.64l-.23,2.09c-4.51,1.94-14.21,5.37-26.36,3.62-6.82-.98-12.19-3.27-15.79-5.2l-.23-2.51c4.94,1.88,11.72,5.34,20.2,4.88,9.31-.49,17.04-1.43,22.41-2.88Z"/>
        </g>
        <g>
          <g>
            <g>
              <path class="cls-6" d="m53.06,80.39l3.34.31,47.96,4.45c3.97.37,7.77-1.71,9.61-5.24l.03-.06c5.06-9.75,1.31-21.76-8.4-26.89l-1.34-.71c-2.4-1.27-5.22-1.48-7.78-.6l-37.54,12.97-4.34,1.5-1.53,14.27Z"/>
              <polygon class="cls-5" points="53.06 80.39 56.4 80.7 58.94 64.62 54.59 66.12 53.06 80.39"/>
            </g>
            <path class="cls-5" d="m134.31,59.56c-.08.24-.16.48-.25.73-.38,1.08-.83,2.26-1.38,3.52-.04.1-.09.2-.13.3-.03.08-.07.15-.1.23,0,.02-.02.05-.03.07,0,.02-.02.05-.03.07-.02.06-.05.11-.08.17-.02.05-.04.09-.06.14-.02.05-.04.1-.07.14-.06.13-.12.26-.19.4-.03.06-.06.12-.09.18-.04.09-.08.18-.13.26-.11.23-.23.47-.35.7-.05.09-.09.18-.14.27-.02.05-.05.1-.07.14-.02.03-.04.07-.05.1-.11.21-.22.42-.33.62-.04.08-.09.16-.13.24-.06.11-.12.22-.18.33-.05.08-.09.16-.14.24-.07.13-.15.26-.23.39,0,0,0,.01-.01.02-.06.11-.13.22-.19.33-.06.11-.13.22-.2.33-.07.11-.13.22-.2.33-.14.22-.28.44-.42.67-.05.08-.11.17-.16.25-.11.17-.23.34-.34.51-.05.07-.1.14-.15.21-.04.05-.07.11-.11.16-.05.07-.1.14-.14.21-.08.11-.16.23-.24.34-.03.04-.06.08-.08.12-.05.07-.11.15-.16.22-.07.1-.14.2-.21.3-.05.07-.1.14-.15.21-.05.06-.09.13-.14.19-.05.07-.1.14-.16.21-.05.06-.09.13-.14.19-.02.02-.04.05-.05.07-.03.04-.06.08-.09.12-.11.14-.22.28-.33.43-.12.15-.23.29-.35.44-.07.09-.15.18-.22.27-.07.09-.14.17-.21.26-.03.03-.05.06-.08.09-.02.02-.04.04-.05.07-.08.1-.16.19-.24.28-.09.11-.19.22-.28.33-.03.03-.05.07-.08.1-.12.14-.24.27-.35.4-.14.16-.29.32-.43.48-.19.21-.39.42-.59.63-.14.14-.27.29-.41.43-.23.24-.47.48-.7.71-.07.07-.14.14-.22.21-.15.15-.3.29-.45.43-.1.1-.2.19-.3.28-.13.12-.25.23-.38.35-.06.05-.11.11-.17.16-.07.06-.14.13-.21.19-.14.13-.29.26-.43.38-.02.01-.03.03-.05.04-.16.14-.31.27-.47.4-.04.03-.08.07-.12.1-.04.03-.07.06-.11.09-.09.08-.18.15-.27.22-.16.14-.33.27-.5.4-.16.13-.32.26-.49.38-.13.1-.26.2-.4.3-.08.06-.16.12-.24.18-.04.03-.07.06-.11.09-.07.06-.15.11-.22.17,0,0,0,0,0,0,0,0-.01,0-.02.01-.11.08-.22.16-.34.25-.08.06-.17.12-.26.19-.1.07-.2.14-.29.21-.2.14-.39.28-.59.41-.07.05-.14.1-.21.15-.07.05-.14.09-.21.14-.15.1-.29.19-.44.29-.1.07-.2.13-.3.2-.1.06-.19.12-.29.18-.15.1-.31.19-.46.29-.05.03-.09.06-.14.09-.14.09-.29.17-.42.26-.04.02-.07.04-.11.06-.09.06-.19.11-.28.17-.19.11-.37.22-.55.32-.18.11-.36.21-.54.31-.09.05-.18.1-.27.15-.1.05-.2.11-.29.16-.1.05-.2.11-.3.16-.1.05-.2.11-.3.16-.14.07-.29.15-.43.22s-.28.14-.42.21c-.11.05-.22.11-.33.16-.17.08-.33.16-.49.24-.12.06-.24.11-.36.17-1.46.68-2.75,1.19-3.79,1.58l-1.6-1.35-2-1.69-2.51-2.11-28.44-23.95-16.88-14.21-.34-.29-1.55-1.3,3.17-4.26h0s1.56-2.11,1.56-2.11l1.6.51.2.06,6.89,2.21c.38.12.7-.3.47-.63l-3.98-5.84-.21-.32-.89-1.3,7.19-5.19.7.34.65.32,6.48,3.16c.39.19.78-.27.52-.62l-4.15-5.76-.02-.02-1.08-1.5,8.06-7.49,1.1.86.26.2,5.02,3.93c.34.27.82-.1.64-.5l-3.04-6.68,10.07-7.26,1.03,1.3.38.49,37.31,47.23,1.24,1.57,1.56,1.98Z"/>
            <rect class="cls-6" x="65.14" y="48.3" width="9.9" height="7.82" rx="2.23" ry="2.23" transform="translate(-13.12 78.93) rotate(-54.48)"/>
            <rect class="cls-6" x="71.61" y="38.04" width="9.9" height="7.82" rx="2.24" ry="2.24" transform="translate(-5.94 70.49) rotate(-47.8)"/>
            <rect class="cls-6" x="80.45" y="28.29" width="9.9" height="7.82" rx="2.24" ry="2.24" transform="translate(-.38 63.38) rotate(-40.63)"/>
            <rect class="cls-6" x="91.91" y="20.98" width="9.9" height="7.82" rx="2.24" ry="2.24" transform="translate(-1.61 42.38) rotate(-24.48)"/>
            <path class="cls-6" d="m132.68,63.82c-1.38,3.15-3.36,6.77-6.22,10.41-4.89,6.22-10.53,10.18-15.16,12.67l-9.85-9.94c-2.33-2.36-2.32-6.16.04-8.5l13.79-13.66c2.36-2.34,6.16-2.32,8.49.04l8.9,8.99Z"/>
            <path class="cls-5" d="m134.31,59.56c-1.28,3.88-3.59,9.24-7.85,14.66-7.59,9.64-16.97,13.86-21.58,15.56l-1.6-1.35-2-1.69c5.1-3.21,21.27-14.28,30.23-30.73l1.24,1.57,1.56,1.98Z"/>
          </g>
          <polygon class="cls-6" points="93.82 8.3 83.4 15.76 82.72 14.26 92.79 7 93.82 8.3"/>
          <polygon class="cls-6" points="80.22 17.6 71.78 25.44 70.69 23.94 78.75 16.45 80.22 17.6"/>
          <polygon class="cls-6" points="69.13 28.78 61.28 34.52 60.39 33.22 67.59 28.03 69.13 28.78"/>
          <polygon class="cls-6" points="57.91 39.03 56.31 38.52 54.75 40.62 54.74 40.63 51.57 44.88 53.11 46.19 58.11 39.1 57.91 39.03"/>
          <path class="cls-6" d="m103.72,88.81l1.41,1.23c4.61-1.7,13.66-5.59,21.25-15.23,4.26-5.42,6.64-11.36,7.93-15.24l-1.48-1.87c-2.28,4.77-4.97,12.42-11.42,17.94-7.08,6.06-12.8,10.51-17.69,13.17Z"/>
        </g>
      </g>
      <g>
        <g>
          <g>
            <path class="cls-1" d="m156.31,73.05c.28,0,.56-.11.77-.32.43-.43.43-1.12,0-1.55l-5.1-5.1c-.43-.43-1.12-.43-1.55,0-.43.43-.43,1.12,0,1.55l5.1,5.1c.21.21.49.32.77.32Z"/>
            <path class="cls-1" d="m151.21,73.05c.28,0,.56-.11.77-.32l5.1-5.1c.43-.43.43-1.12,0-1.55-.43-.43-1.12-.43-1.55,0l-5.1,5.1c-.43.43-.43,1.12,0,1.55.21.21.49.32.77.32Z"/>
          </g>
          <g>
            <path class="cls-1" d="m156.31,62.83c.28,0,.56-.11.77-.32.43-.43.43-1.12,0-1.55l-5.1-5.1c-.43-.43-1.12-.43-1.55,0s-.43,1.12,0,1.55l5.1,5.1c.21.21.49.32.77.32Z"/>
            <path class="cls-1" d="m151.21,62.83c.28,0,.56-.11.77-.32l5.1-5.1c.43-.43.43-1.12,0-1.55-.43-.43-1.12-.43-1.55,0l-5.1,5.1c-.43.43-.43,1.12,0,1.55.21.21.49.32.77.32Z"/>
          </g>
          <g>
            <path class="cls-1" d="m156.31,83.27c.28,0,.56-.11.77-.32.43-.43.43-1.12,0-1.55l-5.1-5.1c-.43-.43-1.12-.43-1.55,0s-.43,1.12,0,1.55l5.1,5.1c.21.21.49.32.77.32Z"/>
            <path class="cls-1" d="m151.21,83.27c.28,0,.56-.11.77-.32l5.1-5.1c.43-.43.43-1.12,0-1.55-.43-.43-1.12-.43-1.55,0l-5.1,5.1c-.43.43-.43,1.12,0,1.55.21.21.49.32.77.32Z"/>
          </g>
        </g>
        <g>
          <path class="cls-1" d="m144.94,160.66c0,.87.71,1.58,1.58,1.58s1.57-.71,1.57-1.58-.71-1.57-1.57-1.57-1.58.71-1.58,1.57Z"/>
          <path class="cls-1" d="m139.06,160.66c0,.87.71,1.58,1.58,1.58s1.57-.71,1.57-1.58-.71-1.57-1.57-1.57-1.58.71-1.58,1.57Z"/>
          <path class="cls-1" d="m133.17,160.66c0,.87.71,1.58,1.57,1.58s1.57-.71,1.57-1.58-.71-1.57-1.57-1.57-1.57.71-1.57,1.57Z"/>
          <path class="cls-1" d="m127.28,160.66c0,.87.71,1.58,1.58,1.58s1.57-.71,1.57-1.58-.71-1.57-1.57-1.57-1.58.71-1.58,1.57Z"/>
        </g>
        <path class="cls-8" d="m70.05,153.56c0,1.78,1.44,3.22,3.22,3.22s3.22-1.44,3.22-3.22-1.44-3.22-3.22-3.22-3.22,1.44-3.22,3.22Z"/>
        <path class="cls-8" d="m40.66,53.9c0,1.78,1.44,3.22,3.22,3.22s3.22-1.44,3.22-3.22-1.44-3.22-3.22-3.22-3.22,1.44-3.22,3.22Z"/>
      </g>
    </g>
  </g>
</svg>