<?xml version="1.0" encoding="UTF-8"?>
<svg id="_Слой_2" data-name="Слой 2" xmlns="http://www.w3.org/2000/svg" viewBox="0 0 253.34 187.36">
  <defs>
    <style>
      .cls-1 {
        fill: #a7d640;
      }

      .cls-2 {
        fill: #fff;
      }

      .cls-3 {
        opacity: .5;
      }

      .cls-4 {
        fill: #488005;
      }

      .cls-5 {
        fill: #332fba;
      }

      .cls-6 {
        fill: #d811ad;
      }

      .cls-7 {
        fill: #0a1640;
      }

      .cls-8 {
        fill: #ff8cdb;
      }

      .cls-9 {
        fill: #6b7fff;
      }

      .cls-10 {
        fill: #e38921;
      }

      .cls-11 {
        opacity: .25;
      }
    </style>
  </defs>
  <g id="OBJECTS">
    <g>
      <g>
        <g>
          <path class="cls-5" d="m115.33,63.36l7.59,43.21c3.93,22.37-4.18,45.17-21.37,60.02l-21.79,18.76c-1.02.87-2.42,1.12-3.67.65l-26.88-10.21c-5.26-2.01-10.16-4.67-14.61-7.86-13.53-9.72-22.98-24.46-25.94-41.28L1.06,83.43c-.92-5.21.18-10.6,3.1-15,19.39-29.17,72.85-40.48,103.13-18.12.65.48,1.27.99,1.84,1.54,3.24,3.04,5.42,7.08,6.2,11.5Z"/>
          <path class="cls-9" d="m72.93,45.69c10.85.59,21.36,3.72,30.21,10.25,2.8,2.07,4.69,5.13,5.3,8.62l7.59,43.21c3.48,19.84-3.82,40.35-19.04,53.51l-20.28,17.46-25-9.5c-18.81-7.19-32.67-23.98-36.15-43.82l-7.59-43.21c-.61-3.49.11-7,2.04-9.91,7.09-10.67,17.97-17.87,30.27-21.96,7.09-2.36,22.1-5.22,32.66-4.65Z"/>
          <path class="cls-6" d="m70.78,153.65c-4.14,0-7.82-3.17-8.56-7.38l-2.62-14.91c0-.06-.06-.09-.11-.09l-15.16,2.66c-.5.09-1,.13-1.5.13-4.47,0-8.26-3.5-8.62-7.98-.35-4.39,2.88-8.44,7.35-9.23l14.91-2.62c.06-.01.1-.07.09-.13l-2.66-15.14c-.42-2.39.19-4.86,1.68-6.79,1.51-1.95,3.7-3.13,6.16-3.33.23-.02.45-.03.67-.03,4.14,0,7.82,3.17,8.56,7.38l2.62,14.91c0,.06.06.09.11.09l14.93-2.62c.52-.09,1.04-.14,1.57-.14,3.98,0,7.47,2.59,8.49,6.31.65,2.39.29,4.85-1.03,6.93-1.3,2.05-3.42,3.47-5.81,3.89l-15.14,2.66c-.05,0-.1.08-.09.13l2.66,15.14c.42,2.39-.19,4.86-1.68,6.79-1.51,1.95-3.7,3.13-6.16,3.33-.23.02-.45.03-.67.03h0Z"/>
          <g class="cls-3">
            <path class="cls-2" d="m17.36,77.8c1.42,4.3,2.54,8.65,3.55,13.03,1.01,4.37,1.91,8.76,2.69,13.18.78,4.41,1.47,8.84,2.01,13.3.56,4.45,1,8.92,1.14,13.45.03.86-.65,1.57-1.5,1.6-.7.02-1.31-.43-1.52-1.07-1.41-4.3-2.52-8.66-3.51-13.03-1.01-4.37-1.87-8.77-2.64-13.19-.77-4.41-1.42-8.85-1.96-13.31-.54-4.46-.97-8.93-1.1-13.46-.02-.81.61-1.48,1.42-1.5.66-.02,1.23.41,1.43,1Z"/>
          </g>
          <g>
            <path class="cls-8" d="m35.11,80.52c2.16-3,7.1-4.84,11.74-3.22,3.81,1.33,5.39,5.68-.32,9-6.67,3.87-15.22-.51-11.42-5.78Z"/>
            <path class="cls-8" d="m69.11,74.55c2.16-3,7.1-4.84,11.74-3.22,3.81,1.33,5.39,5.68-.32,9-6.67,3.87-15.22-.51-11.42-5.78Z"/>
          </g>
          <g class="cls-11">
            <path class="cls-7" d="m115.33,63.36l7.59,43.21c3.93,22.37-4.18,45.17-21.37,60.02l-21.79,18.76c-1.02.87-2.42,1.12-3.67.65l-26.88-10.21c-5.26-2.01-10.16-4.67-14.61-7.86,6.44-10.91,18.89-17.26,31.43-19.32,8.12-1.34,17.3-1.5,23.02-7.42,3.87-4,5.19-9.79,5.97-15.31,1.58-11.26,1.58-22.74.01-34.01-1.43-10.19-3.94-21.38,1.45-30.14,2.97-4.81,7.5-7.7,12.67-9.87,3.24,3.04,5.42,7.08,6.2,11.5Z"/>
          </g>
        </g>
        <g>
          <path class="cls-7" d="m53.71,77.29c1.24.91,2.73,1.4,4.22,1.4.41,0,.82-.04,1.23-.11,1.87-.34,3.55-1.47,4.61-3.1,1.09-1.66,1.44-3.64.99-5.55-.09-.4-.5-.64-.9-.56-.4.09-.65.5-.56.9.36,1.52.08,3.08-.79,4.4-.84,1.28-2.17,2.18-3.64,2.45-1.48.27-3.05-.1-4.3-1.02-1.26-.93-2.09-2.35-2.27-3.89-.05-.41-.43-.69-.83-.65-.41.05-.7.42-.65.83.23,1.95,1.28,3.74,2.87,4.92Z"/>
          <path class="cls-7" d="m35.1,71.41c-.02.41.3.76.71.77,0,0,.02,0,.03,0,.4,0,.73-.31.74-.71.12-2.9,2.14-5.24,4.6-5.33,2.05-.12,4.03,1.39,4.92,3.65.15.38.58.57.97.42.38-.15.57-.58.42-.97-1.12-2.85-3.66-4.7-6.36-4.59-1.58.06-3.02.81-4.1,1.98l-3.35-1.99c-.36-.21-.81-.09-1.02.26-.21.35-.09.81.26,1.02l3.22,1.91c-.16.28-.31.57-.44.88l-3.73-.62c-.42-.08-.79.21-.86.61-.07.41.21.79.61.86l3.53.58c-.08.41-.14.83-.16,1.26Z"/>
          <path class="cls-7" d="m67.57,66.61h.02c.4,0,.73-.32.74-.72.06-2.43,1.42-4.48,3.38-5.11,2.35-.75,5.04.77,6.14,3.45.16.38.59.56.97.41.38-.16.56-.59.41-.97-.16-.4-.36-.77-.58-1.13l3.12-1.75c.36-.2.49-.66.28-1.01-.2-.36-.66-.48-1.01-.28l-3.3,1.85c-.23-.24-.46-.47-.71-.68l2.38-2.9c.26-.32.21-.79-.1-1.05-.32-.26-.79-.21-1.05.1l-2.47,3.01c-1.41-.74-3.02-.95-4.53-.46-2.56.82-4.33,3.42-4.41,6.49-.01.41.31.75.72.76Z"/>
          <path class="cls-7" d="m123.66,106.43l-7.59-43.21c-.8-4.56-3.08-8.79-6.42-11.91-.59-.57-1.24-1.1-1.91-1.6-14.1-10.42-34.21-14.28-55.16-10.59-21.14,3.71-39.47,14.52-49.02,28.9-3.03,4.57-4.18,10.09-3.22,15.54l7.59,43.21c2.97,16.91,12.29,31.74,26.24,41.76,4.56,3.27,9.53,5.95,14.78,7.96l26.88,10.21c.5.19,1.03.29,1.55.29,1.03,0,2.05-.37,2.87-1.06l21.8-18.77c17.29-14.94,25.57-38.21,21.62-60.71Zm-22.59,59.59l-21.79,18.76c-.81.7-1.93.89-2.92.51l-26.88-10.21c-5.13-1.96-9.99-4.57-14.44-7.77-13.63-9.79-22.74-24.29-25.64-40.81L1.8,83.3c-.89-5.07.17-10.21,2.99-14.46,9.34-14.05,27.3-24.61,48.04-28.25,5.12-.9,10.18-1.34,15.11-1.34,14.88,0,28.56,4.03,38.91,11.67.63.46,1.22.96,1.78,1.49,3.11,2.91,5.23,6.85,5.97,11.09l7.59,43.21c3.86,21.99-4.23,44.73-21.12,59.33Z"/>
          <path class="cls-7" d="m90.21,107.7c-.57,0-1.14.05-1.69.15l-14.29,2.51-2.51-14.29c-.8-4.56-4.79-8-9.29-8-.24,0-.48,0-.73.03-2.64.21-5.08,1.53-6.69,3.62-1.62,2.09-2.28,4.78-1.83,7.37l2.55,14.51-14.28,2.51c-4.85.85-8.35,5.25-7.97,10.02.39,4.86,4.5,8.66,9.36,8.66.54,0,1.09-.05,1.63-.14l14.51-2.55,2.51,14.29c.8,4.56,4.79,8,9.29,8,.24,0,.48,0,.73-.03,2.64-.21,5.08-1.53,6.69-3.62,1.62-2.09,2.28-4.78,1.83-7.37l-2.55-14.51,14.51-2.55c2.6-.46,4.89-2,6.31-4.23,1.41-2.23,1.82-4.97,1.12-7.53-1.11-4.04-4.89-6.85-9.21-6.85Zm1.53,17.14l-15.14,2.66c-.46.08-.78.52-.69.99l2.66,15.14c.8,4.54-2.47,8.87-7.17,9.25-.21.02-.41.02-.61.02-3.84,0-7.15-2.92-7.82-6.77l-2.62-14.91c-.07-.42-.43-.71-.84-.71-.05,0-.1,0-.15.01l-15.14,2.66c-.46.08-.92.12-1.37.12-4.01,0-7.54-3.07-7.88-7.29-.33-4.1,2.69-7.72,6.74-8.44l14.91-2.62c.46-.08.78-.52.69-.99l-2.66-15.14c-.8-4.54,2.47-8.87,7.17-9.25.21-.02.41-.02.61-.02,3.84,0,7.15,2.92,7.82,6.77l2.62,14.91c.07.41.43.71.84.71.05,0,.1,0,.15-.01l14.91-2.62c.48-.08.96-.13,1.44-.13,3.54,0,6.82,2.26,7.78,5.76,1.25,4.55-1.71,9.1-6.25,9.9Z"/>
        </g>
      </g>
      <g>
        <g>
          <g>
            <path class="cls-4" d="m206.22,89.68c-10.54-7.33-19.82-12.22-20.72-10.93s6.91,8.29,17.45,15.62c10.54,7.33,19.82,12.22,20.72,10.93.9-1.3-6.91-8.29-17.45-15.62Z"/>
            <path class="cls-4" d="m162.72,66.39c10.54,7.33,19.82,12.22,20.72,10.93.9-1.3-6.91-8.29-17.45-15.62-10.54-7.33-19.82-12.22-20.72-10.93-.9,1.3,6.91,8.29,17.45,15.62Z"/>
            <path class="cls-4" d="m184.25,76.8c1.55-.28.97-10.75-1.29-23.39s-5.37-22.66-6.92-22.38c-1.55.28-.97,10.75,1.29,23.39,2.27,12.64,5.37,22.66,6.92,22.38Z"/>
            <path class="cls-4" d="m184.69,79.27c-1.55.28-.97,10.75,1.29,23.39s5.37,22.66,6.92,22.38.97-10.75-1.29-23.39-5.37-22.66-6.92-22.38Z"/>
            <path class="cls-4" d="m185.19,77c1.3.9,8.29-6.91,15.62-17.45,7.33-10.54,12.22-19.82,10.93-20.72-1.3-.9-8.29,6.91-15.62,17.45-7.33,10.54-12.22,19.82-10.93,20.72Z"/>
            <path class="cls-4" d="m183.75,79.07c-1.3-.9-8.29,6.91-15.62,17.45-7.33,10.54-12.22,19.82-10.93,20.72,1.3.9,8.29-6.91,15.62-17.45,7.33-10.54,12.22-19.82,10.93-20.72Z"/>
            <path class="cls-4" d="m208.09,70.89c-12.64,2.27-22.66,5.37-22.38,6.92.28,1.55,10.75.97,23.39-1.29,12.64-2.27,22.66-5.37,22.38-6.92-.28-1.55-10.75-.97-23.39,1.29Z"/>
            <path class="cls-4" d="m183.24,78.25c-.28-1.55-10.75-.97-23.39,1.29s-22.66,5.37-22.38,6.92c.28,1.55,10.75.97,23.39-1.29,12.64-2.27,22.66-5.37,22.38-6.92Z"/>
          </g>
          <g>
            <path class="cls-1" d="m223.67,112.45c-1.47,0-2.88-.44-4.09-1.28-1.57-1.09-2.62-2.73-2.95-4.6-.34-1.88.08-3.78,1.17-5.34.82-1.17,1.94-2.06,3.27-2.58.84-.33,1.72-.49,2.62-.49,1.46,0,2.87.44,4.07,1.28,3.24,2.25,4.04,6.72,1.79,9.96-.55.79-1.23,1.44-2.03,1.96-1.15.72-2.47,1.11-3.83,1.11Z"/>
            <path class="cls-1" d="m145.26,57.92c-1.46,0-2.87-.44-4.07-1.28-1.57-1.09-2.62-2.73-2.96-4.61-.34-1.88.08-3.78,1.17-5.35.55-.79,1.23-1.44,2.03-1.96,1.15-.72,2.47-1.11,3.83-1.11,1.47,0,2.88.44,4.09,1.28,1.57,1.09,2.62,2.73,2.95,4.6.34,1.88-.08,3.78-1.17,5.34-.82,1.17-1.94,2.06-3.27,2.58-.84.33-1.72.49-2.62.49Z"/>
            <path class="cls-1" d="m176.03,38.18c-.99,0-1.95-.2-2.86-.6-2.19-.96-3.75-2.93-4.17-5.28-.34-1.88.08-3.78,1.17-5.35,1.09-1.57,2.73-2.62,4.61-2.96.42-.08.85-.11,1.27-.11.52,0,1.04.06,1.55.17,2.82.64,4.96,2.88,5.47,5.72.34,1.88-.08,3.78-1.17,5.34-1.09,1.57-2.72,2.61-4.6,2.95-.42.08-.85.11-1.27.11Z"/>
            <path class="cls-1" d="m192.9,132.19c-.52,0-1.04-.06-1.55-.17-2.82-.64-4.96-2.88-5.47-5.72-.7-3.88,1.89-7.6,5.77-8.3.42-.08.85-.11,1.27-.11.99,0,1.95.2,2.86.6,2.19.96,3.75,2.93,4.17,5.28.34,1.88-.08,3.78-1.17,5.35-1.09,1.57-2.73,2.62-4.61,2.96-.42.08-.85.11-1.27.11Z"/>
            <path class="cls-1" d="m211.74,45.99c-1.46,0-2.87-.44-4.08-1.28-1.17-.82-2.06-1.94-2.58-3.27-.87-2.22-.58-4.72.78-6.68,1.34-1.92,3.54-3.07,5.88-3.07,1.46,0,2.87.44,4.08,1.28.79.55,1.44,1.23,1.96,2.03,1.54,2.44,1.47,5.55-.18,7.92-1.34,1.92-3.53,3.07-5.87,3.07Z"/>
            <path class="cls-1" d="m157.2,124.38c-1.46,0-2.87-.44-4.08-1.28-.78-.54-1.44-1.23-1.96-2.03-1.54-2.44-1.47-5.55.18-7.92,1.34-1.92,3.53-3.07,5.87-3.07,1.46,0,2.87.44,4.08,1.28,1.17.82,2.06,1.94,2.58,3.27.87,2.22.58,4.72-.78,6.68-1.34,1.92-3.54,3.07-5.88,3.07Z"/>
            <path class="cls-1" d="m231.46,76.75c-3.46,0-6.41-2.48-7.02-5.88-.25-1.41-.08-2.83.49-4.13.96-2.19,2.93-3.75,5.28-4.17.42-.08.85-.11,1.27-.11,3.46,0,6.42,2.48,7.04,5.89.17.94.15,1.89-.06,2.82-.64,2.82-2.88,4.96-5.72,5.47-.42.08-.85.11-1.27.11Z"/>
            <path class="cls-1" d="m137.47,93.62c-3.46,0-6.42-2.48-7.04-5.89-.17-.94-.15-1.89.06-2.82.64-2.82,2.88-4.96,5.72-5.47.42-.08.85-.11,1.27-.11,3.46,0,6.41,2.47,7.02,5.88.25,1.41.08,2.84-.49,4.13-.96,2.19-2.93,3.75-5.28,4.17-.42.08-.85.11-1.27.11Z"/>
            <path class="cls-1" d="m184.44,104.24c-2.2,0-4.38-.28-6.5-.83-9.89-2.55-17.45-10.69-19.25-20.74-2.55-14.22,6.94-27.87,21.15-30.42,1.54-.28,3.1-.42,4.65-.42,4.45,0,8.86,1.15,12.77,3.34,6.87,3.86,11.6,10.51,12.99,18.24,2.55,14.22-6.94,27.86-21.15,30.41-1.54.28-3.11.42-4.66.42Z"/>
          </g>
          <g class="cls-11">
            <path class="cls-7" d="m182.19,81.5c.29,1.64,1.86,2.72,3.49,2.43,1.64-.29,2.72-1.86,2.43-3.49-.29-1.64-1.86-2.72-3.49-2.43-1.64.29-2.72,1.86-2.43,3.49Z"/>
            <path class="cls-7" d="m171.62,95.47c.29,1.64,1.86,2.72,3.49,2.43s2.72-1.86,2.43-3.49c-.29-1.64-1.86-2.72-3.49-2.43s-2.72,1.86-2.43,3.49Z"/>
            <path class="cls-7" d="m187.4,98.17c.29,1.64,1.86,2.72,3.49,2.43s2.72-1.86,2.43-3.49c-.29-1.64-1.86-2.72-3.49-2.43-1.64.29-2.72,1.86-2.43,3.49Z"/>
            <path class="cls-7" d="m193.38,83.33c.24,1.32,1.5,2.19,2.81,1.96,1.32-.24,2.19-1.5,1.96-2.81-.24-1.32-1.5-2.19-2.81-1.96-1.32.24-2.19,1.5-1.96,2.81Z"/>
            <path class="cls-7" d="m182,90.82c.24,1.32,1.5,2.19,2.81,1.96,1.32-.24,2.19-1.5,1.96-2.81-.24-1.32-1.5-2.19-2.81-1.96-1.32.24-2.19,1.5-1.96,2.81Z"/>
            <path class="cls-7" d="m171.79,84.11c.19,1.07,1.21,1.78,2.28,1.59,1.07-.19,1.78-1.21,1.59-2.28-.19-1.07-1.21-1.78-2.28-1.59s-1.78,1.21-1.59,2.28Z"/>
            <circle class="cls-7" cx="200.21" cy="90.74" r="1.97"/>
            <path class="cls-7" d="m201.68,78.56c.19,1.07,1.21,1.78,2.28,1.59s1.78-1.21,1.59-2.28-1.21-1.78-2.28-1.59-1.78,1.21-1.59,2.28Z"/>
          </g>
          <g>
            <g>
              <g class="cls-3">
                <path class="cls-2" d="m224.49,103.72c-.06-.07-1.46-1.49-1.3-1.33-.28-.34-.24-.83.09-1.09.52-.41,2.08-.02,2.68.33,2.42,1.2,3.14,4.56,1.18,6.39-.41.39-1.12.13-1.22-.43-.18-.99-.21-2.64-1.43-3.88Z"/>
              </g>
              <g class="cls-3">
                <path class="cls-2" d="m144.46,52.35c.06.07,1.46,1.49,1.3,1.33.28.34.24.83-.09,1.09-.52.41-2.08.02-2.68-.33-2.42-1.2-3.14-4.56-1.18-6.39.41-.39,1.12-.13,1.22.43.18.99.21,2.64,1.43,3.88Z"/>
              </g>
            </g>
            <g>
              <g class="cls-3">
                <path class="cls-2" d="m174.34,31.58c-.01.09-.02,2.08-.02,1.86-.04.44-.41.76-.83.71-.65-.08-1.48-1.46-1.66-2.13-.86-2.56,1-5.44,3.69-5.36.57.02.88.7.56,1.16-.57.83-1.72,2.02-1.73,3.76Z"/>
              </g>
              <g class="cls-3">
                <path class="cls-2" d="m194.61,124.49c.01-.09.02-2.08.02-1.86.04-.44.41-.76.83-.71.65.08,1.48,1.46,1.66,2.13.86,2.56-1,5.44-3.69,5.35-.57-.02-.88-.7-.56-1.16.57-.83,1.72-2.02,1.73-3.76Z"/>
              </g>
            </g>
            <g>
              <g class="cls-3">
                <path class="cls-2" d="m210.15,38.02c-.07.06-1.49,1.46-1.33,1.3-.34.28-.83.24-1.09-.09-.41-.52-.02-2.08.33-2.68,1.2-2.42,4.56-3.14,6.39-1.18.39.41.13,1.12-.43,1.22-.99.18-2.64.21-3.88,1.43Z"/>
              </g>
              <g class="cls-3">
                <path class="cls-2" d="m158.79,118.05c.07-.06,1.49-1.46,1.33-1.3.34-.28.83-.24,1.09.09.41.52.02,2.08-.33,2.68-1.2,2.42-4.56,3.14-6.39,1.18-.39-.41-.13-1.12.43-1.22.99-.18,2.64-.21,3.88-1.43Z"/>
              </g>
            </g>
            <g>
              <g class="cls-3">
                <path class="cls-2" d="m230.93,67.9c-.09-.01-2.08-.02-1.86-.02-.44-.04-.76-.41-.71-.83.08-.65,1.46-1.48,2.13-1.66,2.56-.86,5.44,1,5.35,3.69-.02.57-.7.88-1.16.56-.83-.57-2.02-1.72-3.76-1.73Z"/>
              </g>
              <g class="cls-3">
                <path class="cls-2" d="m138.02,88.17c.09.01,2.08.02,1.86.02.44.04.76.41.71.83-.08.65-1.46,1.48-2.13,1.66-2.56.86-5.44-1-5.35-3.69.02-.57.7-.88,1.16-.56.83.57,2.02,1.72,3.76,1.73Z"/>
              </g>
            </g>
          </g>
          <g>
            <path class="cls-8" d="m188.62,70.96c.35,1.92,2.92,3.07,5.74,2.56s4.84-2.48,4.49-4.4c-.34-1.92-2.92-3.07-5.74-2.56-2.83.51-4.84,2.48-4.49,4.4Z"/>
            <path class="cls-8" d="m167.89,74.68c.34,1.92,2.92,3.07,5.74,2.56,2.83-.51,4.84-2.48,4.49-4.4-.35-1.92-2.92-3.07-5.74-2.56-2.83.51-4.84,2.48-4.49,4.4Z"/>
          </g>
          <path class="cls-2" d="m182.16,62.72c-2.29.47-4.11,2.95-3.49,5.29.88,3.33,6.05,3.43,7.87.94,2.19-3-.93-6.94-4.38-6.24Z"/>
          <g class="cls-3">
            <path class="cls-2" d="m166.72,85.06c.04.09.94,1.95.88,1.83.04.08,1.41,2.63,1.37,2.54.37.79-.62,1.52-1.26.92-7.88-7.41-6.94-17.12-2.8-22.2.52-.64,1.55-.07,1.29.71-.21,1.46-3.18,6.49.53,16.2Z"/>
          </g>
          <g class="cls-11">
            <path class="cls-7" d="m220.01,110.56c-2.91-2.02-3.62-6-1.6-8.91.75-1.08,1.78-1.86,2.93-2.31-1.62,6.13,2.08,9.54,5.77,11.38-2.11,1.33-4.91,1.36-7.09-.16Z"/>
            <path class="cls-7" d="m148.93,45.51c2.91,2.02,3.62,6,1.6,8.91-.75,1.08-1.78,1.86-2.93,2.31,1.62-6.13-2.08-9.54-5.77-11.38,2.11-1.33,4.91-1.36,7.09.16Z"/>
            <path class="cls-7" d="m182.34,29.9c.63,3.48-1.69,6.81-5.17,7.43-1.3.23-2.58.06-3.7-.44,5.48-3.19,5.28-8.22,3.97-12.12,2.44.55,4.43,2.52,4.9,5.13Z"/>
            <path class="cls-7" d="m186.61,126.16c-.63-3.48,1.69-6.81,5.17-7.43,1.3-.23,2.58-.06,3.7.44-5.48,3.19-5.28,8.22-3.97,12.12-2.44-.55-4.43-2.52-4.9-5.13Z"/>
            <path class="cls-7" d="m217,42.49c-2.02,2.91-6,3.62-8.91,1.6-1.08-.75-1.86-1.78-2.31-2.93,6.13,1.62,9.54-2.08,11.38-5.77,1.33,2.11,1.36,4.91-.16,7.09Z"/>
            <path class="cls-7" d="m151.95,113.58c2.02-2.91,6-3.62,8.91-1.6,1.08.75,1.86,1.78,2.31,2.93-6.13-1.62-9.54,2.08-11.38,5.77-1.33-2.11-1.36-4.91.16-7.09Z"/>
            <path class="cls-7" d="m232.6,75.9c-3.48.63-6.81-1.69-7.43-5.17-.23-1.3-.06-2.58.44-3.7,3.19,5.48,8.22,5.28,12.12,3.97-.55,2.44-2.52,4.43-5.13,4.9Z"/>
            <path class="cls-7" d="m136.34,80.17c3.48-.63,6.81,1.69,7.43,5.17.23,1.3.06,2.58-.44,3.7-3.19-5.48-8.22-5.28-12.12-3.97.55-2.44,2.52-4.43,5.13-4.9Z"/>
            <path class="cls-7" d="m209.53,73.54c2.48,13.84-6.72,27.06-20.55,29.55-3.72.67-7.4.49-10.84-.4,32.44-10.37,25.09-35.14,18.77-46.86,6.41,3.6,11.22,9.93,12.62,17.72Z"/>
          </g>
        </g>
        <g>
          <path class="cls-7" d="m239.25,68.21c-.68-3.77-3.95-6.51-7.77-6.51-.46,0-.94.05-1.4.13-2.59.47-4.77,2.19-5.84,4.61-.23.54-.41,1.09-.51,1.66-4.74.3-10.32,1.15-13.61,1.7-1.44-4.49-4-8.48-7.46-11.61,1.87-2.77,4.98-7.49,7.22-11.67.61.14,1.23.22,1.86.22,2.59,0,5.01-1.26,6.48-3.39,1.81-2.61,1.89-6.04.19-8.73-.57-.9-1.29-1.66-2.16-2.26-1.33-.93-2.89-1.42-4.5-1.42-2.59,0-5.02,1.27-6.49,3.4-1.5,2.16-1.83,4.92-.87,7.38.21.55.49,1.07.82,1.55-2.53,2.86-5.46,6.64-8.43,10.79-3.8-1.95-8.03-2.97-12.28-2.97-.41,0-.81,0-1.22.03-.95-5.03-2.05-9.67-3.15-13.34,2.71-1.64,4.27-4.83,3.67-8.13-.56-3.13-2.93-5.61-6.04-6.32-.57-.13-1.15-.19-1.72-.19-.47,0-.95.05-1.41.13-4.28.77-7.15,4.88-6.38,9.17.46,2.59,2.19,4.77,4.61,5.84.53.23,1.09.41,1.66.51.3,4.73,1.14,10.3,1.69,13.6-4.47,1.43-8.45,3.98-11.61,7.46-4.23-2.86-8.31-5.38-11.67-7.2.26-1.06.3-2.17.11-3.27-.38-2.07-1.53-3.88-3.26-5.08-1.33-.93-2.89-1.42-4.51-1.42-1.5,0-2.96.42-4.22,1.23-.9.57-1.65,1.29-2.26,2.16-2.49,3.58-1.6,8.51,1.98,11,1.33.93,2.88,1.41,4.49,1.41.99,0,1.96-.18,2.88-.54.55-.21,1.07-.49,1.55-.82,1.55,1.37,3.38,2.86,5.37,4.41,1.7,1.31,3.53,2.67,5.44,4.03-2.16,4.17-3.16,8.79-2.95,13.48-3.28.63-8.8,1.77-13.34,3.14-1.39-2.3-3.91-3.79-6.73-3.79-.47,0-.95.04-1.41.13-3.13.56-5.61,2.93-6.32,6.04-.23,1.03-.25,2.08-.06,3.13.68,3.76,3.94,6.5,7.76,6.5.46,0,.94-.04,1.4-.13,2.59-.46,4.77-2.19,5.84-4.61.24-.53.41-1.09.52-1.66,2.49-.15,5.21-.46,7.71-.8,2.26-.3,4.34-.63,5.9-.9,1.45,4.49,4.04,8.48,7.46,11.61-2.88,4.24-5.39,8.31-7.21,11.68-.61-.15-1.24-.23-1.88-.23-2.58,0-5.01,1.26-6.48,3.39-1.81,2.61-1.89,6.05-.19,8.74.57.9,1.3,1.65,2.16,2.25,1.33.93,2.89,1.42,4.5,1.42,2.59,0,5.02-1.26,6.49-3.39,1.5-2.17,1.83-4.93.87-7.39-.21-.55-.49-1.07-.81-1.55,1.37-1.55,2.86-3.37,4.41-5.37,1.31-1.69,2.66-3.52,4.01-5.43,1.76.91,3.63,1.62,5.59,2.13,2.17.56,4.43.85,6.68.85.41,0,.81,0,1.22-.03.95,5.03,2.06,9.67,3.15,13.34-.94.56-1.75,1.32-2.38,2.24-1.21,1.73-1.66,3.83-1.29,5.9.57,3.13,2.93,5.61,6.04,6.32.57.13,1.15.18,1.72.18.47,0,.95-.04,1.41-.13,2.07-.37,3.89-1.53,5.09-3.26,1.2-1.74,1.66-3.83,1.28-5.9-.46-2.6-2.19-4.78-4.6-5.84-.54-.24-1.1-.41-1.67-.52-.29-4.73-1.14-10.3-1.68-13.6,4.56-1.47,8.52-4.08,11.6-7.46,2.77,1.86,7.49,4.97,11.67,7.21-.26,1.05-.3,2.16-.11,3.26.38,2.07,1.53,3.88,3.27,5.08,1.33.93,2.88,1.42,4.5,1.42,1.5,0,2.96-.42,4.22-1.22.9-.57,1.65-1.3,2.26-2.16,2.49-3.58,1.6-8.52-1.98-11-1.32-.93-2.88-1.42-4.49-1.42-.98,0-1.96.18-2.88.55-.55.21-1.07.49-1.55.81-1.55-1.37-3.38-2.86-5.37-4.41-1.7-1.31-3.53-2.67-5.44-4.02,2.09-4.07,3.17-8.7,2.95-13.48,5.03-.96,9.67-2.06,13.34-3.15,1.4,2.31,3.92,3.8,6.74,3.8.46,0,.94-.05,1.4-.14,3.13-.56,5.61-2.92,6.32-6.03.23-1.04.25-2.09.07-3.13Zm-32.77-33.03c1.24-1.79,3.24-2.75,5.27-2.75,1.26,0,2.54.37,3.66,1.15.72.5,1.31,1.13,1.76,1.82,1.33,2.11,1.35,4.91-.16,7.09-1.24,1.79-3.23,2.75-5.26,2.75-.39,0-.77-.04-1.15-.11-.49-.09-.98-.24-1.46-.46-.37-.14-.71-.35-1.05-.58-.34-.24-.65-.5-.93-.79-.36-.36-.67-.76-.92-1.19-.18-.3-.34-.62-.46-.95-.75-1.93-.57-4.17.7-5.99Zm-.32,9.23c.33.34.68.64,1.07.91.39.27.78.49,1.21.68-1.61,2.97-3.93,6.79-6.91,11.2-1.07-.89-2.23-1.7-3.45-2.4,3.12-4.37,5.88-7.85,8.08-10.38Zm-31.71-7.18c-.34-.09-.68-.2-.99-.34-1.89-.82-3.35-2.55-3.73-4.73-.63-3.48,1.69-6.82,5.17-7.45.39-.07.77-.1,1.15-.1.47,0,.94.05,1.39.14,2.44.56,4.43,2.52,4.9,5.13.46,2.56-.67,5.03-2.67,6.4-.41.29-.86.53-1.34.71-.37.14-.75.25-1.16.32-.39.07-.76.11-1.14.11h-.08c-.51,0-1.01-.08-1.5-.2Zm1.58,1.69c.46,0,.93-.04,1.39-.13.46-.08.91-.2,1.33-.37.96,3.24,2.03,7.56,3.04,12.8-.69.06-1.39.15-2.08.28s-1.37.27-2.04.45c-.9-5.29-1.4-9.69-1.63-13.04Zm-27.49,17.34c-.31.18-.62.34-.95.46-.74.29-1.54.44-2.34.44-1.26,0-2.53-.38-3.65-1.15-2.9-2.02-3.62-6.02-1.6-8.92.5-.72,1.14-1.31,1.82-1.76,1.03-.65,2.23-.98,3.43-.98s2.55.37,3.66,1.15c2.13,1.48,3.09,4.01,2.64,6.4-.09.49-.23.97-.44,1.44-.16.37-.36.72-.6,1.06-.24.35-.5.66-.79.93-.37.38-.76.68-1.19.93Zm2.31.08c.33-.33.63-.68.9-1.07.27-.39.5-.79.69-1.22,2.95,1.6,6.74,3.91,11.19,6.92-.45.54-.87,1.1-1.27,1.68-.41.58-.78,1.17-1.13,1.77-4.37-3.11-7.85-5.86-10.38-8.07Zm-7.51,32.69c-.83,1.89-2.55,3.35-4.74,3.74-.39.07-.76.11-1.14.11-3.05,0-5.75-2.18-6.3-5.29-.16-.87-.13-1.73.05-2.53.55-2.44,2.52-4.44,5.12-4.9.39-.07.77-.11,1.15-.11,2.13,0,4.09,1.06,5.26,2.77.28.41.52.85.7,1.33.14.38.25.77.33,1.18.07.41.11.8.11,1.2,0,.52-.08,1.02-.21,1.51-.08.34-.19.67-.33.98Zm2.03-2.59c0-.45-.04-.93-.13-1.38-.09-.46-.2-.91-.36-1.34,3.21-.95,7.52-2.01,12.79-3.01.07.69.16,1.39.29,2.08.13.68.27,1.37.45,2.04-5.26.88-9.68,1.39-13.05,1.61Zm17.09,34.45c-1.24,1.78-3.23,2.75-5.27,2.75-1.26,0-2.54-.38-3.66-1.15-.72-.51-1.31-1.14-1.75-1.82-1.34-2.12-1.36-4.92.15-7.1,1.24-1.78,3.24-2.75,5.26-2.75.39,0,.77.04,1.16.12.49.08.97.23,1.44.44.37.16.72.36,1.06.6.34.24.65.5.93.79.36.36.67.76.92,1.19.18.31.34.62.46.95.75,1.92.57,4.17-.7,5.99Zm.32-9.24c-.33-.33-.68-.63-1.07-.9-.39-.27-.79-.5-1.22-.68,1.6-2.95,3.91-6.75,6.93-11.2,1.08.89,2.23,1.69,3.44,2.39-3.12,4.37-5.87,7.85-8.08,10.39Zm31.71,7.19c.35.08.68.19.99.33,1.89.83,3.35,2.55,3.73,4.74.63,3.48-1.69,6.81-5.17,7.44-.39.07-.77.11-1.15.11-.47,0-.94-.06-1.39-.15-2.43-.55-4.43-2.52-4.9-5.13-.46-2.56.67-5.02,2.67-6.4.41-.29.85-.52,1.32-.7.38-.14.77-.25,1.18-.33.39-.07.76-.11,1.14-.11h.07c.51,0,1.02.08,1.5.21Zm-1.59-1.7c-.45,0-.93.05-1.38.13-.46.09-.92.21-1.35.38-.95-3.21-2.01-7.53-3.01-12.81.69-.06,1.4-.15,2.08-.28.69-.13,1.38-.27,2.04-.45.88,5.25,1.38,9.67,1.61,13.04Zm27.5-17.34c.31-.17.62-.33.95-.45.75-.3,1.54-.44,2.34-.44,1.26,0,2.54.37,3.65,1.14,2.9,2.03,3.63,6.02,1.6,8.92-.5.73-1.13,1.31-1.82,1.76-1.03.66-2.23.99-3.43.99s-2.55-.38-3.66-1.15c-2.13-1.49-3.09-4.02-2.64-6.41.09-.5.23-.98.45-1.46.15-.36.36-.7.59-1.04.24-.34.5-.66.79-.93.37-.37.76-.67,1.19-.93Zm-2.31-.07c-.33.33-.63.68-.9,1.07-.27.39-.49.78-.68,1.2-2.96-1.61-6.78-3.92-11.19-6.91.89-1.09,1.69-2.24,2.39-3.44,4.37,3.11,7.85,5.86,10.38,8.08Zm-10.88-10.27c-.21.45-.45.9-.71,1.33-.7,1.22-1.5,2.37-2.4,3.46-.32.39-.66.76-.99,1.13-2.85,3.07-6.46,5.44-10.62,6.82-.47.15-.95.3-1.45.42-.68.18-1.36.34-2.05.46-.7.13-1.41.22-2.1.29-.5.05-1,.08-1.5.1-.32,0-.63.02-.94.02-2.16,0-4.28-.28-6.31-.81-1.77-.45-3.48-1.1-5.09-1.91-.45-.22-.89-.46-1.32-.71-1.22-.7-2.38-1.51-3.46-2.41-.39-.32-.76-.65-1.13-.98-3.07-2.86-5.45-6.47-6.81-10.64-.16-.47-.31-.95-.43-1.44-.17-.68-.33-1.36-.45-2.05-.13-.7-.22-1.4-.28-2.09-.06-.5-.09-1-.11-1.5-.16-4.37.81-8.59,2.7-12.33.21-.44.45-.88.7-1.31.7-1.23,1.51-2.39,2.4-3.48.33-.39.66-.75,1-1.12,2.84-3.07,6.46-5.45,10.62-6.83.47-.15.95-.3,1.45-.42.68-.18,1.36-.34,2.05-.46.7-.13,1.4-.22,2.09-.28.5-.06.99-.09,1.5-.1.31-.02.63-.03.94-.03,4.04,0,7.94.96,11.4,2.72.34.16.68.35,1,.53.11.06.21.13.32.18,1.22.7,2.37,1.51,3.46,2.42.39.31.76.64,1.13.99,3.06,2.84,5.45,6.45,6.82,10.61.15.47.3.95.42,1.45.18.68.34,1.36.46,2.06.13.7.22,1.4.29,2.09.05.5.08,1,.09,1.5.17,4.38-.8,8.59-2.69,12.33Zm4.07-14.09c-.07-.69-.16-1.39-.29-2.08-.13-.69-.28-1.38-.45-2.05,5.3-.89,9.7-1.4,13.05-1.63,0,.46.04.94.13,1.4s.2.91.36,1.33c-3.23.95-7.56,2.03-12.79,3.04Zm26.45-4.37c-.55,2.44-2.51,4.44-5.12,4.91-.39.07-.77.1-1.14.1-2.13,0-4.09-1.06-5.27-2.77-.29-.41-.53-.87-.7-1.35-.14-.37-.25-.75-.33-1.15-.08-.41-.11-.82-.09-1.22,0-.51.07-1.01.19-1.5.09-.34.19-.67.34-.98.82-1.89,2.55-3.35,4.73-3.74.39-.07.76-.1,1.14-.1,3.05,0,5.75,2.18,6.31,5.28.15.87.13,1.73-.06,2.53Z"/>
          <path class="cls-7" d="m175.31,63.69c-.41.05-.7.42-.65.83.08.67-.14,1.34-.56,1.7-.3.26-.67.33-1.11.22-.72-.19-1.16-1.02-1.22-1.73-.04-.41-.39-.7-.81-.68-.41.04-.71.4-.68.81.13,1.46,1.08,2.71,2.31,3.04.26.07.52.11.78.11.63,0,1.21-.22,1.69-.63.8-.69,1.2-1.84,1.06-3.01-.05-.41-.41-.69-.83-.65Z"/>
          <path class="cls-7" d="m193.09,60.06c-.4.11-.63.52-.52.92.19.69.07,1.62-.54,2.05-.36.26-.74.32-1.11.18-.52-.2-.96-.75-1.11-1.4-.1-.4-.5-.65-.9-.55-.4.1-.65.5-.55.9.27,1.14,1.05,2.08,2.04,2.45.3.11.61.17.92.17.55,0,1.09-.18,1.58-.53,1.04-.74,1.5-2.25,1.11-3.66-.11-.4-.52-.63-.92-.52Z"/>
        </g>
      </g>
      <g>
        <g>
          <path class="cls-7" d="m166.09,156.72c-.84-.1-1.8-.31-2.54-.77.64-1.16-1.43-2.27-1.99-1.05-.1.14-.11.3-.14.46.02.6.43.85.88,1.06,1.16.49,2.03,1.49,2.4,2.65.49,1.25.08,2.72-.81,3.72-.96,1.23-2.48,1.44-3.85.98-1.97-.64-3.74-2.55-2.97-4.66v-.05s.03-.05.03-.05c.83.12,1.83.54,2.6.75-.34,1.47,2.12,2.24,2.32.58.19-1.13-1.11-1.68-2-2.14-.43-.22-.74-.55-.98-.92-1.49-2.6.46-5.38,2.89-5.63,1.24-.13,2.77.49,3.71,1.31.92.88,1.29,2.19.46,3.79h-.02Z"/>
          <path class="cls-7" d="m174.56,157.23c-.42-.17-1.01-.25-2.12-.42h-.03s-.02-.01-.02-.01c0,.02-.02.03-.03.05-.13.32-.37,1.59-1.72,9.19v.02s0,.02,0,.02c-.88-.03-2.01-.42-2.87-.44-.01-.22.7-2.75,1.7-9.27l-.02-.02c-.48-.38-1.78-.48-2.04-.62-.05-.19.17-1.66.47-2.74,0-.02-.01-.02,0-.04,2.36.45,4.96.87,7.29,1.6-.1.77-.31,1.87-.6,2.68Z"/>
          <path class="cls-7" d="m179.55,167.46v.02c-.72.05-1.61-.12-2.34-.38h-.02c-.18-.79-.22-2.24-.45-2.97-.58-.17-.56-.09-1.09-.16-.41.69-.65,2.11-1.16,2.83-.02,0-.04.01-.05.01-.2.03-.85-.15-2.45-.34t-.03-.02c.2-.45,1.87-6.49,4.3-11.88.34,0,.61.13,2.17.2.09.94.49,5.18.62,6.39l.51,6.31Zm-3.74-5.58c.4.07.86.11,1.29.17.1-6.14-.33-3.7-1.29-.17Z"/>
          <path class="cls-7" d="m189.25,155.7c-1.48,4.17-4.12,7.92-5.71,12.01-.14-.02-.28-.03-.44-.04-.5-.02-1.12,0-1.66-.02-.14,0-.28-.01-.42-.04h-.04c.7-1.88,1.65-3.99,2.57-6.02v-.03c-.42-2.09-1.58-4.17-1.97-6.19.48.02,1.01-.06,1.52-.04.28.01.57.04.83.18.18,1.05.81,3.03,1.2,3.93.51-.83,1.13-2.84,1.59-3.78.43-.07,1.24-.07,1.86-.05.28.01.53.04.67.06v.02Z"/>
        </g>
        <g>
          <path class="cls-7" d="m140.41,166.6c-.1.12-.2.24-.31.34-1.65,1.55-4.49,1.38-5.98-.34-.38.54-.66.77-2.77,3.47h-.01s-.04,0-.05,0c-.62-.28-1.76-1.25-2.32-1.83,2.08-2.73,5.27-6.35,7.67-9.47,2.74,1.26,6.18,4.59,3.79,7.81h-.01Zm-3.32-4.24s-.03-.02-.05-.02c-.5.69-1.29,1.45-1.57,2.14l.04.03c.6.43,1.33,1.17,2.12,1.09.64-.16,1.11-.87.87-1.55-.15-.74-.71-1.36-1.42-1.7Z"/>
          <path class="cls-7" d="m144.26,178.47c-.73-.4-1.7-.8-2.6-1.36h-.02c.11-1.18.25-3.51-.05-5.08v-.06c-.63.87-1.6,3.02-1.98,3.84-.86-.08-2.57-1.23-2.8-1.29.13.07,5.36-9.81,5.76-10.93,1.26.46,2.79,1.01,4.21,1.99,2.39,1.45,2.52,5,.06,6.47-.79.54-1.72.74-2.75.26l-.06-.03h-.02s0,0,0,0c.04,2.01.53,4.15.23,6.19h.01Zm-1.54-9.52h.02c.46.32,1.03.67,1.57.86.89.26,1.62-.95,1.29-1.71-.22-.66-1.03-1-1.92-1.1-.24.55-.78,1.45-.95,1.96Z"/>
          <path class="cls-7" d="m156.4,173.26c-.16.56-.37,1.11-.6,1.65-.52,1.15-.87,2.24-1.39,3.35l-.26.52c-.35.76-.84,1.49-1.49,1.98-.58.38-1.34.43-2.09.35-.68-.06-1.32-.27-1.94-.56-.87-.43-1.67-.97-1.73-2-.1-.67.08-1.33.31-1.98.6-1.74,1.14-3.52,1.92-5.21.4-.98.99-1.97,1.97-2.48.16-.07.31-.12.49-.15,1.73-.15,3.76.68,4.65,2.14.2.4.3.84.29,1.27.02.39-.05.76-.13,1.12Zm-2.79,1.08s.17-.58.3-.97c.19-.63.1-1.29-.31-1.73-.38-.36-.93-.4-1.38-.27-.49.15-.9.43-1.22.84-.51.77-.89,1.7-1.2,2.65-.18.82-.52,1.64-.59,2.45.09,1.04,1.44,1.68,2.41,1.18.62-.39.46-.45.91-1.37.19-.44.35-.8.37-.85l.31-.79.4-1.13Z"/>
          <path class="cls-7" d="m164.22,175.29c-.4-.2-.99-.33-2.08-.58h-.03s-.02-.01-.02-.01c0,.02-.03.03-.03.05-.16.3-.49,1.55-2.44,9.03v.02s0,.02,0,.02c-.87-.1-1.97-.57-2.83-.67,0-.22.92-2.68,2.42-9.11v-.02c-.47-.42-1.75-.61-2-.78-.04-.19.29-1.64.68-2.69,0-.02-.01-.02,0-.04,2.32.63,4.88,1.26,7.14,2.17-.16.76-.46,1.84-.81,2.62Z"/>
          <path class="cls-7" d="m171.11,183.93c-.09.76-.25,1.59-.57,2.25-2.36-.46-4.91-.76-7.12-1.38.76-4.03,1.28-7.95,2.25-11.88,2.72.37,7.23,1.14,7.21,1.25-.03.84-.31,1.65-.46,2.47v.02c-1.54.05-3.04-.5-4.6-.65h-.05s-.02,0-.02,0c-.11.68-.4,1.38-.36,2.04v.02c.7.18,1.43.3,2.14.45v.02c-.03.81-.28,1.57-.42,2.42-.75.06-1.86-.35-2.14-.2-.25.66-.36,1.61-.41,2.17v.02c1.54.29,2.96.7,4.55.94v.04Z"/>
          <path class="cls-7" d="m175.98,177.47c-.08.12-.53,3.4-.54,5.01,0,.69.18,1.46.85,1.71.51.1,1.04-.04,1.31-.5.31-.52.21-1.15.39-1.72.66.15,1.7.07,2.35.33.56,2.5-1.34,4.99-3.91,4.8-1.69.07-3.77-.73-3.78-2.71.07-1.7.22-3.51.63-7.31-.01-.41.13-.82.31-1.16.27-.6.63-1.08,1.11-1.44.28-.17.59-.27.94-.32,3.32-.76,6.39,2.51,4.96,5.67-.88.11-1.68-.07-2.56-.31-.05-.95.36-2.38-1.02-2.46-.3.02-.7.02-.91.2-.06.05-.1.17-.13.22Z"/>
          <path class="cls-7" d="m189.62,177.77c-.44-.09-1.04-.05-2.16.01h-.05s-.02.04-.02.05c-.07.34-.04,1.62.14,9.35v.02s0,.02,0,.02c-.87.15-2.05,0-2.9.14-.05-.21.14-2.83-.18-9.42l-.02-.02c-.55-.28-1.84-.11-2.12-.2-.09-.18-.17-1.66-.09-2.77,0-.02-.02-.02-.02-.03,2.4-.03,5.04-.13,7.46.12.06.78.06,1.89-.06,2.74Z"/>
          <path class="cls-7" d="m198.75,183.96c.14.75.25,1.59.14,2.31-2.39.27-4.91.76-7.2.84-.5-4.07-1.18-7.96-1.44-12,2.7-.47,7.24-1.1,7.25-.99.22.81.21,1.67.3,2.49v.02c-1.45.52-3.04.44-4.57.77h-.05s-.02.03-.02.03c.1.68.03,1.44.27,2.05l.02.02c.71-.03,1.44-.14,2.16-.21v.02c.22.77.21,1.58.33,2.43-.7.28-1.88.23-2.1.45-.04.7.15,1.64.27,2.19h.02c1.54-.17,3.02-.21,4.6-.46v.04Z"/>
          <path class="cls-7" d="m206.18,175.79c.22.32.35.67.47,1.02.26,1.08.6,2.16.71,3.26,0,.02-.01.02,0,.04-.06,1.47-.54,2.91-1.09,4.23-1.48.49-3.02.95-4.44,1.37v.02c-1.56-3.43-2.47-7.64-3.72-11.55.01-.02.02-.06.03-.08,1.19-.7,2.75-.94,4.04-1.38.78-.03,1.67.34,2.27.88.72.62,1.28,1.35,1.76,2.19Zm-1.71,2.18c-.34-.66-.8-1.44-1.64-1.49-.41.06-.89.19-1.27.39h-.04s-.02.01-.02.01l.02.07c.45,1.2.8,2.88,1.33,4.38.32.14.79-.07,1.18-.24.12-.02.17-.11.27-.19.18-.2.29-.45.37-.7.21-.71.21-1.46-.22-2.24Z"/>
          <path class="cls-7" d="m205.29,171.52c.53-.32,1.26-.89,1.93-1.01,1.3,2.73,2.72,5.72,4.2,8.36-.52.34-1.39.78-2,1.1h-.01c-1.35-2.8-2.9-5.47-4.16-8.43l.05-.02Zm5.55,11.09c-.14.07-.58-1.29-.88-1.87v-.02c.39-.46,1.29-.69,1.91-1,.28.59.59,1.3.9,1.92l-.11.05c-.25.13-.37.17-.61.29l-.03.02-1.18.61Z"/>
        </g>
      </g>
      <g>
        <path class="cls-10" d="m211.37,145.06l3.09,2.75c.2.18.3.44.26.7l-.52,4.11c-.08.66.63,1.13,1.2.79l3.57-2.09c.23-.13.51-.15.75-.03l3.74,1.76c.6.28,1.27-.25,1.13-.9l-.88-4.04c-.06-.26.02-.53.2-.72l2.83-3.02c.45-.49.16-1.28-.51-1.35l-4.12-.41c-.26-.03-.5-.18-.62-.41l-2-3.62c-.32-.58-1.17-.54-1.44.06l-1.66,3.79c-.11.24-.32.42-.58.47l-4.06.78c-.65.12-.88.94-.38,1.39Z"/>
        <path class="cls-10" d="m93.64,21.38l3.09,2.75c.2.18.3.44.26.7l-.52,4.11c-.08.66.63,1.13,1.2.79l3.57-2.09c.23-.13.51-.15.75-.03l3.74,1.76c.6.28,1.27-.25,1.13-.9l-.88-4.04c-.06-.26.02-.53.2-.72l2.83-3.02c.45-.49.16-1.28-.51-1.35l-4.12-.41c-.26-.03-.5-.18-.62-.41l-2-3.62c-.32-.58-1.17-.54-1.44.06l-1.66,3.79c-.11.24-.32.42-.58.47l-4.06.78c-.65.13-.88.94-.38,1.39Z"/>
        <path class="cls-10" d="m234.1,174.97l3.51-.91c.22-.06.46,0,.64.15l2.74,2.38c.44.38,1.13.09,1.16-.49l.22-3.62c.01-.23.14-.44.34-.56l3.11-1.87c.5-.3.44-1.04-.1-1.26l-3.37-1.33c-.22-.09-.37-.27-.43-.5l-.82-3.53c-.13-.57-.86-.74-1.23-.29l-2.31,2.8c-.15.18-.37.27-.6.25l-3.61-.32c-.58-.05-.97.59-.65,1.08l1.95,3.06c.12.2.14.44.05.65l-1.42,3.34c-.23.54.26,1.1.82.96Z"/>
        <path class="cls-10" d="m30.81,30.27l3.51-.91c.22-.06.46,0,.64.15l2.74,2.38c.44.38,1.13.09,1.16-.49l.22-3.62c.01-.23.14-.44.34-.56l3.11-1.87c.5-.3.44-1.04-.1-1.26l-3.37-1.33c-.22-.09-.38-.27-.43-.5l-.82-3.53c-.13-.57-.86-.74-1.23-.29l-2.31,2.8c-.15.18-.37.27-.6.25l-3.61-.32c-.58-.05-.97.59-.65,1.08l1.95,3.06c.12.2.14.44.05.65l-1.42,3.34c-.23.54.26,1.1.82.96Z"/>
        <path class="cls-10" d="m242.14,128.61l1.2,2.93c.08.19.06.4-.06.57l-1.74,2.65c-.28.43.05.99.56.95l3.16-.23c.2-.01.4.07.52.23l1.98,2.47c.32.4.95.26,1.08-.24l.76-3.08c.05-.2.19-.36.38-.43l2.96-1.12c.48-.18.54-.83.11-1.1l-2.69-1.67c-.17-.11-.28-.29-.29-.49l-.15-3.17c-.02-.51-.62-.77-1.01-.44l-2.42,2.05c-.15.13-.36.18-.56.12l-3.06-.83c-.49-.13-.92.35-.73.83Z"/>
        <path class="cls-10" d="m61.6,2.31l1.2,2.93c.08.19.06.4-.06.57l-1.74,2.65c-.28.43.05.99.56.95l3.16-.23c.2-.01.4.07.52.23l1.98,2.47c.32.4.95.26,1.08-.24l.76-3.08c.05-.2.19-.36.38-.43l2.96-1.12c.48-.18.54-.83.11-1.1l-2.69-1.67c-.17-.11-.28-.29-.29-.49l-.15-3.17c-.02-.51-.62-.77-1.01-.44l-2.42,2.05c-.15.13-.36.18-.56.12l-3.06-.83c-.49-.13-.92.35-.73.83Z"/>
      </g>
    </g>
  </g>
</svg>