<?xml version="1.0" encoding="UTF-8"?>
<svg id="_Слой_2" data-name="Слой 2" xmlns="http://www.w3.org/2000/svg" viewBox="0 0 196.64 195.64">
  <defs>
    <style>
      .cls-1 {
        fill: #a7d640;
      }

      .cls-2, .cls-3 {
        fill: #fff;
      }

      .cls-4, .cls-3 {
        opacity: .5;
      }

      .cls-5 {
        fill: #488005;
      }

      .cls-6 {
        fill: #3c1da1;
      }

      .cls-7 {
        fill: #d811ad;
      }

      .cls-8, .cls-9 {
        fill: #0a1640;
      }

      .cls-9, .cls-10 {
        opacity: .25;
      }

      .cls-11 {
        fill: #ff8cdb;
      }

      .cls-12 {
        fill: #e38921;
      }
    </style>
  </defs>
  <g id="OBJECTS">
    <g>
      <g>
        <g>
          <g>
            <g>
              <g>
                <path class="cls-1" d="m97.49,97.03c1.5,2.87-.31,3.38,1.07,4,2.45,1.1,3.19,4.59-.13,5.47-1.85.49-3.67-.22-5.52-.12-1.19.07-2.29.48-3.43.78-1.92.51-3.76.22-5.59-.54-3.04-1.26-4.01-3.52-8.02-4.55-.91-.23-1.67.02-1.83-.63-.16-.66.38-.7,1.38-1.08,3.96-1.52,4.42-4.11,6.5-6.03,4.57-4.2,12.63-2.94,15.57,2.68Z"/>
                <path class="cls-1" d="m40.33,112.44c-4.56.2-6.73,4.33-7.32,2.7-.29-.81.59-2.73,1.53-4.01,2.37-3.21,5.65-4.91,9.31-6.05,5.56-1.73,8.14-5.05,11-7.65,1.8-1.63,4.63-3.33,7.07-3.23,3.55.15,2.97,1.82,4.64,1.51,3.24-.61,5.39,2.85,3.12,5.83-1.36,1.79-2.3,1.67-4.35,2.77-2.47,1.31-3.09,2.59-4.52,4.48-1.33,1.75-3.85,2.4-5.98,2.17-3.81-.42-3.38,2.34-8.03,2.45-3.06.07-4.86-1.04-6.46-.97Z"/>
                <path class="cls-1" d="m179.79,115.9c5.75-5.9-2.36-18.03-15.68-17.73-.9.03-1.82.12-2.69.32-.36.08-.69.18-1.04.31-1.55.52-2.96,1.49-3.76,2.98-.93,1.7-.91,3.71-.44,5.54.6,2.3,1.91,4.41,3.49,6.16,2.13,2.38,4.73,3.88,7.57,5.3,7.53,3.77,8.24,8.96,8.83,9.89.34.53,1.16.33,1.26-.23h0s.01-.09,0-.12c0-.36-2.08-7.75,2.46-12.42Zm-3.79-4.15c-.77,0-1.96-.77-2.35-1.51-.06-.13-.13-.28-.1-.41,0-.03.01-.04.03-.07.05-.08.29-.12.67-.03.27.07.62.19,1,.44.9.54,1.29,1.19,1.16,1.41-.03.06-.1.18-.41.17Z"/>
                <path class="cls-1" d="m88.77,75.69c-.83-5.27-3.64-10.23-5.86-13.47-4.41-6.45-5.91-14.69-4.22-23.18,1.5-7.57,5.5-14.27,10.44-17.49,3.99-2.6,8.39-3.59,12.07-2.71,1.87.45,3.55,1.36,4.99,2.71,3.3,3.08,3.49,6.95,3.61,9.27.04.77.07,1.33.21,1.73.02.08.06.16.09.21.1.16.26.27.44.31,0,0,.02,0,.02,0,.19.04.39,0,.55-.11.2-.14.3-.31.45-.55.26-.43.86-1.45,2.85-3.6,3.5-3.78,7.44-5.48,10.82-4.67,2.71.65,4.76,2.89,5.75,6.32.24.83.41,1.63.57,2.41.36,1.71.69,3.32,1.72,4.72,2.29,3.09,1.13,7.39.07,10.35-3.23,8.95-10.26,17.01-18.35,21.04-4.98,2.48-10.81,3.8-17.33,3.94-.63.01-1.23,0-1.81-.02-1.96-.07-3.81-.13-5.56,1.27-.73.58-1.15,1.19-1.4,1.55-.04.06-.11.15-.11.15,0-.04-.02-.1-.03-.19Zm16.79-20.99c-.11-.03-.23-.04-.35-.05-1.98-.06-2.42,2.89-2.58,4l-.03.17c-.28,1.74-1.01,6.36,1.71,7.25.06.02.13.04.19.05.55.13,1.09.04,1.56-.26,1.05-.69,1.39-2.25,1.47-2.71.01-.08.99-7.74-1.97-8.45Zm-12.38-1.22c-1.21-.28-6.59-.15-7.84,1.85-.28.44-.59,1.37.4,2.58.37.45.92.77,1.64.94.86.21,1.95.17,2.79-.08,1.09-.33,2.02-.95,2.92-1.55.3-.2.6-.4.89-.58.96-.59,1-1.3.94-1.66-.11-.7-.77-1.27-1.72-1.5,0,0-.02,0-.03,0Zm19.84-10.9c-.41-.1-.82-.07-1.23.07-.53.2-.91.61-1.06,1.16-.46,1.68,1.24,4.46,2.13,5.55,1.54,1.86,1.74,3.93,1.8,5.72.11,2.92,2.39,5.41,4.45,5.91,1.24.3,2.34-.12,3.03-1.14.52-.77.67-1.71.45-2.73-.39-1.78-1.89-3.5-3.16-4.28-1.16-.72-1.85-1.78-2.18-3.32-.01-.07-1.43-6.27-4.22-6.94Zm-18.04-1c-3.74-.89-8.86,1.24-9.79,2.66-.4.6-.33,1.1-.21,1.41.22.57.81.97,1.74,1.19,1.79.43,5.07.21,7.89-1.03.42-.18,2.51-1.16,2.51-2.5,0-.33-.12-.94-.99-1.33-.35-.16-.74-.29-1.15-.39Zm22.53-7.45c-.1-.02-.18-.04-.27-.04-.7-.06-1.26.26-1.49.85-.68,1.75,1.77,5.46,4.24,7.38.31.24,1.11.81,1.94,1.01.73.17,1.17-.03,1.41-.24.23-.2.5-.58.45-1.27-.27-3.78-4.6-7.28-6.29-7.68Zm-18.3-6.93c-1.23-.29-2.8-.09-3.65.02l-.23.03c-2.12.27-7.75.97-7.72,4.16,0,.67.3,1.86,2.15,2.3.95.23,1.94.16,2.32.12,1.52-.17,7.31-1.46,8.69-3.61.42-.65.36-1.23.24-1.6-.16-.5-.61-1.14-1.78-1.42Z"/>
                <path class="cls-1" d="m194.58,67.52c2.54-5.23,1.55-10.89-3.8-13.29-3.89-1.75-4.56-5.15-5.49-7.29-2.4-5.55-7.23-7.29-11.19-5.74-4.13,1.63-6.77-2.08-10.91-.7-1.79.6-3.14,1.73-3.96,3.44-1.07,2.23-.9,2.32-1.09,4.35-.03.26-.17.14-.5-.21-.02-.03-.04-.06-.07-.08,0-.02-.01-.02-.02-.03-.04-.06-.09-.12-.15-.18-.12-.16-.28-.33-.44-.53-.19-.22-.37-.43-.56-.65-.25-.28-.54-.59-.86-.91-.36-.36-.73-.71-1.13-1.05-.35-.31-.7-.59-1.06-.87-.19-.14-.38-.29-.58-.43-.78-.54-1.66-1.09-2.6-1.56-.08-.04-.14-.07-.23-.1-.74-.35-1.5-.64-2.26-.83-1.92-.48-3.85-.32-5.38,1.16-1.11,1.08-1.45,2.67-1.41,4.25,0,.11,0,.24,0,.36.02.2.03.39.05.59.06.54.15,1.07.27,1.55.25,1.03.58,2.02.99,2.98.01.03.02.06.04.08.09.21.18.41.28.6.29.61.63,1.22,1.02,1.84.29.47.61.95.96,1.42.21.3.43.59.65.87.34.43.68.85,1.06,1.27.22.26.45.5.68.74.04.05.1.1.14.15.28.29.57.58.87.87.16.15.33.3.5.45,1.14,1.02,2.38,1.97,3.68,2.85.22.16.46.31.69.45.31.21.62.41.94.61.52.32,1.05.63,1.6.94,2.68,1.55,5.53,2.88,8.37,4.08.09.04.2.08.3.12.53.22,1.07.44,1.6.65.21.08.41.17.61.24,1.12.43,2.23.84,3.32,1.23.26.1.51.18.77.27.25.09.51.19.76.26,1.04.35,1.99.66,2.87.93.09.03.18.06.28.1.86.26,1.65.5,2.39.72,1.77.53,3.25.96,4.61,1.47.03,0,.07.04.11.05,1.15.43,2.23.94,3.38,1.63,1.67.98,3.48,2.34,5.84,4.42.02.01.03.03.05.03.16.14.34.19.49.18.36-.03.62-.43.45-1.17-1.11-4.53,1.19-8.64,3.1-12.57Zm-28.93-7.12c.43.1.98,1.11,1.08,2.34.04.44.01.8-.05,1.09-.08.34-.23.56-.37.62-.11.04-.33.13-.67-.27-.72-.85-1.02-2.79-.55-3.57.11-.18.23-.27.56-.2h0Zm17.76,2.43c.4-.02,1.28.11,2.18.32,1.14.27,2.3.69,2.57,1.17.03.04.06.12-.08.32-.41.55-3.03.13-4.43-.56-.54-.27-.85-.59-.79-.85.03-.18.26-.39.55-.4Zm-8.28-8.56c.29.06.56.13.81.2.99.29,2.02.59,4.14-.18,1.23-.44,2.85-.7,3.68-.26.28.15.45.38.54.71.12.44,0,.66-.09.79-.57.8-2.74.92-3.45.96-4.1.23-5.88-.95-6.28-1.69-.1-.18-.13-.36-.06-.43.07-.1.32-.17.7-.1Zm-23.84,2.64c-.56-.5.02-2.14.88-3.5.54-.84,1.57-1.51,2.42-1.54.15-.01.3,0,.43.04.32.08.59.26.82.57.64.85.25,1.38-1.27,2.56-.16.11-.31.23-.44.34l-.35.29c-.65.54-2,1.67-2.49,1.24Z"/>
              </g>
              <g>
                <path class="cls-5" d="m193.53,99.18c-.02-.07-.06-.14-.09-.23-.02-.04-.03-.07-.06-.12-.18-.24-.35-.49-.51-.76-.02-.02-.03-.04-.04-.06-.53-.79-1.04-1.6-1.59-2.38-3.84-5.32-8.78-10.37-13.33-13.9-8.38-6.5-17.62-11.04-27.12-6.3-4.59,2.3-5.39,5.9-3.7,7.96.09.12.15.21.15.29.02.38-.88.42-1.77.72-.53.17-1.05.43-1.39.91-.01.02-.04.05-.05.06-.14.22-.26.48-.32.78-.19,1.05.37,2.05,1.14,2.9.47.51,1.02.96,1.54,1.34,8.77,6.29,24.46,3.16,30.55,3.53.97.06,1.93.17,2.88.33,2.54.41,5,1.16,7.38,2.14.36.15.68.29.99.44.05.01.09.04.13.06,2.24,1.04,3.32,1.95,3.97,2.46.05.04.1.08.14.1.24.2.43.31.6.32.03,0,.05,0,.09,0,.08,0,.17-.04.27-.11.1-.09.18-.25.12-.48Zm-41.44-19.36c.57-.87,2.54-1.61,3.34-1.42h.06v.02c.1.03.13.06.14.06,0,.05-.05.23-.28.54-.5.64-1.74,1.39-2.65,1.43-.29,0-.49-.05-.62-.18-.09-.1-.16-.18,0-.44Zm9.55.85c.42-.62,1.49-1.33,2.86-1.43.64-.05,1.05-.01,1.31.05.34.08.43.2.43.2,0,.03-.04.18-.23.33-.93.83-3.34,1.68-4.37,1.37-.11-.03-.16-.07-.17-.08-.01-.03,0-.18.17-.43Z"/>
                <path class="cls-5" d="m40.01,86.88c-6.78-2.63-8.18,1.33-8.74,1.66-1.48.88-4.18-14.21,12.42-18.31,3.06-.76,7.93-1.37,12.21-5.95,2.35-2.52,5.43-4.6,8.83-5.35,2.42-.53,5.37-.34,6.94,1.84,2.12,2.95.38,6.82.54,7.56,1.09-.63,2.02-1.46,3.24-1.88,6.39-2.23,8.53,7.97,1.6,14.93-5.25,5.28-23.14,10.87-37.05,5.48Zm12.42-5.87c-1.59,1.94-3.45,1.98-4.1,2.86-.85,1.15-.04,3.18,3.81,1.06,3.23-1.77,4.4-4.97,2.38-5.34-.88-.16-1.6.81-2.1,1.41Zm5.05-11.56c-1.45-.34-2.25.51-1.02,1.64,2.29,2.11,7.02,1.22,7.78-.45.28-.61.21-1.4-.34-1.84-1.75-1.39-3.86,1.26-6.42.65Zm-8.26,5.98c.58-1.9-5.53-3.6-5.95-1.82-.48,2.06,5.33,3.83,5.95,1.82Zm22.51,4.14c1.85.74,4.06-5.21,2.31-5.78-2.01-.65-4.26,4.99-2.31,5.78Z"/>
                <path class="cls-5" d="m112.29,64.77c1.77,3.24,5.1,4.73,8.12,6.56,3.69,2.24,7.83,5.94,9.05,9.68.5,1.53.37,3.52-1.18,4.35-1.33.72-2.96.16-4.32.83-1.44.7-3.81,4.48-3.78,4.34.49-.76.9-1.48.91-2.42.03-1.98-1.79-4.37-3.37-5.42-.99-.66-5.09-2.47-7.11-8.61-1.69-5.16.42-11.61,1.68-9.32Z"/>
              </g>
              <g class="cls-10">
                <path class="cls-8" d="m193.13,99.78s-.06,0-.09,0c-.13,0-.32-.12-.6-.31-.05-.02-.1-.07-.15-.1-.75-.52-1.99-1.46-3.97-2.46-.04-.02-.08-.05-.13-.06-1.78-.89-4.14-1.81-7.25-2.51-.36-.07-.73-.1-1.12-.07-.96-.16-1.91-.28-2.88-.34-6.09-.37-21.78,2.76-30.56-3.53-.52-.37-1.08-.82-1.54-1.33-.19-.21-.37-.43-.52-.66-.25-.34-.48-.67-.64-.98-.35-.69-.14-1.46.34-2.05.02-.02.03-.05.05-.06.25-.27.55-.51.88-.67.19-.09.36-.17.52-.24,1.17-.5,1.58-.43,1.78-.72.03-.05.06-.11.09-.19.34-1.07,3.35,2.98,15.29,3.06,5.52.05,6.97-.23,12.89,1.02,7.55,1.59,14.99,7.46,17.31,10.44.02.02.02.04.04.05.22.29.39.54.51.76.02.04.04.07.06.11.03.08.07.16.1.23.12.39,0,.61-.4.6Z"/>
                <path class="cls-8" d="m66.32,86.88c-20.04,5.22-24.82.05-28.25-.61-1.74-.33-4.3-.36-5.68.91-.7.65-.29.44-1.02,1.3-.29.35-2.01.19,0-2.82,6.96-10.43,22.19-5.09,33.4-10.1,7.51-3.36,5.21-6.28,9.72-8.69,3.37-1.8,6.3.24,6.73,3.23,1.31,9.04-6.23,14.51-14.91,16.77Zm-10.86-6.24c.46-1.4-1.68-1.25-2.7-.03-.92,1.09-1.75,1.98-3.49,2.65-1.44.56-1.7,1.64-.84,2.12,1.71.94,5.64-.49,7.03-4.74Z"/>
                <path class="cls-8" d="m98.01,100.65c4.56,2.22,3.07,7.13-2.85,5.91-3.68-.75-5.04.93-7.59.87-5.68-.14-6.94-4.33-11.9-5.41-.91-.2-1.48.03-1.62-.59-.07-.3.02-.52.29-.65,3.4-1.55,3.66.25,7.43.96,4.11.77,9.12-4.57,16.25-1.1Z"/>
                <path class="cls-8" d="m41.89,112.62c-3.31-1.03-7.07,2.17-8.09,2.8-.16.1-.34.18-.52.05-.2-.15-.11-.35-.03-.5,2.98-5.91,7.69-6.61,14.11-7.48,10.48-1.41,12.49-6.89,18.69-10.6,2.76-1.65,3.68-.96,4.36.83.7,1.85-.37,4.54-3.16,5.71-7.25,3.04-4.68,6.14-9.86,7.39-2.53.61-3.98-.68-6.35,1.22-2.45,1.97-6.16,1.51-9.16.58Z"/>
                <path class="cls-8" d="m176.06,128.66c-.59-.92-1.3-6.11-8.83-9.88-2.83-1.43-5.43-2.92-7.56-5.3-1.58-1.76-2.9-3.86-3.5-6.16-.47-1.83-.49-3.85.44-5.54.8-1.49,2.21-2.45,3.76-2.98,4.84,3.99,8.56,9.48,11.45,15.12,1.75,3.4,4.29,9.52,5.5,14.52h0c-.09.57-.91.77-1.26.24Z"/>
                <path class="cls-8" d="m110.69,32.3c-.47-1.23.56-7.02-4.01-11.29-5.06-4.73-12.22-3.82-17.95-.07-10.33,6.74-16.23,27.35-6.41,41.69,5.31,7.75,5.67,13.03,5.79,13.46.15.5.74.69,1.14.36.79-1.85.96-5.59,1.04-6.97.56-9.38,8.75-11.63,16.63-26.08,1.88-3.44,3.41-7.2,3.78-11.09Zm-22.36-.9c-.02-2.6,5.57-3.24,7.2-3.45,1.12-.14,4.27-.61,4.77.9.72,2.2-6.16,4.01-8.31,4.26-1.24.13-3.64,0-3.66-1.7Zm-2.54,13.24c.77-1.17,6.48-3.63,10.04-2,1.43.64-.13,1.9-1.52,2.51-4.12,1.82-9.8,1.42-8.52-.5Zm7.82,11.39c-1.18.72-2.31,1.65-3.65,2.05-1.04.32-2.9.29-3.65-.63-2.57-3.13,5.22-3.61,6.71-3.27,1.15.26,1.73,1.13.59,1.84Z"/>
                <path class="cls-8" d="m191.36,80.7c-.1-.71-1-3.01-2.13-4.61-2.87-4.09-6.14-5.93-8.76-7.73-6.82-4.7-6.62-9.79-13.41-14.97-1.97-1.5-3.1-1.8-6.14-2.92-2.86-1.05-2.27-2.09-2.68-2.01-.35.06-.48-.16-.61-.37-.02-.03-.04-.06-.07-.08,0-.02-.01-.02-.02-.03,0-.01-.01-.02-.02-.03-.05-.05-.08-.11-.13-.15-.13-.16-.28-.33-.45-.54-.18-.22-.37-.43-.56-.64-.28-.31-.57-.6-.87-.91-.36-.36-.74-.71-1.12-1.05-.35-.31-.7-.6-1.06-.87-.19-.14-.38-.29-.58-.43-.83-.61-1.7-1.14-2.6-1.56-.07-.04-.14-.07-.22-.1-.75-.34-1.52-.61-2.31-.78-.54-.14-1.29-.33-2.07-.27-3.13.24-4.69,2.48-4.68,5.62,0,.12.01.24.01.36.01.2.02.39.05.59.03.28.07.56.12.83.2,1.17.57,2.41,1.14,3.69.01.03.02.06.04.09.09.21.19.41.28.6.29.61.64,1.22,1.02,1.83.73,1.19,1.62,2.39,2.66,3.56.27.3.54.59.82.88.28.29.57.59.87.87.16.15.33.3.49.46.92.83,1.92,1.64,3.01,2.41.22.15.44.3.67.44.22.16.45.31.69.46.31.21.62.41.95.61.52.32,1.05.63,1.6.94,2.62,1.48,5.52,2.87,8.37,4.08.1.04.2.08.29.12.54.23,1.07.44,1.6.65.21.08.41.17.62.24,1.13.46,2.25.87,3.32,1.23.26.1.51.18.76.27.25.09.51.18.76.26.41.14.81.26,1.19.38.56.17,1.12.36,1.69.55.09.03.18.06.28.1.65.22,1.3.43,1.97.61.14.03.28.08.42.11,1.57.42,3.12.86,4.61,1.48.04,0,.07.03.11.05.14.05.29.12.43.18,1.12.49,2.1.98,2.94,1.44,3.86,2.1,5.19,3.84,5.89,4.46.02.02.05.05.07.07.13.11.28.14.41.11.2-.04.37-.24.33-.56Zm-36.79-24.77c-.99.8-2.71,2.45-3.76,1.51-1.17-1.03.15-3.49.75-4.44.96-1.51,3.47-2.81,4.86-.98,1.33,1.76-.61,2.91-1.84,3.9Zm11.99,9.18c-2.39.94-3.65-6.04-.78-5.43,1.67.35,2.4,4.8.78,5.43Z"/>
                <path class="cls-8" d="m121.57,87.19c-.39.38-1.05.32-1.11-.36-.15-2-1.69-3.58-3.46-4.57-3.39-1.9-5.74-5.55-6.55-8.71-.6-2.34-.59-3.95-.26-6.3.12-.84.55-1.57.8-2.37.02-.06.06-.11.1-.17.16-.25.35-.47.7-.42.72.11-.06,1.14.92,4.58.39,1.39.6,2.52,1.62,3.64,2.47,2.72,7.35,3.61,8.44,7.75.41,1.54.3,3.2-.18,4.71-.21.68-.52,1.71-1.02,2.2Z"/>
              </g>
              <g class="cls-4">
                <path class="cls-2" d="m169.01,80.39c-.43-.37-.09-1.09.47-.98,3.18.61,6.53,3.24,7.91,6.08.23.48-.32.97-.77.67-2.03-1.35-7.69-5.84-7.61-5.77Z"/>
                <path class="cls-2" d="m62.15,65.35c-1.03.55-2.15,1.4-2.06,1.33-.55.4-1.3-.14-1.09-.8.95-2.85,4.41-4.76,7.61-4.14,1.29.23,3.7,1.35,2.79,2.29-.15.16-.36.22-.56.2-2.28-.28-4.28-.13-6.69,1.12Z"/>
                <path class="cls-2" d="m92.07,94.99c1.02.5,3.26,2.05,2.3,2.78-.31.24-.72.05-.63.07-7.95-3.32-9.27,1.33-10.17-.03-.52-.77,3.57-5.27,8.5-2.82Z"/>
                <path class="cls-2" d="m51.26,104.95c-.6.1-.96-.65-.52-1.06.52-.49,7.95-6.6,7.37-6.14.25-.2.61-.15.81.1.75.97-3.01,6.34-7.66,7.1Z"/>
                <path class="cls-2" d="m177.86,107.76c.13.28.02.61-.26.74-1.16.56-2.86-4.01-11.78-6.87h0c-.27-.09-.43-.38-.34-.66.42-1.32,9.1.03,12.38,6.79Z"/>
                <path class="cls-2" d="m127.24,29.14c-2.28,5.3,1.96,8.72,2.85,14.17.56,3.77-.86,6.76-3.68,9.16-.6.51-1.45-.23-1.02-.89.53-.83,1.09-1.67,1.48-2.56,3-6.61-3.75-11.16-2.24-17.49.28-1.14,1.44-3.97,2.43-3.15.23.19.29.5.18.76Z"/>
                <path class="cls-2" d="m180.19,45.64c-.97,1.47-2.62,2.68-4.57,3-4.1.76-5.95-2.2-9.46-2.49-1.46-.08-2.11.55-2.76,1.86l-.03.05c-.17.34-.58.48-.92.31-.93-.46.05-2.63.76-3.39,2.83-3.04,8.27.29,9.21.67,3.81,1.8,6.95-.95,6.84-.89.29-.21.7-.15.91.14.16.23.16.52.02.74Z"/>
              </g>
            </g>
            <g>
              <path class="cls-8" d="m161.22,82.57l.15.03c1.69.4,4.49-.71,5.61-1.7,1.37-1.2.93-3.38-2.58-3.12-4.01.31-5.7,3.98-3.18,4.79Zm4.6-3.29c.33.08.43.2.43.2,0,.75-4.09,2.3-4.77,1.62-.21-.62,2.08-2.32,4.34-1.82Z"/>
              <path class="cls-8" d="m155.95,77.04c-2.31-.74-6.91,2.02-4.92,4.19,2.32,2.58,8.78-2.9,4.92-4.19Zm-.51,1.36h.07c.09.05.12.07.13.07,0,.89-2.87,2.56-3.54,1.78-.62-.62,2.19-2.12,3.34-1.85Z"/>
              <path class="cls-8" d="m185.14,92.93c.83.51,1.59-.7.79-1.22-14.91-9.59-24.13-2.67-35.56-8.36-.86-.42-1.5.87-.65,1.3,1.03.52,2.04.93,3.03,1.27,10.2,3.55,19.16-1.52,32.39,7.01Z"/>
              <path class="cls-8" d="m61.73,72.88c3.8-.77,4.01-3.56,2.62-4.66-1.97-1.56-4.04.59-6.09.59-.65,0-2.31-.61-2.98.63-.81,1.56,2.07,4.33,6.45,3.44Zm-4.42-2.73c2.71.63,4.9-1.77,6.14-.79.27.21.27.66.13.96-.69,1.55-5.95,1.87-6.98-.2.18-.04.34-.05.71.03Z"/>
              <path class="cls-8" d="m54.65,78.88c-1.24-.23-2.14.88-2.68,1.54-.1.09-.48.93-2.64,1.94-.62.29-1.21.57-1.59,1.07-.85,1.15-.48,2.72.98,3.08,2.59.61,7.98-3.07,7.49-6.11-.13-.81-.7-1.37-1.56-1.52Zm-2.86,5.42c-3.07,1.68-4.15.41-1.85-.62,3.35-1.59,3.63-3.52,4.45-3.38.33.07.37.2.39.33.12.76-.87,2.5-2.99,3.67Z"/>
              <path class="cls-8" d="m49.91,75.64c.71-2.33-3.95-3.98-6.08-3.39-.92.26-1.19.86-1.27,1.2-.68,2.94,6.45,5.14,7.35,2.19Zm-1.39-.43c-.33,1.09-4.8-.27-4.55-1.44.68-.68,4.55.46,4.55,1.44Z"/>
              <path class="cls-8" d="m70.63,76.11c-.62,1.7-.59,3.84,1.05,4.2,2.16.57,4.07-3.76,3.66-5.84-.38-2-3.24-2.36-4.71,1.64Zm1.37,2.79c-1.04-.42.67-4.77,1.81-4.42.02.01.07.08.11.26.3,1.6-1.38,4.39-1.92,4.16Z"/>
              <path class="cls-8" d="m68.75,72.27c-.4.8-1.16,1.27-2.11,1.79-9.36,5.15-21.3.21-32.39,7.79-.7.48-1.3,1.05-1.78,1.7-.24.32-.18.77.14,1.01.09.06.18.1.27.13.27.06.57-.04.75-.28.39-.52.86-.97,1.43-1.36,10.71-7.3,22.53-2.35,32.28-7.72.92-.51,2.07-1.14,2.71-2.41.43-.83-.87-1.52-1.3-.65Z"/>
              <path class="cls-8" d="m101.39,104.29c.13-1.58-.91-3.2-2.52-3.93-.06-.02-.1-.04-.13-.06,0-.06.02-.13.03-.2.11-.62.29-1.66-.63-3.41-.6-1.16-1.42-2.17-2.41-2.99-.56-1.6-1.2-3.16-1.91-4.69-3.03-6.53-7.16-11.91-11.86-15.59.85-6-3.05-10.36-8.78-6.57.33-1.67.67-4.29-.92-6.49-1.49-2.06-4.36-2.86-7.68-2.13-3.26.72-6.53,2.69-9.21,5.56-3.62,3.88-7.7,4.8-10.68,5.47-.41.09-.81.18-1.17.27-10.45,2.58-13.17,9.24-13.86,12.98-.54,2.92-.13,5.88.9,6.6.12.08.24.14.36.17.25.06.5.02.73-.12.2-.12.34-.3.54-.56.76-1,2.35-3.07,7.56-1.05,14.42,5.59,32.68-.48,37.82-5.65,2.12-2.13,3.44-4.56,4.07-6.88,4.28,3.52,8.05,8.54,10.87,14.6.42.9.81,1.81,1.17,2.73-.97-.5-2.03-.85-3.15-1.05-3.35-.59-6.75.35-9.09,2.5-.74.69-1.29,1.44-1.82,2.17-1.03,1.43-2,2.78-4.45,3.72-.17.06-.32.11-.46.16-.66.23-1.65.58-1.37,1.76.23.94,1.11,1.01,1.63,1.06.24.02.49.04.72.1,2.18.56,3.37,1.48,4.64,2.46.94.73,1.92,1.49,3.29,2.06.61.25,1.2.44,1.78.58,1.48.36,2.89.35,4.27-.01.28-.08.57-.16.85-.24.83-.24,1.62-.47,2.44-.52.69-.04,1.38.04,2.12.13.28.04.56.07.84.1,0,0,0,0,0,.01-.12,4.19-2.49,7.48-5.25,11.28-3.05,4.21-6.51,8.99-7.16,15.92-.03.36.21.69.55.77.03,0,.07.01.1.02.4.04.75-.26.79-.65.61-6.54,3.8-10.94,6.89-15.21,2.77-3.83,5.39-7.45,5.52-12.09,0,0,0,0,0,0,0,0,0,0,0,0,1.02,9.46-.22,19.35-3.74,28.7-.14.37.05.79.42.93.03.01.06.02.09.03.35.08.72-.1.85-.45,3.61-9.59,4.87-19.74,3.81-29.46,1.53-.45,2.47-1.48,2.59-2.84Zm-24.85-23.41c-5.25,5.29-22.79,10.52-36.27,5.32-5.86-2.27-8.14.12-9.07,1.31-.32-.94-.61-3.2.17-5.95,1.05-3.7,4.06-8.54,12.5-10.62.35-.09.73-.18,1.14-.27,3.16-.71,7.49-1.69,11.42-5.89,2.48-2.65,5.49-4.48,8.46-5.13.63-.14,2.18-.4,3.68-.04.94.22,1.86.69,2.51,1.6,1.95,2.7.2,6.22.42,7.28.09.44.59.74,1.08.48,1.04-.62,2-1.43,3.11-1.83,4-1.38,5.56,2.78,4.68,6.89-.48,2.27-1.72,4.73-3.83,6.85Zm21.72,24.91c-.35.09-.7.13-1.06.14-.63.02-1.28-.05-1.95-.13-.76-.1-1.55-.2-2.37-.15-.99.06-1.89.32-2.77.57-.27.08-.54.16-.81.23-1.62.43-3.25.27-5.13-.5-1.19-.5-2.05-1.16-2.96-1.86-1.32-1.03-2.69-2.09-5.15-2.72-.03-.01-.05-.02-.07-.02-.3-.07-.59-.1-.82-.12,0,0,0-.01.02-.01.15-.05.31-.11.49-.18,2.86-1.09,4.06-2.75,5.12-4.22.51-.7.98-1.36,1.62-1.95,2.01-1.85,4.95-2.65,7.86-2.14,1.45.26,2.77.8,3.9,1.59.11.08.22.16.33.25.97.75,1.76,1.69,2.34,2.79.05.09.09.17.12.25,0,.01,0,.01,0,.02.35.73.44,1.24.43,1.63h0c0,.24-.04.43-.07.6-.08.46-.19,1.12.58,1.64.1.06.22.13.35.19,1.05.47,1.75,1.51,1.67,2.48-.05.69-.51,1.21-1.31,1.51-.12.04-.24.08-.37.11Z"/>
              <path class="cls-8" d="m96.41,99.86c-.12-.05-.25-.1-.37-.14-1.99-.7-4.03-.78-6.1-.22-.63.17-1.26.37-1.89.58-.84.27-1.64.53-2.47.71-1.35.3-2.75.38-4.14.24-.83-.08-1.68-.32-2.58-.73-.36-.17-.79,0-.95.36-.17.37-.01.8.36.96.64.29,1.26.51,1.88.66.39.09.77.15,1.15.19,1.54.16,3.09.07,4.59-.26.9-.2,1.77-.48,2.61-.76.61-.19,1.21-.39,1.82-.55,1.89-.51,3.75-.4,5.55.31.17.07.36.07.52,0,.19-.06.35-.21.43-.41.14-.37-.04-.79-.41-.94Z"/>
              <path class="cls-8" d="m76.36,121.06c-.17-5.33-.35-10.85-5.68-16.7-.41-.45-.86-.91-1.35-1.36.3-.26.61-.59.93-1.02,1.26-1.64,1.44-3.63.49-5.18-.89-1.44-2.54-2.13-4.32-1.8-.4.08-.48.02-.84-.28-.56-.46-1.4-1.15-3.64-1.24-2.69-.11-5.68,1.69-7.58,3.42-.52.47-1.04.97-1.56,1.48-2.35,2.28-4.77,4.64-9.17,6.01-4.44,1.39-7.52,3.39-9.68,6.31-.9,1.22-2.07,3.47-1.63,4.69.2.53.53.73.78.81.02,0,.05.01.07.01.64.16,1.25-.29,2.07-.89.6-.43,1.3-.95,2.14-1.37.84-.42,1.82-.74,2.98-.79.57-.02,1.25.15,2.03.36,1.15.29,2.57.66,4.42.61,2.55-.06,3.76-.89,4.73-1.56.91-.62,1.57-1.07,3.2-.89,2.04.22,5-.28,6.64-2.45.24-.32.46-.62.67-.91,1.03-1.42,1.71-2.36,3.62-3.37.58-.31,1.08-.52,1.52-.71.31-.13.61-.26.89-.4.55.46,1.05.98,1.52,1.5,4.97,5.45,5.14,10.7,5.3,15.77.14,4.48.29,9.11,3.92,13.47.1.13.24.21.39.24.21.05.45.01.63-.14.31-.26.35-.72.09-1.03-3.3-3.97-3.44-8.16-3.58-12.59Zm-9.62-18.2s-.07.03-.11.05c-.47.19-1,.42-1.63.76-2.21,1.17-3.05,2.33-4.12,3.8-.2.28-.41.57-.65.88-1.19,1.58-3.53,2.09-5.32,1.89-2.16-.24-3.19.46-4.18,1.14-.9.61-1.83,1.25-3.95,1.3-1.64.04-2.9-.28-4.01-.57-.9-.23-1.67-.43-2.47-.39-2.74.11-4.64,1.51-5.9,2.43-.24.17-.51.37-.72.51.05-.6.57-1.91,1.45-3.1,1.99-2.69,4.75-4.48,8.95-5.79,4.72-1.47,7.39-4.06,9.74-6.35.51-.5,1.01-.98,1.52-1.45,1.61-1.46,4.29-3.13,6.55-3.04.56.02.99.08,1.33.16.76.19,1.12.48,1.45.75.45.37.96.79,2.03.59,1.17-.22,2.25.21,2.82,1.13.63,1.03.47,2.39-.41,3.54-.33.44-.63.75-.93.98-.44.34-.88.54-1.44.78Z"/>
              <path class="cls-8" d="m64.82,96.96c-2.32.71-3.85,2.18-5.46,3.74-2.03,1.96-4.33,4.18-8.85,5.41-1.39.38-2.86.59-4.28.79-1.32.19-2.68.38-4.02.71-.39.1-.63.49-.53.88.07.27.28.47.54.53.11.03.22.03.34,0,1.27-.32,2.59-.5,3.88-.69,1.46-.2,2.97-.42,4.45-.82,4.88-1.33,7.32-3.69,9.47-5.77,1.56-1.49,2.89-2.78,4.89-3.39.38-.12.6-.52.48-.9-.12-.39-.52-.6-.91-.49Z"/>
              <path class="cls-8" d="m155.55,102.4c-11.5,3.28-20.71,10.25-26.82,20.34-1.26,2.08-2.33,4.37-3.36,6.57-2.02,4.31-4.11,8.77-7.69,11.85-.3.26-.34.72-.08,1.02.11.12.24.2.38.24.22.05.46,0,.65-.16,3.81-3.29,5.97-7.89,8.05-12.33,1.02-2.18,2.07-4.42,3.29-6.44,5.77-9.54,14.42-16.2,25.21-19.47-.39,3.59,1.54,7.25,3.95,9.94,2.32,2.6,5.24,4.19,7.78,5.47,6.02,3.01,7.45,6.85,8.14,8.69.15.41.27.71.41.94.2.31.51.52.85.6.2.05.42.05.63.01.58-.12,1.01-.56,1.1-1.12,0-.04,0-.09,0-.13,0-.02,0-.1,0-.12,0-.05-.02-.2-.07-.43-1.24-6.22.58-9.67,2.32-11.46,2.28-2.34,2.72-5.66,1.21-9.12-4.65-10.73-23.16-13.32-25.97-4.89Zm23.73,12.99c-1.97,2.03-4.03,5.84-2.75,12.53-.04-.1-.08-.2-.12-.31-.7-1.86-2.32-6.21-8.85-9.48-4.85-2.45-9.32-5.73-10.68-10.99-1.85-7.24,5.04-9.44,12.31-7.72,10.32,2.46,14.2,11.74,10.09,15.97Z"/>
              <path class="cls-8" d="m176.01,108.93c-1.23-.73-2.9-1.12-3.66.06-.35.56-.34,1.25.03,1.94.54,1.02,1.79,1.91,2.95,2.19.23.05.44.08.66.08.75.01,1.35-.31,1.68-.9.61-1.05-.06-2.4-1.66-3.37Zm0,2.82c-1.13-.01-2.58-1.37-2.45-1.92,0-.21.48-.14.69-.09.28.06.62.19,1.01.43.89.54,1.29,1.2,1.16,1.41-.03.06-.1.18-.41.17Z"/>
              <path class="cls-8" d="m165.17,103.49c-.66-.71-1.71.29-1.06.99,3.08,3.27,7.12,8.52,8.89,14.92.07.27.28.46.53.52.12.02.24.02.36-.01.39-.11.62-.51.51-.89-1.85-6.69-6.04-12.14-9.23-15.53Z"/>
              <path class="cls-8" d="m105.24,53.93c-2.28-.07-2.99,2.43-3.33,4.67-.3,3.01-1.02,7.36,2.42,8.22,2.14.51,3.54-1.37,3.92-3.55.41-3.31.33-9.34-3.01-9.34Zm-.7,11.44c-2.18-.71-1.41-5.22-1.2-6.55.22-1.45.6-3.63,2.06-3.42,2.35.57,2.21,11.5-.86,9.97Z"/>
              <path class="cls-8" d="m94.38,57.25c2.11-1.3,1.59-3.87-1.03-4.48-1.9-.42-7.23-.04-8.61,2.18-.95,1.5-.07,4.01,2.49,4.6.99.24,2.2.21,3.15-.08,1.37-.41,2.41-1.18,4-2.22Zm-8.06.2c-2.57-3.13,5.22-3.61,6.71-3.27,0,0,.01.01.02.01,1.13.27,1.7,1.13.57,1.83-1.18.72-2.31,1.65-3.65,2.06-1.11.33-2.91.26-3.65-.63Z"/>
              <path class="cls-8" d="m119.56,42.89c.35.26,1.25.91,2.22,1.14,1.02.24,1.67-.08,2.04-.39.3-.25.78-.83.71-1.88-.29-4.17-4.96-7.89-6.85-8.34-.13-.03-.26-.05-.37-.06-1.02-.08-1.88.42-2.22,1.31-.88,2.27,2.01,6.31,4.47,8.22Zm-2.37-8.08c.05,0,.1.01.16.02,1.42.34,5.5,3.66,5.73,7.03.05.74-.38.9-.97.76-.52-.13-1.15-.49-1.66-.88-3.2-2.47-5.33-7.1-3.26-6.93Z"/>
              <path class="cls-8" d="m112.31,49.82c1.39,1.69,1.57,3.54,1.63,5.29.19,5.08,6.25,9.02,8.8,5.13.63-.94.82-2.07.56-3.28-.46-2.07-2.13-3.91-3.49-4.74-.99-.62-1.57-1.5-1.85-2.86-.02-.07-1.49-6.71-4.77-7.49-.55-.13-1.1-.1-1.65.1-.75.28-1.29.86-1.5,1.65-.69,2.52,2.23,6.16,2.27,6.2Zm-.27-6.49c.28-.1.55-.11.82-.05,1.97.47,3.4,5.08,3.68,6.38.34,1.6,1.08,2.9,2.51,3.79,1.67,1.03,3.84,3.96,2.49,5.99-1.77,2.66-6.02-.82-6.15-4.39-.07-1.78-.25-4.07-1.97-6.15-1.15-1.4-3.06-4.95-1.38-5.57Z"/>
              <path class="cls-8" d="m89.58,34.41c1.07.25,2.15.18,2.58.13,1.18-.13,7.56-1.36,9.21-3.93.44-.7.55-1.48.31-2.22-.22-.67-.8-1.54-2.3-1.9-1.36-.33-3.02-.11-3.91,0l-.12.02h-.11c-2.3.3-8.39,1.07-8.36,4.9.02,1.48,1.03,2.6,2.7,3Zm5.95-6.46c.74-.1,2.35-.33,3.51-.05.61.14,1.09.43,1.27.94.72,2.21-6.16,4.02-8.32,4.26-.56.06-1.36.07-2.07-.1-.85-.2-1.58-.67-1.59-1.6-.02-2.6,5.58-3.25,7.2-3.45Z"/>
              <path class="cls-8" d="m86.55,47.54c2.22.53,5.73.08,8.35-1.08.88-.38,2.94-1.47,2.95-3.16,0-.41-.13-1.41-1.41-1.99-.4-.18-.84-.33-1.29-.44-3.85-.92-9.4,1.18-10.56,2.96-.6.91-.44,1.69-.28,2.08.31.8,1.07,1.35,2.24,1.63Zm-.75-2.91c.69-1.06,5.48-3.19,9.01-2.35.36.09.7.2,1.02.35,1.43.64-.13,1.9-1.51,2.51-2.56,1.12-5.71,1.4-7.44.99-1.05-.25-1.57-.76-1.08-1.5Z"/>
              <path class="cls-8" d="m109.75,34.46c-.36-.12-.78.14-.88.52-5.27,20.74-16.41,20.98-19.43,34.4-.08.39.16.78.54.87.1-.02.73.11.88-.55,2.9-12.84,14.09-13.33,19.41-34.36.1-.39-.13-.78-.52-.88Z"/>
              <path class="cls-8" d="m196.08,58.76c-.84-2.32-2.57-4.11-4.99-5.2-3.73-1.67-4.24-4.98-5.13-6.92-2.76-6.39-8.21-7.65-12.11-6.12-1.87.74-3.42.24-5.07-.31-1.66-.54-3.56-1.16-5.81-.4-2.02.68-3.5,1.96-4.38,3.83-.78,1.62-.95,2.19-1.04,3.18-.02-.02-.03-.03-.03-.04-.2-.23-.39-.44-.58-.66-.26-.29-.57-.63-.89-.94-.38-.38-.77-.74-1.16-1.08-.37-.33-.74-.63-1.11-.9-.19-.15-.39-.29-.6-.45-.95-.66-1.83-1.19-2.68-1.6-.09-.05-.19-.1-.24-.12-.82-.39-1.63-.68-2.41-.88-2.44-.62-4.51-.16-6.06,1.35-1.11,1.08-1.68,2.74-1.64,4.77l.02.39c0,.21.03.41.05.63.05.54.15,1.11.29,1.63.25,1.09.6,2.13,1.01,3.08.02.02.04.05.05.09.06.14.12.28.18.41l.11.23c.29.6.63,1.22,1.05,1.9.28.45.6.93.99,1.47.22.3.44.6.67.89.35.43.7.87,1.07,1.29.24.27.46.52.7.76l.16.16c.28.3.58.59.88.88.1.1.21.2.32.3l.11.11c-9.96,6.42-13.62,16.12-17.74,25.47-5.9,14.42-13.85,33.84-24.04,46.41,0,0,0,0,0,0,.07-12,1.75-24.9,9.66-35.06.54-.69,1.14-1.4,1.76-2.15,3.62-4.33,2.93-3.84,3.35-4.25h0c.25-.31,2.36-3.55,3.48-4.08,1.13-.55,2.86-.05,4.35-.84,1.89-1.03,2.13-3.36,1.52-5.22-2.17-6.64-11.15-11.06-12.91-12.18,7.67-4.48,13.82-12.16,16.8-20.42,1.33-3.7,2.18-7.86-.17-11.03-1.38-1.87-1.41-4.27-2.18-6.9-1.12-3.83-3.43-6.14-6.28-6.82-3.45-.83-7.69.74-11.53,4.88-2.81,3.05-2.92,3.88-3.17,4.04,0,0,0-.03,0-.05-.47-1.23.56-7.01-4.02-11.29-1.6-1.49-3.41-2.42-5.32-2.88-4.12-.99-8.71.25-12.63,2.81-10.33,6.74-16.22,27.35-6.41,41.69,5.31,7.75,5.67,13.03,5.79,13.46.15.5.73.68,1.14.36l.03-.03c.19-.16.56-.95,1.48-1.68,2.01-1.61,4.18-1.02,6.93-1.09,1.56-.03,3.11-.13,4.66-.31.06.37,6.66,9.57.68,31.22-1.95,7.06-3.06,14.21-3.28,21.26-.11,3.2-.09,6.33,1.24,9.35.09.22.28.36.49.41.15.04.31.03.46-.04.37-.16.54-.59.37-.95-1.2-2.74-1.21-5.69-1.11-8.73.22-6.93,1.3-13.97,3.23-20.91,2.77-10.03,4.2-22.12-.57-31.81,1.87-.28,3.73-.68,5.54-1.21.55,4.45,3.07,8.45,7.92,11.36,1.46.97,3.08,3.18,3.05,4.8-.01.71-.33,1.31-.72,1.92-1.01,1.47-2.2,2.89-3.32,4.23-.63.76-1.24,1.49-1.79,2.19-8.55,10.98-10.04,24.92-9.96,37.65-.19.23-.39.45-.59.67-.27.3-.25.76.05,1.03.1.08.2.14.32.16.08.02.16.03.24.02,0,.54.02,1.09.03,1.62,0,.34.24.61.56.69.06.01.12.02.19.02.4,0,.72-.34.71-.74-.02-.96-.04-1.93-.05-2.91,7.38-8.61,13.6-20.79,18.76-32.43.33-.14.33-.15.44-.28,2.84-3.89,9.14-4.46,11.72-4.53,5.56-.14,10.03-1.64,13.08-4.27,13.04,5.16,24.09-2.07,37.86,4.36.03.03.11.03.14.08,3.45,1.58,3.93,2.82,4.94,2.93.15-.03.34.11.89-.27.39-.31.57-.88.25-1.56,0-.01-.04-.08-.04-.09-.06-.11-.62-.94-.64-.96-.12-.14-5.37-8.92-15.07-16.46-6.84-5.29-17.17-11.72-27.88-6.37-3.75,1.87-6.23,5.52-4.24,8.65-.95.24-2.08.51-2.73,1.42-.02.01-.07.09-.07.1-1.99,2.77,1.76,5.92,5.07,7.52-7.13,5.43-15.54,1.6-22.28,6.45,7.76-18.05,10.98-30.17,22.73-37.47,10.31,8.47,27.85,12.58,31.98,14.17.02,0,.07.03.09.04,6.3,2.38,8.48,6.42,10.07,6.3.76-.06,1.41-.84,1.09-2.05-.96-3.95.85-7.64,2.62-11.21l.42-.88c1.53-3.13,1.83-6.36.85-9.07Zm-98.42,13.44c-2.98.1-5.73-.73-8.44,1.98-1.07-4.88-3.65-9.36-5.71-12.37-4.3-6.29-5.76-14.33-4.11-22.63,1.47-7.39,5.35-13.91,10.12-17.03,3.83-2.49,8.02-3.44,11.51-2.61,1.74.42,3.31,1.27,4.66,2.53,3.08,2.88,3.27,6.57,3.39,8.78.04.8.07,1.39.23,1.87.03.11.08.25.17.39.2.33.52.56.9.65,0,.01.02.01.03.01.38.08.79.01,1.11-.22.34-.22.51-.5.67-.78.25-.41.82-1.38,2.76-3.47,3.31-3.58,7-5.21,10.12-4.46,2.45.58,4.3,2.65,5.23,5.82.23.79.4,1.59.56,2.35.37,1.79.72,3.48,1.85,5.01,1.6,2.16,1.59,5.15-.03,9.67-3.02,8.33-9.37,15.87-16.78,19.99-2.87-1.79-2.92-4.75-4.66-4.02-1.24.54-2.09,3.56-1.97,6.8-3.65,1.11-7.73,1.67-11.61,1.74Zm20,9.61c-4.23-2.53-6.42-6.46-6.87-10.31-.23-1.94.03-5.2.88-6.36,1.92,3.41,5.18,4.88,8.36,6.8,7.07,4.29,11.11,11.06,7.91,12.78-1.19.64-3.05.02-4.54.95h0c.33-1.19.46-2.42.31-3.67-.86-7.54-7.49-6.48-9.11-10.27-.38-.88-1.71-.31-1.33.57,1.99,4.65,8.23,3.08,9.01,9.87.17,1.5-.12,2.97-.7,4.4-.55-1.68-1.96-3.62-3.91-4.75Zm26.77,4.47c.31-1.86,4.87-1.09,3.24-3.35-1.88-2.27.35-5.28,3.45-6.84,9.22-4.62,18.17-.13,26.35,6.22,9.62,7.49,14.41,15.66,14.7,16.02-3.78-2.82-10.06-4.82-15.17-5.13-5.33-.34-19,2.1-27.28-1.77-2.02-.86-5.65-3.08-5.29-5.15Zm50.48-21.77c-.21.89-.54,1.79-.98,2.69l-.42.87c-1.88,3.8-3.81,7.73-2.73,12.19.01.03.01.05.01.08-2.83-2.51-5.66-4.68-9.16-5.99-4.25-1.7-20.92-5.4-31.33-13.67-.42-.32-.81-.65-1.19-.99-.08-.06-.16-.12-.23-.19l-.2-.19c-.09-.09-.19-.18-.29-.28-.3-.27-.58-.55-.91-.89-.03-.03-.05-.05-.08-.1-.23-.23-.44-.46-.66-.71-.36-.41-.7-.82-1.03-1.24-.22-.28-.43-.56-.64-.84-.36-.51-.66-.96-.92-1.37-.39-.65-.71-1.23-.98-1.76l-.11-.24c-.05-.11-.1-.23-.15-.34-.02-.04-.02-.07-.05-.11-.38-.88-.7-1.84-.95-2.85-.11-.46-.2-.97-.25-1.44-.02-.19-.03-.37-.04-.51,0-.09,0-.16,0-.25v-.14c-.02-1.13.15-2.7,1.2-3.71,1.15-1.13,2.77-1.47,4.69-.97.68.17,1.4.43,2.19.81.06.01.1.04.16.06.79.41,1.62.9,2.49,1.5.2.14.39.28.58.43.34.26.68.54,1.01.83.38.33.74.67,1.11,1.03.31.3.57.59.82.87.18.21.36.41.54.61.09.12.18.23.27.33l.14.18c.07.08.12.15.18.21,0,0,.03.03.04.05.02.04.05.06.07.09.28.31.66.74,1.2.56.15-.05.51-.22.56-.76.04-.35.07-.65.08-.9.1-1.19.12-1.47.95-3.2.71-1.49,1.91-2.52,3.54-3.07,1.8-.61,3.31-.11,4.9.41,1.83.59,3.7,1.2,6.05.27,3.75-1.47,8.38.21,10.67,6.41.8,2.12,1.89,5.01,5.44,6.6,2.06.93,3.53,2.43,4.23,4.37.57,1.58.63,3.4.19,5.26Z"/>
              <path class="cls-8" d="m183.34,61.36c-.93.05-1.73.71-1.9,1.56-.08.35-.19,1.58,1.56,2.44.42.2,1.18.5,2.04.7.78.19,1.64.31,2.4.25s1.42-.31,1.81-.84c.58-.82.37-1.5.18-1.85-.96-1.77-5.38-2.29-6.09-2.26Zm4.73,3.26c-.41.56-3.03.14-4.43-.56-.54-.27-.84-.59-.78-.85.03-.18.26-.38.55-.4.39-.02,1.28.11,2.18.33,1.13.27,2.3.69,2.57,1.17.02.04.05.11-.09.31Z"/>
              <path class="cls-8" d="m176.64,57.63c1.07.25,2.45.39,4.21.29,1.77-.1,3.68-.37,4.55-1.56,1.27-1.76-.13-5.43-5.81-3.46-2.23.81-2.79.2-4.19-.08-.91-.17-1.72.08-2.15.67-.4.55-.41,1.29-.03,1.99.24.45,1.08,1.59,3.42,2.15Zm-1.51-3.38c1.48.31,2.35.96,4.95.02,1.35-.48,3.84-.98,4.23.45.67,2.41-8.55,2.38-9.82.07-.27-.52.07-.64.64-.54Z"/>
              <path class="cls-8" d="m154.54,50.4c-1.54.06-2.94,1.19-3.58,2.21-.73,1.14-2.23,3.94-.62,5.37.24.22.51.35.78.42.11.02.22.04.33.05h0c.59.02,1.2-.24,1.78-.59.55-.33,1.06-.76,1.47-1.1l.32-.28c.14-.1.28-.21.43-.32,1.18-.91,3.16-2.44,1.54-4.57-.62-.82-1.47-1.23-2.46-1.19Zm.03,4.61c-.15.12-.3.24-.44.34l-.35.29c-.65.55-2,1.68-2.49,1.25-.56-.5.02-2.14.89-3.5.53-.84,1.57-1.51,2.41-1.54.16,0,.3.01.43.04.32.07.59.26.83.57.63.85.24,1.38-1.28,2.55Z"/>
              <path class="cls-8" d="m163.84,59.84c-1.04,1.75-.1,5.56,1.87,6.03,1.24.31,2.69-.69,2.47-3.27-.12-1.55-3.25-4.58-4.34-2.76Zm2.47,4.59c-.97.35-1.89-2.73-1.23-3.84.34-.55,1.48-.13,1.66,2.13.03.48.01,1.52-.43,1.71Z"/>
              <path class="cls-8" d="m186.98,71.95c-14.78-8.13-12.76-17.74-25.72-22.23-.36-.12-.79.07-.92.45-.13.38.07.79.45.92,12.36,4.28,10.44,13.86,25.49,22.13.88.44,1.52-.8.7-1.27Z"/>
            </g>
          </g>
          <g>
            <g>
              <path class="cls-11" d="m46.83,172.87c-1.93-.46-3.48-1.84-4.15-3.69-.32-.85-.44-1.8-.32-2.74l4.7-39.79c.2-1.67,1.1-3.18,2.48-4.14,1.38-.96,3.1-1.29,4.73-.9l93.56,22.34c1.13.27,2.14.86,2.93,1.7,1.53,1.64,2,3.96,1.23,6.06l-13.78,37.63c-1.04,2.8-4,4.39-6.9,3.7l-84.48-20.17Z"/>
              <path class="cls-6" d="m142.96,174.27l-5.43,14.83c-.91,2.46-3.5,3.85-6.05,3.25l-84.48-20.17c-.26-.06-.51-.14-.75-.25-.06-.02-.12-.05-.18-.07-.51-.23-.97-.54-1.36-.9-.14-.13-.27-.26-.4-.41-.11-.13-.23-.28-.34-.43-.04-.05-.07-.1-.11-.16-.08-.14-.18-.29-.25-.44-.09-.18-.18-.38-.25-.57-.28-.74-.39-1.57-.29-2.4l1.85-15.68,98.03,23.41Z"/>
              <g class="cls-4">
                <path class="cls-7" d="m151.31,151.47l-8.35,22.8-8.57-2.05c.42-.65.79-1.32,1.14-2,2-3.93,3.11-8.24,4.74-12.34s3.93-8.13,7.62-10.55c.73-.47,1.51-.87,2.34-1.18,1.28,1.37,1.78,3.41,1.08,5.31Z"/>
              </g>
              <g>
                <path class="cls-2" d="m59.86,170.29c-.32.51-1.15.33-1.2-.29-.22-2.7.86-7.04,2.25-9.27.17-.28.55-.36.83-.19.96.57-.12,6.88-1.89,9.75Z"/>
                <path class="cls-2" d="m75.41,174c-.32.51-1.15.33-1.2-.29-.22-2.69.86-7.04,2.25-9.27.17-.28.55-.36.83-.19.96.57-.14,6.92-1.89,9.75Z"/>
                <path class="cls-2" d="m90.95,177.71c-.31.51-1.14.33-1.2-.29-.22-2.69.86-7.04,2.25-9.27.17-.28.55-.36.83-.19.96.57-.14,6.92-1.89,9.75Z"/>
                <path class="cls-2" d="m106.5,181.43c-.31.51-1.14.33-1.2-.29-.22-2.69.86-7.04,2.25-9.27.17-.28.55-.36.83-.19.96.57-.12,6.88-1.89,9.75Z"/>
                <path class="cls-2" d="m122.05,185.14c-.32.51-1.14.33-1.2-.29-.22-2.69.86-7.04,2.25-9.27.17-.28.55-.36.83-.19,1.01.6-.2,7.01-1.89,9.75Z"/>
                <path class="cls-3" d="m52.8,126.38c6.7.29,18.28,2.97,24.63,5.82.97.44.62,1.9-.44,1.85-5.49-.26-13.5-2.07-18.63-3.71-2.02-.63-4.02-1.33-5.98-2.22-.46-.21-.66-.75-.45-1.21.16-.35.51-.55.87-.53Z"/>
                <path class="cls-2" d="m103.46,146.61c1.34.68,1.77,1.79,1.52,3-1.38,6.5-11.52,6.38-14.35,1.05-1.01-1.91-1.59-6.06,1.38-6.57,1.57-.27,7.08.32,11.45,2.53Z"/>
              </g>
              <g>
                <path class="cls-7" d="m52.09,168.43c-.32.52-1.14.33-1.2-.29-.22-2.69.86-7.04,2.25-9.27.17-.28.55-.36.83-.19.96.57-.12,6.88-1.89,9.75Z"/>
                <path class="cls-7" d="m67.63,172.14c-.32.51-1.15.33-1.2-.29-.22-2.7.86-7.04,2.25-9.27.17-.28.55-.36.83-.19.96.57-.12,6.88-1.89,9.75Z"/>
                <path class="cls-7" d="m83.18,175.86c-.32.51-1.14.33-1.2-.29-.22-2.66.85-7.02,2.25-9.27.17-.28.55-.36.83-.19.96.57-.14,6.92-1.89,9.75Z"/>
                <path class="cls-7" d="m98.73,179.57c-.31.51-1.14.33-1.2-.29-.22-2.69.86-7.04,2.25-9.27.17-.28.55-.36.83-.19,1.01.6-.2,7.01-1.89,9.75Z"/>
                <path class="cls-7" d="m114.28,183.28c-.18.29-.58.39-.88.21-.96-.56.09-6.8,1.94-9.77.17-.28.55-.36.83-.19.96.57-.12,6.88-1.89,9.75Z"/>
                <path class="cls-7" d="m129.82,186.99c-.32.51-1.14.33-1.2-.29-.22-2.69.86-7.04,2.25-9.27.17-.28.55-.36.83-.19,1.01.6-.2,7.01-1.89,9.75Z"/>
                <path class="cls-7" d="m75.1,146.84c3.05-2.1,8.12-1.02,10.69,1.41,2.55,2.41,1.46,6.16-3.35,6.39-6.59.32-11.29-5.08-7.34-7.81Z"/>
                <path class="cls-7" d="m117.85,157.05c-1.77-3.25-6.78-4.58-10.18-3.57-3.36,1-4.09,4.84.1,7.22,5.74,3.26,12.37.57,10.07-3.65Z"/>
              </g>
              <g class="cls-10">
                <path class="cls-8" d="m142.96,174.27l-5.43,14.83c-.91,2.46-3.5,3.85-6.05,3.25l-84.48-20.17c-.26-.06-.51-.14-.75-.25-.06-.02-.12-.05-.18-.07-.51-.23-.97-.54-1.36-.9-.14-.13-.27-.26-.4-.41-.11-.13-.23-.28-.34-.43-.04-.05-.07-.1-.11-.16-.08-.14-.18-.29-.25-.44-.09-.18-.18-.38-.25-.57,1.59-1.18,3.47-2.04,5.39-2.46,6.47-1.42,7.5-.55,65.72,12.11,3.87.85,7.96,1.68,11.74.5,3.48-1.09,6.21-3.75,8.19-6.87l8.57,2.05Z"/>
              </g>
            </g>
            <g>
              <path class="cls-8" d="m147.66,144.67c1.02.24,1.9.78,2.57,1.49,1.28,1.37,1.78,3.41,1.08,5.31l-8.35,22.8-5.43,14.83c-.91,2.47-3.5,3.85-6.05,3.25l-84.48-20.17c-1.73-.41-3.07-1.66-3.64-3.23-.28-.74-.39-1.56-.29-2.4l1.85-15.68,2.85-24.11c.36-3.06,3.31-5.14,6.32-4.42l93.56,22.34m.34-1.41l-93.56-22.34c-1.83-.44-3.77-.07-5.32,1.01-1.55,1.08-2.56,2.78-2.78,4.65l-2.85,24.11-1.85,15.68c-.13,1.04,0,2.11.37,3.08.75,2.06,2.49,3.61,4.66,4.12l84.48,20.17c3.26.78,6.59-1.01,7.75-4.15l5.43-14.83,8.35-22.8c.86-2.36.33-4.96-1.38-6.8-.88-.95-2.02-1.61-3.29-1.91h0Z"/>
              <path class="cls-8" d="m83.76,137.8c1.81.01,3.61,1.34,3.91,3.46.54,3.73-4.23,5.38-6.61,2.57-1.91-2.26-.39-6.05,2.7-6.03Z"/>
              <path class="cls-8" d="m114.2,145.07c-1.62-.8-3.82-.43-5.05,1.32-2.17,3.08,1.35,6.71,4.74,5.28,2.72-1.15,3.09-5.22.32-6.6Z"/>
            </g>
          </g>
          <g>
            <g>
              <path class="cls-5" d="m132.04,105.12c-.21.44-.33.54-.48.41-.1-.08-.22-.27-.38-.53-.11-.19-.26-.42-.44-.66-.09-.14-.19-.27-.3-.4-.1-.12-.22-.26-.34-.39-.01-.02-.02-.03-.04-.05-.07-.06-.12-.12-.19-.18-.17-.16-.32-.32-.49-.47-.33-.29-.68-.55-1.03-.79-.06-.04-.11-.09-.17-.11-.15-.09-.28-.18-.42-.26-.17-.09-.34-.18-.51-.26-.16-.08-.32-.15-.49-.21-.02-.02-.05-.03-.07-.03-.17-.06-.34-.12-.5-.17-.04,0-.06-.02-.09-.02-.19-.07-.36-.12-.56-.16-.4-.09-.8-.15-1.19-.18-.21-.01-.42-.03-.64-.03h0c-.16,0-.32.01-.49.02-.13,0-.25.01-.38.03-.17.01-.33.03-.5.07-.14.02-.28.04-.43.07-2.13.41-4.18,1.62-5.87,3.42-.04.04-.08.09-.12.13-.22.24-.43.48-.64.73-.48.57-.9,1.16-1.29,1.76-.09.15-.19.3-.28.46-.08.16-.18.3-.25.45-.08.15-.16.29-.22.43-.05.11-.11.23-.17.34-.28.58-.5,1.17-.7,1.74-.07.23-.14.45-.21.69-.12.47-.23.93-.31,1.4-.06.31-.1.62-.13.93,0,.03,0,.06,0,.08-.23,2.13,0,4.27.58,6.38.04.17.1.34.15.5,1.12,3.67,3.32,7.18,6.11,10.13.18.18.34.38.51.55.43.43.85.83,1.26,1.21.38.34.76.66,1.13.96.78.65,1.59,1.27,2.42,1.83.09.08.17.13.27.2.65.43,1.32.94,1.99,1.52.01.02.03.04.05.05,1.59,1.37,3.21,3.1,4.6,4.92.04.05.07.09.11.15,1.6,2.1,2.9,4.31,3.55,6.23.06.12.09.24.14.36.01.03.02.07.03.1.03.06.04.14.06.2.13.49.48,2.82,1.43,2.25.02-.01.03-.02.05-.05,0,0,.02,0,.02,0,.17-.17.34-.7.55-1.45.49-1.64,1.3-4.4,3.2-7.23,3.92-5.8,5.24-4.46,9.67-10.28,14.64-19.25-10.23-42.93-17.59-26.77Zm6.36,25.82c.9.55,2.02,1.83,2.38,3.34.02.08.03.15.03.2-.32-.12-.92-.48-1.59-1.14-.92-.89-1.54-1.9-1.52-2.52,0-.08.01-.14.01-.17.1,0,.33.06.69.28Zm-.45-14.01c.8-.39,1.72-.42,2.63-.2,1.49.36,2.96,1.39,3.83,2.61,1.27,1.78.74,3.14.45,3.64-.4.69-1.07,1.11-1.67,1.06-.06,0-.11-.02-.16-.03-.57-.14-.88-.71-1.05-1.2-1.05-3.05-2.49-3.66-3.53-4.1-.36-.16-.64-.28-.83-.48-.2-.21-.28-.45-.24-.66.04-.25.25-.48.57-.63Zm5.4-9.45c-1.17.52-5.15.98-5.89.87-1.86-.25-2.04-2.47,1.34-3.52,3.35-1.04,6.37,1.83,4.55,2.65Zm-19.4,20.38c-.88-1.36,2.35-6.66,4.21-5.52,1.47.89-2.2,8.61-4.21,5.52Zm-4.76-10.8c-.49-.03-.65-.22-.73-.39-.35-.75.18-2.43.72-3.2,2.17-3.13,5.14-4.07,6.56-3.72.24.06.49.17.51.33.02.15-.11.26-.99.69-.76.37-1.8.87-2.87,1.84-.88.8-1.35,1.85-1.77,2.76-.57,1.24-.85,1.74-1.43,1.7Z"/>
              <path class="cls-9" d="m136.77,149.41c.69-6.87-2.13-12.01-2.99-14.77-1.52-4.86-.33-7.84.1-12.65.43-4.8.51-9.25-1-13.81-.58-1.74-.9-2.07-1.32-2.64-.11-.15-.24-.32-.37-.53-.02-.04-.03-.07-.06-.1-.11-.2-.24-.39-.38-.56-.09-.14-.19-.27-.3-.39-.1-.12-.22-.26-.34-.39-.01-.02-.02-.04-.04-.05-.07-.06-.12-.12-.19-.19-.16-.16-.33-.32-.49-.47-.29-.26-.59-.5-.92-.72-.03-.03-.08-.05-.11-.07-.06-.04-.11-.09-.17-.11-.14-.09-.28-.18-.42-.26-.17-.09-.34-.18-.51-.26-.16-.08-.33-.15-.49-.21-.02-.03-.05-.03-.07-.04-.17-.06-.33-.12-.5-.18-.03,0-.05-.02-.09-.02-.18-.06-.37-.11-.56-.15-.4-.1-.79-.16-1.2-.19-.21-.02-.42-.03-.63-.03h0c-.16,0-.32.01-.49.02-.13,0-.25,0-.38.03-.17,0-.34.03-.51.06-.15.03-.28.05-.43.08-2.11.46-4.16,1.68-5.86,3.42-.04.04-.08.09-.12.13-.22.24-.43.49-.64.73-.47.55-.9,1.14-1.29,1.77-.1.15-.19.3-.28.45-.09.15-.17.3-.25.45-.08.14-.16.28-.22.43-.06.11-.11.22-.17.34-.26.57-.49,1.15-.7,1.75-.07.22-.15.45-.21.68-.12.46-.23.93-.31,1.4-.05.31-.1.62-.13.92,0,.03,0,.06-.01.09-.22,1.76-.15,3.6.32,5.44.08.31.16.62.27.94.04.17.1.34.15.51.98,3.01,2.53,5.73,4.5,8.23.55.7,1.1,1.33,1.61,1.9.18.18.34.37.51.54.43.43.84.83,1.25,1.21,1.23,1.11,2.4,1.96,3.55,2.79.09.07.18.13.27.2.66.49,1.32.98,1.99,1.52.01.02.03.04.05.04,1.46,1.2,2.96,2.66,4.6,4.92.04.05.08.1.12.15.59.82,1.2,1.74,1.83,2.78.88,1.44,1.39,2.56,1.72,3.45.05.12.09.24.13.36.01.03.02.07.04.1.31.9.46,1.53.72,2.09.15.31.52.43.83.32,0,0,.01,0,.01,0,.22-.1.42-.32.47-.7.03-.25.06-.51.09-.75Zm-13.88-36.27c-1.83,1.66-1.77,4.78-3.74,4.65-2.47-.17-1.36-3.56-.56-4.73,3.22-4.67,8.16-4.82,8.39-3.08.17,1.3-1.89,1.16-4.09,3.15Zm1.08,14.73c-.88-1.36,2.35-6.66,4.21-5.52,1.47.89-2.2,8.62-4.21,5.52Z"/>
              <path class="cls-3" d="m143.97,129.42c5.84-4.63,4.76-14.33,4.79-13.22-.02-.62.85-.79,1.07-.21,2.15,5.71-.6,12.78-5.38,14.34-.55.18-.93-.54-.48-.9h.01Z"/>
            </g>
            <g>
              <path class="cls-8" d="m152.44,109.02c-3.09-6.08-8.44-10.08-13.31-9.98-3.18.07-5.82,1.95-7.51,5.3-.08-.12-.17-.24-.25-.38-.11-.17-.23-.33-.35-.47-.1-.13-.22-.27-.34-.4-.04-.06-.1-.11-.13-.14-.02-.02-.04-.05-.07-.07,0,0-.07-.07-.08-.07-.17-.16-.34-.33-.52-.5-.35-.31-.72-.59-1.11-.84-.05-.04-.13-.1-.23-.15-.12-.08-.24-.15-.37-.23,0-.01-.06-.04-.08-.05-.16-.09-.34-.18-.51-.26-.17-.09-.34-.16-.51-.23-.04-.02-.08-.04-.12-.05l-.53-.19s-.07-.03-.11-.03c-.58-.19-1.18-.3-1.88-.36-.21-.02-.43-.03-.64-.03-.03,0-.05,0-.07,0-.18,0-.36,0-.48.02-.17,0-.33.01-.42.03-.21.02-.4.04-.6.07l-.44.08c-2.29.44-4.45,1.7-6.24,3.62l-.14.15c-.18.19-.34.38-.51.58l-.15.18c-.47.58-.9,1.17-1.33,1.83-.11.17-.21.33-.3.5-.09.17-.18.32-.24.44-.11.17-.19.34-.24.47l-.19.36c-.28.58-.52,1.2-.73,1.84-.08.23-.16.47-.23.72-.15.58-.25,1.03-.33,1.46-.05.32-.1.66-.13.97l-.02.09c-.23,2.16-.03,4.4.6,6.62.03.17.09.33.16.56,1.12,3.64,3.28,7.24,6.29,10.43l.22.23c.1.11.2.22.3.32.44.44.86.85,1.28,1.24.4.36.78.67,1.16.97.92.77,1.71,1.37,2.44,1.85.11.09.21.16.33.24.62.4,1.27.9,1.92,1.45.02.01.04.04.05.05,1.54,1.32,3.13,3.03,4.51,4.81l.1.15c1.62,2.11,2.84,4.26,3.46,6.07.05.1.09.22.15.38l.69-.2.65-.34c-.04-.13-.09-.26-.13-.36-.65-1.92-1.96-4.2-3.67-6.45l-.12-.14c-1.44-1.89-3.06-3.63-4.7-5.04,0,0-.02-.01-.03-.03t-.02-.01c-.69-.6-1.4-1.13-2.07-1.57-.08-.05-.15-.1-.27-.2-.73-.48-1.48-1.05-2.38-1.8-.36-.29-.73-.59-1.09-.92-.4-.38-.81-.76-1.23-1.19-.09-.1-.17-.18-.26-.28l-.24-.25c-2.85-3.02-4.9-6.43-5.95-9.85l-.02-.09c-.05-.12-.08-.24-.12-.4-.58-2.08-.77-4.13-.57-6.1,0-.03.01-.06.01-.1.03-.28.07-.58.12-.87.08-.45.19-.9.3-1.33.06-.22.13-.43.2-.65.18-.58.41-1.14.65-1.65l.19-.36c.05-.12.11-.24.21-.4.07-.14.15-.28.23-.43.08-.15.17-.28.26-.41.4-.62.8-1.18,1.22-1.69l.15-.17c.16-.19.31-.36.45-.53,0,0,.13-.14.14-.14,1.58-1.68,3.52-2.82,5.45-3.21l.44-.07c.14-.02.27-.05.49-.06.09-.02.17-.02.31-.02.13-.01.27-.02.41-.02,0,0,.03,0,.05,0,.19,0,.38,0,.57.02.39.04.76.09,1.09.17.17.04.33.08.49.14.03.02.07.03.1.03l.41.15s.08.04.13.06c.14.05.28.1.42.18.15.07.31.16.47.24.12.08.24.15.37.23.04.03.03.03.07.05,0,0,.1.07.1.07.34.22.66.47.95.72.15.14.31.3.51.49.05.04.08.08.12.11.01.02.03.03.04.06.1.11.21.24.32.37.08.09.16.19.24.33.17.24.31.46.43.65.19.31.33.54.51.69.3.25.61.23.76.2.44-.1.67-.49.84-.85h0c1.45-3.18,3.68-4.89,6.46-4.95,4.25-.09,9.19,3.68,12,9.18,1.74,3.43,5.03,12.41-2.1,21.79-2.06,2.71-3.42,3.81-4.73,4.88-1.47,1.2-2.85,2.32-4.96,5.43-1.93,2.88-2.76,5.68-3.29,7.43-.06.2-.15.53-.24.79-.09-.23-.21-.6-.34-1.19-.03-.14-.06-.26-.08-.34l-.7.2.67-.29c-.01-.06-.03-.11-.05-.16l-.68.25-.67.29c.01.06.03.11.03.11.02.06.04.15.06.26.24,1.09.54,2.18,1.33,2.52.06.02.13.05.19.06.31.07.63.02.93-.17.04-.03.08-.06.13-.1.02-.01.06-.04.07-.07.29-.3.45-.79.76-1.82.47-1.59,1.27-4.26,3.08-6.96,1.98-2.93,3.22-3.94,4.67-5.12,1.32-1.06,2.8-2.27,4.97-5.12,5.3-6.97,6.14-15.68,2.23-23.32Z"/>
              <path class="cls-8" d="m137.07,109.01c.09.02.19.04.28.06.84.12,4.99-.35,6.3-.93.84-.38,1.18-1.15.86-1.98-.54-1.41-3.11-2.89-5.93-2.02-2.46.76-3.25,2.12-3.16,3.14.07.85.7,1.51,1.64,1.73Zm1.73-4.18c3.35-1.04,6.37,1.83,4.55,2.65-1.17.52-5.15.98-5.89.87-1.86-.25-2.04-2.47,1.34-3.52Z"/>
              <path class="cls-8" d="m125.89,112.07c.97-.46,1.97-.94,1.81-2.18-.11-.76-.69-1.32-1.61-1.55h0c-2.13-.51-5.69.83-8.09,4.31-.57.81-1.56,3.12-.83,4.65.2.43.62.94,1.44,1.14.15.04.31.06.5.07,1.63.11,2.28-1.3,2.84-2.54.38-.83.77-1.69,1.42-2.3.91-.82,1.81-1.25,2.53-1.6Zm-5.27,3.3c-.57,1.24-.85,1.74-1.43,1.7-.49-.03-.65-.22-.73-.39-.35-.75.18-2.43.72-3.2,2.16-3.13,5.14-4.06,6.56-3.72.24.06.49.17.51.33.02.15-.11.26-.99.69-.76.37-1.8.87-2.87,1.84-.88.8-1.35,1.85-1.77,2.76Z"/>
              <path class="cls-8" d="m128.54,121.73c-.54-.33-1.66-.65-3.21.93-.9.93-1.82,2.42-2.13,3.73-.17.72-.16,1.4.15,1.87.42.64.89.91,1.31,1.01.31.07.58.06.78,0,1.8-.36,3.38-3.35,3.73-5.31.24-1.4-.21-1.99-.62-2.24Zm-4.59,6.13c-.88-1.36,2.35-6.66,4.21-5.52,1.47.89-2.2,8.61-4.21,5.52Z"/>
              <path class="cls-8" d="m137.53,129.24c-.6.06-1.25.51-1.27,1.57-.04,1.84,2.16,4.12,3.7,4.89.24.12.46.19.65.24.58.14.97-.01,1.2-.2.45-.35.57-.94.38-1.78-.63-2.69-3.13-4.88-4.67-4.72Zm1.7,4.12c-.92-.89-1.54-1.9-1.52-2.52,0-.08.01-.14.01-.17.1,0,.33.06.69.28.9.55,2.02,1.83,2.38,3.34.02.08.03.15.03.2-.32-.12-.92-.48-1.59-1.14Z"/>
              <path class="cls-8" d="m137.33,115.62c-.74.36-1.24.97-1.37,1.68-.12.68.1,1.37.61,1.92.38.42.86.62,1.31.81.89.38,1.89.82,2.74,3.25.4,1.16,1.16,1.93,2.1,2.15.11.03.23.05.35.06,1.17.11,2.38-.59,3.06-1.78.89-1.55.69-3.49-.53-5.2-1.74-2.45-5.39-4.25-8.26-2.89Zm7.09,3.72c1.27,1.78.74,3.14.45,3.64-.4.69-1.07,1.11-1.67,1.06-.06,0-.11-.02-.16-.03-.57-.14-.88-.71-1.05-1.2-1.05-3.05-2.49-3.66-3.53-4.1-.36-.16-.64-.28-.83-.48-.2-.21-.28-.45-.24-.66.04-.25.25-.48.57-.63.8-.39,1.72-.42,2.63-.2,1.49.36,2.96,1.39,3.83,2.61Z"/>
              <path class="cls-8" d="m135.47,145.54c-.02.36.22.67.55.75.04,0,.08.02.12.02.4.03.74-.28.77-.68.18-2.76-.6-5.19-1.42-7.76-.99-3.09-2.11-6.58-1.93-11.56.05-1.4.21-2.61.38-3.9.44-3.31.89-6.74-.69-13.45-.09-.39-.48-.63-.87-.54-.39.09-.63.48-.54.87,1.52,6.45,1.08,9.74.66,12.92-.17,1.26-.34,2.57-.39,4.04-.18,5.23.98,8.86,2,12.06.81,2.54,1.52,4.74,1.35,7.23Z"/>
            </g>
          </g>
        </g>
        <g>
          <g>
            <g>
              <path class="cls-6" d="m49.01,44.06c-.31,2.78-1.24,5.57-2.5,7.25-.87,1.14-1.84,1.83-3.64,2.11-1.94.3-4.75-.17-7.26-1.63-2.35-1.38-3.85-3.34-4.04-5.42-.14-1.46.37-2.99,1.65-4.42.89-.99,2.09-2.07,3.43-3.04,2.55-.11,5.11-.56,6.82-1.01,1.13-.3,2.53-.75,3.6-1.38.06.38.12.79.2,1.2.16.84.36,1.73.59,2.64l.06.23c.1.38.21.76.32,1.12.24.83.5,1.62.77,2.35Z"/>
              <path class="cls-6" d="m68.87,42.94c-1.45,2.52-3.65,4.32-5.49,5.02-1.7.66-2.88.54-4.2-.02-1.93-.83-4.12-2.79-5.78-5.05-.13-.77-.28-1.58-.49-2.42-.09-.37-.18-.75-.28-1.14l-.06-.22c-.25-.91-.52-1.78-.81-2.59-.12-.39-.26-.77-.41-1.13,1.23,0,2.68-.3,3.81-.6,1.71-.45,4.15-1.33,6.42-2.5,1.65.18,3.21.52,4.48.93,1.83.6,3.02,1.68,3.63,3.01.87,1.91.55,4.35-.82,6.71Z"/>
            </g>
            <g>
              <path class="cls-7" d="m61.16,46.27c-1.46-.24-3.12-1.62-4.16-2.68-1.55-1.58-2.77-3.51-3-4.1-.5-1.3,7.23,2.87,8.75,5.04.42.6.38.94-.18,1.44-.4.35-.89.39-1.42.31Z"/>
              <path class="cls-7" d="m67.45,37.01c.34,1.24-1.16,1.65-2.06,1.59-1.19-.08-2.37-.6-3.44-1.12-.69-.33-3.26-1.75-3.7-2.17-.71-.67,2.98-.52,3.24-.49,1.65.18,5.51.54,5.96,2.18Z"/>
              <path class="cls-7" d="m67.39,26.96c-.6,2.06-3.08,3.91-5.81,5.33-2.27,1.17-4.71,2.05-6.42,2.5-1.14.3-2.6.6-3.84.6-.08,0-.16,0-.24-.01-.12.01-.23,0-.34-.01-.47-.04-.52-.11-.49-.58.57-8.04,10.83-22.78,15.23-19.04,2.42,2.05,2.95,7.69,1.91,11.21Z"/>
              <path class="cls-7" d="m43.95,50.84c1.15-.93,1.9-2.95,2.28-4.39.56-2.14.66-4.42.56-5.05-.21-1.37-4.85,6.08-5.09,8.72-.07.74.14,1,.87,1.16.52.11.97-.1,1.38-.44Z"/>
              <path class="cls-7" d="m33.89,45.94c.32,1.24,1.83.86,2.58.36.99-.66,1.76-1.7,2.43-2.68.43-.63,1.96-3.14,2.13-3.72.29-.93-2.84,1.03-3.05,1.18-1.35.97-4.51,3.21-4.09,4.85Z"/>
              <path class="cls-7" d="m47.59,36.21c-.09.06-.19.13-.29.18-1.1.69-2.62,1.19-3.83,1.51-1.71.45-4.27.9-6.82,1.01-3.08.13-6.15-.25-7.69-1.73-2.65-2.54-4.99-7.7-3.91-10.68,1.96-5.43,18.19,2.27,22.68,8.96.26.4.25.48-.14.75Z"/>
              <path class="cls-7" d="m52.86,49.67c-.84.23-2.06-1.4-3.21-4.03-.18-.41-.36-.86-.54-1.32-.03-.08-.06-.17-.1-.26-.27-.73-.53-1.52-.77-2.35-.11-.36-.22-.74-.32-1.12l-.06-.23c-.23-.89-.42-1.77-.58-2.59,0-.02,0-.03,0-.05-.08-.41-.14-.82-.2-1.2,0-.06-.02-.12-.03-.18-.49-3.37-.29-5.84.65-6.09s2.35,1.8,3.59,4.96c.02.06.05.12.07.18.15.36.29.74.41,1.13,0,.02,0,.03.02.05.28.8.55,1.65.79,2.54l.06.22c.1.39.19.77.28,1.14.21.84.36,1.64.49,2.41h0c.02.1.04.19.05.28.08.49.14.96.19,1.42.31,2.84.05,4.87-.78,5.09Z"/>
            </g>
            <g>
              <path class="cls-11" d="m51.76,36.53c-.72.29-1.46.53-2.21.73l-.17.04c-.7.18-1.4.32-2.11.42-.1-.47-.17-.93-.23-1.37.68-.09,1.34-.22,2-.4.76-.19,1.51-.44,2.24-.73.16.41.33.85.48,1.31Z"/>
              <path class="cls-11" d="m52.56,39.11l.06.23c.1.39.19.76.28,1.14-.75.3-1.51.56-2.3.76l-.17.04c-.73.19-1.47.33-2.21.43-.11-.37-.21-.74-.32-1.13l-.06-.23c.76-.09,1.51-.24,2.24-.44.84-.21,1.66-.49,2.47-.82Z"/>
              <path class="cls-11" d="m53.44,43.17c.08.49.14.96.19,1.41-.64.25-1.3.46-1.97.64l-.17.04c-.61.15-1.23.28-1.85.39-.18-.42-.36-.86-.54-1.33.69-.09,1.37-.23,2.05-.41.78-.2,1.54-.45,2.29-.74Z"/>
              <path class="cls-11" d="m50.44,30.06c.57,2.13-1.71,4.08-3.72,3.18-2.33-1.01-2.08-4.44.4-5.1,1.44-.38,2.94.47,3.32,1.92Z"/>
            </g>
            <g>
              <path class="cls-6" d="m64.19,19.1c-.87,3.02-8.21,10.4-11.54,12.99-.16.13-.35.23-.48.09-.09-.09-.02-.24.03-.36,1.4-2.91,8.86-15.31,11.66-13.62.16.1.44.51.33.9Z"/>
              <path class="cls-6" d="m54.07,33.42c-.2.06-.4.09-.57.18-.09.05-.24.04-.3-.08-.09-.16.07-.26.22-.4,1.86-1.61,9.73-7.85,11.74-6.39.31.23.4.62.2.96-1.01,1.75-9.35,5.26-11.28,5.72Z"/>
              <path class="cls-6" d="m27.82,28.77c2.25,2.19,12.29,4.95,16.46,5.54.2.03.41.02.46-.16.04-.13-.1-.22-.21-.3-2.66-1.83-15.29-8.89-16.89-6.03-.09.16-.13.66.16.95Z"/>
              <path class="cls-6" d="m43.72,36.17c.21-.05.39-.12.59-.13.1,0,.22-.08.23-.22,0-.19-.19-.2-.39-.23-2.42-.47-12.35-1.98-13.36.28-.16.36-.04.74.3.93,1.74,1.01,10.73-.08,12.64-.64Z"/>
            </g>
            <g>
              <path class="cls-2" d="m66.74,42c.23.58-.06,1.5-.83,1.84-.62.28-1.38-.01-2-.29-3.76-1.7-9.54-6.44-9.97-7.04-.14-.19-.03-.4.2-.41,1.04-.03,10.16,2.72,12.17,5.09.26.31.33.43.43.81Z"/>
              <path class="cls-2" d="m59.29,27.71c-.11.03-.22.07-.34.06-.17,0-.29-.2-.01-.55.96-1.22,2.45-2.68,4.02-3.69,2.58-1.67,3.3-.46,2.96.27-.59,1.25-3.81,2.74-5.08,3.3-.51.22-1.03.41-1.54.61Z"/>
              <path class="cls-2" d="m36.98,49.92c.09.62.8,1.27,1.63,1.18.68-.07,1.19-.7,1.59-1.25,2.42-3.34,5.08-10.33,5.16-11.06.02-.23-.17-.37-.38-.26-.92.49-7.47,7.41-8.03,10.46-.07.39-.07.54.03.92Z"/>
              <path class="cls-2" d="m36.35,33.81c.11-.03.23-.05.33-.11.15-.09.15-.31-.26-.48-1.44-.58-3.46-1.11-5.33-1.21-3.07-.16-3.09,1.24-2.43,1.7,1.14.79,4.67.49,6.05.34.55-.06,1.09-.16,1.64-.24Z"/>
            </g>
            <g class="cls-10">
              <path class="cls-8" d="m68.87,42.94c-1.45,2.52-3.65,4.32-5.49,5.02-1.7.66-2.88.54-4.2-.02-1.93-.83-4.12-2.79-5.78-5.05h0c-.13-.78-.28-1.58-.49-2.42-.09-.37-.18-.75-.28-1.14l-.06-.22c-.24-.89-.51-1.74-.79-2.54,3.22,1.15,5.11,5.34,7.24,6.71,1.42.92,3.18.93,4.4-.29.83-.82,1.02-1.76,1.69-3.43,1.03-2.62,2.82-3.54,4.58-3.33.87,1.91.55,4.35-.82,6.71Z"/>
              <path class="cls-8" d="m67.54,19.85c.07.33.14.65.19.96.31,1.82.25,4.18-.34,6.16-.32,1.08-.94,1.94-1.78,2.66-2.72,2.32-7.02,4.26-10.45,5.17h0c-1.26.34-3.08.71-4.39.59.96-2.1,3.71-3.74,5.75-4.73,3.19-1.56,5.89-1.73,7.23-2.91.64-.56.77-1.31.82-2.21.11-2.44,1.57-4.65,2.98-5.68Z"/>
              <path class="cls-8" d="m49.01,44.06c-.31,2.78-1.24,5.57-2.5,7.25-.87,1.14-1.84,1.83-3.64,2.11-1.94.3-4.75-.17-7.26-1.63-2.35-1.38-3.85-3.34-4.04-5.42,1.42-1.06,3.43-1.15,5.63.61,1.41,1.12,2.04,1.84,3.17,2.15,1.67.44,3.18-.44,3.96-1.94,1.16-2.24.73-6.82,2.95-9.42.16.82.35,1.7.58,2.59l.06.23c.1.38.21.76.32,1.12.24.83.5,1.62.77,2.35Z"/>
              <path class="cls-8" d="m25.29,31.08c.1.32.2.63.31.93.63,1.73,1.86,3.75,3.35,5.18.81.78,1.77,1.21,2.87,1.42,3.52.66,8.21.21,11.64-.71h0c1.26-.33,3.03-.91,4.1-1.67-1.88-1.35-5.07-1.4-7.34-1.25-3.55.23-5.97,1.42-7.72,1.07-.83-.17-1.32-.75-1.81-1.51-1.31-2.07-3.67-3.25-5.41-3.45Z"/>
            </g>
          </g>
          <path class="cls-8" d="m70.35,35.93c-.72-1.59-2.13-2.76-4.06-3.4-.78-.26-1.64-.48-2.54-.66,2.07-1.3,3.81-2.89,4.34-4.7,1.13-3.84.53-9.7-2.14-11.98-.72-.61-1.99-1.17-3.91-.36-3.88,1.63-8.77,8.3-11.14,14.39-.31-.64-.82-1.14-1.42-1.47.03-.09.07-.19.11-.29.66-1.58.66-3.11.01-4.54-.17-.36-.6-.53-.96-.36-.37.17-.53.6-.36.96.49,1.07.48,2.17-.03,3.39-.06.14-.11.28-.16.42-.38-.03-.77,0-1.15.1s-.74.27-1.05.48c-.07-.06-.15-.13-.22-.19-.94-.83-1.68-1.48-1.81-2.94-.04-.4-.39-.69-.79-.65-.4.03-.69.39-.65.79.18,2.02,1.3,3.01,2.3,3.89.05.05.11.1.16.15-.27.45-.44.98-.48,1.54,0,.16,0,.31.01.46-5.08-4.11-12.65-7.48-16.83-6.97-2.07.26-2.89,1.37-3.21,2.26-.21.59-.31,1.26-.31,1.96,0,3.19,2.03,7.22,4.4,9.5.79.75,1.89,1.25,3.15,1.55.92.22,1.93.34,2.95.38-.7.6-1.33,1.22-1.88,1.83-1.36,1.51-1.99,3.23-1.83,4.96.1,1.15.56,2.27,1.31,3.29s1.79,1.94,3.08,2.69c1.16.68,2.44,1.18,3.71,1.49,1.41.33,2.81.42,4.03.24,1.85-.29,3.04-.98,4.11-2.39.95-1.26,1.72-3.11,2.21-5.13,1.06,2.27,2.09,3.53,3.07,3.76.22.05.45.05.67-.01,1.18-.31,1.65-2.03,1.39-5.12,1.42,1.51,3.01,2.73,4.46,3.36.4.16.77.29,1.14.38,1.18.28,2.29.16,3.61-.35,1.11-.43,2.22-1.15,3.23-2.07,1.02-.93,1.93-2.05,2.63-3.27,1.49-2.59,1.8-5.27.85-7.37Zm-7.75-19.77c.65-.27,1.21-.35,1.68-.24.27.07.51.19.73.38,1.46,1.24,2.17,4.07,2.17,6.81,0,1.3-.16,2.57-.48,3.65-.51,1.73-2.7,3.42-5.28,4.78-.91.49-1.88.93-2.84,1.32-1.26.52-2.5.93-3.61,1.23-.02,0-.04,0-.06.02-.68.18-1.52.37-2.35.48-.24.03-.48.06-.71.07-.14-.33-.28-.67-.43-1.01-.07-.14-.14-.29-.21-.43,1.27-6.29,7.11-15.26,11.39-17.06Zm-15.29,12.67c.14-.03.29-.05.43-.05.19-.02.37,0,.55.04.31.08.6.23.84.44.29.24.51.58.62.98.05.2.07.39.05.57-.03.61-.36,1.12-.72,1.42,0,.01-.03.02-.04.03-.46.38-1,.53-1.53.45-.16-.02-.33-.07-.49-.14-.42-.18-.7-.45-.89-.76-.23-.38-.31-.82-.28-1.2,0-.17.05-.35.11-.53.15-.44.46-.87.99-1.11.11-.06.23-.11.36-.14Zm-17.85,7.83c-2.51-2.41-4.68-7.26-3.73-9.92.27-.75.93-1.18,2.02-1.31,4.6-.57,14.13,4.31,18.36,9.14,0,.16.03.32.04.48.04.36.08.73.13,1.08-.21.11-.42.2-.65.3-.77.32-1.6.57-2.29.75-.02.01-.04.01-.06.02-1.11.3-2.41.56-3.77.74-1.04.14-2.1.24-3.14.26-2.91.09-5.62-.3-6.91-1.54Zm16.47,14.21c-.71.94-1.49,1.58-3.17,1.83-1.99.31-4.66-.3-6.79-1.54-2.17-1.27-3.51-3.04-3.68-4.86-.12-1.34.37-2.64,1.47-3.86.87-.96,1.95-1.94,3.14-2.82,2.68-.13,5.25-.62,6.68-1,.03-.01.05-.01.07-.02.84-.23,1.9-.55,2.87-.98,0,.08.02.15.04.23.15.82.35,1.73.6,2.7l.06.22c.1.39.21.77.32,1.15.22.74.46,1.47.72,2.19-.31,2.61-1.18,5.23-2.33,6.76Zm6.8-7.6c.08.48.14.94.19,1.39.32,2.87-.05,4.16-.22,4.31-.21-.03-1.13-.74-2.39-3.62-.17-.4-.35-.84-.52-1.29-.01-.04-.03-.07-.04-.11-.3-.8-.57-1.62-.82-2.44-.1-.36-.21-.73-.31-1.11l-.06-.22c-.24-.93-.43-1.8-.58-2.61-.05-.22-.09-.45-.12-.67-.04-.23-.07-.45-.1-.66-.02-.16-.05-.32-.07-.47-.07-.59-.12-1.13-.16-1.6.05,0,.1,0,.15,0,.69.03,1.38-.17,1.98-.57.03-.02.06-.04.09-.06.22.43.45.93.69,1.51.05.14.11.28.17.43.08.2.16.41.24.63.08.21.16.43.23.65.27.75.53,1.6.79,2.54l.06.22c.1.37.18.73.28,1.12.2.85.37,1.71.5,2.54h.01s0,.06,0,.09Zm15.52-.69c-1.23,2.13-3.25,3.98-5.13,4.71-1.58.61-2.57.45-3.65-.02-1.77-.76-3.83-2.6-5.4-4.72-.12-.74-.27-1.5-.46-2.29-.09-.37-.18-.74-.28-1.11l-.06-.23h0c-.27-.97-.55-1.86-.82-2.62-.02-.08-.05-.16-.08-.23,1.06-.11,2.14-.36,2.98-.58.02,0,.04-.01.06-.02,1.44-.38,3.91-1.23,6.32-2.46.89.11,1.77.27,2.6.47.52.13,1.03.27,1.51.43,1.56.51,2.63,1.39,3.19,2.62.28.61.42,1.3.42,2.03,0,1.26-.41,2.64-1.2,4.02Z"/>
        </g>
      </g>
      <g>
        <path class="cls-12" d="m40.71,7.95c-.78.88-2.39,1.96-3.84,5.6-.13.33-.27.66-.45.96-.25.42-.76.43-1.04.02-.63-.93-.63-2.39-2.73-4.96-1.23-1.51-2.45-2-1.38-2.87,2.67-2.18,3.65-5.52,4.14-6.39.21-.38.71-.4.97-.06.28.37.42.81.59,1.23,1.22,3.16,2.96,4.63,3.66,5.34.18.18.35.83.08,1.13Z"/>
        <path class="cls-12" d="m26.22,70.38c-.78.88-2.39,1.96-3.84,5.6-.13.33-.27.66-.45.96-.25.42-.76.43-1.04.02-.63-.93-.63-2.39-2.73-4.96-1.23-1.51-2.45-2-1.38-2.87,2.67-2.18,3.65-5.52,4.14-6.39.21-.38.71-.4.97-.06.28.37.42.81.59,1.23,1.22,3.16,2.96,4.63,3.66,5.34.18.18.35.83.08,1.13Z"/>
        <path class="cls-12" d="m11.34,36.48c-.19.21-.38.42-.59.61-2.95,2.68-3.69,5.84-4.35,6.94-.29.48-.88.5-1.2.03-.22-.33-.39-.71-.52-1.09-2.03-5.92-6.06-6.42-4.21-7.93,3.08-2.51,4.2-6.35,4.77-7.36.25-.44.81-.46,1.11-.06.32.42.48.93.67,1.42,1.41,3.64,3.42,5.34,4.22,6.15.2.21.4.95.09,1.3Z"/>
        <path class="cls-12" d="m165.77,188.76c-.78.88-2.39,1.96-3.84,5.6-.13.33-.27.66-.45.96-.25.42-.76.43-1.04.02-.63-.93-.63-2.39-2.73-4.96-1.23-1.51-2.45-2-1.38-2.87,2.67-2.18,3.65-5.52,4.14-6.39.21-.38.71-.4.97-.06.28.37.42.81.59,1.23,1.22,3.16,2.96,4.63,3.66,5.34.18.18.35.83.08,1.13Z"/>
        <path class="cls-12" d="m173.71,139.2c-.78.88-2.39,1.96-3.84,5.6-.13.33-.27.66-.45.96-.25.42-.76.43-1.04.02-.63-.93-.63-2.39-2.73-4.96-1.23-1.51-2.45-2-1.38-2.87,2.67-2.18,3.65-5.52,4.14-6.39.21-.38.71-.4.97-.06.28.37.42.81.59,1.23,1.22,3.16,2.96,4.63,3.66,5.34.18.18.35.83.08,1.13Z"/>
        <path class="cls-12" d="m189.34,169.48c-.9,1.01-2.75,2.25-4.43,6.45-.15.38-.31.75-.51,1.1-.29.48-.88.5-1.2.03-.72-1.07-.73-2.76-3.15-5.71-1.42-1.74-2.82-2.3-1.59-3.31,3.08-2.51,4.2-6.35,4.77-7.36.25-.44.81-.46,1.11-.07.32.42.48.93.67,1.42,1.41,3.64,3.42,5.34,4.22,6.15.2.21.4.95.09,1.3Z"/>
      </g>
    </g>
  </g>
</svg>