<?xml version="1.0" encoding="UTF-8"?>
<svg id="_Слой_2" data-name="Слой 2" xmlns="http://www.w3.org/2000/svg" viewBox="0 0 220.16 206.61">
  <defs>
    <style>
      .cls-1 {
        fill: #fff;
      }

      .cls-2 {
        fill: #4ebcf7;
      }

      .cls-3 {
        fill: #3d2929;
      }

      .cls-4 {
        fill: #b0d8e4;
      }

      .cls-5 {
        fill: #ad8b96;
      }

      .cls-6 {
        fill: #e7d8dd;
      }

      .cls-7 {
        fill: #ff988c;
      }

      .cls-8 {
        fill: none;
      }

      .cls-9 {
        fill: #fe6963;
      }

      .cls-10 {
        fill: #ffa255;
      }

      .cls-11 {
        fill: #faeddc;
      }
    </style>
  </defs>
  <g id="OBJECTS">
    <g>
      <path class="cls-1" d="m109.61,206.61c-2.31,0-4.78-.05-7.55-.16-18.39-.71-33.64-2.53-47.85-5.7-2.65.62-5.23.94-7.7.94-.55,0-1.09-.02-1.64-.05-.96-.06-1.85-.34-2.63-.78-3.08-.37-5.8-1.35-8.12-2.93-4.36-2.97-7.38-6.99-8.99-11.96-.12-.12-.24-.25-.36-.38-6.86-7.3-12.3-16.11-15.73-25.5-2.51-6.88-5.28-15.03-6.77-23.41-.26-1.48-.47-2.94-.64-4.36-1.62-3.02-1.77-6.56-.4-9.63.28-8.61,2.35-16.93,6.15-24.76.58-1.2,1.19-2.4,1.82-3.61-3.3-7.13-5.83-14.49-7.69-22.42-1.63-6.92-2.93-15.94,1.48-24.42,2.53-4.84,6.8-7.77,11.42-7.83.02,0,.12,0,.14,0,3.33,0,5.91,1.52,7.56,2.66,1.24.85,2.39,1.76,3.46,2.69,2-7.43,9.89-12.65,20.26-13.38,10.79-10.41,23.95-17.54,38.26-20.73C91.24,3.95,101.59,0,112.86,0c1.55,0,3.11.08,4.64.23,10,1.02,18.93,5.07,25.56,11.52,1.94-1.25,4.25-1.97,6.72-1.97,6.82,0,12.37,5.55,12.37,12.37,0,2.67-.87,5.16-2.34,7.19,1.17,1.11,2.3,2.25,3.37,3.44.35.39.7.78,1.03,1.17.08,0,.16,0,.25,0,5.64,0,10.99,2.64,14.43,7.09.15.15.27.3.38.44.22.29.47.66.69,1.11,1.71,2.75,2.66,5.89,2.75,9.13.12,4.33-1.31,8.52-3.98,11.87.41,1.74.77,3.5,1.07,5.28,6.08-4.91,13.12-8.85,21.44-9.67.7-.07,1.42-.1,2.14-.1,7.99,0,14.37,4.02,16.25,10.25,2.14,7.07-2.46,13.58-4.19,16.03-6.23,8.81-13.93,17.31-23.43,25.81,4.01,4.99,5.74,12.77,4.28,21.34-.11.68-.28,1.61-.53,2.6-2.07,8.53-6.89,15.43-12.91,18.72-.02.07-.05.13-.07.2-5.65,16.45-15.58,30.62-27.97,39.91-.05.04-.1.07-.15.11-.18.13-.33.25-.48.35-10.24,7.47-22.39,11.3-38.22,12.06-.09,0-.19,0-.28,0h-.21c-1.91.09-3.8.13-5.84.13Z"/>
      <g>
        <path class="cls-2" d="m178.77,147.3c-.21.77-.44,1.55-.68,2.31-.26.84-.53,1.68-.82,2.52-4.95,14.42-13.67,27.94-25.96,37.16-.16.12-.32.24-.48.35-10.57,7.75-22.63,10.42-35.16,11.02-.17,0-.35,0-.52.02-4.25.18-8.54.13-12.86-.04-16.24-.63-32.31-2.22-48.15-5.87-.33-.07-.65-.15-.98-.23h0c-.37-.08-.74-.16-1.1-.26h0s-.04,0-.06,0c-4.33-1.05-9.24-1.87-13.06-4.12-2.88-1.7-5.56-4.09-7.98-6.54-.21-.22-.44-.44-.64-.66-.44-.44-.86-.88-1.28-1.33-6.34-6.74-11.34-14.83-14.52-23.52-2.75-7.53-5.17-14.96-6.51-22.43-.31-1.76-.55-3.51-.72-5.26-.2-2.07-.29-4.14-.26-6.19,0,0,0,0,0,0,.08-8.15,1.9-16.11,5.6-23.73,1-2.04,2.03-4.04,3.1-6.02,5.45-10.11,11.61-19.55,15.64-30.46.17-.47.36-.95.55-1.42.55-1.43,1.16-2.83,1.81-4.22.31-.66.62-1.32.95-1.96,3.05-6.05,6.9-11.64,11.38-16.62.75-.83,1.52-1.64,2.3-2.44,10.46-10.64,23.94-18.19,38.7-21.13h0c.39-.08.76-.15,1.16-.22h0c3.01-.55,6.07-.9,9.17-1.05,2.81-.14,5.66-.15,8.53-.04,0,0,0,0,.02,0,2.85.1,5.73.33,8.59.7.05,0,.09,0,.14.02,3.64.46,7.25,1.14,10.82,2.05h0c5.42,1.37,10.68,3.27,15.62,5.76.89.44,1.77.9,2.64,1.39.78.44,1.56.88,2.32,1.36,1.3.78,2.56,1.63,3.8,2.51,3.25,2.32,6.27,4.98,8.98,7.97.99,1.09,1.93,2.22,2.81,3.39.26.33.51.67.75,1.01,2.08,2.82,3.87,5.85,5.41,9.01.05.09.09.17.13.26.05.09.09.16.13.25,1.72,3.61,3.1,7.4,4.18,11.29.02.04.03.07.04.11h0c1.7,6.18,2.65,12.61,2.92,19.02.05.98.08,1.96.09,2.94.11,8.4-.79,16.83.09,25.21.06.59.14,1.18.23,1.76.08.55.17,1.1.28,1.65.24,1.28.53,2.54.85,3.8,1.21,4.87,2.81,9.65,3.44,14.64.13.96.21,1.93.26,2.91.19,4.52-.52,9.02-1.71,13.39Z"/>
        <g>
          <path class="cls-5" d="m121.99,141.63c9.24-23.31,20.32-46.39,37.39-64.77,1.64-1.76,3.38-3.52,5.58-4.48,2.2-.97,4.98-.98,6.82.57,2.82,2.37,2.17,6.8,1.27,10.37,7.95-8.5,17.17-17.2,28.74-18.34,4.92-.48,10.83,1.31,12.26,6.05,1.15,3.81-1.08,7.75-3.37,11-11.38,16.09-26.54,29.14-42.41,40.81-15.88,11.67-32.62,22.14-48.27,34.12.71-4.36.36-11.21,1.99-15.32Z"/>
          <path class="cls-5" d="m59.8,172.29c-11.75-17.25-31.31-30.01-43.5-47.04-2.93-4.1-5.48-8.64-5.16-13.59.11-1.67.73-3.58,2.57-4.51,1.97-.99,4.42-.39,6.18.57s3.3,2.24,5.4,2.66c-8.89-12.44-14.72-25.36-18.12-39.8-1.56-6.64-2.46-13.81.98-20.41,1.17-2.25,3.42-4.67,6.35-4.71,1.69-.02,3.11.79,4.33,1.63,7.26,5.02,11.53,12.27,15.18,19.5,16.74,33.2,24.69,68.72,25.79,105.69Z"/>
          <g>
            <path class="cls-3" d="m141.16,18.23c.75.89,1.45,1.81,2.1,2.79,4.62,6.9,6.64,15.54,5.17,23.75-1.19,6.64-4.47,13.68-1.53,19.76,2.4,4.97,8.28,7.45,10.95,12.29,2.18,3.96,1.83,8.87.57,13.22-1.11,3.87-2.96,7.66-6.01,10.3-1.91,1.65-4.21,2.79-6.58,3.64-8.27,2.98-17.38,2.62-26.04,1.12-13.12-2.27-25.8-7.07-37.14-14.06-7.42-4.57-14.49-10.37-18.14-18.28s-3.02-18.3,3.38-24.21c3.2-2.96,7.6-4.68,9.97-8.34,2.17-3.36,2.16-7.62,2.94-11.54,3.33-16.58,20.49-24.24,36.1-22.65,9.25.94,18.2,5.04,24.26,12.23Z"/>
            <g>
              <g>
                <path class="cls-11" d="m160.38,162.71c-.64,4.11-1.67,8.05-2.89,11.68h0c-2.1,6.32-4.72,11.68-6.66,15.25-10.57,7.75-22.63,10.42-35.16,11.02-.17,0-.35,0-.52.02-4.25.18-8.54.13-12.86-.04-16.24-.63-32.31-2.22-48.15-5.87-.33-.07-.65-.15-.98-.23h0c-.37-.08-.74-.16-1.1-.26h0s-.04,0-.06,0c-4.33-1.05-9.24-1.87-13.06-4.12-2.88-1.7-5.56-4.09-7.98-6.54,0-5.58,1.04-14,2.81-23.32.04-.2.08-.41.12-.61.78-4.07,1.69-8.31,2.72-12.55.27-1.11.54-2.22.83-3.34.14-.54.27-1.08.42-1.62.05-.22.11-.44.16-.67.58-2.18,1.18-4.34,1.81-6.46,0-.04.02-.09.04-.13,2.86-9.74,6.21-18.63,9.66-24.53.28-.48.59-.97.91-1.43,0-.02.02-.03.05-.05h0c.25-.39.52-.76.79-1.13,1.11-1.45,2.39-2.84,3.81-4.19,6.46-6.13,15.71-11.11,23.78-14.69.11-.05.22-.1.34-.15.07-.04.14-.07.21-.1,6.64-2.91,12.39-4.87,15.02-5.7.08-.03.15-.06.23-.08.08-.03.15-.05.23-.07.68-.22,1.05-.33,1.05-.33l4.29.5,12.19,1.43,3.97.46.26.03s.08.04.21.12c1.36.74,9.17,5.08,17.37,10.75h0c.15.1.3.2.44.31,2.26,1.57,4.55,3.23,6.72,4.95.92.73,1.82,1.46,2.69,2.2.37.31.73.63,1.08.96,6.82,6.28,10.6,14.82,12.94,25.87,1.27,5.96,2.11,12.64,2.78,20.09.38,4.23.14,8.46-.5,12.55Z"/>
                <g>
                  <path class="cls-7" d="m113.35,82.59s-1.68,5.26-7.06,4.76c-5.34-.5-6.86-6.24-6.86-6.24l1.53-5.34.8-3.94v-.06s.33.03.33.03l12.16,1.23-.32,3.41-.58,6.16Z"/>
                  <path class="cls-3" d="m113.93,76.44c-.48.62-.99,1.19-1.58,1.7-1.34,1.17-3.07,1.97-4.83,1.87-.77-.04-1.52-.24-2.24-.54-1.78-.74-3.3-2.07-4.31-3.71l.8-3.94c.11,0,.22-.02.33-.03l12.16,1.23-.32,3.41Z"/>
                </g>
                <path class="cls-7" d="m141.54,49.35c-.61,3.99-1.95,7.68-3.88,10.94-6.09,10.33-17.96,16.45-30.46,14.52-10.24-1.58-18.47-8.2-22.62-16.97-2.52-5.32-3.53-11.43-2.58-17.7,2.52-16.6,17.88-27.99,34.32-25.45,16.44,2.54,27.73,18.06,25.21,34.66Z"/>
                <path class="cls-7" d="m77.34,37.37c-2.01.68-3.41,2.67-3.79,4.77-.38,2.11.14,4.29,1.05,6.22,1.64,3.47,4.92,6.44,8.73,6.52.39,0,.79-.02,1.14-.18.76-.36,1.07-1.28,1.21-2.11.67-3.95-.9-7.65-2.04-11.33-.85-2.73-3.15-4.96-6.31-3.89Z"/>
                <path class="cls-7" d="m146.28,47.6c1.71,1.26,2.46,3.58,2.2,5.7-.26,2.12-1.41,4.05-2.85,5.62-2.6,2.82-6.61,4.66-10.27,3.58-.37-.11-.75-.25-1.04-.52-.61-.58-.64-1.54-.53-2.38.53-3.97,3.12-7.02,5.31-10.19,1.62-2.35,4.48-3.78,7.17-1.81Z"/>
                <g>
                  <path class="cls-3" d="m104.41,41.81c-.19,1.28-1.38,2.16-2.65,1.96-1.27-.2-2.14-1.39-1.94-2.67.19-1.28,1.38-2.16,2.65-1.96,1.27.2,2.14,1.39,1.94,2.67Z"/>
                  <path class="cls-3" d="m124.25,44.88c-.19,1.28-1.38,2.16-2.65,1.96-1.27-.2-2.14-1.39-1.94-2.67.19-1.28,1.38-2.16,2.65-1.96,1.27.2,2.14,1.39,1.94,2.67Z"/>
                  <path class="cls-9" d="m108.95,43.54c-1.03,1.6-1.77,3.37-2.2,5.23-.13.57-.13,1.35.42,1.54.27.1.58,0,.86.06.35.09.58.43.84.68.69.65,1.83.75,2.62.22.34-.23.63-.57,1.04-.66.28-.06.57,0,.85-.07.36-.1.62-.44.73-.81s.09-.76.06-1.14c-.1-1.75-.21-3.55-.98-5.11-.22-.44-.49-.87-.9-1.13-1.12-.74-2.71.22-3.33,1.18Z"/>
                </g>
                <g>
                  <path class="cls-3" d="m98.65,34.71c-.38.26-.78.68-.64,1.12.14.46.75.57,1.23.56,1.4-.02,2.79-.23,4.13-.64.49-.15,1.07-.44,1.07-.95.01-.98-1.82-1.34-2.54-1.32-1.1.04-2.35.62-3.25,1.23Z"/>
                  <path class="cls-3" d="m127,37.73c.35.3.69.77.5,1.19-.2.44-.81.47-1.29.41-1.39-.18-2.74-.56-4.02-1.12-.47-.21-1.01-.56-.95-1.07.1-.97,1.97-1.11,2.68-1,1.09.17,2.26.89,3.08,1.61Z"/>
                  <path class="cls-3" d="m110.2,55.27c-.05,0-.11,0-.16,0-1.38-.05-2.74-.79-3.53-1.92-.08-.11-.05-.26.06-.34.11-.08.26-.05.34.06.71,1.01,1.92,1.67,3.16,1.72,1.21.05,2.49-.52,3.28-1.47.08-.1.24-.12.34-.03.1.09.12.24.03.34-.85,1.03-2.18,1.65-3.51,1.65Z"/>
                </g>
                <path class="cls-7" d="m116.63,84.93l-5.64,9.3-12.37,20.4-2.85-22.67-1.16-9.29,5.35-3.04,13.58,1.06c1.65,2.47,3.09,4.25,3.09,4.25Z"/>
                <path class="cls-10" d="m110.99,94.22l-12.37,20.4-2.85-22.67c4.64,2.39,10.09,3.21,15.22,2.27Z"/>
              </g>
              <g>
                <path class="cls-3" d="m114.58,8.27c-.91,4.32-.1,8.85,1.65,12.89s4.4,7.67,7.24,11.09c5.02,6.03,11.03,11.73,18.68,14.12,3.21-8.58,2.17-19.1-3.16-26.55-5.33-7.45-14.97-11.42-24.41-11.54Z"/>
                <path class="cls-3" d="m116.3,8.02c.06,4.32-1.61,8.49-4.11,12.01-2.5,3.52-5.79,6.44-9.24,9.13-6.09,4.75-13.08,8.97-21.05,9.69-1.49-8.87,1.56-18.74,8.23-24.78,6.67-6.04,16.9-7.86,26.17-6.05Z"/>
                <path class="cls-3" d="m138.36,43.84c.14,2.39.28,4.78.42,7.17,1.48-.86,2.24-1.73,3.15-2.91,1.05-1.37,1.53-3.17,1.28-4.88-1.69-.07-3.17.7-4.85.63Z"/>
                <path class="cls-3" d="m85.91,37.55l-1.71,6.97c-1.3-1.12-1.89-2.11-2.57-3.44-.79-1.54-.93-3.39-.38-5.03,1.67.24,2.99,1.26,4.66,1.49Z"/>
              </g>
            </g>
            <g>
              <path class="cls-3" d="m94.45,136.25s-.04,0-.05,0c-.08-.02-.14-.07-.17-.15l-14.49-36.06c-.04-.1-.01-.2.07-.27l7.15-6.2-8.59-4.93c-.12-.07-.16-.21-.09-.33.07-.12.21-.15.33-.09l8.89,5.1c.07.04.11.11.12.19,0,.08-.02.15-.08.21l-7.28,6.31,14.29,35.58,23.85-21.58-1.8-15.85c-.02-.13.08-.25.21-.27l17.62-2.14c.14-.01.25.08.27.21.02.13-.08.25-.21.27l-17.38,2.11,1.78,15.73c0,.08-.02.15-.08.21l-24.2,21.9s-.1.06-.16.06Z"/>
              <path class="cls-3" d="m94.45,136.25h-.01c-.13,0-.24-.12-.23-.26.03-.6.82-14.7,4.31-21.01,6.84-12.37,17.8-30,17.91-30.18.07-.11.22-.15.33-.08.11.07.15.22.08.33-.11.18-11.07,17.79-17.9,30.16-3.44,6.22-4.24,20.66-4.25,20.81,0,.13-.11.23-.24.23Z"/>
            </g>
            <path class="cls-3" d="m98.73,115.34c-.12,0-.22-.09-.24-.21l-4.12-32.43c-.02-.13.08-.25.21-.27.14-.01.25.08.27.21l4.12,32.43c.02.13-.08.25-.21.27-.01,0-.02,0-.03,0Z"/>
            <g>
              <g>
                <path class="cls-3" d="m50.81,111.14s-1.81-6.09,2.47-7.24c4.28-1.15,21.57-.33,22.23,1.15.66,1.48.49,6.59.49,6.59l-25.19-.49Z"/>
                <polygon class="cls-4" points="33.69 106.7 49.74 181.28 103.83 183.26 92.96 110.4 33.69 106.7"/>
              </g>
              <g>
                <path class="cls-7" d="m58.88,163.99s12.02-7.74,17.12-12.18,15.31-16.46,17.45-15.31-5.1,14.49-5.1,14.49l9.88-10.04s4.28,1.15,3.13,5.43c0,0,3.13.66,2.96,3.46-.16,2.8-1.98,5.76-1.98,5.76,0,0,1.81-1.48,2.14,1.65.33,3.13-6.59,11.53-9.06,13.34-2.47,1.81-27.82,12.35-27.82,12.35l-8.73-18.93Z"/>
                <path class="cls-3" d="m95.81,154.36s-.1-.02-.14-.05c-.11-.08-.13-.23-.05-.34l5.59-7.63c.08-.11.23-.13.34-.05.11.08.13.23.05.34l-5.59,7.63c-.05.07-.12.1-.19.1Z"/>
                <path class="cls-3" d="m98.59,160.76c-.06,0-.12-.02-.16-.06-.1-.09-.1-.24-.01-.34,1.79-1.94,3.05-3.62,3.94-5.29,1.12-2.09,1.7-4.26,1.67-6.27,0-.13.1-.24.24-.24.12-.02.24.11.24.24.03,2.09-.57,4.34-1.73,6.5-.92,1.71-2.19,3.43-4.01,5.39-.05.05-.11.08-.18.08Z"/>
              </g>
              <g>
                <path class="cls-11" d="m61.35,154.36l12.84,29.64s-25.19,17.04-36.8,9.14c-11.61-7.9-7.66-22.97-4.94-37.04,2.72-14.08,7.16-21.98,7.16-21.98l7.24,26.92,14.49-6.67Z"/>
                <path class="cls-3" d="m46.52,195.88c-.44,0-.88-.01-1.31-.04-.13,0-.24-.12-.23-.26,0-.13.13-.24.26-.23,13.33.79,27.17-10.72,28.67-12.01l-12.67-28.68-21.02,9.21c-.13.05-.27,0-.32-.12-.05-.12,0-.27.12-.32l21.24-9.3c.12-.05.27,0,.32.12l12.84,29.06c.04.1.02.21-.06.28-.14.13-14,12.28-27.84,12.28Z"/>
              </g>
            </g>
            <path class="cls-3" d="m137.02,128.51c-1.59,6.56-3.27,13.11-5.04,19.64-4.79,17.69-10.25,35.28-16.32,52.52-.17,0-.35,0-.52.02,6.02-17.11,11.45-34.55,16.22-52.1,1.83-6.71,3.56-13.45,5.18-20.19.04-.14.16-.21.3-.18.13.03.2.16.17.29Z"/>
          </g>
          <g>
            <g>
              <path class="cls-6" d="m30.43,50.12c.09-.71.26-1.39.51-2.06,2.27-5.73,10.85-9.27,20.57-8.11.04,0,.1,0,.14.02,10.57,1.31,18.5,7.75,17.97,14.51,0,.1-.02.22-.03.33-.76,6.43-9.02,10.83-18.89,10.34-.73-.03-1.45-.08-2.19-.18-10.81-1.29-18.91-7.94-18.08-14.86Z"/>
              <path class="cls-11" d="m30.94,48.06c0-.1.02-.22.03-.32.83-6.91,10.25-11.47,21.08-10.17.07,0,.16.02.23.04,10.7,1.35,18.67,7.95,17.86,14.8-.09.71-.26,1.39-.51,2.06-2.17,5.49-10.17,8.98-19.38,8.25-.4-.03-.79-.08-1.19-.12-10.64-1.28-18.66-7.74-18.11-14.54Z"/>
              <path class="cls-10" d="m50.24,62.72c-.3-2.21-.31-4.49-.26-6.72.09-5.38.45-10.81,1.67-16.04.18-.8.39-1.57.62-2.35,10.7,1.35,18.67,7.95,17.86,14.8-.09.71-.26,1.39-.51,2.06-2.17,5.49-10.17,8.98-19.38,8.25Z"/>
            </g>
            <g>
              <path class="cls-6" d="m173.2,149.88c-.7-.17-1.35-.42-1.98-.75-5.42-2.94-7.9-11.88-5.59-21.39.01-.04.02-.1.03-.14,2.56-10.34,9.9-17.44,16.55-16.11.1.02.21.05.32.07,6.29,1.52,9.67,10.25,8.01,19.99-.12.72-.25,1.43-.44,2.15-2.57,10.58-10.15,17.82-16.91,16.18Z"/>
              <path class="cls-11" d="m171.22,149.12c-.1-.02-.21-.05-.31-.07-6.76-1.65-10.16-11.55-7.57-22.14.01-.07.04-.15.06-.22,2.62-10.46,10.12-17.59,16.83-15.96.7.17,1.35.42,1.98.75,5.19,2.82,7.7,11.17,5.87,20.23-.08.4-.17.77-.27,1.17-2.54,10.41-9.92,17.6-16.6,16.24Z"/>
              <path class="cls-7" d="m188.09,131.71c-2.23.04-4.49-.23-6.7-.55-5.33-.74-10.68-1.74-15.72-3.58-.77-.27-1.51-.57-2.26-.9,2.62-10.46,10.12-17.59,16.83-15.96.7.17,1.35.42,1.98.75,5.19,2.82,7.7,11.17,5.87,20.23Z"/>
            </g>
          </g>
          <g>
            <g>
              <path class="cls-5" d="m163.55,65.95c-6.88.19-12.6-5.24-12.79-12.11-.19-6.88,5.24-12.6,12.11-12.79,6.88-.19,12.6,5.24,12.79,12.11.19,6.88-5.24,12.6-12.11,12.79Z"/>
              <path class="cls-6" d="m164.78,64.66c-6.88.19-12.6-5.24-12.79-12.11-.19-6.88,5.24-12.6,12.11-12.79,6.88-.19,12.6,5.24,12.79,12.11.19,6.88-5.24,12.6-12.11,12.79Z"/>
              <g>
                <line class="cls-8" x1="174.47" y1="45.21" x2="155.14" y2="60.44"/>
                <path class="cls-1" d="m155.14,60.71c-.08,0-.16-.04-.22-.1-.09-.12-.07-.29.05-.39l19.32-15.22c.12-.09.29-.07.39.05.09.12.07.29-.05.39l-19.32,15.22c-.05.04-.11.06-.17.06Z"/>
              </g>
            </g>
            <g>
              <path class="cls-5" d="m26.98,162.51c-6.88.19-12.6-5.24-12.79-12.11-.19-6.88,5.24-12.6,12.11-12.79,6.88-.19,12.6,5.24,12.79,12.11.19,6.88-5.24,12.6-12.11,12.79Z"/>
              <circle class="cls-6" cx="27.87" cy="148.77" r="12.45" transform="translate(-93.21 57.95) rotate(-42.52)"/>
              <g>
                <line class="cls-8" x1="37.9" y1="141.78" x2="18.57" y2="157"/>
                <path class="cls-1" d="m18.57,157.28c-.08,0-.16-.04-.22-.1-.09-.12-.07-.29.05-.39l19.33-15.22c.12-.09.29-.07.39.05.09.12.07.29-.05.39l-19.33,15.22c-.05.04-.11.06-.17.06Z"/>
              </g>
            </g>
          </g>
          <g>
            <path class="cls-3" d="m52.46,81.31c-3.78,0-6.87,3.09-6.87,6.87s3.09,6.87,6.87,6.87,6.87-3.09,6.87-6.87-3.09-6.87-6.87-6.87Zm0,13.14c-3.45,0-6.27-2.81-6.27-6.27s2.81-6.27,6.27-6.27,6.27,2.81,6.27,6.27-2.81,6.27-6.27,6.27Z"/>
            <circle class="cls-10" cx="149.77" cy="22.15" r="6.57"/>
            <g>
              <path class="cls-3" d="m157.91,163.66c-.41-3.4-3.31-6.04-6.81-6.04-3.78,0-6.87,3.08-6.87,6.87s3.09,6.86,6.87,6.86c1.43,0,2.76-.44,3.87-1.2,1.81-1.23,3-3.31,3-5.66,0-.28-.02-.56-.06-.83Zm-3.01,5.79c-1.05.82-2.37,1.3-3.8,1.3-3.45,0-6.27-2.81-6.27-6.26s2.81-6.27,6.27-6.27,6.03,2.57,6.25,5.83c0,.15.02.29.02.44,0,2.03-.97,3.83-2.47,4.96Z"/>
              <circle class="cls-10" cx="161.46" cy="169.18" r="6.57"/>
            </g>
            <ellipse class="cls-11" cx="11.31" cy="127.31" rx="5.09" ry="5.3" transform="translate(-86.71 45.29) rotate(-45)"/>
          </g>
          <path class="cls-11" d="m166.06,97.04c2.07,2.07,2.13,5.36.15,7.35-1.99,1.99-5.28,1.92-7.35-.15-2.07-2.07-2.13-5.36-.15-7.35,1.99-1.99,5.28-1.92,7.35.15Z"/>
        </g>
      </g>
    </g>
  </g>
</svg>