<?xml version="1.0" encoding="UTF-8"?>
<svg id="_Слой_2" data-name="Слой 2" xmlns="http://www.w3.org/2000/svg" viewBox="0 0 512 512">
  <defs>
    <style>
      .cls-1 {
        fill: #fff;
      }

      .cls-2 {
        fill: #ffa5bc;
      }

      .cls-3 {
        opacity: .31;
      }

      .cls-4 {
        fill: #5b68c9;
      }

      .cls-5 {
        fill: #a7644f;
      }

      .cls-6 {
        fill: #341c17;
      }

      .cls-7 {
        fill: #b1c0d4;
      }

      .cls-8 {
        fill: #f7ede5;
      }

      .cls-9 {
        opacity: .27;
      }
    </style>
  </defs>
  <g id="_01" data-name="01">
    <g>
      <path class="cls-1" d="m256.01,512c-70.87,0-139.19-29.76-187.44-81.66-5.55-5.91-10.94-12.28-15.97-18.89-10.06-13.12-18.88-27.29-26.17-42.1,0,0-1.09-2.15-1.17-2.31-4.14-8.65-7.77-17.41-10.78-26.05-.23-.59-.43-1.17-.64-1.76l-.19-.54c-4.09-12.04-7.26-24.29-9.51-36.65C1.39,286.92,0,271.44,0,256.01,0,116.47,116.75,0,256.01,0c10.35,0,20.7.62,30.76,1.85,43.52,5.22,85.25,21.73,120.65,47.75,14.71,10.77,28.35,23.23,40.52,37.03,4.6,5.19,9.14,10.79,13.48,16.61,32.74,43.96,50.56,97.97,50.56,152.77,0,5.3-.17,10.63-.5,15.86-2.93,48.18-19.4,94.39-47.64,133.6-27.66,38.41-65.26,68.36-108.74,86.62-31.4,13.21-64.74,19.91-99.1,19.91Z"/>
      <g>
        <path class="cls-7" d="m494.8,254.22c0,4.98-.16,9.94-.47,14.85-2.83,46.65-88.58,45.45-114.3,81.15-25.71,35.7,8.6,108.31-32.47,125.56-28.62,12.04-60.03,18.68-93.01,18.68-69.47,0-132.07-29.49-175.91-76.64-5.3-5.64,68.29-55.41,63.59-61.58-22.94-30.12-117.29-21.55-124.06-58.82-2.54-14.01-3.88-28.47-3.88-43.21,0-48.64,14.46-93.87,39.3-131.71,42.92-65.38,72.24,1.97,156.3,1.97,9.76,0,64.06-109.95,73.53-108.8,42.03,5.04,80.75,20.94,113.24,44.81,13.91,10.18-31.35,38.35-19.97,51.26,4.43,5.01,96.21,42.09,96.47,42.69.16.31.31.66.42.97,13.64,30.15,21.23,63.6,21.23,98.81Z"/>
        <path class="cls-2" d="m292.94,63.99c0,70.02-56.78,126.83-126.83,126.83-48.9,0-91.38-27.73-112.53-68.29C96.51,57.14,170.5,13.95,254.56,13.95c9.76,0,19.39.58,28.86,1.73,6.14,14.88,9.52,31.19,9.52,48.3Z"/>
        <path class="cls-2" d="m494.33,269.07c-5.67,93.3-64.62,172.21-146.77,206.71-30.49-23.17-50.14-59.79-50.14-101.01,0-70.02,56.78-126.83,126.83-126.83,25.92,0,50.01,7.77,70.08,21.12Z"/>
        <g>
          <g>
            <g>
              <g>
                <path class="cls-4" d="m405.26,240.71l-2.1,29.31-5.51,77.5-.21,3.12-1.81,25.61-.24,3.33-.97,13.59-.08,1.15-1.39,19.62s-1.36.58-4.38,1.5c-.63.21-278.67,2.38-294.57-1.58-5.3-5.64-25.64-7.57-30.34-13.74-9.42-12.28-17.68-25.53-24.58-39.54-.37-.71-.71-1.42-1.08-2.13-3.83-8-7.27-16.24-10.21-24.69-.29-.73-.52-1.44-.79-2.18-3.75-11.05-6.72-22.46-8.84-34.16l3.78-44.44,2.57-30.41v-.1l38.09,1.84,82.67,3.94,13.62.66,211.67,10.15,34.68,1.65Z"/>
                <path class="cls-1" d="m405.25,240.71l-2.09,29.3c-23.71,5.75-85.95,16.85-201.63,13.14-109.35-3.49-159.64-20.57-179.58-30.15l2.59-30.53,380.71,18.24Z"/>
              </g>
              <path class="cls-6" d="m405.25,240.71c-.09,2.06-2.82,3.96-7.84,5.63-23.45,7.81-98.9-2.94-185.55-7.09-84.62-4.07-154.04.05-178.4-9.73-5.89-2.36-9.05-4.75-8.93-7.05.59-11.82,86.25-17.32,191.39-12.28,105.13,5.04,189.92,18.71,189.33,30.53Z"/>
              <path class="cls-8" d="m397.41,246.34c-23.45,7.81-96.9,10.81-183.55,6.66-84.62-4.07-156.04-13.69-180.4-23.47,23.45-7.81,96.9-10.81,183.55-6.66,84.62,4.07,156.04,13.69,180.4,23.47Z"/>
              <g class="cls-3">
                <path class="cls-2" d="m397.41,246.34c-23.45,7.81-96.9,10.81-183.55,6.66-84.62-4.07-156.04-13.69-180.4-23.47,23.45-7.81,96.9-10.81,183.55-6.66,84.62,4.07,156.04,13.69,180.4,23.47Z"/>
              </g>
              <path class="cls-1" d="m394.42,393.17l-.08,1.15-1.39,19.62s-1.36.58-4.38,1.5c-.63.21-1.34.42-2.13.66-11.57,3.31-39.72,9.76-93.24,13.17-.58.05-1.15.1-1.73.13-24.03,1.52-53.08,2.41-87.94,2.18-24.37-.16-45.99-1.47-65.14-3.52-.71-.08-1.42-.16-2.13-.24-22.64-2.49-41.72-6.03-57.61-10-5.3-5.64-10.28-11.54-14.98-17.71,20.91,5.64,45.65,10.49,73.88,12.99.71.08,1.44.13,2.18.18,9.92.84,20.25,1.36,31.01,1.55,42.06.66,83.88-2.18,120.19-6.06.73-.08,1.47-.16,2.18-.24,41.3-4.51,75.3-10.39,94.19-13.98.76-.16,1.5-.29,2.2-.42,1.81-.34,3.46-.68,4.93-.97Z"/>
              <g>
                <path class="cls-8" d="m154.73,291.58s-.06,0-.1,0c-.6-.05-1.04-.58-.99-1.18l3.01-34.02c.05-.6.58-1.04,1.18-.99.6.05,1.04.58.99,1.18l-3.01,34.02c-.05.56-.52.99-1.08.99Z"/>
                <path class="cls-8" d="m155.83,290.4c-.18-.05-.37-.11-.58-.13-.52-.08-1.05-.1-1.57-.08-5.98.26-11.68,7.29-13.14,16.66-1.57,10.15,2.47,19.23,9,20.25.42.05.81.1,1.23.1,2.86,0,5.72-1.52,8.16-4.36,2.68-3.12,4.57-7.5,5.33-12.33,1.52-9.84-2.23-18.71-8.42-20.12Zm6.27,19.78c-.71,4.43-2.41,8.45-4.83,11.26-2.28,2.65-4.93,3.91-7.42,3.52-5.33-.84-8.55-8.82-7.16-17.79,1.31-8.45,6.27-14.82,11.33-14.82.29,0,.6.03.92.05,5.33.84,8.55,8.82,7.16,17.79Z"/>
              </g>
              <g>
                <path class="cls-8" d="m137.35,428.87s-.06,0-.1,0c-.6-.05-1.04-.58-.99-1.18l3.01-34.02c.05-.6.57-1.02,1.18-.99.6.05,1.04.58.99,1.18l-3.01,34.02c-.05.56-.52.99-1.08.99Z"/>
                <path class="cls-8" d="m145.55,357.15c-.39-.05-.81-.1-1.21-.1-6.11,0-12.02,7.16-13.51,16.69-1.52,9.84,2.23,18.71,8.42,20.12.18.05.37.1.58.13.39.08.81.1,1.23.1.1,0,.24,0,.34-.03,2.75-.1,5.48-1.6,7.82-4.33,2.68-3.12,4.57-7.48,5.33-12.33,1.57-10.15-2.47-19.23-9-20.25Zm6.85,19.94c-.71,4.43-2.41,8.42-4.83,11.23-2.28,2.68-4.91,3.91-7.42,3.54-5.33-.84-8.55-8.82-7.16-17.79,1.39-8.97,6.9-15.61,12.25-14.77,5.33.84,8.55,8.82,7.16,17.79Z"/>
              </g>
              <path class="cls-8" d="m34.67,329.05c-.39-.05-.81-.11-1.21-.11-2.26,0-4.46.97-6.45,2.65.26.73.5,1.44.79,2.18,1.97-1.94,4.25-2.94,6.53-2.57,5.35.81,8.55,8.79,7.16,17.76-.58,3.67-1.84,6.95-3.49,9.5.37.71.71,1.42,1.08,2.13,2.23-2.94,3.88-6.82,4.57-11.28,1.57-10.15-2.44-19.26-8.97-20.25Z"/>
              <g>
                <path class="cls-8" d="m292.3,429.81c-.59,0-1.08-.48-1.09-1.07l-.49-34.15c0-.6.47-1.09,1.07-1.1.56-.03,1.09.47,1.1,1.07l.49,34.15c0,.6-.47,1.09-1.07,1.1,0,0-.01,0-.02,0Z"/>
                <path class="cls-8" d="m293.23,357.62h-.45c-6.45,0-11.96,7.98-12.51,18-.5,9.94,4.12,18.37,10.44,19.15.18.05.39.08.58.08.13,0,.26.03.39.03.39,0,.81-.03,1.21-.1,5.93-.89,10.84-8.5,11.33-17.92.52-10.26-4.41-18.89-10.99-19.23Zm8.84,19.13c-.47,9.08-5.27,16.16-10.68,15.95-5.4-.29-9.42-7.9-8.95-16.97.47-9.05,5.14-16.24,10.65-15.93,5.4.26,9.42,7.87,8.97,16.95Z"/>
              </g>
              <g>
                <path class="cls-8" d="m387.47,416.91s-.03,0-.05,0c-.6-.03-1.06-.53-1.04-1.13l1.45-34.12c.03-.6.55-1.04,1.13-1.04.6.03,1.06.53,1.04,1.13l-1.45,34.12c-.03.58-.51,1.04-1.08,1.04Z"/>
                <path class="cls-8" d="m400.41,351.46c-.76-1.6-1.71-2.94-2.75-3.94-1.5-1.52-3.28-2.41-5.19-2.62-6.59-.73-12.83,7.01-13.96,17.24-.52,4.85.16,9.58,1.94,13.28,1.73,3.65,4.36,5.93,7.4,6.45.18.05.37.08.55.1.29.03.6.05.89.05.24,0,.5,0,.73-.05,1.86-.16,3.7-1,5.38-2.39.76-.66,1.5-1.42,2.2-2.31,2.52-3.23,4.2-7.69,4.75-12.54.52-4.85-.16-9.58-1.94-13.28Zm-.24,13.04c-.47,4.46-1.99,8.53-4.28,11.44-.08.1-.16.21-.26.31-2.13,2.57-4.59,3.83-7,3.54-2.49-.26-4.72-2.15-6.24-5.33-1.6-3.33-2.2-7.63-1.73-12.09.94-8.68,5.77-15.35,10.91-15.35.21,0,.42,0,.66.03,1.99.24,3.8,1.47,5.22,3.59.39.52.71,1.13,1.02,1.76,1.6,3.33,2.2,7.63,1.71,12.1Z"/>
              </g>
              <g>
                <path class="cls-8" d="m34.29,274.24s-.06,0-.1,0c-.6-.05-1.04-.58-.99-1.18l3.01-34.02c.05-.6.56-1.03,1.18-.99.6.05,1.04.58.99,1.18l-3.01,34.02c-.05.56-.52.99-1.08.99Z"/>
                <path class="cls-8" d="m42.49,279.83c-1.57-3.7-4.09-6.11-7.08-6.77-.18-.05-.39-.1-.58-.13-.52-.08-1.08-.1-1.6-.08-2.75.1-5.48,1.6-7.79,4.33-2.68,3.12-4.57,7.48-5.33,12.3-1.57,10.18,2.44,19.26,8.97,20.28.42.05.84.11,1.26.11,2.86,0,5.72-1.52,8.16-4.36,2.68-3.12,4.57-7.5,5.3-12.33.76-4.83.29-9.58-1.31-13.35Zm-.84,13.01c-.68,4.43-2.39,8.42-4.8,11.26-2.28,2.65-4.93,3.91-7.42,3.52-5.35-.84-8.55-8.82-7.16-17.79.68-4.43,2.39-8.42,4.8-11.23,2.02-2.34,4.33-3.59,6.53-3.59.31,0,.6.03.89.05,2.49.39,4.62,2.39,6.01,5.64.97,2.33,1.5,5.06,1.5,7.98,0,1.36-.1,2.75-.34,4.17Z"/>
              </g>
              <g>
                <path class="cls-8" d="m291.4,295.44c-.58,0-1.06-.45-1.08-1.04l-1.55-34.11c-.03-.6.44-1.11,1.04-1.13.63.01,1.11.44,1.13,1.04l1.55,34.11c.03.6-.44,1.11-1.04,1.13-.02,0-.03,0-.05,0Z"/>
                <path class="cls-8" d="m292.5,294.1c-.18-.03-.39-.05-.58-.05-.55,0-1.08.03-1.6.16-5.85,1.08-10.6,8.79-10.78,18.23-.21,10.28,4.98,18.76,11.6,18.89h.16c6.53,0,11.99-8.19,12.23-18.39.21-9.97-4.72-18.23-11.02-18.84Zm-1.21,35.05h-.11c-5.43-.1-9.68-7.58-9.47-16.66.18-9.03,4.67-16.27,10.02-16.27h.13c5.4.1,9.65,7.58,9.47,16.66-.18,9.03-4.7,16.27-10.05,16.27Z"/>
              </g>
              <g>
                <path class="cls-8" d="m389.48,284.69s-.03,0-.05,0c-.6-.03-1.06-.54-1.03-1.14l1.6-34.11c.03-.6.53-1.03,1.14-1.03.6.03,1.06.54,1.03,1.14l-1.6,34.11c-.03.58-.51,1.04-1.08,1.04Z"/>
                <path class="cls-8" d="m397.94,289.96c-1.73-3.67-4.33-5.96-7.37-6.48-.18-.05-.37-.08-.55-.11-.55-.05-1.1-.08-1.63,0-5.96.55-11.33,7.82-12.41,17.16-1.15,10.21,3.25,19.13,9.81,19.89.29.03.6.03.89.03,6.24,0,12.02-7.45,13.12-17.21.58-4.85-.1-9.58-1.86-13.28Zm-.29,13.04c-1.02,9.03-6.22,15.87-11.6,15.24-5.38-.6-8.92-8.45-7.9-17.47.97-8.63,5.8-15.3,10.94-15.3.21,0,.45.03.66.05,2.52.29,4.72,2.18,6.22,5.35,1.23,2.57,1.86,5.69,1.86,9,0,1.02-.05,2.07-.18,3.12Z"/>
              </g>
            </g>
            <g>
              <path class="cls-8" d="m356.57,298.24h0c5.66-.09,10.32,4.45,10.36,10.11l.25,32.12c.04,5.19-3.82,9.58-8.97,10.2l-3.9.47c-6.53.79-12.09-4.72-11.35-11.26l3.65-32.6c.57-5.1,4.84-8.97,9.97-9.06Z"/>
              <path class="cls-8" d="m354.63,360.42h.21c5.27.33,9.14,5.1,8.35,10.32l-.97,6.43c-.71,4.7-4.97,8.03-9.7,7.6h0c-5.03-.46-8.69-4.99-8.09-10.01l.77-6.44c.56-4.72,4.71-8.18,9.45-7.9Z"/>
            </g>
          </g>
          <g>
            <path class="cls-6" d="m447.37,110.87l-12.57,5.14-2.44,1-23.14,9.47-2.44,1-21.75,8.89-2.44,1-34.89,14.27-141.89,58.09-28.6,11.7-18.29,7.48h-.03l-20.15,8.26-1.31.52c-1.92.79-3.49.31-4.25-.6-.94-1.15-.66-2.96,1.63-4.01l10.47-4.83h.03l15.56-7.14,26.26-12.07,164.66-75.67,30.09-13.85,2.47-1.13,21.96-10.1,2.49-1.13,25.9-11.91c4.43,5.01,8.66,10.23,12.67,15.61Z"/>
            <g class="cls-9">
              <path class="cls-5" d="m447.37,110.87l-12.57,5.14-2.44,1-23.14,9.47-2.44,1-21.75,8.89-2.44,1-34.89,14.27-141.89,58.09-28.6,11.7-18.29,7.48h-.03l-20.15,8.26-1.31.52c-1.92.79-3.49.31-4.25-.6-.94-1.15-.66-2.96,1.63-4.01l10.47-4.83h.03l15.56-7.14,26.26-12.07,164.66-75.67,30.09-13.85,2.47-1.13,21.96-10.1,2.49-1.13,25.9-11.91c4.43,5.01,8.66,10.23,12.67,15.61Z"/>
            </g>
            <g>
              <path class="cls-5" d="m473.16,154.45c-.84,1.42-1.81,2.78-2.94,4.15-11.57,13.75-24.11,6.35-24.11,6.35-.37.31-.71.63-1.05.89-.47.42-1,.87-1.44,1.21-.05.03-.1.08-.16.16-6.14,5.01-10.94,7.45-14.67,8.45-.76.18-1.55.34-2.36.45-4.07.52-6.45-.84-7.61-1.86-.63-.5-.89-.92-.89-.92-.39.34-.79.68-1.18.97-19,15.53-28.2,3.25-28.2,3.25-.37.18-.73.37-1.13.5h-.03c-11.75,4.25-34.29-15.58-39.07-23.38-.39-.68-.6-1.71-.63-3.02-.05-3.94,1.57-10.52,4.09-18.26,6.53-20.39,19.15-48.72,22.9-57.51,2.13-4.96,10.6-9.89,21.96-15.37,13.91,10.18,26.66,21.85,38.04,34.76,4.43,5.01,8.66,10.23,12.67,15.61,6.51,8.74,12.44,17.92,17.71,27.52.18.31.34.63.52.94.13.26.29.52.42.79.26.47.52.94.79,1.42,1.92,3.65,3.78,7.37,5.54,11.12.29.6.55,1.18.81,1.78Z"/>
              <g>
                <path class="cls-6" d="m399.55,183.65c-5.64,0-10.02-1.98-12.08-5.49-5.09-8.68-6.01-75.89-6.04-78.74,0-.69.54-1.25,1.23-1.26.68-.05,1.25.54,1.26,1.23.25,19.28,1.75,70.78,5.7,77.52,1.67,2.85,5.53,4.42,10.61,4.24,6.23-.19,13.93-3.14,16.59-8.41.31-.61,1.05-.86,1.67-.55.61.31.86,1.06.55,1.67-3.1,6.13-11.77,9.56-18.73,9.77-.26,0-.51.01-.76.01Z"/>
                <path class="cls-6" d="m422.08,176.43c-.35,0-.7,0-1.05-.02-14.85-.52-14.77-62.33-14.71-69.37,0-.68.56-1.23,1.24-1.23h.01c.69,0,1.24.57,1.23,1.25-.21,25.68,2.95,66.54,12.31,66.87,13.22.44,21.04-9,21.12-9.09.43-.53,1.21-.62,1.75-.19.53.43.62,1.21.19,1.75-.34.42-8.22,10.04-22.09,10.04Z"/>
                <g>
                  <path class="cls-6" d="m466.81,141.54c-1.13.87-2.26,1.81-3.28,2.75-.5.47-1.29.45-1.76-.08-.47-.5-.45-1.29.08-1.76.55-.5,1.84-1.65,3.46-2.89v-.03c.08-.05.18-.13.29-.21.13.26.29.52.42.79.26.47.52.94.79,1.42Z"/>
                  <path class="cls-6" d="m473.58,155.42c-5.75,9.21-12.93,11.65-19.76,11.65-2.75,0-5.46-.39-7.95-.92-.26-.05-.55-.16-.81-.31-.21-.08-.42-.24-.63-.37-.37-.29-.71-.66-1.08-1.08-5.75-6.93-9.31-32.27-10.99-47.38-.5-4.41-.81-7.95-.97-9.89-.05-.68.45-1.29,1.13-1.34.68-.08,1.29.45,1.36,1.13.26,2.91.55,5.98.92,9.1,2.36,21.59,6.9,46.73,11.57,47.7,8.63,1.81,18.44,1.94,25.76-10.65.08-.13.16-.26.21-.39.29.6.55,1.18.81,1.78.16.31.31.66.42.97Z"/>
                </g>
              </g>
              <path class="cls-6" d="m466.02,140.12c-.31-.08-.55-.29-.71-.55v-.03c-.08-.13-.1-.26-.13-.42l-.1-.73c.18.31.34.63.52.94.13.26.29.52.42.79Z"/>
            </g>
          </g>
        </g>
        <g>
          <polygon class="cls-8" points="129.51 203.3 78.6 132.75 99.14 122.92 129.51 203.3"/>
          <polygon class="cls-8" points="152.71 201.75 124.05 119.6 146.54 116.05 152.71 201.75"/>
          <polygon class="cls-8" points="172.12 193.69 169.79 106.71 192.29 110.16 172.12 193.69"/>
        </g>
        <g>
          <g>
            <g>
              <path class="cls-6" d="m259.66,118.4c-.39.16-.86.04-1.12-.32l-35.77-49.94c-.17-.24-.22-.55-.13-.84.09-.28.3-.51.59-.6l46.46-15.67c.49-.17,1.02.1,1.19.59.17.49-.1,1-.59,1.19l-45.26,15.26,35.03,48.91c.3.42.21,1.01-.22,1.31-.06.04-.12.08-.19.11Z"/>
              <path class="cls-6" d="m260.07,116.87s-19.24-2.63-23.8,6.86c-4.57,9.49,6.23,17.66,15.31,10.3,9.07-7.37,8.5-17.16,8.5-17.16Z"/>
            </g>
            <g>
              <path class="cls-6" d="m306.12,102.73c-.39.16-.86.04-1.12-.32l-35.77-49.94c-.3-.42-.21-1.01.22-1.31.42-.3,1.01-.2,1.31.22l35.77,49.94c.3.42.21,1.01-.22,1.31-.06.04-.12.08-.19.11Z"/>
              <path class="cls-6" d="m306.52,101.2s-19.24-2.63-23.8,6.86c-4.57,9.49,6.23,17.66,15.31,10.3,9.07-7.37,8.5-17.16,8.5-17.16Z"/>
            </g>
            <path class="cls-6" d="m278,63.82s-.04.02-.06.02l-45.87,15.42c-.49.17-1.02-.1-1.19-.59-.17-.49.11-1.03.59-1.19l45.87-15.42c.49-.16,1.02.1,1.19.59.16.47-.08.98-.53,1.17Z"/>
          </g>
          <g>
            <g>
              <path class="cls-6" d="m414.69,314.97c-.37-.21-.57-.65-.45-1.08l16.76-59.1c.08-.29.29-.52.57-.62.28-.1.58-.08.84.09l41.21,26.57c.44.28.56.86.28,1.3-.28.44-.85.54-1.3.28l-40.14-25.88-16.41,57.88c-.14.5-.66.79-1.16.65-.07-.02-.14-.05-.2-.08Z"/>
              <path class="cls-6" d="m416.14,314.34s-9.94-16.68-20.2-14.34c-10.27,2.34-9.93,15.88,1.49,18.39,11.41,2.5,18.71-4.05,18.71-4.05Z"/>
            </g>
            <g>
              <path class="cls-6" d="m455.9,341.54c-.37-.21-.57-.65-.45-1.08l16.75-59.1c.14-.5.66-.79,1.16-.65.5.14.79.66.65,1.16l-16.75,59.1c-.14.5-.66.79-1.16.65-.07-.02-.14-.05-.2-.08Z"/>
              <path class="cls-6" d="m457.35,340.91s-9.93-16.68-20.2-14.34c-10.27,2.34-9.93,15.88,1.49,18.39,11.41,2.5,18.71-4.05,18.71-4.05Z"/>
            </g>
            <path class="cls-6" d="m468.81,295.3s-.04-.02-.05-.03l-40.65-26.26c-.44-.28-.56-.86-.28-1.3.28-.44.87-.55,1.3-.28l40.65,26.25c.44.28.56.86.28,1.3-.27.42-.82.55-1.24.31Z"/>
          </g>
          <g>
            <g>
              <path class="cls-6" d="m205.81,445.23c-.36.22-.84.18-1.16-.14l-43.38-43.49c-.21-.21-.31-.51-.26-.8.04-.29.21-.55.49-.69l43.31-22.98c.46-.24,1.03-.07,1.27.39.24.46.06,1-.39,1.27l-42.19,22.38,42.49,42.59c.37.37.37.96,0,1.33-.05.05-.11.1-.17.13Z"/>
              <path class="cls-6" d="m205.96,443.65s-19.41.52-22.38,10.62c-2.97,10.1,9.01,16.42,16.77,7.69,7.76-8.74,5.61-18.31,5.61-18.31Z"/>
            </g>
            <g>
              <path class="cls-6" d="m249.12,422.25c-.36.22-.84.18-1.16-.14l-43.38-43.49c-.37-.37-.37-.96,0-1.33.37-.37.96-.37,1.33,0l43.38,43.49c.37.37.37.96,0,1.33-.05.05-.11.1-.17.13Z"/>
              <path class="cls-6" d="m249.28,420.68s-19.41.52-22.38,10.62c-2.97,10.1,9.01,16.42,16.77,7.69,7.76-8.74,5.61-18.31,5.61-18.31Z"/>
            </g>
            <path class="cls-6" d="m215.08,388.4s-.04.02-.05.03l-42.77,22.64c-.46.24-1.03.07-1.27-.39-.24-.46-.06-1.03.39-1.27l42.77-22.64c.46-.24,1.03-.07,1.27.39.23.44.08.98-.34,1.24Z"/>
          </g>
        </g>
      </g>
    </g>
  </g>
</svg>