<?xml version="1.0" encoding="UTF-8"?>
<svg xmlns="http://www.w3.org/2000/svg" viewBox="0 0 216.26 224.5">
  <defs>
    <style>
      .cls-1, .cls-2 {
        fill: #ffdca6;
      }

      .cls-3 {
        stroke-miterlimit: 10;
      }

      .cls-3, .cls-4 {
        stroke: #f7ebf4;
      }

      .cls-3, .cls-4, .cls-5 {
        fill: none;
      }

      .cls-3, .cls-5 {
        stroke-width: 1.21px;
      }

      .cls-6 {
        fill: #ffb6f1;
      }

      .cls-7 {
        isolation: isolate;
      }

      .cls-8 {
        fill: #f7e1f2;
      }

      .cls-9 {
        fill: #feffff;
      }

      .cls-10 {
        fill: #f7ebf4;
      }

      .cls-4 {
        stroke-width: .6px;
      }

      .cls-4, .cls-5 {
        stroke-linecap: round;
        stroke-linejoin: round;
      }

      .cls-2 {
        mix-blend-mode: multiply;
        opacity: .33;
      }

      .cls-11 {
        fill: #f590ae;
      }

      .cls-12 {
        fill: #d6dffe;
      }

      .cls-13 {
        fill: #ffbeb1;
      }

      .cls-14 {
        fill: #7b87ff;
      }

      .cls-15 {
        fill: #4c226c;
      }

      .cls-5 {
        stroke: #ffb6f1;
      }

      .cls-16 {
        fill: #a0afff;
      }

      .cls-17 {
        fill: #5d3080;
      }
    </style>
  </defs>
  <g class="cls-7">
    <g id="_Слой_2" data-name="Слой 2">
      <g id="OBJECTS">
        <g>
          <path class="cls-9" d="m87.63,224.5c-.42,0-.84-.04-1.26-.11l-13.94-2.47c-2.59-.46-4.72-2.29-5.58-4.78l-5.83-17C29.37,185.59,7.2,156.7,1.45,122.26c-.96-5.67-1.45-11.53-1.45-17.4,0-24.21,8.44-47.83,23.78-66.5C41.88,16.33,67.43,2.85,95.71.41c2.87-.27,5.98-.41,9.16-.41,12.22,0,24.19,2.1,35.64,6.25,6.43-2.51,13.16-3.78,20.05-3.78,2.28,0,4.59.15,6.86.43,15.57,1.96,29.17,10.01,38.31,22.68,9.01,12.49,12.46,28.33,9.46,43.43-1.28,6.43-3.62,12.48-6.99,18.02,1.01,5.88,1.52,11.87,1.52,17.84,0,12.06-2.03,23.88-6.03,35.12-3.9,10.97-9.53,21.1-16.8,30.19l9.04,4.28c1.74.82,3.08,2.3,3.72,4.1.65,1.81.55,3.8-.27,5.53l-6.42,13.54c-.98,2.06-2.81,3.45-4.87,3.94-.51.26-1.06.45-1.63.58l-97.22,22.16c-.53.12-1.07.18-1.61.18h-.01Z"/>
          <path class="cls-14" d="m203.33,105.48c0,11.47-1.98,22.47-5.62,32.69-13.44,37.85-49.58,64.94-92.02,64.94-48.41,0-88.58-35.21-96.3-81.43-.89-5.27-1.35-10.69-1.35-16.21,0-23.5,8.3-45.07,22.14-61.92C46.41,23.82,70.21,10.56,97.15,8.23c2.81-.27,5.66-.39,8.54-.39,53.91,0,97.63,43.71,97.63,97.63Z"/>
          <path class="cls-1" d="m41.51,68.56c-5.11-3.31-11.68-5.06-17.35-2.83-5.67,2.23-9.43,9.38-6.61,14.78,1.87,3.57,6.06,5.77,7.06,9.67.98,3.81-1.49,7.66-1.59,11.6-.37,14.09,22.84,17.68,29.45,6.94,8.14-13.23,1.26-32.23-10.96-40.16Z"/>
          <path class="cls-6" d="m197.71,138.17c-13.44,37.85-49.58,64.94-92.02,64.94-48.41,0-88.58-35.21-96.3-81.43,9.78-.7,19.8,1.72,27.85,7.35,8.65,6.05,14.93,15.16,23.92,20.7,12.69,7.83,29.36,7.3,42.92,1.16,8.62-3.9,16.15-9.82,24.35-14.54,13.15-7.58,28.54-12.07,43.57-10.04,9.47,1.28,18.7,5.45,25.69,11.86Z"/>
          <polygon class="cls-10" points="185.69 195.73 88.46 217.89 88.45 217.89 74.51 215.42 29.39 83.74 40.68 75.56 41.29 75.12 138.92 57.48 185.69 195.73"/>
          <g>
            <polygon class="cls-16" points="88.45 217.89 87.45 217.71 87.11 217.65 85.69 217.39 85.35 217.33 83.2 216.96 82.86 216.9 80.91 216.55 80.57 216.49 78.73 216.16 78.39 216.1 76.55 215.78 76.21 215.72 74.51 215.42 29.39 83.74 31.15 82.46 31.4 82.28 32.79 81.27 33.06 81.09 34.44 80.08 34.69 79.9 35.86 79.05 36.12 78.87 37.33 77.98 37.59 77.8 39.25 76.61 39.49 76.43 40.68 75.56 88.45 217.89"/>
            <g>
              <polygon class="cls-6" points="76.55 215.78 76.21 215.72 31.15 82.46 31.4 82.28 76.55 215.78"/>
              <polygon class="cls-6" points="78.73 216.16 78.39 216.1 32.79 81.27 33.06 81.09 78.73 216.16"/>
              <polygon class="cls-6" points="78.73 216.16 78.39 216.1 32.79 81.27 33.06 81.09 78.73 216.16"/>
              <polygon class="cls-6" points="80.91 216.55 80.57 216.49 34.44 80.08 34.69 79.9 80.91 216.55"/>
              <polygon class="cls-6" points="80.91 216.55 80.57 216.49 34.44 80.08 34.69 79.9 80.91 216.55"/>
              <polygon class="cls-6" points="83.2 216.96 82.86 216.9 35.86 79.05 36.12 78.87 83.2 216.96"/>
              <polygon class="cls-6" points="85.69 217.39 85.35 217.33 37.33 77.98 37.59 77.8 85.69 217.39"/>
              <polygon class="cls-6" points="87.45 217.71 87.11 217.65 39.25 76.61 39.49 76.43 87.45 217.71"/>
            </g>
          </g>
          <g>
            <g>
              <path class="cls-16" d="m62.26,82.17c0,2.68-2.17,4.85-4.85,4.85s-4.85-2.17-4.85-4.85,2.17-4.85,4.85-4.85,4.85,2.17,4.85,4.85Z"/>
              <path class="cls-12" d="m51.11,69.5c-3.31,0-6.13,2.12-7.17,5.07l1.43-.29c1.04-2.12,3.22-3.58,5.74-3.58,3.52,0,6.4,2.87,6.4,6.4,0,2.98-2.06,5.49-4.83,6.18l.46,1.13c3.22-.88,5.58-3.83,5.58-7.31,0-4.19-3.41-7.6-7.6-7.6Z"/>
            </g>
            <g>
              <path class="cls-16" d="m82.87,78.48c0,2.68-2.17,4.85-4.85,4.85s-4.85-2.17-4.85-4.85,2.17-4.85,4.85-4.85,4.85,2.17,4.85,4.85Z"/>
              <path class="cls-12" d="m71.72,65.8c-3.31,0-6.13,2.12-7.17,5.07l1.43-.29c1.04-2.12,3.22-3.58,5.74-3.58,3.52,0,6.4,2.87,6.4,6.4,0,2.98-2.06,5.49-4.83,6.18l.46,1.13c3.22-.88,5.58-3.83,5.58-7.31,0-4.19-3.41-7.6-7.6-7.6Z"/>
            </g>
            <g>
              <path class="cls-16" d="m101.28,74.47c0,2.57-2.08,4.66-4.66,4.66s-4.66-2.08-4.66-4.66,2.08-4.66,4.66-4.66,4.66,2.08,4.66,4.66Z"/>
              <path class="cls-12" d="m90.57,62.29c-3.18,0-5.89,2.04-6.89,4.87l1.38-.28c1-2.04,3.09-3.44,5.51-3.44,3.38,0,6.15,2.76,6.15,6.15,0,2.86-1.98,5.28-4.64,5.94l.44,1.09c3.09-.85,5.36-3.68,5.36-7.03,0-4.03-3.28-7.31-7.31-7.31Z"/>
            </g>
            <g>
              <path class="cls-16" d="m118.72,70.94c0,2.44-1.98,4.43-4.43,4.43s-4.43-1.98-4.43-4.43,1.98-4.43,4.43-4.43,4.43,1.98,4.43,4.43Z"/>
              <path class="cls-12" d="m108.53,59.37c-3.03,0-5.6,1.94-6.55,4.63l1.31-.26c.95-1.94,2.94-3.27,5.24-3.27,3.21,0,5.84,2.62,5.84,5.84,0,2.72-1.88,5.02-4.41,5.65l.42,1.03c2.94-.8,5.1-3.5,5.1-6.68,0-3.83-3.11-6.94-6.94-6.94Z"/>
            </g>
            <g>
              <path class="cls-16" d="m136.71,67.87c0,2.44-1.98,4.43-4.43,4.43s-4.43-1.98-4.43-4.43,1.98-4.43,4.43-4.43,4.43,1.98,4.43,4.43Z"/>
              <path class="cls-12" d="m126.53,56.29c-3.03,0-5.6,1.94-6.55,4.63l1.31-.26c.95-1.94,2.94-3.27,5.24-3.27,3.21,0,5.84,2.62,5.84,5.84,0,2.72-1.88,5.02-4.41,5.65l.42,1.03c2.94-.8,5.1-3.5,5.1-6.68,0-3.83-3.11-6.94-6.94-6.94Z"/>
            </g>
          </g>
          <path class="cls-5" d="m71.11,130.68c.14-7.1,2.68-14.42,8.1-19.02,5.41-4.6,13.94-5.76,19.71-1.61,3.69,2.66,5.83,7.02,6.91,11.43.89,3.62,1.17,7.48.11,11.06-1.05,3.58-3.57,6.84-7.05,8.18-3.48,1.34-7.88.42-10.08-2.59-3.09-4.21-.61-10.81,4.05-13.17,4.66-2.36,10.46-1.24,14.95,1.42,4.5,2.66,8.01,6.66,11.63,10.43,3.62,3.77,7.57,7.47,12.49,9.24,4.92,1.77,11.04,1.16,14.5-2.75,2.31-2.61,3.12-6.37,2.47-9.79"/>
          <g>
            <g>
              <polygon class="cls-11" points="193.68 181.61 187.26 195.15 186.74 194.91 85.7 147.02 85.74 146.95 92.12 133.48 193.2 181.39 193.68 181.61"/>
              <g>
                <line class="cls-4" x1="86.25" y1="142.11" x2="185.53" y2="189.45"/>
                <line class="cls-4" x1="90.41" y1="137.1" x2="189.69" y2="184.44"/>
              </g>
              <polygon class="cls-13" points="92.15 133.41 92.12 133.48 85.74 146.95 74.35 135.8 69.28 130.85 76.73 131.68 92.15 133.41"/>
            </g>
            <path class="cls-17" d="m76.73,131.68c.04.27.04.55.02.84-.15,1.53-1.13,2.64-2.4,3.29l-5.08-4.96,7.45.84Z"/>
            <g>
              <path class="cls-13" d="m193.68,181.61l-1.9,4-2.67,5.64-1.85,3.9-.52-.24c-1.53-2.06-1.58-5.1-.56-7.52,1.24-2.93,3.94-5.19,7.01-6l.48.23Z"/>
              <path class="cls-15" d="m191.78,185.61l-2.67,5.64c-.68-1.03-.81-2.42-.27-3.53.14-.31.33-.58.52-.86.14-.23.3-.46.51-.64.51-.47,1.2-.59,1.9-.61Z"/>
            </g>
          </g>
          <g>
            <g>
              <path class="cls-1" d="m208.93,68.22c-2.1,10.58-7.5,19.67-14.91,26.4-6.46,5.87-14.46,9.96-23.13,11.69-3.87.78-7.13,3.13-9.21,6.34-1.02,1.57-1.76,3.35-2.13,5.24l-.23,1.17-20.81-4.13.44-2.2c.01-.07.03-.13.03-.2.37-1.97.32-3.94-.12-5.82-.76-3.37-2.72-6.42-5.64-8.52-15.73-11.28-23.95-31.49-18.67-51.73,6.09-23.33,28.89-38.79,52.81-35.77,28.22,3.55,47.02,30.13,41.58,57.53Z"/>
              <path class="cls-2" d="m194.02,94.62c-6.46,5.87-14.46,9.96-23.13,11.69-3.87.78-7.13,3.13-9.21,6.34-1.02,1.57-1.76,3.35-2.13,5.24l-.23,1.17-20.81-4.13.44-2.2c.01-.07.03-.13.03-.2.37-1.97.32-3.94-.12-5.82,18.97-.09,37.9-4.25,55.18-12.08Z"/>
              <path class="cls-3" d="m142.79,113.07c3.42-14-3.9-28.62-2.15-42.93.39-3.19,1.28-6.42,3.22-8.98,1.95-2.56,5.11-4.36,8.31-4.04,2.4.24,4.61,1.64,6.11,3.53,1.5,1.89,2.35,4.24,2.75,6.62.58,3.45.25,7.06-.95,10.35-.47,1.3-1.16,2.63-2.39,3.25-.27.14-.58.23-.88.15-.51-.15-.72-.76-.81-1.28-.33-1.82-.29-3.7.03-5.52.87-4.93,3.93-9.43,8.2-12.05,2.13-1.31,4.59-2.18,7.09-2.15,2.5.02,5.04,1,6.69,2.88,2.19,2.51,2.52,6.24,1.63,9.45s-2.82,6.02-4.76,8.73c-3.98,5.55-8.16,10.97-11.59,16.88-3.43,5.9-6.12,12.36-6.81,19.15"/>
              <path class="cls-15" d="m161.69,112.65c-1.02,1.57-1.76,3.35-2.13,5.24l-.1.48c-5.5-.53-11.05-1.38-16.09-3.66-1.29-.57-2.92-1.18-4.48-1.71l.05-.27c.01-.07.03-.13.03-.2,7.54.86,15.16.91,22.72.12Z"/>
              <g>
                <path class="cls-10" d="m193.35,32.92c-1.24,1.31-1.84,3.14-1.9,4.94-.06,1.8.37,3.59.95,5.3,1.1,3.21,2.85,6.33,5.62,8.3,1.42,1.01,3.4,1.66,4.85.71.9-.58,1.37-1.64,1.64-2.67,1.16-4.39-.43-9.05-2.56-13.06-1.58-2.98-5.34-6.95-8.61-3.52Z"/>
                <path class="cls-10" d="m198.28,60.37c.12,1.6,1.2,3.12,2.71,3.67,4.22,1.54,7.21-4.55,4.31-7.47-2.8-2.82-7.28.23-7.02,3.8Z"/>
              </g>
              <path class="cls-10" d="m135.33,20.82c-4.09,3.22-7.93,6.79-11.05,10.94-3.12,4.16-5.52,8.92-6.52,14.02,5.31-8.76,11.67-17.4,17.57-24.97Z"/>
            </g>
            <g>
              <path class="cls-16" d="m158.05,128.12s-12.72,4.06-22.03-4.88l.83-3.07.17-.61.71-2.64.17-.59,1.34-4.93s10.09,5.43,21.17,4.31l-.96,5.09-.12.63-.52,2.72-.11.62-.64,3.34Z"/>
              <path class="cls-14" d="m158.69,124.78c-3.59.38-7.25.18-10.81-.52-3.88-.77-7.63-2.15-11.03-4.08l.17-.61c6.52,3.74,14.33,5.4,21.78,4.59l-.11.62Z"/>
              <path class="cls-14" d="m159.44,120.81l-.12.63c-3.57.36-7.22.16-10.77-.54-3.79-.75-7.47-2.1-10.82-3.97l.17-.59c6.46,3.65,14.19,5.26,21.55,4.47Z"/>
            </g>
          </g>
          <path class="cls-12" d="m98.31,17.69c0,21.52-17.45,38.97-38.97,38.97-11.59,0-22-5.06-29.15-13.1C46.41,23.82,70.21,10.56,97.15,8.23c.76,3.02,1.16,6.19,1.16,9.46Z"/>
          <g>
            <path class="cls-8" d="m86.29,33.71c0,.92-.75,1.67-1.67,1.67s-1.67-.75-1.67-1.67.75-1.67,1.67-1.67,1.67.75,1.67,1.67Z"/>
            <path class="cls-8" d="m93.11,26.74c0,.92-.75,1.67-1.67,1.67s-1.67-.75-1.67-1.67.75-1.67,1.67-1.67,1.67.75,1.67,1.67Z"/>
            <path class="cls-8" d="m99.56,33.19c0,.92-.75,1.67-1.67,1.67s-1.67-.75-1.67-1.67.75-1.67,1.67-1.67,1.67.75,1.67,1.67Z"/>
            <path class="cls-8" d="m92.37,40.38c0,.92-.75,1.67-1.67,1.67s-1.67-.75-1.67-1.67.75-1.67,1.67-1.67,1.67.75,1.67,1.67Z"/>
            <path class="cls-8" d="m105.31,23c0,.92-.75,1.67-1.67,1.67s-1.67-.75-1.67-1.67.75-1.67,1.67-1.67,1.67.75,1.67,1.67Z"/>
            <path class="cls-8" d="m107.83,38.71c0,.92-.75,1.67-1.67,1.67s-1.67-.75-1.67-1.67.75-1.67,1.67-1.67,1.67.75,1.67,1.67Z"/>
          </g>
          <g>
            <path class="cls-8" d="m23.06,148.88c0,.92-.75,1.67-1.67,1.67s-1.67-.75-1.67-1.67.75-1.67,1.67-1.67,1.67.75,1.67,1.67Z"/>
            <path class="cls-8" d="m29.88,141.91c0,.92-.75,1.67-1.67,1.67s-1.67-.75-1.67-1.67.75-1.67,1.67-1.67,1.67.75,1.67,1.67Z"/>
            <circle class="cls-8" cx="34.66" cy="148.36" r="1.67"/>
            <circle class="cls-8" cx="27.47" cy="155.55" r="1.67"/>
            <path class="cls-8" d="m42.07,138.17c0,.92-.75,1.67-1.67,1.67s-1.67-.75-1.67-1.67.75-1.67,1.67-1.67,1.67.75,1.67,1.67Z"/>
            <path class="cls-8" d="m44.59,153.89c0,.92-.75,1.67-1.67,1.67s-1.67-.75-1.67-1.67.75-1.67,1.67-1.67,1.67.75,1.67,1.67Z"/>
          </g>
          <path class="cls-1" d="m194.19,118.41c-1.72-7.79-9.49-12.68-17.28-10.84-.05.07-.08.12-.12.19l1.47,6.64c.02.09.11.14.21.11,0,0,.01,0,.02,0,2.54-.69,5.28-.09,6.98,1.93,4,4.75,1.38,10.95-3.69,12.08-.13.03-.24.05-.38.06l1.51,6.81c.07.05.12.08.19.13,7.84-1.61,12.82-9.32,11.1-17.11Z"/>
          <g>
            <path class="cls-10" d="m47.44,50.22l5.02,1.33c.3.08.31.49.02.59l-4.75,1.57c-.09.03-.17.11-.2.2l-1.45,4.64c-.09.29-.5.29-.59,0l-1.45-4.64c-.03-.1-.11-.17-.2-.2l-4.7-1.43c-.3-.09-.29-.51.01-.59l4.97-1.32c.11-.03.19-.12.22-.23l1.15-4.78c.08-.31.52-.31.6,0l1.14,4.63c.03.11.11.19.22.22Z"/>
            <path class="cls-10" d="m183.35,147.11l5.02,1.33c.3.08.31.49.02.59l-4.75,1.57c-.09.03-.17.11-.2.2l-1.45,4.64c-.09.29-.5.29-.59,0l-1.45-4.64c-.03-.1-.11-.17-.2-.2l-4.7-1.43c-.3-.09-.29-.51.01-.59l4.97-1.32c.11-.03.19-.12.22-.23l1.15-4.78c.08-.31.52-.31.6,0l1.14,4.63c.03.11.11.19.22.22Z"/>
            <path class="cls-10" d="m59.05,166.8l5.02,1.33c.3.08.31.49.02.59l-4.75,1.57c-.09.03-.17.11-.2.2l-1.45,4.64c-.09.29-.5.29-.59,0l-1.45-4.64c-.03-.1-.11-.17-.2-.2l-4.7-1.43c-.3-.09-.29-.51.01-.59l4.97-1.32c.11-.03.19-.12.22-.23l1.15-4.78c.08-.31.52-.31.6,0l1.14,4.63c.03.11.11.19.22.22Z"/>
            <path class="cls-10" d="m135.77,19.12l5.02,1.33c.3.08.31.49.02.59l-4.75,1.57c-.09.03-.17.11-.2.2l-1.45,4.64c-.09.29-.5.29-.59,0l-1.45-4.64c-.03-.1-.11-.17-.2-.2l-4.7-1.43c-.3-.09-.29-.51.01-.59l4.97-1.32c.11-.03.19-.12.22-.23l1.15-4.78c.08-.31.52-.31.6,0l1.14,4.63c.03.11.11.19.22.22Z"/>
          </g>
        </g>
      </g>
    </g>
  </g>
</svg>