<?xml version="1.0" encoding="UTF-8"?>
<svg id="_Слой_2" data-name="Слой 2" xmlns="http://www.w3.org/2000/svg" viewBox="0 0 211 208.65">
  <defs>
    <style>
      .cls-1, .cls-2, .cls-3 {
        fill: #492a51;
      }

      .cls-4 {
        stroke: #ffe8db;
      }

      .cls-4, .cls-5, .cls-6, .cls-7 {
        stroke-miterlimit: 10;
      }

      .cls-4, .cls-5, .cls-6, .cls-7, .cls-8 {
        fill: none;
      }

      .cls-4, .cls-6 {
        stroke-width: .5px;
      }

      .cls-9 {
        fill: #fff;
      }

      .cls-5 {
        stroke: #7581ff;
      }

      .cls-10 {
        fill: #d9607b;
      }

      .cls-6 {
        stroke: #aa6ee7;
      }

      .cls-2 {
        opacity: .21;
      }

      .cls-11 {
        fill: #7581ff;
      }

      .cls-3 {
        opacity: .33;
      }

      .cls-12 {
        fill: #ffb18a;
      }

      .cls-13 {
        fill: #aa6ee7;
      }

      .cls-14 {
        fill: #ffa7da;
      }

      .cls-7 {
        stroke: #ffa7da;
        stroke-width: 1.13px;
      }

      .cls-15 {
        fill: #ffe8db;
      }

      .cls-8 {
        stroke: #492a51;
        stroke-linecap: round;
        stroke-linejoin: round;
        stroke-width: .25px;
      }
    </style>
  </defs>
  <g id="OBJECTS">
    <g>
      <path class="cls-9" d="m64.5,208.65c-3.08,0-6.09-.56-8.87-1.61-.98.67-2.16,1.04-3.37,1.04H15.81c-1.73,0-3.37-.74-4.51-2.04-1.14-1.3-1.66-3.02-1.44-4.73,1.29-9.96,8.37-17.82,17.67-20.35v-7.54c-3.71-4.47-6.97-9.27-9.73-14.32-5.81-.7-10.33-5.66-10.33-11.66,0-2.76.96-5.35,2.62-7.4-2.16-7.82-3.26-15.87-3.26-24,0-2.88.14-5.78.41-8.65l-3.25-1.14c-2.07-.73-3.57-2.53-3.93-4.69-.35-2.16.5-4.35,2.23-5.7l5.5-4.29,2.32-6.57c.61-1.74,1.98-3.08,3.68-3.67,2.67-6.4,6.06-12.44,10.13-18.05-.87-1.61-1.35-3.44-1.35-5.36,0-6.22,5.06-11.28,11.28-11.28.38,0,.76.02,1.14.06L61.54,14.52c-.32-1.05-.48-2.14-.48-3.25,0-6.22,5.06-11.28,11.28-11.28,5.47,0,10.04,3.92,11.06,9.09l20.28,8.81c.79-.22,1.61-.33,2.43-.33,3.39,0,6.44,1.83,8.04,4.73,1.62-.23,3.26-.35,4.91-.35,14.38,0,27.31,8.83,32.6,22.1l2.79-.6,4.96-4.9c1.14-1.13,2.66-1.73,4.22-1.73.57,0,1.15.08,1.72.25,2.1.63,3.69,2.35,4.15,4.5l1.45,6.82,4.9,4.96c1.54,1.56,2.11,3.83,1.48,5.94-.63,2.1-2.35,3.69-4.5,4.15l-2.6.55c.34.48.68.96,1.01,1.45,3.7-2.66,7.88-4.54,12.23-5.47.41-.09.83-.13,1.24-.13,1.46,0,2.89.54,4,1.53,1.43,1.28,2.16,3.15,1.97,5.06-.33,3.41-1.39,6.7-3.11,9.77,3.11.47,5.71,1.23,8.08,2.32,9.82,4.53,16.1,16,15.26,27.89-.66,9.37-5.45,18.97-13.49,27.03-.33.33-.7.69-1.09,1.06.28.69.43,1.44.43,2.23v36.16c0,3.31-2.69,6-6,6h-.23v23.78c0,3.31-2.69,5.99-6,5.99h-120.05Z"/>
      <g>
        <circle class="cls-12" cx="98.65" cy="116.04" r="84"/>
        <g>
          <g>
            <g>
              <path class="cls-10" d="m206.74,105.99c-.62,8.84-5.49,16.94-11.75,23.21-2.41,2.41-5.07,4.64-8.18,6.05-.73.33-1.47.61-2.22.86-2.27.74-4.65,1.12-7.02,1.42-7.38.92-15.16.87-21.84-2.36-7.61-3.67-12.84-11.04-16.14-18.81-2.33-5.49-3.88-11.47-3.16-17.38.1-.87.26-1.73.49-2.58,1.23-4.98,4.29-9.55,8.84-11.82,3.39-1.68,7.26-1.92,10.94-1.26,2.96.53,6.16,2.7,9.2,2.3.1,0,.2-.03.3-.04,2.79-.52,5.36-2.19,8.17-3,.36-.11.73-.2,1.11-.27,3.7-.72,7.51-.79,11.25-.39,2.82.31,5.64.88,8.22,2.07,8.04,3.71,12.42,13.18,11.8,22.02Z"/>
              <path class="cls-11" d="m165.76,86.11c2.36-9.93,10.78-18.15,20.77-20.27-.5,5.03-3.07,9.47-6.72,12.97-3.65,3.5-9.27,5.65-14.05,7.3Z"/>
              <g>
                <path class="cls-15" d="m190.56,90.78c-.2,1.96.55,3.89,1.53,5.6.56.97,1.2,1.9,2.06,2.61.86.71,1.96,1.18,3.07,1.12,1.95-.12,3.51-1.94,3.8-3.87s-.46-3.9-1.56-5.52c-1.06-1.57-3.13-3.77-5.16-3.97-2.07-.2-3.54,2.18-3.73,4.04Z"/>
                <path class="cls-15" d="m197.76,106.85c.13.49.33.97.66,1.36.54.64,1.42.95,2.25.89.84-.06,1.63-.47,2.22-1.06,2.02-2.01,1.1-5.52-1.75-6.11-2.81-.58-3.97,2.67-3.38,4.92Z"/>
              </g>
            </g>
            <path class="cls-11" d="m166.09,85.88c-3.37-1.69-6.12-4.58-7.65-8.03s-1.82-7.43-.81-11.06c3.74.91,6.56,3.95,7.78,7.6,1.22,3.65,1.09,7.66.68,11.49Z"/>
            <path class="cls-3" d="m184.59,136.11c-2.27.74-4.65,1.12-7.02,1.42-7.38.92-15.16.87-21.84-2.36-7.61-3.67-12.84-11.04-16.14-18.81-2.33-5.49-3.88-11.47-3.16-17.38.1-.87.26-1.73.49-2.58.85,3.84,2.41,7.53,4.28,11,4.68,8.66,11.5,16.24,19.88,21.41,7.06,4.36,15.24,6.99,23.52,7.31Z"/>
          </g>
          <g>
            <g>
              <path class="cls-15" d="m137.58,124.76l-59.92,14.56-1.19.29-1.05-.69-4.5-2.94-.89-.58-.04-.93-.04-1.1-.46-11.85v-.04l-2.07-52.61s.91-.07,2.53-.07c.08,0,.16,0,.25,0,.42,0,.91,0,1.42.02.08,0,.16,0,.25,0,1.64.02,3.67.12,5.98.32.08,0,.17,0,.25.02,1.38.12,2.88.3,4.45.53.08,0,.16.02.25.03,3.15.46,6.6,1.13,10.18,2.14.08.02.16.04.24.07.81.22,1.62.46,2.44.73.08.02.16.05.24.08,2.93.94,5.9,2.12,8.83,3.58.08.03.15.07.23.11,1.68.83,3.34,1.76,4.97,2.8.07.04.14.09.21.13.65.41,1.29.84,1.93,1.3.07.04.14.09.2.14.21.13.41.28.6.42,2.38,1.74,4.55,3.72,6.52,5.85.05.06.11.11.17.18.38.4.74.81,1.11,1.24.05.07.11.12.16.19,2.29,2.68,4.29,5.53,6.04,8.44.04.07.08.13.13.2.35.58.69,1.18,1.03,1.76.04.08.08.15.12.22,1.14,2.03,2.14,4.07,3.04,6.05.03.07.07.14.1.21.8,1.76,1.5,3.49,2.13,5.13l-55.72,25.02-.85.38s.02.1.03.14c0,.02,0,.04,0,.06l.86-.31,1.2-.43,56.11-20.19c.16.49.31.96.45,1.41.02.08.04.15.07.23.08.28.16.55.25.81.02.08.04.16.07.24.45,1.53.8,2.87,1.07,3.94.02.08.04.15.05.23.29,1.17.45,1.98.52,2.35.04.14.05.22.05.22Z"/>
              <path class="cls-12" d="m77.79,138.47c-.06.59-.16,1.09-.25,1.48-.1.46-.19.73-.19.73l-1.73-1.14-5.25-3.45-2.26-1.49s.48-.4,1.23-.87c.28-.18.58-.35.92-.53,1.64-.84,3.92-1.55,5.72-.26.98.69,1.48,1.69,1.71,2.74.02.08.04.16.05.25.16.87.14,1.77.05,2.54Z"/>
              <path class="cls-11" d="m69.57,137.22c-.69,0-1.29-.51-1.36-1.19l-6.96-69.34c-.07-.73.48-1.37,1.22-1.44.76-.07,1.42.46,1.49,1.19l6.96,69.34c.07.73-.48,1.37-1.22,1.44-.05,0-.09,0-.13,0Z"/>
              <path class="cls-11" d="m148.66,123.45c-.17-.71-.9-1.15-1.63-1-.08.02-3.81.83-9.5,2.09-6.79,1.51-16.39,3.62-25.94,5.76-10.29,2.31-18.5,4.17-24.41,5.55-4.79,1.11-7.64,1.78-9.36,2.23-1.41.37-2.07.61-2.39.83-.15.11-.23.2-.29.31-.06.1-.09.19-.13.31-.24.69.15,1.44.86,1.68.15.04.29.07.43.07.26,0,.49-.08.71-.2,2.9-1.04,43.65-10.13,70.61-16.04.73-.16,1.2-.87,1.03-1.59Z"/>
            </g>
            <path class="cls-12" d="m71.01,132.84v.11l-.25.07v-.08l-.81-64.15c.08,0,.16,0,.25,0l.81,64.06Z"/>
            <path class="cls-12" d="m73.02,135.52h-.25s-.06-3.2-.06-3.2l-1.09-63.51c.08,0,.16,0,.25,0l1.09,63.47.06,3.24Z"/>
            <path class="cls-12" d="m82.8,69.7l-8.49,62.58-.23,1.67v.04s-.22,1.55-.22,1.55h-.13s-.12-.02-.12-.02v-.05l.21-3.23,4.03-63.12c.08,0,.17,0,.25.02l-4.02,62.93,8.47-62.4c.08,0,.16.02.25.03Z"/>
            <path class="cls-12" d="m95.89,72.71l-20.94,59.71-1.09,3.12v.03s-.13-.04-.13-.04l-.12-.04h0s.45-1.51.45-1.51l.51-1.67,18.39-60.48c.08.02.16.04.24.07l-17.65,58.05,20.09-57.32c.08.02.16.05.24.08Z"/>
            <path class="cls-12" d="m110.35,78.96l-.23.36-33.89,53.82-1.47,2.35-.33.53h0l-.41.65-.35.55-.09-.05h0s-.12-.07-.12-.07l.35-.67.23-.44,1.66-3.23,29.03-56.47c.08.03.15.07.23.11l-29.05,56.5-.93,1.81,1.08-1.71,33.87-53.81.22-.35.22.12Z"/>
            <path class="cls-12" d="m120.81,88.65l-42.05,43.55-.04.04-1.51,1.57-.2.21-.66.68-.03.02-.74.78h0s-.02.03-.02.03l-.54.57-.09-.06h0s-.02-.02-.02-.02l-.09-.07.25-.36.36-.55h.02s1.09-1.63,1.09-1.63l35.53-52.78c.07.04.14.09.2.14l-35.56,52.82-.71,1.06-.19.28.43-.44.65-.68,1.57-1.63.06-.06,5.43-5.62.08-.09,36.65-37.96c.05.07.11.12.16.19Z"/>
            <path class="cls-12" d="m119.55,87.22l-35.54,39.2-5.24,5.78-1.29,1.43h0s-.41.46-.41.46l-.31.34h0s-.55.62-.55.62l-.24.27h0l-.26.29-.1-.09h0s-.08-.08-.08-.08l.37-.4.72-.8.34-.37,1.58-1.74,40.88-45.08c.05.06.11.11.17.18Z"/>
            <path class="cls-12" d="m126.98,97.29l-37.92,28.41-4.66,3.49-7.12,5.33-.32.23-1.35,1.03-1.98,1.48-.07-.1-.08-.1.52-.39.88-.65h0s.6-.46.6-.46l.04-.03.02-.02h0s.6-.46.6-.46l1-.75,2.59-1.94,4.67-3.5,42.41-31.77c.04.07.08.13.13.2Z"/>
            <path class="cls-12" d="m128.13,99.28l-43.72,29.91-4.64,3.17-2.66,1.81-.38.26-.39.27-.49.34-.8.55-.63.43-.61.42h0s-.14-.2-.14-.2l.37-.25.73-.5.67-.46.54-.37.24-.16.37-.25.4-.27.24-.16.25-.17,6.98-4.77,4.63-3.16,38.94-26.65c.04.08.08.15.12.22Z"/>
            <path class="cls-12" d="m131.27,105.54l-53.86,29.26-1.79.98-.64.35-.06-.09v-.03s-.07-.1-.07-.1l.66-.35.04-.03h.03s.36-.21.36-.21l1.04-.57.35-.18,53.85-29.24c.03.07.07.14.1.21Z"/>
            <path class="cls-12" d="m135.57,116.98l-57.79,19.2-3.33,1.1-.08-.23,2.5-.83.87-.29,1.2-.39,56.57-18.78c.02.08.04.15.07.23Z"/>
            <path class="cls-12" d="m137,122.19l-59.15,15.08-2.57.65-.07-.23,2.62-.86,57.98-19.05c.02.08.04.16.07.24l-57.23,18.8,58.3-14.86c.02.08.04.15.05.23Z"/>
          </g>
          <g>
            <g>
              <path class="cls-10" d="m186.35,172.85v29.8h-120.05c-9.48,0-17.15-6.67-17.15-14.91,0-4.12,1.91-7.84,5.02-10.53,3.11-2.71,7.4-4.37,12.14-4.37h120.05Z"/>
              <g>
                <path class="cls-15" d="m186.35,175.06v25.89h-40.46c-1.03,0-2.03-.09-3-.26-.34-.06-.67-.13-1-.22-1.74-.42-3.34-1.1-4.76-2-.11-.07-.22-.14-.33-.22-.88-.58-1.68-1.25-2.37-1.99-.08-.07-.14-.14-.21-.22-.57-.62-1.07-1.28-1.5-1.99-.05-.07-.09-.14-.13-.22-.38-.63-.69-1.31-.94-2-.02-.07-.05-.14-.07-.22-.22-.64-.38-1.31-.47-1.99,0-.07-.02-.15-.03-.22-.06-.46-.09-.93-.09-1.4,0-.2,0-.4.02-.59,0-.08,0-.15,0-.22.05-.68.16-1.35.32-2,.02-.08.04-.15.06-.22.19-.68.44-1.35.75-1.99.04-.07.07-.15.11-.22.36-.7.78-1.37,1.27-1.99.06-.08.12-.15.18-.22.49-.61,1.04-1.18,1.65-1.71.11-.1.23-.2.35-.29.09-.08.18-.15.27-.22,1.03-.8,2.18-1.47,3.44-2,.18-.08.36-.15.55-.22,1.82-.68,3.82-1.07,5.93-1.07h40.46Z"/>
                <g>
                  <path class="cls-14" d="m186.35,176.13v.22h-46.94c.18-.08.36-.15.55-.22h46.39Z"/>
                  <path class="cls-14" d="m186.35,178.35v.22h-50.65c.09-.08.18-.15.27-.22h50.38Z"/>
                  <path class="cls-14" d="m186.35,178.35v.22h-50.65c.09-.08.18-.15.27-.22h50.38Z"/>
                  <path class="cls-14" d="m186.35,180.56v.22h-52.82c.06-.08.12-.15.18-.22h52.64Z"/>
                  <path class="cls-14" d="m186.35,180.56v.22h-52.82c.06-.08.12-.15.18-.22h52.64Z"/>
                  <path class="cls-14" d="m186.35,182.77v.22h-54.2c.04-.07.07-.15.11-.22h54.09Z"/>
                  <path class="cls-14" d="m186.35,182.77v.22h-54.2c.04-.07.07-.15.11-.22h54.09Z"/>
                  <path class="cls-14" d="m186.35,184.98v.22h-55.01c.02-.08.04-.15.06-.22h54.95Z"/>
                  <path class="cls-14" d="m186.35,184.98v.22h-55.01c.02-.08.04-.15.06-.22h54.95Z"/>
                  <path class="cls-14" d="m186.35,187.2v.22h-55.34c0-.08,0-.15,0-.22h55.33Z"/>
                  <path class="cls-14" d="m186.35,189.41v.22h-55.24c0-.07-.02-.15-.03-.22h55.27Z"/>
                  <path class="cls-14" d="m186.35,189.41v.22h-55.24c0-.07-.02-.15-.03-.22h55.27Z"/>
                  <path class="cls-14" d="m186.35,191.62v.22h-54.7c-.02-.07-.05-.14-.07-.22h54.77Z"/>
                  <path class="cls-14" d="m186.35,193.84v.22h-53.63c-.05-.07-.09-.14-.13-.22h53.76Z"/>
                  <path class="cls-14" d="m186.35,196.05v.22h-51.93c-.08-.07-.14-.14-.21-.22h52.13Z"/>
                  <path class="cls-14" d="m186.35,198.26v.22h-49.22c-.11-.07-.22-.14-.33-.22h49.55Z"/>
                  <path class="cls-14" d="m186.35,200.48v.22h-43.47c-.34-.06-.67-.13-1-.22h44.46Z"/>
                </g>
              </g>
            </g>
            <g>
              <g>
                <path class="cls-13" d="m192.58,136.72v36.16h-121.21c-9.57,0-17.32-8.09-17.32-18.08,0-5,1.93-9.51,5.06-12.77,3.14-3.29,7.47-5.3,12.26-5.3h121.21Z"/>
                <g>
                  <path class="cls-15" d="m192.58,139.42v31.41h-40.86c-1.04,0-2.05-.11-3.03-.32-.34-.07-.67-.16-1.01-.26-1.75-.5-3.37-1.34-4.8-2.43-.11-.08-.22-.17-.33-.26-.89-.7-1.69-1.51-2.4-2.42-.08-.08-.14-.17-.21-.26-.57-.75-1.08-1.56-1.51-2.42-.05-.08-.09-.17-.13-.26-.38-.77-.7-1.59-.95-2.43-.02-.08-.05-.17-.07-.26-.22-.78-.38-1.59-.47-2.42-.01-.08-.02-.18-.03-.26-.06-.56-.09-1.13-.09-1.7,0-.24.01-.48.02-.72,0-.09,0-.18,0-.26.05-.83.16-1.64.32-2.43.02-.09.04-.18.06-.26.19-.83.44-1.64.76-2.42.04-.08.07-.18.11-.26.36-.85.79-1.66,1.28-2.42.06-.09.12-.18.18-.26.49-.74,1.05-1.43,1.66-2.07.11-.12.23-.24.35-.35.09-.09.18-.18.27-.26,1.04-.97,2.21-1.79,3.48-2.43.18-.09.36-.18.55-.26,1.83-.83,3.86-1.29,5.98-1.29h40.86Z"/>
                  <g>
                    <path class="cls-14" d="m192.58,140.71v.26h-47.39c.18-.09.36-.18.55-.26h46.84Z"/>
                    <path class="cls-14" d="m192.58,143.4v.26h-51.14c.09-.09.18-.18.27-.26h50.87Z"/>
                    <path class="cls-14" d="m192.58,143.4v.26h-51.14c.09-.09.18-.18.27-.26h50.87Z"/>
                    <path class="cls-14" d="m192.58,146.08v.26h-53.34c.06-.09.12-.18.18-.26h53.15Z"/>
                    <path class="cls-14" d="m192.58,146.08v.26h-53.34c.06-.09.12-.18.18-.26h53.15Z"/>
                    <path class="cls-14" d="m192.58,148.76v.26h-54.73c.04-.08.07-.18.11-.26h54.62Z"/>
                    <path class="cls-14" d="m192.58,148.76v.26h-54.73c.04-.08.07-.18.11-.26h54.62Z"/>
                    <path class="cls-14" d="m192.58,151.45v.26h-55.54c.02-.09.04-.18.06-.26h55.48Z"/>
                    <path class="cls-14" d="m192.58,151.45v.26h-55.54c.02-.09.04-.18.06-.26h55.48Z"/>
                    <path class="cls-14" d="m192.58,154.14v.26h-55.87c0-.09,0-.18,0-.26h55.86Z"/>
                    <path class="cls-14" d="m192.58,156.82v.26h-55.77c-.01-.08-.02-.18-.03-.26h55.8Z"/>
                    <path class="cls-14" d="m192.58,156.82v.26h-55.77c-.01-.08-.02-.18-.03-.26h55.8Z"/>
                    <path class="cls-14" d="m192.58,159.5v.26h-55.23c-.02-.08-.05-.17-.07-.26h55.3Z"/>
                    <path class="cls-14" d="m192.58,162.19v.26h-54.15c-.05-.08-.09-.17-.13-.26h54.28Z"/>
                    <path class="cls-14" d="m192.58,164.87v.26h-52.43c-.08-.08-.14-.17-.21-.26h52.64Z"/>
                    <path class="cls-14" d="m192.58,167.55v.26h-49.7c-.11-.08-.22-.17-.33-.26h50.03Z"/>
                    <path class="cls-14" d="m192.58,170.25v.26h-43.89c-.34-.07-.67-.16-1.01-.26h44.89Z"/>
                  </g>
                </g>
              </g>
              <rect class="cls-7" x="66.88" y="146.51" width="55.79" height="14.31" rx="6.34" ry="6.34"/>
            </g>
            <path class="cls-15" d="m68.71,186.92c0,2.75-2.23,4.97-4.97,4.97s-4.97-2.23-4.97-4.97,2.23-4.97,4.97-4.97,4.97,2.23,4.97,4.97Z"/>
            <path class="cls-15" d="m112.55,191.58h-34.28c-2.57,0-4.67-2.1-4.67-4.67h0c0-2.57,2.1-4.67,4.67-4.67h34.28c2.57,0,4.67,2.1,4.67,4.67h0c0,2.57-2.1,4.67-4.67,4.67Z"/>
          </g>
          <g>
            <polyline class="cls-5" points="108.01 26.09 74.31 11.45 35.84 58.09 35.84 198.68"/>
            <circle class="cls-13" cx="35.67" cy="57.92" r="5.28"/>
            <circle class="cls-13" cx="74.14" cy="11.28" r="5.28"/>
            <g>
              <path class="cls-13" d="m112.94,30.65l-5.91,2.4-2.06-5.09c-.66-1.63.12-3.49,1.76-4.16h0c1.63-.66,3.49.12,4.16,1.76l2.06,5.09Z"/>
              <path class="cls-13" d="m148.29,47.32l-36.27,15.77-16.99,7.38c-2.09-4.01-3.27-8.57-3.27-13.41,0-11.75,6.97-21.88,17-26.46,3.69-1.7,7.79-2.64,12.11-2.64,12.66,0,23.42,8.08,27.42,19.36Z"/>
              <g>
                <path class="cls-1" d="m148.29,47.32s-16.2,23.96-53.26,23.15c0,0,6.07-7.38,18.76-13.85,4.22-2.16,9.18-4.22,14.89-5.86,5.76-1.67,12.29-2.92,19.61-3.44Z"/>
                <path class="cls-15" d="m129.29,53.83c0,4.42-3.58,8-8,8-3.44,0-6.37-2.17-7.5-5.21,4.22-2.16,9.18-4.22,14.89-5.86.39.95.61,1.98.61,3.07Z"/>
              </g>
              <path class="cls-2" d="m112.02,63.09l-16.99,7.38c-2.09-4.01-3.27-8.57-3.27-13.41,0-11.75,6.97-21.88,17-26.46-.62.93-1.36,1.87-1.66,2.55-2.54,5.78-2.53,12.49-.73,18.55,1.21,4.08,3.2,7.89,5.65,11.39Z"/>
              <path class="cls-8" d="m106.48,31.7s2.3-1.36,5.11-2.21"/>
              <g>
                <path class="cls-15" d="m126.57,33.7c.28.6.71,1.15,1.22,1.52,1.36.98,3.85,1.8,5.21.42,1.07-1.08.55-2.62-.39-3.57-1.08-1.09-3.02-2.23-4.61-1.87-1.89.43-2.07,2.11-1.43,3.5Z"/>
                <circle class="cls-15" cx="136.9" cy="37.28" r="1.83"/>
              </g>
            </g>
            <path class="cls-13" d="m54.07,202.08H17.62c1.17-9.03,8.88-16,18.22-16s17.06,6.97,18.23,16Z"/>
          </g>
        </g>
        <g>
          <polygon class="cls-13" points="24.31 102.14 21.41 110.37 16.04 103.49 7.81 100.59 14.69 95.22 17.59 86.99 22.96 93.87 31.19 96.77 24.31 102.14"/>
          <polygon class="cls-15" points="81.78 38.69 78.68 47.48 72.94 40.13 64.15 37.03 71.5 31.3 74.6 22.5 80.34 29.86 89.13 32.96 81.78 38.69"/>
          <polygon class="cls-15" points="112.47 169.21 109.57 177.44 104.2 170.56 95.97 167.66 102.86 162.29 105.76 154.06 111.12 160.94 119.35 163.84 112.47 169.21"/>
          <polygon class="cls-15" points="164.86 59.39 158.66 65.53 156.84 56.99 150.7 50.79 159.23 48.96 165.44 42.83 167.26 51.36 173.4 57.57 164.86 59.39"/>
        </g>
        <path class="cls-15" d="m56.9,112.72c0,3.17-2.57,5.74-5.74,5.74s-5.74-2.57-5.74-5.74,2.57-5.74,5.74-5.74,5.74,2.57,5.74,5.74Z"/>
        <path class="cls-10" d="m26.78,147.45c0,3.17-2.57,5.74-5.74,5.74s-5.74-2.57-5.74-5.74,2.57-5.74,5.74-5.74,5.74,2.57,5.74,5.74Z"/>
        <g>
          <circle class="cls-6" cx="56.78" cy="61.4" r="9.83"/>
          <circle class="cls-4" cx="54.73" cy="155.36" r="9.83" transform="translate(-63.71 40.89) rotate(-26.57)"/>
          <circle class="cls-4" cx="132.35" cy="69.57" r="9.83"/>
        </g>
      </g>
    </g>
  </g>
</svg>