<?xml version="1.0" encoding="UTF-8"?>
<svg id="_Слой_2" data-name="Слой 2" xmlns="http://www.w3.org/2000/svg" viewBox="0 0 196.32 201.99">
  <defs>
    <style>
      .cls-1 {
        opacity: .18;
      }

      .cls-2, .cls-3 {
        fill: #fff;
      }

      .cls-4 {
        fill: #00d4fc;
      }

      .cls-5 {
        opacity: .5;
      }

      .cls-6 {
        fill: #332fba;
      }

      .cls-7 {
        fill: #d811ad;
      }

      .cls-8, .cls-9 {
        fill: #0a1640;
      }

      .cls-3 {
        opacity: .75;
      }

      .cls-9, .cls-10 {
        opacity: .25;
      }

      .cls-11 {
        fill: #ffce00;
      }

      .cls-12 {
        fill: #ff8cdb;
      }

      .cls-13 {
        fill: #6b7fff;
      }

      .cls-14 {
        fill: #e38921;
      }
    </style>
  </defs>
  <g id="OBJECTS">
    <g>
      <g>
        <g>
          <g>
            <path class="cls-11" d="m134.44,26.22l60.78,125.51c.16.33.24.66.27,1,.05.84-.33,1.69-1.01,2.23-.14.14-.31.24-.49.33l-69.75,33.78c-13.96,6.76-24.41,11.82-24.41,11.82-1.32.64-2.92.08-3.56-1.24l-60.78-125.51c-.07-.14-.12-.3-.17-.45-.12-.42-.12-.86-.04-1.27.15-.67.55-1.27,1.15-1.67l.07-.03c.06-.04.14-.09.22-.13l94.16-45.6c1.32-.64,2.91-.09,3.56,1.23Z"/>
            <g>
              <g class="cls-5">
                <path class="cls-14" d="m194.48,154.96c-.05.05-3.28,1.63-8.52,4.19l-3.97-8.2c3.84.39,7.75,1.71,12.49,4.01Z"/>
              </g>
              <g class="cls-5">
                <path class="cls-14" d="m84.04,149.47l-9.78,4.74,7.56,15.61c-30.81-63.56-41.76-85.99-45.56-94.09-.37-.81-.69-1.48-.93-2.03-.12-.42-.12-.86-.04-1.27.15-.67.55-1.27,1.15-1.67l.07-.03c13.73.62,18.6,16.49,47.54,78.75Z"/>
              </g>
            </g>
          </g>
          <path class="cls-8" d="m98.52,201.98c-1.24-.06-2.41-.78-2.99-1.97l-60.78-125.51c-.09-.19-.16-.38-.22-.59-.15-.53-.17-1.11-.05-1.67.2-.91.73-1.68,1.51-2.19.03-.02.06-.04.1-.05.06-.04.18-.11.29-.16l94.16-45.6c1.73-.84,3.82-.11,4.66,1.62h0l60.78,125.51c.19.39.3.82.35,1.29.06,1.12-.43,2.22-1.28,2.92-.18.18-.4.32-.68.46l-94.16,45.6c-.54.26-1.11.37-1.68.34ZM132.13,25.55c-.3-.01-.6.04-.88.18l-94.16,45.6s-.09.05-.13.07c-.03.02-.06.04-.1.05-.38.25-.67.66-.77,1.13-.06.29-.05.59.03.87.03.11.07.22.12.32l60.78,125.51c.44.91,1.54,1.3,2.45.86l94.16-45.6c.12-.06.21-.11.26-.17.02-.02.05-.04.07-.06.46-.37.73-.95.69-1.53-.02-.25-.08-.48-.18-.69l-60.78-125.51c-.3-.62-.92-1-1.57-1.03Z"/>
        </g>
        <g>
          <g>
            <rect class="cls-2" x="66.04" y="48.65" width="98.62" height="128.59" rx="2.17" ry="2.17" transform="translate(-37.69 61.57) rotate(-25.84)"/>
            <g class="cls-1">
              <path class="cls-8" d="m185.45,144.54l1.37,2.82c.52,1.07.07,2.37-1.01,2.9l-84.86,41.1c-1.08.52-2.38.07-2.9-1.01l-54.16-111.83c-.52-1.08-.07-2.37,1.01-2.9l2.28-1.11c2.87.5,5.55,1.98,7.49,4.34,6.74,8.18,6.69,12.22,30.17,59.49,4.98,10.01,8.66,22.03,18.28,28.71,13.86,9.61,31.77-5.4,60-17.47,7.02-3.01,14.85-7.15,22.32-5.04Z"/>
            </g>
            <path class="cls-4" d="m139.58,76.58l-1.5.72-22.22,10.76-1.49.72c-.57.28-1.19.31-1.75.13-.07-.01-.14-.04-.19-.07-.53-.21-.99-.61-1.27-1.17l-.28-.57-11.93-24.64c-.58-1.19-.08-2.63,1.12-3.21l25.2-12.21c.32-.15.66-.23,1-.24.12,0,.25.01.37.02.77.12,1.48.59,1.84,1.35l12.2,25.2c.58,1.2.08,2.62-1.11,3.21Z"/>
            <g>
              <path class="cls-7" d="m138.08,77.3l-22.22,10.76c-.25-.67-.46-1.36-.63-2.04-.16-.61-.28-1.23-.36-1.84-.92-6.13,1.29-11.83,5.99-14.1,1.17-.57,2.42-.89,3.7-.96.37-.03.75-.02,1.12,0,4.55.18,9.34,3.22,12.4,8.18Z"/>
              <path class="cls-7" d="m111.13,64.2c1.49,3.08,5.2,4.37,8.27,2.87s4.37-5.2,2.87-8.27c-1.49-3.08-5.2-4.37-8.27-2.87-3.08,1.49-4.37,5.2-2.87,8.27Z"/>
            </g>
            <path class="cls-9" d="m138.08,77.3l-22.22,10.76c-.25-.67-.46-1.36-.63-2.04-.16-.61-.28-1.23-.36-1.84,5.8-4.72,9.09-9.78,10.8-15.07,4.55.18,9.34,3.22,12.4,8.18Z"/>
            <g>
              <path class="cls-13" d="m57.14,84.32c-.82-.04-1.58-.51-1.97-1.3-.55-1.14-.08-2.52,1.07-3.08l19.78-9.58c1.14-.55,2.52-.08,3.08,1.07.55,1.14.08,2.52-1.07,3.08l-19.78,9.58c-.36.17-.74.25-1.11.23Z"/>
              <path class="cls-13" d="m74.18,119.51c-.82-.04-1.58-.51-1.97-1.3-.55-1.14-.08-2.52,1.07-3.08l19.78-9.58c1.14-.55,2.52-.08,3.08,1.07.55,1.14.08,2.52-1.07,3.08l-19.78,9.58c-.36.17-.74.25-1.11.23Z"/>
              <path class="cls-13" d="m91.23,154.7c-.82-.04-1.58-.51-1.97-1.3-.55-1.14-.08-2.52,1.07-3.08l19.78-9.58c1.14-.56,2.52-.08,3.08,1.07.55,1.14.08,2.52-1.07,3.08l-19.78,9.58c-.36.17-.74.25-1.11.23Z"/>
              <path class="cls-13" d="m116.68,98.93c-.82-.04-1.58-.51-1.97-1.3-.55-1.14-.08-2.52,1.07-3.08l22.82-11.05c1.14-.56,2.52-.08,3.08,1.07.55,1.14.08,2.52-1.07,3.08l-22.82,11.05c-.36.17-.74.25-1.11.23Z"/>
            </g>
            <g>
              <path class="cls-12" d="m119.95,105.83c.59,1.23,2.07,1.74,3.3,1.15s1.74-2.07,1.15-3.3c-.59-1.23-2.07-1.74-3.3-1.15-1.23.59-1.74,2.07-1.15,3.3Z"/>
              <path class="cls-12" d="m124.92,116.09c.59,1.23,2.07,1.74,3.3,1.15s1.74-2.07,1.15-3.3c-.59-1.23-2.07-1.74-3.3-1.15-1.23.59-1.74,2.07-1.15,3.3Z"/>
              <path class="cls-12" d="m129.89,126.35c.59,1.23,2.07,1.74,3.3,1.15,1.23-.59,1.74-2.07,1.15-3.3-.59-1.23-2.07-1.74-3.3-1.15-1.23.59-1.74,2.07-1.15,3.3Z"/>
              <path class="cls-12" d="m134.86,136.61c.59,1.23,2.07,1.74,3.3,1.15,1.23-.59,1.74-2.07,1.15-3.3-.59-1.23-2.07-1.74-3.3-1.15-1.23.59-1.74,2.07-1.15,3.3Z"/>
              <path class="cls-12" d="m139.83,146.87c.59,1.23,2.07,1.74,3.3,1.15,1.23-.59,1.74-2.07,1.15-3.3-.59-1.23-2.07-1.74-3.3-1.15-1.23.59-1.74,2.07-1.15,3.3Z"/>
            </g>
            <g class="cls-10">
              <path class="cls-6" d="m115.24,86.03c.17.68.38,1.36.63,2.04l-1.49.72c-.57.28-1.19.31-1.75.13-.07-.01-.14-.04-.19-.07-.53-.21-.99-.61-1.27-1.17l-.28-.57c1.45-.96,2.78-1.94,3.99-2.92.08.61.2,1.22.36,1.84Z"/>
              <path class="cls-6" d="m139.58,76.58l-1.5.72c-3.07-4.96-7.85-8-12.4-8.18,2.3-7.12,1.74-14.64.59-22.32.12,0,.25.01.37.02.77.12,1.48.59,1.84,1.35l12.2,25.2c.58,1.2.08,2.62-1.11,3.21Z"/>
            </g>
          </g>
          <g>
            <path class="cls-8" d="m187.56,147l-54.16-111.83c-.35-.72-.96-1.26-1.71-1.53-.75-.26-1.57-.22-2.29.14l-84.86,41.1c-1.49.72-2.11,2.52-1.39,4l54.16,111.83c.35.72.96,1.26,1.71,1.52.28.1.56.15.85.17.49.02.98-.08,1.44-.3l84.86-41.1c.72-.35,1.26-.96,1.52-1.72.26-.76.21-1.57-.13-2.29Zm-1.43,1.74c-.12.34-.36.61-.68.77l-84.86,41.1c-.32.15-.69.18-1.02.06-.34-.12-.61-.36-.76-.68l-54.16-111.83c-.32-.67-.04-1.47.62-1.79l84.86-41.1c.2-.1.43-.14.65-.13.13,0,.25.03.38.07.34.12.61.36.77.68l54.16,111.83c.16.32.18.68.06,1.02Z"/>
            <path class="cls-8" d="m110.14,87.48l.28.57c.35.71.94,1.26,1.66,1.55.11.06.23.1.29.11.27.09.54.13.81.15.53.02,1.06-.08,1.55-.32l1.48-.72s0,0,0,0l22.22-10.76h0s1.5-.72,1.5-.72c0,0,0,0,0,0,1.59-.78,2.25-2.72,1.49-4.31l-12.2-25.2c-.47-.97-1.39-1.65-2.52-1.81-.14-.01-.29-.02-.48-.02-.44.02-.89.13-1.32.32l-25.2,12.21c-.78.37-1.36,1.03-1.65,1.85-.28.82-.23,1.7.14,2.47l11.93,24.65Zm5.9-1.65c-.15-.58-.26-1.16-.34-1.76-.89-5.98,1.28-11.18,5.53-13.24,1.05-.51,2.19-.81,3.39-.88.29-.02.59-.02.93,0,.06,0,.11,0,.17,0,4.1.19,8.3,2.85,11.15,7.01l-16.13,7.82-4.4,2.13c-.11-.36-.21-.72-.31-1.09Zm-16.4-24.92c.14-.4.42-.72.8-.9l25.18-12.2c.22-.1.46-.16.65-.17.03,0,.06,0,.09,0,.07,0,.13,0,.17.01.54.08.99.4,1.22.89l12.2,25.2c.38.79.06,1.72-.72,2.11l-.84.41c-3.17-4.73-7.98-7.73-12.65-7.95-.43-.02-.84-.02-1.21,0-1.42.08-2.77.43-4.01,1.04-4.92,2.38-7.45,8.26-6.45,14.96.09.64.21,1.3.37,1.93.12.48.28.93.43,1.4l-.85.41c-.36.18-.76.21-1.17.09-.04-.02-.07-.04-.11-.05-.36-.14-.65-.41-.82-.76l-12.21-25.21c-.18-.38-.21-.81-.07-1.21Z"/>
            <path class="cls-8" d="m114.4,68.13c.65.23,1.32.35,1.98.39,1.16.05,2.31-.18,3.38-.7,1.69-.82,2.96-2.24,3.57-4.02.62-1.77.5-3.68-.31-5.37-.82-1.69-2.24-2.96-4.02-3.57-1.77-.62-3.68-.5-5.37.31-1.69.82-2.96,2.24-3.57,4.02-.62,1.77-.5,3.68.31,5.37.82,1.69,2.24,2.96,4.02,3.57Zm-2.76-8.39c.47-1.35,1.44-2.44,2.73-3.07.82-.4,1.7-.58,2.58-.53.51.02,1.02.12,1.52.29,1.35.47,2.44,1.44,3.07,2.73.63,1.29.71,2.75.24,4.1-.47,1.35-1.44,2.44-2.73,3.07-1.29.62-2.74.71-4.1.24-1.35-.47-2.44-1.44-3.07-2.73-.63-1.29-.71-2.75-.24-4.1Z"/>
            <path class="cls-8" d="m89.27,75.53c-.2-.41-.7-.58-1.11-.39l-28.64,13.87c-.41.2-.58.7-.39,1.11.14.28.41.45.71.47.13,0,.27-.02.4-.08l28.64-13.87c.41-.2.58-.7.39-1.11Z"/>
            <path class="cls-8" d="m92.34,81.87c-.2-.41-.69-.58-1.11-.39l-28.64,13.87c-.41.2-.58.7-.39,1.11.14.28.41.45.71.47.13,0,.27-.02.4-.08l28.64-13.87c.41-.2.58-.7.39-1.11Z"/>
            <path class="cls-8" d="m95.42,88.22c-.2-.41-.69-.58-1.11-.39l-28.64,13.87c-.41.2-.58.7-.39,1.11.14.28.41.45.71.47.13,0,.27-.02.4-.08l28.64-13.87c.41-.2.58-.7.39-1.11Z"/>
            <path class="cls-8" d="m88.62,99.35c-.2-.41-.69-.58-1.11-.39l-18.98,9.19c-.41.2-.58.7-.39,1.11.14.28.41.45.71.47.13,0,.27-.02.4-.08l18.98-9.19c.41-.2.58-.7.39-1.11Z"/>
            <path class="cls-8" d="m106.31,110.72c-.2-.41-.69-.58-1.11-.39l-28.64,13.87c-.41.2-.58.7-.39,1.11.14.28.41.45.71.47.13,0,.27-.02.4-.08l28.64-13.87c.41-.2.58-.7.39-1.11Z"/>
            <path class="cls-8" d="m109.38,117.07c-.2-.41-.69-.58-1.11-.39l-28.64,13.87c-.41.2-.58.7-.39,1.11.14.28.41.45.71.47.13,0,.27-.02.4-.08l28.64-13.87c.41-.2.58-.7.39-1.11Z"/>
            <path class="cls-8" d="m112.46,123.41c-.2-.41-.69-.58-1.11-.39l-28.64,13.87c-.41.2-.58.7-.39,1.11.14.28.41.45.71.47.13,0,.27-.02.4-.08l28.64-13.87c.41-.2.58-.7.39-1.11Z"/>
            <path class="cls-8" d="m105.66,134.54c-.2-.41-.69-.58-1.11-.39l-18.98,9.19c-.41.2-.58.7-.39,1.11.14.28.41.45.71.47.13,0,.27-.02.4-.08l18.98-9.19c.41-.2.58-.7.39-1.11Z"/>
            <path class="cls-8" d="m123.36,145.91c-.2-.41-.69-.58-1.11-.39l-28.64,13.87c-.41.2-.58.7-.39,1.11.14.28.41.45.71.47.13,0,.27-.02.4-.08l28.64-13.87c.41-.2.58-.7.39-1.11Z"/>
            <path class="cls-8" d="m126.43,152.26c-.2-.41-.69-.58-1.11-.39l-28.64,13.87c-.41.2-.58.7-.39,1.11.14.28.41.45.71.47.13,0,.27-.02.4-.08l28.64-13.87c.41-.2.58-.7.39-1.11Z"/>
            <path class="cls-8" d="m128.4,158.22l-28.64,13.87c-.41.2-.58.7-.39,1.11.14.28.41.45.71.47.13,0,.27-.02.4-.08l28.64-13.87c.41-.2.58-.7.39-1.11-.2-.41-.69-.58-1.11-.39Z"/>
            <path class="cls-8" d="m121.6,169.35l-18.98,9.19c-.41.2-.58.7-.39,1.11.14.28.41.45.71.47.13,0,.27-.02.4-.08l18.98-9.19c.41-.2.58-.7.39-1.11-.2-.41-.69-.58-1.11-.39Z"/>
            <path class="cls-8" d="m126.97,102.43c.14.28.41.45.71.47.13,0,.27-.02.4-.08l21.26-10.29c.41-.2.58-.7.39-1.11-.2-.41-.7-.58-1.11-.39l-21.26,10.29c-.41.2-.58.7-.39,1.11Z"/>
            <path class="cls-8" d="m125.14,103.32c-.79-1.64-2.77-2.32-4.41-1.53-1.64.79-2.32,2.77-1.53,4.4h0c.38.79,1.05,1.39,1.88,1.68.3.11.62.17.93.18.54.03,1.09-.08,1.59-.33,1.64-.79,2.32-2.77,1.53-4.41Zm-2.25,2.91c-.39.19-.84.22-1.25.07-.41-.14-.75-.44-.94-.83h0c-.19-.39-.22-.84-.07-1.25.14-.41.44-.75.83-.94.25-.12.52-.17.79-.16.58.03,1.13.36,1.4.92.39.81.05,1.8-.76,2.19Z"/>
            <path class="cls-8" d="m131.94,112.69c.14.28.41.45.71.47.13,0,.27-.02.4-.08l21.26-10.29c.41-.2.58-.7.39-1.11-.2-.41-.69-.58-1.11-.39l-21.26,10.29c-.41.2-.58.7-.39,1.11Z"/>
            <path class="cls-8" d="m124.18,116.45c.54,1.12,1.65,1.8,2.82,1.86.53.02,1.08-.08,1.59-.33,1.64-.79,2.32-2.77,1.53-4.4-.38-.79-1.05-1.39-1.89-1.68-.83-.29-1.73-.24-2.52.15-.79.38-1.39,1.05-1.68,1.89-.29.83-.24,1.73.15,2.52h0Zm1.42-1.97c.14-.41.44-.75.84-.94.39-.19.84-.22,1.25-.07.41.14.75.44.94.83.39.81.05,1.8-.76,2.19-.81.4-1.8.05-2.19-.76-.19-.39-.22-.84-.07-1.25Z"/>
            <path class="cls-8" d="m136.91,122.95c.14.28.41.45.71.47.13,0,.27-.02.4-.08l21.26-10.29c.41-.2.58-.7.39-1.11-.2-.41-.69-.58-1.11-.39l-21.26,10.29c-.41.2-.58.7-.39,1.11Z"/>
            <path class="cls-8" d="m131.96,128.57c.53.02,1.08-.08,1.59-.33,1.64-.79,2.32-2.77,1.53-4.41-.79-1.63-2.76-2.32-4.4-1.53-.79.38-1.39,1.05-1.68,1.89-.29.83-.24,1.73.15,2.52.54,1.12,1.65,1.8,2.82,1.86Zm-1.4-3.83c.14-.41.44-.75.83-.94.25-.12.52-.18.79-.16.58.03,1.13.36,1.4.92.39.81.05,1.8-.76,2.19-.81.39-1.8.05-2.19-.76-.19-.4-.22-.84-.07-1.25Z"/>
            <path class="cls-8" d="m141.88,133.21c.14.28.41.45.71.47.13,0,.27-.02.4-.08l21.26-10.29c.41-.2.58-.7.39-1.11-.2-.41-.69-.58-1.11-.39l-21.26,10.29c-.41.2-.58.7-.39,1.11Z"/>
            <path class="cls-8" d="m134.11,136.97c.54,1.12,1.65,1.8,2.82,1.86.53.03,1.08-.08,1.59-.33,1.64-.79,2.32-2.77,1.53-4.4-.79-1.64-2.76-2.32-4.41-1.53-1.64.79-2.32,2.77-1.53,4.4h0Zm2.25-2.91c.81-.39,1.8-.05,2.19.76.19.39.22.84.07,1.25-.14.41-.44.75-.83.94-.39.19-.84.22-1.25.07-.41-.14-.75-.44-.94-.83-.39-.81-.05-1.8.76-2.19Z"/>
            <path class="cls-8" d="m168.49,132.07l-21.26,10.29c-.41.2-.58.7-.39,1.11.14.28.41.45.71.47.13,0,.27-.02.4-.08l21.26-10.29c.41-.2.58-.7.39-1.11-.2-.41-.69-.58-1.11-.39Z"/>
            <path class="cls-8" d="m140.61,142.83c-.79.38-1.39,1.05-1.68,1.89-.29.83-.24,1.73.15,2.52.38.79,1.05,1.39,1.89,1.68.3.11.62.17.93.18.54.03,1.09-.08,1.59-.33,1.64-.79,2.32-2.77,1.53-4.41-.79-1.64-2.77-2.32-4.4-1.53Zm2.15,4.44c-.4.19-.84.22-1.25.07-.41-.14-.75-.44-.94-.83h0c-.19-.39-.22-.84-.07-1.25.14-.41.44-.75.84-.94.25-.12.52-.18.79-.16.16,0,.31.04.46.09.41.14.75.44.94.83.39.81.05,1.8-.76,2.19Z"/>
            <path class="cls-8" d="m91.43,61.7c-.2-.41-.69-.58-1.11-.39-.41.2-.58.7-.39,1.11l49.3,101.79c.14.28.41.45.71.47.13,0,.27-.02.4-.08.41-.2.58-.7.39-1.11l-49.3-101.79Z"/>
          </g>
        </g>
        <g>
          <g>
            <path class="cls-11" d="m176.2,139l9.77,20.17-61.73,29.9c-13.96,6.76-24.41,11.82-24.41,11.82-.83.4-1.76.33-2.5-.1-.45-.25-.82-.64-1.06-1.13l-22.02-45.46,60.86-29.47c1.3-.63,2.8-.72,4.15-.25l33.84,11.76c1.36.47,2.48,1.47,3.11,2.76Z"/>
            <g class="cls-5">
              <path class="cls-14" d="m181.99,150.95l3.97,8.2c-13.78,6.7-41.45,20.11-61.72,29.92-13.96,6.76-24.41,11.82-24.41,11.82-.83.4-1.76.33-2.5-.1-.44-.26-.82-.65-1.06-1.14-2.97-6.14-.89-1.85-22.02-45.44h0c5.37-2.6,11.83-.32,14.37,5.08,2.06,4.4,4.24,9,6.53,13.82,3.51,7.36,5.07,11.91,15.83,7.05,44.93-20.28,57.5-30.57,71.01-29.21Z"/>
            </g>
            <g>
              <path class="cls-7" d="m100.3,159.56c1.01-3.48,5.52-5.8,8.98-5.55,3.42.25,4.93,3.76,1.42,6.92-4.8,4.33-11.71,3.15-10.4-1.37Z"/>
              <path class="cls-7" d="m139.02,140.81c-3.36-1.37-7.98.73-9.92,3.6-1.93,2.84-.1,6.2,4.55,5.41,6.37-1.08,9.73-7.23,5.37-9.01Z"/>
            </g>
            <path class="cls-2" d="m121.64,141.81c1.44-.32,2.45.26,3.01,1.33,2.99,5.78-4.78,11.98-10.22,9.69-1.95-.82-4.96-3.61-3.03-5.84,1.02-1.18,5.56-4.15,10.24-5.18Z"/>
          </g>
          <g>
            <path class="cls-8" d="m186.72,158.81l-9.77-20.17c-.72-1.48-2.02-2.64-3.58-3.18l-33.84-11.75c-1.55-.54-3.3-.44-4.78.28l-60.85,29.47c-.41.2-.58.7-.39,1.11l22.01,45.46c.31.63.79,1.15,1.39,1.49.5.29,1.05.44,1.6.47.57.03,1.15-.09,1.68-.34l86.14-41.72c.41-.2.58-.7.39-1.11Zm-87.25,41.33c-.55.26-1.19.24-1.73-.07-.32-.18-.57-.45-.73-.77l-21.65-44.71,60.11-29.11c1.09-.53,2.37-.61,3.52-.21l33.84,11.75c1.15.4,2.11,1.25,2.64,2.34l9.41,19.43-85.39,41.36Z"/>
            <path class="cls-8" d="m101.26,147.34c-2.36,1.9-1.15,5.71,1.69,6.24,3.54.66,6.14-3.55,3.42-6.04-1.54-1.42-3.73-1.31-5.11-.2Z"/>
            <path class="cls-8" d="m128.83,133.99c-1.72.39-3.17,2.04-3.01,4.13.27,3.68,5.18,4.25,6.86,1.06,1.35-2.56-.9-5.87-3.85-5.2Z"/>
          </g>
        </g>
      </g>
      <g>
        <g>
          <path class="cls-13" d="m161.23,144.96l24.11,25.51c.68.72.66,1.85-.07,2.54l-25.51,24.11c-.72.68-1.86.65-2.54-.07l-24.11-25.51c-.2-.21-.34-.46-.42-.72-.07-.26-.09-.54-.05-.8.05-.38.24-.74.54-1.02l25.51-24.11c.72-.68,1.85-.65,2.54.08Z"/>
          <path class="cls-4" d="m156.64,189.87c1.79-7.38,8.59-16.77,19.11-22.68.33-.18.74-.07.93.26.64,1.15-1.77,1.31-10.61,10.98-8.18,9.36-7.74,12.85-9.1,12.16-.27-.14-.4-.44-.33-.72Z"/>
          <g class="cls-10">
            <path class="cls-8" d="m184.36,169.43l.98,1.03c.68.72.66,1.85-.07,2.54l-25.51,24.11c-.72.68-1.86.65-2.54-.07l-24.11-25.51c-.2-.21-.34-.46-.42-.72,1.21-.22,2.43-.29,3.63-.19,10.06.76,12.14,14.97,22.17,15.25,11.02.29,14.52-15.6,25.46-16.42.14,0,.28-.02.42-.02Z"/>
          </g>
        </g>
        <g>
          <path class="cls-8" d="m185.94,169.9l-24.11-25.51c-.48-.51-1.13-.79-1.83-.83-.7-.02-1.37.23-1.88.72l-25.51,24.11c-.44.41-.71.93-.79,1.48-.07.38-.04.79.08,1.21.13.39.33.73.61,1.02l24.11,25.51c.47.5,1.1.79,1.78.82.02,0,.03,0,.05,0,.7.02,1.37-.24,1.88-.72l25.51-24.11c.51-.48.8-1.13.82-1.83.02-.7-.24-1.36-.72-1.87Zm-1.24,2.5l-25.51,24.11c-.19.18-.44.27-.69.27-.26,0-.5-.12-.68-.3l-24.11-25.51c-.11-.11-.18-.25-.23-.38-.04-.15-.05-.3-.03-.46.03-.2.13-.38.29-.54l25.51-24.11c.19-.18.43-.27.69-.26,0,0,0,0,.02,0,.25.01.48.12.66.31l24.11,25.51c.18.19.28.44.27.69,0,.26-.11.49-.3.67Z"/>
          <path class="cls-8" d="m148.79,173.27c.96-.95.64-2.56-.54-3.2-.33.17-.65.6-.94.81.16.27.45.44.54.75.08.26-.04.52-.25.69-.33.17-.69-.02-.97-.26-.63-.56-1.77-1.87-1.79-1.94-.01-.03-.04-.09-.04-.13,0-.14.14-.3.23-.43.51-.52.93.14,1.32.45.4-.26.75-.52,1.01-.9-.75-1.65-3.09-1.57-3.94,0-.1.15-.17.31-.2.48-.02.31.04.62.18.93.07.19.19.38.35.52,1.35,1.47,2.01,2.16,2.66,2.77.79.68,1.82.14,2.37-.55Z"/>
          <path class="cls-8" d="m150.64,171.36c.08-.24.78-.57.88-.91-.45-.65-1.13-1.17-1.66-1.84.2-.31.46-.55.77-.75h.01c.62.51,1.2,1.25,1.86,1.76h0c.2-.24.64-.59.9-.94l-4.63-4.54c-.29.23-.69.65-.85.95.64.62,1.1,1.11,1.63,1.78h0c-.2.24-.45.54-.72.7h0c-.65-.46-1.15-1.09-1.81-1.63-.33.17-.55.59-.87.79h-.01s0,.02,0,.02h0c1.27,1.4,3.75,3.9,4.53,4.61Z"/>
          <path class="cls-8" d="m156.64,165.66c-.18-.34-.49-.66-.78-.93h-.01c-.59.59-1.2,1.06-1.79,1.62h-.01c-.22-.2-.59-.53-.79-.84.02-.16.54-.51.74-.84-.32-.32-.56-.66-.9-.92h0c-.28.25-.56.52-.85.76h-.01c-.29-.19-.5-.53-.75-.78h0s.02-.03.02-.03c.54-.61,1.23-1.08,1.69-1.75h0c-.3-.32-.56-.69-.9-.96-.04-.04-1.76,1.63-2.75,2.67,1.37,1.62,2.87,3.05,4.34,4.61.94-.75,1.85-1.74,2.77-2.59Z"/>
          <path class="cls-8" d="m153.7,161.65c1.35,1.47,2.01,2.16,2.66,2.77.79.68,1.82.14,2.37-.55.96-.95.64-2.56-.54-3.2-.33.17-.65.6-.94.81.16.27.45.44.54.75.08.26-.04.52-.26.69-.33.17-.69-.02-.97-.26-.63-.56-1.77-1.87-1.78-1.94-.01-.03-.04-.09-.04-.13,0-.14.14-.3.23-.43.51-.52.93.14,1.32.45.4-.26.75-.52,1.01-.9-.75-1.65-3.09-1.57-3.94,0-.1.16-.17.31-.2.48-.02.31.04.62.18.93.07.19.19.38.35.52Z"/>
          <path class="cls-8" d="m161.69,160.86c-.48-.5-1.19-1.18-1.66-1.72.75.23,1.8.8,2.59.88.3-.27.69-.56.92-.9l-3.41-1.3c-.39-1.06-.5-2.38-.99-3.34-.33.23-.63.59-.93.84.13.89.46,1.62.55,2.47,0,.04.01.08,0,.07-.5-.49-1.04-1.11-1.54-1.6-.29.27-.62.55-.91.84,1.49,1.56,2.87,3.21,4.4,4.68.29-.17.8-.63.98-.93Z"/>
          <path class="cls-8" d="m152.59,179.45h0s0-.01,0-.01l.03-.03c.41-.43.46-.93.32-1.41-.32-1.46-2.11-1.98-3.23-1.03-.72.54-1.24,1.22-1.68,1.77.49.39,4.55,4.61,4.49,4.66.07-.1.92-.77,1.1-1.18-.34-.32-1.26-1.16-1.58-1.61h.03c.83.12,1.97.57,2.53.81h0c.43-.36.79-.78,1.1-1.08h0c-.97-.48-2.11-.58-3.12-.89Zm-1.18-.55c-.18.24-.45.47-.68.64h0c-.22-.16-.58-.58-.82-.79.2-.43.49-.77.86-.77.43-.04.91.52.64.92Z"/>
          <path class="cls-8" d="m157.97,176.52c-.59.6-1.2,1.07-1.79,1.63h-.01c-.22-.2-.59-.53-.79-.84.02-.16.54-.51.74-.84-.32-.32-.56-.66-.9-.92h0c-.28.25-.56.52-.85.76h-.01c-.29-.19-.5-.53-.75-.78h0s.02-.03.02-.03c.54-.61,1.23-1.08,1.69-1.75h0c-.3-.32-.56-.69-.9-.96-.04-.04-1.76,1.63-2.75,2.67,1.37,1.62,2.87,3.05,4.34,4.61.94-.75,1.85-1.74,2.77-2.59-.18-.34-.49-.66-.78-.93h-.01Z"/>
          <path class="cls-8" d="m159.74,172.44c-.62-.14-1.3,0-1.83.39-.21.15-.43.27-.71.12-.06-.05-.13-.1-.17-.18-.4-.57.64-1.22,1-.63.4-.21.75-.59,1.02-.95h0c-.51-.8-1.2-.98-1.84-.79-.61.21-1.3.74-1.56,1.34-.52,1.17.22,2.78,1.79,2.79.23-.01.46-.07.67-.2.45-.28,1.04-.72,1.5-.34.7.52-.3,1.44-.87.9-.3.29-.75.63-1.02.98l.02.02.02.02c.75.91,2.08.6,2.89-.12.57-.5.87-1.25.57-2-.22-.67-.78-1.24-1.47-1.34Z"/>
          <path class="cls-8" d="m161.18,166.7c-.34.08-.77.65-1,.91.96,1.07,2.05,2.19,3.02,3.31.3.49-.25,1.13-.8.82-1.14-1.03-2.21-2.12-3.18-3.25h0c-.34.17-.7.6-.98.86h0s.01,0,.01,0c1.14,1.16,2.24,2.42,3.36,3.6.82.79,2.06.25,2.75-.54.59-.67.54-1.49.05-2.15-.97-1.28-2.07-2.46-3.21-3.56Z"/>
          <path class="cls-8" d="m164.27,163.42c-.28.27-.82.87-.97.97.04.36.67,1.39.59,1.42-.01.01-.03.02-.06.02-.34-.08-1.06-.57-1.4-.6h0c-.28.31-.71.6-.88.9,3.43,3.68,4.2,4.5,4.35,4.59.02,0,.03,0,.04,0,.29-.27.68-.59.92-.91-.84-.78-1.71-1.62-2.43-2.53,0-.02,1.16.66,1.3.54.07-.07-.45-1.09-.5-1.38.8.67,1.81,1.79,2.57,2.53.22-.2.59-.61.89-.83l-2.01-2.16c-.77-.91-1.62-1.66-2.4-2.56Z"/>
          <path class="cls-8" d="m171.16,164.06c-.59.6-1.2,1.07-1.79,1.63h-.01c-.22-.2-.59-.53-.79-.84.02-.16.54-.51.74-.84-.32-.32-.56-.66-.9-.92h0c-.28.25-.56.52-.85.76h-.01c-.29-.19-.5-.53-.75-.78h0s.02-.03.02-.03c.54-.61,1.23-1.08,1.69-1.75h0c-.3-.32-.56-.69-.9-.96-.04-.04-1.76,1.63-2.75,2.67,1.37,1.62,2.87,3.05,4.34,4.61.94-.75,1.85-1.74,2.77-2.59-.18-.34-.49-.66-.78-.93h-.01Z"/>
        </g>
      </g>
      <g>
        <g>
          <path class="cls-4" d="m118.55,195.21c-1.59,4.72-5.99,3.13-10.43,1.05-13.77-6.47-26.69-12.84-39.41-19.52-.89-.46-1.77-.93-2.66-1.4-.68-.35-1.35-.7-2.02-1.07-7.15-3.81-14.26-7.74-21.45-11.87-3.23-1.85-6.48-3.76-9.78-5.7-2.62-1.55-5.25-3.13-7.9-4.75-4.67-2.84-3.1-6.2-2.79-6.75.29-.56,2.18-3.75,7.16-1.48,2.83,1.29,5.61,2.58,8.37,3.87,11.13,5.22,21.68,10.48,32.08,15.95.62.33,1.24.65,1.86.98.94.49,1.88.99,2.82,1.49,12.63,6.75,25.1,13.82,38.13,21.54.04.03.11.06.15.09,1.12.67,2.24,1.33,3.26,2.13,1.67,1.29,3.37,3.18,2.61,5.44Z"/>
          <g>
            <path class="cls-6" d="m115.79,192.82l6.65,3.52c.05.03.1.07.15.11l2.5,2.67c.36.39.03,1.02-.49.93l-3.62-.56c-.06,0-.12-.03-.18-.06l-6.65-3.52c-.27-.14-.38-.48-.23-.76l1.12-2.11c.14-.27.48-.38.76-.23Z"/>
            <path class="cls-6" d="m37.64,147.58l-4.82,9.1c-2.62-1.55-5.25-3.13-7.91-4.75-4.67-2.83-3.1-6.19-2.79-6.74.27-.56,2.1-3.61,6.83-1.62.1.04.21.09.32.14.87.4,1.73.79,2.59,1.19,1.94.89,3.87,1.79,5.78,2.68Z"/>
          </g>
          <g>
            <path class="cls-7" d="m68.5,157.23s0,.01,0,.01c-.29.55-.88.88-1.5.85-.24-.01-.47-.07-.68-.18-.81-.43-19.95-10.48-27.53-13.54-1.73-.71-3.16-1.09-4.23-1.14-1.55-.07-2.15.52-2.6,1.5-.03.06-.06.12-.09.17-.86-.4-1.72-.79-2.59-1.19-.11-.05-.22-.1-.32-.14.01-.07.03-.13.06-.19.06-.13.12-.25.18-.37,1.11-2.1,3.05-3.15,5.59-3.03,2.04.09,4.03.9,5.22,1.38,7.84,3.18,27.63,13.58,27.82,13.68.38.2.67.54.79.95.13.42.09.86-.11,1.24Z"/>
            <path class="cls-7" d="m74.4,166.01l-3.21,6.04-2.47,4.68c-1.56-.82-3.13-1.64-4.68-2.47l2.4-4.54,3.28-6.19c.62.33,1.24.65,1.86.99.94.49,1.88.99,2.82,1.49Z"/>
          </g>
          <path class="cls-13" d="m118.55,195.2c-1.59,4.73-5.99,3.13-10.43,1.05-13.77-6.47-26.68-12.84-39.4-19.52l2.47-4.68,3.21-6.04c12.62,6.75,25.1,13.81,38.13,21.54.04.03.11.05.15.08,1.12.67,2.24,1.33,3.26,2.13,1.67,1.29,3.37,3.18,2.61,5.44Z"/>
          <g class="cls-10">
            <path class="cls-6" d="m66.44,169.72l-2.4,4.54c-7.15-3.81-14.26-7.74-21.45-11.87,6.23-2.08,14.26,2.65,19.52,5.22,1.5.72,2.94,1.43,4.33,2.11Z"/>
          </g>
          <g class="cls-10">
            <path class="cls-8" d="m118.55,195.21c-1.59,4.72-5.99,3.13-10.43,1.05-13.77-6.47-26.69-12.84-39.41-19.52-1.56-.82-3.12-1.63-4.67-2.47l2.4-4.54c1.65.81,3.24,1.58,4.75,2.33,34.03,16.78,32.61,17.52,37.45,17.36,1.46-.05,2.72-.82,3.89-1.86.04.03.11.06.15.09,1.12.67,2.24,1.33,3.26,2.13,1.67,1.29,3.37,3.18,2.61,5.44Z"/>
          </g>
          <path class="cls-3" d="m39.75,152.47c7.13,2.34,18.41,7.65,25.08,12.45.24.17.29.5.12.74-.36.5.24.66-13.2-5.89-10.55-5.25-12.45-6.42-12.41-6.39-.24-.14-.33-.44-.19-.68.12-.21.37-.3.59-.23Z"/>
        </g>
        <path class="cls-8" d="m125.69,198.57l-2.5-2.68c-.1-.11-.22-.2-.36-.27l-3.28-1.74c-.08-1.35-.82-3-3.1-4.76-1.02-.81-2.14-1.47-3.22-2.11l-.08-.05s-.1-.06-.2-.12c-13.4-7.94-25.89-14.99-38.16-21.56-1.56-.83-3.12-1.65-4.68-2.47-10.73-5.64-21.23-10.86-32.12-15.97-.82-.39-1.64-.77-2.47-1.15-.83-.39-1.66-.78-2.49-1.16.26-.33.65-.5,1.48-.46.98.04,2.31.41,3.96,1.07,7.7,3.12,27.26,13.41,27.46,13.51.32.17.66.26,1.02.28.94.04,1.83-.46,2.28-1.29v-.02c.19-.35.29-.75.29-1.14,0-.24-.04-.48-.11-.72-.2-.63-.62-1.14-1.2-1.44-.19-.1-20-10.52-27.9-13.72-1.24-.5-3.31-1.34-5.49-1.44-2.84-.14-5.02,1.03-6.3,3.37-.45-.15-.88-.26-1.28-.33-.23-.04-.45-.07-.66-.09-.92-.09-1.7.03-2.35.27-.13.05-.26.1-.38.15-.36.15-.68.34-.95.55-.01,0-.01,0-.01,0-.2.16-.39.32-.55.47-.16.16-.31.32-.43.47-.12.14-.22.28-.3.4-.12.18-.19.32-.22.38-.06.1-.2.39-.34.81-.09.29-.17.63-.22,1.02,0,.13-.03.26-.03.39-.02.47.02.99.18,1.54.14.52.38,1.08.77,1.64.24.35.54.71.9,1.06.12.12.25.24.39.36.21.17.43.35.66.52.24.18.5.35.78.52.67.41,1.33.81,1.99,1.2.66.4,1.32.8,1.98,1.19,1.32.8,2.63,1.58,3.94,2.36,3.3,1.94,6.56,3.85,9.79,5.71,7.06,4.05,14.09,7.94,21.46,11.87h.01c1.55.84,3.12,1.66,4.68,2.48,12.15,6.39,25.05,12.78,39.44,19.54,2.13,1,4.47,2,6.54,2.1.82.04,1.6-.07,2.31-.37.19-.08.37-.17.54-.29l3.26,1.73c.14.07.28.12.43.14l3.61.57c.06,0,.11,0,.16,0,.53.03,1.03-.25,1.28-.74.28-.53.2-1.15-.21-1.59Zm-90.95-57.75c1.9.08,3.8.86,4.95,1.32,7.82,3.17,27.55,13.54,27.75,13.64.38.21.53.69.33,1.07-.14.26-.41.42-.69.42h-.05c-.11,0-.23-.03-.33-.09-.2-.1-19.86-10.44-27.61-13.57-1.95-.79-3.4-1.15-4.5-1.2-1.7-.07-2.55.56-3.09,1.42-.48-.22-.96-.44-1.44-.66,1.13-1.92,2.9-2.44,4.68-2.35Zm-9.4,10.42c-.44-.27-.82-.54-1.14-.81-.43-.37-.77-.73-1.02-1.09-.11-.14-.2-.28-.27-.42-.08-.15-.14-.28-.2-.42-.26-.63-.29-1.21-.24-1.69,0-.13.03-.26.06-.38,0-.04.02-.07.03-.11.01-.06.03-.11.05-.16.08-.27.18-.48.24-.59.08-.14.25-.43.54-.75.1-.1.21-.21.34-.31.06-.05.13-.1.2-.15.07-.06.14-.1.22-.14.32-.18.7-.34,1.15-.42.22-.04.45-.06.7-.06.08,0,.17.01.26.01.21.01.43.04.66.08.25.04.52.1.8.18.1.03.2.06.31.1.05.02.1.03.14.05.24.09.5.2.76.32,1.05.48,2.09.95,3.13,1.44.23.1.45.2.67.3,1.26.58,2.52,1.17,3.77,1.75l-4.01,7.56c-2.37-1.4-4.75-2.83-7.15-4.29Zm17.66,10.44c-3-1.72-6.03-3.5-9.08-5.3l4.08-7.7c10.36,4.87,20.39,9.85,30.6,15.21l-4.9,9.25c-7.11-3.8-13.88-7.54-20.7-11.46Zm22.16,12.24l4.91-9.26c1.07.56,2.14,1.13,3.21,1.7l-4.91,9.26c-1.07-.56-2.14-1.12-3.21-1.7Zm43.31,21.59c-14.07-6.61-26.72-12.87-38.63-19.12l4.9-9.25c12.01,6.44,24.24,13.36,37.33,21.1.04.03.09.06.19.12l.12.07c1.08.64,2.11,1.25,3.05,2,1.06.81,1.78,1.61,2.15,2.4.33.68.4,1.34.21,1.99,0,.04-.02.09-.03.13-.21.63-.47,1.13-.8,1.52-.28.34-.61.59-.99.75-.23.1-.49.17-.76.2-1.86.28-4.43-.83-6.74-1.91Zm12.72,3.2l-2.75-1.46c.35-.46.62-1.01.84-1.64l2.7,1.42,1.97,2.1-2.76-.42Z"/>
      </g>
      <g>
        <path class="cls-8" d="m35.13,41.24c1.17,1.5,2.01,2.68,2.94,4.25h-.01c-.5.44-1.1,1.02-1.73,1.27h-.01c-1.24-1.17-2.12-2.64-3.37-3.98-.74.26-1.34,1.08-2.08,1.41l-.03.02h-.01s.01.03.01.03c2.29,3.33,6.83,9.34,8.25,11.06.24-.49,1.81-.98,2.12-1.66-.76-1.5-2.06-2.81-2.99-4.38.52-.59,1.14-1.03,1.84-1.37h.03c1.17,1.26,2.19,2.99,3.42,4.28h.01c.5-.44,1.54-1.06,2.19-1.72l-8.5-10.96c-.68.41-1.66,1.19-2.08,1.75Z"/>
        <path class="cls-8" d="m42.36,36.3l-.4.25c-.99.65-1.46.88-1.87,1.11-.15.1-.6.31-.71.4l.02.03c1.97,4,5.14,7.73,7.37,11.97.38-.43,2.82-1.47,2.95-2.07-2.62-3.66-4.9-7.79-7.32-11.63l-.04-.07Z"/>
        <path class="cls-8" d="m52.9,39.29h.02s.07-.05.07-.05c1.07-.68,1.45-1.68,1.42-2.75.11-3.2-3.32-5.23-6.13-3.85-1.79.74-3.23,1.85-4.43,2.76.82,1.07,6.95,11.97,6.81,12.05.2-.18,2.31-1.1,2.91-1.86-.54-.85-1.99-3.06-2.42-4.18l.06.03c1.66.67,3.78,2.21,4.81,3.02h.02c1.07-.51,2.03-1.17,2.84-1.62-1.75-1.52-4.06-2.35-5.97-3.53v-.02Zm-2.15-1.76c-.51.39-1.18.72-1.75.97h-.02c-.37-.46-.89-1.51-1.26-2.07.63-.78,1.43-1.33,2.19-1.14.92.15,1.62,1.57.84,2.25Z"/>
        <path class="cls-8" d="m58.89,42.84h.02s-.01,0-.02,0c0,0,0,0,0,0Z"/>
        <path class="cls-8" d="m57.65,28.1l-.43.2c-1.06.53-1.55.7-1.99.89-.16.08-.63.24-.75.32l.02.04c1.49,4.2,4.21,8.27,5.94,12.74.43-.38,2.97-1.14,3.17-1.72-2.18-3.94-3.97-8.31-5.93-12.39l-.04-.07Z"/>
        <path class="cls-8" d="m71.39,35.17c-.28-.67-.54-1.32-.83-2.03-.44-1.04-.88-2.1-1.33-3.11l-2.47-5.88c-.38.07-.79.2-1.25.4-.46.19-.88.41-1.27.66.23.61.43,1.13.65,1.64.37.88.76,1.66,1.17,2.62.17.42.34.97.29,1.06-.06.02-2.52-2.12-2.81-2.4-.87-.84-1.09-.9-1.81-1.64-.04-.11-1.28.32-1.59.45-.29.12-.58.26-.79.42.52,1.61,1.18,3.28,1.89,4.96.96,2.28,1.85,4.25,2.82,6.56l.54,1.28c.57-.24,1.21-.38,1.8-.63.28-.11.52-.24.77-.43-.19-.41-.42-.94-.65-1.51-.86-2.04-1.89-4.66-1.82-4.69.05-.02.26.21.47.45l.41.47c1.22,1.31,2.77,2.66,4.33,4.13.49-.21,1.23-.41,1.72-.61.42-.18.52-.3.56-.34l-.15-.37c-.21-.49-.42-.96-.63-1.45Z"/>
        <path class="cls-8" d="m78.7,27.38h-.02s-.04,0-.04,0c-.51.17-3.31.77-3.81,1.39-.01.02-.03.03-.03.03t-.01.03v.02c.39.83.38,1.17.75,1.94.28.01,1.08-.39,1.4-.44.17,0,.35.9.36,1.13.03.39-.11.65-.35.87-.31.25-.71.49-1.1.56-.18.02-.35.01-.49-.02-.6-.21-.94-.93-1.19-1.46-.79-1.82-1.51-4.17-1.56-5.49-.02-.22,0-.5.03-.58.2-.4.64-.47,1.07-.6.73-.25,1.48.67,1.8,1.12.78-.16,1.05-.3,1.78-.54.39-.15.55-.19.57-.28l-.02-.12c-.69-3.18-3.52-3.76-6.19-2.45-.64.32-1.22.71-1.58,1.31-.56.76-.52,1.66-.37,2.53.14.85.39,1.71.65,2.52.58,1.87.96,2.68,1.65,4.23.23.49.5.98.67,1.23.66.97,1.38,1.52,2.52,1.61,1.37.1,2.81-.71,3.93-1.49.83-.68,1.32-1.52,1.02-2.84-.22-1.43-.84-2.95-1.44-4.23Z"/>
        <path class="cls-8" d="m80.75,19.55c-.76,0-1.68.46-2.33.7l-.06.02c.78,3.53,1.93,6.78,2.83,10.15h.02c.74-.24,1.79-.53,2.43-.8-1.08-3.21-2.02-6.8-2.89-10.07Z"/>
        <path class="cls-8" d="m83.95,30.64c-.74.21-1.78.28-2.31.7v.02c.21.7.41,2.29.58,2.24l1.42-.43h.04c.29-.09.42-.11.73-.2l.13-.04c-.21-.74-.41-1.59-.59-2.3Z"/>
        <path class="cls-8" d="m29.6,30.18c.81.32,2.18,1.83,2.9,2.07l.19-.14.58-.41c.21-.15.41-.27.53-.42-2.36-3.96-4.54-7.95-6.87-11.91h-.03c-.38.22-.74.45-1.11.72-.39.28-.76.57-1.08.91v.02c1.18,2.01,3.46,5.08,4.6,7.06-.72-.46-2.83-2.51-3.13-2.51,0,.03,0,.04.03.1.45,1.14.89,2.21,1.3,3.37-1.79-1.52-3.59-4.71-5.12-6.49-.4.26-.86.54-1.29.85-.37.26-.7.55-.99.83v.02c2.73,3.68,5.98,6.98,9.11,10.29h.02c.26-.15.47-.27.65-.4.31-.22.49-.4.73-.64-.05-.79-1.14-2.64-1.03-3.3h.02Z"/>
        <path class="cls-8" d="m42.71,25.78c-.22-.79-.72-1.6-1.21-2.3l-.02-.03c-1.51.98-3,1.7-4.49,2.6h-.03c-.38-.52-1-1.39-1.28-2.12.13-.33,1.35-.82,1.94-1.43-.52-.82-.88-1.64-1.46-2.33v-.02c-.71.4-1.41.85-2.12,1.21h-.02c-.52-.52-.8-1.33-1.22-1.98v-.03s.06-.03.06-.03c1.41-1.04,3.07-1.7,4.31-2.89v-.02c-.49-.8-.87-1.68-1.46-2.4-.06-.1-4.4,2.62-6.95,4.35,2.13,4.01,4.62,7.66,7,11.59,2.3-1.14,4.65-2.79,6.96-4.17Z"/>
        <path class="cls-8" d="m47.55,23.21c1.62-.79,2.34-1.03,2.51-1.17.02,0,.02-.03.04-.04.04-.98-.6-2.46-.63-3.36.54-.26.47-.31,1.12-.51.65.54,1.58,1.88,2.23,2.51h.02c.85-.21,1.78-.59,2.43-1.08v-.02s-4.33-5.62-4.33-5.62c-.86-1.06-3.82-4.8-4.48-5.63-1.51.89-1.84.92-2.16,1.14,1.01,6.54,3.12,13.23,3.21,13.78t.04,0Zm2.12-7.26c-.45.21-.9.45-1.32.63-1.25-3.9-2.33-6.46,1.32-.63Z"/>
        <path class="cls-8" d="m59.12,17.76c-.42-.92-1.57-3.3-1.85-4.46l.06.04c1.56.88,3.45,2.69,4.38,3.62h.02c1.13-.37,2.18-.9,3.05-1.24h-.02c-1.53-1.73-3.72-2.85-5.46-4.28v-.02s.01,0,.01,0l.07-.03c1.15-.54,1.65-1.48,1.77-2.54.53-3.16-2.61-5.62-5.58-4.62-1.87.5-3.44,1.41-4.75,2.16.67,1.16,5.32,12.78,5.18,12.84.22-.15,2.44-.78,3.13-1.46Zm-3.62-7.62c-.31-.52-.68-1.63-.98-2.23.73-.69,1.6-1.14,2.33-.85.89.27,1.39,1.77.53,2.34-.55.32-1.27.56-1.86.73h-.02Z"/>
        <path class="cls-8" d="m73.07,13.11c-.03-.82-.31-1.73-.62-2.52v-.04c-1.71.6-3.33.94-4.99,1.46h-.03c-.24-.6-.64-1.6-.74-2.37.2-.29,1.51-.47,2.22-.93-.31-.92-.46-1.81-.86-2.61v-.02c-.79.22-1.57.49-2.35.67h-.02c-.38-.64-.46-1.49-.71-2.22v-.02s.07-.02.07-.02c1.61-.67,3.38-.92,4.88-1.78v-.02c-.28-.89-.43-1.84-.85-2.68-.03-.11-4.9,1.5-7.79,2.57,1.11,4.4,2.66,8.54,4.04,12.92,2.5-.56,5.18-1.61,7.76-2.39Z"/>
      </g>
      <g>
        <g>
          <path class="cls-14" d="m147.79,8.3c.72.89,2.22,2.01,3.46,5.61.11.32.23.65.39.95.22.42.72.46,1.01.07.65-.87.72-2.29,2.88-4.68,1.26-1.4,2.47-1.82,1.47-2.72-2.49-2.24-3.28-5.51-3.72-6.38-.19-.38-.67-.42-.94-.1-.29.34-.45.76-.62,1.17-1.33,3-3.08,4.35-3.8,5-.18.16-.38.79-.13,1.09Z"/>
          <path class="cls-14" d="m105.09,10.3c.83,1.02,2.56,2.31,3.99,6.46.13.37.26.75.45,1.09.26.48.83.53,1.16.08.75-1.01.83-2.64,3.31-5.39,1.45-1.62,2.84-2.1,1.69-3.13-2.87-2.58-3.78-6.35-4.28-7.35-.22-.43-.77-.48-1.08-.11-.33.39-.51.88-.72,1.35-1.53,3.47-3.55,5.01-4.37,5.76-.21.19-.43.91-.15,1.26Z"/>
          <path class="cls-14" d="m157.84,41.51c.17.21.35.43.54.62,2.73,2.73,3.31,5.82,3.9,6.93.26.48.83.53,1.16.08.23-.31.41-.67.55-1.03,2.24-5.65,6.17-5.94,4.45-7.49-2.87-2.58-3.78-6.35-4.28-7.35-.22-.43-.77-.48-1.08-.11-.33.39-.51.88-.72,1.35-1.53,3.47-3.55,5.01-4.37,5.76-.21.19-.43.91-.15,1.26Z"/>
        </g>
        <g>
          <path class="cls-14" d="m30.55,116.45c.72.89,2.22,2.01,3.46,5.61.11.32.23.65.39.95.22.42.72.46,1.01.07.65-.87.72-2.29,2.88-4.68,1.26-1.4,2.47-1.82,1.47-2.72-2.49-2.24-3.28-5.51-3.72-6.38-.19-.38-.67-.42-.94-.1-.29.34-.45.76-.62,1.17-1.33,3-3.08,4.35-3.8,5-.18.16-.38.79-.13,1.09Z"/>
          <path class="cls-14" d="m.13,101.14c.83,1.02,2.56,2.31,3.99,6.46.13.37.26.75.45,1.09.26.48.83.53,1.16.08.75-1.01.83-2.64,3.31-5.39,1.45-1.62,2.84-2.1,1.69-3.13-2.87-2.58-3.78-6.35-4.28-7.35-.22-.43-.77-.48-1.08-.11-.33.39-.51.88-.72,1.35-1.53,3.47-3.55,5.01-4.37,5.76-.21.19-.43.91-.15,1.26Z"/>
          <path class="cls-14" d="m7.31,63.41c.17.21.35.43.54.62,2.73,2.73,3.31,5.82,3.9,6.92.26.48.83.53,1.16.08.23-.31.41-.67.55-1.03,2.24-5.65,6.17-5.94,4.45-7.49-2.87-2.58-3.78-6.35-4.28-7.35-.22-.43-.77-.48-1.08-.11-.33.39-.51.88-.72,1.35-1.53,3.47-3.55,5.01-4.37,5.76-.21.19-.43.91-.15,1.26Z"/>
        </g>
      </g>
    </g>
  </g>
</svg>