<?xml version="1.0" encoding="UTF-8"?>
<svg id="_Слой_2" data-name="Слой 2" xmlns="http://www.w3.org/2000/svg" xmlns:xlink="http://www.w3.org/1999/xlink" viewBox="0 0 188.22 220.16">
  <defs>
    <style>
      .cls-1 {
        fill: #eaa471;
      }

      .cls-2, .cls-3, .cls-4, .cls-5 {
        fill: #fff;
      }

      .cls-3 {
        opacity: .4;
      }

      .cls-4 {
        opacity: .3;
      }

      .cls-6 {
        filter: url(#drop-shadow-1);
      }

      .cls-7 {
        fill: #ebbd70;
      }

      .cls-5 {
        opacity: .25;
      }

      .cls-8 {
        fill: #f0c6a8;
      }

      .cls-9 {
        fill: #91bfe2;
      }

      .cls-10 {
        fill: #b5b5b5;
      }

      .cls-11 {
        fill: #e38372;
      }
    </style>
    <filter id="drop-shadow-1" filterUnits="userSpaceOnUse">
      <feOffset dx="5" dy="5"/>
      <feGaussianBlur result="blur" stdDeviation="5"/>
      <feFlood flood-color="#000" flood-opacity=".15"/>
      <feComposite in2="blur" operator="in"/>
      <feComposite in="SourceGraphic"/>
    </filter>
  </defs>
  <g id="OBJECTS">
    <g class="cls-6">
      <path class="cls-2" d="m168.51,91.68c5.09-4.81,9.84-22.08,4.55-29.99,21.08-6.93,20.17-23.36-2.7-27.8-1.8-27.88-26.91-41.46-49.94-23.06-10.09-15.06-36.84-13.91-47.06.34-25.31-21.8-37.74,1.04-30.34,27.69C20.87,36.17,1.18,53.67.07,70.36c-1.33,19.87,16.75,35.04,31.51,44.9-2.3,1.44-17.11,11.57-10.31,23.25,2.53,4.35,7.99,5.15,12.75,4.77v60.66c0,8.94,7.28,16.22,16.22,16.22h93.26c8.94,0,16.22-7.28,16.22-16.22v-37.63c21.55-7.03,33.8-35.25,23.47-55.8-3.76-7.95-8.7-14.29-14.68-18.83Z"/>
      <g>
        <g>
          <path class="cls-11" d="m92.82,122.78c-12.95-1.38-25.65-5.08-37.37-10.79,7.31-10.95,12.12-23.58,13.16-36.76.85-11.75-4.15-23.94-15.96-28.26-8.95-3.21-18.02,1.27-22.6,8.71-10.42-2.05-21.72,4.19-22.69,15.41-1.1,9.75,5.35,18.35,11.96,24.6,7.5,7.45,16.03,13.84,25.23,19-4.68,5.83-10.17,10.99-16.25,15.23-1.49,1.01-1.9,3.04-.9,4.55,1,1.52,3.05,1.94,4.57.93,5.75-3.8,11.09-8.27,15.71-13.41,1.15-1.27,2.26-2.58,3.34-3.93,12.9,6.23,26.91,10.14,41.21,11.29,4.35.18,4.84-5.99.61-6.57Zm-57.63-56.12c2.12,1.48,4.04,3.33,5.63,5.28,1.55,1.99,3.84,4.74,3.06,7.21-.15.42-.46.9-.76,1.02-.03.02-.13.04-.32.01-1.33-.32-2.61-1.69-3.52-2.77-2.5-2.94-4.06-6.89-4.08-10.75Zm-10.29,23.48c-5.61-5.5-12.14-13.56-8.56-21.55,2-3.81,6.65-5.47,10.85-5.09-.13.92-.21,1.86-.21,2.81-.08,7.91,3.95,16.23,10.67,20.61,5.4,3.37,11.9,1.05,14-4.98,2.37-6.49-2.12-12.88-6.33-17.29-2.22-2.32-4.69-4.38-7.46-5.98,5.07-6.49,13.09-5.92,18.42.37,3.74,4.34,4.78,10.1,4.53,15.81-.91,12.02-5.2,23.64-11.83,33.74-8.83-5.02-16.98-11.22-24.1-18.45Z"/>
          <path class="cls-7" d="m147.43,94.16c-9.53-1.01-13.25,3.28-13.25,3.28,0,0,30,19.45,15.38,34.84-10.79,11.35-28.01-6.91-28.01-6.91,0,0-6.96,16.77,5.25,27.56,14.26,12.63,35.36,10.5,46.83-6.49,14.45-21.41.19-49.47-26.21-52.28Zm19.41,24.66c-.51-2.39,2.81-3.68,3.89-1.42,1.26,2.62-3.35,3.99-3.89,1.42Zm-4.71,8.15c-.88-4.15,4.88-6.42,6.77-2.48,2.21,4.58-5.83,6.95-6.77,2.48Zm7.53,6.99c-2.32-2.25.34-6.12,3.21-4.45,3.33,1.94-.72,6.85-3.21,4.45Z"/>
          <path class="cls-9" d="m165.24,56.24c12.13-2.75,15.99-6.88,15.61-9.47s-11.01-5.36-17.19-7.21c-2.68-25.3-7.62-26.25-20.31-4.32-4.03-.33-22.29-6.87-19.41,1.71.6,1.01,1.32,5.84,11.18,12.89-14.57,25.15-5.16,24.73,12.89,13.42,11.95,17.78,20.3,21.78,17.23-7.02Z"/>
        </g>
        <g>
          <g>
            <g>
              <g>
                <path class="cls-1" d="m130.25,167.96H63.37c-2.85,0-5.15-2.03-5.16-4.54-.06-15.72,3.09-57.93,38.6-57.93s38.64,42.21,38.59,57.93c0,2.51-2.31,4.54-5.16,4.54Z"/>
                <g>
                  <path class="cls-4" d="m121.41,167.96h-49.2c-.29-7.46-.51-45.09,24.6-45.09s24.89,37.63,24.6,45.09Z"/>
                  <path class="cls-4" d="m81.66,146.04c-.32,1.88-.45,3.84.07,5.67.52,1.83,1.79,3.53,3.58,4.18,1.65.59,3.54.22,5.04-.7,1.5-.91,2.65-2.3,3.58-3.79,2.94-4.66,3.91-10.78,1.57-15.77-1.59-3.38-5.75-5.72-8.48-2.29-2.84,3.56-4.61,8.24-5.36,12.7Z"/>
                </g>
              </g>
              <g>
                <path d="m121.28,114.11c-6.35-6.37-14.58-9.6-24.47-9.6s-18.13,3.23-24.48,9.6c-13.25,13.29-15.15,36.6-15.1,49.32.01,3.04,2.77,5.52,6.14,5.52h66.87c3.37,0,6.13-2.47,6.14-5.52.05-12.71-1.86-36.03-15.1-49.32Zm-48.12,52.87c-.15-6.15.09-27.24,9.87-37.42,3.64-3.78,8.27-5.7,13.78-5.7s10.14,1.92,13.78,5.7c9.78,10.17,10.02,31.26,9.87,37.42h-47.29Zm57.08,0h-7.82c.2-7.57-.27-28.23-10.42-38.78-4.02-4.18-9.13-6.3-15.19-6.3s-11.17,2.12-15.2,6.3c-10.16,10.56-10.62,31.22-10.42,38.78h-7.82c-2.29,0-4.16-1.59-4.17-3.55-.04-9.99,1.31-34.65,14.53-47.92,5.97-5.99,13.73-9.02,23.08-9.02s17.11,3.04,23.08,9.02c13.22,13.27,14.56,37.93,14.53,47.92,0,1.96-1.88,3.55-4.17,3.55Z"/>
                <path d="m86.79,117.86c-.3.18-.28.5-.21.8.12.48.25.96.4,1.43.11.35.34.57.69.5.35-.07.37-.4.41-.82.03-.59-.18-1.2-.65-1.67-.17-.17-.36-.4-.64-.23Z"/>
                <path d="m84.33,118.54c-.35.07-.37.4-.41.82-.03.59.18,1.2.65,1.67.17.17.36.4.64.23.3-.18.28-.5.21-.8-.12-.48-.25-.96-.4-1.43-.11-.35-.34-.57-.69-.5Z"/>
              </g>
            </g>
            <g>
              <g>
                <g>
                  <path class="cls-1" d="m49.74,75.09c0-26,21.07-54.64,47.07-54.64,26,0,47.07,28.64,47.07,54.64,0,26-21.07,39.51-47.07,39.51-26,0-47.07-13.51-47.07-39.51Z"/>
                  <path class="cls-3" d="m130.84,85.7c-6.96-9.64-16.9-5.75-20.62-9.49-3.63-3.65-7.36-18.02-13.42-18.02s-9.79,14.37-13.42,18.02c-3.72,3.74-13.65-.15-20.62,9.49-6.96,9.65,4.8,28.62,34.03,28.62v-.03s.02.03.02.03c29.23,0,40.98-18.97,34.03-28.62Z"/>
                  <path class="cls-1" d="m96.73,92.02c-5.26-.16-2.41,3.78-.09,3.84,2.32.07,5.35-3.69.09-3.84Z"/>
                </g>
                <path d="m96.81,115.6c-13.59,0-25.31-3.53-33.9-10.22-9.27-7.21-14.17-17.69-14.17-30.29,0-25.73,21-55.64,48.07-55.64s48.07,29.91,48.07,55.64c0,12.6-4.9,23.08-14.17,30.29-8.59,6.68-20.31,10.22-33.9,10.22Zm0-94.14c-25.94,0-46.07,28.83-46.07,53.63,0,23.39,18.08,38.5,46.07,38.5s46.07-15.11,46.07-38.5c0-24.8-20.12-53.63-46.07-53.63Z"/>
              </g>
              <g>
                <g>
                  <g>
                    <path class="cls-11" d="m62.6,81.73c-1.1.77-2.19,2.1-2.15,3.65.04,1.52,1.14,2.52,2.2,3.09,2.4,1.3,5.2,1.51,7.84.61,1.37-.47,2.87-1.47,3.28-3.21.85-3.62-2.56-4.74-4.51-5.31-2.15-.62-4.61-.26-6.66,1.17Z"/>
                    <path d="m66.14,86.57c.03-.63.44-1.03,1.02-1.02.66.02,1.1.54,1.05,1.24-.04.58-.52,1-1.08.96-.61-.04-1.03-.54-.99-1.19Z"/>
                    <path d="m64.19,83.76c.03-.58.46-.98,1-.94.54.05,1.05.67,1.02,1.25-.03.53-.61,1.06-1.11,1.02-.52-.05-.95-.67-.91-1.33Z"/>
                    <path d="m69.04,82.88c.51.04.85.46.82,1.01-.02.49-.4.87-.86.86-.53-.02-.91-.5-.86-1.09.05-.54.37-.82.89-.78Z"/>
                  </g>
                  <g>
                    <path class="cls-11" d="m133.81,81.73c1.1.77,2.19,2.1,2.15,3.65-.04,1.52-1.14,2.52-2.2,3.09-2.4,1.3-5.2,1.51-7.84.61-1.37-.47-2.87-1.47-3.28-3.21-.85-3.62,2.56-4.74,4.51-5.31,2.15-.62,4.61-.26,6.66,1.17Z"/>
                    <path d="m130.04,85.4c-.5-.4-1.06-.37-1.44.08-.43.51-.33,1.19.22,1.62.46.36,1.1.28,1.45-.17.38-.48.28-1.13-.23-1.54Z"/>
                    <path d="m132.34,83.34c-.03-.55-.44-.93-.94-.89-.51.05-.99.63-.97,1.18.03.5.58,1,1.05.96.49-.05.89-.64.86-1.25Z"/>
                    <path d="m127.94,83.01c-.41-.36-1-.31-1.4.12-.37.39-.37.97-.02,1.31.41.4,1.07.33,1.49-.15.39-.45.36-.91-.07-1.28Z"/>
                  </g>
                </g>
                <g>
                  <g>
                    <path class="cls-8" d="m67.83,48.39c-.04,3.51,10.5,5.77,11.39.55.89-5.22-11.35-4.42-11.39-.55Z"/>
                    <path d="m72.76,44.58c5.51-.33,6.88,1.94,7.31,2.65.61.99.32,2.25-.29,3.04-.43.56-.98.98-1.59,1.34-1.01.6-2.13.81-3.27.86-1.99.09-3.94-.1-5.78-.91-1.25-.55-2.32-1.74-2.11-3.33.37-2.74,3.1-3.5,5.73-3.65Zm5.91,3.91c0-1.45-1.54-2.04-2.68-2.25-1.19-.22-2.41-.15-3.62-.04-.64.06-3.57.44-3.74,2.22-.07.77.5,1.28,1.18,1.56,1.64.65,3.34.89,5.1.77.94-.06,3.75-.37,3.75-2.25Z"/>
                  </g>
                  <g>
                    <path class="cls-8" d="m116.76,49.55c-.04,3.51,10.5,5.77,11.39.55.89-5.22-11.35-4.42-11.39-.55Z"/>
                    <path d="m121.69,45.75c5.51-.33,6.88,1.94,7.31,2.65.61.99.32,2.25-.29,3.04-.43.56-.98.98-1.59,1.34-1.01.6-2.13.81-3.27.86-1.99.09-3.94-.1-5.78-.91-1.25-.55-2.32-1.74-2.11-3.33.37-2.74,3.1-3.5,5.73-3.65Zm5.91,3.91c0-1.45-1.54-2.04-2.68-2.25-1.19-.22-2.41-.15-3.62-.04-.64.06-3.57.44-3.74,2.22-.07.77.5,1.28,1.18,1.56,1.64.65,3.34.89,5.1.77.94-.06,3.75-.37,3.75-2.25Z"/>
                  </g>
                </g>
                <g>
                  <g>
                    <path class="cls-2" d="m72.82,53.98c-6.66-.66-12.37,5.74-12.14,12.38.23,6.64,5.83,11.88,12.59,11.5,6.76-.38,11.37-6.87,11.04-12.1-.33-5.23-2.75-10.91-11.49-11.78Z"/>
                    <path d="m68.83,78.22c-5.28-1.66-8.99-6.66-8.85-12.22.15-5.84,3.95-10.97,9.74-12.32,5.34-1.24,11.06,1.2,13.81,5.95,2.04,3.52,2.14,8.19.54,11.92-2.46,5.73-9.46,8.48-15.24,6.67Zm-1.76-21.41c-2.14,1.25-3.68,3.15-4.64,5.42-.47,1.12-.72,2.23-.66,3.44.03.58-.05,1.18.6.91.83-.35,1.6-1.33,2.39-1.81,1.48-.9,3.15-1.47,4.86-1.74,3.98-.64,8.2.09,11.45,2.56.32.25,1.26,1.44,1.65,1.49.66.08.45-1.84.41-2.24-.14-1.39-.61-2.78-1.28-4.01-2.84-5.2-9.7-7-14.78-4.03Zm-.43,14.42c3.23.3,3.08-5.03-.09-4.48-2.28.4-2.33,4.25.09,4.48Z"/>
                  </g>
                  <g>
                    <path class="cls-2" d="m121.75,53.98c-6.66-.66-12.37,5.74-12.14,12.38.23,6.64,5.83,11.88,12.59,11.5,6.76-.38,11.37-6.87,11.04-12.1-.33-5.23-2.75-10.91-11.49-11.78Z"/>
                    <path d="m117.77,78.22c-5.28-1.66-8.99-6.66-8.85-12.22.15-5.84,3.95-10.97,9.74-12.32,5.34-1.24,11.06,1.2,13.81,5.95,2.04,3.52,2.14,8.19.54,11.92-2.46,5.73-9.46,8.48-15.24,6.67Zm-1.76-21.41c-2.14,1.25-3.68,3.15-4.64,5.42-.47,1.12-.72,2.23-.66,3.44.03.58-.05,1.18.6.91.83-.35,1.6-1.33,2.39-1.81,1.48-.9,3.15-1.47,4.86-1.74,3.98-.64,8.2.09,11.45,2.56.32.25,1.26,1.44,1.65,1.49.66.08.45-1.84.41-2.24-.14-1.39-.61-2.78-1.28-4.01-2.84-5.2-9.7-7-14.78-4.03Zm-.43,14.42c3.23.3,3.08-5.03-.09-4.48-2.28.4-2.33,4.25.09,4.48Z"/>
                  </g>
                </g>
                <g>
                  <g>
                    <path class="cls-2" d="m102.82,90.19s1.44,5.43,3.92,5.17c2.48-.27,3.06-6.06,3.06-6.06l-6.98.89Z"/>
                    <path class="cls-2" d="m90.58,90.19s-1.44,5.43-3.92,5.17c-2.48-.27-3.06-6.06-3.06-6.06l6.98.89Z"/>
                  </g>
                  <g>
                    <g>
                      <path d="m96.7,73.88c-8.07,0-10.66,3.49-10.11,5.56.92,3.43,5.54,7.38,10.11,7.38s9.19-3.96,10.11-7.38c.55-2.07-2.03-5.56-10.11-5.56Z"/>
                      <path d="m101.35,71.84c-1.57.06-3.15,0-4.67,0-1.38-.01-3.32.03-4.68-.08-.42-.03-.73-.4-.7-.82.02-.31.23-.56.5-.66,1.6-.56,3.23-.72,4.91-.7,1.67.05,3.28.27,4.87.79.4.13.61.57.48.96-.11.31-.39.51-.71.52h0Z"/>
                      <path class="cls-2" d="m90.58,78.53c-.18.9.31,1.91,1.16,2.27.69.29,1.51.14,2.15-.25.74-.46,1.3-1.27,1.31-2.14.05-2.92-4.17-2.12-4.61.12Z"/>
                    </g>
                    <path d="m112.16,84.79c-.42,1.26-1.38,2.56-2.51,3.32-3.71,2.45-8.96.96-12.3-1.53-.38-.3-.92-.31-1.31,0-.52.41-1.2.84-1.85,1.19-3.71,2.02-9.17,2.62-12.05-1.02-.44-.54-.85-1.22-1.1-1.81-.13-.39-.54-.64-.95-.52-1.35.45.19,2.67.62,3.39.54.8,1.2,1.45,1.93,1.97.2,1.63,1.03,6.27,3.9,6.58.1.01.2.02.3.02,2.6,0,4.03-3.73,4.54-5.36.48-.12.94-.25,1.39-.41,1.41-.49,2.68-1.12,3.9-1.96,1.56,1.11,3.42,1.94,5.34,2.39.51,1.63,1.94,5.34,4.53,5.34.1,0,.2,0,.3-.02,2.81-.3,3.66-4.75,3.89-6.47,1.46-.97,2.64-2.42,3.33-4.46.38-1.25-1.47-1.85-1.9-.63Zm-25.33,9.57s-.04,0-.07,0c-.81-.09-1.51-1.77-1.89-3.48,1.35.44,2.81.58,4.26.48-.61,1.53-1.51,3-2.3,3Zm19.8,0c-.82.08-1.75-1.42-2.37-2.99,1.47.11,2.92-.03,4.25-.44-.39,1.7-1.07,3.34-1.88,3.43Z"/>
                  </g>
                </g>
              </g>
              <g>
                <g>
                  <g>
                    <path class="cls-1" d="m136.67,50.17c8.8-14.09,9.42-35.39,3.55-38.86-6.62-3.91-27.05,15.44-28.09,24.02l24.54,14.83Z"/>
                    <path class="cls-4" d="m136.34,29.26c-1.98,7.61-8.25,18.33-13.88,13.86-2.33-1.85-1.1-5.81-.29-7.8,2.8-6.89,18.82-23.92,14.18-6.06Z"/>
                  </g>
                  <g>
                    <path d="m144.31,16.43c-.73-3-1.93-5.01-3.57-5.97-1.89-1.11-4.6-.81-8.07.9-8.47,4.18-20.67,16.74-21.53,23.87-.07.55.33,1.05.87,1.12.55.07,1.05-.32,1.12-.87.71-5.84,11.97-18.14,20.43-22.31,2.74-1.35,4.93-1.7,6.16-.97,1.14.67,2.06,2.31,2.65,4.72,1.92,7.87,0,22.27-6.54,32.74-.29.47-.15,1.09.32,1.38.17.1.35.15.53.15.33,0,.66-.17.85-.47,6.82-10.92,8.81-26,6.79-34.27Z"/>
                    <path d="m136.32,20.51c-4.15-1.38-13.16,9.78-15.05,14.44-1.68,4.12-1.47,7.29.59,8.92,1.06.84,2.21,1.26,3.4,1.26.56,0,1.14-.1,1.71-.29,4.5-1.51,8.67-9.03,10.31-15.35.89-3.43,1.76-8.09-.96-8.99Zm-.91,8.5c-1.5,5.78-5.39,12.77-9.06,14-1.17.39-2.24.18-3.29-.65-1.85-1.47-.62-5.15,0-6.67,2.03-5,9.87-13.37,12.38-13.37.1,0,.19.01.27.04.45.15.98,1.74-.31,6.66Z"/>
                  </g>
                </g>
                <g>
                  <g>
                    <path class="cls-1" d="m75.15,28.64c2.93-21.23,21.86-22.96,33.44-17.62,12.33,5.68,1.61,22.53-2.39,15.95-5.35-8.81,22.92-14.29,20.07,10.63-1.61,14.02-28.23,20.27-35.17,2.66"/>
                    <path class="cls-5" d="m83.75,18.96c-.69.85-1.33,1.77-1.61,2.83s-.16,2.27.54,3.11c.87,1.05,2.44,1.29,3.77.99,1.33-.31,2.51-1.06,3.71-1.72,1.81-1,3.72-1.82,5.69-2.45.58-.18,1.18-.36,1.66-.72.86-.65,1.2-1.86.98-2.92s-.93-1.97-1.8-2.62c-4.38-3.25-10.02-.07-12.95,3.5Z"/>
                  </g>
                  <g>
                    <path d="m116.38,43.39c.32-.16.32-.47.27-.78-.08-.49-.18-.97-.29-1.45-.08-.36-.29-.59-.65-.55-.35.04-.41.36-.48.78-.07.59.09,1.21.52,1.72.16.18.33.42.62.28Z"/>
                    <path d="m118.89,42.92c.35-.04.41-.36.48-.78.07-.59-.09-1.21-.52-1.72-.16-.18-.33-.42-.62-.28-.32.16-.32.47-.27.78.08.49.18.97.29,1.45.08.36.29.59.65.55Z"/>
                    <path d="m91.41,21.54c.57-.15,1.09-.54,1.4-1.12.11-.21.27-.47.02-.68-.27-.23-.56-.12-.82.04-.42.26-.84.53-1.24.81-.3.21-.44.49-.27.81.17.31.49.24.91.15Z"/>
                    <path d="m91.45,17.59c-.17-.31-.49-.24-.91-.15-.57.15-1.09.54-1.4,1.12-.11.21-.27.47-.02.68.27.23.56.12.82-.04.42-.26.84-.53,1.24-.81.3-.21.44-.49.27-.81Z"/>
                    <path d="m122.33,21.45c-1.99-1.6-4.44-2.56-6.97-2.83-.35-4.25-3.39-7.66-7.68-9.12-16.1-6.08-31.32,1.3-33.5,19.02-.17,1.31,1.76,1.56,1.94.27.82-6.05,3.46-12.21,8.62-15.74,6.39-4.43,15.09-4.36,22.16-1.59,3.79,1.26,5.94,3.97,6.33,7.09-1.98.09-3.94.62-5.68,1.6-2.45,1.36-3.91,4.24-2.46,6.9,1.09,2.52,3.88,3.17,5.98,1.57,2.2-1.62,3.47-4.12,4.05-6.72.1-.41.16-.82.21-1.22,7.13.75,10.58,7.37,10.12,14.64-.1,1.48-.21,3.05-.69,4.46-3.91,9.98-18.81,13.24-27.29,7.25-2.5-1.77-4.39-4.28-5.76-7-.14-.28-.46-.43-.77-.33-.33.11-.51.46-.41.79.51,1.58,1.23,3.12,2.21,4.52.99,1.38,2.21,2.6,3.59,3.61,9.51,6.75,26,3.06,30.33-8.19,1.74-6.32,1.07-14.54-4.31-18.99Zm-11.02,3.99c-.94,1.33-2.98,3.06-4.16,1.1-2.27-3.5,2.64-5.75,5.58-5.89.16-.01.32-.02.48-.03-.19,1.6-.81,3.25-1.9,4.81Z"/>
                  </g>
                </g>
                <g>
                  <g>
                    <path class="cls-1" d="m56.71,50.17c-8.8-14.09-9.42-35.39-3.55-38.86,6.62-3.91,27.05,15.44,28.09,24.02l-24.54,14.83Z"/>
                    <path class="cls-4" d="m57.04,29.26c1.98,7.61,8.25,18.33,13.88,13.86,2.33-1.85,1.1-5.81.29-7.8-2.8-6.89-18.82-23.92-14.18-6.06Z"/>
                  </g>
                  <g>
                    <path d="m60.71,11.35c-3.47-1.71-6.18-2.01-8.07-.9-1.64.97-2.84,2.98-3.57,5.97-2.02,8.27-.04,23.36,6.78,34.27.19.3.52.47.85.47.18,0,.36-.05.53-.15.47-.29.61-.91.32-1.38-6.54-10.47-8.46-24.87-6.54-32.74.59-2.42,1.51-4.05,2.65-4.72,1.23-.73,3.42-.38,6.16.97,8.45,4.17,19.72,16.47,20.43,22.31.07.55.57.94,1.12.87.55-.07.94-.57.87-1.12-.87-7.12-13.06-19.69-21.53-23.87Z"/>
                    <path d="m57.06,20.51c-2.72.9-1.85,5.56-.96,8.99,1.64,6.31,5.81,13.84,10.31,15.35.57.19,1.15.29,1.71.29,1.19,0,2.34-.42,3.4-1.26,2.06-1.63,2.27-4.8.59-8.92-1.9-4.66-10.9-15.82-15.05-14.44Zm13.26,21.84c-1.05.83-2.12,1.04-3.29.65-3.66-1.23-7.55-8.22-9.06-14-1.28-4.92-.76-6.51-.31-6.66,2.14-.72,10.54,8.14,12.65,13.33.62,1.52,1.85,5.2,0,6.67Z"/>
                  </g>
                </g>
              </g>
            </g>
            <g>
              <g>
                <g>
                  <path class="cls-1" d="m68.63,116.62s2.44,2.12,2.73,2.75c.91,2,.72,4.37-.12,6.39-.84,2.03-2.27,3.75-3.8,5.32-3.19,3.25-6.95,5.96-11.05,7.95-2.34,1.14-10.16,3.43-16.92-2.06-2.99-2.43-7.44-9.22-1.8-16.69,4.14-5.49,9.94-7.91,16.63-9.49,3.6-.85,7.32-1.15,11.02-1.06,1.86.05,3.71.19,5.55.42,1.09.13,5.34,1.54,5.34,1.54l-7.58,4.92Z"/>
                  <path class="cls-5" d="m51.97,137.4c-1.77.53-3.77.86-5.4,0-.93-.49-1.7-1.54-1.44-2.56.19-.75.85-1.26,1.48-1.7,3.14-2.17,6.61-3.87,10.25-5.01.98-.31,2-.58,3.03-.51,3.28.2,3.96,3.52,1.47,5.19-2.89,1.94-6.05,3.6-9.39,4.59Z"/>
                </g>
                <g>
                  <path d="m40.31,116.72c4.87-4.36,10.8-6.23,17.08-7.08,3.66-.49,7.34-.75,11.05-.52,2.32.14,4.59.49,6.82,1.07.39.1.79.26,1.14.46.32.18.51.5.35.88-.14.32-.44.43-.78.38-.31-.04-.61-.11-.91-.17-8.05-1.65-16.05-1.24-23.97.9-5.11,1.38-9.42,4.13-12.76,8.28-3.59,4.46-3.4,9.88.52,14,3.2,3.36,7.12,4.93,11.83,4.38,3.14-.36,6.03-1.35,8.7-3.11,3.25-2.14,6.28-4.52,9.05-7.25,3-2.96,3.56-7.02,1.17-9.9-1.59-1.92-3.9-2.63-6.26-3.07-4.61-.85-8.72.68-12.67,2.87-2,1.12-3.79,2.54-5.56,3.99-.45.37-.94.7-1.45,1-.3.17-.67.25-.94-.1-.27-.34,0-.61.2-.82.59-.63,1.16-1.29,1.84-1.81.81-.62.44-.81-.23-1.01-.23-.07-.47-.13-.68-.24-.38-.2-.94-.35-.78-.93.15-.55.7-.48,1.14-.48.67,0,1.33.19,1.86.56.61.43,1.03.23,1.54-.15,2.31-1.69,4.85-2.97,7.55-3.86,4.76-1.57,9.41-1.37,13.74,1.26,3.96,2.41,5.05,7.57,2.53,11.52-1.78,2.79-4.34,4.85-6.9,6.83-2.98,2.3-5.99,4.63-9.69,5.72-5.36,1.58-10.45,1.3-15.05-2.14-2.62-1.95-4.41-4.52-5.38-7.64-.87-2.8-.46-5.63.97-8.06,1.21-2.04,3.69-4.66,4.93-5.76Z"/>
                  <path d="m40.74,132.38c-.28-.17-.28-.45-.18-.71.19-.53.43-1.04.76-1.49.14-.18.3-.31.61-.35.25.01.54.09.39.51-.21.62-.46,1.24-.85,1.77-.18.24-.4.47-.73.27Z"/>
                  <path d="m43.1,131.73c.14-.18.3-.31.61-.35.25.01.54.09.39.51-.21.62-.46,1.24-.85,1.77-.18.24-.4.47-.73.27-.28-.17-.28-.45-.18-.71.19-.53.43-1.04.76-1.49Z"/>
                </g>
              </g>
              <g>
                <g>
                  <path class="cls-1" d="m124.99,116.62s-2.44,2.12-2.73,2.75c-.91,2-.72,4.37.12,6.39.84,2.03,2.27,3.75,3.8,5.32,3.19,3.25,6.95,5.96,11.05,7.95,2.34,1.14,10.16,3.43,16.92-2.06,2.99-2.43,7.44-9.22,1.8-16.69-4.14-5.49-9.94-7.91-16.63-9.49-3.6-.85-7.32-1.15-11.02-1.06-1.86.05-3.71.19-5.55.42-1.09.13-5.34,1.54-5.34,1.54l7.58,4.92Z"/>
                  <path class="cls-5" d="m141.66,137.4c1.77.53,3.77.86,5.4,0,.93-.49,1.7-1.54,1.44-2.56-.19-.75-.85-1.26-1.48-1.7-3.14-2.17-6.61-3.87-10.25-5.01-.98-.31-2-.58-3.03-.51-3.28.2-3.96,3.52-1.47,5.19,2.89,1.94,6.05,3.6,9.39,4.59Z"/>
                </g>
                <g>
                  <path d="m153.32,116.72c-4.87-4.36-10.8-6.23-17.08-7.08-3.66-.49-7.34-.75-11.05-.52-2.32.14-4.59.49-6.82,1.07-.39.1-.79.26-1.14.46-.32.18-.51.5-.35.88.14.32.44.43.78.38.31-.04.61-.11.91-.17,8.05-1.65,16.05-1.24,23.97.9,5.11,1.38,9.42,4.13,12.76,8.28,3.59,4.46,3.4,9.88-.52,14-3.2,3.36-7.12,4.93-11.83,4.38-3.14-.36-6.03-1.35-8.7-3.11-3.25-2.14-6.28-4.52-9.05-7.25-3-2.96-3.56-7.02-1.17-9.9,1.59-1.92,3.9-2.63,6.26-3.07,4.61-.85,8.72.68,12.67,2.87,2,1.12,3.79,2.54,5.56,3.99.45.37.94.7,1.45,1,.3.17.67.25.94-.1.27-.34,0-.61-.2-.82-.59-.63-1.16-1.29-1.84-1.81-.81-.62-.44-.81.23-1.01.23-.07.47-.13.68-.24.38-.2.94-.35.78-.93-.15-.55-.7-.48-1.14-.48-.67,0-1.33.19-1.86.56-.61.43-1.03.23-1.54-.15-2.31-1.69-4.85-2.97-7.55-3.86-4.76-1.57-9.41-1.37-13.74,1.26-3.96,2.41-5.05,7.57-2.53,11.52,1.78,2.79,4.34,4.85,6.9,6.83,2.98,2.3,5.99,4.63,9.69,5.72,5.36,1.58,10.45,1.3,15.05-2.14,2.62-1.95,4.41-4.52,5.38-7.64.87-2.8.46-5.63-.97-8.06-1.21-2.04-3.69-4.66-4.93-5.76Z"/>
                  <path d="m152.89,132.38c.28-.17.28-.45.18-.71-.19-.53-.43-1.04-.76-1.49-.14-.18-.3-.31-.61-.35-.25.01-.54.09-.39.51.21.62.46,1.24.85,1.77.18.24.4.47.73.27Z"/>
                  <path d="m150.53,131.73c-.14-.18-.3-.31-.61-.35-.25.01-.54.09-.39.51.21.62.46,1.24.85,1.77.18.24.4.47.73.27.28-.17.28-.45.18-.71-.19-.53-.43-1.04-.76-1.49Z"/>
                </g>
              </g>
            </g>
          </g>
          <g>
            <g>
              <g>
                <g>
                  <path class="cls-9" d="m151.38,149.73v54.21c0,4.36-3.53,7.88-7.87,7.88H50.25c-4.36,0-7.88-3.53-7.88-7.88v-54.21c0-4.35,3.53-7.87,7.88-7.87h93.26c4.35,0,7.87,3.53,7.87,7.87Z"/>
                  <path class="cls-4" d="m49.41,166.69c1.56,1.49,4.11,1.77,6,.73s3.03-3.27,2.83-5.41c-.3-3.3-4.21-6.77-7.58-5.21-3.53,1.64-3.9,7.38-1.25,9.89Z"/>
                  <path class="cls-5" d="m151.38,149.73v3.68H42.37v-3.68c0-4.35,3.53-7.87,7.88-7.87h93.26c4.35,0,7.87,3.53,7.87,7.87Z"/>
                  <path class="cls-4" d="m47.35,187.03c-.16,4.69-.3,9.44.61,14.04.37,1.85.95,3.75,2.27,5.1,1.32,1.35,3.55,1.97,5.14.95,1.67-1.06,2-3.32,2.14-5.29.49-6.96.65-13.95.37-20.92-.07-1.73-.17-3.49-.82-5.09-.65-1.6-1.95-3.04-3.65-3.39-6.79-1.43-5.93,10.63-6.07,14.6Z"/>
                </g>
                <path d="m143.5,140.86H50.24c-4.9,0-8.88,3.98-8.88,8.88v54.21c0,4.9,3.98,8.88,8.88,8.88h93.26c4.9,0,8.88-3.98,8.88-8.88v-54.21c0-4.9-3.98-8.88-8.88-8.88Zm-93.26,2h93.26c3.79,0,6.88,3.08,6.88,6.88v2.67H43.37v-2.67c0-3.79,3.08-6.88,6.88-6.88Zm93.26,67.96H50.24c-3.79,0-6.88-3.08-6.88-6.88v-49.53h107.01v49.53c0,3.79-3.08,6.88-6.88,6.88Z"/>
              </g>
              <g>
                <path class="cls-10" d="m118.97,149.63h0c-2.09,0-3.78-1.69-3.78-3.78v-6.6c0-1.01-.82-1.84-1.84-1.84h-32.95c-1.01,0-1.84.82-1.84,1.84v6.6c0,2.09-1.69,3.78-3.78,3.78h0c-2.09,0-3.78-1.69-3.78-3.78v-6.6c0-5.19,4.21-9.4,9.4-9.4h32.95c5.19,0,9.4,4.21,9.4,9.4v6.6c0,2.09-1.69,3.78-3.78,3.78Z"/>
                <path d="m118.97,150.63c-2.64,0-4.78-2.15-4.78-4.78v-6.6c0-.46-.37-.83-.83-.83h-32.95c-.46,0-.83.37-.83.83v6.6c0,2.64-2.15,4.78-4.78,4.78s-4.78-2.15-4.78-4.78v-6.6c0-5.74,4.67-10.4,10.4-10.4h32.95c5.74,0,10.4,4.67,10.4,10.4v6.6c0,2.64-2.15,4.78-4.78,4.78Zm-38.57-14.22h32.95c1.56,0,2.84,1.27,2.84,2.84v6.6c0,1.53,1.25,2.78,2.78,2.78s2.78-1.25,2.78-2.78v-6.6c0-4.63-3.77-8.4-8.4-8.4h-32.95c-4.63,0-8.4,3.77-8.4,8.4v6.6c0,1.53,1.25,2.78,2.78,2.78s2.78-1.25,2.78-2.78v-6.6c0-1.56,1.27-2.84,2.84-2.84Z"/>
              </g>
            </g>
            <g>
              <g>
                <circle class="cls-2" cx="98.14" cy="182.62" r="22.02"/>
                <path d="m98.14,205.64c-12.7,0-23.02-10.33-23.02-23.02s10.33-23.02,23.02-23.02,23.02,10.33,23.02,23.02-10.33,23.02-23.02,23.02Zm0-44.04c-11.59,0-21.02,9.43-21.02,21.02s9.43,21.02,21.02,21.02,21.02-9.43,21.02-21.02-9.43-21.02-21.02-21.02Z"/>
              </g>
              <g>
                <g>
                  <polygon class="cls-9" points="112.3 177.24 103.52 177.24 103.52 168.46 92.76 168.46 92.76 177.24 83.98 177.24 83.98 188 92.76 188 92.76 196.78 103.52 196.78 103.52 188 112.3 188 112.3 177.24"/>
                  <path class="cls-5" d="m94.42,175.69c-.4,4.62-.52,9.26-.38,13.89.04,1.16.1,2.37.62,3.41s1.61,1.89,2.77,1.75c.93-.11,1.69-.83,2.11-1.67s.53-1.79.62-2.72c.43-4.48.37-9-.18-13.47-.19-1.56-.93-4.54-2.76-5.01-2.12-.54-2.65,2.34-2.78,3.83Z"/>
                </g>
                <path d="m103.52,197.78h-10.76c-.55,0-1-.45-1-1v-7.78h-7.78c-.55,0-1-.45-1-1v-10.76c0-.55.45-1,1-1h7.78v-7.78c0-.55.45-1,1-1h10.76c.55,0,1,.45,1,1v7.78h7.78c.55,0,1,.45,1,1v10.76c0,.55-.45,1-1,1h-7.78v7.78c0,.55-.45,1-1,1Zm-9.75-2h8.75v-7.78c0-.55.45-1,1-1h7.78v-8.75h-7.78c-.55,0-1-.45-1-1v-7.78h-8.75v7.78c0,.55-.45,1-1,1h-7.78v8.75h7.78c.55,0,1,.45,1,1v7.78Z"/>
              </g>
            </g>
            <g>
              <g>
                <path class="cls-10" d="m55.79,153.41h11.71v9.44c0,1.25-1.02,2.27-2.27,2.27h-7.17c-1.25,0-2.27-1.02-2.27-2.27v-9.44h0Z"/>
                <path class="cls-5" d="m58.03,159.42c.06.98.37,1.98,1.08,2.65s1.89.9,2.69.34c.51-.36.79-.96.94-1.56.44-1.67-.03-3.64-1.4-4.69-2.29-1.77-3.42,1.49-3.31,3.26Z"/>
              </g>
              <path d="m67.5,152.41h-11.71c-.55,0-1,.45-1,1v9.44c0,1.8,1.47,3.27,3.27,3.27h7.17c1.8,0,3.27-1.47,3.27-3.27v-9.44c0-.55-.45-1-1-1Zm-1,2v5.18h-9.7v-5.18h9.7Zm-1.27,9.7h-7.17c-.7,0-1.27-.57-1.27-1.27v-1.25h9.7v1.25c0,.7-.57,1.27-1.27,1.27Z"/>
            </g>
            <g>
              <g>
                <path class="cls-10" d="m131.05,153.41h7.17c1.25,0,2.27,1.02,2.27,2.27v9.44h-11.71v-9.44c0-1.25,1.02-2.27,2.27-2.27Z" transform="translate(269.27 318.53) rotate(180)"/>
                <path class="cls-5" d="m130.8,159.58c.06.98.37,1.98,1.08,2.65s1.89.9,2.69.34c.51-.36.79-.96.94-1.56.44-1.67-.03-3.64-1.4-4.69-2.29-1.77-3.42,1.49-3.31,3.26Z"/>
              </g>
              <path d="m140.49,152.41h-11.71c-.55,0-1,.45-1,1v9.44c0,1.8,1.47,3.27,3.27,3.27h7.17c1.8,0,3.27-1.47,3.27-3.27v-9.44c0-.55-.45-1-1-1Zm-1,2v5.18h-9.7v-5.18h9.7Zm-1.27,9.7h-7.17c-.7,0-1.27-.57-1.27-1.27v-1.25h9.7v1.25c0,.7-.57,1.27-1.27,1.27Z"/>
            </g>
          </g>
          <g>
            <g>
              <path class="cls-1" d="m57.01,114.29c-2.6,1.17-4.92,3.03-6.4,5.46-1.64,2.69-2.16,5.93-2.11,9.08.07,4.73,2.53,12.9,8.26,15.78,2.68,1.35,6,1.73,8.9,1.21.82-.15,1.67-.39,2.53-.71,2.44-.92,4.85-2.51,6.34-4.4,0,0,.03-.02.06-.06.88-.91,1.46-2.06,1.7-3.3.3-1.59.67-4.41.41-7.39l2.81.03c.91,0,1.67-.74,1.65-1.65,0-.44-.02-.86-.06-1.25-.48-5.06-5.91-14.78-15.78-14.53-2.85.07-5.71.57-8.31,1.73Z"/>
              <g>
                <path d="m65.3,111.8c-3.22.08-6.11.69-8.6,1.8-2.87,1.29-5.27,3.33-6.74,5.76-.66,1.09-1.18,2.31-1.55,3.64-.48,1.75-.71,3.7-.67,5.84.08,4.71,2.53,14.1,8.7,17.2,2.71,1.36,6.21,1.84,9.38,1.28,3.52-.62,7.25-2.77,9.31-5.35,0,0,3.21-3.67,2.39-11.25l1.98.02c.65,0,1.27-.25,1.73-.71.46-.46.7-1.07.69-1.71,0-.45-.03-.89-.07-1.31-.5-5.26-6.03-15.47-16.55-15.21Zm15.05,15.35c.04.38.06.78.06,1.19,0,.23-.09.45-.25.62-.17.17-.4.27-.64.26h-1.48c-.33-2.72-1.85-5.53-3.78-7.69-.28-.31-.76-.34-1.07-.06-.31.28-.34.76-.06,1.07,1.82,2.05,2.59,4.78,2.83,7.41,0,0,0,0,0,0,0,.05,0,.1.01.15.24,2.86-.13,5.57-.41,7.11-.03.16-.07.33-.11.48-.25.92-.73,1.75-1.39,2.43-.02.02-.09.1-.11.12-1.22,1.54-3.18,2.93-5.3,3.85-.23-2.29-.51-4.56-.69-6.81-.09-1.27-.18-2.53-.22-3.79-.03-1.26-.03-2.51,0-3.79v-.02c0-.32-.25-.58-.56-.59-.24,0-.45.14-.54.35-.54,1.27-.82,2.63-.95,3.99-.11,1.36-.09,2.71.03,4.06.14,1.34.2,3.85,1.05,7.31-.61.2-.61.17-1.22.28-1.53.27-3.14.26-4.69.02-.23-2.41-.53-4.79-.73-7.16-.09-1.27-.18-2.53-.22-3.79-.03-1.26-.03-2.51,0-3.79v-.02c0-.32-.25-.58-.56-.59-.24,0-.45.14-.54.35-.54,1.27-.82,2.63-.95,3.99-.11,1.36-.36,3.16.9,10.51-.79-.22-.94-.31-1.64-.66-5.28-2.66-7.77-10.44-7.85-15.12-.06-3.48.62-6.4,2-8.68,1.31-2.16,3.47-4,6.06-5.16,2.3-1.03,5-1.59,8.01-1.67,9.1-.23,14.53,8.75,15.01,13.84Z"/>
                <path d="m66.9,124.17c.52.63.15,1.28-.75,1.38-1.33.15-2.67.24-4.01.36-.82.08-1.64.19-2.46.24-.34.02-.75-.07-.84-.45-.09-.37.21-.62.53-.78,2.25-1.09,4.63-1.19,7.05-.97.19.02.37.17.48.22Z"/>
                <path d="m58.71,120.71c1.74-.66,3.8-1.06,5.96-.65.36.07.61.33.59.73-.02.32-.26.48-.55.52-1.9.26-3.79.66-5.72.7-.36,0-.81-.05-.94-.47-.07-.25.14-.52.66-.83Z"/>
              </g>
            </g>
            <g>
              <path class="cls-1" d="m136.62,114.29c2.6,1.17,4.92,3.03,6.4,5.46,1.64,2.69,2.16,5.93,2.11,9.08-.07,4.73-2.53,12.9-8.26,15.78-2.68,1.35-6,1.73-8.9,1.21-.82-.15-1.67-.39-2.53-.71-2.44-.92-4.85-2.51-6.34-4.4,0,0-.03-.02-.06-.06-.88-.91-1.46-2.06-1.7-3.3-.3-1.59-.67-4.41-.41-7.39l-2.81.03c-.91,0-1.67-.74-1.65-1.65,0-.44.02-.86.06-1.25.48-5.06,5.91-14.78,15.78-14.53,2.85.07,5.71.57,8.31,1.73Z"/>
              <g>
                <path d="m111.77,127.01c-.04.42-.06.86-.07,1.31,0,.64.24,1.25.69,1.71.46.46,1.07.72,1.73.71l1.98-.02c-.83,7.59,2.39,11.25,2.39,11.25,2.06,2.58,5.8,4.73,9.31,5.35,3.16.56,6.67.08,9.38-1.28,6.18-3.1,8.63-12.49,8.7-17.2.04-2.14-.19-4.09-.67-5.84-.37-1.33-.88-2.55-1.55-3.64-1.47-2.42-3.86-4.47-6.74-5.76-2.48-1.11-5.38-1.72-8.6-1.8-10.52-.26-16.05,9.95-16.55,15.21Zm16.51-13.7c3.02.08,5.72.64,8.01,1.67,2.6,1.17,4.75,3,6.06,5.16,1.38,2.28,2.06,5.2,2,8.68-.08,4.68-2.56,12.46-7.85,15.12-.69.35-.85.45-1.64.66,1.27-7.35,1.02-9.15.9-10.51-.14-1.36-.41-2.72-.95-3.99-.09-.21-.3-.36-.54-.35-.32,0-.57.27-.56.59v.02c.03,1.29.03,2.53,0,3.79-.05,1.26-.13,2.52-.22,3.79-.19,2.36-.49,4.75-.73,7.16-1.54.24-3.16.25-4.69-.02-.6-.11-.6-.08-1.22-.28.85-3.46.91-5.97,1.05-7.31.12-1.34.14-2.7.03-4.06-.14-1.36-.41-2.72-.95-3.99-.09-.21-.3-.36-.54-.35-.32,0-.57.27-.56.59v.02c.03,1.29.03,2.53,0,3.79-.05,1.26-.13,2.52-.22,3.79-.19,2.25-.47,4.52-.69,6.81-2.11-.92-4.08-2.31-5.3-3.85-.02-.02-.09-.1-.11-.12-.66-.68-1.13-1.52-1.39-2.43-.04-.16-.08-.32-.11-.48-.29-1.54-.65-4.25-.41-7.11,0-.05.01-.1.01-.15,0,0,0,0,0,0,.24-2.63,1.01-5.36,2.83-7.41.28-.31.25-.79-.06-1.07-.31-.28-.79-.25-1.07.06-1.93,2.17-3.46,4.97-3.78,7.68h-1.48c-.24.02-.47-.08-.64-.25-.17-.17-.26-.39-.25-.62,0-.41.03-.81.06-1.19.48-5.09,5.91-14.07,15.01-13.84Z"/>
                <path d="m126.72,124.17c-.52.63-.15,1.28.75,1.38,1.33.15,2.67.24,4.01.36.82.08,1.64.19,2.46.24.34.02.75-.07.84-.45.09-.37-.21-.62-.53-.78-2.25-1.09-4.63-1.19-7.05-.97-.19.02-.37.17-.48.22Z"/>
                <path d="m134.91,120.71c-1.74-.66-3.8-1.06-5.96-.65-.36.07-.61.33-.59.73.02.32.26.48.55.52,1.9.26,3.79.66,5.72.7.36,0,.81-.05.94-.47.07-.25-.14-.52-.66-.83Z"/>
              </g>
            </g>
          </g>
        </g>
      </g>
    </g>
  </g>
</svg>