<?xml version="1.0" encoding="UTF-8"?>
<svg id="_Слой_2" data-name="Слой 2" xmlns="http://www.w3.org/2000/svg" xmlns:xlink="http://www.w3.org/1999/xlink" viewBox="0 0 133.99 170.39">
  <defs>
    <style>
      .cls-1 {
        fill: #fff;
      }

      .cls-2 {
        filter: url(#drop-shadow-1);
      }

      .cls-3 {
        fill: #0085ff;
      }

      .cls-4 {
        fill: #242424;
      }

      .cls-5 {
        fill: #ffd900;
      }

      .cls-6 {
        fill: #d0ff61;
      }

      .cls-7 {
        fill: #00e7a5;
      }

      .cls-8 {
        fill: #ffa400;
      }
    </style>
    <filter id="drop-shadow-1" filterUnits="userSpaceOnUse">
      <feOffset dx="8" dy="8"/>
      <feGaussianBlur result="blur" stdDeviation="0"/>
      <feFlood flood-color="#000" flood-opacity="1"/>
      <feComposite in2="blur" operator="in"/>
      <feComposite in="SourceGraphic"/>
    </filter>
  </defs>
  <g id="OBJECTS">
    <g class="cls-2">
      <path class="cls-1" d="m132.31,82.78c.97-.97,1.51-2.3,1.47-3.69-.04-1.4-.09-2.8-.13-4.18-.05-1.63-.11-3.24-.15-4.75-.01-.47-.02-.94-.04-1.4-.06-1.25-.58-2.43-1.46-3.31.84-.93,1.31-2.16,1.29-3.43-.02-1.29-.03-2.57-.05-3.86-.01-1.05-.02-2.1-.04-3.15.23-1.24.02-2.55-.62-3.68-.18-.33-.4-.64-.65-.92-.15-.18-.32-.35-.49-.5,1.02-.93,1.62-2.25,1.63-3.64.02-.3.01-.6-.02-.9-.04-1.68-.09-3.35-.15-5-.06-1.78-.04-3.58-.02-4.95.02-1.17-.37-2.3-1.09-3.2.76-.87,1.2-1.98,1.24-3.15.05-1.75.09-3.5.1-5.24,0-.07,0-.14,0-.21-.04-1.06-.08-2.13-.1-3.2-.03-1.56-.77-2.94-1.91-3.84.05-.05.1-.11.15-.16,1.05-.98,1.62-2.37,1.58-3.8v-.12c-.03-.95-.06-1.9-.12-2.87-.03-.49-.04-.9-.04-1.38.2-1,.1-1.86-.05-2.46l-.05-.2c-.04-.49-.16-1.13-.48-1.81-.78-1.87-2.41-3.21-4.39-3.58-.53-.11-1.05-.14-1.55-.11-.05,0-.09,0-.14,0-.58.02-1.09.09-1.51.14h-.03c-.96-.09-1.84,0-2.48.09-.47-.04-.95-.02-1.42.06h-.17c-1.07-.01-2.08.28-2.92.85-.81-.52-1.73-.81-2.78-.79-1.49.02-2.98.06-4.46.1-1.68.04-3.36.08-5.04.1-1.15.01-2.24.42-3.1,1.13-.86-.72-1.94-1.14-3.08-1.17-1.57-.04-2.73-.16-4.08-.3-.75-.08-1.52-.16-2.42-.23-1.23-.08-2.42-.08-3.39-.07h-.11c-.08,0-.16,0-.24,0-.2,0-.39.01-.59.03-1.14.12-2.15.62-2.92,1.36-.88-.73-2.01-1.15-3.19-1.15-.31,0-.61.01-.92.04l-1.49.07c-1.9.09-3.8.18-5.71.25-.63-.07-1.47-.09-2.37.09-.19.04-.38.09-.56.15-.6.19-1.26.51-1.88,1.01-.83-.73-1.89-1.17-3.01-1.23-.79-.04-1.59-.11-2.38-.17-1.65-.13-3.36-.27-5.15-.27h-.08c-1.47-.03-3-.02-4.82.01-1.37.03-2.67.62-3.59,1.62-.96-.92-2.24-1.4-3.59-1.38-2.35.07-4.64.13-6.92.07-.77-.05-1.5-.06-2.16-.07-1.21-.04-2.34.39-3.24,1.13-.97-.68-2.16-.99-3.36-.88-.1.01-.2.02-.3.03-.11,0-.21,0-.32.02-1.05.09-2.1.18-3.15.28-1.89.17-3.84.35-5.73.47-.51-.03-1.01.01-1.51.11-.79.13-1.51.45-2.13.91-.31.21-.59.45-.85.72-.94-1.01-2.26-1.58-3.65-1.58s-2.91,0-4.51.06l-.57.02c-.08,0-.16,0-.31,0h-.12c-2.56-.23-4.19.94-4.98,1.75-1.32,1.33-1.89,3.18-1.64,4.97,0,.03,0,.06,0,.09,0,.02,0,.04,0,.06-.04.88-.07,1.77-.09,2.65-.02.87-.05,1.75-.09,2.62-.05.69-.08,1.39-.12,2.08-.06,1.39.46,2.74,1.42,3.72-.99.95-1.55,2.27-1.55,3.65.01,1.56.04,3.12.06,4.67.02,1.53.05,3.05.06,4.64l.02,1.61c.02,1.29.55,2.47,1.39,3.34-.85.9-1.37,2.11-1.37,3.44,0,2.55.03,4.68.08,6.71v1.51c0,1.31.5,2.55,1.4,3.48-.95.91-1.5,2.17-1.53,3.5-.02,1.16-.05,2.33-.08,3.5-.06,2.35-.11,4.71-.13,7.06-.01,1.42.58,2.77,1.62,3.73.03.03.07.06.11.09-1,.88-1.65,2.15-1.71,3.57,0,.13-.01.26-.01.37-.02,1.13-.09,2.07-.22,2.88-.03.15-.04.31-.05.46-.1,1.43-.16,2.96-.18,4.57-.04.17-.06.33-.08.5-.21,1.72.4,3.43,1.64,4.66-.98.97-1.51,2.3-1.47,3.69.04,1.42.09,2.84.13,4.24.05,1.61.1,3.19.15,4.8.02.38.03.75.04,1.17.03,1.3.57,2.52,1.47,3.43-.84.93-1.3,2.15-1.28,3.42.04,2.33.06,4.67.08,7-.22,1.23-.02,2.51.6,3.64.16.3.35.59.57.86.18.22.38.43.6.62-1.04.94-1.64,2.28-1.64,3.7,0,.03,0,.06,0,.09,0,.24,0,.48.02.71.05,1.68.1,3.37.16,5.01.05,1.82.03,3.61,0,4.97-.02,1.17.37,2.3,1.09,3.21-.75.86-1.19,1.96-1.23,3.11-.07,1.9-.1,3.63-.11,5.28,0,.09,0,.17,0,.26.05,1.06.09,2.13.12,3.2.04,1.54.78,2.9,1.9,3.79-.04.04-.07.08-.11.12-1.07.98-1.67,2.39-1.62,3.84.03,1,.06,1.99.11,2.95.03.54.04.99.05,1.49-.14.76-.13,1.56.04,2.38l.03.15c0,.06.02.13.03.19.07.65.24,1.25.5,1.79.8,1.82,2.41,3.12,4.36,3.49.6.12,1.08.12,1.24.12.14,0,.28,0,.42-.02.59-.02,1.12-.09,1.55-.14.96.09,1.84,0,2.48-.09.48.04.96.02,1.43-.06h.15c1.05,0,2.1-.28,2.96-.86.81.52,1.77.81,2.76.79,1.73-.02,3.45-.06,5.18-.11,1.45-.04,2.89-.07,4.34-.09,1.14-.02,2.22-.42,3.08-1.12.86.72,1.95,1.14,3.09,1.17,1.54.04,2.69.16,4.02.29.78.08,1.57.16,2.52.23.87.05,1.76.08,2.73.08h.88c.25,0,.64-.01,1.11-.1.94-.18,1.8-.65,2.47-1.3.89.74,2.01,1.15,3.2,1.15.24,0,.48-.01.73-.03h.07s.03,0,.05,0l1.51-.07c1.93-.09,3.85-.18,5.79-.25.8.09,1.57.06,2.31-.08.22-.04.43-.1.64-.17.58-.19,1.22-.5,1.83-1,.83.72,1.88,1.16,3,1.22.8.04,1.59.11,2.39.17,1.69.13,3.45.27,5.17.27,1.44.03,3.03.03,4.86,0,1.37-.03,2.67-.62,3.59-1.62.96.91,2.22,1.4,3.59,1.38,2.37-.07,4.68-.12,6.96-.07.69.04,1.38.05,2.12.06,1.19.04,2.34-.39,3.24-1.13.97.69,2.17,1,3.36.89.12-.01.25-.03.37-.03.11,0,.22-.01.33-.03,1.1-.09,2.21-.19,3.32-.29,1.89-.17,3.68-.33,5.49-.44.49.02.97,0,1.44-.1.89-.14,1.72-.51,2.4-1.07.23-.17.44-.36.64-.56.94,1,2.26,1.57,3.64,1.57s2.98,0,4.44-.07h.22c.37-.02.37-.01.7,0h.18c2.52.21,4.11-.92,4.9-1.71,1.33-1.32,1.93-3.17,1.69-4.97,0-.07,0-.14,0-.19.05-.89.07-1.78.09-2.67.02-.88.05-1.77.09-2.63.04-.69.07-1.37.1-2.06.06-1.39-.46-2.73-1.42-3.72.99-.95,1.55-2.26,1.54-3.65-.01-1.74-.04-3.48-.07-5.22-.02-1.35-.04-2.7-.06-4.09,0-.51,0-1.01,0-1.52,0-1.33-.54-2.54-1.4-3.43.85-.9,1.38-2.11,1.38-3.45,0-2.14,0-4.44-.08-6.73v-1.49c0-1.31-.5-2.56-1.41-3.49.94-.91,1.49-2.16,1.52-3.48l.06-2.59c.06-2.66.13-5.31.16-7.97.02-1.41-.57-2.77-1.6-3.73-.04-.04-.09-.08-.13-.12,1-.88,1.65-2.15,1.7-3.57,0-.14.01-.26.01-.37.02-1.12.09-2.06.23-2.88.02-.14.04-.28.05-.43.12-1.57.17-3.2.2-4.66.03-.15.05-.3.07-.45.2-1.72-.4-3.42-1.64-4.65ZM6.19,91.02h0s0,0,0,0Zm76.23,72.83h0s.01-.06.02-.09c0,.03-.01.06-.02.09Z"/>
      <g>
        <g>
          <path class="cls-3" d="m127.63,6.33c0-.07,0-.1,0-.11.05.26.03.19,0,.11Z"/>
          <g>
            <path class="cls-3" d="m128.99,86.85c0,.1-.04.17-.1.23-.03,1.78-.08,3.49-.19,5.07-.19,1.16-.27,2.37-.3,3.61v.05c0,.07,0,.14,0,.21h-.05c-.07.14-.19.24-.39.23-1.32,0-2.63-.11-3.98.42-1.86.78-2.22,3.34-.31,5.06.74.8,2.42,1.19,4.08,1.49.17.04.29.19.32.36.02,0,.03,0,.04,0,.1,0,.21-.02.31-.03-.03,3.5-.14,7-.22,10.49-.1-.03-.19-.04-.29-.06-.05.1-.14.17-.25.22-.69.14-1.42-.05-2.13.09-1.3.12-2.64,1.06-2.61,2.35-.19,2.6.7,3.59,4.37,4.32.11.03.2.1.26.19.17,0,.36,0,.53-.02,0,.52,0,1.03,0,1.55.07,2.22.08,4.45.09,6.67-.04,0-.08-.02-.12-.02-.04,0-.1-.02-.14-.02-.04.16-.11.3-.21.41-.4.36-1,.18-1.49.21-1.14,0-2.03.24-2.61.74-1.63,1.46-1.32,3.39.43,4.47.71.53,1.58.69,2.54.89v-.26c.46.29.99.46,1.54.46h.07c0,.54,0,1.07,0,1.61.03,3.08.1,6.17.12,9.25-.14-.03-.28-.03-.43-.03-.04,0-.09,0-.13.02-.06.09-.13.16-.23.21-.49.17-.35.1-.73.03,0,0-.03,0-.11,0,0,0,0,0-.02,0-.02,0-.04,0-.06.02v-.03s-.03,0-.05,0h.03s0,0-.02,0c-.03,0-.07,0-.1-.02-.02,0-.08-.02-.23-.07-.02,0-.03,0-.03,0-.02,0-.03,0-.05,0-.07-.03-1.22-.05-1.18,0-2.65.24-4.03,2.41-2.9,4.36.96,1.67,2.84,2.29,5.33,2.69.04,0,.06.03.1.06h.05c.16,0,.43-.03.63-.07-.03.66-.06,1.32-.1,1.98-.1,1.79-.1,3.57-.18,5.35-.02.25,0,.52-.09.76.19.35.18.81-.15,1.12-.28.3-.69.3-1.06.27-.9-.03-.67-.03-1.53,0-1.44.05-2.88.06-4.33.06.07-.42.03-.83-.1-1.24.03,0,.06,0,.1,0-.24-.83-.56-1.22-1.33-1.97-.5-.42-.57-.5-1.31-.66-1.61-.37-4.09,1.16-4.39,3.47-.05.24-.22.41-.42.5,0,0,0,.02,0,.03h-.08c-.16.06-.33.07-.5.03-3.14.17-6.27.51-9.41.76-.03,0-.05,0-.08,0-.2.02-.41.03-.61.05,0-.03,0-.07,0-.11,0-.05,0-.1,0-.17,0-.03.03-.08.03-.11.03-.11.04-.23.06-.35-.02-.52.1-1.08-.16-1.6-.56-1.56-2.44-2.06-3.73-1.44-1.09.63-2.06,1.94-2,2.94,0,.3-.17.53-.43.64.05.14.1.28.16.41-.67,0-1.33-.02-2-.05-2.43-.06-4.86,0-7.31.07,0-.04.02-.08.02-.12v-.07c-.12-.05-.23-.13-.27-.26-.1-1.27-.28-2.24-1.01-3-1.4-1.72-3.15-1.6-4.53-.05-.03.03-.05.07-.08.1-.28.36-.63,1.03-.57.96-.19.79-.33,1.33-.35,1.72-.03.32-.18.51-.37.61,0,.11,0,.23.03.34-1.55.03-3.12.04-4.67,0-2.48,0-4.93-.29-7.38-.43.07-.23.12-.48.1-.72,0-.03,0-.04,0-.06-.05-.36-.14-.7-.28-1.04-.29-.63-.45-.84-.77-1.18-.44-.41-.38-.39-.97-.7-.03,0-.04-.02-.04-.02-1.63-.88-3.38.34-3.84,1.9-.28.61-.14,1.58-.89,1.83-.42.08-.83.03-1.12-.02-2.6.09-5.19.22-7.77.34h-.02c-.2,0-.4.03-.6.03.03-.09.07-.17.1-.26-.18-.22-.26-.55-.1-.96.11-.35-.21-1.7-.7-2.08-.8-.84-2.34-.98-3.29-.47-1.59,1.02-1.87,1.83-2.34,3.54-.04.2-.17.33-.33.41,0,.02.02.04.03.06-.05,0-.1,0-.15,0h-.88c-.81,0-1.62-.02-2.43-.07-2.37-.17-4.05-.46-6.71-.53.02-.13.04-.26.03-.39,0,0-.02,0-.03-.02,0,0-.03,0-.05-.04-.05-.04-.09-.09-.12-.15-.23-.23-.22-.58-.3-.88-.02-.12-.15-.47-.19-.6-.43-.97-.65-1.45-1.77-1.7-1.12-.36-3.74.7-3.94,2.91,0,.15-.06.26-.16.34,0,.07.02.13.03.2.03.1.07.19.11.29-3.16.04-6.33.16-9.5.2.04-.07.1-.13.15-.21t0-.02s-.08-.04-.1-.09c-.36-.79.03-1.42-.39-2.23-.39-.99-1.94-2.01-3.15-1.73-1.3.27-1.86.71-2.12,1.86-.05.43.06,1.32-.19,1.94.09.19.18.37.3.54-.3,0-.59,0-.89.02-.11.03-.23.07-.38.07-.07,0-.14-.02-.21-.03h0s-.06,0-.16-.03h-.03s-.17,0-.28.02h-.03c-.53.07-1.44.23-2.02.07-.1,0-.2,0-.3,0h-.02c-.55.06-1.1.16-1.66.17-.05,0-.03,0,0,0-.05,0-.11.02-.17.02s-.17,0-.31-.03c-.36-.06-.65-.36-.76-.7-.07-.08-.09-.26-.09-.41,0-.03-.02-.06-.02-.08,0-.03-.02-.06-.02-.08,0,0,.02.03.02.04,0-.09-.04-.25-.13-.6-.05-.23,0-.42.09-.56,0-.83,0-1.53-.05-2.46-.05-.93-.09-1.88-.11-2.83.06,0,.11.02.17.03,0-.16.08-.31.22-.41.2-.15.5-.17.74-.16,1.89-.35,3.19-1.09,3.59-2.55.61-2.58-1.46-4.61-4.35-4.4-.2,0-.36-.1-.45-.25-.03,0-.06,0-.09,0-.03-1.1-.06-2.2-.11-3.29,0-1.7.05-3.41.1-5.13.09.02.16.03.25.03.07-.21.23-.37.48-.39.03,0,.04,0,.07,0,1.09,0,2.03-.06,2.58-.34,1.42-.77,2.02-2.28,1.48-3.88-.55-.92-2.47-1.64-4.11-1.42-.26,0-.44-.19-.5-.41h-.1c.03-1.73.03-3.47-.02-5.2-.07-1.76-.12-3.52-.17-5.27-.02-.06-.03-.13,0-.19,0-.07,0-.14,0-.21.03,0,.06.02.09.03,0-.02.02-.03.03-.05.06-.05.14-.09.22-.11.1-.04.23-.08.34-.1,1.07-.05,1.53-.04,2.57-.44.67-.23,2.24-1.25,2.02-2.79-.03-2.39-2.26-4.08-4.98-3.83-.17,0-.31-.09-.41-.21h0c-.12-.18-.15-.43,0-.61-.03-2.59-.05-5.19-.1-7.77.12.02.24.03.36.03.1-.09.23-.14.36-.14.78.04,1.55.16,2.34.15,1.5-.04,2.56-.77,2.81-2.39.05-.62.06-1.12-.03-1.44-.37-1.33-1.6-2.19-2.96-2.65-.48-.18-1.25-.3-1.62-.35h-.02c-.08,0-.08,0-.05-.03-.43.09-.63,0-.82,0-.14,0-.24-.05-.32-.11-.08.02-.17.02-.24.04-.02-.43-.03-.85-.04-1.28-.08-2.84-.19-5.91-.28-8.96.1.03.19.04.29.06.02-.03.03-.05.05-.07.2-.23.5-.15.76-.1h.02c2.21.23,4.39-.08,5.13-1.22.66-.89.64-1.87.38-3.01-.15-.45-.26-.64-.68-1.09-.37-.36-.85-.66-1.6-1.02-1.37-.56-2.14-.43-3.51-.74-.03.03-.05.06-.09.1,0,0,0,0,0,.02-.03.02-.05.02-.07.03-.03.02-.05.04-.08.05-.03.02-.03.02-.04.02,0,0-.03.02-.04.03-.38.11-.76-.3-.71-.67,0-.1.05-.17.1-.23.02-1.78.07-3.49.18-5.07.19-1.16.27-2.37.3-3.61v-.04c0-.07,0-.14,0-.21h.05c.07-.14.2-.24.4-.23,1.31,0,2.62.11,3.98-.42,1.86-.78,2.22-3.34.31-5.07-.75-.79-2.43-1.18-4.09-1.49-.17-.04-.29-.19-.32-.36-.02,0-.03,0-.04,0-.1,0-.21.02-.31.03.03-3.5.14-7,.22-10.49.1.03.19.04.29.06.06-.1.14-.17.25-.22.69-.14,1.43.05,2.13-.09,1.3-.12,2.64-1.06,2.61-2.35.19-2.6-.69-3.59-4.36-4.32-.12-.03-.2-.1-.26-.19-.18,0-.36,0-.54.02,0-.52.02-1.03,0-1.55-.06-2.22-.08-4.44-.08-6.66.03,0,.07.02.11.02.05,0,.1.02.15.03.03-.16.1-.3.2-.42.4-.36,1-.18,1.49-.21,1.14,0,2.03-.24,2.61-.74,1.64-1.46,1.32-3.39-.43-4.47-.71-.53-1.57-.7-2.54-.89v.26c-.45-.3-.98-.46-1.54-.46h-.06c0-.54,0-1.08-.02-1.61-.03-3.08-.1-6.17-.12-9.25.14.02.29.03.43.03.04,0,.1,0,.14-.02.05-.09.13-.16.22-.21.49-.17.35-.1.73-.04,0,0,.04,0,.11.02,0,0,.02,0,.02,0,.03,0,.04,0,.06-.02v.03s.03,0,.06,0h-.04s.02,0,.03,0c.03,0,.06,0,.1.02,0,0,.07.02.22.07t.03,0s.03,0,.05,0c.08.03,1.22.05,1.18,0,2.65-.24,4.03-2.41,2.9-4.36-.96-1.67-2.84-2.29-5.33-2.69-.03,0-.06-.03-.1-.06-.02,0-.03,0-.04,0-.16,0-.43.03-.64.08.03-.66.06-1.32.1-1.98.1-1.79.1-3.57.19-5.35.02-.25,0-.51.08-.75-.19-.35-.18-.81.15-1.13.28-.3.69-.31,1.07-.27.9.03.66.03,1.52,0,1.44-.05,2.88-.06,4.33-.06-.07.42-.03.83.1,1.24-.03,0-.06,0-.1,0,.24.83.56,1.22,1.33,1.97.51.42.57.5,1.32.66,1.6.37,4.08-1.16,4.38-3.47.06-.24.22-.41.42-.5v-.03h.07c.16-.06.33-.07.5-.03,3.14-.17,6.28-.51,9.42-.77h.07c.21-.02.41-.03.62-.05,0,.03-.02.07-.02.11v.16s-.03.08-.03.11c-.03.11-.04.23-.06.35.03.52-.1,1.08.17,1.6.56,1.55,2.44,2.06,3.74,1.43,1.08-.63,2.05-1.93,1.99-2.94,0-.3.18-.53.43-.64-.04-.14-.1-.28-.17-.42.67,0,1.33.02,2,.06,2.43.06,4.87,0,7.31-.07,0,.04-.02.08-.02.12v.07c.12.05.23.13.28.26.1,1.27.28,2.24,1,3,1.4,1.72,3.16,1.6,4.53.04.03-.03.05-.06.08-.1.26-.34.58-.95.58-.96,0,0,0,0,0,0,.2-.79.33-1.33.35-1.72.03-.32.18-.51.37-.61,0-.11,0-.23-.03-.34,1.56-.03,3.12-.04,4.67,0,2.48,0,4.93.29,7.38.43-.07.23-.11.47-.1.72,0,.02,0,.04,0,.06.06.36.15.7.28,1.04.3.63.45.84.77,1.18.44.41.39.39.97.69h.02s.02,0,.03.02c1.63.88,3.39-.34,3.84-1.9.28-.61.14-1.58.9-1.83.41-.08.83-.04,1.11.02,2.6-.09,5.19-.22,7.77-.34h.02c.2-.02.4-.03.6-.03-.03.09-.07.17-.1.26.18.22.27.55.11.96-.12.35.21,1.7.69,2.08.8.84,2.34.98,3.29.47,1.6-1.03,1.87-1.83,2.34-3.54.04-.2.17-.33.33-.41,0-.02-.02-.04-.03-.06.1,0,.21,0,.3,0h.11c1.02,0,2.02,0,3.04.06,2.37.18,4.05.47,6.71.54-.02.13-.03.26-.03.39,0,0,.03,0,.03.02,0,0,.02,0,.05.04.04.04.09.09.11.15.24.23.22.58.31.88,0,.12.14.47.18.6.43.97.65,1.45,1.77,1.7,1.13.36,3.74-.71,3.94-2.91,0-.15.06-.26.15-.34,0-.07-.02-.13-.03-.2-.03-.1-.07-.19-.11-.29,3.17-.04,6.34-.16,9.51-.2-.05.07-.11.13-.16.21,0,0,0,0,0,.02.03.03.08.04.1.09.36.79-.03,1.42.39,2.23.39.99,1.94,2,3.15,1.73,1.3-.27,1.86-.71,2.12-1.86.05-.43-.06-1.32.19-1.94-.08-.19-.17-.37-.3-.54.3,0,.59,0,.89-.02.11-.03.23-.07.38-.07.08,0,.14.02.21.03h0s.02,0,.03,0c.03,0,.07,0,.14.02h.03s.17,0,.28-.02h.03c.53-.07,1.45-.23,2.02-.07.08,0,.17,0,.23,0h0s.05,0,.08,0c.56-.05,1.1-.15,1.66-.16.05,0,.03,0,0,0,.06,0,.11-.02.17-.02.06,0,.17,0,.31.03.37.06.65.36.76.7.07.09.08.31.08.47,0,.02,0,.03.02.05.02.09.05.25.14.6.05.23,0,.42-.09.56,0,.83,0,1.53.05,2.46.05.93.08,1.88.11,2.82-.06,0-.11,0-.17-.02,0,.16-.08.31-.23.41-.2.15-.5.17-.74.16-1.89.35-3.19,1.09-3.59,2.55-.61,2.58,1.46,4.61,4.35,4.4.2,0,.36.1.45.25.03,0,.06,0,.1,0,.03,1.1.06,2.2.1,3.29,0,1.7-.05,3.41-.1,5.12-.08-.02-.17-.02-.25-.03-.06.21-.23.37-.48.39-.02,0-.04,0-.07,0-1.08,0-2.03.06-2.58.33-1.42.78-2.01,2.29-1.48,3.89.55.92,2.47,1.64,4.11,1.42.26,0,.44.19.5.41.03,0,.06,0,.1,0-.03,1.74-.03,3.47.02,5.21.07,1.76.12,3.52.17,5.28.02.06.03.12,0,.18,0,.07,0,.14,0,.21-.03,0-.06-.02-.09-.03,0,.02-.02.03-.03.05-.06.05-.13.09-.21.11-.11.04-.23.08-.35.1-1.07.05-1.52.04-2.57.44-.66.23-2.24,1.25-2.02,2.79.03,2.38,2.26,4.08,4.99,3.83.17,0,.31.09.4.21h0c.12.18.14.43,0,.61.03,2.59.06,5.19.1,7.77-.12-.02-.24-.03-.36-.03-.1.09-.23.14-.36.14-.77-.04-1.55-.17-2.34-.15-1.5.04-2.56.77-2.81,2.39-.06.62-.07,1.12.02,1.44.37,1.32,1.6,2.19,2.97,2.65.47.18,1.24.3,1.61.35h0c.1,0,.1,0,.06.03.43-.09.63,0,.83,0,.14,0,.23.05.31.12.08-.02.16-.03.24-.04.02.43.03.85.04,1.28.08,2.84.19,5.91.28,8.96-.1-.03-.19-.04-.29-.06-.02.03-.03.05-.05.07-.2.23-.5.15-.76.1h-.02c-2.21-.23-4.39.08-5.13,1.21-.65.9-.63,1.88-.37,3.01.15.45.25.64.68,1.09.37.36.84.66,1.59,1.02,1.37.56,2.14.43,3.52.73.02-.03.04-.06.08-.09t.02-.02s.04-.03.07-.03c.03-.02.04-.04.08-.05.02-.02.03-.02.03-.02.02,0,.03-.03.04-.03.39-.11.76.3.71.67Z"/>
            <path class="cls-1" d="m111.62,126.81c.1-5.96.29-11.99-.17-17.94.31-7.21.65-14.41.73-21.62.36-13.17.2-20.44.33-34.2.32-7.56.11-15.98-.08-23.56-.01-1.27-.04-2.55-.05-3.82.09-.43.14-.92.14-1.09.14-.64.04-1.17-.19-1.59,0-.12-.01-.25-.02-.39-.08-.59.15-1.23-.14-1.78-.12-.34-.35-.59-.62-.76-.22-.62-.65-1.18-1.33-1.58-.72-.36-1.5-.53-2.29-.33-.29,0-.54,0-1.39.33,0,0-.01,0-.02,0,.13-.05.26-.11.39-.16-.17.06-.35.12-.52.17-1.03.09-2.57.28-1.06.09-.65.09-1.31.15-1.96.2-6.49-.04-12.99-.34-19.44.44-1.91.07-3.82.13-5.74.18-.11-.1-.25-.17-.42-.17-3.35.27-6.72-.04-10.08.08-3.5.14-6.99.55-10.5.6-5.93.32-11.31.02-16.02.89-2.1-.03-4.07-.12-6-.31,0,0,.02,0,.02,0-.03,0-.06,0-.09,0-3.92.13-4.15.06-6.59.28-.43-.02-.47-.01-.35,0-.42-.02-.85.01-1.27.12-.21.04-.4.11-.6.18.03-.01.06-.03.09-.04-.06.01-.11.05-.17.06-.01,0-.03.01-.04.02-.22.07-.44.17-.64.28,0,0,0,0-.01,0,0,0,0,0,.01,0-.12.07-.23.13-.34.21-1.69-.68-3.95.2-4.42,2.14-.26.58.03,2.07.01,1.71.02.14.04.25.05.35.06.52.11,1.05.15,1.57.16,2.2.08,2.95.33,6.68,1.31,13.99-.55,27.99-.2,42,0,14.25.07,28.5.4,42.75.2,9.39-.15,18.79.13,28.18-.08,2.85,2.94,4.78,5.28,3.46,6.43.41,12.86.19,19.29-.03,5.35.29,10.15.49,17.28.52,5.95.03,9.22-.19,15.71-.59,2.14-.15,4.28-.15,6.42-.25-.24-.03-.48-.06-.72-.1,2.4.26,4.89-.3,7.32-.37,3.84-.34,7.69-.43,11.54-.55.84-.01,1.67-.05,2.51-.09.14.01.27.01.4,0,.34,0,.64-.05.94-.13.48.23.99.29,1.47.2.01.06.02.12.04.17.7,1.89,3.67,1.29,3.63-.73-.86-6.69-1.23-13.89-1.13-21.68Z"/>
          </g>
          <g>
            <g>
              <path class="cls-3" d="m98.82,58.99c-2.37-1.75-3.84-4.83-4.54-7.58-.1-.38-.17-.77-.23-1.16-.06-.37-.09-.74-.15-1.11-.08-.47.05.26-.04-.17-.19-.98-.32-1.97-.46-2.95-.05-.38-.14-.75-.22-1.13-.63-.97-1.39-1.86-2.37-2.67-1.23-1.01-3.01-2.04-4.61-2.87-1.7-.88-3.44-1.88-5.26-2.5-2-.67-4.11-1.05-6.17-1.48-2.04-.43-4.11-1.03-6.19-1.22-.22-.02-.43-.01-.65-.02-2.12.3-4.24.74-6.34,1.32-1.47,1.13-3.06,2.06-4.7,2.92-.22.12-.44.18-.65.23-.83.81-1.69,1.6-2.48,2.45-.85,1.16-1.66,2.36-2.35,3.67-1.01,1.9-1.89,3.87-2.72,5.86-.2.6-.39,1.2-.56,1.8-.65,2.22-.95,4.51-1.58,6.73-.08.29-.23.53-.42.73-.32,1.85-.7,3.68-1.3,5.45-.78,2.3-3.4,4.34-5.96,3.38-.68-.24-1.35-.51-2.01-.81-.19-.14-.34-.26-.47-.37h-.01c.14.12.3.25.5.41-.37.04-.75.08-1.12.1-.1.08-.2.17-.29.25-.07.13-.16.25-.28.36-.25.31-.52.61-.79.91-.13.14-.27.29-.41.43-.06.06-.12.11-.17.16-.47,1.42-.79,2.88-1.04,4.36-.09.53-.15,1.07-.22,1.61.34.31.58.77.61,1.38.19,3.67-.19,7.32-.39,10.97.11,1.12.23,2.23.4,3.34.25,1.59,1.03,3.72.25,5.21,0,.02-.02.02-.03.04.13.86.27,1.71.43,2.56.15.14.29.29.38.48.81,1.67,1.73,3.26,2.72,4.82.29.46.59.92.88,1.38.03,0,.06.03.09.04,1,.28,2.54.26,3.46-.25.24-.69.53-1.37.88-2.01.64-1.17,1.54-2.05,2.4-3.05,1.36-1.58,3.95-.64,4.48,1.18.27.94.19,1.76.04,2.6.21.31.34.67.35,1.04.06,1.55.11,3.1.18,4.65.07,1.65.24,3.35-.01,4.99-.04.27-.18.5-.38.69,0,.11.01.21.02.32.03.67.1,1.33.19,1.98.16.05.32.11.46.19.51.3.84.78,1.03,1.34.11.32.23.64.35.96.25.1.48.25.67.43.03.03.07.06.1.09.17-.16.36-.32.56-.44.07-.04.15-.08.23-.11.01-.38.12-.78.36-1.19,1.69-2.81,1.36-6.37,2.18-9.44.25-.93,1.32-1.92,2.35-1.79.13.02.26.03.39.04.96.1,2.14.66,2.3,1.75.77,5.23,1.15,10.56,2.35,15.72.5,2.16,1.15,4.27,1.8,6.39.16.09.31.19.45.32.63.55,1.28,1.08,1.94,1.59.61.46,1.22.91,1.8,1.41.19.16.36.35.54.53.52.1,1.04.18,1.56.21.18-.45.53-.86,1.09-1.15,1.36-.7,3.41-1.46,4.15-2.89.4-.78.51-1.87.67-2.75.21-1.11.39-2.24.59-3.35.77-4.12,1.66-8.21,2.51-12.31.4-1.93.86-3.87,1.53-5.73.7-1.94,1.75-4.4,3.92-5.02,1.22-.35,2.53.06,3.41.97.57.59.86,1.35,1.35,1.98,1.01,1.31,2.26,2.25,3.83,2.68,1.1.3,2.18-.16,3.08-.92.98-.83,1.66-2.18,2.46-3.37.61-6.74,1.13-13.49,1.26-20.26.14-7.54-.44-13.96-.21-21.44-.96-.57-1.08-2.68-1.77-3.89Z"/>
              <path class="cls-7" d="m65.45,65.14c-3.57-.05-6.99,1.09-10.22,2.54-.06.02-.19.07-.43.17-4.34,1.68-8.44,3.91-12.64,5.9-1.17.32-2.3.81-3.5,1.04-.59.14-1.19.27-1.79.37-.18.02-.36.04-.54.06-.46.03-.92.03-1.39.03-.23-.04-.45-.11-.67-.17-.12-.07-.24-.15-.35-.23-.02-.02-.04-.03-.06-.05-.06-.05-.17-.15-.35-.31-.12-.11-.23-.25-.34-.37-.1-.16-.18-.32-.27-.48-.05.28-.11.55-.15.83-.09.53-.15,1.07-.22,1.61.34.31.58.77.61,1.38.19,3.67-.19,7.32-.39,10.97.11,1.12.23,2.23.4,3.34.25,1.59,1.03,3.72.25,5.21,0,.02-.02.02-.03.04.13.86.27,1.71.43,2.56.15.14.29.29.38.48.81,1.67,1.73,3.26,2.72,4.82.29.46.59.92.88,1.38.03,0,.06.03.09.04.66.19,1.56.24,2.36.1.07-.15.14-.3.19-.46,2.76-6.01,8.66-11.03,15.43-14.13.34-.1.65-.27.94-.47,1.91-1.09,3.84-2.17,5.74-3.27,2.45-1.28,4.94-2.55,7.11-4.28-.28.21-.55.43-.83.64,1.53-1.04,3.11-2.08,4.22-3.59,6.31-7.37,1.98-15.87-7.61-15.69Z"/>
              <path class="cls-7" d="m76.18,132.4c.4-.78.51-1.87.67-2.75.21-1.11.39-2.24.59-3.35.77-4.12,1.66-8.21,2.51-12.31.4-1.93.86-3.87,1.53-5.73.7-1.94,1.75-4.4,3.92-5.02,1.22-.35,2.53.06,3.41.97.57.59.86,1.35,1.35,1.98,1.01,1.31,2.26,2.25,3.83,2.68,1.1.3,2.18-.16,3.08-.92.98-.83,1.66-2.18,2.46-3.37.61-6.74,1.14-13.49,1.26-20.26,0-.16,0-.32,0-.48-1.13,1.99-2.27,3.71-3.11,4.4-4.07,3.61-11.07,5.51-17.07,9.3-3.18,2.09-6.08,4.67-8.05,7.96-.91,1.53-1.61,3.18-2.23,4.85-.33.76-.54,1.56-.69,2.38-.68,3.84-.79,7.76-.3,11.63.27,3.73,1.28,7.7,3.71,10.42,1.21-.59,2.56-1.29,3.13-2.39Z"/>
              <path class="cls-8" d="m86.19,39.33c-1.7-.88-3.44-1.88-5.26-2.5-2-.67-4.11-1.05-6.17-1.48-2.04-.43-4.11-1.03-6.19-1.22-.22-.02-.43-.01-.65-.02-2.12.3-4.24.74-6.34,1.32-1.47,1.13-3.06,2.06-4.7,2.92-.22.12-.44.18-.65.23-.83.81-1.69,1.6-2.48,2.45-.85,1.16-1.66,2.36-2.35,3.67-1.01,1.9-1.89,3.87-2.72,5.86-.2.6-.39,1.2-.56,1.8-.42,1.45-.7,2.93-1.01,4.4.79-.16,1.57-.33,2.35-.52,3.3-.74,6.54-1.67,9.84-2.4,3.06-.72,6.01-1.79,8.9-3.01,1.08-.29,2.05-1.01,3.03-1.55,2.41-1.44,4.73-3.02,7.14-4.46,4.4-2.47,2.91-1.88,7.16-3.33.63-.17,1.27-.31,1.9-.44.17-.02.35-.04.52-.07.36-.03.71-.04,1.07-.05-.91-.57-1.9-1.12-2.82-1.6Z"/>
              <path class="cls-8" d="m99.32,59.81c-.03.09-.06.18-.09.28-.44,1.39-.61,2.86-.65,4.33-.3,2.36.17,1.66-1.36,6.99-.09.26-.19.51-.29.77-.17.36-.35.72-.54,1.08-3.41,5.59-1.79,3.35-5.12,7.09-1.22,1.24-3.36,3.72-7.48,7.03q-4.03,2.58-6.2,4.22c-2.33,1.72-4.49,3.68-6.28,5.96-5.51,6.54-9.14,15.51-9.27,24.31.23,1.39.49,2.77.8,4.14.5,2.16,1.15,4.27,1.8,6.39.16.09.31.19.45.32.63.55,1.28,1.08,1.94,1.59.61.46,1.22.91,1.8,1.41.19.16.36.35.54.53.51.1,1.03.17,1.56.21.18-.45.53-.86,1.09-1.15.64-.33,1.43-.68,2.16-1.1-.22-.25-.45-.51-.68-.79-.33-.46-.88-1.23-1.08-1.62-.28-.37-.71-1.26-.93-1.73-.04-.1-.08-.19-.11-.29-2.21-5.53-.68-13.9.52-16.83,3.88-8.34,5.52-10,12.67-13.91,4.93-2.72,5.31-2.39,11.59-5.39,3.5-1.91,3.46-1.84,4.37-2.61.12-2.24.2-4.47.24-6.71.14-7.55-.22-14,0-21.49-.74-.44-.91-2.17-1.48-3.02Z"/>
              <path class="cls-5" d="m80.93,36.83c-2-.67-4.11-1.05-6.17-1.48-1.55-.33-3.13-.75-4.71-1.02-.15.12-.29.25-.44.38-3.38,2.53-10.85,6.56-17.78,9.26-.14.25-.29.49-.43.74-1.01,1.89-1.88,3.84-2.71,5.83-.07.2-.13.39-.19.59.09-.36.22-.99.33-1.29.12-.5.85-2.46.68-2.01.44-1.26,2.77-5.19,3.88-6.45.22-.27.46-.53.57-.86.15-.5-.32-1.04-.84-.92-1.27.45-1.7,1.11-2.78,1.93-.13.11-.24.22-.36.32-.35-.08-.73,0-1.01.31-.43.4-.88.84-1.33,1.3-.48.3-.95.64-1.4,1-2.4,1.81-4.41,4.29-6.22,6.9-1.07,1.5-1.97,3.14-2.49,4.91-.17.55-.3,1.19-.41,1.86-.36,1.06-.61,2.12-.72,3.17-.37,1.29-.58,2.53-.56,3.69-.26.72-.48,1.45-.62,2.21-.18,1.42,1.48,1.68,2.03.86,1.05.57,2.51.57,3.59.14.04-.02.08-.04.12-.06.05.36.41.66.79.62.04,0,.08,0,.12-.02,0,0,0,0,0,0,0,0,0,0,0,0h.01c.13,0,.18-.03.11-.02.33-.05.64-.21.89-.43,1.18-1.2,2.02-2.77,2.61-4.34.35-1.04.49-1.75.56-2.38.01-.36.18-.82-.06-1.12.66-2.39,1.33-4.78,1.89-7.18-.16.81.35-.95.52-1.75,2.08-.34,3.99-.71,5.49-.96,6.65-1.34,13.24-3.34,19.01-6.99,2.92-1.85,5.46-4.23,8.11-6.43.06-.05.13-.11.21-.18-.1-.04-.19-.08-.29-.11Z"/>
              <path class="cls-5" d="m98.82,58.99c-.52-.38-.99-.83-1.43-1.32-.5,2.74-.31,1.74-.77,3.93-2.41,8.88-5.03,14.48-12.2,20.51-2.85,2.44-10.21,6.63-14.1,11.04-4.42,4.87-7.31,9.66-9.02,15.1-.28.78-.53,1.56-.77,2.35.74,5.13,1.13,10.35,2.31,15.41.5,2.16,1.15,4.27,1.8,6.39.16.09.31.19.45.32.16.14.33.27.5.41-.2-1.18-.42-2.44-.69-3.9-.8-3.75-1.05-5.72-1.06-9.96-.04-1.9.12-5.37,1.28-8.62,1.62-4.54,4.71-9.84,8.23-14.06,2.44-2.29,3.86-3.28,7.03-5.64,3.45-2.32,6.94-4.62,9.86-7.61,5.09-5.13,6.94-7.38,10.21-15.24.24-.55.48-1.1.71-1.66.04-1.55-.78-1.79-.73-3.33-.96-.57-.9-2.89-1.59-4.1Z"/>
              <path class="cls-6" d="m90.8,42.2c-.76-.62-1.72-1.25-2.73-1.84-6.76.23-12.58,4.39-18.91,8.88-3.26,2.41-5.77,3.7-9.57,4.5-3.38.68-5.87.58-9.99,2-.89.31-1.71.66-2.5,1.03-.15.71-.32,1.42-.51,2.13.85-.32,1.71-.64,2.56-.94,3.99-1.34,8.23-1.58,12.28-2.65,3.55-.91,6.82-2.56,9.85-4.61,5.48-3.32,11.77-6.86,16.32-7.23,1.59-.19,3.38.15,5.03.63-.52-.67-1.12-1.3-1.83-1.89Z"/>
              <path class="cls-6" d="m95.86,55.47c-.08.72-.17,1.41-.23,2.06-.14,1.45-.24,1.62-.3,2.66,0,1.13-.04,1.28-.31,2.35-1.64,6.63-4.91,12.09-9.75,16.96-3.12,3.14-6.39,6.14-9.79,8.98-2.29,1.72-5.47,4.13-7.7,6.16-2.18,1.95-4.2,4.12-5.65,6.67-1.28,2.36-2.1,4.94-2.94,7.49.64.28,1.19.76,1.29,1.49.09.64.18,1.29.27,1.93.45-1.69.96-3.38,1.54-5.03,1.08-3.57,2.55-6.17,4.64-8.62,4.17-4.89,11.73-10.93,17.31-15.92,2.58-2.41,4.99-4.67,6.69-7.18,1.89-2.64,3.06-5.7,4.07-8.77.51-1.23,1.29-3.76,1.85-5.19.33-.56.8-1.74.97-3.34,0-.01,0-.02,0-.03-.77-.77-1.42-1.68-1.96-2.66Z"/>
              <path class="cls-6" d="m76.48,72.35c-.56-2.94-2.47-5.09-4.42-6.13-1.89-1.09-4.03-1.87-6.25-1.71-1.9.02-4.5.8-6.49,1.6-3.61,1.31-6.91,2.51-10.15,3.85-4.12,1.53-7.71,3.61-11.73,3.54-.45,0-1.42-.21-1.82-.49-.44-.23.07-.11-.74-.45.06.02.38.17.2.06-.39-.23-.17-.26-.57-.51-.01-.02-.06-.06-.15-.15-.05-.06-.09-.1-.12-.13-.03-.04-.06-.08-.09-.13,0,0,0,0,0,0-.07-.49-.14-.73.07-1.49.05-.19.04-.36,0-.5-.08.08-.16.17-.24.25-.06.06-.12.11-.18.17-.35,1.07-.62,2.17-.84,3.28,1.45,2.9,6.26,3.23,11.26.61,2.94-1.71,6.81-3.44,8.85-4.27,1.89-.76,4.55-1.97,6.79-2.61,7.04-1.92,12.37-.28,14.25,5.51.9,2.21-.74,6.29-2.58,8.02-4.86,4.61-10.86,7.96-16.97,11.77-3.2,1.97-5.06,2.7-8.1,5.43-.88.63-3.53,4.27-4.75,7.07-.18.37-.36.76-.53,1.18.06-.03.12-.05.17-.08.24-.69.53-1.37.88-2.01.64-1.17,1.54-2.05,2.4-3.05.88-1.02,2.27-.98,3.29-.34,1.83-2.42,3.83-4.19,6.4-6.41,2.86-2.1,7.42-4.99,11.01-7.23,5.81-3.63,12.18-8.5,11.14-14.66Z"/>
            </g>
            <path class="cls-1" d="m37.65,95.94c-1.08-2.86-1.3-4.8-1.45-7.81-.07-.46-.01-1.05-.48-1.31-.58-.37-1.37.24-1.17.9.13,1.32.35,4.39.54,6.44.23,1.4.36,3.03,1.37,4.11.52.46,1.42.14,1.59-.52.08-.78-.12-.81-.4-1.81Z"/>
            <path class="cls-1" d="m35.96,81.53c-.48-.51-1.39.01-1.18.69.1.23-.07.4.44.69.8.35,1.24-.87.74-1.38Z"/>
            <path class="cls-1" d="m44.82,48.17c-.88.37-2.27,2.28-3.06,3.69-1.78,2.98-3.29,6.15-4.23,9.5-.1.53-.29,1.11-.16,1.64.2.55,1.09.38,1.07-.22.45-3.22,2.56-6.75,4.74-9.93.42-.51,2.23-2.65,2.56-3.28.15-.23-.04.03-.06.05.08-.08.14-.17.18-.28.32-.63-.36-1.38-1.02-1.17Z"/>
            <path class="cls-1" d="m47.83,45.51h.04s-.07-.02-.12-.02c-.04,0-.08,0-.11,0-.07,0-.12,0-.15,0-.03,0-.06.01-.1.02-1.73.38-.8,2.76.64,1.69.2-.16.37-.37.44-.62,0,0,0,0,0,0,.15-.49-.2-.94-.64-1.06Z"/>
            <path class="cls-1" d="m94.69,58.7c-.51-.69-1-1.41-1.36-2.19-.32-.67-.72-1.66-1.02-2.88-.24-.75-.19-1.62-.54-2.31-.47-.69-1.62-.11-1.37.68.41,2.28.94,4.58,2.13,6.59.54.75,1.3,2.61,2.43,1.7.57-.84.07-1.04-.26-1.59Z"/>
            <path class="cls-1" d="m89.89,46.74s0,0,0,0c0-.05-.01-.09-.02-.14-.01-.08-.03-.17-.05-.3-.15-.42-.29-.91-.67-1.18-.94-.82-2.38.46-1.72,1.51.22.35.51.67.84.93.02.01.03.04.05.05.01.01.03.02.05.03.02.01.03.03.05.05-.01-.01-.02-.02-.03-.03.51.38,1.33.07,1.48-.56.02-.11.03-.23.02-.34Z"/>
          </g>
          <g>
            <g>
              <path class="cls-5" d="m78.13,148.68c.12-.04.28-.1.36-.15-.12.05-.24.1-.36.15Z"/>
              <path class="cls-5" d="m112.35,98.77c.03-.88.05-1.76.08-2.64-.08-.16-.11-.27-.2-.46-.54-.8-.58-3.06-.17-3.96.08-.24.32-.67.51-1.01.02-.66.03-1.31.04-1.97-.19.03-.36.12-.46.3-.54.8-.98,1.7-1.24,2.63-.28,1.43-.31,3.74-.08,4.6.32.94.92,1.73,1.52,2.5Z"/>
              <path class="cls-5" d="m69.52,151.21c.23,0,.46-.02.7-.03,2.95-.85,5.89-1.57,7.15-2.19.25-.11.5-.21.76-.32,0,0-.02,0-.02,0,.26-.09.49-.22.71-.38-.29.24.65-.35.99-.58.33-.21.68-.45.95-.74,0,0,0,0,.02-.01.24-.23.55-.55.27-.34.1-.08.2-.16.28-.26,0,0,0,0,.02-.02.47-.64.92-.87,1.82-2,1.48-2.08,3.11-5.38,4.23-8.5.64-1.95,1-3.99,1.13-6.03.08-1.7-.06-3.5.41-4.8.67-2.17,1.8-3.64,3.3-4.74-.28.31-.54.64-.75.99-.93,1.61-1.79,3.31-2.19,5.14-.5,2.48-.23,5.03-.26,7.53.13,3.74-.97,8.06-2.84,10.68-.84,1.1-1.93,1.97-3.01,2.83-.42.33-1.99,1.55-3.24,2.08-.92.51-3.29,1.14-4.16,1.21-.99.12-1.59.18-2.75.21-.12,0-.23.05-.33.12,2.48-.1,4.95-.21,7.43-.35,2.67-1.19,4.97-3.11,6.92-5.59,3.56-4.86,2.39-11.17,2.64-16.8.07-2.01.78-3.85,1.78-5.69.29-.51.46-.68.87-1.14,1.89-1.91,4.33-2.5,5.62-2.67,3.57-.19,5.34.45,9.22-.14.65-.08.94-.15,1-.22.76-.12.39-.12,1.86-.73.27-.14.48-.25.54-.3.46-.23.85-.59,1.27-.9.1-.08.2-.17.3-.25-.09-4.52-.02-9.04.09-13.57-.14.18-.29.38-.45.59-.03.04-.08.1-.17.21-2.72,3.38-4.25,4.75-6.69,6.16-2.74,1.42-2.73,1.27-4.17,1.99-.8.51-1.79.82-2.56,1.38-.6.28-1.21.59-1.71,1-.61.38-1.12.94-1.68,1.4-.23.21-.48.42-.69.66-1.12.81-1.53,1.12-2.53,2.01-1.34,1.24-2.28,2.64-2.88,4.12-.9,2.38-.94,4.89-1.2,7.55-.15,2.15-.73,5.33-1.66,7.23-1.14,2.45-2.3,3.57-4.22,5.35-.09.07-.25.21-.3.27-.83.72-.59.64-1.29,1-.14.05-.32.12-.45.17,0,0-.03,0-.12.02-.07,0-.12.02-.18.02-.59-.04-.85.26-1.44.31-.99.15-2.28.49-2.98.61-4.2,1.09-8.54,1.79-12.54,3.55-1.9.78-3.7,1.98-5.17,3.29,4.12-.15,8.24-.31,12.36-.42Z"/>
              <path class="cls-5" d="m44.62,119.23c-3.29-2.42-6.05-4.21-8.65-6.1-.58-.6-1.12-1.17-1.39-1.46-4.41-4.92-7.39-10.09-9.31-16-.71-2.42-1.28-3.57-2.09-6.59-.4-1.72-.72-3.3-.99-4.78-.22,4.22-.57,8.43-.79,12.65-.22,4.32-.2,8.63-.13,12.94,1.73,2.55,3.97,4.75,6.61,6.61,2.88,2.23,8.14,5.2,11.14,7.44,1.63,1.2,2.37,2.66,3.35,4.55,1.42,2.96,1.56,6.41.36,9.82-.95,2.95-2.46,5.77-2.72,8.9-.05,1.62.07,3.25.69,4.71.19,0,.39,0,.58,0,.34,0,.69,0,1.03,0-.75-.92-1.32-3.13-1.01-5.11.5-3.76,3.51-8.6,3.47-13.03.05-4.17-2.21-8.02-5.13-10.85-2.08-2.01-4.61-3.44-6.9-5.19-1.35-1.03-2.54-2.19-3.62-3.4,4.72,3.75,10.53,6.76,13.44,9.54,1.86,1.96,1.86,2.29,2.8,4.58,1.23,3.28,1.16,6.57.61,8.95-.7,2.93-2.2,5.6-2.95,8.52-.62,2.17-.82,4.16-.69,5.98,2.09,0,4.18-.01,6.27-.05-.07-.77.03-1.47,0-2.29.43-2.68,1.58-5.16,2.44-7.72,1.04-3.71,1.13-3.82.91-7.99-.6-5.51-2.84-11.2-7.33-14.66Z"/>
              <path class="cls-5" d="m32.85,149.63c-.32-6.26.35-8.5-1.27-13.96-.07-.26-.17-.48-.28-.69-.28-.7-.58-1.39-.89-2.07-.06-.17-.13-.33-.23-.48,0-.02-.04-.11-.17-.34-2.47-4.47-4.62-5.98-6.95-9.56-.56-.94-1.08-1.88-1.57-2.84.13,3.27.33,6.69.16,10.01.5,1.3.87,2.71,1.21,4.29.57,3.13.29,8.48.49,11.66,0,2.2-.24,4.35.17,6.26.82-.12,1.71-.16,2.67-.17-.04-.04-.08-.08-.15-.13-.02-.03-.04-.05-.07-.09-1.02-.95-1.26-3.53-1.38-5.59-.14-4.07.41-9.64-.74-14.16-.25-1.08-.58-2.13-.92-3.18.4.83.38.63,1.43,3.55-.02-.06-.04-.21-.05-.34.14,1.03.35.93.44,1.39.6,1.85.14.38.77,2.54.12.47.24.94.34,1.42.06.34.14.68.22,1.01.41,2.43.27,1.11.41,3.97.08,3.18-.16,6.48.37,9.62.22,0,.44,0,.67,0,1.92.02,3.84.05,5.75.08-.11-.43-.23-1.01-.42-1.94,0-.09-.02-.18-.03-.27Z"/>
              <path class="cls-5" d="m51.78,19.97c-.21.78-.42,1.55-.66,2.32-1.24,3.78-1.27,3.81-3.03,7.06-1.26,2.17-1.57,2.5-2.42,3.64-6.55,7.54-14.32,11.7-20.6,19.23.77-1.49,1.72-3,2.82-4.23,7.91-8.57,20.72-14.12,22.42-26.64.06-.45.12-.88.17-1.29-.45.04-.91.07-1.36.11-.11,1.08-.33,2.25-.56,3.21-1.5,6.12-6.58,10.16-11.57,14.39-2.7,2.25-5.62,4.25-8.17,6.67-2.9,2.8-5.01,5.24-7.05,8.33.04,1.52.06,3.03.07,4.55.21.72.24,1.54,0,2.44,0,.02,0,.04,0,.05,0,.82-.02,1.65-.04,2.47,1.84-4.17,4.5-8,7.98-11.32,3.41-3.74,7.26-5.87,11.7-9.12,8.9-6.09,13.92-10.36,16.87-22.34-2.18.14-4.36.29-6.54.46Z"/>
            </g>
            <path class="cls-5" d="m105.38,141.78c-.49,1.32-.59,2.74-1.08,4.05-.57,1.49-1.12,2.63-1.88,3.59.67-.04,1.34-.08,2.01-.11,1.18-2.59,1.46-6.51,2.48-9.16,1.47-2.46,3.11-4.87,5.74-6.15-.02-.53-.04-1.05-.06-1.58-3.59,1.55-5.82,5.94-7.21,9.35Z"/>
            <path class="cls-5" d="m89.34,150.19c.49-.34.98-.69,1.45-1.03,3.01-1.97,4.67-5.02,5.98-8.61,1.05-2.8,1.57-6.51,2.58-8.94.98-2.27,2.22-3.99,3.88-5.7,2.03-1.91,4.57-3.3,6.99-4.63-1.59,1.35-5.28,3.37-6.63,4.64-2.42,2.33-3.36,3.9-4.65,7.12-.88,2.85-1.28,5.95-2.03,8.99-.33.49-.46,1.06-.45,1.63-.21.71-.45,1.41-.73,2.1-.5,1.26-1.36,2.91-2.38,4.17,1.64-.1,3.28-.2,4.92-.29,1.25-.07,2.54-.15,3.85-.23,1.22-2.69,1.57-6.1,2.4-9.12,1.48-4.55,3.79-7.81,7.99-10.29-.11-3.64-.16-7.26-.29-10.82,0-.11,0-.22,0-.33-2.49,1.85-6,3.76-8.74,5.94-3.22,2.72-5.39,6.56-6.29,10.66-1.07,4.32-2.28,8.11-5.42,10.92-1.81,1.58-3.12,2.84-5,3.95.86-.05,1.72-.11,2.59-.16Zm7.11-4.13c-.28.95-.79,1.79-1.28,2.48.46-.84.85-1.71,1.21-2.59.13-.33.24-.67.35-1.01.01.02.03.05.04.07-.1.35-.21.7-.33,1.05Z"/>
            <g>
              <path class="cls-5" d="m43.7,20.62c-1.61.14-3.17.06-4.73-.05-.08.29-.19.61-.35,1.05-1.32,2.84-3.9,6.6-6.85,8.8-3.52,2.24-7.85,4.93-10.58,8.57.02.38.03.76.05,1.14,1.29-2.1,3.22-3.81,5.23-5.45,2.09-1.68,5.29-3.07,7.4-5.13,2.43-2.35,4.8-4.81,6.59-7.7.21-.33.48-.7.75-1.11-.14.66-.3,1.32-.51,1.97-.33,1.21-.44,1.09-.6,1.66-.04.04-.11.16-.25.42-.88,1.39-.92,1.38-2.18,2.75-1.7,1.47-3.13,2.23-6.28,4.16.04-.02.08-.03.12-.05-.14.07-.3.16-.44.26-.3.2-1.08.74-1.37.93-2.04,1.4-5.46,3.98-8.43,7.9.17,3.71.35,7.42.46,11.13.06-.08.14-.15.19-.23.1-.13.21-.26.31-.39-.86,1.12.15-.19.52-.68,0-.03-.07.07-.17.2,1.26-1.83,1.97-3.99,3.31-5.79.32-.65,2.9-3.59,5.15-5.6,3.94-3.63,5.78-6.27,8.08-9.11.66-.79,4.13-4.63,4.37-5.17.85-1.2,1.6-2.48,2.18-3.83.13-.28.24-.57.35-.86-.78.07-1.55.13-2.33.19Z"/>
              <path class="cls-5" d="m45.68,21.3s0-.02.01-.03c0,0,0,.02-.01.02,0,0,0,0,0,0Z"/>
            </g>
            <path class="cls-5" d="m33.07,20.31c-.09,0-.17.01-.25.02-.17.22-.34.45-.51.65-1.13,1.22-2.51,1.88-3.48,2.36-1.31.64-3.11,1.63-4.03,2.12.51-.54,1.05-1.05,1.61-1.54,1.71-1.27,3.57-2.33,5.45-3.31-.06.02-.13.05-.2.08.29-.14.52-.24.7-.33-3.26.24-6.03,1.06-9.36.31-.88.89-1.63,1.92-2.18,3.04-.04,5.06.16,10.12.39,15.18.81-.95,1.4-2.45,2.6-4.57.04-.07.07-.14.11-.21,0,0,.03-.04.12-.21.65-1.19,1.36-2.35,2.13-3.46.06-.08.09-.13.12-.16.03-.04.07-.08.1-.12.93-1.44.36-1.01,2.16-3.01,1.12-1.12,2.44-2.46,4.59-5.16.41-.49.84-1.05,1.23-1.67-.43,0-.86,0-1.29.02Z"/>
            <path class="cls-5" d="m112.21,18.74c-1.85-.04-3.7-.08-5.55-.11.01.44.14.89.4,1.31.12.2.25.4.37.6-.01-.01-.03-.02-.04-.03-.95-.66-1.92-1.32-2.92-1.92-1.77-.03-3.53-.05-5.3-.07,0,0,0,0,.01,0,2.36.52,3.69,1.3,5.95,2.71,1.25.88,2.75,2.64,3.7,4.45.96,1.82.8,1.45,1.3,3.09.03.18.07.37.13.55.3,1.76.19.57.27,2.52.04,4.03-.15,2.88.21,5.28-1.64-2.69-3.12-6.22-5.38-8.71-2.3-2.47-4.92-4.81-7.97-6.31-2.35-1.04-6.01-1.97-7.58-2.7-.7-.36-1.23-.64-1.71-.91-3.01.02-6.01.05-9.02.11.84.45,1.71.81,2.4,1.05.03.01.07.01.11.02-.02,0,.05.02.3.07.34.08.69.14,1.03.22,0,0-.01,0-.02,0,.2.06.4.09.6.09,1.2.18,2.41.31,3.62.38-.08,0-.16-.02-.24-.03,1.04.15,2.38.08,3.79.43,2.07.41,4.99,1.37,6.27,1.96,2.88,1.24,5.02,3.11,7.23,5.32,3.41,3.61,4.94,9.57,7.35,13.09.13.17.27.34.41.52.34.77.76,1.5,1.25,2.19.05-2.2.09-4.41.09-6.62-.56-5.62-1.16-11.27-1.29-16.88-.01-.61.07-1.16.23-1.66Z"/>
            <path class="cls-5" d="m112.81,55.94c.02-1.8-.21-3.65.1-5.37-.33-.57-.69-1.21-1.09-1.98-1.93-3.6-1.46-3.63-2.99-5.81.59.8.33.38-.02-.23-.15-.27-.31-.53-.46-.8,0,0,0,0,0,0-.09-.17-.2-.32-.33-.46-.03-.04-.07-.08-.11-.14-.09-.13-.18-.25-.27-.38-.14-.27-.34-.51-.58-.7,0,0,0,0-.02-.02-.07-.08-.1-.11-.13-.13-.07-.11-.19-.28-.41-.57-.06-.09-.09-.13-.09-.13-.09-.17-.22-.32-.36-.44-.07-.08-.13-.13-.16-.16-.47-1.04-.93-2.05-1.26-2.69-1.2-3.27-3.67-5.81-6.67-7.91-2.18-1.5-4.58-2.68-7.07-3.6-1.73-.54-4.62-1.42-5.69-1.95-2.49-1.05-4.73-2.26-6.61-3.84-.66.01-1.33.04-1.99.05,4.09,3.97,9.85,5.63,15.2,7.28,1.91.56,3.53,1.41,5.23,2.5,2.11,1.31,3.6,2.76,4.86,4.87.83,1.29,1.53,2.97,1.7,4.38.07.4.14,1.05.2,1.53,0,.04-.02.1-.03.16-.05.15-.09.32-.1.49,0,.03.01.06.01.09,0,.01,0,.07,0,.21,0,.21,0,.41,0,.62-.02.13-.02.28,0,.41-.06.26-.08.52-.05.79.03.41.05.79.09.73-.04.59.12,1.17.25,1.76.16.81.24,1.13.1.29.05.56.19,1.09.35,1.62.81,2.59,1.93,5.1,3.26,7.47-.63-.84-1.41-1.57-2.54-3.75-.02-.06-.06-.15-.11-.29-.54-1.51-.82-3.1-1.09-4.68-.48-2.45-.62-5-1.45-7.37-2.02-4.78-4.19-7.32-7.97-9.16-.67-.26-1.32-.65-2.02-.85-.18-.11-1.18-.49-1.62-.66-1.66-.62-4.34-1.43-5.64-2.04-2.83-1.37-7.55-4.23-11.18-5.94-.22-.11-.61-.29-.78-.37-1.99.07-3.99.14-5.98.23-1.15.05-2.3.12-3.44.18.41.35.84.69,1.31.98,3.24,1.98,7.03,2.75,10.59,3.97,2.77,1.01,6.49,1.99,10.26,3.47,1.24.61,3.18,1.63,4.85,2.89.24.23.56.54.77.7,2.24,2.15,1.73,1.92,2.94,3.54,1.52,2.83,1.37,2.32,2.16,5.48.89,3.8.95,7.79,2.31,11.47.97,2.77,2.93,5.03,4.81,7.23.98,1.14,2.01,2.27,3.09,3.33,0,.02.02.03.03.05,2.83,5,4.18,9.88,3.4,14.06-1.1,4.06-3.33,7-4.4,11.8-1.44,5.97.9,11.66,1.83,15.5.12.72.04,1.01.04,1.39-.02.07-.04.19-.08.36-.28,1.01-.5,1.38-1.21,2.51-.23.3-1.03,1.07-1.59,1.53,0,0,0,0,0,0-.03.01-.05.02-.08.04-.18.11-.37.21-.55.32-.06.05-.2.11-.29.15-.21.08-.46.08-.63.24-.7.47-.11,1.67.7,1.4,1.44-.58,1.77-1.18,3.03-2.19,2.35-2.14,3.7-4.44,3.35-7.46,0,0,.02.02.02.03.56.7,1.21,1.69,1.73,2.16.02-1.07.05-2.15.08-3.22-.02-.03-.05-.06-.07-.09-1.66-2.19-3.09-4.52-3.33-6.35-.04-1.38.69-3.73,1.91-5.74.57-.98,1.21-1.91,1.85-2.85.01-.92.02-1.84.03-2.77-.1-.19-.19-.39-.22-.6-.51-3.11-.1-6.16.33-9.21.01-1.31.03-2.63.04-3.94-.26-1.13-.6-2.28-1.01-3.4.35.17.69.31,1.04.45.02-1.89.03-3.77.05-5.66-.01-.1-.02-.2-.03-.3-.15-1.51-.09-3.02-.07-4.53Z"/>
          </g>
        </g>
        <g>
          <g>
            <g>
              <g>
                <path class="cls-4" d="m127.29,29.29s-.03,0-.05,0c.15-.02.17-.02.05,0Z"/>
                <path class="cls-4" d="m128.06,46.01c0,.07,0,.14,0,.21-.03,0-.06-.02-.09-.03-.03-.02-.07-.03-.1-.03-.39-.09-.79-.1-1.18-.07,0-.24,0-.49,0-.73-.02-1.71-.03-3.42-.04-5.13-.03-1.41-.05-2.81-.05-4.22-.41-.03-.82-.13-1.17-.18-1.94-.47-3.44-1.76-3.47-3.55-.02-1.3.71-2.61,1.77-3.35.78-.5,2-.76,2.91-.77.03-2.28.06-4.54.08-6.81-.45-.03-.89-.1-1.33-.23-1.89-.65-3.44-2.47-3.34-4.53,0-1.29.65-2.55,1.74-3.25.75-.49,2.06-.95,2.68-1.07.02-.02.08-.04.16-.07.21-.06.53-.13.62-.07.3.07.46.36.43.64,0,.16-.08.31-.23.41-.2.15-.5.17-.74.16-1.89.35-3.19,1.09-3.59,2.55-.61,2.58,1.46,4.61,4.35,4.4.2,0,.36.1.45.25.03,0,.06,0,.1,0,.03,1.1.06,2.2.1,3.29,0,1.7-.05,3.41-.1,5.12-.08-.02-.17-.02-.25-.03-.06.21-.23.37-.48.39-.02,0-.04,0-.07,0-1.08,0-2.03.06-2.58.33-1.42.78-2.01,2.29-1.48,3.89.55.92,2.47,1.64,4.11,1.42.26,0,.44.19.5.41.03,0,.06,0,.1,0-.03,1.74-.03,3.47.02,5.21.07,1.76.12,3.52.17,5.28v.18Z"/>
              </g>
              <g>
                <polygon class="cls-4" points="126.6 147.29 126.6 147.29 126.6 147.29 126.6 147.29"/>
                <path class="cls-4" d="m127.56,154.28c.16,0,.43-.03.63-.07-.03.66-.06,1.32-.1,1.98-.1,1.79-.1,3.57-.18,5.35-.02.25,0,.52-.09.76,0,.05-.03.1-.07.16-.24.42-.8.62-1.23.41-.37-.13-.62-.53-.61-.91,0-.03,0-.04,0-.07s0-.06,0-.1c.16-2.29.3-3.29.43-5.42.04-.5.07-1.01.1-1.51-.68-.12-1.39-.33-1.99-.48-2.32-.52-4.46-2.94-3.61-5.39.8-2.33,3.22-2.94,5.45-2.94h.02c.05,0,.13-.03.17-.03.03,0,.06,0,.1-.02-.04-2.93-.1-5.85-.02-8.78-.35-.1-.69-.22-1.01-.26-2.05-.43-4.88-2.41-4.02-5.16.55-2.09,2.78-2.93,4.76-2.94.06,0,.19-.02.32-.03.04,0,.09,0,.13,0,.03-.27.03-.36.22-.63.79-.54,1.13.45.93,1.16-.04.16-.11.3-.21.41-.4.36-1,.18-1.49.21-1.14,0-2.03.24-2.61.74-1.63,1.46-1.32,3.39.43,4.47.71.53,1.58.69,2.54.89v-.26c.46.29.99.46,1.54.46h.07c0,.54,0,1.07,0,1.61.03,3.08.1,6.17.12,9.25-.14-.03-.28-.03-.43-.03-.04,0-.09,0-.13.02-.06.09-.13.16-.23.21-.49.17-.35.1-.73.03,0,0-.03,0-.11,0,0,0,0,0-.02,0-.02,0-.04,0-.06.02v-.03h0s0,0,0,0h0s-.03,0-.05,0h.03s0,0-.02,0c-.03,0-.07,0-.1-.02-.02,0-.08-.02-.23-.07-.02,0-.03,0-.03,0-.02,0-.03,0-.05,0-.07-.03-1.22-.05-1.18,0-2.65.24-4.03,2.41-2.9,4.36.96,1.67,2.84,2.29,5.33,2.69.04,0,.06.03.1.06h.05Z"/>
              </g>
              <g>
                <path class="cls-4" d="m127.02,68.89s-.02,0,0,0c0,0,0,0,0,0,0,0,0,0,0,0Z"/>
                <path class="cls-4" d="m128.99,86.85c0,.1-.04.17-.1.23-.03,1.78-.08,3.49-.19,5.07-.19,1.16-.27,2.37-.3,3.61v.05c0,.07,0,.14,0,.21h-.05c-.07.14-.19.24-.39.23-1.32,0-2.63-.11-3.98.42-1.86.78-2.22,3.34-.31,5.06.74.8,2.42,1.19,4.08,1.49.17.04.29.19.32.36.02,0,.03,0,.04,0,.1,0,.21-.02.31-.03-.03,3.5-.14,7-.22,10.49-.1-.03-.19-.04-.29-.06-.05.1-.14.17-.25.22-.69.14-1.42-.05-2.13.09-1.3.12-2.64,1.06-2.61,2.35-.19,2.6.7,3.59,4.37,4.32.11.03.2.1.26.19.17,0,.36,0,.53-.02,0,.52,0,1.03,0,1.55.07,2.22.08,4.45.09,6.67-.04,0-.08-.02-.12-.02-.04,0-.1-.02-.14-.02-.34-.06-.68-.03-1.02.07-.1.03-.17.07-.26.1,0-.23,0-.46,0-.7.03-2.3.08-4.61.12-6.91-.24-.07-.49-.17-.72-.2-1.03-.3-2.12-.57-2.94-1.29-.86-.82-1.06-1.54-1.37-2.49-.58-3.21,2.3-4.84,5.07-4.77.03-3.02.25-6.03.44-9.04-.67-.1-1.34-.22-2-.35-.91-.2-1.78-.63-2.45-1.28-2.04-1.81-2.28-5.33.35-6.7,1.27-.71,3.34-.66,4.33-.55-.07-2.39-.2-4.79-.1-7.18v-.43c-.05,0-.1-.03-.15-.03-1-.19-2.03-.24-2.97-.64-2.48-.96-3.8-2.88-3.27-5.56.64-3.12,4.04-3.34,6.38-3.13-.03-2.83-.08-5.66-.14-8.5-.05-.02-.11-.04-.17-.08-2.58-.19-5.34-1.61-5.83-4.36-.22-1.59.63-3.25,2.09-3.94,1.16-.56,2.47-.44,3.71-.31-.05-2.17-.1-4.35-.16-6.52-.04,0-.1,0-.14,0-.79-.04-1.56-.23-2.27-.61-2.13-1-3.11-3.6-2.39-5.8.63-1.92,2.76-2.7,4.62-2.76.1,0,.2,0,.3,0,.22-.06.55.04.75.12.17.04.3.19.33.36.02.06.03.12,0,.18,0,.07-.03.13-.08.18,0,.02-.02.03-.03.05-.06.05-.13.09-.21.11-.11.04-.23.08-.35.1-1.07.05-1.52.04-2.57.44-.66.23-2.24,1.25-2.02,2.79.03,2.38,2.26,4.08,4.99,3.83.17,0,.31.09.4.21h0c.12.18.14.43,0,.61.03,2.59.06,5.19.1,7.77-.12-.02-.24-.03-.36-.03-.1.09-.23.14-.36.14-.77-.04-1.55-.17-2.34-.15-1.5.04-2.56.77-2.81,2.39-.06.62-.07,1.12.02,1.44.37,1.32,1.6,2.19,2.97,2.65.47.18,1.24.3,1.61.35h0c.1,0,.1,0,.06.03.43-.09.63,0,.83,0,.14,0,.23.05.31.12.08-.02.16-.03.24-.04.02.43.03.85.04,1.28.08,2.84.19,5.91.28,8.96-.1-.03-.19-.04-.29-.06-.02.03-.03.05-.05.07-.2.23-.5.15-.76.1h-.02c-2.21-.23-4.39.08-5.13,1.21-.65.9-.63,1.88-.37,3.01.15.45.25.64.68,1.09.37.36.84.66,1.59,1.02,1.37.56,2.14.43,3.52.73.02-.03.04-.06.08-.09t.02-.02s.04-.03.07-.03c.03-.02.04-.04.08-.05.02-.02.03-.02.03-.02.02,0,.03-.03.04-.03.39-.11.76.3.71.67Z"/>
              </g>
              <path class="cls-4" d="m99.03,6.92c-.43-.02-.87-.03-1.29-.03-.61-.02-1.21-.03-1.81-.04-2.06.12-4.22.08-6.48-.02-.06.17-.12.35-.18.51-.73,1.64-2.36,3-4.18,3.14-2.29.25-4.29-1.55-4.32-3.76-1.75.03-3.52.06-5.27.1-.31.11-.7,0-1.03.03-.04,0-.64.13-1.21.15-.37,1.05-1.49,3.12-2.96,3.56-.79.34-1.73.21-2.23.13-.73-.08-1.53-.49-2.27-1.28-.37-.36-1.09-1.55-1.29-2.51-3.21.03-6.45-.08-9.69-.2-.27,1.89-1.32,3.73-3.44,4.43-.68.2-1.63.15-2.55-.29-1.21-.71-2.33-1.86-2.71-3.23-.03-.33-.15-.72-.17-1.09-2.47.02-4.93.12-7.39.4,0,.05-.02.11-.03.17-.41,1.67-1.88,3.39-3.61,3.72-1.21.19-2.51-.17-3.43-.99-.7-.69-1.09-1.65-1.3-2.6-1.71,0-3.41,0-5.12.08-1.02.06-2.12.11-3.23.16-.17.98-.91,1.69-1.38,2.41-2.38,2.88-6.23,2.63-8.04-.69-.19-.41-.36-.81-.43-1.17-1.42.12-2.75.26-3.9.44-.29.04-.56.09-.83.14-.48.15-.89-.1-1.09-.48-.19-.35-.18-.81.15-1.13.28-.3.69-.31,1.07-.27.9.03.66.03,1.52,0,1.44-.05,2.88-.06,4.33-.06-.07.42-.03.83.1,1.24-.03,0-.06,0-.1,0,.24.83.56,1.22,1.33,1.97.51.42.57.5,1.32.66,1.6.37,4.08-1.16,4.38-3.47.06-.24.22-.41.42-.5v-.03h.07c.16-.06.33-.07.5-.03,3.14-.17,6.28-.51,9.42-.77h.07c.21-.02.41-.03.62-.05,0,.03-.02.07-.02.11v.16s-.03.08-.03.11c-.03.11-.04.23-.06.35.03.52-.1,1.08.17,1.6.56,1.55,2.44,2.06,3.74,1.43,1.08-.63,2.05-1.93,1.99-2.94,0-.3.18-.53.43-.64-.04-.14-.1-.28-.17-.42.67,0,1.33.02,2,.06,2.43.06,4.87,0,7.31-.07,0,.04-.02.08-.02.12v.07c.12.05.23.13.28.26.1,1.27.28,2.24,1,3,1.4,1.72,3.16,1.6,4.53.04.03-.03.05-.06.08-.1.26-.34.58-.95.58-.96,0,0,0,0,0,0,.2-.79.33-1.33.35-1.72.03-.32.18-.51.37-.61,0-.11,0-.23-.03-.34,1.56-.03,3.12-.04,4.67,0,2.48,0,4.93.29,7.38.43-.07.23-.11.47-.1.72,0,.02,0,.04,0,.06.06.36.15.7.28,1.04.3.63.45.84.77,1.18.44.41.39.39.97.69.02,0,.03.02.04.02,1.63.88,3.39-.34,3.84-1.9.28-.61.14-1.58.9-1.83.41-.08.83-.04,1.11.02,2.6-.09,5.19-.22,7.77-.34h.02c.2-.02.4-.03.6-.03-.03.09-.07.17-.1.26.18.22.27.55.11.96-.12.35.21,1.7.69,2.08.8.84,2.34.98,3.29.47,1.6-1.03,1.87-1.83,2.34-3.54.04-.2.17-.33.33-.41,0-.02-.02-.04-.03-.06.1,0,.21,0,.3,0h.11c1.02,0,2.02,0,3.04.06,2.37.18,4.05.47,6.71.54-.02.13-.03.26-.03.39v.03c.03.25.07.5.1.76.02.05.04.1.06.14Z"/>
              <g>
                <path class="cls-4" d="m127.63,6.33c0-.07,0-.1,0-.11.05.26.03.19,0,.11Z"/>
                <path class="cls-4" d="m127.85,12.77c-.06,0-.11,0-.17-.02-.1,0-.2-.02-.3-.02-.25,0-.5.05-.74.11,0-.23,0-.44-.02-.67-.04-1.63-.12-3.26-.22-4.87-.03-.06-.05-.11-.06-.18-.03-.16-.08-.31-.11-.47-.05-.06-.09-.14-.11-.22-.27,0-.54.02-.8.04-.33.02-.66.05-.99.09-.1.03-.18.04-.28.03h-.06c-.47.04-.93.09-1.41.07-.11,0-.47,0-.56,0h-.03s-.03,0-.04.02h-.03s-.03,0-.03,0c0,0,0,0,0,0-.03.25-.1.51-.16.76-.17.63-.35.92-.55,1.35-1.1,2.29-4.47,2.96-6.57.71-.42-.41-.94-1.33-1.02-2.31v-.06c-2.41.07-4.93.04-7.45-.03,0,.06-.03.12-.04.17-.65,2.01-2.63,3.42-4.73,3.53-1.2,0-2.39-.67-3.03-1.69-.35-.58-.52-1.24-.57-1.92,0-.11-.02-.23-.02-.35,0-.2.04-.4.15-.56,0-.04.03-.1.05-.13.19-.36.63-.39.93-.19,0,0,.03,0,.03.02,0,0,.02,0,.05.04.04.04.09.09.11.15.24.23.22.58.31.88,0,.12.14.47.18.6.43.97.65,1.45,1.77,1.7,1.13.36,3.74-.71,3.94-2.91,0-.15.06-.26.15-.34,0-.07-.02-.13-.03-.2-.03-.1-.07-.19-.11-.29,3.17-.04,6.34-.16,9.51-.2-.05.07-.11.13-.16.21,0,0,0,0,0,.02.03.03.08.04.1.09.36.79-.03,1.42.39,2.23.39.99,1.94,2,3.15,1.73,1.3-.27,1.86-.71,2.12-1.86.05-.43-.06-1.32.19-1.94-.08-.19-.17-.37-.3-.54.3,0,.59,0,.89-.02.11-.03.23-.07.38-.07.08,0,.14.02.21.03,0,0,.03,0,.03,0,.03,0,.07,0,.14.02h.03s.17,0,.28-.02h.03c.53-.07,1.45-.23,2.02-.07.08,0,.17,0,.23,0h0s.05,0,.08,0c.56-.05,1.1-.15,1.66-.16.05,0,.03,0,0,0,.06,0,.11-.02.17-.02.06,0,.17,0,.31.03.37.06.65.36.76.7.07.09.08.31.08.47,0,.02,0,.03.02.05.02.09.05.25.14.6.05.23,0,.42-.09.56,0,.83,0,1.53.05,2.46.05.93.08,1.88.11,2.82Z"/>
              </g>
              <path class="cls-4" d="m113.9,145.25c-.08-1.56-.13-3.12-.23-4.69-.55-7.66-.58-15.37-.46-23.05-.22-3.28-.19-8.1,0-11.7.01-9.1-.21-18.21.24-27.31.32-10.68-.64-21.37.02-32.04.14-5.15-.19-10.29-.54-15.42,0-2.11.04-4.22-.18-6.32-.2-.8-.21-1.6-.04-2.4,0-.03,0-.05,0-.07.3-.59.43-1.29.41-1.95,0-.45.06-.96-.3-1.3-.18-.19-.41-.26-.64-.28-.09-.56-.54-1.05-1.38-.97-7.77.51-18.41.27-27.31.37-5.52.18-11.04.1-16.56.24-4.86.11-9.71.39-14.57.41-5.64.22-10.71.9-16.62,1.24-4.1.2-8.21-.19-12.31-.21-1.05,0-1.13,1.67,0,1.68,4.51-.06,9.01-.68,13.53-.65,7.17.03,14.73-.52,21.52-.91,8.36.12,16.71-.13,25.06-.1,8.87.16,19.5.11,27.24.35.12.01.24.01.35,0,.06.73.18,1.47.54,2.1,0,.17.19,1.05.21,1.25-.33,2.35-.17,4.77-.11,7.16.07,1.97-.09,3.93-.04,5.9,0,4.98.01,9.96.26,14.94.04,5.76-.14,11.53-.22,17.29-.11,6.47.1,12.94.07,19.41-.03,5.27-.41,10.54-.32,15.81,0,2.97.27,4.98.25,7.84.01,3.16-.19,5.39-.16,8.31.08,7.19.23,14.38-.07,21.56.06,1.6.23,3.36.31,4.22.02.27.04.53.09.8-.06-.57-.05.06.06.24.13.39.55.64.95.64,1.34-.1,1-1.46.95-2.41Z"/>
            </g>
            <g>
              <g>
                <path class="cls-4" d="m6.7,141.1s.03,0,.05,0c-.15.02-.17.02-.05,0Z"/>
                <path class="cls-4" d="m11.96,153.82c0,1.29-.64,2.55-1.74,3.25-.74.49-2.04.94-2.68,1.07,0,0-.07.03-.17.06-.2.07-.54.14-.63.08-.3-.07-.45-.36-.43-.64,0-.16.08-.31.22-.41.2-.15.5-.17.74-.16,1.89-.35,3.19-1.09,3.59-2.55.61-2.58-1.46-4.61-4.35-4.4-.2,0-.36-.1-.45-.25-.03,0-.06,0-.09,0-.03-1.1-.06-2.2-.11-3.29,0-1.7.05-3.41.1-5.13.09.02.16.03.25.03.07-.21.23-.37.48-.39.03,0,.04,0,.07,0,1.09,0,2.03-.06,2.58-.34,1.42-.77,2.02-2.28,1.48-3.88-.55-.92-2.47-1.64-4.11-1.42-.26,0-.44-.19-.5-.41h-.1c.03-1.73.03-3.47-.02-5.2-.07-1.76-.12-3.52-.17-5.27v-.19c0-.07,0-.14,0-.21.03,0,.06.02.09.03.03,0,.07.03.11.03.38.09.78.1,1.17.07,0,.24,0,.49,0,.73.03,1.71.04,3.42.05,5.13.03,1.41.04,2.81.05,4.22.4.03.81.13,1.17.18,1.93.46,3.43,1.76,3.47,3.55,0,1.3-.72,2.61-1.78,3.35-.77.5-1.99.76-2.91.77-.03,2.28-.06,4.54-.08,6.81.45.03.89.1,1.33.22,1.9.66,3.44,2.48,3.34,4.54Z"/>
              </g>
              <g>
                <polygon class="cls-4" points="7.4 23.1 7.4 23.1 7.39 23.1 7.4 23.1"/>
                <path class="cls-4" d="m7.4,24.39c.04,2.94.1,5.86.02,8.79.35.1.69.22,1.01.26,2.06.43,4.88,2.41,4.02,5.15-.54,2.1-2.78,2.94-4.76,2.95-.06,0-.19.02-.32.03-.04,0-.09.02-.13.02-.03.27-.03.36-.22.63-.79.54-1.12-.44-.92-1.16.03-.16.1-.3.2-.42.4-.36,1-.18,1.49-.21,1.14,0,2.03-.24,2.61-.74,1.64-1.46,1.32-3.39-.43-4.47-.71-.53-1.57-.7-2.54-.89v.26c-.45-.3-.98-.46-1.54-.46h-.06c0-.54,0-1.08-.02-1.61-.03-3.08-.1-6.17-.12-9.25.14.02.29.03.43.03.04,0,.1,0,.14-.02.05-.09.13-.16.22-.21.49-.17.35-.1.73-.04,0,0,.04,0,.11.02,0,0,.02,0,.02,0,.03,0,.04,0,.06-.02v.03h0,0s.03,0,.06,0h-.04s.02,0,.03,0c-.02,0-.02,0-.02,0,.03.02.04.03.06.03,0,0-.03-.02-.04-.03.03,0,.06,0,.1.02,0,0,.07.02.22.07t.03,0s.03,0,.05,0c.08.03,1.22.05,1.18,0,2.65-.24,4.03-2.41,2.9-4.36-.96-1.67-2.84-2.29-5.33-2.69-.03,0-.06-.03-.1-.06-.02,0-.03,0-.04,0-.16,0-.43.03-.64.08.03-.66.06-1.32.1-1.98.1-1.79.1-3.57.19-5.35.02-.25,0-.51.08-.75,0-.05.03-.11.07-.16.24-.42.8-.62,1.23-.41.37.13.62.53.61.91,0,.03,0,.04,0,.07s0,.06,0,.1c-.16,2.28-.29,3.29-.43,5.42-.04.5-.07,1.01-.1,1.51.69.12,1.4.33,1.99.48,2.32.52,4.46,2.94,3.61,5.39-.8,2.33-3.22,2.94-5.44,2.94h-.03s-.09.02-.12.03c.03,0-.03,0-.15.02Z"/>
              </g>
              <g>
                <path class="cls-4" d="m6.98,101.5s.02,0,0,0c0,0,0,0,0,0h0Z"/>
                <path class="cls-4" d="m6.65,92.14c.03,2.83.07,5.66.13,8.5.05.02.11.04.17.08,2.58.19,5.34,1.61,5.84,4.36.21,1.59-.63,3.24-2.1,3.94-1.16.55-2.46.44-3.71.31.05,2.17.1,4.35.16,6.52.04,0,.1,0,.14,0,.79.04,1.57.23,2.27.61,2.13,1,3.12,3.61,2.4,5.8-.63,1.91-2.77,2.7-4.63,2.76-.1,0-.2,0-.3,0-.22.06-.55-.04-.74-.12-.17-.04-.3-.18-.34-.35-.02-.06-.03-.13,0-.19,0-.07.03-.13.08-.18,0-.02.02-.03.03-.05.06-.05.14-.09.22-.11.1-.04.23-.08.34-.1,1.07-.05,1.53-.04,2.57-.44.67-.23,2.24-1.25,2.02-2.79-.03-2.39-2.26-4.08-4.98-3.83-.17,0-.31-.09-.41-.21h0c-.12-.18-.15-.43,0-.61-.03-2.59-.05-5.19-.1-7.77.12.02.24.03.36.03.1-.09.23-.14.36-.14.78.04,1.55.16,2.34.15,1.5-.04,2.56-.77,2.81-2.39.05-.62.06-1.12-.03-1.44-.37-1.33-1.6-2.19-2.96-2.65-.48-.18-1.25-.3-1.62-.35h-.02c-.08,0-.08,0-.05-.03-.43.09-.63,0-.82,0-.14,0-.24-.05-.32-.11-.08.02-.17.02-.24.04-.02-.43-.03-.85-.04-1.28-.08-2.84-.19-5.91-.28-8.96.1.03.19.04.29.06.02-.03.03-.05.05-.07.2-.23.5-.15.76-.1h.02c2.21.23,4.39-.08,5.13-1.22.66-.89.64-1.87.38-3.01-.15-.45-.26-.64-.68-1.09-.37-.36-.85-.66-1.6-1.02-1.37-.56-2.14-.43-3.51-.74-.03.03-.05.06-.09.1,0,0,0,0,0,.02-.03.02-.05.02-.07.03-.03.02-.05.04-.08.05-.03.02-.03.02-.04.02,0,0-.03.02-.04.03-.38.11-.76-.3-.71-.67,0-.1.05-.17.1-.23.02-1.78.07-3.49.18-5.07.19-1.16.27-2.37.3-3.61v-.04c0-.07,0-.14,0-.21h.05c.07-.14.2-.24.4-.23,1.31,0,2.62.11,3.98-.42,1.86-.78,2.22-3.34.31-5.07-.75-.79-2.43-1.18-4.09-1.49-.17-.04-.29-.19-.32-.36-.02,0-.03,0-.04,0-.1,0-.21.02-.31.03.03-3.5.14-7,.22-10.49.1.03.19.04.29.06.06-.1.14-.17.25-.22.69-.14,1.43.05,2.13-.09,1.3-.12,2.64-1.06,2.61-2.35.19-2.6-.69-3.59-4.36-4.32-.12-.03-.2-.1-.26-.19-.18,0-.36,0-.54.02,0-.52.02-1.03,0-1.55-.06-2.22-.08-4.44-.08-6.66.03,0,.07.02.11.02.05,0,.1.02.15.03.34.05.68.03,1.02-.08.1-.03.17-.07.26-.1,0,.23,0,.46,0,.69-.03,2.31-.08,4.61-.12,6.92.24.07.49.16.72.2,1.03.3,2.12.56,2.94,1.29.86.82,1.06,1.53,1.37,2.49.58,3.21-2.3,4.84-5.07,4.77-.03,3.02-.25,6.03-.44,9.04.67.1,1.34.22,2,.34.91.21,1.78.63,2.45,1.29,2.05,1.81,2.28,5.33-.35,6.7-1.27.71-3.34.66-4.33.55.07,2.39.21,4.79.1,7.18v.43c.05,0,.1.03.16.03.99.19,2.02.24,2.96.64,2.48.96,3.8,2.88,3.27,5.56-.63,3.12-4.04,3.34-6.37,3.13Z"/>
              </g>
              <path class="cls-4" d="m127.67,163.42c-.28.3-.69.3-1.06.27-.9-.03-.67-.03-1.53,0-1.44.05-2.88.06-4.33.06.07-.42.03-.83-.1-1.24.03,0,.06,0,.1,0-.24-.83-.56-1.22-1.33-1.97-.5-.42-.57-.5-1.31-.66-1.61-.37-4.09,1.16-4.39,3.47-.05.24-.22.41-.42.5,0,0,0,.02,0,.03h-.08c-.16.06-.33.07-.5.03-3.14.17-6.27.51-9.41.76-.03,0-.05,0-.08,0-.2.02-.41.03-.61.05,0-.03,0-.07,0-.11,0-.05,0-.1,0-.17,0-.03.03-.08.03-.11.03-.11.04-.23.06-.35-.02-.52.1-1.08-.16-1.6-.56-1.56-2.44-2.06-3.73-1.44-1.09.63-2.06,1.94-2,2.94,0,.3-.17.53-.43.64.05.14.1.28.16.41-.67,0-1.33-.02-2-.05-2.43-.06-4.86,0-7.31.07,0-.04.02-.08.02-.12v-.07c-.12-.05-.23-.13-.27-.26-.1-1.27-.28-2.24-1.01-3-1.4-1.72-3.15-1.6-4.53-.05-.03.03-.05.07-.08.1-.28.36-.63,1.03-.57.96-.19.79-.33,1.33-.35,1.72-.03.32-.18.51-.37.61,0,.11,0,.23.03.34-1.55.03-3.12.04-4.67,0-2.48,0-4.93-.29-7.38-.43.07-.23.12-.48.1-.72,0-.03,0-.04,0-.06-.05-.36-.14-.7-.28-1.04-.29-.63-.45-.84-.77-1.18-.44-.41-.38-.39-.97-.7-.03,0-.04-.02-.04-.02-1.63-.88-3.38.34-3.84,1.9-.28.61-.14,1.58-.89,1.83-.42.08-.83.03-1.12-.02-2.6.09-5.19.22-7.77.34h-.02c-.2,0-.4.03-.6.03.03-.09.07-.17.1-.26-.18-.22-.26-.55-.1-.96.11-.35-.21-1.7-.7-2.08-.8-.84-2.34-.98-3.29-.47-1.59,1.02-1.87,1.83-2.34,3.54-.04.2-.17.33-.33.41,0,.02.02.04.03.06-.05,0-.1,0-.15,0h-.88c-.81,0-1.62-.02-2.43-.07-2.37-.17-4.05-.46-6.71-.53.02-.13.04-.26.03-.39v-.03c-.03-.25-.07-.5-.1-.76,0-.05-.04-.1-.06-.14.43,0,.87.03,1.29.03.61.02,1.21.03,1.81.04,2.06-.12,4.23-.08,6.48.02.06-.17.12-.35.18-.51.73-1.64,2.36-3,4.19-3.14,2.28-.25,4.29,1.54,4.31,3.76,1.76-.03,3.52-.06,5.27-.1.31-.11.7,0,1.03-.04.05,0,.64-.12,1.21-.14.38-1.05,1.49-3.12,2.96-3.56.79-.34,1.73-.21,2.23-.13.73.08,1.54.49,2.28,1.28.36.36,1.08,1.55,1.28,2.51,3.21-.03,6.45.08,9.69.2.27-1.89,1.32-3.73,3.44-4.43.69-.2,1.63-.15,2.55.29,1.21.71,2.33,1.86,2.71,3.23.03.33.15.72.17,1.09,2.48-.02,4.94-.12,7.4-.4,0-.05,0-.11.02-.17.41-1.68,1.88-3.39,3.61-3.72,1.22-.19,2.52.17,3.43.99.7.69,1.09,1.64,1.31,2.6,1.7,0,3.41,0,5.11-.08,1.03-.06,2.13-.11,3.23-.17.17-.98.92-1.68,1.39-2.41,2.37-2.88,6.22-2.63,8.04.69.19.42.35.82.43,1.18,1.42-.12,2.74-.26,3.89-.44.29-.04.56-.09.83-.14.49-.15.89.11,1.09.49.19.35.18.81-.15,1.12Z"/>
              <g>
                <path class="cls-4" d="m6.36,164.06s0,.03,0,.03c0-.03-.02-.06-.02-.08,0,0,.02.03.02.04Z"/>
                <path class="cls-4" d="m36.25,163.51c0,.2-.03.4-.14.56-.02.04-.03.09-.05.13-.2.36-.65.39-.94.19,0,0-.02,0-.03-.02,0,0-.03,0-.05-.04-.05-.04-.09-.09-.12-.15-.23-.23-.22-.58-.3-.88-.02-.12-.15-.47-.19-.6-.43-.97-.65-1.45-1.77-1.7-1.12-.36-3.74.7-3.94,2.91,0,.15-.06.26-.16.34,0,.07.02.13.03.2.03.1.07.19.11.29-3.16.04-6.33.16-9.5.2.04-.07.1-.13.15-.21t0-.02s-.08-.04-.1-.09c-.36-.79.03-1.42-.39-2.23-.39-.99-1.94-2.01-3.15-1.73-1.3.27-1.86.71-2.12,1.86-.05.43.06,1.32-.19,1.94.09.19.18.37.3.54-.3,0-.59,0-.89.02-.11.03-.23.07-.38.07-.07,0-.14-.02-.21-.03h0s-.06,0-.16-.03h-.03s-.17,0-.28.02h-.03c-.53.07-1.44.23-2.02.07-.1,0-.2,0-.3,0h-.02c-.55.06-1.1.16-1.66.17-.05,0-.03,0,0,0-.05,0-.11.02-.17.02s-.17,0-.31-.03c-.36-.06-.65-.36-.76-.7-.07-.08-.09-.26-.09-.41v-.06s0-.03-.02-.05c0-.09-.04-.25-.13-.6-.05-.23,0-.42.09-.56,0-.83,0-1.53-.05-2.46-.05-.93-.09-1.88-.11-2.83.06,0,.11.02.17.03.1,0,.19.02.3.02.24,0,.49-.06.73-.12,0,.23,0,.45.03.67.03,1.64.11,3.27.22,4.88.02.06.04.11.05.18.03.16.08.31.12.47.04.06.08.14.1.22.27,0,.54-.03.81-.04.33-.02.66-.05.98-.09.1-.03.19-.04.29-.03h.05c.47-.04.94-.09,1.41-.07.11,0,.48,0,.56,0h.03s.03,0,.05-.02h.02s.03,0,.03-.02h0c.03-.26.1-.51.17-.76.16-.63.35-.92.54-1.35,1.1-2.29,4.47-2.96,6.57-.71.42.41.95,1.33,1.02,2.31v.06c2.41-.07,4.93-.04,7.45.03.02-.06.03-.12.04-.17.66-2.01,2.63-3.42,4.73-3.53,1.2,0,2.4.67,3.03,1.69.35.59.52,1.25.57,1.93,0,.11.03.23.02.35Z"/>
              </g>
              <path class="cls-4" d="m113.58,149.22c.12-.76.15-1.53.14-2.3-.04-.22-.07-.86-.1-1.14,0-.11,0-.22,0-.33,0-.02,0-.04,0-.06,0,.04.01.08.01.1,0-.05,0-.08-.01-.11,0-.02,0-.04,0-.06,0-.05-.01-.06-.01-.05-.02-.09-.03-.18-.08-.26-.3-.55-1.15-.53-1.45.02-.25.52-.41,2.59-.41,3.93-.33.03-.5.04-.65.09-.12-.08-.27-.14-.46-.14-4.51.06-9.01.68-13.53.65-7.17-.03-14.73.52-21.52.91-8.36-.12-16.71.13-25.06.1-8.87-.16-19.5-.11-27.24-.35-.12-.01-.24-.01-.35,0-.06-.73-.18-1.47-.54-2.1,0-.17-.19-1.05-.21-1.25.33-2.35.17-4.77.11-7.16-.07-1.97.09-3.93.04-5.9,0-4.98-.01-9.96-.26-14.94-.04-5.76.14-11.53.22-17.29.11-6.47-.1-12.94-.07-19.41.03-5.27.41-10.54.32-15.81,0-2.97-.27-4.98-.25-7.84-.01-3.16.19-5.39.16-8.31-.08-7.19-.23-14.38.07-21.56-.06-1.6-.23-3.36-.31-4.22,0,0,0,0,0-.01.08-.9.17-1.66.2-2.06.04-.12.08-.45.11-.63,0-.02.01-.05.01-.07.54-.04,1.31-.13.91-.09.33,0,.67-.2.78-.52.3-1.17-.68-1.15-1.3-1.31-.34-.05-.68-.07-1.02-.02.05,0,.06-.01-.01,0-.03,0-.07,0-.1,0-.1.02-.06.02,0,0-.34.04-.63.2-.88.45-.38.44-.46.85-.31,1.93.02.1.04.38.06.76-.79.36-.54,1.48-.5,2.3.08,1.56.13,3.12.23,4.69.55,7.66.58,15.37.46,23.05.22,3.28.19,8.1,0,11.7-.01,9.1.21,18.21-.24,27.31-.32,10.68.64,21.37-.02,32.04-.14,5.15.19,10.29.54,15.42,0,2.11-.04,4.22.18,6.32.2.8.21,1.6.04,2.4,0,.03,0,.05,0,.07-.3.59-.43,1.29-.41,1.95,0,.45-.06.96.3,1.3.18.19.41.26.64.28.09.56.54,1.05,1.38.97,7.77-.51,18.41-.27,27.31-.37,5.52-.18,11.04-.1,16.56-.24,4.86-.11,9.71-.39,14.57-.41,5.64-.22,10.71-.9,16.62-1.24,4.1-.2,8.21.19,12.31.21.18,0,.32-.06.44-.14.13.05.31.1.44.11.19.03.38.02.57,0,.03,0,.07,0,.12,0,.04,0,.07-.02.11-.03,0,0,.01,0,.02,0,0,0,0,0-.01,0,.08-.02.15-.04.22-.06.1,0,.21,0,.32-.01.53-.17.78-.73.82-1.26.01-.26,0-.24-.02,0Z"/>
            </g>
          </g>
          <g>
            <path class="cls-4" d="m101.58,65.15c-.12-.88-.03-1.34-.63-2.96-.87-2.02-2.19-3.8-3.43-5.6-1.41-2.07-1.83-3.52-2.58-5.94-.63-2.22-.7-4.71-2.19-6.6-.1-.17-.26-.31-.45-.37-1.28-1.42-3.93-3.29-5.84-4.63-3.82-2.14-8.18-4.25-13.01-5.13-4.45-.66-9.08.11-13.2,1.88-1.21.53-2.68,1.32-4,2.32-1.57.54-3.12,1.18-4.62,1.89-8.6,4.33-14.65,13.56-16.4,23.04-.25,2.03-.62,3.59-.42,5.22,0,.02.03.03.04.06-3.23,2.55-2.41,10.11-2.45,13.55.08,3.01.27,6,.43,9.01.08,4.14.25,7.25,1.57,11.3.97,2.82,3.54,6.58,6.8,4.17,2.35-1.49,2.84-5.59,5.36-5.54,2.22.24,2.52,4.36,2.68,6.71.36,3.21-1.22,14.51,2.81,14.63,4.47-1.17,2.56-9.03,4.41-11.87.5-.97,1.25-1.79,2.06-1.62,2.11.42,2.48,7.18,2.87,9.14.76,5.72.61,14.14,5.92,17.94,3.19,2.15,6.84.56,8.57-2.61,1.36-2.31,1.89-5.18,2.3-7.92.5-2.87,1.04-5.72,1.7-8.56,1.3-4.69,2.05-9.69,5.16-12.54.91-.76,2-1.02,2.95-.2,1.52,1.19,1.95,3.01,3.62,4.46,1.28,1.16,3.27,1.49,4.83.77.05,0,.1-.03.16-.07.11-.05.21-.13.31-.19.47-.29.89-.55,1.42-1.2.99-1.36,1.37-2.66,1.75-4.31.68-4.26.58-8.59.66-12.89.1-6.08.35-12.16.6-18.23.07-2.36.43-4.73.22-7.08Zm-57.75-18.21c2.84-3.27,6.61-5.34,10.5-7-3.01,3.45-4.97,7.73-6.4,12.05-1.6,4.81-1.62,11.04-4.49,14.39-.96.96-1.44,1.31-2.27,1.77-.23.13-.48.21-.76.29-1.23-.14-2.41-.94-3.81-.89-.2.03-.39.1-.57.16-.79-6.96,2.5-15.21,7.8-20.75Zm56.16,37.89c-.12,4.6-.02,9.2-.31,13.79-.17,3.03-.76,6.78-2.83,8.75h0s0,.02-.02.03c-.08.09-.17.17-.24.26-.1.03-.21.1-.3.18-1.16.74-2.66.5-3.64-.27-1.61-1.25-2.18-3.52-4.01-4.9-2.92-2.17-5.96,1.19-7.09,3.76-2.55,6.05-3.83,12.88-4.53,18.54-.36,2.34-.69,5.1-1.73,6.89-1.31,2.42-3.73,3.77-5.68,3.23-6.97-2-6.45-17.35-8.97-25.4-.5-1.61-2.01-2.59-3.6-1.71-1.05.64-1.54,1.74-1.95,2.94-.78,2.77-.59,5.25-1.41,7.92-.23.69-.41,1.1-.94,1.61,0,0-.12.1-.24.16-.04.04-.21.1-.21.11-.06.02-.1.03-.12.03-.03,0-.06,0-.07,0-1.07-.27-1.38-3.43-1.55-4.69-.3-2.51-.36-5.05-.42-7.57-.04-2.21-.09-4.51-.95-6.57-1.23-3.1-4.27-2.73-5.9-.05-.83,1.22-1.33,2.15-2.45,3.14-.52.44-1.76.84-2.13.64-1.66-.57-2.9-3.12-3.49-5.38-1.55-5.99-1.77-11.83-2.07-18.36,0-4.38-.32-9.84,2.46-12.5.78-.44,1.07-.76,2.08-.47.6.16,1.24.42,1.89.57.12.13.3.19.5.13.03,0,.05,0,.08-.02.53.07,1.06.05,1.56-.16.1-.07.16-.16.2-.26.29-.1.57-.23.9-.44,1.73-1.07,2.96-2.98,3.52-4.62,1.38-4.18,1.47-8.68,3.01-12.82,1.99-5.89,5.39-11.56,11.15-14.34,3.02-1.34,6.78-1.88,10.42-1.87,5.08.23,10.11,2.5,14.8,5.39,2.44,1.49,4.15,3.27,6.17,4.71,0,.02.02.03.03.04-.09-.04-.08,0,.05.08.14.21.27.41.33.6.7,1.73,1,4.47,1.52,6.3.78,3.74,4.39,8.04,5.44,10.67.83,1.55.82,3.94.91,6.59.14,5.11-.06,10.22-.16,15.33Z"/>
            <path class="cls-4" d="m61.14,68.28c-.25-2.22-1.34-4.24-2.03-6.34-.68-2.11-.78-3.63-.45-5.14.67-2.7.47-1.43,1.01-2.94.44-1.29.63-3.6-1.8-3.87-.25,0-.51.08-.75.19-.19.03-.38.11-.54.27-1.65,1.45-2.37,3.73-2.6,5.86-.21,2.55.16,4.06.84,6.56.38,1.6.59,2.26,1.11,4.12.72,2.49.32,5.73.2,6.4-.25,1.99-1.67,4.8-1.5,5.85,0,1.38,1.33,2.33,2.6,1.64.16-.09.3-.2.43-.33.06-.05.15-.13.28-.26.66-.69.8-1.7.89-2.63,0,.04.01.05.03-.03.19-.91.6-2.07,1.13-3.34.55-1.37,1.34-3.86,1.17-6.02Z"/>
            <g>
              <path class="cls-4" d="m79,50.99s-.06-.04-.09-.06c.07.05.17.14.09.06Z"/>
              <path class="cls-4" d="m78.87,50.9s0,.01.02.01c0,0,.02.01.03.02-.02-.01-.03-.03-.04-.03Z"/>
              <path class="cls-4" d="m81.97,68.44c-.22-1.91-1.1-4.37-1.58-5.55-.6-1.32-1.68-3.15-1.74-3.52-.2-.55-.35-1.12-.45-1.7,0-.03,0-.06,0-.1,0-.39.03-.77.08-1.15.04-.25.1-.51.17-.76.05-.08.09-.16.14-.23,0-.01.01-.02.01-.02.04-.06.07-.12.1-.17,0,0,0,0,0,0-.01.03-.02.04-.04.08.05-.07.09-.13.13-.17.2-.22.33-.51.45-.78.28-.6.48-1.28.28-1.94-.01-.03-.03-.06-.04-.09,0-.23,0-.46-.05-.68-.09-.3-.29-.56-.55-.74-.2-.15-.43-.25-.69-.26-.04,0-.08.01-.13.02-.14-.02-.29-.01-.43.03-.28-.02-.56.07-.79.32-1.19,1.31-2.02,3.13-2.22,5.76.09,2.14.1,1.56.38,3.11.15.42.39,1.82.49,2.07.03.18.08.36.12.46-.02-.04-.04-.1-.08-.19.02.05.03.09.05.14.6,1.74.63,1.63,1.2,3.31.72,2.59.92,3.8.73,6.76-.39,2.13-.8,4.01-.92,5.22-.11.85-.15,1.74.1,2.57.02.07.05.13.07.19,0-.01,0-.02-.01-.03.37,1.32,2.13,2.21,3.06.62.04-.06.08-.12.11-.19,0-.01.01-.02.02-.03,0-.04.02-.07.02-.1.06-.23.07-.48.05-.71.5-2.37.54-4.1,1.32-7.11.29-1.56.69-2.72.65-4.43Z"/>
            </g>
            <path class="cls-4" d="m46.75,78.19c-.61.36-.98.91-1.28,1.06.02-.01.03-.02.06-.05-.37.28-.77.53-1.19.74-.03.01-.04.02-.05.03-1.26.48-2.16.54-2.76.39-.39-.07-.14-.17-.81-.34-.96-.19-1.44,1.24-.59,1.7,1.66.93,3.7.33,5.18-.68.79-.47,1.47-1.09,2.07-1.78.12-.12.19-.29.19-.45,0-.41-.42-.73-.81-.62Z"/>
            <g>
              <polygon class="cls-4" points="94.14 84.66 94.15 84.66 94.14 84.66 94.14 84.66"/>
              <g>
                <path class="cls-4" d="m88.01,84.08s.03-.06.04-.09c-.1.2-.09.18-.04.09Z"/>
                <path class="cls-4" d="m93.37,83.05c-.46.03-.91.06-1.37,0-1.79-.36-2.17-.83-3.57-2.24-.58-.49-.93-1.45-1.78-1.47-.91-.03-1.41,1.18-.75,1.8.68.88,1.49,1.7,2.4,2.36-.08.17-.22.44-.29.57-.46,1.04-.96,2.05-1.5,3.05-1.51,2.74-2.91,4.76-4.84,6.82-7.54,7.93-22.53,7.62-31.04-1.98-1.91-2.05-3.47-4.41-4.77-7.28-.61-1.38-.8-1.73-1.31-3.15-.06-.21-.2-.39-.38-.5-.61-.38-1.45.25-1.23.94,2.2,6.28,6.47,12,12.16,15.52,9.14,5.67,21.46,5.19,28.56-3.48,2.34-2.77,4.1-5.96,5.73-9.19.08-.19.17-.36.25-.52.86.41,1.78.66,2.78.66.59,0,1.19-.09,1.74-.32.29-.11.53-.37.54-.68.02-1.33-1.42-.88-1.32-.92Z"/>
              </g>
              <path class="cls-4" d="m94.14,84.66s-.05.02-.06.03c.02,0,.04-.02.06-.03Z"/>
              <path class="cls-4" d="m94.15,84.66s.04-.01.06-.02c.1-.04.01,0-.06.02Z"/>
            </g>
          </g>
        </g>
      </g>
    </g>
  </g>
</svg>