<?xml version="1.0" encoding="UTF-8"?>
<svg id="_Слой_2" data-name="Слой 2" xmlns="http://www.w3.org/2000/svg" viewBox="0 0 156.03 185.62">
  <defs>
    <style>
      .cls-1 {
        fill: #abd3d1;
      }

      .cls-1, .cls-2, .cls-3, .cls-4 {
        fill-rule: evenodd;
      }

      .cls-2, .cls-5, .cls-6 {
        fill: #3b2757;
      }

      .cls-7 {
        fill: #653c71;
        font-size: 9px;
        letter-spacing: 0em;
      }

      .cls-7, .cls-5 {
        font-family: Vanilla, Vanilla;
      }

      .cls-5 {
        font-size: 14.11px;
        letter-spacing: 0em;
      }

      .cls-3 {
        fill: #eebde3;
      }

      .cls-4 {
        fill: #eece37;
      }
    </style>
  </defs>
  <g id="OBJECTS">
    <g>
      <g>
        <path class="cls-4" d="m32.39,172.09c-2.07,17.42-30.59,18.51-32.29.42-2.16-22.98,30.73-21.97,32.29-.42-.15,1.22-.11-1.49,0,0Z"/>
        <text class="cls-5" transform="translate(7.89 173.48)"><tspan x="0" y="0">03</tspan></text>
      </g>
      <g>
        <g>
          <path class="cls-1" d="m123.43,71.86c-1.58.71-2.84,1.33-4.14,1.86-7.91,3.24-15.87,6.35-23.72,9.72-6.54,2.8-12.97,5.85-19.41,8.89-1.62.77-3.01.67-4.69.13-7.59-2.44-14.65-6.12-21.91-9.31-7.2-3.17-14.19-6.81-21.26-10.26-.32-.16-.6-.39-1.16-.76,1.48-2.35,2.73-4.76,4.38-6.86,2.17-2.76,4.56-5.38,7.05-7.86,2.74-2.73,6.31-4.28,9.59-6.23,3.81-2.27,8.07-3,12.34-3.85,5.09-1,10.2-1.73,15.38-1.53,4.11.16,8.21.62,12.31,1.05,2.75.29,5.49.72,8.22,1.17,1.16.2,2.32.53,3.41.98,3.73,1.53,7.7,2.5,11.13,4.75,2.48,1.63,4.58,3.66,6.31,6.03,1.46,1.99,2.85,4.07,4,6.25.9,1.7,1.38,3.62,2.18,5.82Z"/>
          <path class="cls-3" d="m74.96,143.02c0-.72-.02-1.31,0-1.89.11-2.69.21-5.38.35-8.07.18-3.44.4-6.88.6-10.32.03-.45.09-.9.05-1.35-.41-4.74.59-9.41.67-14.12.05-3.21-.17-6.43-.26-9.64-.03-1.12,0-2.24,0-3.62,15.24-7.67,30.97-14.41,47.39-20.23.33,1.11.64,2,.86,2.92.79,3.28,1.76,6.51,1.9,9.92.05,1.17.68,2.31.82,3.49.74,6.5.96,12.89-.81,19.38-1.7,6.22-4.42,11.85-8.3,16.82-4.49,5.74-10.14,10.19-17.28,12.41-3,.93-5.99,1.92-9.04,2.7-5.46,1.4-10.99,2.2-16.96,1.6Z"/>
          <path class="cls-4" d="m72.12,143.25c-2.85-.21-5.62-.26-8.36-.64-5.05-.71-10.06-1.61-14.82-3.59-8.1-3.38-14.31-8.85-18.9-16.33-1.75-2.86-2.39-5.95-2.95-9.12-.71-3.99-1.38-7.98-2.01-11.99-1.22-7.76-1.61-15.53.24-23.26.33-1.38.76-2.73,1.22-4.39,1.5.58,2.89,1.04,4.21,1.65,8.43,3.91,16.83,7.91,25.29,11.77,4.15,1.9,8.41,3.57,12.62,5.35.14.06.28.1.42.15,4.87,1.73,5.62,2.67,5.55,7.92-.06,4.42-.36,8.84-.56,13.26-.32,6.88-.62,13.75-.97,20.63-.12,2.46-.33,4.93-.52,7.39-.02.28-.21.55-.47,1.2Z"/>
          <path class="cls-2" d="m75.8,144.95c-5.39-.09-10.77-.14-16.12-1.12-4.6-.84-9.07-1.94-13.37-3.8-7.47-3.23-13.28-8.39-17.73-15.12-2.37-3.58-3.21-7.74-3.98-11.88-.66-3.54-1.25-7.09-1.77-10.65-1.06-7.3-1.74-14.6-.26-21.95,1.19-5.92,3.55-11.29,7.07-16.16,2.74-3.79,5.66-7.45,9.61-10.05,3-1.98,6.12-3.79,9.3-5.47,1.5-.79,3.23-1.15,4.89-1.6,7.87-2.1,15.89-3.44,24.03-3.14,5.98.22,12.02.74,17.9,1.85,5.64,1.06,11.24,2.81,16.16,5.89,2.55,1.6,4.8,3.86,6.79,6.16,3.05,3.51,5.1,7.71,7.07,11.91.22.47.44.97.54,1.48.48,2.48.93,4.96,1.39,7.45.72,3.89,1.61,7.77,2.13,11.69.8,6.03,1.21,12.1-.57,18.06-.81,2.72-1.36,5.58-2.55,8.12-4.26,9.1-10.11,16.88-19.35,21.51-2.2,1.11-4.54,2.02-6.9,2.72-6.39,1.92-12.79,3.88-19.55,4.07-1.58.04-3.15,0-4.73,0Zm47.63-73.09c-.8-2.2-1.29-4.12-2.18-5.82-1.15-2.18-2.54-4.26-4-6.25-1.73-2.37-3.83-4.41-6.31-6.03-3.43-2.25-7.4-3.22-11.13-4.75-1.09-.45-2.25-.78-3.41-.98-2.73-.46-5.47-.88-8.22-1.17-4.1-.43-8.2-.89-12.31-1.05-5.18-.2-10.29.52-15.38,1.53-4.27.84-8.52,1.58-12.34,3.85-3.28,1.95-6.85,3.5-9.59,6.23-2.49,2.48-4.87,5.1-7.05,7.86-1.65,2.09-2.9,4.5-4.38,6.86.56.37.84.61,1.16.76,7.08,3.44,14.07,7.09,21.26,10.26,7.26,3.2,14.32,6.87,21.91,9.31,1.68.54,3.06.64,4.69-.13,6.44-3.04,12.87-6.09,19.41-8.89,7.85-3.37,15.81-6.48,23.72-9.72,1.3-.53,2.56-1.15,4.14-1.86Zm-48.47,71.16c5.98.6,11.51-.2,16.96-1.6,3.04-.78,6.03-1.77,9.04-2.7,7.13-2.21,12.79-6.66,17.28-12.41,3.88-4.97,6.6-10.59,8.3-16.82,1.77-6.49,1.55-12.89.81-19.38-.14-1.18-.77-2.32-.82-3.49-.14-3.41-1.11-6.65-1.9-9.92-.22-.92-.53-1.82-.86-2.92-16.42,5.82-32.15,12.56-47.39,20.23,0,1.38-.02,2.5,0,3.62.08,3.21.31,6.43.26,9.64-.08,4.71-1.08,9.38-.67,14.12.04.44-.03.9-.05,1.35-.2,3.44-.42,6.88-.6,10.32-.14,2.69-.24,5.38-.35,8.07-.02.58,0,1.17,0,1.89Zm-2.85.23c.26-.65.45-.92.47-1.2.19-2.46.4-4.92.52-7.39.34-6.88.65-13.75.97-20.63.2-4.42.51-8.84.56-13.26.07-5.25-.69-6.19-5.55-7.92-.14-.05-.29-.09-.42-.15-4.21-1.77-8.47-3.45-12.62-5.35-8.46-3.86-16.85-7.86-25.29-11.77-1.32-.61-2.71-1.07-4.21-1.65-.46,1.66-.89,3.01-1.22,4.39-1.84,7.73-1.46,15.5-.24,23.26.63,4,1.31,8,2.01,11.99.56,3.17,1.2,6.26,2.95,9.12,4.58,7.48,10.8,12.95,18.9,16.33,4.76,1.98,9.77,2.88,14.82,3.59,2.73.38,5.51.44,8.36.64Z"/>
        </g>
        <g>
          <text class="cls-7" transform="translate(67.39 69.28)"><tspan x="0" y="0">36%</tspan></text>
          <text class="cls-7" transform="translate(41.15 110.13)"><tspan x="0" y="0">23%</tspan></text>
          <text class="cls-7" transform="translate(95.93 112.52)"><tspan x="0" y="0">29%</tspan></text>
        </g>
      </g>
      <g>
        <path class="cls-3" d="m156.03,162.22c-2.07,17.42-30.59,18.51-32.29.42-2.16-22.98,30.73-21.97,32.29-.42-.15,1.22-.11-1.49,0,0Z"/>
        <text class="cls-5" transform="translate(131.53 163.61)"><tspan x="0" y="0">02</tspan></text>
      </g>
      <g>
        <path class="cls-1" d="m122.54,16.49c-2.07,17.42-30.59,18.51-32.29.42-2.16-22.98,30.73-21.97,32.29-.42-.15,1.22-.11-1.49,0,0Z"/>
        <text class="cls-5" transform="translate(98.03 17.88)"><tspan x="0" y="0">01</tspan></text>
      </g>
      <g>
        <g>
          <path class="cls-6" d="m70.84,48.48c-1.29-4.79-1.64-9.9-1.18-14.83s1.91-10.4,5.83-13.76c2.31-1.99,5.3-2.77,8.3-2.79,1.54-.01,1.55-2.41,0-2.4-6.04.05-11.11,3.12-13.81,8.54s-3.15,11.41-2.8,17.18c.18,2.93.59,5.86,1.35,8.7.4,1.49,2.71.86,2.31-.64h0Z"/>
          <path class="cls-6" d="m78.48,13.17c2.26,1.14,4.32,2.62,6.58,3.76l-.24-1.88c-1.13,1.14-2.14,2.42-3.17,3.64-.83.98-1.65,1.96-2.47,2.94-.41.5-.49,1.21,0,1.69.43.43,1.28.5,1.69,0,.82-.98,1.64-1.96,2.47-2.94,1.04-1.22,2.04-2.5,3.17-3.64.52-.52.46-1.53-.24-1.88-2.26-1.14-4.32-2.62-6.58-3.76-.58-.29-1.3-.15-1.64.43-.31.53-.15,1.35.43,1.64h0Z"/>
        </g>
        <g>
          <path class="cls-6" d="m32.08,120.92c-5.22.04-10.44,1.59-13.94,5.65-3.19,3.7-4.55,8.54-5.05,13.31-.3,2.84-.28,5.71-.06,8.55.11,1.53,2.51,1.54,2.4,0-.42-5.62-.24-11.75,2.3-16.9,1.16-2.35,2.83-4.44,5.07-5.85,2.78-1.76,6.04-2.35,9.29-2.37,1.54-.01,1.55-2.41,0-2.4h0Z"/>
          <path class="cls-6" d="m7.43,143.12c.74,3.48,3.2,6.78,5.95,8.99.63.5,1.41.45,1.88-.24,1.86-2.72,5.03-4.08,7.33-6.34,1.1-1.08-.59-2.78-1.69-1.69s-2.49,1.97-3.75,2.93c-1.49,1.13-2.89,2.34-3.95,3.89l1.88-.24c-2.46-1.97-4.67-4.81-5.33-7.93-.32-1.51-2.63-.87-2.31.64h0Z"/>
        </g>
        <g>
          <path class="cls-6" d="m123.6,108.11c11.8,5.59,8.83,21.29,8.81,31.87,0,1.54,2.39,1.54,2.4,0,.02-11.52,2.81-27.88-9.99-33.94-1.39-.66-2.6,1.41-1.21,2.07h0Z"/>
          <path class="cls-6" d="m126.18,137.07c2.04,2.03,4.33,3.84,6.58,5.64.47.38,1.25.54,1.69,0,.94-1.13,1.82-2.32,2.65-3.53,1.34-1.95,2.69-4.08,3.29-6.4.39-1.49-1.92-2.13-2.31-.64-.54,2.09-1.82,4.03-3.05,5.82-.29.43-.59.85-.9,1.27-.21.28-.6.81-.71.94-.1.13-.45.58-.67.84h1.69c-2.25-1.8-4.54-3.61-6.58-5.64-1.1-1.09-2.79.61-1.69,1.69h0Z"/>
        </g>
      </g>
    </g>
  </g>
</svg>