<?xml version="1.0" encoding="UTF-8"?>
<svg id="_Слой_2" data-name="Слой 2" xmlns="http://www.w3.org/2000/svg" viewBox="0 0 193.29 161">
  <defs>
    <style>
      .cls-1 {
        stroke: #0a2956;
      }

      .cls-1, .cls-2 {
        fill: none;
        stroke-miterlimit: 10;
      }

      .cls-3 {
        fill: #fff;
      }

      .cls-4 {
        opacity: .5;
      }

      .cls-4, .cls-5 {
        fill: #0a2956;
      }

      .cls-2 {
        stroke: #fff;
      }

      .cls-6 {
        fill: #ffb5f3;
      }

      .cls-7 {
        fill: #7896e2;
      }

      .cls-8 {
        fill: #265fbb;
      }

      .cls-9 {
        fill: #ff5289;
        opacity: .2;
      }

      .cls-10 {
        fill: #fd5287;
      }

      .cls-11 {
        fill: #ffdfe3;
      }
    </style>
  </defs>
  <g id="OBJECTS">
    <g>
      <path class="cls-3" d="m173.03,47.3h-8.67c-2.86,0-5.51.9-7.7,2.42-2.32-1.69-5.18-2.69-8.27-2.69l-1.46-.49V8.82h-4.56V1.55h-76.93V0H0v123.52h31.79v16.8c0,11.4,9.28,20.68,20.68,20.68h102.76c11.4,0,20.68-9.28,20.68-20.68v-10.39c1.22.36,2.51.57,3.85.57,7.46,0,13.54-6.07,13.54-13.54v-49.4c0-11.17-9.09-20.26-20.26-20.26Z"/>
      <g>
        <g>
          <rect class="cls-5" x="10" y="10" width="45.43" height="103.52"/>
          <g>
            <rect class="cls-8" x="19.31" y="90.11" width="26.82" height="23.41"/>
            <rect class="cls-8" x="9.31" y="48.35" width="46.82" height="26.82" transform="translate(-29.05 94.48) rotate(-90)"/>
            <rect class="cls-8" x="19.31" y="10" width="26.82" height="23.41"/>
          </g>
          <g>
            <rect class="cls-7" x="11.46" y="105.73" width="6.05" height="4.24" transform="translate(-93.36 122.33) rotate(-90)"/>
            <rect class="cls-7" x="11.46" y="97.35" width="6.05" height="4.24" transform="translate(-84.98 113.95) rotate(-90)"/>
            <rect class="cls-7" x="11.46" y="88.97" width="6.05" height="4.24" transform="translate(-76.6 105.57) rotate(-90)"/>
            <rect class="cls-7" x="11.46" y="80.59" width="6.05" height="4.24" transform="translate(-68.22 97.19) rotate(-90)"/>
            <rect class="cls-7" x="11.46" y="72.21" width="6.05" height="4.24" transform="translate(-59.84 88.81) rotate(-90)"/>
            <rect class="cls-7" x="11.46" y="63.83" width="6.05" height="4.24" transform="translate(-51.46 80.44) rotate(-90)"/>
            <rect class="cls-7" x="11.46" y="55.45" width="6.05" height="4.24" transform="translate(-43.08 72.06) rotate(-90)"/>
            <rect class="cls-7" x="11.46" y="47.07" width="6.05" height="4.24" transform="translate(-34.7 63.68) rotate(-90)"/>
            <rect class="cls-7" x="11.46" y="38.69" width="6.05" height="4.24" transform="translate(-26.32 55.3) rotate(-90)"/>
            <rect class="cls-7" x="11.46" y="30.31" width="6.05" height="4.24" transform="translate(-17.94 46.92) rotate(-90)"/>
            <rect class="cls-7" x="11.46" y="21.93" width="6.05" height="4.24" transform="translate(-9.56 38.54) rotate(-90)"/>
            <rect class="cls-7" x="11.46" y="13.55" width="6.05" height="4.24" transform="translate(-1.18 30.16) rotate(-90)"/>
          </g>
          <g>
            <rect class="cls-7" x="47.86" y="105.73" width="6.05" height="4.24" transform="translate(-56.96 158.74) rotate(-90)"/>
            <rect class="cls-7" x="47.86" y="97.35" width="6.05" height="4.24" transform="translate(-48.58 150.36) rotate(-90)"/>
            <rect class="cls-7" x="47.86" y="88.97" width="6.05" height="4.24" transform="translate(-40.2 141.98) rotate(-90)"/>
            <rect class="cls-7" x="47.86" y="80.59" width="6.05" height="4.24" transform="translate(-31.82 133.6) rotate(-90)"/>
            <rect class="cls-7" x="47.86" y="72.21" width="6.05" height="4.24" transform="translate(-23.44 125.22) rotate(-90)"/>
            <rect class="cls-7" x="47.86" y="63.83" width="6.05" height="4.24" transform="translate(-15.06 116.84) rotate(-90)"/>
            <rect class="cls-7" x="47.86" y="55.45" width="6.05" height="4.24" transform="translate(-6.68 108.46) rotate(-90)"/>
            <rect class="cls-7" x="47.86" y="47.07" width="6.05" height="4.24" transform="translate(1.7 100.08) rotate(-90)"/>
            <rect class="cls-7" x="47.86" y="38.69" width="6.05" height="4.24" transform="translate(10.08 91.7) rotate(-90)"/>
            <rect class="cls-7" x="47.86" y="30.31" width="6.05" height="4.24" transform="translate(18.46 83.32) rotate(-90)"/>
            <rect class="cls-7" x="47.86" y="21.93" width="6.05" height="4.24" transform="translate(26.84 74.94) rotate(-90)"/>
            <rect class="cls-7" x="47.86" y="13.55" width="6.05" height="4.24" transform="translate(35.22 66.56) rotate(-90)"/>
          </g>
        </g>
        <g>
          <path class="cls-11" d="m165.9,79.16v61.16c0,5.9-4.78,10.68-10.68,10.68H52.47c-5.9,0-10.68-4.78-10.68-10.68v-61.16c0-5.9,4.78-10.69,10.68-10.69h102.76c5.9,0,10.68,4.79,10.68,10.69Z"/>
          <path class="cls-6" d="m165.9,121.51v18.81c0,5.9-4.78,10.68-10.68,10.68H52.47c-5.9,0-10.68-4.78-10.68-10.68v-18.81h124.12Z"/>
          <rect class="cls-8" x="41.79" y="111.58" width="124.12" height="9.93"/>
          <g>
            <path class="cls-10" d="m107.24,132.81c-3.43,3.28-7.93,5.09-12.67,5.09s-9.25-1.81-12.68-5.09c-8.73-8.37-22.48-24.65-16.44-39.69,2.81-7,9.46-11.52,16.93-11.52,5.25,0,9.27,1.46,12.18,3.15,2.9-1.7,6.92-3.15,12.17-3.15,7.49,0,14.13,4.53,16.94,11.52,6.05,15.05-7.71,31.33-16.45,39.69Z"/>
            <path class="cls-8" d="m100.87,126.15c-1.76,1.69-4.03,2.53-6.29,2.53s-4.54-.84-6.3-2.53c-23.52-22.54-14.58-35.35-5.87-35.34,9.41,0,12.17,6.91,12.17,6.91,0,0,2.77-6.91,12.17-6.91,8.71,0,17.65,12.81-5.88,35.34Z"/>
            <path class="cls-2" d="m94.57,133.29c-3.55,0-6.92-1.35-9.48-3.81-18.39-17.62-17.51-29.27-15.35-34.65,2.11-5.24,7.08-8.63,12.66-8.63,5.44,0,9.44,1.87,12.17,4.16,2.73-2.29,6.73-4.16,12.17-4.16s10.56,3.39,12.67,8.63c2.16,5.38,3.04,17.03-15.36,34.65-2.56,2.46-5.93,3.81-9.48,3.81Z"/>
            <path class="cls-5" d="m94.58,97.73v30.95c-2.27,0-4.54-.84-6.3-2.53-23.52-22.54-14.58-35.35-5.87-35.34,9.41,0,12.17,6.91,12.17,6.91Z"/>
            <circle class="cls-3" cx="106.79" cy="100.11" r="5.36"/>
          </g>
          <rect class="cls-10" x="136.1" y="76.56" width="17.18" height="17.18"/>
          <path class="cls-5" d="m140.98,57.03h7.41c2.27,0,4.11,1.84,4.11,4.11v4.48h-15.62v-4.48c0-2.27,1.84-4.11,4.11-4.11Z"/>
          <path class="cls-10" d="m179.75,120.5c-1.95,0-3.54-1.58-3.54-3.54v-49.4c0-1.76-1.43-3.19-3.19-3.19h-8.67c-1.95,0-3.54-1.58-3.54-3.54s1.58-3.54,3.54-3.54h8.67c5.66,0,10.26,4.6,10.26,10.26v49.4c0,1.95-1.58,3.54-3.54,3.54Z"/>
          <line class="cls-1" x1="171.04" y1="60.69" x2="152.5" y2="60.69"/>
          <rect class="cls-6" x="134.93" y="63.25" width="19.51" height="5.23"/>
          <polygon class="cls-11" points="89.72 55.19 65.21 55.19 62.68 75.15 92.25 75.15 89.72 55.19"/>
          <rect class="cls-3" x="69.44" y="60.33" width="16.76" height="14.56"/>
          <rect class="cls-7" x="69.44" y="68.48" width="16.76" height="6.41"/>
          <rect class="cls-3" x="144.69" y="111.58" width="8.59" height="30.39"/>
          <path class="cls-5" d="m56,78.97c0,2.25-1.82,4.08-4.08,4.08s-4.08-1.82-4.08-4.08,1.82-4.08,4.08-4.08,4.08,1.82,4.08,4.08Z"/>
          <path class="cls-5" d="m56,137.9c0,2.25-1.82,4.08-4.08,4.08s-4.08-1.82-4.08-4.08,1.82-4.08,4.08-4.08,4.08,1.82,4.08,4.08Z"/>
        </g>
        <g>
          <g>
            <rect class="cls-8" x="127.3" y="18.82" width="9.63" height="17.72"/>
            <rect class="cls-8" x="68.74" y="18.82" width="9.63" height="17.72"/>
          </g>
          <rect class="cls-10" x="73.31" y="11.55" width="59.06" height="32.25"/>
          <polygon class="cls-4" points="102.83 11.55 102.83 43.81 73.31 43.81 73.31 36.54 68.74 36.54 68.74 18.82 73.31 18.82 73.31 11.55 102.83 11.55"/>
          <rect class="cls-11" x="84.32" y="11.55" width="37.03" height="32.26"/>
          <rect class="cls-8" x="92.34" y="11.55" width="20.98" height="32.26"/>
          <path class="cls-6" d="m102.96,35.37s-.09-.07-.13-.11c-11.65-9.53-8.1-15.12-4.6-15.16,3.52-.04,4.58,2.54,4.58,2.54,0,0,0-.02.01-.04.15-.33,1.25-2.56,4.51-2.6,3.52-.04,7.2,5.51-4.38,15.37Z"/>
          <path class="cls-9" d="m102.83,22.59v12.67c-11.65-9.53-8.1-15.12-4.6-15.16,3.52-.04,4.58,2.54,4.58,2.54,0,0,0-.02.01-.04Z"/>
        </g>
        <line class="cls-1" x1="69.44" y1="74.89" x2="129.15" y2="74.89"/>
      </g>
    </g>
  </g>
</svg>