<?xml version="1.0" encoding="UTF-8"?>
<svg id="_Слой_2" data-name="Слой 2" xmlns="http://www.w3.org/2000/svg" viewBox="0 0 204.02 194.49">
  <defs>
    <style>
      .cls-1 {
        opacity: .18;
      }

      .cls-2, .cls-3, .cls-4 {
        fill: #fff;
      }

      .cls-5, .cls-6, .cls-3 {
        opacity: .5;
      }

      .cls-6, .cls-7 {
        fill: #e38921;
      }

      .cls-8 {
        fill: #332fba;
      }

      .cls-9 {
        opacity: .35;
      }

      .cls-9, .cls-10, .cls-11 {
        fill: #0a1640;
      }

      .cls-12 {
        fill: #d811ad;
      }

      .cls-4 {
        opacity: .75;
      }

      .cls-11, .cls-13 {
        opacity: .25;
      }

      .cls-14 {
        fill: #ffce00;
      }

      .cls-15 {
        fill: #ff8cdb;
      }

      .cls-16 {
        fill: #6b7fff;
      }
    </style>
  </defs>
  <g id="OBJECTS">
    <g>
      <g>
        <g>
          <path class="cls-14" d="m185.02,112.34c-.88,0-1.77-.07-2.64-.19-3.98-.58-7.56-2.41-10.36-5.29-3.97-4.07-5.77-9.63-4.95-15.26,1.29-8.84,8.99-15.5,17.91-15.5.88,0,1.77.06,2.64.19,4.06.59,7.83,2.58,10.63,5.58,3.77,4.04,5.48,9.5,4.68,14.97-1.29,8.84-8.99,15.5-17.91,15.5Z"/>
          <path class="cls-6" d="m202.04,96.71c-1.38,9.41-10.12,15.92-19.53,14.55-3.9-.57-7.3-2.4-9.84-5.03,22.33,5.59,25.27-12.12,24.93-23.75,3.44,3.69,5.23,8.85,4.45,14.23Z"/>
          <g>
            <path class="cls-12" d="m172.19,93.68c1.65-1.37,4.64-1.01,6.25.27,1.6,1.26,1.16,3.48-1.61,3.87-3.79.52-6.79-2.35-4.64-4.13Z"/>
            <path class="cls-12" d="m197.42,97.38c-1.19-1.79-4.15-2.3-6.06-1.54-1.89.75-2.11,3.01.43,4.17,3.48,1.59,7.18-.31,5.63-2.63Z"/>
          </g>
          <path class="cls-4" d="m172.19,89.05h0c-.37.62-1.32.24-1.17-.46,1.32-6.36,8.98-10.89,15.4-8.97.64.19.53,1.14-.13,1.18-.6.31-8.76-.42-14.09,8.25Z"/>
        </g>
        <g>
          <path class="cls-10" d="m185.09,97.51c-.07,0-.14,0-.21,0-1.19-.05-2.23-.59-3-1.54-.93-1.15-1.33-2.83-1.06-4.36.09-.49.55-.82,1.04-.73.49.09.82.55.73,1.04-.18,1.03.09,2.17.69,2.92.44.55,1,.84,1.67.87,1.66.07,2.79-1.5,3-3.03.07-.49.53-.84,1.01-.77.49.07.84.52.77,1.01-.31,2.26-2.04,4.59-4.66,4.59Z"/>
          <path class="cls-10" d="m195.88,94.82c-.15,0-.3-.04-.44-.12l-4.11-2.31c-.3-.17-.48-.49-.46-.84.02-.34.23-.65.55-.78l4.15-1.74c.46-.19.99.02,1.18.48.19.46-.02.99-.48,1.18l-2.45,1.03,2.51,1.41c.43.24.59.79.34,1.23-.16.29-.47.46-.79.46Z"/>
          <path class="cls-10" d="m174.66,91.72c-.41,0-.78-.28-.88-.7-.11-.48.19-.97.68-1.08l2.81-.63-2.06-1.69c-.38-.32-.44-.88-.12-1.27.32-.38.88-.44,1.27-.12l3.48,2.86c.27.22.38.57.3.9-.08.34-.34.59-.68.67l-4.6,1.04c-.07.01-.13.02-.2.02Z"/>
          <path class="cls-10" d="m184.98,77c.83,0,1.67.06,2.51.18,4.03.59,7.52,2.53,10.1,5.3,3.44,3.69,5.23,8.85,4.45,14.23-1.25,8.56-8.61,14.73-17.02,14.73-.83,0-1.67-.06-2.51-.18-3.9-.57-7.3-2.4-9.84-5.03-3.61-3.7-5.51-8.99-4.7-14.5,1.25-8.56,8.61-14.73,17.02-14.73m0-1.8h0c-9.36,0-17.44,7-18.8,16.27-.86,5.9,1.03,11.74,5.2,16.02,2.93,3.02,6.69,4.94,10.87,5.56.92.13,1.85.2,2.77.2,9.36,0,17.44-6.99,18.8-16.27.84-5.75-.95-11.48-4.91-15.72-2.93-3.15-6.89-5.23-11.15-5.85-.92-.13-1.85-.2-2.77-.2h0Z"/>
        </g>
      </g>
      <g>
        <g>
          <path class="cls-14" d="m138.21,37.15c-1.34,0-2.69-.15-4.01-.45-3.93-.89-7.36-2.99-9.92-6.08-3.64-4.37-5.01-10.05-3.76-15.59,1.85-8.19,9.28-14.13,17.66-14.13,1.34,0,2.69.15,4.01.45,4.06.92,7.58,3.12,10.17,6.38,3.45,4.32,4.73,9.89,3.51,15.29-1.85,8.19-9.28,14.13-17.66,14.13Z"/>
          <path class="cls-6" d="m154.99,22.82c-2.1,9.27-11.32,15.1-20.59,13-3.84-.87-7.09-2.96-9.42-5.77,21.83,7.29,26.13-10.14,26.68-21.76,3.15,3.94,4.54,9.23,3.34,14.53Z"/>
          <g>
            <path class="cls-12" d="m125.47,17.5c1.75-1.24,4.7-.65,6.21.75,1.49,1.38.89,3.56-1.9,3.73-3.82.23-6.59-2.87-4.31-4.48Z"/>
            <path class="cls-12" d="m150.34,23.13c-1.05-1.87-3.97-2.61-5.93-2-1.94.6-2.34,2.83.11,4.19,3.35,1.85,7.18.24,5.82-2.19Z"/>
          </g>
          <path class="cls-4" d="m125.82,12.88h0c-.42.59-1.33.14-1.13-.54,1.81-6.24,9.79-10.17,16.04-7.76.63.24.44,1.17-.22,1.16-.62.27-8.7-1.1-14.68,7.14Z"/>
        </g>
        <g>
          <path class="cls-10" d="m150.11,16.68h-.18s.11-.07.11-.07c.41-.28.52-.84.24-1.25-.27-.41-.83-.52-1.25-.24l-1.24.84c-.07-.04-.12-.1-.19-.13-.89-.43-2.09-.21-2.75.75-1.16,1.69.78,3.65,2.62,2.84.42-.19.73-.51.93-.88l1.78-.06c.5-.02.89-.43.87-.93-.02-.5-.45-.9-.93-.87Z"/>
          <path class="cls-10" d="m153.06,7.17c-2.68-3.37-6.47-5.75-10.67-6.7-1.38-.31-2.8-.47-4.21-.47-8.94,0-16.56,6.1-18.54,14.83-1.32,5.82.12,11.79,3.95,16.37,2.69,3.24,6.29,5.44,10.41,6.38,1.38.31,2.8.47,4.21.47,8.94,0,16.56-6.1,18.54-14.83,1.28-5.67-.06-11.52-3.69-16.05Zm1.93,15.65c-1.81,8-8.91,13.43-16.78,13.43-1.26,0-2.53-.14-3.81-.43-3.84-.87-7.09-2.96-9.42-5.77-3.31-3.97-4.8-9.39-3.57-14.82,1.81-8,8.91-13.43,16.78-13.43,1.26,0,2.53.14,3.81.43,3.97.9,7.31,3.1,9.66,6.06,3.15,3.94,4.54,9.23,3.34,14.53Z"/>
          <path class="cls-10" d="m131.09,12.09c-.08,0-.15.03-.23.04l-.76-1.29c-.25-.43-.81-.57-1.23-.32-.43.25-.57.8-.32,1.23l.07.11-.16-.08c-.44-.23-.98-.06-1.21.38-.23.44-.06.98.38,1.21l1.58.82c.02.42.15.84.46,1.19,1.31,1.52,3.9.59,3.59-1.44-.18-1.15-1.17-1.87-2.16-1.86Z"/>
          <path class="cls-10" d="m142.35,17.03c-.49-.11-.97.2-1.07.69-.33,1.51-1.58,3-3.23,2.79-.67-.08-1.21-.42-1.6-1-.54-.79-.73-1.96-.47-2.97.12-.48-.17-.97-.65-1.09-.48-.12-.97.17-1.09.65-.39,1.51-.11,3.21.72,4.43.69,1.01,1.68,1.62,2.87,1.77.18.02.36.03.54.03,2.44,0,4.21-2.1,4.67-4.23.11-.49-.2-.97-.69-1.07Z"/>
        </g>
      </g>
      <g>
        <g>
          <path class="cls-16" d="m185.54,61.37c-.22,0-.45-.06-.64-.16l-7.61-4.02-7.63,4c-.19.1-.41.16-.63.16-.4,0-.78-.18-1.04-.49-.26-.31-.37-.71-.3-1.11l1.47-8.49-6.16-6.02c-.37-.37-.51-.9-.34-1.4.16-.5.58-.85,1.1-.93l8.53-1.23,3.82-7.72c.24-.47.71-.76,1.23-.76s.99.29,1.22.75l3.8,7.74,8.52,1.25c.52.08.94.43,1.1.93.16.5.03,1.04-.35,1.4l-6.18,6,1.45,8.49c.07.4-.04.8-.3,1.11-.26.31-.64.49-1.04.49Z"/>
          <path class="cls-2" d="m177.54,40.77l2.13,4.34c.04.08.11.13.19.14l4.79.7c.21.03.29.29.14.43l-3.47,3.37c-.06.06-.09.14-.07.23l.81,4.77c.04.21-.18.37-.37.27l-4.28-2.26c-.07-.04-.16-.04-.24,0l-4.28,2.24c-.19.1-.41-.06-.37-.27l.83-4.77c.01-.08-.01-.17-.07-.23l-3.46-3.38c-.15-.15-.07-.4.14-.43l4.79-.69c.08-.01.15-.06.19-.14l2.15-4.33c.09-.19.36-.19.46,0Z"/>
          <path class="cls-11" d="m184.66,50.8c-.11.11-.16.26-.14.41l1.48,8.72c.06.38-.34.67-.68.49l-7.82-4.13c-.14-.08-.3-.08-.44,0l-7.83,4.1c-.34.18-.74-.11-.68-.49l1.29-7.41c.68.04,1.35.1,2.02.12,1.75.05,3.62-.16,5-1.25,1.68-1.33,2.23-3.64,3.53-5.35,1.14-1.49,2.83-2.47,4.63-3.01l5.71.84c.38.06.53.53.26.8l-6.34,6.16Z"/>
        </g>
        <path class="cls-10" d="m177.33,34.11c.17,0,.33.09.42.26l3.9,7.94c.07.13.19.23.35.25l3.03.44,5.71.84c.38.06.53.53.26.8l-6.34,6.16c-.11.11-.16.26-.14.41l1.48,8.72c.05.3-.19.54-.46.54-.07,0-.15-.02-.22-.06l-7.82-4.13c-.07-.04-.14-.06-.22-.06s-.15.02-.22.06l-7.83,4.1c-.07.04-.14.05-.21.05-.27,0-.51-.25-.46-.54l1.29-7.41.23-1.3c.02-.15-.02-.31-.14-.41l-6.32-6.18c-.28-.27-.12-.74.26-.8l8.75-1.26c.16-.02.28-.12.35-.25l3.93-7.92c.09-.17.25-.26.42-.26m0-1.8h0c-.86,0-1.63.47-2.02,1.24l-3.62,7.31-8.06,1.16c-.86.13-1.56.71-1.83,1.54-.27.82-.05,1.71.57,2.32l5.82,5.69-.11.61-1.29,7.41c-.11.67.07,1.34.5,1.85.43.51,1.06.81,1.73.81.37,0,.74-.09,1.06-.27l7.2-3.77,7.2,3.8c.32.17.69.26,1.06.26.67,0,1.3-.29,1.73-.8.43-.51.62-1.18.51-1.83l-1.37-8.03,5.84-5.67c.62-.61.84-1.5.58-2.32-.27-.83-.97-1.42-1.82-1.54l-5.71-.84-2.34-.34-3.59-7.3c-.4-.79-1.18-1.27-2.04-1.27h0Z"/>
      </g>
      <g>
        <g>
          <path class="cls-15" d="m147.26,139.94c-.57,0-1.09-.36-1.27-.9l-2.65-7.76-7.89-2.22c-.5-.14-.86-.54-.96-1.05-.1-.51.1-1.01.51-1.32l6.56-4.92-.34-8.19c0-.38.12-.73.38-.99.25-.26.61-.41.97-.41.27,0,.54.08.76.24l6.71,4.72,7.69-2.85c.15-.06.31-.08.47-.08.42,0,.83.21,1.08.55.26.35.33.78.2,1.2l-2.41,7.84,5.09,6.43c.32.41.38.95.15,1.42-.22.46-.68.75-1.2.76l-8.19.12-4.55,6.82c-.24.37-.66.6-1.12.6Z"/>
          <path class="cls-2" d="m145.58,118.61l3.78,2.66c.07.05.15.06.22.03l4.33-1.6c.19-.07.38.11.32.3l-1.36,4.41c-.02.08,0,.16.04.22l2.86,3.62c.12.16.01.39-.19.39l-4.62.07c-.08,0-.15.04-.2.11l-2.56,3.84c-.11.17-.37.13-.43-.06l-1.49-4.37c-.03-.08-.09-.13-.16-.16l-4.44-1.25c-.19-.05-.24-.31-.08-.43l3.69-2.77c.06-.05.1-.12.1-.2l-.19-4.61c0-.2.22-.32.38-.21Z"/>
          <g class="cls-5">
            <path class="cls-12" d="m156.14,123.75c-.05.14-.02.3.07.41l5.24,6.62c.22.29.02.72-.34.72l-8.44.13c-.15,0-.29.07-.37.2l-4.68,7.02c-.2.31-.67.24-.79-.1l-2.32-6.79c.59-.27,1.18-.53,1.75-.83,1.49-.76,2.96-1.8,3.61-3.34.8-1.89.2-4.07.5-6.1.27-1.77,1.24-3.36,2.5-4.64l5.17-1.91c.35-.13.69.2.58.55l-2.48,8.06Z"/>
          </g>
        </g>
        <path class="cls-10" d="m142.57,113.08c.09,0,.17.03.25.08l6.9,4.86c.08.05.16.08.25.08.05,0,.1,0,.15-.03l2.74-1.02,5.17-1.91c.05-.02.1-.03.16-.03.28,0,.52.28.42.58l-2.48,8.06c-.05.14-.02.29.07.41l5.24,6.62c.22.29.02.72-.34.72l-8.44.13c-.15,0-.29.07-.37.2l-4.68,7.02c-.09.13-.23.2-.37.2-.18,0-.36-.1-.42-.3l-2.32-6.79-.41-1.2c-.05-.14-.16-.25-.3-.28l-8.12-2.28c-.35-.1-.44-.56-.15-.78l6.75-5.06c.12-.09.18-.23.18-.37l-.35-8.43c0-.27.21-.46.45-.46m0-1.8c-.6,0-1.19.25-1.62.68-.43.44-.65,1.02-.63,1.63l.32,7.74-6.18,4.64c-.69.52-1.02,1.36-.86,2.21.16.85.77,1.52,1.6,1.75l7.44,2.09.18.52,2.32,6.79c.32.91,1.17,1.52,2.13,1.52.76,0,1.46-.38,1.87-1.01l4.27-6.42,7.73-.12c.84,0,1.61-.49,1.98-1.26.38-.78.28-1.68-.25-2.36l-4.8-6.07,2.27-7.38c.21-.68.08-1.43-.34-2-.42-.57-1.1-.91-1.8-.91-.27,0-.53.05-.78.14l-5.17,1.91-2.08.77-6.31-4.44c-.4-.27-.84-.41-1.29-.41h0Z"/>
      </g>
      <g>
        <g>
          <path class="cls-2" d="m133.21,102.84c-9.1,0-18.42-3.53-18.73-11.41-.16-4.29,3.14-8.1,8.84-10.19.53-.19,1.04-.47,1.53-.82,1.14-.8,2.14-1.93,2.98-3.39,1.04-1.8,1.57-4.08,2.08-6.29.74-3.19,1.45-6.21,3.64-7.65.71-.47,1.45-.7,2.2-.7,2.48,0,4.48,2.64,4.9,5.09.46,2.67.4,5.37.34,7.99.04,0,.1,0,.16,0,.58,0,1.37-.16,1.89-.26.28-.05.49-.09.61-.11.62-.06,1.22-.09,1.79-.09,2.46,0,4.46.57,5.95,1.69,2.34,1.76,3.85,4.56,4.25,7.9.51,4.13-.78,8.62-3.29,11.44-3.74,4.2-11.08,6.81-19.16,6.81Z"/>
          <g class="cls-1">
            <path class="cls-10" d="m151.7,95.43c-8.66,9.73-35.83,8.68-36.31-4.04-.17-4.52,3.97-7.74,8.25-9.31.56-.21,1.16-.51,1.74-.93,2.92,1.43,3.47,4.02,6.41,7.74,2.37,2.99,7.53,4.9,12.98,3.65,7.86-1.79,9.3-5.83,10-7.84.48,3.87-.69,8.06-3.07,10.73Z"/>
            <path class="cls-10" d="m132.56,78.37c-.45.39-1.12-.09-.89-.64.9-2.14,2.15-4.89,2.55-8.01.32-2.54-.21-3.3.61-3.34,1.55-.07,2.63,7.76-2.28,11.98Z"/>
          </g>
          <path class="cls-16" d="m115.25,104.7c-3.75,0-6.94-2.93-7.25-6.67l-.89-10.62c-.23-2.76,1.09-5.37,3.45-6.83.98-.6,2.05-.95,3.2-1.04l8.49-.72c.09,0,.18-.01.26-.01,1.62,0,2.99,1.26,3.12,2.87l1.59,18.89c.15,1.72-1.14,3.24-2.86,3.39l-8.49.72c-.21.02-.41.03-.62.03Z"/>
          <g class="cls-13">
            <path class="cls-10" d="m126.05,97.39l.27,3.25c.1,1.23-.81,2.31-2.04,2.41l-8.49.72c-3.52.3-6.6-2.31-6.9-5.83l-.9-10.62c-.21-2.49,1.04-4.76,3.03-5.98,1.11,1.43,1.66,3.25,2.02,5.04.41,2.03.63,4.12,1.38,6.05.76,1.93,2.17,3.74,4.16,4.33,1.97.59,4.12-.11,6.15.24.45.07.9.21,1.31.39Z"/>
          </g>
        </g>
        <path class="cls-10" d="m156.55,84.48c-.43-3.58-2.07-6.6-4.61-8.51-1.65-1.24-3.83-1.86-6.49-1.86-.6,0-1.23.03-1.88.09-.18.02-.39.06-.69.12-.26.05-.61.12-.96.17.05-2.35.04-4.76-.38-7.17-.5-2.87-2.8-5.84-5.79-5.84-.93,0-1.84.29-2.7.85-2.49,1.64-3.23,4.83-4.02,8.2-.5,2.14-1.01,4.36-1.99,6.05-.54.93-1.16,1.74-1.83,2.38-.72-.65-1.67-1.06-2.71-1.06-.11,0-.23.01-.34.01l-8.49.72c-1.29.11-2.49.5-3.59,1.17-2.66,1.64-4.14,4.57-3.88,7.67l.89,10.62c.36,4.21,3.94,7.5,8.15,7.5.23,0,.46-.01.7-.03l8.49-.72c1.07-.09,2.05-.59,2.74-1.41.05-.06.1-.12.15-.19,1.91.34,3.91.5,5.89.5,8.32,0,15.92-2.73,19.83-7.12,2.71-3.04,4.05-7.7,3.51-12.14Zm-32.27,18.57l-8.49.72c-.19.01-.37.02-.55.02-3.29,0-6.07-2.52-6.35-5.85l-.9-10.62c-.21-2.49,1.04-4.76,3.03-5.98.82-.5,1.77-.83,2.8-.92l8.49-.71c.07-.01.13-.01.19-.01.44,0,.86.13,1.22.36.51.33.88.87.98,1.51.02.06.02.12.03.18l1.59,18.89c.02.19,0,.38-.02.57-.12.67-.54,1.25-1.12,1.57-.27.15-.57.24-.9.27Zm27.41-7.62c-3.84,4.31-11.31,6.51-18.48,6.51-1.75,0-3.49-.13-5.15-.4.06-.34.08-.69.05-1.05l-1.59-18.89c-.03-.4-.13-.79-.27-1.15.83-.75,1.63-1.73,2.35-2.97,2.6-4.5,2.14-11.47,5.44-13.64.59-.39,1.17-.56,1.71-.56,2.04,0,3.67,2.34,4.02,4.35.47,2.69.38,5.44.32,8.15,0,.44.46.58,1.07.58.96,0,2.26-.34,2.58-.37.55-.05,1.13-.08,1.71-.08,1.91,0,3.88.35,5.41,1.5,2.31,1.74,3.55,4.41,3.9,7.29.48,3.86-.69,8.06-3.07,10.73Z"/>
      </g>
      <g>
        <g>
          <path class="cls-12" d="m79.33,39.69c-3.22,0-7.5-1.15-11.17-3.01-2.39-1.2-5.59-3.22-7.25-6.02-1.37-2.32-1.62-5.04-.66-7.29.83-1.95,2.5-3.34,4.58-3.81.68-.16,1.4-.24,2.14-.24,2.7,0,5.78,1.09,8.68,3.07.24-1.14.6-2.73,1.09-3.86,2.41-5.47,5.7-6.61,7.44-6.8.23-.03.47-.04.71-.04,1.81,0,3.55.79,4.89,2.21,1.69,1.79,2.57,4.4,2.41,7.16-.33,5.78-3.5,13.91-8.72,17.6-.96.68-2.36,1.02-4.15,1.02Z"/>
          <g class="cls-13">
            <path class="cls-10" d="m91.3,21.02c-.33,5.78-3.45,13.46-8.34,16.91-2.53,1.78-9.07.63-14.39-2.05.41-.73.93-1.39,1.57-1.93,2.62-2.2,6.48-2.48,9.11-4.69,2.4-2,3.35-5.25,3.77-8.34.39-2.76.46-5.62,1.26-8.29,3.82-.44,7.31,3.29,7.01,8.39Z"/>
          </g>
          <path class="cls-3" d="m72.86,25.61c.61.47,1.39,1.42,1.89,2.48.31.66-.37,1.35-1.03,1.06-1.13-.49-2.16-1.42-4.52-2.1-3.38-.85-5.37.86-5.6-.55-.22-1.38,5.06-4.53,9.26-.89Z"/>
        </g>
        <path class="cls-10" d="m84.89,12.6c3.57,0,6.68,3.59,6.41,8.42-.33,5.78-3.45,13.46-8.34,16.91-.83.59-2.11.86-3.63.86-3.09,0-7.2-1.11-10.77-2.91-2.98-1.49-5.57-3.47-6.88-5.67-2.38-4-.82-8.81,3.35-9.77.64-.15,1.29-.21,1.94-.21,2.89,0,5.85,1.31,8.22,2.94.53.36.82.6.98.6.09,0,.14-.07.18-.23.19-.94.61-3.23,1.23-4.64,1.82-4.13,4.33-6,6.71-6.26.2-.02.41-.03.61-.03m0-1.8h0c-.27,0-.54.02-.81.05-1.93.21-5.57,1.44-8.16,7.32-.35.82-.64,1.83-.87,2.77-2.72-1.63-5.55-2.51-8.08-2.51-.8,0-1.59.09-2.34.26-2.36.54-4.26,2.12-5.21,4.34-1.08,2.51-.81,5.54.71,8.11,1.77,2.98,5.12,5.11,7.62,6.36,3.85,1.94,8.17,3.1,11.57,3.1,1.98,0,3.54-.4,4.66-1.19,5.51-3.89,8.75-12.14,9.1-18.28.17-3.01-.8-5.86-2.66-7.83-1.52-1.61-3.49-2.49-5.55-2.49h0Z"/>
      </g>
      <g>
        <g>
          <g>
            <path class="cls-16" d="m102.99,41.22c1.58,1.72,4.25,1.82,5.97.24,1.72-1.58,1.82-4.25.24-5.97-1.58-1.72-4.25-1.82-5.97-.24-1.72,1.58-1.82,4.25-.24,5.97Z"/>
            <path class="cls-16" d="m118.93,58.51c1.58,1.72,4.25,1.82,5.97.24,1.72-1.58,1.82-4.25.24-5.97-1.58-1.72-4.25-1.82-5.97-.24-1.72,1.58-1.82,4.25-.24,5.97Z"/>
          </g>
          <path class="cls-12" d="m97.5,62.27c1.58,1.72,4.25,1.82,5.97.24s1.82-4.25.24-5.97c-1.58-1.72-4.25-1.82-5.97-.24-1.72,1.58-1.82,4.25-.24,5.97Z"/>
        </g>
        <path class="cls-10" d="m125.78,52.19h0c-1.47-1.59-3.64-2.08-5.65-1.26-1.97.79-3.18,2.58-3.19,4.69l-11.55,2.03c-.47-1.26-1.44-2.32-2.64-2.87l2.96-11.36c2.02.19,3.94-.87,4.91-2.75,1.01-1.95.71-4.16-.77-5.78-1.9-2.06-5.13-2.19-7.2-.29-1.29,1.2-1.87,2.94-1.56,4.67.31,1.67,1.4,3.05,2.93,3.72l-2.96,11.33c-2.02-.21-3.96.83-4.95,2.71-1.03,1.96-.74,4.19.75,5.82,1,1.08,2.31,1.65,3.68,1.65.66,0,1.34-.13,2.01-.41,1.98-.82,3.18-2.62,3.16-4.74l11.53-2.02c.94,2.69,3.39,3.62,5.45,3.34,2.13-.29,4.33-1.89,4.45-4.83.06-1.35-.42-2.66-1.34-3.67Zm-1.47,5.92c-.62.58-1.43.89-2.28.89-.04,0-.08,0-.11,0-.9-.03-1.74-.41-2.35-1.08-.82-.89-1.09-2.11-.73-3.27.36-1.16,1.28-2.01,2.45-2.27.26-.06.52-.09.78-.09,1.22,0,2.32.66,2.93,1.81.73,1.38.46,2.96-.68,4.02Zm-19.62-16.72c-1.26-.58-2-1.8-1.94-3.17.06-1.38.91-2.53,2.21-3.01,1.29-.48,2.67-.14,3.61.87,1.25,1.36,1.16,3.49-.2,4.74-1.01.93-2.42,1.15-3.68.57Zm-.73,18.06c-.03,1.41-.86,2.59-2.17,3.08-1.32.5-2.71.17-3.66-.85-1.15-1.25-1.02-2.77-.52-3.77.63-1.26,1.89-1.98,3.2-1.85h.04s0,0,0,0c1.73.11,3.15,1.66,3.1,3.39Z"/>
      </g>
      <g>
        <g>
          <path class="cls-9" d="m85.76,92.86c-1.52-4.57-4.29-9.73-8.01-14.93-2.53-3.52-5.42-6.98-8.59-10.27-3.17-3.29-6.52-6.3-9.95-8.95-5.06-3.91-10.12-6.86-14.63-8.54-6.29-2.35-11.13-2.17-14.01.53l-.26.25c-.27.26-.54.52-.8.78-1.03,1.01-2.05,2.05-3.05,3.09-2.99,3.14-5.8,6.42-8.39,9.78-2.45,3.19-4.68,6.42-6.63,9.62-2.79,4.54-5.13,9.16-6.96,13.73-1.93,4.83-3.25,9.55-3.94,14.04h0c-.88,5.85-.66,11.16.66,15.78.81,2.87,2.06,5.46,3.72,7.71.02.04.04.07.06.1.55.75,1.18,1.49,1.87,2.21.68.71,1.4,1.36,2.14,1.94.03.03.06.05.1.07,2.18,1.73,4.71,3.06,7.52,3.98,0,0,0,0,.01,0,.01,0,.02,0,.03.01,3.16,1.03,6.65,1.54,10.45,1.54,1.71,0,3.47-.1,5.29-.31,4.51-.52,9.28-1.68,14.17-3.43,4.63-1.66,9.33-3.84,13.96-6.46,3.27-1.84,6.59-3.96,9.86-6.29,3.45-2.47,6.83-5.16,10.07-8.03,1.08-.96,2.15-1.94,3.2-2.94,0,0,0,0,0,0,.27-.25.53-.5.81-.77l.26-.25s0,0,0,0c2.79-2.77,3.14-7.6,1.02-13.97Zm-1.34,11.35c-.26.5-.56.96-.94,1.33l-.28.27c-.25.24-.51.49-.78.74-1.02.97-2.06,1.92-3.12,2.86-.34.3-.7.59-1.04.89-.72.62-1.43,1.25-2.16,1.85-.41.34-.84.67-1.26,1.01-.67.54-1.33,1.08-2.01,1.6-.49.38-.99.74-1.48,1.11-.56.42-1.12.84-1.69,1.25-3.13-.75-6.34-1.91-9.56-3.42,7.27-5.01,15.37-11.24,24.34-18.98,1.15,4.03,1.14,7.3-.02,9.48Zm-18.16,15.26c-.57.38-1.14.76-1.7,1.12-.29.19-.58.36-.87.54-.51.32-1.01.64-1.52.94-.35.21-.7.41-1.05.61-.4.23-.8.47-1.2.7-3.43-.6-6.85-1.6-10.19-2.98,2.74-1.65,5.63-3.47,8.67-5.53,3.13,1.53,6.26,2.75,9.33,3.6-.26.18-.52.36-.78.54-.23.16-.46.3-.69.45Zm-11.52,6.64c-.62.31-1.24.62-1.86.91-.52.24-1.04.46-1.56.69-.61.27-1.22.55-1.83.8-.5.21-1.01.39-1.51.59-.58.23-1.16.46-1.74.67-2.69-.82-5.34-1.88-7.92-3.15,2.93-1.42,6.1-3.09,9.51-5.08,3.16,1.39,6.39,2.46,9.65,3.18-.4.21-.79.44-1.19.64-.51.26-1.02.5-1.53.75Zm-12.29,4.92c-1.11.33-2.2.63-3.29.9-.05.01-.1.03-.16.04-1.06.26-2.11.48-3.14.68-.08.01-.16.03-.23.05-1.01.18-2,.33-2.99.46-.07,0-.15.02-.22.03-1.45-.69-2.88-1.46-4.28-2.27,2.43-.86,5.13-1.95,8.09-3.31,2.33,1.22,4.72,2.26,7.15,3.13-.29.09-.57.2-.86.28-.03,0-.05.02-.08.02Zm-25.45.96c-1.97-.65-3.78-1.52-5.41-2.61,2.41-.69,4.87-1.6,7.37-2.71,1.62,1.34,3.28,2.58,4.99,3.73-2.37.7-4.69,1.24-6.96,1.59Zm-8.22-4.84l5.21-5.03c1.11,1.12,2.24,2.19,3.4,3.21-3.23,1.4-5.77,2.22-7.63,2.69-.33-.28-.66-.57-.98-.87Zm-3.38-4.19c-1.02-1.66-1.83-3.51-2.41-5.5.43-2.25,1.05-4.55,1.84-6.89,1.09,1.75,2.28,3.46,3.55,5.13-1.2,2.46-2.2,4.88-2.98,7.27Zm-3.45-17.56c.53,1.07,1.09,2.12,1.69,3.16-.63,1.74-1.13,3.33-1.52,4.76-.34-2.47-.39-5.12-.16-7.92Zm.43-3.59c.16-.98.35-1.98.57-2.99.02-.08.04-.16.05-.23.23-1.03.49-2.06.79-3.11.02-.05.03-.11.05-.16.31-1.07.64-2.16,1.02-3.25,0-.03.02-.05.03-.08.1-.28.21-.57.31-.85.78,2.46,1.74,4.88,2.87,7.26-1.47,2.91-2.65,5.56-3.6,7.96-.77-1.43-1.48-2.88-2.12-4.36.01-.07.02-.13.03-.2Zm42.11-49.74c3.94,1.55,8.31,4.09,12.72,7.39-2.9,2.49-6.5,5.68-10.48,9.4-3.65-2.65-7.43-4.89-11.23-6.68,3.43-4.03,6.55-7.48,9-10.11Zm-10.2,11.52c3.76,1.74,7.49,3.92,11.1,6.52-5.13,4.84-10.77,10.48-16.22,16.52-2.14-3.16-3.98-6.39-5.49-9.61,3.57-4.85,7.21-9.4,10.6-13.43Zm42.62,16.29c3.15,4.53,5.53,8.99,6.93,12.98-2.72,2.35-6.27,5.34-10.42,8.63-1.66-3.87-3.76-7.72-6.28-11.47,3.86-3.85,7.17-7.34,9.77-10.14Zm-4.95,22.76c-4.15,3.24-8.83,6.72-13.8,10.11-3.17-1.62-6.33-3.58-9.41-5.83,6.24-5.22,12.07-10.66,17.1-15.61,2.46,3.7,4.52,7.51,6.12,11.33Zm-50.89-3.47c1.84,2.66,3.91,5.22,6.19,7.65l-6.74,6.51c-1.85-1.97-3.55-4.02-5.11-6.15,1.6-2.46,3.47-5.13,5.65-8.01Zm-6.8,6.38c-1.57-2.3-2.97-4.68-4.18-7.11,1.62-3.11,3.41-6.22,5.33-9.29,1.28,2.88,2.81,5.71,4.59,8.44-2.04,2.63-3.97,5.29-5.74,7.96Zm31.62,1.47c-2.97,2.42-5.77,4.56-8.41,6.47-2.68-1.96-5.24-4.18-7.66-6.62l7.63-7.36c2.69,2.73,5.52,5.24,8.45,7.51Zm-17.32-1.45c-2.35-2.5-4.47-5.15-6.34-7.9,2-2.57,4.24-5.29,6.77-8.17,2.16,3,4.57,5.92,7.2,8.71l-7.63,7.36Zm-8.08,10.3c1.79,1.81,3.66,3.5,5.59,5.05-2.53,1.46-4.82,2.64-6.87,3.6-1.34-1.15-2.64-2.37-3.91-3.65l5.19-5.01Zm1.3-1.25l6.74-6.51c2.35,2.37,4.83,4.53,7.42,6.47-2.95,2.08-5.69,3.85-8.2,5.36-2.07-1.63-4.06-3.41-5.96-5.32Zm15.7,1.08c2.67,1.87,5.44,3.51,8.27,4.89-3.14,1.81-6.31,3.49-9.48,4.99-2.39-1.29-4.71-2.78-6.96-4.43,2.73-1.67,5.46-3.51,8.16-5.45Zm1.55-1.12c2.81-2.07,5.59-4.25,8.3-6.48,2.99,2.21,6.06,4.15,9.15,5.79-2.88,1.92-5.84,3.81-8.85,5.6-2.95-1.36-5.82-3.01-8.6-4.91Zm8.28-8.74c-2.96-2.27-5.84-4.82-8.57-7.59l18.44-17.79c2.83,2.99,5.39,6.14,7.65,9.37-6.34,6.3-12.19,11.58-17.52,16Zm-9.82-8.88c-2.67-2.83-5.11-5.79-7.27-8.84,4.61-5.17,10.1-10.82,16.62-16.93,3.15,2.38,6.2,5.05,9.09,7.98l-18.44,17.79Zm-9.53-8.94c-2.32,2.63-4.6,5.32-6.77,8.06-1.8-2.84-3.35-5.77-4.6-8.77,1.89-2.94,3.88-5.83,5.91-8.64,1.53,3.14,3.36,6.28,5.46,9.35Zm-12.21-2.84c-1.25-3.39-2.13-6.85-2.61-10.29.26-.42.53-.84.79-1.25.2-.31.39-.62.59-.94.31-.47.63-.95.95-1.42.21-.31.41-.62.62-.92.32-.47.66-.93.99-1.39.23-.32.44-.63.67-.95.18-.25.37-.5.56-.75.74,3.1,1.84,6.27,3.26,9.46-2.16,2.97-4.1,5.78-5.84,8.46Zm-7.09-2.17c.19-.4.37-.8.58-1.19.41-.8.84-1.59,1.28-2.39.17-.31.33-.63.51-.95.22-.39.46-.79.69-1.18.61,3.28,1.56,6.54,2.83,9.75-2.11,3.34-3.9,6.45-5.42,9.32-1.17-2.63-2.14-5.31-2.86-8.03.25-.61.52-1.23.79-1.84.2-.45.38-.9.58-1.35.32-.71.68-1.43,1.03-2.14Zm-3.05,25.36c.98-2.62,2.16-5.28,3.48-7.95,1.21,2.31,2.59,4.57,4.12,6.76-1.44,2.25-2.76,4.5-3.93,6.74-1.34-1.8-2.56-3.65-3.68-5.55Zm8.77.43c1.49,1.99,3.11,3.92,4.85,5.77l-5.19,5.01c-1.23-1.31-2.4-2.66-3.5-4.04,1.03-2.02,2.3-4.26,3.84-6.74Zm6.39,17.03c2.28-1.09,4.57-2.32,6.87-3.68,2.14,1.61,4.34,3.07,6.61,4.37-2.71,1.22-5.41,2.3-8.07,3.19-1.86-1.18-3.67-2.47-5.42-3.87Zm47.1-56.92c2.94,3.04,5.61,6.23,7.98,9.48-3.36,3.65-6.61,7.03-9.73,10.17-2.27-3.22-4.83-6.35-7.65-9.33l8.51-8.21c.36-.34.37-.92.02-1.27s-.91-.37-1.27-.02l-8.51,8.21c-2.88-2.93-5.92-5.59-9.05-7.98,3.25-3.01,6.75-6.13,10.51-9.36,3.16,2.49,6.25,5.27,9.18,8.32Zm-36.06-16.91c2.11-1.99,5.94-2.17,10.85-.58-8.05,8.68-14.57,16.55-19.84,23.64-1.39-3.27-2.43-6.52-3.07-9.68.42-.54.85-1.07,1.28-1.6.4-.5.79-1,1.2-1.49.53-.64,1.08-1.26,1.62-1.89.37-.43.73-.86,1.1-1.28.66-.75,1.35-1.48,2.04-2.21.27-.29.54-.59.82-.88.97-1.02,1.97-2.03,2.98-3.02.25-.25.52-.51.78-.76l.25-.25ZM6.7,124.85c.53-1.84,1.44-4.35,2.96-7.53.98,1.2,2.01,2.36,3.09,3.51l-5.21,5.03c-.29-.33-.57-.67-.84-1.01Zm14.42,8.17c1.45-.34,3.05-.79,4.81-1.35,1.02.63,2.05,1.23,3.09,1.8-2.81.13-5.45-.02-7.91-.45Z"/>
          <path class="cls-16" d="m81.18,107.18l50.86,52.72c1.04,1.08,2.75,1.11,3.83.07h0c1.08-1.04,1.11-2.75.07-3.83l-50.86-52.72c-1.04-1.08-2.75-1.11-3.83-.07h0c-1.08,1.04-1.11,2.75-.07,3.83Z"/>
          <path class="cls-15" d="m160.02,193.59c-1.79,0-3.5-.77-4.68-2.1l-17.89-20.09-2.63-2.96-6.12-6.88c-.53-.59-.95-1.29-1.22-2.06-.27-.74-.39-1.53-.37-2.34.07-1.64.75-3.16,1.91-4.28,1.17-1.13,2.72-1.76,4.35-1.76s3.17.62,4.34,1.74l6.65,6.37,2.86,2.73,9.92,9.5,9.52,9.11c.27.25.51.54.73.83,1.85,2.5,1.55,6.03-.71,8.21l-2.3,2.22c-1.18,1.13-2.72,1.76-4.36,1.76Z"/>
          <g>
            <polygon class="cls-12" points="152.99 168.73 144 177.4 141.37 174.45 150.14 165.99 152.99 168.73"/>
            <polygon class="cls-12" points="146.61 162.61 138.12 170.8 135.5 167.85 143.75 159.88 146.61 162.61"/>
            <path class="cls-12" d="m166.06,188.97l-2.3,2.22c-2.19,2.12-5.72,1.99-7.74-.29l-8.76-9.84,9.27-8.94,9.52,9.11c.23.22.44.45.61.7h0c.1.14.18.27.27.41.17.27.3.55.42.84.19.51.31,1.06.34,1.6,0,.14.01.29,0,.43,0,.15-.01.3-.02.46-.01.13-.03.27-.06.39-.01.11-.04.21-.06.31-.03.13-.06.25-.11.37-.05.16-.1.33-.18.48-.05.12-.1.23-.16.34-.03.09-.08.16-.13.24-.07.13-.16.26-.24.39-.09.13-.19.26-.3.38-.11.14-.24.28-.37.4Z"/>
          </g>
          <g class="cls-5">
            <path class="cls-12" d="m151.04,177.4l-3.79,3.65-3.25-3.65,3.54-3.42c1.28,1.24,2.44,2.39,3.5,3.42Z"/>
            <path class="cls-12" d="m144.68,171.26l-3.31,3.19-3.25-3.65,2.97-2.86c1.29,1.16,2.48,2.27,3.6,3.31Z"/>
            <path class="cls-12" d="m138.12,165.31l-2.62,2.53-6.13-6.88c-.47-.52-.82-1.13-1.04-1.76.1.02.2.05.3.07,2.95.78,5.23,2.4,7.53,4.36.68.58,1.33,1.13,1.97,1.68Z"/>
          </g>
          <g class="cls-13">
            <path class="cls-10" d="m141.09,167.94l-2.97,2.86-2.62-2.96,2.62-2.53c1.04.91,2.03,1.79,2.97,2.63Z"/>
            <path class="cls-10" d="m147.54,173.99l-3.54,3.42-2.63-2.95,3.31-3.19c1.01.96,1.97,1.87,2.86,2.73Z"/>
            <path class="cls-10" d="m166.06,188.97l-2.3,2.22c-2.19,2.12-5.72,1.99-7.74-.29l-8.76-9.84,3.79-3.65c5.5,5.34,8.32,7.77,11.73,6.41,1.06-.42,2.48-1.35,3.89-1.89h0c.1.14.18.27.27.41.17.27.3.55.42.84.19.51.31,1.06.34,1.6,0,.14.01.29,0,.43,0,.15-.01.3-.02.46-.01.13-.03.27-.06.39-.01.11-.04.21-.06.31-.03.13-.06.25-.11.37-.05.16-.1.33-.18.48-.05.12-.1.23-.16.34-.03.09-.08.16-.13.24-.07.13-.16.26-.24.39-.09.13-.19.26-.3.38-.11.14-.24.28-.37.4Z"/>
          </g>
          <path class="cls-8" d="m68.51,68.28c-14.56-15.1-31.24-22.65-37.32-16.94l-.09.09c-5.97,5.85.98,22.81,15.57,37.93,14.58,15.11,31.28,22.68,37.34,16.92l.09-.09c5.93-5.87-1.02-22.81-15.59-37.91Zm-18.22,17.58c-5.73-5.94-10.29-12.3-12.85-17.91-2.39-5.24-2.73-9.25-.93-10.99.71-.68,1.76-1.02,3.1-1.02,2.03,0,4.73.79,7.84,2.35,5.51,2.76,11.7,7.55,17.43,13.49,12.62,13.07,17.32,25.5,13.79,28.9-.71.68-1.76,1.02-3.1,1.02-5.34,0-15.2-5.38-25.28-15.84Z"/>
        </g>
        <g>
          <path class="cls-10" d="m168.1,180.84c-.22-.31-.51-.64-.83-.94l-9.5-9.1-3.54-3.38-2.85-2.73-3.53-3.38-2.86-2.73-6.65-6.37c-1.34-1.28-3.11-1.99-4.96-1.99-.58,0-1.15.07-1.7.21l-45.09-46.74c.35-1.06.51-2.25.51-3.54,0-8.24-6.67-20.8-17.95-32.49-15.1-15.66-32.05-23.11-38.59-16.97l-.1.1c-6.42,6.28.41,23.5,15.55,39.19,11.53,11.96,24.12,19.12,32.34,19.12,1.1,0,2.12-.13,3.05-.4l45.09,46.74c-.16.54-.26,1.1-.28,1.67-.03.94.11,1.85.42,2.71.31.87.78,1.67,1.4,2.35l6.12,6.87,2.62,2.95,3.25,3.65,2.63,2.95,3.26,3.66,8.75,9.83c1.36,1.53,3.31,2.41,5.36,2.41,1.87,0,3.64-.72,4.98-2.01l2.3-2.22c2.59-2.5,2.93-6.54.8-9.42Zm-88.05-73.66c-7.31,1.21-20.95-6.22-32.75-18.45-13.96-14.47-21.09-31.26-15.59-36.65l.09-.09c1.2-1.12,2.89-1.65,4.96-1.65,3.8,0,8.83,1.8,14.29,5.03,5.45,3.22,11.33,7.86,16.81,13.54,11.78,12.21,18.71,26.12,17.25,33.38-.13.66-.33,1.27-.62,1.81-.26.54-.6,1.02-1.02,1.44l-.09.09c-.43.41-.93.74-1.49.99-.55.27-1.17.45-1.84.56Zm3.14.79c.52-.28,1-.63,1.43-1.04l.11-.1c.41-.41.77-.87,1.07-1.37l44.07,45.68c-.53.29-1.02.66-1.47,1.09s-.83.91-1.14,1.43l-44.07-45.69Zm82.86,80.99l-2.3,2.22c-1.04,1.01-2.39,1.51-3.73,1.51-1.48,0-2.95-.61-4.01-1.8l-8.76-9.84-3.25-3.65-2.63-2.95-3.25-3.65-2.63-2.96-6.12-6.87c-.48-.53-.82-1.13-1.05-1.77-.23-.64-.34-1.33-.31-2.01,0-.05,0-.11,0-.16.05-.7.23-1.38.55-2.02.26-.54.62-1.05,1.08-1.49s.98-.79,1.53-1.02c.65-.3,1.34-.46,2.04-.47.05-.01.11-.01.16-.01,1.34,0,2.68.5,3.71,1.49l6.66,6.37,2.86,2.73,3.52,3.38,2.86,2.73,3.53,3.39,9.52,9.1c.23.22.44.45.61.7,1.58,2.13,1.37,5.15-.6,7.05Z"/>
          <path class="cls-10" d="m48.25,56.68c-5.97-2.98-10.59-3.34-13-1.01-2.42,2.33-2.23,6.96.54,13.03,1.32,2.89,3.15,5.98,5.39,9.1,2.23,3.11,4.87,6.27,7.8,9.31,9.8,10.15,20.24,16.36,26.63,16.36,1.78,0,3.25-.49,4.3-1.5,4.82-4.65-1.22-18.46-13.74-31.44-5.87-6.08-12.23-11-17.92-13.85Zm30.41,44c-.71.68-1.76,1.02-3.1,1.02-5.34,0-15.2-5.38-25.28-15.84-5.73-5.94-10.29-12.3-12.85-17.91-2.39-5.24-2.73-9.25-.93-10.99.71-.68,1.76-1.02,3.1-1.02,2.03,0,4.73.79,7.84,2.35,5.51,2.76,11.7,7.55,17.43,13.49,12.62,13.07,17.32,25.5,13.79,28.9Z"/>
        </g>
      </g>
      <g>
        <g>
          <path class="cls-14" d="m68.95,88.65c-3.75,0-7.34-1.14-10.41-3.3-4.65-3.27-7.45-8.4-7.68-14.08-.41-9.98,7.38-18.44,17.37-18.84.25,0,.5-.01.75-.01,3.89,0,7.6,1.22,10.73,3.53,4.46,3.27,7.14,8.32,7.37,13.85.2,4.84-1.5,9.46-4.78,13.02-3.28,3.56-7.75,5.63-12.59,5.83-.25,0-.5.02-.75.02Z"/>
          <path class="cls-6" d="m86.17,69.83c.39,9.5-7,17.52-16.5,17.91-3.94.16-7.61-1.01-10.6-3.12,22.98,1.37,22.59-16.59,20.11-27.94,4.07,2.99,6.78,7.73,7,13.16Z"/>
          <g>
            <path class="cls-12" d="m56.28,72.37c1.37-1.65,4.37-1.85,6.19-.9,1.8.95,1.79,3.21-.86,4.1-3.63,1.22-7.1-1.06-5.33-3.2Z"/>
            <path class="cls-12" d="m81.75,71.34c-1.5-1.54-4.51-1.49-6.24-.39-1.72,1.09-1.52,3.34,1.19,4.01,3.72.92,7-1.63,5.05-3.63Z"/>
          </g>
          <path class="cls-15" d="m72.66,71.57c-1.57,1.99-5.29,2.41-7.12.49-.06-.06-.12-.13-.17-.2.77-1.16,2.06-1.95,3.57-2.01,1.51-.06,2.87.62,3.73,1.72Z"/>
          <path class="cls-4" d="m55.61,68.14h0c-.26.68-1.25.48-1.24-.23.12-6.5,6.81-12.37,13.47-11.67.67.07.73,1.02.09,1.18-.53.42-8.69,1.21-12.32,10.71Z"/>
        </g>
        <g>
          <path class="cls-10" d="m59.69,65.96c1.01-.28,2.23.18,2.73,1.32.89,2-1.52,3.67-3.28,2.47-1.42-.96-1.17-3.32.55-3.79Z"/>
          <path class="cls-10" d="m77.83,65.22c-1.03-.19-2.2.36-2.61,1.53-.72,2.06,1.81,3.53,3.48,2.2,1.34-1.07.9-3.4-.86-3.73Z"/>
          <path class="cls-10" d="m73.39,69.21c.06.93-.22,1.73-.72,2.36-1.57,1.99-5.29,2.41-7.12.49-.06-.06-.12-.13-.17-.2-.81-1-1.57-2.99-.09-3.69.83-.4,4-.94,6.79-.39.85.17,1.27.72,1.32,1.43Z"/>
          <path class="cls-10" d="m68.97,53.31c3.8,0,7.33,1.24,10.19,3.36,4.07,2.99,6.78,7.73,7,13.16.39,9.5-7,17.52-16.5,17.91-.24,0-.48.01-.71.01-3.67,0-7.08-1.16-9.89-3.14-4.23-2.97-7.08-7.82-7.31-13.38-.39-9.5,7-17.52,16.5-17.91.24,0,.48-.01.71-.01m0-1.8c-.26,0-.52,0-.79.02-5.08.21-9.77,2.38-13.21,6.11-3.44,3.74-5.23,8.59-5.02,13.66.24,5.96,3.18,11.35,8.07,14.78,3.21,2.27,6.99,3.47,10.92,3.47.26,0,.52,0,.79-.02,5.08-.21,9.77-2.38,13.21-6.11,3.44-3.74,5.23-8.59,5.02-13.66-.24-5.8-3.05-11.1-7.73-14.54-3.29-2.42-7.18-3.71-11.26-3.71h0Z"/>
        </g>
      </g>
      <g>
        <path class="cls-7" d="m79.16,146.85c1.02,1.18,3.11,2.65,4.95,7.49.16.43.34.87.57,1.27.32.56,1,.59,1.38.05.85-1.22.89-3.15,3.72-6.49,1.66-1.96,3.28-2.58,1.88-3.77-3.48-2.95-4.69-7.37-5.33-8.54-.27-.51-.92-.54-1.28-.1-.38.48-.57,1.06-.8,1.62-1.68,4.15-4.01,6.04-4.96,6.97-.24.23-.48,1.09-.13,1.49Z"/>
        <path class="cls-7" d="m39.88,160.7c1.17,1.36,3.58,3.04,5.7,8.63.19.5.39,1,.65,1.47.37.64,1.15.68,1.58.06.98-1.4,1.03-3.63,4.29-7.48,1.91-2.26,3.78-2.98,2.17-4.34-4.01-3.39-5.4-8.49-6.14-9.84-.32-.58-1.06-.63-1.47-.11-.44.55-.66,1.22-.92,1.86-1.94,4.78-4.63,6.98-5.72,8.03-.27.27-.55,1.25-.15,1.72Z"/>
        <path class="cls-7" d="m101.91,183.08c.24.28.49.57.76.82,3.83,3.61,4.74,7.8,5.59,9.27.37.64,1.15.68,1.58.06.3-.43.53-.93.71-1.43,2.82-7.78,8.16-8.35,5.75-10.39-4.01-3.39-5.4-8.49-6.14-9.84-.32-.58-1.06-.63-1.47-.11-.44.55-.66,1.22-.92,1.86-1.94,4.78-4.64,6.97-5.72,8.03-.27.27-.55,1.25-.15,1.72Z"/>
      </g>
    </g>
  </g>
</svg>