<?xml version="1.0" encoding="UTF-8"?>
<svg id="_Слой_2" data-name="Слой 2" xmlns="http://www.w3.org/2000/svg" viewBox="0 0 512 462.19">
  <defs>
    <style>
      .cls-1, .cls-2 {
        fill: #fff;
      }

      .cls-3, .cls-4, .cls-5 {
        fill: #212539;
      }

      .cls-3, .cls-6 {
        opacity: .36;
      }

      .cls-7 {
        fill: #da7385;
      }

      .cls-2 {
        opacity: .19;
      }

      .cls-8 {
        fill: #63b2a7;
      }

      .cls-4 {
        opacity: .28;
      }

      .cls-9 {
        fill: #efd7b7;
      }

      .cls-10 {
        fill: #883927;
      }
    </style>
  </defs>
  <g id="_02" data-name="02">
    <g>
      <path class="cls-1" d="m493.68,401.67c-1.01-.03-2.02-.07-3.04-.12-1.29-6.86-3.07-12.23-5.31-16.04-5.05-8.06-14.27-7.56-21.24-1.87-1.73-4.72-3.8-8.17-5.41-10.43-3.71-5.35-11.35-7.18-17.09-4.13-1.17-6.43-3.05-11.22-4.52-14.25-4.84-9.35-15.13-10.22-23.56-4.94-.5-4.99-1.53-9.08-2.61-12.22-2.28-6.83-9.59-11.04-16.67-9.64,2.47-14.62,3.98-28.61-9.97-33.22,4.77-9.28,6.91-17.41,7.83-23.46,1.47-9.35-5.46-18.07-14.82-19.29,5.61-7.36,8.92-14.12,10.86-19.33,3.02-8.12-.8-17.39-8.71-21.09-2.47-1.15-5.26-2.21-8.38-3.16,9.23-8.13,14.48-15.97,17.19-20.94,4.16-7.61,1.7-17.32-5.6-22.12-2.62-1.72-5.69-3.37-9.2-4.94,9.65-6.11,15.74-12.48,19.11-16.68,5.42-6.76,4.71-16.76-1.64-22.76-11.08-10.48-30.9-19.3-47.14-25.28-5.33-16.41-17.16-29.45-35.27-38.89,4.79-43.9-33.41-53.49-61.54-25.32C246.14,13.45,235.69.15,218.67.03c-22.37-1.04-50.12,28.46-58.46,55.2C112.74,37.7,27.59,25.9,2.54,84.18c-3.33,7.76-3.49,16.63.18,24.24,2.97,6.15,8.25,11.77,16.55,14.47.56,17.62,12.88,28.39,31.85,37.56-5.09.78-8.99,5.25-9.07,10.51-8.21-1.07-14.21,7.14-11.37,14.76,0,0,19.13,34.13,28.97,48.83,11.18,16.71,27.28,36.16,46.85,47.45,2.41,21.8,9.24,42.69,20.21,61.67-4.28,9.57-16.3,36.44-20.75,46.4-.02.07-.1.2-.12.27,0,0-3.08,7.48-3.08,7.48-4.14,10.07-.01,21.94,9.83,28.3,7.78,4.89,16.06,9.31,24.4,13.16,12.05,5.54,24.84,9.99,37.79,13.2,5.62,1.61,11.64,2.38,17.25.51,3.5,2.9,7.83,4.92,12.55,5.8,2.08.36,4.13.66,6.2.98,11.26,1.55,22.61,2.41,33.95,2.4,13.05,0,26.59-1.16,39.4-3.32,12.58-2.12,21.71-12.23,21.71-24.03v-24.79c69.28,63.49,151.19,40.5,203.92,1.91,4.19-3.06,2.12-9.7-3.07-9.86l-13.02-.42Z"/>
      <g>
        <g>
          <path class="cls-8" d="m80.37,175.87l-30.01,23.76s36.77,84.29,95.09,84.11l22.74-50.84c-25.14-20.95-59.3-40.03-87.82-57.04Z"/>
          <path class="cls-4" d="m115.74,196.89c-3.2,4.96-5.81,10.3-7.92,15.81-2.87,7.5-4.87,15.33-6.28,23.23-1.46,8.18-2.29,16.46-2.7,24.75-.07,1.52-.12,3.04-.17,4.55,13.32,10.82,29.05,18.57,46.78,18.52l22.74-50.84c-15.26-12.71-33.83-24.73-52.46-36.02Z"/>
          <path class="cls-9" d="m50.36,199.63l-11.39-17.8c-.2-.82.61-1.53,1.39-1.21l9.73,3.9.95-13.56c.05-.75.86-1.2,1.52-.84l10.99,5.86-.84-10.21c-.08-.99,1.14-1.52,1.8-.78l15.87,10.89s-12.42,29.37-30.01,23.76Z"/>
        </g>
        <g>
          <path class="cls-8" d="m230.91,360.75l-34.42,75.91c-2.42,5.89-9.25,8.94-16.22,7.35-5.7-1.3-11.31-2.83-16.83-4.59-.64-.2-1.29-.41-1.93-.63-6.16-2.02-9.98-8.88-15.9-11.5-1.08-.47-37.01-19.95-34.61-25.8l3.08-7.48,33.06-73.94,83.77,40.68Z"/>
          <path class="cls-4" d="m147.14,320.07l-19.12,42.75c.3,1.13.61,2.25.97,3.35.72,2.22,1.59,4.42,2.95,6.32,1.46,2.05,3.25,3.87,5.11,5.56,4.2,3.81,8.92,7.02,13.58,10.25,2.21,1.53,4.38,3.11,6.57,4.67,2.49,1.77,5.11,3.36,7.69,4.97,2.61,1.63,5.2,3.31,7.63,5.2,1.29,1.01,2.38,2.24,3.24,3.62,1.82,2.93,2.5,6.42,2.62,9.82.13,4.01-.49,8.03-1.4,11.92-.99,4.23-2.35,8.37-3.9,12.43-.15.39-.32.77-.47,1.16,2.53.68,5.08,1.32,7.64,1.9,6.98,1.58,13.8-1.46,16.22-7.35l34.42-75.91-83.77-40.68Z"/>
          <path class="cls-9" d="m163.18,435.77c-.45,1.1-1.02,2.11-1.67,3.02-6.16-2.02-12.19-4.32-18.11-6.93-1.08-.47-2.15-.96-3.23-1.45-.08-.03-.16-.08-.24-.11-1.08-.5-2.15-1-3.21-1.53-2-.96-3.99-1.95-5.96-2.98-2.92-1.53-5.82-3.13-8.68-4.81-.15-.09-.31-.19-.47-.27-.19-.12-.39-.23-.58-.34-1.22-.73-2.45-1.48-3.66-2.23-.05-.03-.08-.05-.13-.08-5.99-3.81-8.65-10.71-6.24-16.56l3.08-7.48c2.25-.29,4.59-.02,6.81.9,4.7,1.93,7.72,6.28,8.3,11.13,2.35-.36,4.8-.13,7.15.84,1.37.56,2.59,1.33,3.64,2.25,2.54,2.2,4.16,5.27,4.63,8.63,3.43-1.72,7.51-2.02,11.27-.48,7.04,2.9,10.32,11.18,7.31,18.5Z"/>
        </g>
        <g>
          <path class="cls-8" d="m456.47,413.34l25.47,1.78s-1.13-17.01-5.67-24.7c-.74-1.26-2.32-1.76-3.63-1.13-3.52,1.71-10.59,6.44-15.59,18.21.81-15.39-4.07-24.63-6.96-28.67-1.15-1.6-3.35-2.02-5.04-1.01-4.47,2.67-9.3,7.82-13.35,12.8,2.04-15.78-1.55-26.4-4.06-31.57-1.14-2.36-3.93-3.4-6.38-2.45-6.09,2.36-13.1,7.53-19.27,12.83,2.86-13.74.76-23.57-.97-28.62-.85-2.48-3.49-3.85-6.03-3.2-5.7,1.45-12.41,5.07-18.63,9.08,9.16-17.13,9.46-30.73,8.75-37.57-.32-3.05-2.97-5.3-6.03-5.23-4.42.1-9.56,1.12-14.83,2.62,12.61-15.39,16.42-29.13,17.56-36.61.56-3.68-1.86-7.14-5.49-7.99-6.04-1.43-13.57-1.71-21.33-1.37,14.55-12.14,20.8-24.29,23.36-31.18,1.3-3.49-.37-7.37-3.74-8.94-7.58-3.55-18.24-5.62-28.69-6.82,19.9-10.64,29.2-23.54,33.11-30.68,1.78-3.27.69-7.34-2.42-9.39-7.56-4.97-18.94-8.75-29.9-11.5,21.2-6.99,32.51-17.96,37.57-24.28,2.33-2.9,1.97-7.11-.74-9.67-16.54-15.64-58.15-28.09-58.15-28.09l-8.78,56.34c-1.39-.18-2.18-.28-2.18-.28l1.21,55.92c-3.17,0-5.07.05-5.07.05l8.86,53.14c-4.63.92-7.52,1.61-7.52,1.61l20.44,52.56c-2.25,1.12-3.59,1.83-3.59,1.83l28.64,39.6c-.68.57-1.06.9-1.06.9l4.65,4.06,1.02,1.41c.09-.1.17-.2.25-.3l30.63,26.78c.49-.91.95-1.81,1.4-2.7l31.64,21.54c.85-2.18,1.58-4.28,2.24-6.34l27.42,12.53c.38-1.84.65-3.58.88-5.29Z"/>
          <path class="cls-3" d="m456.47,413.34l25.47,1.78s-1.13-17.01-5.67-24.7c-.74-1.26-2.32-1.76-3.63-1.13-3.52,1.71-10.59,6.44-15.59,18.21.81-15.39-4.07-24.63-6.96-28.67-1.15-1.6-3.35-2.02-5.04-1.01-4.47,2.67-9.3,7.82-13.35,12.8,2.04-15.78-1.55-26.4-4.06-31.57-1.14-2.36-3.93-3.4-6.38-2.45-6.09,2.36-13.1,7.53-19.27,12.83,2.86-13.74.76-23.57-.97-28.62-.85-2.48-3.49-3.85-6.03-3.2-5.7,1.45-12.41,5.07-18.63,9.08,9.16-17.13,9.46-30.73,8.75-37.57-.32-3.05-2.97-5.3-6.03-5.23-4.42.1-9.56,1.12-14.83,2.62,12.61-15.39,16.42-29.13,17.56-36.61.56-3.68-1.86-7.14-5.49-7.99-6.04-1.43-13.57-1.71-21.33-1.37,14.55-12.14,20.8-24.29,23.36-31.18,1.3-3.49-.37-7.37-3.74-8.94-7.58-3.55-18.24-5.62-28.69-6.82,19.9-10.64,29.2-23.54,33.11-30.68,1.78-3.27.69-7.34-2.42-9.39-7.56-4.97-18.94-8.75-29.9-11.5,21.2-6.99,32.51-17.96,37.57-24.28,2.33-2.9,1.97-7.11-.74-9.67-16.54-15.64-58.15-28.09-58.15-28.09l-8.78,56.34c-1.39-.18-2.18-.28-2.18-.28l1.21,55.92c-3.17,0-5.07.05-5.07.05l8.86,53.14c-4.63.92-7.52,1.61-7.52,1.61l20.44,52.56c-2.25,1.12-3.59,1.83-3.59,1.83l28.64,39.6c-.68.57-1.06.9-1.06.9l4.65,4.06,1.02,1.41c.09-.1.17-.2.25-.3l30.63,26.78c.49-.91.95-1.81,1.4-2.7l31.64,21.54c.85-2.18,1.58-4.28,2.24-6.34l27.42,12.53c.38-1.84.65-3.58.88-5.29Z"/>
          <g>
            <path class="cls-8" d="m319.45,169.15s50.65-74.84-22.44-106.71c3.54-16.01.77-29.77-8.45-35.09-11.27-6.51-28.66,1.65-42.49,18.61-3.42-.63-6.91-1.17-10.42-1.55,2.69-14.89-.27-27.46-8.97-32.49-13.72-7.91-36.48,5.86-50.87,30.75-4.87,8.46-8.16,17.13-9.83,25.17-24.17-9.27-131.17-45.66-157.21,25.26,0,0-3.04,20.28,21.29,22.3,0,0-22.67,39.55,110.83,53.74,0,0-69.88,117.01,27.95,211.67,6.91,6.71,14.69,13.28,23.36,19.7v34.3c0,7.07,45.39,11.92,46.71,11.95,7.22.18,14.09,5.65,21.31,5.12.75-.05,1.51-.11,2.26-.17,6.44-.53,12.89-1.33,19.33-2.41,7.88-1.33,13.63-7.37,13.63-14.49v-39.94l.83-7.77c89.48,102.69,196.38,24.22,196.38,24.22-196.6-6.38-173.19-242.18-173.19-242.18Z"/>
            <path class="cls-2" d="m299.38,77.76c-2.7.66-5.18,2.48-5.91,5.06-.66,2.33.18,4.74,1.26,6.84,2.75,5.36,7.02,9.78,10.22,14.89,2.78,4.44,4.73,9.38,7.83,13.61,1.23,1.68,2.68,3.27,4.53,4.29,1.86,1.02,4.18,1.4,6.24.64,1.96-.72,3.46-2.4,4.34-4.25,2.42-5.1,1.43-9.97-.05-14.94-.93-3.12-2.22-6.13-3.84-8.96-3.23-5.64-7.76-10.56-13.26-14.16-2.76-1.81-5.91-3.33-9.31-3.28-.68.01-1.37.1-2.04.27Z"/>
            <path class="cls-4" d="m264.53,241.33c-5.46-3.14-11.69-4.78-17.96-5.1-4.74-.25-10.01.38-13.65,3.34.01.2-.06.41-.24.59-.79.79-1.57,1.6-2.34,2.42-.16.27-.32.54-.46.83-.15.31-.41.42-.66.41-2.11,2.38-4.02,4.95-5.39,7.8-.48,2.5-.87,5.02-1.19,7.54-.87,6.85-1.32,13.74-1.85,20.63-.73,9.39-.1,18.68.84,28.03.47,4.73.97,9.47,1.26,14.21.28,4.54.28,9.07.33,13.62.09,7.76-.12,15.95-4.15,22.8,1.46.89,3.01,1.55,4.7,1.94,1.25.29,2.58.39,3.79.83,3.05,1.1,3.37,4.55,3.41,7.43,6.32.18,12.18-2.13,18-4.38.64-.25,1.14.47,1.03,1.03-.35,1.68.13,3.38.12,5.08,1.44-.3,2.88-.64,4.3-1.04,6.39-1.83,12.47-4.85,17.48-9.26,4.63-4.08,8.2-9.17,10.81-14.74,5.49-11.72,7.01-25.2,7.35-38,.33-12.56-.88-25.37-4.71-37.38-3.65-11.43-10.14-22.49-20.8-28.62Z"/>
            <path class="cls-9" d="m245.26,432.06c-4.53,0-8.63,2.05-11.43,5.28-2.7-4.63-7.59-7.72-13.16-7.72-2.84,0-5.47.79-7.74,2.17-2.66-4.76-7.62-7.97-13.3-7.97-2.69,0-5.22.72-7.42,1.97v9.04c0,7.07,5.68,13.07,13.48,14.46.06.02.11.02.17.03,1.57.26,3.16.52,4.73.75.24.03.5.06.75.11.2.02.4.05.6.08,6.14.87,12.29,1.48,18.43,1.83,1.33.09,2.64.15,3.97.21.09,0,.2.02.29.02,1.33.05,2.64.09,3.95.12,7.22.18,14.43,0,21.65-.53.29-1.22.44-2.5.44-3.83,0-8.84-6.9-16-15.4-16Z"/>
          </g>
          <path class="cls-9" d="m207.48,300.14c-.02,1.17-.03,2.35-.08,3.52-.3,9.62-1.42,19.1-3.66,28.1-.32,1.29-.67,2.55-1.03,3.81-5.36,18.56-15.78,34.74-33.86,45.26-11.39-10.28-20.58-20.9-27.96-31.65-.7-1.03-1.39-2.05-2.05-3.07-5.51-8.45-9.92-16.98-13.37-25.46-.43-1.05-.85-2.12-1.25-3.17-2.9-7.63-5.08-15.23-6.63-22.7-.22-1.09-.43-2.19-.62-3.27-1.7-9.18-2.47-18.21-2.54-26.91-.02-1.14-.02-2.25,0-3.36.1-9.6,1.04-18.78,2.47-27.38.18-1.14.38-2.27.58-3.39,1.92-10.37,4.54-19.78,7.28-27.95.42-1.17.8-2.32,1.2-3.44,6.26-17.56,12.74-28.35,12.74-28.35C5.2,156.53,30.07,115.42,30.07,115.42c0,0,79.48,26.91,144.24,20.4,0,0-9.77,22.95,4.92,47.39,1.09,1.82,2.15,3.66,3.16,5.51.57,1,1.1,2.02,1.62,3.04,2.82,5.43,5.26,11.03,7.18,16.84.78,2.35,1.59,4.91,2.44,7.63.32,1.03.63,2.1.97,3.21,2.19,7.4,4.47,15.93,6.51,25.14.23,1.09.47,2.19.7,3.29,1.7,8.2,3.19,16.86,4.21,25.74.13,1.12.25,2.24.37,3.37.78,7.66,1.19,15.44,1.1,23.16Z"/>
          <g class="cls-6">
            <path class="cls-10" d="m184.01,191.76c-15.24,3.86-30.68,6.89-46.26,9.12-4.32.62-8.65,1.17-12.99,1.64.42-1.17.8-2.32,1.2-3.44,14.79-1.74,29.5-4.21,44.04-7.41,4.14-.92,8.28-1.89,12.39-2.94.57,1,1.1,2.02,1.62,3.04Z"/>
            <path class="cls-10" d="m194.59,219.44c-18.65,5.23-37.66,9.2-56.84,11.94-6.93.99-13.89,1.82-20.85,2.47.18-1.14.38-2.27.58-3.39,17.66-1.7,35.19-4.49,52.52-8.31,7.93-1.75,15.81-3.71,23.62-5.91.32,1.03.63,2.1.97,3.21Z"/>
            <path class="cls-10" d="m201.8,247.87c-1.89.57-3.77,1.12-5.68,1.65-19.15,5.41-38.66,9.55-58.38,12.35-7.75,1.1-15.53,2-23.32,2.7-.02-1.14-.02-2.25,0-3.36,18.7-1.67,37.26-4.54,55.58-8.58,10.47-2.3,20.83-4.99,31.1-8.06.23,1.09.47,2.19.7,3.29Z"/>
            <path class="cls-10" d="m206.38,276.98c-3.41,1.05-6.83,2.07-10.25,3.04-19.15,5.41-38.66,9.53-58.38,12.34-6.71.95-13.42,1.75-20.17,2.4-.22-1.09-.43-2.19-.62-3.27,17.83-1.69,35.54-4.49,53.04-8.35,12.14-2.67,24.16-5.86,36.01-9.53.13,1.12.25,2.24.37,3.37Z"/>
            <path class="cls-10" d="m207.48,300.14c-.02,1.17-.03,2.35-.08,3.52-3.27,1-6.56,1.97-9.85,2.9-19.15,5.43-38.66,9.55-58.36,12.35-4.56.65-9.13,1.24-13.72,1.72-.43-1.05-.85-2.12-1.25-3.17,15.86-1.74,31.62-4.34,47.21-7.78,12.15-2.67,24.17-5.86,36.06-9.55Z"/>
            <path class="cls-10" d="m203.74,331.76c-.32,1.29-.67,2.55-1.03,3.81-1.72.52-3.44,1.02-5.16,1.5-18.6,5.26-37.55,9.32-56.66,12.1-.7-1.03-1.39-2.05-2.05-3.07,10.93-1.55,21.8-3.52,32.59-5.91,10.88-2.39,21.67-5.21,32.32-8.43Z"/>
          </g>
          <path class="cls-5" d="m173.93,125.02c-.35-.15-.68.27-.45.57,3.42,2.54,5.62,5.27,6.75,8.16-3.26.68-6.69,1.24-9.51,1.57-20.18,2.35-40.56.19-60.57-2.87-27.02-4.14-53.45-10.62-80.08-17.03,36.72,16.9,115.5,29.72,150.54,19.45.95,3.29.57,6.78-.99,10.46.02.22.32.55.46.36,8.36-11.61,1.57-17.37-6.15-20.67Z"/>
          <circle class="cls-7" cx="272.2" cy="145.74" r="39.43" transform="translate(-36.53 141.28) rotate(-27.34)"/>
          <g>
            <path class="cls-5" d="m267.08,37.16c4.58,5.22,8.01,10.46,10.28,16.84,2.5,6.4,3.12,12.91,4.82,19.75.08.42.51.71.93.58,6.65-13.45-.13-33.96-15.29-38.38-.69-.21-1.24.7-.75,1.21h0Z"/>
            <path class="cls-5" d="m186.27,44.9c4.24-5.5,8.72-9.87,14.55-13.33,5.8-3.69,12.07-5.54,18.45-8.53.4-.16.6-.64.39-1.02-14.48-3.94-33.3,6.65-34.72,22.38-.07.71.92,1.09,1.33.5h0Z"/>
            <path class="cls-5" d="m244.48,76.53c-2.45,8.86-.98,17.01,3.28,18.19,4.27,1.18,9.72-5.04,12.17-13.91,2.45-8.86.98-17.01-3.28-18.19-4.27-1.18-9.72,5.04-12.17,13.91Z"/>
            <path class="cls-5" d="m191.52,60.34c-2.45,8.86-.98,17.01,3.28,18.19,4.27,1.18,9.72-5.04,12.17-13.91,2.45-8.86.98-17.01-3.28-18.19-4.27-1.18-9.72,5.04-12.17,13.91Z"/>
          </g>
          <path class="cls-5" d="m57.86,76.49c-2.92-2.45-7.11-3.33-10.77-2.22-4.59,1.39-7.34,5.34-8.17,9.89,1.08-.9,2.2-1.76,3.36-2.58,2.37-1.66,5.14-3.32,8.15-2.67,2.03.44,3.62,1.76,4.65,3.51.87,1.47,1.34,3.14,1.7,4.81.16.73.3,1.47.67,2.12.37.65,1.02,1.19,1.76,1.22.65.02,1.27-.36,1.67-.87.4-.52.61-1.15.76-1.79.92-3.91-.4-8.27-3.33-11.02-.15-.14-.3-.27-.45-.4Z"/>
          <g>
            <path class="cls-8" d="m274.67,229.18c31.91,77.51-1.94,117.2-1.94,117.2l-38.02-11.87c-8.38-29.26-15.08-72.19-13.94-104.89"/>
            <path class="cls-9" d="m272.73,346.38l-13.12,16.65c-.52.66-1.58.46-1.81-.36l-2.88-10.07-11.29,7.56c-.62.42-1.47.05-1.6-.69l-2.1-12.27-7.55,6.93c-.73.67-1.89.03-1.72-.94l3.66-20.76s32.06-3.39,38.42,13.96Z"/>
          </g>
        </g>
        <path class="cls-2" d="m257.43,234.09c-4.52-1.1-9.61-.29-12.67,2.98-2.76,2.95-3.37,7.18-3.38,11.12-.04,10.07,2.92,19.93,3.74,29.96.72,8.73-.19,17.57,1.17,26.24.54,3.45,1.46,6.91,3.44,9.85,1.98,2.94,5.14,5.3,8.78,5.75,3.47.43,6.98-.91,9.71-2.98,7.51-5.72,9.78-13.71,11.4-22.23,1.02-5.36,1.41-10.82,1.18-16.26-.46-10.86-3.41-21.64-8.82-31.23-2.72-4.81-6.21-9.49-11.31-12.02-1.02-.51-2.11-.9-3.24-1.18Z"/>
      </g>
    </g>
  </g>
</svg>