<?xml version="1.0" encoding="UTF-8"?>
<svg id="_Слой_2" data-name="Слой 2" xmlns="http://www.w3.org/2000/svg" viewBox="0 0 179.5 193.93">
  <defs>
    <style>
      .cls-1, .cls-2, .cls-3 {
        fill: #fff;
      }

      .cls-2 {
        opacity: .3;
      }

      .cls-4 {
        fill: #ffbf80;
      }

      .cls-5 {
        fill: #a05a2a;
      }

      .cls-6 {
        fill: #fc517a;
      }

      .cls-7 {
        fill: #002c54;
      }

      .cls-3 {
        opacity: .2;
      }

      .cls-8 {
        fill: #ffc033;
      }

      .cls-9 {
        fill: #ff7da2;
      }
    </style>
  </defs>
  <g id="OBJECTS">
    <g>
      <g>
        <g>
          <path class="cls-7" d="m142.73,143.11h-2.76l-6.11,3.68-1.44,16.09-11.36-20.35c8.97-3.35,15.57-7.65,11.48-12.43l-44.72,14.15,1.09,2.78s-11.39,12.17-17.62,28.68l-3.89,8.97,3.73,3.64,7.79-4.54,13.36-33.82s11.39-1.95,22.24-5.23c1.91,6.55,8.3,24.78,21.39,31.06l5.33-21.07,5.01-8.67-3.51-2.95Z"/>
          <g>
            <path class="cls-8" d="m146.74,150.13l-1.63,6.02s-2.31-.35-3.89-1.42c-1.74-1.21-2.59-3.3,1.5-6.83,0,0-5.98,1.31-8.88-1.12l.84-9.42s33.65.87,43.09,12.76c9.44,11.89-25.07,15.03-31.05,0Z"/>
            <path class="cls-7" d="m134.24,141.85c2.33,2.38,5.09,3.47,8.42,2.55,2.15-.59,4.22-1.33,6.46-1.58,2.71-.31,5.47.44,8.03,1.22,3.77,1.15,7.47,2.62,11.02,4.32,4,1.92,7.31,4.61,10.98,7.01.34.23.43-.4.29-.61-4.33-6.24-13.42-9.4-20.29-11.72-3.79-1.28-8.04-2.43-12.03-1.39-2.08.54-4.03,1.48-6.16,1.87-2.62.47-4.46-.99-6.6-2.14-.22-.12-.22.36-.12.47h0Z"/>
            <path class="cls-7" d="m140.59,142.56c-2.19,0-3.91-.9-3.91-2.04s1.71-2.04,3.91-2.04,3.9.9,3.9,2.04-1.71,2.04-3.9,2.04Zm0-3.43c-1.92,0-3.25.73-3.25,1.39s1.34,1.39,3.25,1.39,3.25-.73,3.25-1.39-1.34-1.39-3.25-1.39Z"/>
            <path class="cls-7" d="m143.68,145.2c4.24,0,8.55,1.33,12.05,3.73,4.18,2.87,6.07,6.7,7.34,11.43.11.41.45.24.47-.11.25-4.47-3.16-8.55-6.44-11.16-3.78-3-8.59-4.84-13.42-4.23-.14.02-.14.33,0,.33h0Z"/>
            <path class="cls-7" d="m146.73,152.24c.24-.94.25-1.93.38-2.89.17-1.21.68-2.29,1.02-3.46.05-.19-.06-.79-.36-.52-1.62,1.43-1.77,4.87-1.3,6.82.03.13.21.24.26.04h0Z"/>
            <path class="cls-7" d="m148.94,154.35c.91-2.12,2.55-3.82,3.48-5.89.08-.19-.03-.88-.37-.68-1.99,1.13-2.97,4.16-3.54,6.22-.08.3.23.81.42.36h0Z"/>
            <path class="cls-7" d="m152.5,156.91c.42-1.22,1.12-2.27,1.98-3.23.78-.86,1.7-1.58,2.32-2.56.18-.28.1-1.02-.37-.9-1.19.32-2.18,1.43-2.91,2.37-.9,1.16-1.5,2.4-1.77,3.85-.09.5.51,1.16.75.46h0Z"/>
          </g>
          <g>
            <path class="cls-8" d="m78.9,183.78l-4.01,10.15s-35.49-7.38-41.68-18.56c-6.19-11.18,18.45-13.46,33.43,5.32l1.3-5.86s1.84.11,3.33.89c1.94,1.01,3.31,3.17-.72,7.69,0,0,5.19-1.83,8.36.38Z"/>
            <path class="cls-7" d="m32.47,170.44c3.52,7.12,10.53,12.17,18.26,13.72,8.99,1.8,18.36-1.36,26.35,4.51.23.17.31-.29.2-.42-4.47-6.1-14.99-4.76-21.48-4.82-9.44-.09-18.31-5.11-23.04-13.36-.17-.29-.4.17-.3.37h0Z"/>
            <path class="cls-7" d="m69.39,191.62c-2.99,0-5.33-1.18-5.33-2.69s2.34-2.69,5.33-2.69,5.33,1.18,5.33,2.69-2.34,2.69-5.33,2.69Zm0-4.72c-2.8,0-4.68,1.05-4.68,2.04s1.88,2.03,4.68,2.03,4.68-1.05,4.68-2.03-1.88-2.04-4.68-2.04Z"/>
            <path class="cls-7" d="m51.84,170.05c-.08,7.83,8.62,12.1,15.33,13.12.29.04.27-.59.04-.68-5.82-2.28-14.87-4.82-15.02-12.45,0-.33-.35-.32-.35,0h0Z"/>
            <path class="cls-7" d="m57.39,178.49c.86-2.13.83-4.7-.04-6.86-.12-.31-.44-.18-.47.11-.27,2.17.52,4.36.14,6.54-.04.24.23.55.37.22h0Z"/>
            <path class="cls-7" d="m60.76,180.23c.7-1.77.96-4.41.1-6.17-.14-.29-.46-.21-.49.11-.18,1.93.22,3.85-.05,5.79-.04.28.27.67.43.26h0Z"/>
            <path class="cls-7" d="m63.24,181.26c1.02-1.33,1.39-3.45.88-5.08-.11-.36-.53-.32-.63.01-.46,1.48.12,3.16-.57,4.6-.11.22.06.8.32.46h0Z"/>
          </g>
        </g>
        <g>
          <g>
            <polyline class="cls-7" points="47.64 136.29 40.58 138.13 41.57 118.79 44.11 118.79"/>
            <path class="cls-5" d="m55.46,134.06s12.21,9.28,25.73,0l4.77,6.24s-14.89,27.99-29.74,5.21l-3.91-.92,3.15-10.53Z"/>
            <g>
              <path class="cls-4" d="m48.16,126.49c.76,3.23-3.81,10.51-5.86,7.57-2.04-2.94,3.14-13.3,6.73-12.1,3.58,1.19,3.37,12.1,3.37,12.1l2.6,1.84-2.16,6.92-6.42-2.63s-.76,4.99-5.43,4.34c-4.67-.65-6.4-9.71-2.39-18.05l7.38.46"/>
              <path class="cls-7" d="m54.81,136.17l-2.74-1.94v-.17c.06-2.97-.39-10.87-3.14-11.79-1.05-.35-2.45.5-3.83,2.35-2.15,2.87-3.72,7.54-2.53,9.26.39.55.85.68,1.47.41,2.04-.91,4.32-5.53,3.8-7.72l.64-.15c.59,2.51-1.83,7.41-4.17,8.46-.9.4-1.71.18-2.27-.63-1.41-2.02.21-6.91,2.54-10.02,1.58-2.11,3.2-3.03,4.55-2.58,3.55,1.19,3.6,10.78,3.59,12.25l2.46,1.74-.38.53Z"/>
              <rect class="cls-7" x="45.66" y="133.22" width=".65" height="7.91" transform="translate(-6.65 2.41) rotate(-2.8)"/>
              <rect class="cls-7" x="36.65" y="131.91" width="5.2" height=".65" transform="translate(-14.43 5.17) rotate(-6.37)"/>
              <rect class="cls-7" x="36.2" y="136.14" width="9.85" height=".65" transform="translate(-33.65 15.13) rotate(-14.87)"/>
              <rect class="cls-7" x="37.5" y="140.13" width="8.98" height=".65" transform="translate(-55.83 31.27) rotate(-25.21)"/>
            </g>
            <rect class="cls-7" x="48.38" y="138.68" width="10.99" height="1.3" transform="translate(-95.04 151.06) rotate(-73.36)"/>
            <rect class="cls-7" x="52.73" y="140.48" width="9.84" height=".65" transform="translate(-93.82 155.23) rotate(-73.18)"/>
            <rect class="cls-7" x="56.53" y="134.64" width=".65" height="4" transform="translate(-91.12 139.37) rotate(-68.47)"/>
            <rect class="cls-7" x="55.86" y="136.93" width=".65" height="4.26" transform="translate(-93.62 146.29) rotate(-70.76)"/>
            <rect class="cls-7" x="54.84" y="140.02" width=".65" height="4.06" transform="translate(-93.76 174.31) rotate(-81)"/>
            <rect class="cls-7" x="54.3" y="141.83" width=".65" height="4.03" transform="translate(-97.39 167.57) rotate(-78.08)"/>
          </g>
          <path class="cls-1" d="m84.11,114.79l5.97,31.8s14.11,3.8,32.46-11.07l-5.1-29.96-33.32,9.23Z"/>
          <g>
            <path class="cls-5" d="m88.67,119.79s-.54,17.26,6.08,28.01l-8.57.54-.43-2.07s-18.02-3.58-11.94-22.79l14.87-3.69Z"/>
            <rect class="cls-7" x="85.74" y="145.73" width="7.93" height=".65" transform="translate(-7.75 5.05) rotate(-3.09)"/>
            <path class="cls-7" d="m82.08,143.46l-.05-.65c.24-.02,5.84-.53,6.5-6.94l.65.07c-.71,6.96-7.03,7.52-7.1,7.53Z"/>
          </g>
        </g>
        <g>
          <g>
            <polygon class="cls-7" points="152.06 56.72 157.49 81.8 117.87 86.36 119.82 48.8 152.06 56.72"/>
            <path class="cls-4" d="m160.97,84.29c-4.18,5.03-12.23,7.12-18.39,4.62-4.87,7.72-16.46,22.67-37.89,32.45-29.96,13.68-71.15-1.79-75.55-25.24-4.4-23.45,8.47-44.29,8.47-44.29l88.41,2.44s.16,22.14,3.09,22.63c2.93.49,2.93-8.79,2.93-8.79,0,0,1.71,6.86,6.17,11.54,5.99-2.76,12.72-4.52,18.96-3.84,5.43.55,7.49,4.13,3.8,8.47Z"/>
            <path class="cls-7" d="m55.46,57.37s-1.41,29.31-1.57,28.98c-.16-.33,13.62-2.13,23.5-15.64,0,0-.82,7.17,1.52,7.01,2.34-.16,8.27-9.61,8.27-9.61,0,0-1.16,5.94.85,5.49,2.01-.45,9.54-17.05,9.54-17.05l-42.1.81Z"/>
            <g>
              <g>
                <path class="cls-1" d="m97.31,119.7l-4.05-6.64,3.88-.33-5.36-4.5c1.99-1.57,3.97-4.72,3.74-11.02,0,0,7.39,6.26,7.8,15.41.25,5.51-3.22,6.87-6.02,7.08Z"/>
                <path class="cls-7" d="m96.45,120.06c-1.44,0-2.55-.25-2.64-.27l.15-.64s4.55,1.03,7.17-1.15c1.35-1.12,1.98-2.93,1.87-5.37-.34-7.44-5.43-13-7.13-14.67.09,11.69-7.75,12.15-7.83,12.15l-.03-.65c.31-.01,7.62-.48,7.19-12.25l-.03-.74.56.48c.08.06,7.5,6.46,7.92,15.65.12,2.65-.59,4.63-2.11,5.9-1.5,1.25-3.5,1.55-5.09,1.55Z"/>
                <rect class="cls-7" x="93.24" y="112.46" width="10.08" height=".33" transform="translate(-9.45 9.01) rotate(-5.01)"/>
                <rect class="cls-7" x="96.2" y="104.72" width=".33" height="8.57" transform="translate(-43.41 68.6) rotate(-32.4)"/>
                <polygon class="cls-7" points="98.65 119.54 95.8 113.12 96.09 112.99 98.95 119.41 98.65 119.54"/>
                <rect class="cls-7" x="98.48" y="100.08" width=".33" height="13.1" transform="translate(-40.06 63.48) rotate(-29.95)"/>
                <rect class="cls-7" x="100.19" y="112.45" width=".32" height="6.23" transform="translate(-15.22 15.22) rotate(-8.07)"/>
                <path class="cls-7" d="m92.47,96.74l1.25.87s3.5-2.39,7.07-.43c0,0-3.38-3.37-8.32-.44Z"/>
              </g>
              <path class="cls-7" d="m77.71,109.42c-1.6-.06-3.05-1.03-4.22-2.05-.76-.66-3.46-4.26-1.09-4.51,1.8-.19,4.52,2.58,5.27,4.03.4.78.96-.13.73-.68-.5-1.2-.61-2.46,1.01-1.82,1.51.6,1.25,1.63.47,2.72-.15.21-.07.9.31.75,2.29-.94,1.31-3.76-.39-4.7-.7-.39-1.8-.5-2.33.22-.76,1.03-.25,2.47.2,3.52.25-.23.49-.46.73-.68-.9-1.69-5.3-6.28-7.2-3.79-1.08,1.41.15,3.51,1.09,4.57,1.3,1.48,3.39,2.73,5.42,2.55.05,0,.05-.11,0-.12h0Z"/>
              <g>
                <g>
                  <path class="cls-1" d="m111.2,85.41c-10.84,2.44-22.98,6.72-28.57,16.19-.88-3.64-1.46-7.33-1.95-11.09,1.2.18,2.51,0,3.53-.46,3.91-1.85,6.95-6.95,9.01-10.64.73-1.22,1.38-2.48,1.99-3.76,2.51.16,4.69.83,7.46,2.57,3.35,1.99,6.22,4.36,8.53,7.2Z"/>
                  <path class="cls-7" d="m98.14,89.42c-6.4,2.66-12.15,6.48-15.51,12.18-.88-3.64-1.46-7.33-1.95-11.09,1.2.18,2.51,0,3.53-.46,2.33-1.1,4.36-3.37,6.04-5.8,2.98.64,5.99,2.66,7.88,5.16Z"/>
                </g>
                <path class="cls-7" d="m77.02,87.03c-.99,1.93.55,4,2.17,5,2.38,1.47,5.12.79,7.32-.65,5.88-3.87,9.58-12.15,12.02-18.47.9-2.34-1.82-5.98-3.14-2.66-1.99,5.02-4.61,10.29-8.13,14.44-1.39,1.64-3.08,3.17-5.25,3.61-.94.19-2.02.15-2.92-.16-.68-.23-.93-1.03-1.59-1.3-.18-.07-.39.04-.47.21h0Z"/>
              </g>
              <path class="cls-7" d="m160.58,83.94s-1.01-4.84-7.26-5.13c-6.26-.29-11.05,2.16-10.56,5.11.49,2.95,11.35,4.56,8.87-.54l3.36.22-4.53-.88s2.72,3.3-2.02,3.45c-4.74.15-6.45-3.27-3.5-5.08,2.95-1.8,11.04-3.77,15.65,2.84Z"/>
            </g>
          </g>
          <g>
            <g>
              <path class="cls-6" d="m151.74,53.47s-2.94-45.05-43.53-51.89C58.61-6.78,30.92,20.14,27.02,32.62l124.72,20.84Z"/>
              <rect class="cls-3" x="90.51" y="-26.6" width="1.95" height="113.94" transform="translate(49.56 117.17) rotate(-82.58)"/>
              <rect class="cls-3" x="95.37" y="-27.01" width="1.95" height="99.35" transform="translate(55.23 112.7) rotate(-78.69)"/>
              <rect class="cls-3" x="94.17" y="-27.52" width="1.95" height="80.73" transform="translate(72.58 106.16) rotate(-84.1)"/>
            </g>
            <g>
              <polygon class="cls-9" points="155.43 64.1 17.03 65.41 26.91 28.5 152.1 50.22 155.43 64.1"/>
              <path class="cls-3" d="m30.77,63.73c-2.16-1.75-3.17-5-3.62-7.63-.39-2.3.47-4.17,2.99-3.7,1.31.24,2.53,1.07,3.21,2.2.13-.37.26-.73.39-1.1-2.52-1.38-3.32-4.62-3.58-7.27-.14-1.44-.11-3.06,1.25-3.92,1.36-.87,3.21-.13,4.11,1.01.19-.31.39-.62.58-.93-1.24-1.85-1.2-4.53-.15-6.46.94-1.73,3.21-2.18,4.88-2.85.48-.19.4-1.28-.15-1.31-6.01-.34-8.51,7.21-5.16,11.56.5.65.83-.5.58-.93-1.99-3.38-6.38-2.33-7,1.38-.62,3.72.85,9.23,4.44,11,.55.27.57-.84.39-1.1-1.64-2.42-6.36-4.19-7.54-.5-1.12,3.51,1.25,8.99,4.26,10.9.17.11.23-.23.12-.32h0Z"/>
              <path class="cls-3" d="m51.57,64.06c-2.09-1.09-5.86-6.15-3.85-8.56,1.33-1.59,4.71.31,5.71,1.39.12-.33.23-.65.35-.98-1.75-1.28-2.8-3.15-3.34-5.23-.86-3.35,2.57-1.84,4.05-1.29.49.18.53-.64.43-.91-.84-2.29-1.1-4.71-.77-7.13.38-2.73,2.21-4.36,4.54-5.56.3-.16.31-.92-.11-.92-7-.1-6.15,9.95-4.34,14.25.18-.28.35-.57.53-.85-1.79-1.27-4.99-2.58-5.49.65-.46,2.93,1.69,6.67,4.24,8.02.5.27.47-.8.26-1.03-1.75-1.87-5.78-3.72-7.19-.59-1.45,3.24,2.1,7.92,4.92,9.05.15.06.16-.25.05-.31h0Z"/>
              <path class="cls-3" d="m74.26,62.51c-2.23-.53-3.68-2.62-4.53-4.62-1.7-3.99,3.65-1.98,4.74-1.56.58.22.54-.86.28-1.12-1.27-1.25-2.03-3-2.54-4.69-.26-.87-.77-2.98.95-3.12.73-.06,1.81.63,2.48.89.48.19.63-.59.56-.89-.66-2.61-1.87-7.54,1.09-9.07.43-.22.41-1.21-.14-1.25-4.58-.34-2.38,8.47-1.84,10.71.19-.3.37-.59.56-.89-2.01-1.08-4.86-1.96-4.98,1.42-.11,2.91,1.43,5.96,3.49,7.95.09-.37.19-.75.28-1.12-2.24-.97-5.79-2.29-6.06,1.29-.22,2.88,2.84,6.27,5.65,6.43.15.01.16-.33.02-.36h0Z"/>
              <path class="cls-3" d="m93.48,63.04c-1.19-.59-1.94-1.77-2.62-2.86-.56-.91-1.52-3.31.46-2.92.69.14,1.21.69,1.57,1.25.15-.25.31-.5.47-.75-.84-1.05-1.46-2.2-2.01-3.43-.38-.85-.64-1.73-.72-2.66-.21-2.5,2.51-1.28,3.38-.55.5.43.75-.6.58-.93-.94-1.77-1.3-3.95-.36-5.84.51-1.02,1.9-1.86,2.68-2.68.24-.25.21-1.22-.3-1-4.47,1.84-4.96,6.37-2.69,10.35.2-.32.4-.64.6-.96-1.31-1.59-4.3-2.32-4.81.39-.55,2.93,1.41,5.91,3.19,8.06.43.52.65-.41.47-.75-.77-1.42-3.79-3.16-4.2-.51-.37,2.35,1.94,5.78,4.29,6.19.18.03.15-.34.03-.4h0Z"/>
              <path class="cls-3" d="m111.84,61.46c-1.01-.85-1.6-2-2.14-3.18-.77-1.21-.42-2.24,1.05-3.09.68.22,1.55,1.17,1.99,1.69.36.42.65-.19.57-.53-.54-2.48-2.62-8.5.32-9.95.35-.17.37-.94-.03-1.08-4.46-1.57-1.69,9.85-.92,11.46.15-.25.31-.49.46-.74-1.26-1.25-3.64-3.77-4.68-.84-.88,2.47,1.41,5.3,3.27,6.56.15.1.2-.21.1-.29h0Z"/>
              <path class="cls-3" d="m130.24,62.71c-2.45-.34-3.03-5.83.65-3.51.52.33.78-.42.68-.83-.32-1.31-.61-2.63-.84-3.96-.4-2.26-.43-3.79,1.91-4.52.43-.13.29-.92-.03-1.09-2.04-1.08-3.13,1.02-3.27,2.76-.21,2.5.79,4.83,1.33,7.22.23-.28.45-.55.68-.83-5.2-3.47-4.95,5.24-1.09,5.18.19,0,.16-.38-.01-.41h0Z"/>
              <path class="cls-3" d="m142.49,62.45c-.75-.66-1.31-1.4-1.76-2.3-.8-1.6,1.77-2.19,2.56-1.69.51.32.71-.51.54-.87-1.15-2.32-1.56-4.42-.66-6.89.09-.25,0-1.04-.45-.83-2.88,1.35-.64,6.66.49,8.49.16-.33.31-.66.47-.99-1.21-.93-3.3-.47-3.85,1.07-.69,1.94,1.15,3.46,2.49,4.49.24.19.34-.34.17-.49h0Z"/>
            </g>
          </g>
        </g>
        <g>
          <path class="cls-1" d="m75.43,88.47c0,16.82-16.72,30.45-37.34,30.45S.75,105.29.75,88.47s16.72-30.45,37.34-30.45,37.34,13.63,37.34,30.45Z"/>
          <path class="cls-4" d="m75.43,88.47c0,2.63-.4,5.17-1.17,7.59-11.16-6.19-22.57-11.71-34.58-16.08-4.84-1.76-9.78-3.34-14.83-4.7-5.45-1.51-11.27-3.5-17.1-4.56,6.77-7.69,17.84-12.69,30.34-12.69,20.62,0,37.34,13.63,37.34,30.45Z"/>
          <path class="cls-7" d="m42.82,96.73c-6.77-.59-13.6-.62-20.48.04-6.08.5-12.63,1.63-18.37,4.1-2.08-3.78-3.23-7.99-3.23-12.4,0-6.62,2.59-12.75,7-17.75,5.82,1.06,11.65,3.05,17.1,4.56,5.06,1.36,9.99,2.94,14.83,4.7.72,1.72,1.24,3.55,1.67,5.28.83,3.69,1.34,7.58,1.48,11.46Z"/>
          <path class="cls-1" d="m74.25,96.07c-.69,2.2-1.67,4.29-2.91,6.27-9.33-2.77-18.85-4.77-28.52-5.6-.14-3.88-.65-7.77-1.48-11.46-.42-1.73-.95-3.56-1.67-5.28,12,4.37,23.42,9.89,34.58,16.08Z"/>
          <path class="cls-4" d="m71.34,102.33c-6.19,9.85-18.76,16.59-33.25,16.59-15.21,0-28.28-7.41-34.11-18.04h0c5.74-2.47,12.28-3.61,18.37-4.1,6.88-.66,13.71-.64,20.48-.04,9.66.83,19.19,2.83,28.52,5.6Z"/>
          <path class="cls-7" d="m74.71,88.47c-.16,12.39-10.01,21.68-20.88,25.98-12.18,4.82-26.77,3.53-37.97-3.19-10.22-6.14-16.94-17.72-13.29-29.65,3.63-11.91,16.05-19.13,27.61-21.27,18.21-3.37,44.25,6.54,44.53,28.13.03,1.93,1.46,1.94,1.43,0-.33-25.33-29.96-36.84-51.36-30.09-10.67,3.36-19.86,10.76-23.46,21.58-3.35,10.07-.13,21.11,6.99,28.68,19.96,21.2,67.39,12.96,67.82-20.17.02-1.94-1.41-1.93-1.43,0Z"/>
          <path class="cls-2" d="m69.5,81.45c-1.71,2.5-7.93,1.23-13.89-2.84-5.96-4.08-9.39-9.41-7.68-11.91,1.71-2.5,7.93-1.23,13.89,2.84,5.96,4.08,9.39,9.41,7.68,11.91Z"/>
          <path class="cls-2" d="m18.06,66.49s-15.29,26.62,4.56,46.57c0,0-35.66-19.21-4.56-46.57Z"/>
        </g>
      </g>
      <g>
        <path class="cls-4" d="m156.95,122.5l-1.52,6.51s-8.25,1.74-7.38,3.36c.87,1.63,9.44-2.28,9.44-2.28,0,0,.98,15.63,3.15,15.2,2.17-.43-1.52-15.2-1.52-15.2,0,0,10.42,14.66,12.37,13.35,1.95-1.3-9.12-11.83-9.12-11.83,0,0,14.87,8.25,16.5,6.51,1.63-1.74-14.55-7.27-14.55-7.27,0,0,14.45.11,14.66-1.63.21-1.74-16.16,0-16.16,0l-1.43-6.73"/>
        <g>
          <path class="cls-5" d="m132.96,128.69l2.17,3.47-18.78,10.2s-12.48-21.28,3.91-35.93c16.39-14.65,45.37-10.75,52.65-2.61,7.27,8.14-10.08,19.11-10.08,19.11v3.37h-8.05l1.74-19.87-22.9,2.93s9.44,9.99-.65,19.32Z"/>
          <rect class="cls-7" x="154.78" y="125.65" width="8.05" height="1.3"/>
          <rect class="cls-7" x="158.62" y="119.04" width=".65" height="7.75" transform="translate(35.31 281.31) rotate(-89.74)"/>
          <rect class="cls-7" x="154.18" y="124.39" width="3.58" height=".65" transform="translate(14.29 265.45) rotate(-83.45)"/>
          <rect class="cls-7" x="157.76" y="122.9" width=".65" height="3.59"/>
          <polygon class="cls-7" points="159.84 126.33 159.55 122.96 160.2 122.91 160.49 126.27 159.84 126.33"/>
          <rect class="cls-7" x="161.36" y="122.92" width=".65" height="3.58" transform="translate(-12.45 18.07) rotate(-6.16)"/>
          <rect class="cls-7" x="113.5" y="133.95" width="21.06" height=".65" transform="translate(-52.37 86.34) rotate(-32.07)"/>
          <path class="cls-7" d="m122.07,130.09c-3.85,0-5.62-2.4-5.65-2.43l.53-.38c.13.18,3.21,4.28,10.5.75l.28.59c-2.24,1.08-4.12,1.47-5.67,1.47Z"/>
        </g>
      </g>
    </g>
  </g>
</svg>