<?xml version="1.0" encoding="UTF-8"?>
<svg id="_Слой_2" data-name="Слой 2" xmlns="http://www.w3.org/2000/svg" viewBox="0 0 239.69 183">
  <defs>
    <style>
      .cls-1 {
        fill: #492a51;
      }

      .cls-2 {
        stroke-width: .98px;
      }

      .cls-2, .cls-3, .cls-4, .cls-5, .cls-6, .cls-7, .cls-8 {
        fill: none;
      }

      .cls-2, .cls-3, .cls-4, .cls-6, .cls-8 {
        stroke-miterlimit: 10;
      }

      .cls-2, .cls-3, .cls-7 {
        stroke: #492a51;
      }

      .cls-9 {
        fill: #fff;
      }

      .cls-10 {
        fill: #ff8b9b;
      }

      .cls-11 {
        fill: #d9607b;
      }

      .cls-3 {
        stroke-width: .97px;
      }

      .cls-4 {
        stroke-width: .28px;
      }

      .cls-4, .cls-6, .cls-8 {
        stroke: #ffe8db;
      }

      .cls-5 {
        stroke: #ffa7da;
      }

      .cls-5, .cls-7 {
        stroke-linecap: round;
        stroke-linejoin: round;
      }

      .cls-5, .cls-7, .cls-8 {
        stroke-width: .51px;
      }

      .cls-12 {
        fill: #7581ff;
      }

      .cls-6 {
        stroke-width: .38px;
      }

      .cls-13 {
        fill: #ffb18a;
      }

      .cls-14 {
        fill: #aa6ee7;
      }

      .cls-15 {
        fill: #ffa7da;
      }

      .cls-16 {
        fill: #ffe8db;
      }
    </style>
  </defs>
  <g id="OBJECTS">
    <g>
      <path class="cls-9" d="m125.82,183c-1.88,0-3.68-.86-4.86-2.37l-1.56-1.99c-8.08,2.32-16.42,3.49-24.85,3.49-18.46,0-36.15-5.53-51.27-16-1.37-.04-2.53-.1-3.4-.16-1.44.1-3.57.2-6.09.2-15.31,0-25.17-3.49-29.3-10.37-4.66-7.77-.75-20.36,4.61-34.86-.91-2.68-1.7-5.41-2.35-8.17-.88-.83-1.61-1.81-2.15-2.9-1.21-2.47-1.57-5.05-1.1-7.51-.1-.1-.2-.21-.3-.32-2.41-2.68-3.47-6.31-3.15-10.79.14-2.02,1-5.43,4.72-8.3,1.42-14.44,6.27-28.21,14.17-40.32-.27-.55-.47-1.14-.57-1.76-.36-2.22.52-4.47,2.29-5.85l5.65-4.4,2.38-6.75c.75-2.12,2.6-3.67,4.82-4.03.33-.05.66-.08.99-.08,1.45,0,2.85.51,3.96,1.44C54.39,8.54,74.07,1.63,94.56,1.63c4.57,0,9.16.35,13.7,1.05.94-1.37,2.41-2.32,4.09-2.6.33-.05.66-.08.99-.08,1.88,0,3.68.86,4.86,2.37l2.42,3.11c31.07,9.36,54.81,34.94,61.94,66.43h42.43c3.4,0,6.16,2.76,6.16,6.16v30.7h2.37c3.4,0,6.16,2.76,6.16,6.16v42.97c0,3.4-2.76,6.16-6.16,6.16h-84.83c-4.71,3.54-9.76,6.61-15.06,9.16l-2,5.67c-.75,2.12-2.6,3.67-4.82,4.03-.33.05-.66.08-.99.08Z"/>
      <g>
        <circle class="cls-15" cx="94.6" cy="92.9" r="84.08"/>
        <g>
          <g>
            <path class="cls-10" d="m144.31,74.16c-.42-4.45-4.76-7.48-9.06-6.26-4.67,1.32-11.37,2.15-20.2.7-19.14-3.15-37.76-10.49-46.94-8.65-9.18,1.84-31.73,6.56-39.33,9.18-7.6,2.62-15.73,4.98-14.68,11.01,1.05,6.03,3.41,5.77,3.41,5.77,0,0-11.01,1.84-11.01,6.82s2.1,8.13,6.03,7.87c0,0-3.93,1.57-1.84,7.6,2.1,6.03,49.82,1.05,49.82,1.05,0,0-33.56,6.56-32.25,13.63,1.31,7.08,8.39,7.08,25.43,4.46,17.04-2.62,56.64,1.57,70.53-2.1,7.87-2.08,14.56-4.32,18.88-5.88,3.09-1.11,5.03-4.17,4.73-7.44l-3.53-37.76Z"/>
            <g>
              <path class="cls-7" d="m14.11,77.26s-.92,6.03,3.41,8.65c4.33,2.62,44.44-8.52,44.44-8.52"/>
              <path class="cls-7" d="m17.51,85.91s-10.62,1.31-11.01,6.82c-.39,5.51,2.23,7.74,6.03,7.87,3.8.13,37.76-3.02,37.76-3.02"/>
              <path class="cls-7" d="m12.53,100.6s-4.35,2.93-2.12,7.46c.61,1.24,1.85,2.03,3.22,2.17,5.81.58,23.55,2.14,32.46.72"/>
            </g>
            <g>
              <path class="cls-16" d="m61.39,114.32c-2.1-9.79-10.94-47.72-10.94-47.72,0,0,1.57.17,4.2-.87,2.16-.87.28-6.61-.44-8.6-.15-.4-.53-.67-.96-.67h-26.63c-.43,0-.82.27-.96.67-.72,1.98-2.61,7.73-.44,8.6,2.62,1.05,4.2.87,4.2.87,0,0-8.22,37.67-11.49,49.08-2.31,8.02-12.8,30.11-8.08,37.98,4.72,7.87,22.9,7.69,30.07,7.17,0,0,.01-1.01.04-2.82.02,1.81.04,2.82.04,2.82,7.17.52,25.35.7,30.07-7.17,4.72-7.87-6.89-31.17-8.64-39.33Z"/>
              <path class="cls-14" d="m51.08,58.18c0,.4-5.31.72-11.86.72s-11.87-.32-11.87-.72,5.31-.72,11.87-.72,11.86.32,11.86.72Z"/>
              <line class="cls-5" x1="29.4" y1="66.6" x2="42.16" y2="66.77"/>
              <g>
                <g>
                  <path class="cls-15" d="m64.72,144.74c0,1.18-.34,2.55-1.1,3.94-2.18,4.01-7.78,8.3-18.66,9.34-11.2,1.07-22.11,0-28.04-4.46-1.85-1.38-3.2-3.09-3.95-5.16-2.64-7.34,10.62-45.26,14.94-57.21.06-.17.12-.34.21-.5.89-2.02,2.69-3.52,4.87-4.04,5.58-1.35,15.53-3.58,16.66-2.83.1.07.23.25.36.51,1.9,3.7,6.55,25.11,7.2,27.89.7,2.97,7.52,27.96,7.52,32.51Z"/>
                  <path class="cls-14" d="m50,84.33c-.07.1-.14.21-.23.31-1.29,1.6-3.32,2.39-5.19,3.25-3.02,1.38-5.92,3.12-9.16,3.81-1.63.35-5.68.5-7.31-1.01.89-2.02,2.69-3.52,4.87-4.04,5.58-1.35,15.53-3.58,16.66-2.83.1.07.23.25.36.51Z"/>
                </g>
                <g>
                  <g>
                    <path class="cls-9" d="m49.31,90.26c-.55.75-.72,1.71-.76,2.64-.1,2.57.64,5.1,1.5,7.52.56,1.58,1.24,3.24,2.58,4.24.52.39,1.23.67,1.81.37.52-.27.73-.9.83-1.47.4-2.24-.1-4.55-.74-6.74-.5-1.69-2.42-10.37-5.23-6.56Z"/>
                    <path class="cls-9" d="m53.31,109.06c-.12,1.36.07,2.74.54,4.02.19.5.42,1,.82,1.36.4.36.98.56,1.48.37.76-.27,1.01-1.21,1.04-2.02.07-1.62-.26-3.72-1.33-5.01-1.28-1.52-2.42-.35-2.56,1.27Z"/>
                  </g>
                  <path class="cls-9" d="m14.96,148.1c.61,1.63,1.95,3.06,3.66,3.4.55.11,1.26.01,1.44-.51.08-.24.03-.5-.05-.74-.22-.67-.59-1.27-.83-1.93-.77-2.07-.26-4.52-1.34-6.44-.28-.51-.73-.99-1.31-1.04-.55-.05-1.07.32-1.36.79-1.08,1.75-.88,4.63-.2,6.46Z"/>
                </g>
                <path class="cls-1" d="m63.62,148.68c-2.18,4.01-7.78,8.3-18.66,9.34-11.2,1.07-22.11,0-28.04-4.46,1.16.4,2.27.92,2.79,1.11,3.21,1.1,6.54,1.87,9.91,2.29,3.67.46,7.38.52,11.06.15,8.19-.83,16.15-3.78,22.93-8.43Z"/>
              </g>
            </g>
            <path class="cls-10" d="m80.27,67.82s-43.18,7.17-45.1,14.68c-1.69,6.61,1.75,10.49,5.59,11.19,3.85.7,37.06-.87,37.06-.87,0,0-1.22,11.19,12.24,17.31l14.16-19.75-23.95-22.55Z"/>
            <g>
              <path class="cls-7" d="m77.56,66.51s-20.71,5.9-25.57,7.47c-4.85,1.57-17.96,3.8-17.31,11.28s2.88,8.52,11.8,8.52,28.58-1.57,28.58-1.57c0,0,5.24,9.7,14.16,14.03"/>
              <path class="cls-7" d="m40,79.81c-1.23.63-2.36,1.55-2.99,2.79-.8,1.57-.71,3.47-.29,5.18.21.85.52,1.71,1.11,2.36.88.95,2.25,1.28,3.54,1.36,1.35.08,2.71-.05,4.02-.39.9-.24,1.8-.59,2.44-1.26.98-1.03,1.15-2.58,1.16-4,0-1.61-.14-3.27-.89-4.69-1.77-3.34-5.26-2.79-8.11-1.34Z"/>
            </g>
          </g>
          <g>
            <g>
              <circle class="cls-16" cx="84.94" cy="37.3" r="24.52" transform="translate(-4.94 14.33) rotate(-9.37)"/>
              <polygon class="cls-16" points="74.6 57.68 58.77 62.18 68.86 50.54 74.6 57.68"/>
            </g>
            <path class="cls-12" d="m83.35,42.84l-.28.07c-.32,0-.57-.14-.75-.46-.53-1.1-.82-2.17-.82-3.2,0-2.6,1.71-4.16,3.49-5.8.85-.82,1.46-1.46,1.78-1.92s.5-.96.5-1.42c0-1.39-1.17-2.06-2.46-2.06-1.42,0-2.85.75-3.95,1.6-.18.11-.32.18-.5.18-.21,0-.39-.11-.53-.32l-1.25-1.85c-.11-.11-.14-.28-.14-.46,0-.25.11-.46.28-.64,1.92-1.6,3.98-2.38,6.19-2.38,3.63,0,6.4,2.17,6.4,5.87,0,2.35-1.1,3.84-2.7,5.44l-.68.68c-.82.75-1.39,1.35-1.74,1.81-.36.46-.53.96-.53,1.46,0,.46.11,1,.36,1.6.04.14.07.25.07.32,0,.11-.03.25-.11.36-.11.11-.21.21-.32.25l-2.31.89Zm-2.31,5.48c0-1.64,1.32-2.95,2.95-2.95s2.95,1.28,2.95,2.95-1.28,2.95-2.95,2.95-2.95-1.32-2.95-2.95Z"/>
          </g>
          <g>
            <g>
              <g>
                <path class="cls-14" d="m233.57,115.95v42.97H96.44c-10.82,0-19.59-9.62-19.59-21.49,0-5.94,2.19-11.3,5.73-15.18,3.55-3.9,8.45-6.3,13.86-6.3h137.13Z"/>
                <g>
                  <path class="cls-16" d="m233.58,119.15v37.33h-46.22c-1.17,0-2.32-.12-3.43-.38-.39-.09-.76-.19-1.14-.31-1.98-.6-3.82-1.59-5.44-2.89-.13-.1-.25-.2-.38-.31-1-.84-1.91-1.8-2.71-2.87-.09-.1-.16-.2-.24-.31-.65-.89-1.22-1.85-1.71-2.87-.06-.1-.1-.2-.15-.31-.43-.91-.79-1.89-1.07-2.89-.02-.1-.06-.2-.08-.31-.25-.92-.43-1.89-.54-2.87-.01-.1-.02-.21-.03-.31-.07-.66-.1-1.34-.1-2.02,0-.29.01-.57.02-.85,0-.11,0-.21.01-.31.06-.99.18-1.95.36-2.89.02-.11.05-.21.07-.31.22-.99.5-1.95.85-2.87.05-.1.08-.21.13-.31.41-1.01.89-1.97,1.45-2.87.07-.11.14-.21.21-.31.56-.87,1.19-1.7,1.88-2.46.13-.14.26-.29.4-.41.1-.11.21-.21.31-.31,1.17-1.15,2.5-2.12,3.93-2.89.21-.11.41-.21.63-.31,2.07-.99,4.36-1.54,6.77-1.54h46.22Z"/>
                  <g>
                    <path class="cls-13" d="m233.58,120.69v.31h-53.62c.21-.11.41-.21.63-.31h52.99Z"/>
                    <path class="cls-13" d="m233.58,123.88v.31h-57.86c.1-.11.21-.21.31-.31h57.55Z"/>
                    <path class="cls-13" d="m233.58,123.88v.31h-57.86c.1-.11.21-.21.31-.31h57.55Z"/>
                    <path class="cls-13" d="m233.58,127.07v.31h-60.34c.07-.11.14-.21.21-.31h60.14Z"/>
                    <path class="cls-13" d="m233.58,127.07v.31h-60.34c.07-.11.14-.21.21-.31h60.14Z"/>
                    <path class="cls-13" d="m233.58,130.26v.31h-61.91c.05-.1.08-.21.13-.31h61.79Z"/>
                    <path class="cls-13" d="m233.58,130.26v.31h-61.91c.05-.1.08-.21.13-.31h61.79Z"/>
                    <path class="cls-13" d="m233.58,133.44v.31h-62.84c.02-.11.05-.21.07-.31h62.77Z"/>
                    <path class="cls-13" d="m233.58,133.44v.31h-62.84c.02-.11.05-.21.07-.31h62.77Z"/>
                    <path class="cls-13" d="m233.58,136.64v.31h-63.21c0-.11,0-.21.01-.31h63.2Z"/>
                    <path class="cls-13" d="m233.58,139.83v.31h-63.1c-.01-.1-.02-.21-.03-.31h63.13Z"/>
                    <path class="cls-13" d="m233.58,139.83v.31h-63.1c-.01-.1-.02-.21-.03-.31h63.13Z"/>
                    <path class="cls-13" d="m233.58,143.02v.31h-62.48c-.02-.1-.06-.2-.08-.31h62.56Z"/>
                    <path class="cls-13" d="m233.58,146.22v.31h-61.26c-.06-.1-.1-.2-.15-.31h61.41Z"/>
                    <path class="cls-13" d="m233.58,149.4v.31h-59.32c-.09-.1-.16-.2-.24-.31h59.56Z"/>
                    <path class="cls-13" d="m233.58,152.59v.31h-56.23c-.13-.1-.25-.2-.38-.31h56.6Z"/>
                    <path class="cls-13" d="m233.58,155.79v.31h-49.65c-.39-.09-.76-.19-1.14-.31h50.79Z"/>
                  </g>
                </g>
              </g>
              <path class="cls-15" d="m110.22,158.92h-10c-5.25-7.17-7.89-16.22-7.25-25.09.45-6.35,2.59-12.54,6.05-17.88h12.61c-2.41,3.56-4.15,7.65-5.15,11.77-2.53,10.39-1.13,21.68,3.74,31.2Z"/>
              <path class="cls-15" d="m155.86,158.92h-10.02c-5.24-7.17-7.89-16.22-7.24-25.09.45-6.35,2.59-12.54,6.05-17.88h12.6c-2.41,3.56-4.15,7.65-5.15,11.77-2.52,10.4-1.13,21.68,3.76,31.2Z"/>
            </g>
            <g>
              <g>
                <path class="cls-12" d="m225.04,79.09v36.91h-124.77c-9.85,0-17.83-8.26-17.83-18.46,0-5.1,1.98-9.7,5.21-13.04,3.23-3.35,7.69-5.41,12.62-5.41h124.77Z"/>
                <g>
                  <path class="cls-16" d="m225.04,81.84v32.06h-42.06c-1.07,0-2.12-.11-3.12-.32-.35-.07-.69-.16-1.04-.27-1.8-.52-3.47-1.36-4.95-2.48-.11-.09-.23-.17-.34-.27-.91-.72-1.74-1.55-2.47-2.47-.08-.09-.15-.17-.22-.27-.59-.76-1.11-1.59-1.56-2.47-.05-.09-.09-.17-.13-.27-.39-.78-.72-1.62-.97-2.48-.02-.09-.05-.17-.07-.27-.23-.79-.39-1.62-.49-2.47-.01-.09-.02-.18-.03-.27-.06-.57-.09-1.15-.09-1.74,0-.25.01-.49.02-.73,0-.1,0-.18.01-.27.05-.85.17-1.67.33-2.48.02-.1.04-.18.06-.27.2-.85.46-1.67.78-2.47.04-.09.07-.18.11-.27.37-.87.81-1.7,1.32-2.47.06-.1.12-.18.19-.27.51-.75,1.08-1.46,1.71-2.11.11-.12.24-.25.36-.35.09-.1.19-.18.28-.27,1.07-.99,2.27-1.82,3.58-2.48.19-.1.37-.18.57-.27,1.89-.85,3.97-1.32,6.16-1.32h42.06Z"/>
                  <g>
                    <path class="cls-13" d="m225.04,83.16v.27h-48.78c.19-.1.37-.18.57-.27h48.21Z"/>
                    <path class="cls-13" d="m225.04,85.91v.27h-52.64c.09-.1.19-.18.28-.27h52.36Z"/>
                    <path class="cls-13" d="m225.04,85.91v.27h-52.64c.09-.1.19-.18.28-.27h52.36Z"/>
                    <path class="cls-13" d="m225.04,88.65v.27h-54.9c.06-.1.12-.18.19-.27h54.72Z"/>
                    <path class="cls-13" d="m225.04,88.65v.27h-54.9c.06-.1.12-.18.19-.27h54.72Z"/>
                    <path class="cls-13" d="m225.04,91.38v.27h-56.33c.04-.09.07-.18.11-.27h56.22Z"/>
                    <path class="cls-13" d="m225.04,91.38v.27h-56.33c.04-.09.07-.18.11-.27h56.22Z"/>
                    <path class="cls-13" d="m225.04,94.12v.27h-57.17c.02-.1.04-.18.06-.27h57.11Z"/>
                    <path class="cls-13" d="m225.04,94.12v.27h-57.17c.02-.1.04-.18.06-.27h57.11Z"/>
                    <path class="cls-13" d="m225.04,96.87v.27h-57.51c0-.1,0-.18.01-.27h57.5Z"/>
                    <path class="cls-13" d="m225.04,99.61v.27h-57.41c-.01-.09-.02-.18-.03-.27h57.44Z"/>
                    <path class="cls-13" d="m225.04,99.61v.27h-57.41c-.01-.09-.02-.18-.03-.27h57.44Z"/>
                    <path class="cls-13" d="m225.04,102.34v.27h-56.85c-.02-.09-.05-.17-.07-.27h56.92Z"/>
                    <path class="cls-13" d="m225.04,105.09v.27h-55.74c-.05-.09-.09-.17-.13-.27h55.88Z"/>
                    <path class="cls-13" d="m225.04,107.83v.27h-53.97c-.08-.09-.15-.17-.22-.27h54.19Z"/>
                    <path class="cls-13" d="m225.04,110.56v.27h-51.16c-.11-.09-.23-.17-.34-.27h51.5Z"/>
                    <path class="cls-13" d="m225.04,113.31v.27h-45.18c-.35-.07-.69-.16-1.04-.27h46.21Z"/>
                  </g>
                </g>
              </g>
              <path class="cls-13" d="m145.78,103.69h-42.82c-4.02,0-7.3-3.29-7.3-7.3h0c0-4.02,3.29-7.3,7.3-7.3h42.82c4.02,0,7.3,3.29,7.3,7.3h0c0,4.02-3.29,7.3-7.3,7.3Z"/>
            </g>
          </g>
          <g>
            <ellipse class="cls-3" cx="142.03" cy="67.21" rx="12.26" ry="29.5" transform="translate(-11.74 99.55) rotate(-37.2)"/>
            <ellipse class="cls-3" cx="142.03" cy="67.21" rx="29.5" ry="12.26" transform="translate(25.3 172.4) rotate(-67.35)"/>
            <ellipse class="cls-2" cx="142.34" cy="67.15" rx="29.5" ry="12.46" transform="translate(-5.78 13.94) rotate(-5.49)"/>
            <circle class="cls-12" cx="141.45" cy="67.12" r="5.07"/>
          </g>
        </g>
        <polygon class="cls-14" points="120.28 22.75 117.3 31.2 111.79 24.13 103.34 21.15 110.41 15.64 113.39 7.19 118.9 14.26 127.35 17.24 120.28 22.75"/>
        <polygon class="cls-11" points="128.85 169.41 125.87 177.86 120.36 170.8 111.9 167.82 118.97 162.31 121.95 153.85 127.46 160.92 135.92 163.9 128.85 169.41"/>
        <polygon class="cls-11" points="41.44 42.5 38.47 50.95 32.95 43.89 24.5 40.91 31.57 35.4 34.55 26.94 40.06 34.01 48.51 36.99 41.44 42.5"/>
        <circle class="cls-8" cx="88.29" cy="163.02" r="10.1"/>
        <circle class="cls-6" cx="76.96" cy="128.99" r="7.42"/>
        <path class="cls-4" d="m121,48.31c0,3.09-2.5,5.59-5.59,5.59s-5.59-2.5-5.59-5.59,2.5-5.59,5.59-5.59,5.59,2.5,5.59,5.59Z"/>
        <circle class="cls-4" cx="134.02" cy="31.26" r="5.59"/>
        <rect class="cls-13" x="184.28" y="81.59" width="7.87" height="16.52"/>
        <rect class="cls-13" x="187.95" y="119.08" width="7.87" height="19.53"/>
      </g>
    </g>
  </g>
</svg>