<?xml version="1.0" encoding="UTF-8"?>
<svg id="_Слой_2" data-name="Слой 2" xmlns="http://www.w3.org/2000/svg" viewBox="0 0 136.26 173.7">
  <defs>
    <style>
      .cls-1 {
        fill: #cbf3f0;
      }

      .cls-2 {
        fill: #fff;
        opacity: .5;
      }

      .cls-3 {
        fill: #2ec4b6;
      }

      .cls-4 {
        fill: #ffc64d;
      }

      .cls-5 {
        fill: #ff7a05;
      }
    </style>
  </defs>
  <g id="OBJECTS">
    <g>
      <g>
        <path class="cls-1" d="m122.1,69.19c3.89,4.54,2.78,11.16-.81,15.46-3.09,3.77-8.25,5.13-12.9,2.56-.52-.29-1.1-.69-1.64-1.14-.22,1.93-1.09,3.97-2.15,4.61-4.39,2.93-9.63,1.39-11.4-1.97-1.1,1.18-2.45,2.12-3.89,2.57-2.34.64-5.11.22-7.29-.89l-.8,10.25,24.07,1.3-3.44,21.3c-22.35-3.04-24.76,21.45-24.76,21.45l-35.76-1.61c-6.19-28.16-29.91-16.5-29.91-16.5v-18.41c30.94-2.11,27.16-20.52,27.16-19.34,0,0-12.38,8.77-27.16,3.04l-1.72-13.88,16.5,2.72,3.62-20.34c-12.83,2.45-29.94,4.04-26.65-5.77,3.34-9.97,28.12-18.99,45.15-24.09-.06-.16-.08-.33-.11-.5-.44-2.61,2.08-5.59,5.11-7.16-.86-.69-1.3-1.58-.81-2.65,1.28-3.04,8.22-1.87,12.31.29-.45-1.33-.54-2.86-.45-3.75.87-8.91,11-14.79,20.46-15.69,8.76-.9,19.42,3.47,17.53,12.37-.14.63-.38,1.61-.75,2.7,3.45.42,7.11,1.8,8.66,2.87,2.27,1.59,3.48,4.3,3.81,6.99,2.23-1.75,5.54-2.61,8.39-2.61,6.19-.3,10.66,3.32,12.72,8.45,2.06,5.28.18,9.66-4.29,13.42-.62.54-1.54,1.3-2.58,2.02,3.97,1.13,7.8,4.94,7.91,8.1.45,7.34-6.51,12.75-14.14,13.81Z"/>
        <path class="cls-3" d="m15.72,93.39c-.37-3.19.45-5.74,2.44-7.57,5.07-4.67,16.21-3.18,19.27-2.66v-15.03l.9.39c.09.04,9.42,3.98,15.64.63,2.8-1.51,4.58-4.3,5.3-8.3l1.27.23c-.79,4.41-2.8,7.51-5.96,9.21-5.65,3.04-13.26.72-15.86-.23v14.66l-.77-.16c-.14-.03-13.61-2.68-18.92,2.21-1.67,1.54-2.35,3.71-2.03,6.47l-1.28.15Z"/>
        <path class="cls-2" d="m48.99,44.21c0,2.17-3.21,3.92-7.18,3.92s-7.18-1.76-7.18-3.92,3.21-3.92,7.18-3.92,7.18,1.76,7.18,3.92Z"/>
        <path class="cls-2" d="m70.22,45.41c0,2.42-3.69,4.38-8.25,4.38s-8.25-1.96-8.25-4.38,3.69-4.38,8.25-4.38,8.25,1.96,8.25,4.38Z"/>
        <path class="cls-3" d="m81.29,90.88c3,1.27,6.9,2.1,9.87.22,2.87-1.81,7.33-6.35,5.4-10.15-.12-.23-.32-.33-.59-.34-2.68-.12-4.54,3.44-4.32,5.84.39,4.24,3.92,6.21,7.86,6.37,3.31.14,6.45-1.65,7.66-4.69,1.05-2.66.95-6.39-2.4-6.8-.5-.06-1.3.25-1.28.85.28,6.63,10.43,8.42,15.1,5.51,7.21-4.49,9.49-14.58,2.66-20.48-.56-.48-2.31.26-1.72.77,3.76,3.25,4.69,7.28,3.42,12-1.18,4.38-5.2,7.93-9.99,7.92-3.23,0-7.47-2.82-7.61-6.23-.43.28-.85.56-1.28.84,4.65.57-.68,15.06-9.21,6.97-.66-.73-1.08-1.57-1.26-2.51-.39-1.33,1.63-4.45,1.41-4.88.12,1.7-.3,3.26-1.26,4.68-2.22,4.16-7.02,4.83-11.01,3.13-.63-.27-2.31.62-1.46.98h0Z"/>
        <path class="cls-3" d="m60.14,23.78c-1.79-.09-3.53-.59-5.03-1.57-1.15-.79-1.15-1.73,0-2.83.96-.08,1.92-.03,2.87.15,2.53.36,6.37,1.57,7.81,3.9,1.01-.48,2.02-.96,3.03-1.43-5.97-.76-.68-11.21.88-13.09,4.34-5.26,12.32-7.44,18.87-6.89,4.84.41,10.03,2.73,11.82,7.51.96,2.54-.87,12.3-4.25,12.94-1.67.31-3.15,2.33-.57,1.85,5.45-1.02,8.7-7.31,8.87-12.57C104.66,3.78,96.08.23,89.24.02c-7.7-.24-16.65,2.29-22.12,8-2.99,3.13-8.63,14.84-.65,15.85.43.06,3.64-.45,3.03-1.43-2.69-4.36-10.99-6.14-15.62-4.48-2.08.75-4.36,2.5-2.97,4.89,1.32,2.29,5.38,2.74,7.72,2.86,1.29.07,4.02-1.8,1.5-1.92h0Z"/>
        <path class="cls-3" d="m51.21,22.99c-5.74,3.96-6.7,10.19,1.06,11.37,4.95.75,11.52-.21,15.65-3.19,1.23-.88-.52-1.24-1.2-1.18-5.72.53-10.02,7.36-2.8,9.71,5.58,1.81,13.24-1.71,17.58-5.06,1.64-1.27-2.1-1.14-2.96-.48-2.05,1.58-4.44,2.64-6.91,3.4-1.86.57-3.75.74-5.63.13-2.55-.83-3.67-5.46.16-5.82-.4-.39-.8-.79-1.2-1.18-2.69,1.94-7.22,2.06-10.37,1.78-6.33-.58-4.71-6.04-.42-9,1.69-1.16-2.08-1.08-2.96-.48h0Z"/>
        <path class="cls-3" d="m13.79,62.87c-4.63,0-8.51-.71-10.39-2.69-1.36-1.43-1.64-3.37-.84-5.77,3.35-10.01,26.85-18.92,45.96-24.64l.37,1.23C22.29,38.97,6.27,47.42,3.79,54.82c-.65,1.94-.47,3.4.55,4.47,5.58,5.86,32.58-.98,37.71-2.35-.93-1.35-2.72-3.4-4.51-3.41h-.01c-1.17,0-2.28.88-3.3,2.62l-1.11-.65c1.27-2.16,2.75-3.25,4.41-3.25h.02c3.34.02,5.97,4.58,6.08,4.77l.41.72-.79.22c-.97.27-17.65,4.91-29.44,4.91Z"/>
        <path class="cls-1" d="m61.75,45.41c0,1.34-1.41,2.43-3.15,2.43s-3.15-1.09-3.15-2.43,1.41-2.43,3.15-2.43,3.15,1.09,3.15,2.43Z"/>
        <path class="cls-1" d="m42.51,44.21c0,1.34-1.41,2.43-3.15,2.43s-3.15-1.09-3.15-2.43,1.41-2.43,3.15-2.43,3.15,1.09,3.15,2.43Z"/>
        <path class="cls-3" d="m81.87,100.69l-1.29-.1,2.12-27.4.68.1c.15.02,15.11,2.05,21.35-9.18,1.24-2.24,1.41-4.06.5-5.58-2.64-4.42-13.4-4.88-16.14-4.93v13.12l-16.19-3.38,13.4-18.33c-3.18.47-10.24,1.1-13.15-1.89-1.22-1.26-1.59-2.98-1.09-5.12l1.25.3c-.4,1.71-.16,2.99.76,3.93,3.24,3.33,13.45,1.28,13.55,1.26l1.64-.34-14.15,19.35,12.69,2.65v-12.82h.64c.59-.02,14.51-.13,17.9,5.55,1.14,1.92.98,4.23-.48,6.86-5.88,10.58-18.85,10.17-21.98,9.9l-2.01,26.05Z"/>
        <path class="cls-3" d="m14.33,120.38c-1.83,0-2.87-.05-2.93-.05l.06-1.29c.41.02,41.34,1.84,72.59-18.76l.71,1.08c-26.73,17.62-60.42,19.02-70.43,19.02Z"/>
        <rect class="cls-3" x="34.5" y="117.76" width="64.14" height="1.29" transform="translate(-46.93 43.79) rotate(-27.33)"/>
        <rect class="cls-3" x="44.23" y="122.21" width="55.26" height="1.29" transform="translate(-43.49 39.48) rotate(-23.82)"/>
        <rect class="cls-3" x="41.29" y="129.56" width="51.07" height="1.29" transform="translate(-52.63 45.64) rotate(-27.54)"/>
        <path class="cls-3" d="m103.28,102.18c0,1.67-3.65,3.02-8.15,3.02s-8.15-1.35-8.15-3.02,3.65-3.02,8.15-3.02,8.15,1.35,8.15,3.02Z"/>
        <path class="cls-2" d="m110.37,30.39s15.81-6.02,17.02,12.59c0,0,13.25-26.93-17.02-12.59Z"/>
        <path class="cls-2" d="m112.26,63.55s15.31-.15,18.91-11.47c0,0,8.77,20.67-18.91,11.47Z"/>
        <path class="cls-3" d="m56.3,61.09l1.21,1.45s4.65-1.75,8.76.79c0,0-2.49-5.32-9.97-2.25Z"/>
      </g>
      <g>
        <path class="cls-1" d="m5.16,138.39s103.83-.15,103.83,0,4.13,35.31,4.13,35.31l-113.12-.3,5.16-35Z"/>
        <g>
          <path class="cls-5" d="m24.41,149.07v13.28s8.42-.53,11.17,5.73h45.73s.69-5.28,7.39-5.88v-12.22s-8.48-1.29-9.74-6.04h-44.41s-1.38,6.04-10.14,5.13Z"/>
          <path class="cls-4" d="m78.48,166.55l-41.52-.51-.17-.35c-2.2-4.44-4.95-5.37-6.88-5.37-1.31,0-2.23.43-2.24.43l-.92.43v-10.29s.72.09.72.09c.65.08,1.28.12,1.86.12,6.23,0,6.47-4.64,6.47-4.84l.02-.62h41.28l.09.54c.83,5.17,9.08,5.89,9.16,5.9l.59.05v8.63l-.59.05c-6.98.56-7.77,5.14-7.78,5.19l-.09.55Zm-40.72-1.79l39.67.49c.43-1.4,2.13-4.97,8.22-5.67v-6.28c-2.01-.27-8.41-1.5-9.62-6.37h-39.03c-.3,1.55-1.67,5.46-7.68,5.46-.41,0-.85-.02-1.29-.06v6.93c1.92-.5,6.44-.81,9.73,5.49Z"/>
          <rect class="cls-4" x="56.49" y="133.77" width="1.29" height="46.88" transform="translate(-100.44 213.32) rotate(-89.63)"/>
          <rect class="cls-4" x="44.18" y="151.48" width="25.33" height="1.29"/>
        </g>
      </g>
    </g>
  </g>
</svg>