<?xml version="1.0" encoding="UTF-8"?>
<svg id="_Слой_2" data-name="Слой 2" xmlns="http://www.w3.org/2000/svg" viewBox="0 0 511.87 469.56">
  <defs>
    <style>
      .cls-1, .cls-2 {
        fill: #fff;
      }

      .cls-3 {
        fill: #074783;
      }

      .cls-2, .cls-4, .cls-5, .cls-6, .cls-7, .cls-8, .cls-9, .cls-10 {
        fill-rule: evenodd;
      }

      .cls-11, .cls-8 {
        fill: #7befe5;
      }

      .cls-4 {
        fill: #ffa4ac;
      }

      .cls-5 {
        fill: #a089e4;
      }

      .cls-6 {
        fill: #fd6085;
      }

      .cls-7 {
        fill: #f9d555;
      }

      .cls-9 {
        fill: #074785;
      }

      .cls-10 {
        fill: #29aefd;
      }
    </style>
  </defs>
  <g id="_04" data-name="04">
    <g>
      <g>
        <path class="cls-6" d="m417.28,60.53l-277.25-8.56c-12.04-.37-22.05,4.41-22.24,10.63-.19,6.22-.26,11.3-.15,11.29h.1s-2.05,56.94-2.05,56.94l-9.5,307.59c-.37,12.04,9.17,22.19,21.22,22.56l277.25,8.56c12.04.37,22.19-9.17,22.57-21.21l9.51-307.8,2.1-67.92c.19-6.27-9.5-11.71-21.54-12.09Z"/>
        <path class="cls-5" d="m359.64,36.74L84.59.81c-11.94-1.56-22.37,2.21-23.18,8.38-.81,6.17-1.38,11.22-1.27,11.22h.1s-7.67,56.47-7.67,56.47L12.72,382.03c-1.56,11.95,6.93,22.99,18.88,24.55l275.05,35.92c11.94,1.56,22.99-6.94,24.55-18.88l39.88-305.35,8.8-67.38c.81-6.22-8.3-12.59-20.24-14.16Z"/>
        <g>
          <path class="cls-11" d="m257.49,109.56c-3.18,10.82-14.06,15.83-24.34,12.63-55.93-17.67-114.09-5.3-157.98,33.62-8.08,7.11-20.07,6.96-27.37-1.62-14.67-17.88-29.35-35.75-44.02-53.62C-3.51,92.01-.08,74.22,12.55,63.05,79.24,3.93,167.6-14.86,252.58,11.98c16.08,5.06,26.46,19.91,23.28,30.68-6.12,22.3-12.25,44.6-18.37,66.9Z"/>
          <path class="cls-10" d="m146.15,97.04c-7.22,1.54-14.25-2.66-15.67-9.35l-2.61-12.29-11.84,2.52c-7.08,1.5-14.07-3.03-15.57-10.11-1.5-7.08,3.03-14.07,10.11-15.57l11.84-2.52-2.62-12.29c-1.43-6.69,3.29-13.39,10.51-14.93,7.22-1.54,14.25,2.66,15.68,9.35l2.62,12.29,11.84-2.52c7.08-1.51,14.07,3.03,15.57,10.11,1.51,7.08-3.03,14.07-10.11,15.57l-11.84,2.52,2.62,12.29c1.42,6.69-3.29,13.39-10.51,14.92Z"/>
        </g>
        <g>
          <g>
            <path class="cls-2" d="m306.43,239.61c-4.3,34.17-33.13,58.69-64.38,54.75-31.26-3.93-53.11-34.82-48.81-68.99,4.3-34.17,33.12-58.69,64.38-54.75,31.26,3.94,53.11,34.83,48.81,69Z"/>
            <path class="cls-9" d="m240.1,235.98c-2.85,22.6,13.5,43.27,36.5,46.17,2.11.27,4.21.37,6.28.33,12.42-9.9,21.31-25.07,23.55-42.86,1.56-12.35-.32-24.27-4.81-34.65-4.45-2.37-9.4-4-14.72-4.67-23-2.89-43.96,13.08-46.8,35.68Z"/>
          </g>
          <g>
            <path class="cls-2" d="m182.56,224.02c-4.3,34.17-33.13,58.68-64.38,54.75-31.25-3.93-53.11-34.82-48.81-69,4.3-34.17,33.12-58.68,64.38-54.75,31.26,3.94,53.11,34.83,48.81,69Z"/>
            <path class="cls-9" d="m116.23,220.39c-2.84,22.6,13.5,43.27,36.5,46.16,2.11.27,4.21.37,6.28.33,12.42-9.9,21.32-25.06,23.55-42.86,1.56-12.35-.32-24.27-4.81-34.65-4.45-2.37-9.4-4-14.72-4.67-23-2.89-43.95,13.08-46.8,35.68Z"/>
          </g>
          <path class="cls-9" d="m157.24,276.19c-3.85,30.61,3.2,56.71,15.74,58.29,12.55,1.58,25.84-21.96,29.7-52.57l-45.44-5.72Z"/>
          <path class="cls-4" d="m172.99,334.48c8.41,1.06,17.15-9.17,23.16-25.24l-39.35-4.95c1.84,17.06,7.78,29.13,16.18,30.19Z"/>
        </g>
        <g>
          <path class="cls-7" d="m504.26,148.6c-4.52-9.81-11.39-18.29-18.26-26.53-5.31-6.38-12.07-17.7-21.5-17.7-2.11,0-4.15.65-6.07,1.93-4.61,3.08-7.81,6.19-9.78,9.51-4.17,7.02-2.43,13.5,4.89,18.27,1.79,1.17,3.67,2.16,5.49,3.12,5.34,2.83,11.47,6.16,15.5,10.78,7.86,9.02,11.8,20.06,11.7,32.82-.28,35.1-12.66,66.28-36.81,92.67-14.19,15.51-37.39,25.15-60.56,25.15-22.3,0-41.01-8.51-52.7-23.96-8.32-11.01-13.46-23.88-14.85-37.23-2.46-23.59,1.5-48.01,12.09-74.65,3.79-9.53,9.09-21.78,16.49-32.07,5.94-8.26,14.88-13.54,24.54-16.33,6.81-1.97,13.97-3.53,21.1-3.08,7.11.45,13.32,4.53,20.46,4.53,8.93,0,14.98-5.95,16.61-16.33.2-1.25.27-2.35.2-3.38-.16-2.72-1.17-5.3-2.6-7.59-1.38-2.2-3.06-4.45-5.66-5.22-4.25-1.24-9.37-.21-13.66.42-2.73.4-5.46.94-8.1,1.46-6.05,1.19-12.37,1.44-18.47,2.38-5.42.83-10.83,1.86-16.1,3.39-10,2.89-19.56,7.53-27.61,14.17-4.33,3.57-8.6,7.73-12.06,12.16-9.03,11.55-14.51,25.14-19.34,38.06-12.51,33.46-16.47,61.69-12.46,88.84,2.96,20.06,10.07,36.12,21.73,49.12,7.1,7.92,15.95,13.35,24.49,18.6,1.85,1.13,3.75,2.3,5.6,3.47,5.19,3.29-.05,12.51-.27,12.91-5.31,9.18-16.68,10.02-25.9,12.49-11.22,3-22.13,7.67-31.24,14.99-11.42,9.17-17.56,23.12-16.85,38.27.78,16.58,9.37,31.84,22.99,40.83,21.57,14.24,46.01,21.77,70.67,21.77,21.83,0,45.97-5.35,63.86-18.4,8.84-6.45,16.03-12.15,26.51-15.38-7.58-9-20.33-16-29.93-23.24-.31,14-12.68,21.18-24.74,26.36-17.35,7.45-37.3,8.07-55.62,4.27-8.4-1.74-36.58-8.68-46.45-24.75-3.43-5.58-4.25-11.81-2.43-18.5,6.08-22.41,35.39-20.77,52.7-28.15,6.8-2.9,13.07-7.29,17.62-13.17,4.22-5.46,5.59-15.6,11.55-19.29,4.85-3,11.76-2.12,17.2-2.37,23.06-1.08,43.6-10.15,60.95-25.31,15.59-13.63,28.55-31.65,37.5-52.13,4.77-10.93,8.75-23.02,11.83-35.92,5.58-23.39,4.18-43.68-4.27-62.05Z"/>
          <path class="cls-9" d="m433.9,107.79c-4.47,10.01-15.62,14.76-24.89,10.62-9.28-4.14-13.17-15.62-8.7-25.63,4.47-10.01,15.62-14.76,24.89-10.62,9.28,4.15,13.17,15.62,8.7,25.63Z"/>
          <path class="cls-9" d="m476.44,126.07c-4.44,9.94-15.51,14.67-24.73,10.55-9.22-4.12-13.08-15.52-8.64-25.46,4.44-9.94,15.52-14.67,24.73-10.55,9.22,4.12,13.09,15.52,8.64,25.46Z"/>
          <path class="cls-8" d="m446.73,412.44c-6.08-4.49-12.72-8.62-18.3-12.83-.31,14-12.68,21.18-24.74,26.36-17.35,7.45-37.3,8.07-55.62,4.27-8.4-1.74-36.58-8.68-46.45-24.75-3.43-5.58-4.25-11.81-2.43-18.5,6.08-22.41,35.39-20.77,52.7-28.15,6.38-2.72,12.28-6.74,16.75-12.08l-28.19-11.26c-5.48,2.79-12.18,3.7-18.03,5.27-11.22,3-22.13,7.67-31.24,14.99-11.42,9.17-17.56,23.12-16.85,38.27.78,16.58,9.37,31.84,22.99,40.83,21.57,14.24,46.01,21.77,70.67,21.77,21.83,0,45.97-5.35,63.86-18.4,8.73-6.37,15.86-12,26.12-15.25l-11.24-10.54Z"/>
          <path class="cls-6" d="m497.31,396.03c0,19.85-16.09,35.95-35.95,35.95s-35.95-16.09-35.95-35.95,16.09-35.95,35.95-35.95,35.95,16.09,35.95,35.95Z"/>
          <path class="cls-4" d="m478.86,396.03c0,9.66-7.83,17.49-17.5,17.49s-17.49-7.83-17.49-17.49,7.83-17.5,17.49-17.5,17.5,7.83,17.5,17.5Z"/>
          <path class="cls-9" d="m346.76,285.35c-2.33,7.64-3.15,17.16-11.04,22.01,2.42,1.56,4.85,3.06,7.27,4.55,1.85,1.13,3.75,2.3,5.6,3.47,5.19,3.29-.05,12.51-.27,12.91-3.07,5.3-8.15,7.82-13.68,9.48.23,1.69.74,3.44,1.65,5.27,2.06,5.66,9.11,11.94,16.43,15.44,6.48-2.9,12.43-7.16,16.8-12.81,4.22-5.46,5.59-15.6,11.55-19.29,3.75-2.32,8.75-2.32,13.34-2.32,2-2.94,3.45-6.42,3.79-11.56.65-5.37.41-10.14-.61-14.34-2.89.3-5.8.45-8.71.45-16.45,0-30.95-4.64-42.11-13.27Z"/>
        </g>
      </g>
      <g>
        <g>
          <path class="cls-2" d="m58.56,242.12c1.73-8.29-11.12-10.97-12.85-2.68-1.73,8.29,11.12,10.97,12.85,2.68Z"/>
          <path class="cls-2" d="m45.83,341.52c3.4-25.04,6.26-50.15,9.66-75.2,1.11-8.19-11.6-9.92-12.71-1.73-3.4,25.04-6.26,50.15-9.66,75.19-1.11,8.2,11.6,9.93,12.71,1.73Z"/>
          <path class="cls-2" d="m42.82,366.77c1.69-8.1-10.86-10.71-12.55-2.62-1.69,8.1,10.87,10.72,12.55,2.62Z"/>
        </g>
        <g>
          <path class="cls-2" d="m424.46,143.99c1.1-8.4-11.92-10.1-13.02-1.7-1.1,8.4,11.92,10.1,13.02,1.7Z"/>
          <path class="cls-2" d="m419.32,244.07c1.48-25.23,2.43-50.48,3.92-75.71.48-8.25-12.32-9.01-12.8-.76-1.48,25.23-2.43,50.48-3.92,75.71-.48,8.26,12.32,9.02,12.8.76Z"/>
          <path class="cls-2" d="m418.23,269.48c1.07-8.2-11.64-9.86-12.72-1.66-1.07,8.2,11.65,9.86,12.72,1.66Z"/>
        </g>
        <path class="cls-11" d="m92.33,343.1c.07-1.36,7.64-2.25,11.81-3.36-1.64-4.09-5.49-10.78-4.37-11.56.95-.66,4.94,3.16,8.22,5.93.99-4.33,2.22-10.12,3.42-10.05,1.35.07,2.65,7.42,3.58,11.68,4.06-1.83,10.74-5.23,11.52-4.12.68.98-3.14,5.38-5.97,8.7,4.25.99,9.71,1.89,9.65,3.04-.07,1.36-7.71,2.23-11.85,3.36,1.62,4.09,5.51,10.78,4.39,11.56-.94.65-4.88-3.14-8.16-5.9-.99,4.33-2.23,10.08-3.42,10.02-1.35-.07-2.63-7.4-3.57-11.66-4.06,1.82-10.79,5.25-11.57,4.13-.68-.98,3.16-5.38,5.99-8.71-4.25-.99-9.73-1.92-9.67-3.07Z"/>
        <path class="cls-1" d="m294.84,84.09c-.7-.66-2.17-10.04-3.42-9.96-1.26.09-2.29,9.41-2.87,10.03-1.17,1.24-9.83,2.18-9.75,3.37.08,1.19,8.59,1.68,9.8,2.84.68.64,2.16,10.05,3.43,9.97,1.26-.08,2.26-9.38,2.87-10.02,1.13-1.2,9.85-2.19,9.77-3.38-.08-1.2-8.67-1.73-9.83-2.84Z"/>
        <path class="cls-1" d="m369.7,387.04c-.7-.66-2.16-10.04-3.42-9.96-1.26.09-2.29,9.41-2.87,10.03-1.17,1.24-9.83,2.18-9.75,3.37.08,1.19,8.59,1.68,9.8,2.84.68.64,2.16,10.05,3.42,9.97,1.26-.08,2.27-9.38,2.87-10.02,1.13-1.2,9.86-2.19,9.77-3.38-.08-1.2-8.67-1.73-9.83-2.84Z"/>
        <path class="cls-3" d="m236.98,55.82c-.7-.67-2.16-10.05-3.43-9.96-1.26.09-2.29,9.41-2.87,10.03-1.17,1.24-9.83,2.18-9.75,3.38.08,1.19,8.59,1.68,9.8,2.84.68.64,2.16,10.05,3.42,9.97,1.26-.08,2.26-9.38,2.87-10.02,1.13-1.2,9.85-2.19,9.77-3.38-.08-1.2-8.66-1.73-9.83-2.84Z"/>
        <path class="cls-3" d="m163.33,378.07c-.7-.66-2.16-10.05-3.42-9.96-1.26.09-2.29,9.41-2.87,10.03-1.17,1.24-9.82,2.18-9.75,3.38.08,1.19,8.59,1.68,9.8,2.84.68.64,2.16,10.05,3.42,9.97,1.26-.08,2.26-9.39,2.87-10.02,1.13-1.2,9.85-2.19,9.77-3.38-.08-1.2-8.66-1.73-9.83-2.84Z"/>
        <path class="cls-1" d="m207.43,78.91c.02,2.62-2.08,4.76-4.7,4.78-2.62.02-4.76-2.08-4.78-4.7-.02-2.62,2.08-4.76,4.7-4.78,2.62-.02,4.76,2.08,4.78,4.7Z"/>
        <path class="cls-1" d="m90.94,103.34c.02,2.62-2.08,4.76-4.7,4.78-2.62.02-4.76-2.08-4.78-4.7-.02-2.62,2.09-4.75,4.7-4.78,2.62-.02,4.76,2.09,4.78,4.7Z"/>
        <path class="cls-1" d="m43.92,82.69c.02,2.62-2.08,4.76-4.7,4.78-2.62.02-4.76-2.08-4.78-4.7-.02-2.62,2.08-4.75,4.7-4.78,2.62-.02,4.75,2.08,4.78,4.7Z"/>
        <path class="cls-1" d="m201.24,27.55c.02,2.62-2.09,4.76-4.7,4.78-2.62.02-4.76-2.08-4.78-4.7-.02-2.62,2.08-4.76,4.7-4.78,2.62-.02,4.76,2.08,4.78,4.7Z"/>
        <path class="cls-1" d="m200.97,133.22c.02,2.62-2.08,4.76-4.7,4.78-2.62.02-4.76-2.08-4.78-4.7-.02-2.62,2.09-4.76,4.7-4.78,2.62-.02,4.76,2.08,4.78,4.7Z"/>
        <path class="cls-1" d="m288.28,143.1c.02,2.62-2.08,4.76-4.7,4.78-2.62.02-4.76-2.08-4.78-4.7-.02-2.62,2.09-4.76,4.7-4.78,2.62-.02,4.76,2.08,4.78,4.7Z"/>
        <path class="cls-1" d="m347.21,74.09c.02,2.62-2.08,4.76-4.7,4.78-2.62.02-4.76-2.08-4.78-4.7-.02-2.62,2.09-4.76,4.7-4.78,2.62-.02,4.76,2.08,4.78,4.7Z"/>
        <path class="cls-1" d="m342.46,127.26c.02,2.62-2.08,4.76-4.7,4.78-2.62.02-4.76-2.08-4.78-4.7-.02-2.62,2.08-4.76,4.7-4.78,2.62-.02,4.76,2.08,4.78,4.7Z"/>
        <path class="cls-1" d="m316.45,184.33c.02,2.62-2.08,4.76-4.7,4.78-2.62.02-4.76-2.08-4.78-4.7-.02-2.62,2.08-4.76,4.7-4.78,2.62-.02,4.76,2.08,4.78,4.7Z"/>
        <path class="cls-1" d="m301.22,305.72c.02,2.62-2.08,4.76-4.7,4.78-2.62.02-4.76-2.08-4.78-4.7-.02-2.62,2.08-4.76,4.7-4.78,2.62-.02,4.76,2.08,4.78,4.7Z"/>
        <path class="cls-1" d="m230.42,346.83c.02,2.62-2.08,4.76-4.7,4.78-2.62.02-4.76-2.08-4.78-4.7-.02-2.62,2.09-4.76,4.7-4.78,2.62-.02,4.76,2.08,4.78,4.7Z"/>
        <path class="cls-1" d="m244.52,400.96c.02,2.62-2.08,4.76-4.7,4.78-2.62.02-4.76-2.08-4.78-4.7-.02-2.62,2.08-4.76,4.7-4.78,2.62-.02,4.76,2.08,4.78,4.7Z"/>
        <path class="cls-1" d="m86.21,383.52c.02,2.62-2.08,4.76-4.7,4.78-2.62.02-4.76-2.08-4.78-4.7-.02-2.62,2.08-4.76,4.7-4.78,2.62-.02,4.75,2.08,4.78,4.7Z"/>
        <path class="cls-1" d="m81.47,295.74c.02,2.62-2.08,4.76-4.7,4.78-2.62.02-4.76-2.08-4.78-4.7-.02-2.62,2.08-4.75,4.7-4.78,2.62-.02,4.76,2.09,4.78,4.7Z"/>
        <path class="cls-1" d="m56.88,197.43c.02,2.62-2.08,4.76-4.7,4.78-2.62.02-4.76-2.08-4.78-4.7-.02-2.62,2.08-4.76,4.7-4.78,2.62-.02,4.76,2.08,4.78,4.7Z"/>
        <path class="cls-1" d="m154.25,133.22c.02,2.62-2.08,4.76-4.7,4.78-2.62.02-4.76-2.08-4.78-4.7-.02-2.62,2.08-4.76,4.7-4.78,2.62-.02,4.76,2.08,4.78,4.7Z"/>
        <path class="cls-1" d="m238.62,103.34c.02,2.62-2.08,4.76-4.7,4.78-2.62.02-4.76-2.08-4.78-4.7-.02-2.62,2.09-4.75,4.7-4.78,2.62-.02,4.76,2.09,4.78,4.7Z"/>
        <path class="cls-1" d="m220.94,165.2c.02,2.62-2.08,4.76-4.7,4.78-2.62.02-4.76-2.09-4.78-4.7-.02-2.62,2.09-4.76,4.7-4.78,2.62-.02,4.76,2.08,4.78,4.7Z"/>
        <path class="cls-1" d="m351.95,204.83c.02,2.62-2.08,4.76-4.7,4.78-2.62.02-4.76-2.08-4.78-4.7-.02-2.62,2.09-4.76,4.7-4.78,2.62-.02,4.76,2.09,4.78,4.7Z"/>
        <path class="cls-1" d="m384.67,247.12c.02,2.62-2.08,4.76-4.7,4.78-2.62.02-4.76-2.08-4.78-4.7-.02-2.62,2.08-4.76,4.7-4.78,2.62-.02,4.76,2.08,4.78,4.7Z"/>
        <path class="cls-1" d="m389.41,160.46c.02,2.62-2.08,4.76-4.7,4.78-2.62.02-4.76-2.08-4.78-4.7-.02-2.62,2.09-4.76,4.7-4.78,2.62-.02,4.76,2.09,4.78,4.7Z"/>
        <path class="cls-1" d="m466.1,278.55c.02,2.62-2.08,4.76-4.7,4.78-2.62.02-4.76-2.08-4.78-4.7-.02-2.62,2.09-4.75,4.7-4.78,2.62-.02,4.76,2.09,4.78,4.7Z"/>
        <path class="cls-1" d="m423.04,310.47c.02,2.62-2.08,4.76-4.7,4.78-2.62.02-4.76-2.08-4.78-4.7-.02-2.62,2.08-4.76,4.7-4.78,2.62-.02,4.76,2.08,4.78,4.7Z"/>
        <path class="cls-1" d="m321.19,270.27c.02,2.62-2.08,4.76-4.7,4.78-2.62.02-4.76-2.08-4.78-4.7-.02-2.62,2.09-4.76,4.7-4.78,2.62-.02,4.76,2.08,4.78,4.7Z"/>
        <path class="cls-1" d="m278.12,333.73c.02,2.62-2.08,4.76-4.7,4.78-2.62.02-4.76-2.08-4.78-4.7-.02-2.62,2.08-4.75,4.7-4.78,2.62-.02,4.76,2.08,4.78,4.7Z"/>
        <path class="cls-1" d="m296.48,377.04c.02,2.62-2.08,4.76-4.7,4.78-2.62.02-4.76-2.08-4.78-4.7-.02-2.62,2.08-4.76,4.7-4.78,2.62-.02,4.76,2.08,4.78,4.7Z"/>
        <path class="cls-1" d="m325.93,436.05c.02,2.62-2.08,4.76-4.7,4.78-2.62.02-4.76-2.08-4.78-4.7-.02-2.62,2.09-4.75,4.7-4.78,2.62-.02,4.76,2.08,4.78,4.7Z"/>
        <path class="cls-1" d="m397.81,440.79c.02,2.62-2.08,4.76-4.7,4.78-2.62.02-4.76-2.08-4.78-4.7-.02-2.62,2.09-4.76,4.7-4.78,2.62-.02,4.76,2.08,4.78,4.7Z"/>
        <path class="cls-1" d="m410.19,394.28c.02,2.62-2.08,4.76-4.7,4.78-2.62.02-4.76-2.09-4.78-4.7-.02-2.62,2.09-4.76,4.7-4.78,2.62-.02,4.76,2.08,4.78,4.7Z"/>
        <path class="cls-1" d="m410.19,351.57c.02,2.62-2.08,4.76-4.7,4.78-2.62.02-4.76-2.08-4.78-4.7-.02-2.62,2.09-4.76,4.7-4.78,2.62-.02,4.76,2.08,4.78,4.7Z"/>
        <path class="cls-1" d="m164.96,442.65c.02,2.62-2.08,4.76-4.7,4.78-2.62.02-4.76-2.08-4.78-4.7-.02-2.62,2.08-4.75,4.7-4.78,2.62-.02,4.76,2.08,4.78,4.7Z"/>
        <path class="cls-1" d="m244.52,447.39c.02,2.62-2.08,4.76-4.7,4.78-2.62.02-4.76-2.08-4.78-4.7-.02-2.62,2.08-4.76,4.7-4.78,2.62-.02,4.76,2.09,4.78,4.7Z"/>
      </g>
    </g>
  </g>
</svg>