<svg width="250" height="290" viewBox="0 0 297 307" fill="none" xmlns="http://www.w3.org/2000/svg">
<g clip-path="url(#clip0_500_65)">
<path d="M1.63477 117.003L184.483 106.628L262.508 153.948L61.0989 178.726L26.6866 154.699L1.63477 117.003Z" fill="#080367" stroke="#2A0073" stroke-miterlimit="10"/>
<path d="M81.1174 163.827L81.0854 163.06C80.7007 150.846 95.719 141.478 96.3601 141.079L96.5364 140.967L132.648 139.192L140.261 163.811H81.1174V163.827Z" fill="#FFFBFF"/>
<path d="M132.071 140.024L139.188 163.028H81.9033C81.5346 151.134 96.7933 141.75 96.7933 141.75L132.071 140.024ZM133.225 138.377L131.991 138.441L96.7132 140.167H96.2965L95.9439 140.407C95.2867 140.807 79.8998 150.415 80.2844 163.076L80.3325 164.61H141.335L140.694 162.548L133.578 139.544L133.209 138.361L133.225 138.377Z" fill="#2A0073"/>
<path d="M86.6791 67.3661C85.2045 67.3661 82.2874 66.8865 79.3222 63.7212C75.8441 60.0124 73.2315 53.6659 71.5486 44.8574C68.8559 30.6297 73.7765 19.5832 76.934 14.2597C81.6463 6.33056 88.5704 0.799316 93.7635 0.799316C94.2764 0.799316 94.7893 0.847275 95.2541 0.959179C104.486 3.08535 109.888 31.1892 110.112 32.3722L110.176 32.6759L88.4903 67.0783L88.2017 67.1583C88.2017 67.1583 87.5767 67.3341 86.6951 67.3341L86.6791 67.3661Z" fill="#F37751"/>
<path d="M93.7643 1.59863C94.213 1.59863 94.6618 1.64658 95.0786 1.7425C103.91 3.77276 109.328 32.532 109.328 32.532L87.9621 66.4229C87.9621 66.4229 87.4813 66.5668 86.6799 66.5668C85.1893 66.5668 82.6087 66.0552 79.916 63.1777C77.1432 60.2202 74.2581 54.7369 72.3508 44.7135C70.1389 33.0116 73.0239 22.4287 77.64 14.6754C82.4324 6.60232 89.068 1.59863 93.7643 1.59863ZM93.7643 0C88.2186 0 81.1822 5.56322 76.2616 13.8601C73.04 19.2794 68.0392 30.5178 70.78 45.0013C72.479 53.9536 75.1717 60.444 78.746 64.2647C81.9195 67.6538 85.0771 68.1654 86.6799 68.1654C87.6736 68.1654 88.3147 67.9895 88.4269 67.9416L88.9879 67.7657L89.3085 67.2702L110.674 33.3793L111.01 32.8517L110.898 32.2443C110.321 29.1909 105.016 2.39794 95.4312 0.191835C94.9023 0.063945 94.3413 0 93.7643 0Z" fill="#2A0073"/>
<path d="M102.145 40.0296L89.5151 66.4548C89.5151 66.4548 87.2071 67.382 84.7548 63.929C83.1199 61.627 81.4049 57.3427 80.2829 49.5254C78.9686 40.3972 80.6836 32.1483 83.4084 26.1055C86.5179 19.1995 90.9416 15.1709 93.7145 16.0182C98.9396 17.6008 102.129 40.0296 102.129 40.0296H102.145Z" fill="#FF5782" stroke="#2A0073" stroke-width="0.95" stroke-miterlimit="10"/>
<g style="mix-blend-mode:multiply" opacity="0.74">
<path d="M109.311 32.532L87.9451 66.4229C87.9451 66.4229 84.0503 67.6219 79.899 63.1777C79.8029 60.0124 80.2997 56.6873 80.8767 53.6339C81.8545 48.5183 82.8322 43.4027 83.8099 38.2711C84.6273 34.0507 85.4287 29.7504 84.8677 25.4981C84.2907 21.2298 82.0949 16.9614 78.2802 14.9791C78.0718 14.8672 77.8474 14.7713 77.623 14.6754C82.8803 5.81901 90.3654 0.655453 95.0616 1.74252C103.893 3.77277 109.311 32.532 109.311 32.532Z" fill="#F3CCA3"/>
</g>
<path d="M195.447 54.5451C191.472 54.5451 187.706 52.2751 184.244 47.8149C178.762 40.781 175.893 30.7896 175.765 30.3739L175.717 30.1821L175.765 29.9902C175.893 29.4147 178.906 15.6346 185.622 7.7214C188.683 4.12449 192.049 2.28607 195.624 2.28607C202.179 2.28607 206.411 11.4142 208.174 19.9669C210.946 33.3474 209.039 49.6693 200.031 53.554C198.493 54.2094 196.954 54.5451 195.447 54.5451Z" fill="#FFFBFF"/>
<path d="M195.607 3.08538C208.862 3.08538 214.632 46.3921 199.71 52.8186C198.219 53.4581 196.809 53.7458 195.446 53.7458C191.247 53.7458 187.705 50.9642 184.868 47.3193C179.418 40.3333 176.533 30.1501 176.533 30.1501C176.533 30.1501 179.563 16.0822 186.214 8.23295C188.795 5.19556 191.904 3.08538 195.607 3.08538ZM195.607 1.48675C191.792 1.48675 188.218 3.4051 184.996 7.19384C178.168 15.2509 175.107 29.2229 174.979 29.7984L174.898 30.1821L175.011 30.5657C175.139 30.9974 178.04 41.1327 183.618 48.2785C187.24 52.9465 191.231 55.3125 195.462 55.3125C197.081 55.3125 198.716 54.9608 200.351 54.2574C209.743 50.2129 211.795 33.4752 208.958 19.791C206.586 8.32887 201.601 1.47076 195.623 1.47076L195.607 1.48675Z" fill="#2A0073"/>
<path d="M198.026 53.0104C194.339 55.1046 191.326 52.4669 189.066 48.6302C185.78 43.051 184.033 34.9299 184.033 34.9299C184.033 34.9299 185.86 23.7076 189.883 17.441C191.438 15.0111 193.313 13.3325 195.557 13.3325C203.571 13.3325 207.049 47.8788 198.042 53.0104H198.026Z" fill="#FF5782" stroke="#2A0073" stroke-width="0.95" stroke-miterlimit="10"/>
<g style="mix-blend-mode:multiply" opacity="0.74">
<path d="M199.709 52.8186C193.602 55.4403 188.618 52.1471 184.867 47.3193C184.899 47.1115 184.931 46.9036 184.979 46.6958C185.973 41.9959 187.945 37.5517 189.051 32.8837C190.525 26.6331 190.413 20.0148 188.73 13.8281C188.185 11.8618 187.432 9.84751 186.214 8.2329C188.794 5.19551 191.904 3.08533 195.606 3.08533C208.861 3.08533 214.631 46.3921 199.709 52.8186Z" fill="#F3CCA3"/>
</g>
<path d="M146.287 161.173C116.314 161.173 96.0547 152.637 82.527 134.301C76.8371 126.627 73.1827 117.467 71.6921 107.092C67.06 74.7357 80.9403 46.9996 94.2436 33.0756C100.735 26.2494 110.608 20.8301 122.052 17.8247C129.297 15.9063 137.135 14.9312 145.341 14.9312C147.345 14.9312 149.412 14.9951 151.464 15.107C156.641 15.4107 161.93 16.0822 167.219 17.1053C204.677 24.3471 210.351 75.7269 210.719 79.5796C212.675 82.3452 232.149 110.817 223.013 133.293C218.012 145.587 205.318 153.66 185.267 157.273C177.349 158.696 169.896 159.735 163.132 160.358C157.25 160.902 151.576 161.189 146.287 161.189V161.173Z" fill="#FFFBFF"/>
<path d="M145.341 15.7305C147.328 15.7305 149.348 15.7944 151.416 15.9063C156.4 16.1941 161.625 16.8335 167.059 17.8886C205.639 25.3542 209.934 79.8673 209.934 79.8673C209.934 79.8673 255.887 143.748 185.123 156.489C177.205 157.912 169.864 158.935 163.052 159.559C157.057 160.118 151.48 160.39 146.271 160.39C112.147 160.39 94.3237 148.96 83.1681 133.837C77.1897 125.78 73.8398 116.444 72.4774 106.98C67.7491 73.9684 82.511 46.504 94.8205 33.6191C100.879 27.2406 110.24 21.7413 122.261 18.592C129.121 16.7856 136.846 15.7305 145.341 15.7305ZM145.341 14.1318C137.07 14.1318 129.169 15.107 121.86 17.0413C110.272 20.0787 100.27 25.578 93.6665 32.516C80.251 46.5679 66.2265 74.5599 70.9067 107.204C72.4133 117.723 76.1158 126.995 81.9019 134.78C95.5899 153.324 116.042 161.973 146.287 161.973C151.592 161.973 157.298 161.701 163.212 161.141C170.008 160.518 177.477 159.479 185.411 158.056C205.751 154.395 218.637 146.162 223.75 133.597C232.87 111.152 214.053 82.9846 211.489 79.3078C211.248 76.7979 209.838 64.4246 204.452 51.0921C196.519 31.5089 183.696 19.5032 167.38 16.3379C162.058 15.2988 156.721 14.6274 151.528 14.3237C149.46 14.2118 147.393 14.1478 145.357 14.1478L145.341 14.1318Z" fill="#2A0073"/>
<path d="M95.7197 136.267C91.2639 136.187 87.0485 135.643 83.2018 134.652L82.9293 134.588L82.5446 134.317C76.8386 126.643 73.2003 117.483 71.7096 107.092C67.0775 74.7357 80.9578 46.9836 94.2611 33.0596C100.432 26.5692 109.311 21.5015 119.938 18.4002C120.643 18.1924 121.349 18.0005 122.07 17.8087L122.326 17.7448L122.567 17.8407C134.251 22.3648 144.365 30.5817 151.081 41.0047C160.585 55.792 163.118 74.7357 157.86 91.7131C152.715 108.403 140.053 122.806 124.009 130.256C115.546 134.205 106.122 136.283 96.7775 136.283C96.4249 136.283 96.0723 136.283 95.7197 136.283V136.267Z" fill="#F37751"/>
<path d="M122.277 18.592C133.721 23.0202 143.755 31.1092 150.407 41.4364C159.799 56.0478 162.235 74.8796 157.09 91.4733C151.977 108.051 139.459 122.199 123.672 129.521C115.273 133.437 106.025 135.484 96.7767 135.484C96.4241 135.484 96.0875 135.484 95.7349 135.484C91.5676 135.404 87.4163 134.924 83.3933 133.901C83.3292 133.901 83.249 133.869 83.1849 133.853C77.2064 125.796 73.8566 116.46 72.4942 106.996C67.7659 73.9844 82.5278 46.52 94.8373 33.6351C100.543 27.6402 109.15 22.4127 120.162 19.1995C120.867 18.9917 121.556 18.7998 122.277 18.608M122.374 16.9294L121.861 17.0573C121.123 17.2492 120.418 17.441 119.697 17.6648C108.942 20.7981 99.9342 25.9457 93.6673 32.532C80.2357 46.5839 66.2272 74.5759 70.9074 107.22C72.4141 117.739 76.1165 127.011 81.9027 134.796L82.2393 135.26L82.8002 135.404L82.9445 135.436C86.9194 136.443 91.1989 136.986 95.7028 137.082C96.0715 137.082 96.4241 137.082 96.7767 137.082C106.233 137.082 115.77 134.972 124.345 130.975C140.597 123.446 153.404 108.85 158.613 91.9529C163.934 74.7677 161.37 55.5682 151.753 40.5891C144.957 30.0382 134.683 21.6933 122.854 17.1213L122.374 16.9294Z" fill="#2A0073"/>
<path d="M136.606 113.598C136.606 119.05 130.291 123.462 122.501 123.462C114.712 123.462 108.396 119.05 108.396 113.598C108.396 108.147 114.712 103.735 122.501 103.735C130.291 103.735 136.606 108.147 136.606 113.598Z" fill="#FF5782" stroke="#2A0073" stroke-miterlimit="10"/>
<path d="M223.126 108.563C223.126 114.014 217.404 118.426 210.335 118.426C203.267 118.426 197.545 114.014 197.545 108.563C197.545 103.111 203.267 98.6992 210.335 98.6992C217.404 98.6992 223.126 103.111 223.126 108.563Z" fill="#FF5782" stroke="#2A0073" stroke-width="0.95" stroke-miterlimit="10"/>
<path d="M152.555 93.1199C150.647 99.4825 145.006 103.431 139.941 101.912C134.876 100.41 132.311 94.0152 134.219 87.6526C136.126 81.2901 141.768 77.3415 146.833 78.8602C151.898 80.3629 154.462 86.7574 152.555 93.1199Z" fill="#080367"/>
<path d="M145.439 86.4057C147.015 86.4057 148.292 85.1317 148.292 83.5602C148.292 81.9886 147.015 80.7146 145.439 80.7146C143.863 80.7146 142.586 81.9886 142.586 83.5602C142.586 85.1317 143.863 86.4057 145.439 86.4057Z" fill="#FFFBFF"/>
<path d="M203.909 84.8071C206.105 91.0417 203.861 97.4842 198.908 99.2267C193.956 100.953 188.17 97.3083 185.974 91.0897C183.778 84.855 186.022 78.4126 190.974 76.6701C195.927 74.9436 201.713 78.5884 203.909 84.8071Z" fill="#080367"/>
<path d="M195.574 81.1942C195.334 82.7448 193.875 83.7839 192.32 83.5441C190.766 83.3044 189.724 81.8496 189.964 80.2989C190.205 78.7643 191.663 77.7092 193.218 77.949C194.757 78.1888 195.814 79.6435 195.574 81.1942Z" fill="#FFFBFF"/>
<g style="mix-blend-mode:multiply" opacity="0.41">
<path d="M184.29 119.066C181.261 118.986 178.376 116.923 177.318 114.094C174.385 118.138 169.448 120.648 164.463 120.632C159.463 120.632 154.542 118.09 151.625 114.046C152.33 119.657 156.786 124.613 162.3 125.924C167.813 127.235 174.032 124.853 177.222 120.169C179.177 123.046 183.184 124.341 186.454 123.126C188.618 122.327 193.17 117.883 191.166 115.405C189.291 117.451 187.287 119.146 184.29 119.066Z" fill="#F3CCA3"/>
</g>
<path d="M151.015 113.774C151.159 113.742 151.416 114.494 152.025 115.741C152.634 116.987 153.596 118.778 155.311 120.536C156.994 122.279 159.494 123.926 162.62 124.581C165.697 125.284 169.367 124.757 172.317 122.631C173.102 122.071 173.807 121.416 174.416 120.696L174.849 120.153L175.041 119.865L175.153 119.705C175.234 119.577 175.298 119.481 175.362 119.369C175.875 118.458 176.356 117.547 176.804 116.668C177.125 117.451 177.462 118.218 177.83 119.002C177.91 119.194 178.006 119.385 178.103 119.561L178.327 119.897C178.423 120.041 178.519 120.169 178.632 120.297C179.048 120.824 179.545 121.288 180.074 121.655C181.148 122.407 182.366 122.854 183.552 122.982C185.94 123.254 187.992 122.071 189.194 120.728C190.444 119.369 190.941 117.915 191.166 116.908C191.374 115.9 191.358 115.293 191.486 115.277C191.582 115.277 191.823 115.836 191.807 116.971C191.775 118.091 191.406 119.801 190.108 121.48C189.467 122.311 188.585 123.11 187.447 123.718C186.325 124.325 184.899 124.661 183.424 124.565C181.949 124.469 180.427 123.989 179.08 123.094C178.407 122.647 177.766 122.087 177.221 121.448C177.077 121.288 176.949 121.128 176.82 120.936C176.756 120.84 176.692 120.744 176.708 120.792L176.692 120.776V120.808L176.596 120.952L176.372 121.288L175.875 121.927C175.17 122.774 174.352 123.526 173.438 124.181C170.041 126.643 165.697 127.203 162.267 126.291C158.773 125.46 156.064 123.478 154.365 121.448C152.634 119.417 151.801 117.403 151.384 116.028C150.967 114.637 150.951 113.822 151.063 113.79L151.015 113.774Z" fill="#2A0073"/>
<path d="M188.489 122.199C188.489 122.199 188.441 125.3 187.047 128.705C185.46 132.574 182.174 136.826 175.282 137.418C168.326 138.025 163.63 133.965 160.777 130.096C158.388 126.851 157.298 123.718 157.234 123.526C169.913 129.84 176.692 118.842 176.692 118.842C181.132 126.467 188.473 122.215 188.473 122.215L188.489 122.199Z" fill="#080367" stroke="#2A0073" stroke-miterlimit="10"/>
<path d="M179.289 141.35C175.635 142.342 172.381 141.462 169.673 139.816C164.127 136.507 160.793 130.096 160.793 130.096C160.793 130.096 164.912 126.899 170.394 126.467C171.9 126.339 173.519 126.435 175.186 126.851C175.186 126.851 182.383 124.549 187.047 128.705C187.047 128.705 190.413 138.361 179.289 141.335V141.35Z" fill="#FF5782" stroke="#2A0073" stroke-miterlimit="10"/>
<g style="mix-blend-mode:multiply" opacity="0.31">
<path d="M179.289 141.351C175.634 142.342 172.381 141.462 169.672 139.816C171.756 138.713 173.39 136.746 173.839 134.444C174.432 131.327 172.861 128.306 170.409 126.483C171.916 126.355 173.535 126.451 175.202 126.867C175.202 126.867 182.398 124.565 187.062 128.721C187.062 128.721 190.428 138.377 179.305 141.351H179.289Z" fill="#C94468"/>
</g>
<path d="M179.13 134.38C178.601 134.333 178.392 132.286 177.126 130.256C175.924 128.194 174.225 127.043 174.434 126.547C174.53 126.323 175.155 126.307 176.036 126.723C176.902 127.123 177.992 128.002 178.745 129.281C179.514 130.56 179.771 131.919 179.723 132.878C179.675 133.853 179.37 134.396 179.13 134.38Z" fill="#2A0073"/>
<path d="M189.13 114.701C189.371 114.238 190.477 114.286 191.438 113.806C192.432 113.375 193.105 112.511 193.618 112.623C193.859 112.687 194.019 113.103 193.843 113.71C193.682 114.302 193.137 115.085 192.224 115.517C191.31 115.932 190.365 115.852 189.804 115.581C189.227 115.309 189.018 114.925 189.114 114.701H189.13Z" fill="#2A0073"/>
<path d="M146.48 112.415C146.8 112 148.643 112.991 150.919 112.687C153.195 112.447 154.75 111.057 155.167 111.392C155.359 111.552 155.215 112.16 154.558 112.895C153.917 113.614 152.682 114.382 151.144 114.574C149.605 114.749 148.227 114.286 147.441 113.742C146.624 113.183 146.335 112.623 146.496 112.431L146.48 112.415Z" fill="#2A0073"/>
<path d="M163.614 102.76C163.838 107.412 169.961 112.08 177.238 111.744C184.514 111.408 190.188 106.197 189.964 101.545C189.739 96.8927 183.809 96.3492 176.532 96.6849C169.256 97.0206 163.389 98.1077 163.614 102.776V102.76Z" fill="#080367"/>
<path d="M171.996 100.09C172.028 100.697 174.737 101.049 178.055 100.905C181.373 100.745 184.049 100.138 184.017 99.5304C183.985 98.923 181.277 98.5713 177.959 98.7151C174.641 98.859 171.964 99.4825 171.996 100.09Z" fill="#FFFBFF"/>
<g style="mix-blend-mode:multiply" opacity="0.74">
<path d="M185.139 156.489C177.221 157.912 169.88 158.935 163.068 159.559C173.566 157.337 183.632 153.868 192.656 148.081C199.243 143.86 205.174 138.377 208.876 131.503C212.563 124.629 213.861 116.268 211.28 108.898C208.716 101.529 201.952 95.5019 194.162 94.8145C198.426 77.2456 195.172 57.9981 185.379 42.7952C180.074 34.5783 172.909 27.5923 164.639 22.3807C160.487 19.775 156.064 17.5849 151.432 15.9063C156.416 16.1941 161.642 16.8335 167.075 17.8886C205.655 25.3542 209.95 79.8673 209.95 79.8673C209.95 79.8673 255.903 143.748 185.139 156.489Z" fill="#F3CCA3"/>
</g>
<g style="mix-blend-mode:multiply" opacity="0.74">
<path d="M157.09 91.4734C151.977 108.051 139.459 122.199 123.671 129.521C114.952 133.581 105.335 135.627 95.7342 135.468C91.5669 135.388 87.4156 134.908 83.3926 133.885C95.9426 131.663 106.826 121.176 109.037 108.563C110.945 97.6121 107.322 84.919 114.279 76.2385C117.869 71.7623 123.591 69.4923 127.566 65.3199C133.48 59.1012 134.522 49.4615 132.39 41.1646C130.772 34.866 127.486 27.0488 122.982 22.2529C122.02 21.2298 120.994 20.2067 120.161 19.1835C120.866 18.9757 121.555 18.7839 122.277 18.592C133.721 23.0202 143.754 31.1093 150.406 41.4364C159.798 56.0478 162.235 74.8796 157.09 91.4734Z" fill="#F3CCA3"/>
</g>
<path d="M60.2178 303.387L54.3516 162.117L262.428 188.318V189.005C262.444 189.213 262.893 210.347 263.149 232.632C263.71 283.404 262.7 285.658 262.38 286.394C261.899 287.465 260.617 290.31 108.462 302.348C81.439 304.474 61.3558 305.977 61.1635 305.993L60.3461 306.057L60.2339 303.387H60.2178Z" fill="#F3BA51"/>
<path d="M55.2009 163.028L123.977 171.692L261.642 189.021C261.642 189.021 262.091 210.107 262.348 232.648C262.62 257.347 262.668 283.772 261.642 286.074C260.296 289.079 167.269 296.897 108.398 301.549C81.0702 303.707 61.0993 305.194 61.0993 305.194L61.0191 303.355L55.7138 175.353L55.3933 167.6L55.2009 163.028ZM53.518 161.205L53.5981 163.092L53.7905 167.664L54.111 175.417L59.4163 303.419L59.4964 305.257L59.5606 306.904L61.2114 306.776C61.4038 306.776 81.503 305.257 108.51 303.131C135.854 300.973 175.091 297.76 206.73 294.771C261.819 289.559 262.46 288.104 263.085 286.713C263.502 285.77 264.495 283.564 263.934 232.616C263.678 210.331 263.229 189.181 263.229 188.973L263.197 187.599L261.819 187.423L124.154 170.094L55.3772 161.429L53.502 161.189L53.518 161.205Z" fill="#2A0073"/>
<g style="mix-blend-mode:multiply" opacity="0.74">
<path d="M261.643 286.074C259.671 290.486 61.0997 305.194 61.0997 305.194L61.0195 303.355C61.4042 303.099 61.7889 302.86 62.1736 302.636C77.1277 293.587 91.8255 283.756 103.83 271.063C115.836 258.37 125.052 242.495 127.215 225.182C128.305 216.486 127.44 207.502 124.587 199.205C121.59 190.46 115.483 185.329 110.963 177.911C114.665 175.289 119.169 173.291 123.978 171.692L261.643 189.021C261.643 189.021 263.598 281.662 261.643 286.074Z" fill="#F3CCA3"/>
</g>
<g style="mix-blend-mode:multiply" opacity="0.74">
<path d="M262.348 232.648C232.872 235.014 107.292 245.133 105.577 245.469C103.734 245.837 60.8591 182.931 55.7141 175.353C55.3775 174.858 55.2012 174.602 55.2012 174.602V163.028L123.978 171.692L261.643 189.021C261.643 189.021 262.091 210.107 262.348 232.648Z" fill="#F3CCA3"/>
</g>
<path d="M54.2715 162.596L171.966 157.864L264.576 155.019L296.263 214.887L110.049 232.632L54.2715 162.596Z" fill="#F3BA51"/>
<path d="M264.303 155.482L295.542 214.503L113.784 231.817L110.257 232.152L55.2011 163.028L171.998 158.328L264.303 155.482ZM264.848 154.539H264.271L171.965 157.401L55.153 162.101L53.3418 162.18L54.4798 163.603L109.536 232.728L109.841 233.127L110.338 233.08L113.864 232.744L295.622 215.431L297 215.303L296.359 214.088L265.121 155.067L264.848 154.555V154.539Z" fill="#2A0073"/>
<g style="mix-blend-mode:multiply" opacity="0.74">
<path d="M294.036 214.504L112.277 231.817C131.639 226.669 150.184 218.468 166.981 207.582C175.764 201.906 184.804 194.233 185.622 183.826C186.551 171.932 177.736 167.136 171.18 159.271C170.924 158.967 170.7 158.648 170.491 158.328L262.492 154.699L294.036 214.504Z" fill="#F3CCA3"/>
</g>
<path d="M278.615 211.85C278.648 212.265 253.708 214.536 222.902 216.917C192.112 219.299 167.108 220.882 167.076 220.466C167.044 220.051 191.984 217.781 222.79 215.399C253.58 213.017 278.583 211.434 278.615 211.85Z" fill="#2A0073"/>
<path d="M102.483 167.536C102.483 167.952 95.3821 168.511 86.5827 168.767C77.7833 169.023 70.6508 168.895 70.6348 168.479C70.6348 168.063 77.7352 167.504 86.5346 167.248C95.334 166.992 102.466 167.12 102.483 167.536Z" fill="#2A0073"/>
<g style="mix-blend-mode:multiply" opacity="0.74">
<path d="M236.382 171.564C233.241 174.938 228.32 175.897 223.736 176.264C216.075 176.872 208.317 176.312 200.816 174.618C197.723 173.914 194.629 173.003 192.001 171.245C189.372 169.486 187.24 166.785 186.808 163.651C186.247 159.511 188.811 155.434 192.241 153.036C195.687 150.638 199.871 149.631 203.99 148.816C209.616 147.681 215.37 146.818 221.092 147.425C226.221 147.985 234.026 150.415 237.569 154.571C241.239 158.887 240.053 167.648 236.399 171.564H236.382Z" fill="#F3CCA3"/>
</g>
<g style="mix-blend-mode:multiply" opacity="0.74">
<path d="M162.316 177.128C159.175 180.501 154.254 181.46 149.67 181.828C142.009 182.435 134.251 181.876 126.75 180.181C123.656 179.478 120.563 178.566 117.934 176.808C115.306 175.049 113.174 172.348 112.741 169.214C112.18 165.074 114.745 160.998 118.175 158.6C121.621 156.202 125.804 155.194 129.923 154.379C135.549 153.244 141.303 152.381 147.025 152.988C152.154 153.548 159.96 155.978 163.502 160.134C167.173 164.451 165.987 173.211 162.332 177.128H162.316Z" fill="#F3CCA3"/>
</g>
<path d="M1.8121 256.547L1.79607 253.318L0.818359 117.931L55.987 162.644L58.7758 305.225L1.8121 256.547Z" fill="#F3BA51"/>
<path d="M1.63486 119.625L29.123 141.894L55.2006 163.028L57.9575 303.467L2.61257 256.18V253.318L1.63486 119.625ZM0 116.252L0.0320561 119.641L0.99374 253.334V256.196L1.00977 256.931L1.57075 257.411L56.9156 304.698L59.6244 307.016L59.5603 303.451L56.8034 163.012V162.276L56.2104 161.813L30.1328 140.679L2.64463 118.378L0 116.236V116.252Z" fill="#2A0073"/>
<g style="mix-blend-mode:screen" opacity="0.74">
<path d="M1.63477 119.625L9.11987 252.615L57.9414 303.467L2.61248 256.18L1.63477 119.625Z" fill="#F3CCA3"/>
</g>
<g style="mix-blend-mode:multiply" opacity="0.74">
<path d="M61.0997 305.194L2.61328 256.18V253.318C2.9659 253.078 3.30249 252.839 3.65511 252.599C21.2699 240.481 31.4478 219.619 34.3649 198.485C36.144 185.52 35.4548 172.348 33.4192 159.463C32.7621 155.322 30.1655 148.4 29.1237 141.894L55.2013 163.028L61.0997 305.194Z" fill="#F3CCA3"/>
</g>
<g style="mix-blend-mode:screen" opacity="0.74">
<path d="M55.2012 163.028L117.278 226.349H169.674L110.258 232.152" fill="#F3CCA3"/>
</g>
<g style="mix-blend-mode:screen" opacity="0.74">
<path d="M108.399 301.549C81.0709 303.707 61.0999 305.194 61.0999 305.194L60.6672 292.277L57.9424 228.763L56.6602 163.635L56.8204 166.481L57.4936 167.344C57.4936 167.344 71.9349 276.882 108.399 301.533V301.549Z" fill="#F3CCA3"/>
</g>
<path d="M219.906 170.957C217.694 170.957 215.45 170.333 213.238 169.087C212.372 169.326 210 169.918 207.035 169.918C202.291 169.918 195.815 168.399 191.969 161.205C191.824 160.934 191.696 160.662 191.568 160.39C190.158 157.417 190.911 153.804 193.411 151.598C200.063 145.715 208.013 139.64 216.684 139.272C216.972 139.272 217.261 139.256 217.549 139.256C221.156 139.256 224.586 140.311 227.743 142.421C235.277 147.409 239.011 153.612 237.713 159.015C236.911 162.372 234.203 164.85 230.773 165.394C229.827 166.561 225.868 170.989 219.906 170.989V170.957Z" fill="#FFFBFF"/>
<path d="M217.55 140.024C220.772 140.024 224.057 140.903 227.295 143.045C242.025 152.797 237.842 163.715 230.34 164.61C230.34 164.61 226.301 170.158 219.906 170.158C217.919 170.158 215.723 169.63 213.335 168.223C213.335 168.223 210.626 169.119 207.036 169.119C202.403 169.119 196.313 167.632 192.674 160.822C192.546 160.566 192.418 160.31 192.29 160.038C191.008 157.353 191.713 154.139 193.941 152.173C199.23 147.489 207.661 140.439 216.717 140.04C216.989 140.04 217.261 140.024 217.55 140.024ZM217.55 138.425C217.245 138.425 216.941 138.425 216.652 138.441C207.741 138.841 199.647 144.995 192.883 150.974C190.11 153.42 189.276 157.417 190.847 160.71C190.975 160.982 191.104 161.237 191.232 161.509C195.303 169.119 202.067 170.701 207.036 170.701C209.776 170.701 212.036 170.222 213.126 169.934C215.37 171.133 217.646 171.74 219.906 171.74C225.853 171.74 229.908 167.6 231.206 166.081C234.812 165.394 237.633 162.74 238.499 159.159C239.156 156.393 239.46 149.184 228.193 141.718C224.891 139.528 221.317 138.425 217.566 138.425H217.55Z" fill="#2A0073"/>
<path d="M207.452 148.528C207.517 148.96 205.385 149.535 203.093 150.846C200.785 152.125 199.198 153.644 198.845 153.372C198.509 153.148 199.743 150.974 202.339 149.519C204.936 148.049 207.436 148.113 207.452 148.512V148.528Z" fill="#2A0073"/>
<path d="M210.914 158.328C211.091 158.232 211.587 158.696 212.197 159.575C212.806 160.454 213.559 161.765 213.992 163.427C214.424 165.09 214.312 166.721 213.912 167.792C213.511 168.879 212.966 169.358 212.79 169.262C212.597 169.151 212.79 168.527 212.854 167.552C212.95 166.577 212.886 165.234 212.517 163.795C212.148 162.34 211.587 161.045 211.235 160.054C210.882 159.079 210.722 158.408 210.914 158.312V158.328Z" fill="#2A0073"/>
<path d="M229.442 155.482C229.795 155.29 231.189 157.465 231.494 160.55C231.814 163.635 230.901 166.033 230.516 165.937C230.083 165.841 230.276 163.507 229.987 160.71C229.715 157.896 229.058 155.658 229.458 155.482H229.442Z" fill="#2A0073"/>
<g style="mix-blend-mode:multiply" opacity="0.74">
<path d="M230.34 164.61C230.34 164.61 223.4 174.122 213.334 168.223C213.334 168.223 199.133 172.907 192.674 160.822C193.187 160.79 193.7 160.822 194.197 160.918C195.815 161.237 197.29 162.037 198.813 162.676C201.377 163.763 204.358 164.371 206.907 163.252C209.439 162.149 211.074 158.775 209.567 156.441C211.651 157.305 213.222 159.047 214.985 160.454C216.748 161.877 219.024 163.044 221.204 162.452C223.207 161.925 224.618 159.942 224.874 157.896C225.115 155.85 224.377 153.772 223.207 152.077C225.115 152.892 227.022 153.724 228.945 154.539C227.952 148.896 224.185 143.876 219.232 141.047C218.591 140.679 217.662 140.375 216.716 140.04C220.194 139.88 223.768 140.711 227.294 143.045C242.024 152.797 237.841 163.715 230.34 164.61Z" fill="#F3CCA3"/>
</g>
<path d="M145.535 177.671C143.323 177.671 141.079 177.048 138.867 175.801C138.001 176.041 135.629 176.632 132.664 176.632C127.92 176.632 121.444 175.113 117.598 167.92C117.437 167.616 117.325 167.36 117.197 167.104C115.786 164.131 116.54 160.518 119.04 158.296C125.692 152.413 133.642 146.338 142.313 145.97C142.601 145.97 142.89 145.954 143.178 145.954C146.785 145.954 150.199 147.01 153.372 149.104C160.905 154.091 164.64 160.294 163.342 165.697C162.54 169.055 159.832 171.532 156.402 172.076C155.456 173.243 151.497 177.671 145.535 177.671Z" fill="#FFFBFF"/>
<path d="M143.163 146.738C146.385 146.738 149.671 147.617 152.908 149.759C167.638 159.511 163.455 170.429 155.954 171.325C155.954 171.325 151.915 176.872 145.519 176.872C143.532 176.872 141.336 176.344 138.948 174.938C138.948 174.938 136.239 175.833 132.649 175.833C128.017 175.833 121.926 174.346 118.288 167.536C118.159 167.28 118.031 167.024 117.903 166.753C116.621 164.067 117.326 160.854 119.554 158.887C124.843 154.203 133.274 147.153 142.33 146.754C142.602 146.754 142.875 146.738 143.163 146.738ZM143.163 145.139C142.859 145.139 142.554 145.139 142.266 145.155C133.354 145.555 125.26 151.71 118.496 157.688C115.723 160.134 114.89 164.131 116.461 167.424C116.589 167.696 116.717 167.968 116.861 168.239C120.916 175.833 127.68 177.415 132.649 177.415C135.39 177.415 137.65 176.936 138.74 176.648C140.983 177.847 143.259 178.455 145.519 178.455C151.466 178.455 155.521 174.314 156.819 172.795C160.425 172.108 163.246 169.454 164.112 165.873C164.769 163.108 165.074 155.898 153.806 148.432C150.504 146.242 146.93 145.139 143.179 145.139H143.163Z" fill="#2A0073"/>
<path d="M133.194 153.308C133.291 153.74 130.277 154.571 127.344 156.857C124.363 159.079 122.76 161.749 122.359 161.541C122.183 161.445 122.359 160.646 123.001 159.479C123.642 158.328 124.796 156.873 126.414 155.642C128.033 154.411 129.748 153.692 131.031 153.372C132.313 153.052 133.146 153.116 133.194 153.308Z" fill="#2A0073"/>
<path d="M136.528 165.042C136.704 164.946 137.201 165.41 137.81 166.289C138.419 167.168 139.172 168.479 139.605 170.142C140.038 171.804 139.926 173.435 139.525 174.506C139.124 175.593 138.579 176.073 138.403 175.977C138.211 175.865 138.403 175.241 138.467 174.266C138.563 173.291 138.499 171.948 138.13 170.509C137.762 169.055 137.201 167.76 136.848 166.769C136.496 165.793 136.335 165.122 136.528 165.026V165.042Z" fill="#2A0073"/>
<path d="M155.071 162.196C155.424 162.005 156.818 164.179 157.123 167.264C157.443 170.349 156.53 172.747 156.145 172.651C155.712 172.556 155.905 170.222 155.616 167.424C155.344 164.61 154.686 162.372 155.087 162.196H155.071Z" fill="#2A0073"/>
<g style="mix-blend-mode:multiply" opacity="0.74">
<path d="M155.971 171.325C155.971 171.325 149.03 180.836 138.965 174.938C138.965 174.938 124.764 179.621 118.305 167.536C118.818 167.504 119.33 167.536 119.827 167.632C121.446 167.952 122.921 168.751 124.443 169.39C127.008 170.477 129.989 171.085 132.538 169.966C135.07 168.863 136.705 165.49 135.198 163.156C137.282 164.019 138.853 165.761 140.616 167.168C142.379 168.591 144.655 169.758 146.835 169.166C148.838 168.639 150.249 166.657 150.505 164.61C150.745 162.564 150.008 160.486 148.838 158.791C150.745 159.607 152.653 160.438 154.576 161.253C153.582 155.61 149.816 150.59 144.863 147.761C144.222 147.393 143.292 147.089 142.347 146.754C145.825 146.594 149.399 147.425 152.925 149.759C167.655 159.511 163.472 170.429 155.971 171.325Z" fill="#F3CCA3"/>
</g>
</g>
<defs>
<clipPath id="clip0_500_65">
<rect width="297" height="307" fill="white"/>
</clipPath>
</defs>
</svg>
