<?xml version="1.0" encoding="UTF-8"?>
<svg id="_Слой_2" data-name="Слой 2" xmlns="http://www.w3.org/2000/svg" viewBox="0 0 195.91 195.91">
  <defs>
    <style>
      .cls-1 {
        fill: #fff;
      }

      .cls-2 {
        fill: #f8bdff;
      }

      .cls-3 {
        fill: #ffc161;
      }

      .cls-4 {
        fill: #ffa1a1;
      }

      .cls-5 {
        fill: #ed7464;
      }

      .cls-6 {
        fill: #302945;
      }

      .cls-7 {
        fill: #adecf7;
      }

      .cls-8 {
        fill: #7ba7ff;
      }

      .cls-9 {
        fill: #f7ede5;
      }
    </style>
  </defs>
  <g id="OBJECTS">
    <g>
      <path class="cls-1" d="m97.95,195.91c-3.68,0-7.41-.21-11.08-.63-8.33-.93-16.52-2.94-24.33-5.98-.19-.07-.37-.14-.56-.21-.18-.07-.36-.14-.54-.22-1.1-.44-2.15-.88-3.12-1.31-12.09-5.36-22.83-13-31.91-22.7-.13-.13-.25-.26-.37-.4-.16-.16-.31-.33-.45-.49-.08-.09-.16-.17-.24-.26C9,145.65,0,122.31,0,97.96,0,51.44,33.05,11.05,78.6,1.92c6.31-1.27,12.83-1.92,19.35-1.92,4.01,0,8.06.25,12.04.73.04,0,.08,0,.12.01,10.44,1.3,20.55,4.26,30.04,8.79.06.03.13.06.19.1,3.64,1.74,7.24,3.76,10.71,6,.07.04.14.08.21.13,27.96,18.17,44.64,48.9,44.64,82.2,0,22.34-7.32,43.37-21.17,60.82-1.13,1.42-2.32,2.84-3.53,4.21-1.64,1.83-3.29,3.56-4.94,5.16-5.72,5.57-12.12,10.44-19.02,14.47-.1.06-.2.12-.31.18,0,0-.44.25-.57.32-.18.11-.34.2-.51.29-11.65,6.55-24.31,10.58-37.65,11.97-3.31.36-6.77.54-10.26.54Z"/>
      <g>
        <path class="cls-2" d="m166.71,159.28c-22.1,23.96-44.88,2.88-76.93-3.88-22.8-4.81-55.32,13.87-68.41-5.48C-18.66,91.11,23.95-4.12,109.58,5.93c14.13,1.77,27.11,6.58,38.82,14.16,25.36,16.48,42.12,45.06,42.12,77.55.45,24.03-8.89,45.46-23.81,61.63Z"/>
        <g>
          <g>
            <path class="cls-6" d="m181.33,99.39l-30.3,73.56c-3.54,2.47-7.24,4.71-11.08,6.69-.23.12-.46.24-.69.34-2.67,1.36-5.39,2.59-8.18,3.68l-43.49-17.9,36.95-89.76,19.7,8.12,20.9,8.6,16.19,6.67Z"/>
            <g>
              <rect class="cls-9" x="112.53" y="86.88" width="50.05" height="79.11" transform="translate(58.5 -42.85) rotate(22.38)"/>
              <g>
                <rect class="cls-6" x="148.92" y="76.71" width=".39" height="42.26" transform="translate(1.87 198.47) rotate(-67.62)"/>
                <rect class="cls-6" x="146.91" y="81.6" width=".39" height="42.26" transform="translate(-3.89 199.64) rotate(-67.62)"/>
                <rect class="cls-6" x="144.9" y="86.48" width=".39" height="42.26" transform="translate(-9.66 200.81) rotate(-67.62)"/>
                <rect class="cls-6" x="142.88" y="91.37" width=".39" height="42.26" transform="translate(-15.42 201.97) rotate(-67.62)"/>
                <rect class="cls-6" x="140.87" y="96.25" width=".39" height="42.26" transform="translate(-21.18 203.14) rotate(-67.62)"/>
                <rect class="cls-6" x="138.86" y="101.14" width=".39" height="42.26" transform="translate(-26.94 204.3) rotate(-67.62)"/>
                <rect class="cls-6" x="136.85" y="106.02" width=".39" height="42.26" transform="translate(-32.71 205.47) rotate(-67.62)"/>
              </g>
            </g>
            <g>
              <path class="cls-3" d="m139.14,85.74l5.86-1.85.43-1.05c.57-1.39,2.96-1.71,5.34-.74l11.03,4.54c2.52,1.04,3.99,3.12,3.17,4.49l-.31.51,2.63,5.93-28.15-11.84Z"/>
              <polygon class="cls-6" points="145 83.89 164.66 91.65 145.19 83.34 145 83.89"/>
            </g>
          </g>
          <g>
            <path class="cls-8" d="m166.71,159.28c-7.65,8.29-16.75,15.2-26.76,20.37-.23.12-.46.24-.69.34-12.46,6.33-26.28,9.96-40.38,10.23l-19.25-1.78c-6.38-1.32-12.71-3.39-18.9-6.27-2.16-.98-4.26-2.01-6.28-3.09-.23-.12-.46-.24-.69-.37-2.81-1.52-5.48-3.14-8.02-4.84-4.21-2.81-3.92-18.29-7.42-21.54-3.5-3.25-10.8,5.74-13.62,2.14-1.16-1.5-2.27-3.01-3.31-4.55,2.9-4.45,6.07-8.77,9.31-12.2.63-.66,1.26-1.3,1.89-1.89.08-.08.16-.16.24-.23.4-.37.81-.73,1.25-1.08,5.87-4.72,14.78-7.65,22.83-9.44,5.34-1.19,10.3-1.87,13.75-2.25.18-.02.36-.04.53-.06,1.96-.21,3.35-.31,3.97-.36.23,0,.35-.02.35-.02h.61l34.52-.24s1.83-.03,5.01.32c.18,0,.36.04.54.06h0c5.84.68,15.74,2.58,27.2,7.88,11.45,5.28,19.15,19.16,23.33,28.87Z"/>
            <path class="cls-4" d="m129.35,71.49c-1.8-1.64-3.76-1.75-5.67-1.04.54-2.32.83-4.74.83-7.22,0-17.06-13.45-30.88-30.04-30.88s-30.04,13.83-30.04,30.88c0,0-.69,22.4,4.13,28.29,2.11,2.58,6.32,5.92,10.76,8.83l-3.37,22.99,16.97,26.17,17.68-27.35-1.72-23.57c3.67-2.86,6.82-6.09,7.94-9.11.95.42,2.08.57,3.4.32,1.49-.28,2.79-1.14,4.02-2.02,1.27-.91,2.52-1.86,3.57-3.02,1.73-1.9,2.88-4.31,3.27-6.85.35-2.29-.02-4.87-1.73-6.43Z"/>
            <g>
              <path class="cls-6" d="m117.91,38.94l-7.23,10.53s-2.36,4.09,0,8.64c2.36,4.56,4.87,6.6,4.87,6.6,0,0-2.83,1.89-.94,5.5,1.89,3.61,6.29,8.17,6.29,8.17l2.78-7.94s5.86-1.02,6.96,4.17c0,0,9.9-19.33,6.6-23.42-3.3-4.09-19.33-12.26-19.33-12.26Z"/>
              <path class="cls-6" d="m70.18,44.71s-.35,4.01,5.78,4.01,15.4-8.84,15.4-8.84c0,0-4.71,4.72-.94,6.92,3.77,2.2,15.56-4.71,15.56-4.71,0,0-3.14,4.09,0,5.97s16.07-6.52,16.07-6.52c0,0-14.18-16.74-23.61-19.72-9.43-2.99-11.79,1.1-11.79,1.1,0,0-16.82.94-16.5,9.59,0,0-14.46,3.77-13.67,12.73.79,8.96,8.96,11.32,8.96,11.32l4.75-11.83Z"/>
            </g>
            <g>
              <g>
                <path class="cls-6" d="m118.17,85.68s-.07,0-.11-.02c-.18-.06-.28-.26-.22-.44,1.56-4.73,5.22-8.73,9.8-10.7.17-.07.38,0,.45.18.08.18,0,.38-.18.46-4.4,1.89-7.92,5.73-9.41,10.28-.05.15-.18.24-.33.24Z"/>
                <path class="cls-6" d="m125.4,84.25c-.16,0-.31-.11-.34-.28-.38-1.95-2.31-3.54-4.3-3.54,0,0-.01,0-.02,0-.19,0-.35-.15-.35-.35,0-.2.18-.35.36-.35,2.34,0,4.53,1.8,4.98,4.1.04.19-.09.37-.27.41-.02,0-.05,0-.07,0Z"/>
              </g>
              <path class="cls-6" d="m86.56,82.07c-.11,0-.22-.05-.29-.15l-3.06-4.6c-.05-.08-.07-.18-.05-.28l3.18-12.73c.05-.19.24-.29.42-.25.19.05.3.23.25.42l-3.15,12.58,2.98,4.47c.11.16.06.37-.1.48-.06.04-.13.06-.19.06Z"/>
              <path class="cls-9" d="m63.69,72.41s4.87,2.99,11,2.04c6.13-.94,8.96-4.24,16.5-3.77,7.54.47,12.73,4.87,16.97,6.13,4.24,1.26,13.52-.94,13.52-.94,0,0-1.1,10.84-6.76,17.45-5.66,6.6-24.2,12.89-24.2,12.89,0,0-20.12-6.29-23.26-14.46-3.14-8.17-3.77-19.33-3.77-19.33Z"/>
              <g>
                <path class="cls-6" d="m76.38,68.61c-.02,1.5-.96,2.7-2.1,2.68-1.14-.01-2.05-1.24-2.03-2.74.02-1.5.96-2.7,2.1-2.68,1.14.01,2.05,1.24,2.03,2.74Z"/>
                <path class="cls-6" d="m103.55,68.96c-.02,1.5-.96,2.7-2.1,2.68-1.14-.01-2.05-1.24-2.03-2.74.02-1.5.96-2.7,2.1-2.68,1.14.01,2.05,1.24,2.03,2.74Z"/>
              </g>
              <g>
                <path class="cls-6" d="m71.13,61.65c-.05-.68.23-1.22.61-1.64.39-.42.9-.69,1.45-.82.54-.13,1.12-.13,1.66.03.54.17,1.05.46,1.38.99.13.21.07.49-.14.63,0,0-.02,0-.02.01l-.04.02c-.49.27-.85.44-1.18.61-.33.16-.62.28-.91.39-.29.11-.58.18-.93.22-.36.03-.75.05-1.37.02h-.05c-.25-.01-.45-.21-.47-.46Z"/>
                <path class="cls-6" d="m99.25,60.94c.4-.56.99-.9,1.61-1.12.63-.2,1.3-.25,1.96-.15.65.1,1.3.33,1.82.76.51.43.93,1.02.98,1.8.02.25-.18.48-.43.49,0,0-.01,0-.02,0h-.04c-.72.02-1.19-.02-1.63-.08-.44-.06-.82-.18-1.22-.3l-1.25-.35c-.45-.14-.92-.24-1.52-.41h-.03c-.22-.07-.35-.3-.29-.51.01-.05.04-.09.06-.13Z"/>
              </g>
            </g>
            <g>
              <path class="cls-4" d="m52.22,138.27l-.66,3.67-5.83,31.94c-8.42-5.62-15.4-12.19-21.04-19.4l7-16.55.89-2.1.63-1.49.86.18,18.16,3.75Z"/>
              <g>
                <path class="cls-7" d="m29.51,137.48s3.77-4.01,5.89-12.97c2.12-8.96,1.18-27.35,1.18-27.35l13.44-26.88s1.18,0,1.18,3.06l7.62-10.14,5.97-.71s2.44,1.49,1.73,6.68c-.71,5.19-4.01,9.82-4.01,9.82l-4.72,9.9s5.89-8.72,9.67-6.37c0,0-5.89,17.45-7.54,25.46-1.65,8.02-5.89,34.42-5.89,34.42l-24.52-4.95Z"/>
                <g>
                  <path class="cls-6" d="m47.03,103.33c-.19,0-.34-.15-.35-.34l-.31-11.87c0-.06.01-.12.04-.18.04-.07,4.14-7.48,4.99-13.01.82-5.36-1.58-7.36-1.6-7.38-.15-.12-.17-.34-.05-.49.12-.15.34-.17.48-.06.11.09,2.74,2.24,1.86,8.03-.82,5.4-4.54,12.28-5.02,13.16l.31,11.77c0,.19-.15.35-.34.36h0Z"/>
                  <path class="cls-6" d="m51.59,85.41c-.06,0-.12-.01-.17-.05-.17-.09-.22-.31-.13-.47l4.95-8.72s.04-.06.07-.09c.04-.03,3.93-3.51,4.6-7.42.66-3.8-1.2-5.26-1.28-5.32-.15-.11-.18-.33-.07-.48.11-.15.33-.18.48-.07.09.07,2.28,1.75,1.55,6-.69,3.97-4.32,7.36-4.78,7.78l-4.92,8.67c-.06.11-.18.17-.3.17Z"/>
                  <path class="cls-6" d="m55.44,87.77s-.1-.01-.15-.03c-.17-.08-.25-.29-.17-.46l4.4-9.43s.03-.06.05-.08c.04-.04,3.79-4.46,4.32-8.85.51-4.26-1.33-5.63-1.35-5.65-.15-.11-.19-.33-.08-.48.11-.16.32-.19.48-.09.09.06,2.21,1.59,1.64,6.3-.54,4.44-4.05,8.71-4.45,9.18l-4.38,9.39c-.06.13-.18.2-.31.2Z"/>
                  <path class="cls-6" d="m52.85,99.48c-.05,0-.1-.01-.15-.03-.17-.08-.24-.29-.16-.46l4.95-10.22c.29-.42,6.48-9.11,10.18-6.5.16.11.19.33.08.48-.11.16-.33.19-.48.08-2.61-1.83-7.51,3.91-9.18,6.28l-4.92,10.17c-.06.12-.18.2-.31.2Z"/>
                  <path class="cls-6" d="m57.33,89.74c-.11,0-.21-.05-.28-.15-1.66-2.33-6.96-4.73-7.01-4.76-.17-.08-.25-.28-.17-.46.08-.18.28-.25.46-.17.22.1,5.53,2.5,7.29,4.99.11.16.07.37-.08.48-.06.04-.13.06-.2.06Z"/>
                </g>
              </g>
            </g>
            <g>
              <path class="cls-6" d="m92.45,158.26c-.12,0-.23-.06-.29-.16l-21.53-34.89c-.1-.16-.05-.38.11-.48.16-.1.38-.05.48.11l21.43,34.72,4.85-.13-22.3-34.85c-.1-.16-.06-.38.1-.48.16-.1.38-.06.48.1l22.63,35.36c.07.11.07.24.01.35-.06.11-.17.18-.3.18l-5.66.16h0Z"/>
              <path class="cls-6" d="m95.13,153.7c-.07,0-.13-.02-.19-.06-.16-.11-.2-.32-.09-.48l20.75-30.65c.11-.16.32-.2.48-.09.16.11.2.32.09.48l-20.75,30.65c-.07.1-.18.15-.29.15Z"/>
            </g>
            <g>
              <g>
                <rect class="cls-9" x="104.08" y="161.37" width="31.12" height="13.52"/>
                <g>
                  <path class="cls-6" d="m112.04,165.29c-.02-.06-.05-.11-.08-.15-.05-.03-.1-.06-.18-.08-.08-.02-.18-.03-.3-.03-.14,0-.26,0-.35.04-.08.03-.15.07-.18.14-.04.06-.06.12-.07.18,0,.05,0,.13,0,.23v2.34c-.32-.42-.98-1.3-1.95-2.62l-.04-.04c-.05-.06-.09-.11-.12-.14-.04-.04-.09-.06-.17-.08-.08-.03-.18-.04-.31-.04-.15,0-.27,0-.36.04-.08.03-.15.07-.18.14-.04.06-.06.12-.06.18,0,.05-.02.13-.02.23v3.85c0,.11,0,.18,0,.24s.03.12.06.19c.04.06.1.11.18.14s.2.05.34.05c.15,0,.27-.02.35-.05.09-.03.15-.07.18-.14.04-.07.06-.13.07-.18,0-.05,0-.13,0-.24v-2.27c.32.42,1.01,1.33,2.04,2.71.05.06.1.1.18.13.06.03.19.05.37.05.15,0,.27-.02.35-.05.09-.03.15-.07.18-.14.04-.07.06-.13.06-.18,0-.05,0-.13,0-.24v-4.03s0-.1-.04-.16Z"/>
                  <path class="cls-6" d="m117.05,165.28c-.02-.06-.06-.11-.09-.14-.05-.04-.1-.06-.18-.08-.08-.03-.18-.04-.3-.04-.14,0-.26.02-.34.05-.08.03-.15.06-.18.13-.04.06-.06.11-.07.17,0,.06,0,.13,0,.23v2.11c0,.32-.08.61-.25.86-.17.25-.42.38-.76.38-.18,0-.35-.05-.49-.12-.14-.08-.24-.18-.31-.31-.06-.13-.12-.26-.15-.4-.04-.13-.06-.26-.06-.4v-2.08c0-.11,0-.19,0-.25,0-.06-.04-.11-.06-.18-.04-.06-.1-.11-.18-.14-.09-.03-.2-.05-.35-.05s-.27.02-.35.05c-.09.03-.16.07-.19.14-.04.07-.06.13-.06.18,0,.06,0,.14,0,.25v2.08c0,.29.06.58.15.87.09.29.23.55.42.78.18.24.42.43.7.58.29.15.6.22.95.22s.67-.07.97-.22c.29-.15.53-.33.7-.57.18-.23.32-.5.42-.78.1-.29.15-.57.15-.87v-2.28s-.02-.1-.04-.17Z"/>
                  <path class="cls-6" d="m121.51,169.23c-.21-.48-.37-.84-.46-1.08.34-.34.52-.77.52-1.28,0-.3-.06-.57-.18-.82-.12-.24-.27-.43-.45-.57-.18-.15-.38-.26-.58-.33-.21-.07-.41-.11-.6-.11h-1.49c-.15,0-.27,0-.36.04-.08.03-.15.07-.18.15-.04.06-.06.13-.06.18,0,.06,0,.13,0,.24v4.03s.02.09.04.16c.02.06.06.11.09.14.05.04.1.06.18.08.07.03.18.04.3.04.15,0,.26,0,.35-.05.08-.02.15-.07.18-.14.04-.07.06-.13.06-.18,0-.06,0-.13,0-.24v-.78h.87l.22-.02c.19.46.34.81.43,1.03.05.1.08.18.1.22.03.05.07.08.13.13.06.05.12.06.2.06.1,0,.22-.03.37-.09.29-.12.43-.27.43-.44,0-.07-.04-.19-.11-.36Zm-1.37-1.91c-.13.1-.27.15-.4.15h-.89v-1.22h.87c.15,0,.29.06.42.16.14.1.2.25.2.45s-.06.36-.2.46Z"/>
                  <path class="cls-6" d="m125.32,167.71c-.11-.2-.26-.35-.43-.43-.18-.08-.37-.15-.57-.21-.21-.06-.4-.09-.57-.12-.18-.03-.32-.08-.44-.17-.11-.07-.18-.18-.18-.32,0-.11.06-.2.15-.28.1-.07.2-.11.31-.11.1,0,.19.02.27.04.07.02.13.04.17.06.03.02.06.05.1.08.05.04.06.06.08.06.14.09.26.14.36.14.17,0,.32-.11.48-.34.11-.17.17-.29.17-.39,0-.08-.07-.19-.21-.33l-.04-.03-.14-.1c-.08-.07-.24-.15-.47-.22-.23-.06-.48-.1-.76-.1-.52,0-.93.15-1.23.45-.3.3-.45.66-.45,1.06,0,.29.06.54.18.75.11.21.26.37.43.46.18.1.37.18.57.25.19.07.39.13.56.16.18.04.32.08.43.16.12.07.18.16.18.27,0,.35-.21.53-.64.53-.1,0-.2-.04-.31-.09-.1-.06-.18-.12-.21-.16l-.12-.12c-.2-.2-.38-.31-.53-.31-.11,0-.22.06-.34.17-.19.19-.3.36-.3.5,0,.1.06.22.18.37l.06.07c.04.06.1.12.19.2.08.07.19.15.31.23.12.07.28.14.47.19.19.05.4.07.62.07.2,0,.41-.03.61-.08.2-.06.4-.16.59-.28.18-.13.34-.3.46-.54.12-.22.18-.49.18-.78,0-.3-.06-.56-.18-.77Z"/>
                  <path class="cls-6" d="m129.72,168.94c-.06-.04-.13-.06-.18-.06-.05,0-.13-.02-.23-.02h-2.13v-.69h1.55s.1-.02.17-.04c.06-.02.11-.06.14-.09.04-.05.06-.1.08-.18.03-.07.04-.18.04-.3,0-.15,0-.26-.04-.35-.03-.08-.08-.15-.15-.18-.07-.04-.13-.06-.18-.06-.06,0-.13,0-.24,0h-1.37v-.7h2.32s.1-.02.16-.04c.06-.02.11-.06.15-.09.03-.05.06-.1.08-.18.02-.08.03-.18.03-.3,0-.15,0-.26-.04-.35-.03-.08-.07-.15-.15-.18-.06-.04-.13-.06-.18-.06-.05,0-.13,0-.23,0h-2.72c-.24,0-.41.04-.5.13-.08.08-.13.24-.13.48v4.03s.02.09.04.16c.02.06.06.11.09.14.05.04.1.06.18.08.07.02.18.04.3.04h2.73c.08,0,.15,0,.19,0,.05,0,.1,0,.16-.03.06-.03.11-.06.15-.09.03-.05.06-.1.08-.18.02-.07.03-.18.03-.3,0-.15,0-.27-.04-.35-.03-.09-.07-.15-.15-.18Z"/>
                </g>
              </g>
              <rect class="cls-6" x="118.74" y="157.29" width="2.48" height="6.37"/>
            </g>
            <g>
              <path class="cls-6" d="m54.45,162.31v16.77c-.23-.12-.46-.24-.69-.37v-16.4c0-.18.16-.34.35-.34s.34.16.34.34Z"/>
              <path class="cls-6" d="m139.95,162.31v17.34c-.23.12-.46.24-.69.34v-17.68c0-.18.16-.34.35-.34s.34.16.34.34Z"/>
            </g>
          </g>
          <g>
            <path class="cls-9" d="m166.25,76.85c.22,3.66.17,5.53-.3,9.29-1.41-.16-2.11-.25-3.52-.41-.15,1.17-.24,1.75-.46,2.92,3.68.67,5.52,1,9.21,1.65.26-1.4.37-2.1.55-3.5-1.59-.18-2.38-.26-3.97-.45.49-3.89.54-5.83.31-9.62,2.13-.15,3.19-.23,5.32-.39-3.32-22.25-12.66-36.29-32-47.81-2.12,4.52-3.2,6.77-5.37,11.26,14.32,6.51,23.97,21.97,24.92,37.42,2.13-.14,3.19-.21,5.32-.36Z"/>
            <path class="cls-5" d="m138.83,39.08c1.69-3.11,2.53-4.67,4.19-7.8,15.53,10.31,23.6,21.76,28.09,39.98-3.49.59-5.24.88-8.73,1.44-4.02-15.37-10.35-24.53-23.55-33.62Z"/>
            <path class="cls-6" d="m167.75,86.34c-.72-.08-1.08-.12-1.8-.21.84-.88,1.25-1.33,2.05-2.28-.08.99-.13,1.49-.25,2.48Z"/>
            <path class="cls-6" d="m168.06,76.72c.06.97.08,1.45.09,2.43-.74-.96-1.12-1.42-1.9-2.31,0,0,1.88-.24,1.81-.13Z"/>
            <path class="cls-9" d="m126.09,30.14c.05-.29.08-.44.13-.73,5.76,1.1,8.48,2.06,13.48,4.59-.13.27-.2.4-.33.67-4.93-2.49-7.61-3.44-13.28-4.53Z"/>
            <g>
              <path class="cls-6" d="m164.98,64.68c2.23-.72,3.35-1.08,5.58-1.81.09.29.13.43.22.72-2.24.7-3.36,1.04-5.6,1.73-.08-.26-.12-.39-.2-.64Z"/>
              <path class="cls-6" d="m163.96,61.72c2.19-.85,3.28-1.28,5.46-2.14.11.28.16.42.26.7-2.19.83-3.29,1.25-5.49,2.07-.09-.25-.14-.38-.24-.63Z"/>
              <path class="cls-6" d="m162.76,58.85c2.13-.98,3.19-1.48,5.32-2.47.12.27.18.41.3.68-2.14.97-3.21,1.45-5.35,2.4-.11-.25-.16-.37-.27-.61Z"/>
              <path class="cls-6" d="m161.39,56.06c2.07-1.11,3.1-1.67,5.16-2.79.14.26.21.39.34.66-2.07,1.09-3.11,1.64-5.19,2.72-.12-.24-.18-.36-.31-.59Z"/>
              <path class="cls-6" d="m159.86,53.37c1.99-1.23,2.99-1.85,4.98-3.1.15.25.23.38.38.64-2,1.22-3.01,1.82-5.02,3.03-.14-.23-.2-.34-.34-.57Z"/>
              <path class="cls-6" d="m158.17,50.77c1.92-1.35,2.87-2.03,4.78-3.4.17.24.25.37.42.61-1.93,1.34-2.89,2-4.82,3.33-.15-.22-.22-.33-.38-.55Z"/>
              <path class="cls-6" d="m156.33,48.29c1.83-1.47,2.74-2.2,4.56-3.68.18.23.28.35.46.59-1.84,1.45-2.76,2.18-4.61,3.62-.16-.21-.24-.32-.41-.52Z"/>
              <path class="cls-6" d="m154.34,45.92c1.74-1.58,2.6-2.37,4.33-3.95.2.22.3.33.49.56-1.75,1.56-2.63,2.34-4.38,3.89-.17-.2-.26-.3-.44-.5Z"/>
              <path class="cls-6" d="m152.21,43.67c1.64-1.68,2.45-2.52,4.08-4.21.21.21.32.31.52.53-1.65,1.67-2.48,2.5-4.14,4.15-.19-.19-.28-.28-.47-.47Z"/>
              <path class="cls-6" d="m149.94,41.56c1.53-1.78,2.3-2.67,3.82-4.45.22.2.34.3.56.49-1.55,1.76-2.32,2.64-3.88,4.4-.2-.18-.3-.27-.5-.44Z"/>
              <path class="cls-6" d="m147.54,39.58c1.42-1.87,2.13-2.8,3.54-4.68.24.18.35.27.59.46-1.44,1.86-2.16,2.78-3.6,4.63-.21-.17-.31-.25-.53-.41Z"/>
              <path class="cls-6" d="m145.02,37.75c1.3-1.95,1.95-2.93,3.24-4.89.25.17.37.25.62.42-1.32,1.94-1.98,2.91-3.31,4.84-.22-.15-.33-.23-.55-.38Z"/>
            </g>
          </g>
          <g>
            <path class="cls-9" d="m39.62,61.42c2.72-2.45,4.22-3.58,7.45-5.55.75,1.2,1.13,1.8,1.87,3.01,1-.61,1.52-.9,2.57-1.46-1.77-3.3-2.66-4.94-4.46-8.23-1.26.67-1.88,1.02-3.08,1.75.85,1.35,1.28,2.03,2.13,3.38-3.35,2.05-4.9,3.21-7.72,5.75-1.44-1.57-2.17-2.35-3.62-3.92-15.33,16.47-20.48,32.53-17.43,54.83,4.86-1.16,7.29-1.72,12.15-2.83-3.84-15.25,2.23-32.44,13.72-42.81-1.43-1.58-2.15-2.37-3.6-3.94Z"/>
            <path class="cls-5" d="m27.19,106.4c-3.49.62-5.23.94-8.71,1.59-1.62-18.58,2.3-32.02,13.74-46.89,2.64,2.36,3.95,3.55,6.57,5.93-9.51,12.73-12.73,23.39-11.61,39.37Z"/>
            <path class="cls-6" d="m46.11,54.33c.38.61.58.92.96,1.54-1.21-.11-1.82-.15-3.06-.19.82-.56,1.24-.83,2.1-1.35Z"/>
            <path class="cls-6" d="m38.4,60.08c.72-.65,1.09-.97,1.85-1.59-.29,1.18-.41,1.76-.62,2.92,0,0-1.36-1.32-1.23-1.34Z"/>
            <path class="cls-9" d="m28.15,121.94c-.26.14-.39.21-.66.35-2.73-5.19-3.68-7.92-4.82-13.4.29-.06.44-.09.73-.16,1.12,5.41,2.06,8.1,4.74,13.21Z"/>
            <g>
              <path class="cls-6" d="m30.9,70c-1.95-1.3-2.93-1.95-4.89-3.24.17-.25.25-.37.42-.62,1.94,1.32,2.91,1.98,4.85,3.3-.15.22-.23.33-.38.56Z"/>
              <path class="cls-6" d="m29.23,72.64c-2.03-1.18-3.04-1.76-5.08-2.93.15-.26.23-.39.38-.64,2.02,1.19,3.03,1.79,5.04,3-.14.23-.21.34-.34.58Z"/>
              <path class="cls-6" d="m27.73,75.37c-2.1-1.05-3.15-1.58-5.25-2.62.14-.27.2-.4.34-.66,2.09,1.07,3.13,1.61,5.21,2.68-.12.24-.19.36-.31.59Z"/>
              <path class="cls-6" d="m26.4,78.18c-2.16-.92-3.24-1.38-5.4-2.29.12-.27.18-.41.3-.68,2.15.94,3.22,1.41,5.37,2.36-.11.24-.16.37-.27.61Z"/>
              <path class="cls-6" d="m25.25,81.06c-2.21-.79-3.31-1.18-5.53-1.96.1-.28.15-.42.26-.7,2.2.81,3.3,1.21,5.5,2.03-.09.25-.14.37-.23.62Z"/>
              <path class="cls-6" d="m24.28,84c-2.25-.65-3.38-.98-5.64-1.62.08-.28.13-.43.22-.71,2.25.67,3.37,1.01,5.61,1.69-.08.25-.12.38-.19.64Z"/>
              <path class="cls-6" d="m23.48,86.99c-2.29-.52-3.43-.77-5.72-1.27.07-.29.1-.43.17-.72,2.28.53,3.43.8,5.71,1.35-.06.26-.09.39-.16.65Z"/>
              <path class="cls-6" d="m22.87,90.02c-2.32-.38-3.47-.56-5.79-.92.05-.29.08-.44.13-.73,2.31.39,3.47.59,5.78,1-.05.26-.07.39-.12.66Z"/>
              <path class="cls-6" d="m22.44,93.09c-2.33-.23-3.5-.35-5.84-.57.03-.3.05-.44.08-.74,2.33.25,3.5.38,5.83.65-.03.26-.05.4-.08.66Z"/>
              <path class="cls-6" d="m22.2,96.18c-2.34-.09-3.52-.13-5.86-.21.01-.3.02-.45.04-.74,2.34.11,3.51.17,5.86.29-.02.27-.02.4-.04.67Z"/>
              <path class="cls-6" d="m22.15,99.28c-2.35.05-3.52.08-5.86.15,0-.3,0-.45,0-.75,2.35-.03,3.52-.05,5.86-.07,0,.27,0,.4,0,.67Z"/>
              <path class="cls-6" d="m22.3,102.4c-2.34.2-3.51.3-5.84.51-.02-.3-.03-.45-.05-.75,2.34-.18,3.51-.27,5.85-.43.02.27.03.4.05.67Z"/>
            </g>
          </g>
          <g>
            <path class="cls-9" d="m51.35,29.62l3.95.75c.61.12.66.97.07,1.16l-3.57,1.13c-.2.06-.36.23-.4.44l-1.03,4.72c-.13.58-.93.64-1.14.09l-1.68-4.31c-.07-.19-.24-.33-.45-.37l-3.78-.72c-.61-.12-.66-.97-.07-1.16l3.68-1.16c.21-.07.36-.24.41-.45l.91-4.53c.12-.59.94-.65,1.15-.09l1.49,4.11c.07.2.24.34.45.38Z"/>
            <path class="cls-9" d="m117.83,15.95l3.95.75c.61.12.66.97.07,1.16l-3.57,1.13c-.2.06-.36.23-.4.44l-1.03,4.72c-.13.58-.93.64-1.14.09l-1.68-4.31c-.07-.19-.24-.33-.45-.37l-3.78-.72c-.61-.12-.66-.97-.07-1.16l3.68-1.16c.21-.07.36-.24.41-.45l.91-4.53c.12-.59.94-.65,1.15-.09l1.49,4.11c.07.2.24.34.45.38Z"/>
            <path class="cls-9" d="m150.48,64.4l3.95.75c.61.12.66.97.07,1.16l-3.57,1.13c-.2.06-.36.23-.4.44l-1.03,4.72c-.13.58-.93.64-1.14.09l-1.68-4.31c-.07-.19-.24-.33-.45-.37l-3.78-.72c-.61-.12-.66-.97-.07-1.16l3.68-1.16c.21-.07.36-.24.41-.45l.91-4.53c.12-.59.94-.65,1.15-.09l1.49,4.11c.07.2.24.34.45.38Z"/>
            <path class="cls-9" d="m165.33,150.68l3.95.75c.61.12.66.97.07,1.16l-3.57,1.13c-.2.06-.36.23-.4.44l-1.03,4.72c-.13.58-.93.64-1.14.09l-1.68-4.31c-.07-.19-.24-.33-.45-.37l-3.78-.72c-.61-.12-.66-.97-.07-1.16l3.68-1.16c.21-.07.36-.24.41-.45l.91-4.53c.12-.59.94-.65,1.15-.09l1.49,4.11c.07.2.24.34.45.38Z"/>
            <path class="cls-9" d="m70.32,106.83l3.95.75c.61.12.66.97.07,1.16l-3.57,1.13c-.2.06-.36.23-.4.44l-1.03,4.72c-.13.58-.93.64-1.14.09l-1.68-4.31c-.07-.19-.24-.33-.45-.37l-3.78-.72c-.61-.12-.66-.97-.07-1.16l3.68-1.16c.21-.07.36-.24.41-.45l.91-4.53c.12-.59.94-.65,1.15-.09l1.49,4.11c.07.2.24.34.45.38Z"/>
            <path class="cls-9" d="m27.82,137.55l3.95.75c.61.12.66.97.07,1.16l-3.57,1.13c-.2.06-.36.23-.4.44l-1.03,4.72c-.13.58-.93.64-1.14.09l-1.68-4.31c-.07-.19-.24-.33-.45-.37l-3.78-.72c-.61-.12-.66-.97-.07-1.16l3.68-1.16c.21-.07.36-.24.41-.45l.91-4.53c.12-.59.94-.65,1.15-.09l1.49,4.11c.07.2.24.34.45.38Z"/>
          </g>
        </g>
      </g>
    </g>
  </g>
</svg>