<?xml version="1.0" encoding="UTF-8"?>
<svg id="_Слой_2" data-name="Слой 2" xmlns="http://www.w3.org/2000/svg" viewBox="0 0 512 428.53">
  <defs>
    <style>
      .cls-1 {
        fill: #fff;
      }

      .cls-2 {
        fill: #f8bdff;
      }

      .cls-3 {
        fill: #e38066;
      }

      .cls-4 {
        fill: #977bff;
      }

      .cls-5 {
        opacity: .39;
      }

      .cls-6 {
        fill: #ffdfdf;
      }

      .cls-7 {
        fill: #302945;
      }

      .cls-8 {
        fill: #ffc063;
      }

      .cls-9 {
        opacity: .42;
      }
    </style>
  </defs>
  <g id="_03" data-name="03">
    <g>
      <path class="cls-1" d="m297.5,428.53c-7.48,0-15.02-.4-22.43-1.18-6.01-.61-12.05-1.5-17.91-2.63-.2-.03-1.26-.24-1.39-.27-12.52-2.48-24.81-6.07-36.52-10.69-.42-.15-.83-.31-1.23-.48-14.09-5.64-27.42-12.69-39.81-21.02-.42-.28-.9-.61-1.37-.94-9.63-6.55-18.81-13.99-27.29-22.1-.44-.41-.89-.84-1.33-1.26l-.17-.16c-23.3-22.7-41.33-50.7-52.22-81.05-.26-.68-.5-1.38-.74-2.07-1.51-4.35-2.93-8.95-4.22-13.7l-31.26-18.6c-5.4-3.21-7.61-9.91-5.17-15.7l.18-.43c-5.8-3.46-9.78-6.82-12.29-10.36-3.69-2.63-9.11-7.5-11.76-14.76-6.12-5.02-10.85-12.47-11.1-21.01C2.67,176.46-2.24,168.05.88,159.21c1.58-4.47,6.04-9.25,13.82-9.25,2.32,0,5.47.38,11.15,2.3,1.05-6.37,4.65-10.73,7.82-12.9,2.23-1.51,4.78-2.29,7.41-2.29,4.07,0,7.89,1.88,10.37,5.07l33.57,23.92c1.22-1.27,2.71-2.28,4.37-2.94,11.69-47.78,39.5-90.04,79.21-119.98.59-.47,1.2-.91,1.81-1.34,12.05-8.9,25.09-16.56,38.77-22.76.58-.27,1.18-.53,1.78-.78,11.08-4.92,22.75-8.92,34.71-11.9.54-.15,1.09-.28,1.65-.4,5.48-1.32,11.31-2.47,17.13-3.37,1.44-.23,2.94-.45,4.46-.65,9.79-1.32,19.71-1.66,28.24-1.89,1.27-.03,2.54-.05,3.79-.05,6.86,0,13.73.5,20.5,1.49.62-.1,1.26-.14,1.9-.14.56,0,1.11.04,1.67.11,4.88.65,9.65,1.45,14.16,2.36.14.03,1.16.24,1.16.24,10.87,2.24,21.66,5.37,32.15,9.3l1.43.56c15.28,5.85,29.99,13.53,43.65,22.8.49.32.97.65,1.47.99,43.3,29.88,74.08,74.22,86.65,124.86.13.51.29,1.1.42,1.71,3.9,16.31,5.88,33.13,5.88,49.98,0,23.53-3.82,46.7-11.36,68.85l-.38,1.12c-.92,2.66-1.81,5.07-2.71,7.4l-.66,1.64c-.76,1.91-1.54,3.79-2.35,5.67,0,0-.67,1.58-.89,2.07l-.23.52c-.3.67-.6,1.35-.92,2.01-.06.14-.22.46-.37.77-1.25,2.68-2.51,5.25-3.8,7.76l-.61,1.19c-2.05,3.92-3.85,7.18-5.64,10.21-.15.3-.31.58-.48.87-.11.2-.22.4-.34.6-.93,1.53-1.89,3.05-2.84,4.54-.17.27-.35.53-.54.78-5.57,8.65-11.94,17.07-18.96,25.02l-.46.51c-1.81,2.04-3.54,3.92-5.31,5.77-1.06,1.12-2.17,2.25-3.29,3.37-.79.79-1.56,1.55-2.34,2.31l-.96.96c-.68.68-1.35,1.35-2.05,2.01-.44.41-.9.85-1.38,1.29-29.42,27.27-65.88,45.79-105.33,53.46-.8.16-1.61.23-2.4.23h-.08c-10.95,1.95-22.09,3.06-33.17,3.29-1.49.04-3.08.06-4.65.06Z"/>
      <g>
        <path class="cls-7" d="m470.41,316.57s-.26.51-.39.75c-3.53,6.55-22.29-7.04-26.65-1.05-6.03,8.27-19.54,10.05-26.82,17.24-33.45,33.03-48.38,39.52-95.16,42.79-2.42.17-18.01,5.67-20.44,5.75-14.83.5-27.3,32.43-41.87,29.62-.19-.04-.36-.06-.54-.11-.11-.02-.24-.04-.36-.06-.06-.02-.13-.02-.19-.04-18.48-6.13-96.05-72.42-104.25-112.12-4.42-21.37-1.77-119.89-.99-124.13,15.74-85.1,30.89-149.94,117.38-161.48,8.8-1.18,17.79-1.54,26.9-1.78,164.54-4.32,184.72,285.61,173.39,304.62Z"/>
        <polygon class="cls-8" points="265.72 114.29 271.42 79.43 277.63 113.49 311.63 112.96 284.14 126.35 290.25 151.17 271.46 130.16 252.86 149.15 260.5 124.95 236.31 117.61 265.72 114.29"/>
        <path class="cls-3" d="m258.17,411.5c-12.08-2.36-23.79-5.8-34.99-10.22-.39-.13-.77-.3-1.14-.45-13.17-5.27-25.66-11.89-37.28-19.7-.39-.26-.81-.54-1.2-.83-9.19-6.25-17.84-13.26-25.85-20.94-.47-.43-.96-.9-1.43-1.35-21.72-21.16-38.68-47.18-49.12-76.32-.23-.58-.43-1.18-.64-1.78-7.09-20.37-11.01-42.21-11.14-64.97-.02-.43-.02-.88-.02-1.33v-.38c.11-65.76,31.71-124.1,80.48-160.82.47-.38.96-.73,1.44-1.07,11.35-8.4,23.62-15.63,36.62-21.52.49-.23.98-.45,1.46-.64,10.56-4.71,21.61-8.5,33.04-11.33.39-.11.81-.21,1.22-.3,6.7-1.61,13.55-2.91,20.49-3.83-16.38,81.72-61.01,157.65-124.89,211.24-.28.24-.56.49-.84.71-.3.26-.62.53-.94.79,2.14,1.78,4.26,3.6,6.36,5.44,1.88,1.63,3.73,3.28,5.55,4.99,50.13,46,86.39,108.27,102.81,174.59Z"/>
        <g>
          <path class="cls-7" d="m238.94,47.67c-29.6,71.18-63.52,125.68-103.69,166.61,3.41,3.49,6.75,7.05,9.98,10.69,3.49,3.9,6.87,7.88,10.13,11.93,38.61,47.78,62.42,105.45,67.82,164.36-.39-.13-.77-.3-1.14-.45-5.68-60.86-31.11-120.35-72.23-168.9-1.78-2.1-3.58-4.18-5.42-6.23-3.34-3.75-6.77-7.41-10.3-11.01-.23-.23-.23-.56,0-.77,40.22-40.9,74.2-95.4,103.84-166.65,3.92-9.44,7.8-19.27,10.49-29.4.39-.11.81-.21,1.22-.3-2.7,10.41-6.68,20.47-10.69,30.11Z"/>
          <path class="cls-7" d="m173.73,328.61c4.88,16.66,8.55,34.09,11.03,52.51-.39-.26-.81-.54-1.2-.83-2.48-18.01-6.1-35.06-10.88-51.37-12.74-43.52-35.61-83.6-64.42-112.83-.19-.21-.21-.51-.04-.71,42.92-57.33,78.38-119.58,105.7-185.56.49-.23.98-.45,1.46-.64-27.37,66.32-62.92,128.89-106,186.48,28.76,29.32,51.61,69.41,64.35,112.94Z"/>
          <path class="cls-7" d="m177.29,51.35c-7.73,27.77-20.15,53.96-30.95,76.67-13.58,28.61-28.74,60.54-50.95,86.92-3.36,4.01-6.9,7.9-10.62,11.61-.11.11-.24.17-.39.17-.13,0-.28-.06-.39-.17-.21-.21-.21-.56,0-.77,4.01-4.01,7.8-8.2,11.39-12.55,21.69-26.1,36.6-57.48,49.98-85.68,10.6-22.31,22.78-47.95,30.5-75.14.47-.38.96-.73,1.44-1.07Z"/>
          <path class="cls-7" d="m157.71,359.36c-.47-.43-.96-.9-1.43-1.35-4.01-17.92-12.21-35.66-24.28-51.7-6.12-8.12-14.45-17.33-24.84-24.61-.23-.58-.43-1.18-.64-1.78,11.09,7.5,19.92,17.2,26.36,25.74,12.51,16.62,20.92,35.1,24.82,53.71Z"/>
        </g>
        <g>
          <path class="cls-3" d="m498.92,213.57c0,29.09-6.18,56.73-17.29,81.72-.32.71-.64,1.45-.98,2.16-10.92,23.8-26.36,45.13-45.24,62.89-.4.38-.79.75-1.21,1.13-27.18,25.2-61.35,43.06-99.28,50.43,17.82-71.62,58.85-138.54,115.57-185.43-65.31-53.81-110.96-130.56-127.61-213.22,4.5.6,8.96,1.33,13.34,2.22.4.09.79.17,1.17.24,10.38,2.14,20.47,5.1,30.2,8.74.43.17.85.34,1.29.51,14.65,5.6,28.46,12.86,41.24,21.55.43.28.85.56,1.29.86,40.01,27.6,69.57,69.12,81.59,117.53.13.51.26,1.02.38,1.52,3.63,15.14,5.56,30.91,5.56,47.14Z"/>
          <g>
            <path class="cls-7" d="m474.75,213.44c-21.28,45.93-34.51,95.55-39.35,146.9-.4.38-.79.75-1.21,1.13,4.74-51.74,17.97-101.8,39.37-148.07-20.15-14.05-39.9-32.74-62.1-58.78-23.76-27.85-40.73-52.46-53.43-77.41-10.53-20.72-17.82-41.38-21.81-61.75.4.09.79.17,1.17.24,3.99,20.12,11.23,40.54,21.62,61,12.66,24.89,29.6,49.43,53.3,77.22,22.28,26.12,42.07,44.81,62.25,58.83.23.15.3.43.19.68Z"/>
            <path class="cls-7" d="m481.24,293.93c-.32.71-.6,1.9-.94,2.61-2.14-34.67-.12-67.83,5.3-98.93-12.81-9.44-29.24-22.17-43.28-37.32-15.52-16.73-27.63-35.84-36.44-50.6-18.62-31.16-31.18-59.04-38.29-85.23.43.17.85.34,1.29.51,7.11,25.87,19.58,53.4,37.95,84.16,8.79,14.72,20.86,33.75,36.3,50.43,14.08,15.17,30.58,27.96,43.39,37.38.17.13.25.34.23.55-5.35,30.46-7.46,62.46-5.52,96.45Z"/>
            <path class="cls-7" d="m493.37,166.44c-23.08-13.82-43.13-32.98-57.7-55.37-12.64-19.46-21.36-41.63-25.55-64.55.43.28.85.56,1.29.86,4.23,22.39,12.81,44.05,25.19,63.08,14.29,21.96,33.87,40.76,56.39,54.45.13.51.26,1.02.38,1.52Z"/>
          </g>
        </g>
        <g>
          <g>
            <g>
              <path class="cls-2" d="m86.6,236.48s-32.53-11.5-35.34-20.19c0,0-9.26-4.77-10.1-13.46,0,0-13.18-7.29-8.69-18.79,0,0-21.88-16.55-20.19-21.32,1.13-3.22,16.43,3.39,26.27,8.04,1.21.57,2.03-5.02,3.04-4.53,2.95,1.43,3.37,4.98,5.61,7.85,0,0-14.72-18.3-6.59-24.54l65.35,46.56-19.35,40.39Z"/>
              <path class="cls-7" d="m49.86,206.08c-.3,0-.54-.24-.55-.53,0-.14-.38-13.91-.38-19.83,0-4.44-1.93-8.94-3.73-10.57-.39-.35-.65-.45-.8-.47-.97,1.47-1.79,14.62-2.05,26.76,0,.3-.25.54-.55.54h-.01c-.3,0-.54-.26-.54-.56.38-18.31,1.36-27.68,2.92-27.83.55-.06,1.14.2,1.75.76,2.01,1.82,4.09,6.57,4.09,11.38,0,5.91.37,19.67.37,19.8,0,.3-.23.56-.53.56h-.01Z"/>
              <path class="cls-7" d="m72.67,210.01c-.09,0-.18-.02-.27-.07l-13.09-7.29c-.17-.1-.28-.27-.28-.47,0-.09-.2-9.2-1.3-15.81-.32-1.94-1.1-3.33-2.31-4.13-1.37-.91-3-.83-3.73-.73l-1.29,26.49c-.02.3-.26.56-.58.52-.3-.01-.54-.27-.52-.58l1.31-26.92c.01-.24.18-.45.42-.51.11-.03,2.74-.66,4.98.81,1.48.97,2.42,2.61,2.8,4.87,1,5.99,1.26,13.98,1.31,15.66l12.81,7.14c.26.15.36.48.21.75-.1.18-.29.28-.48.28Z"/>
              <path class="cls-7" d="m67.81,195.42c-.17,0-.33-.08-.44-.22l-9.64-12.97c-1.27-.58-10.37-5.07-16.77-16.44-6.9-12.26-.93-16.53-.67-16.71.25-.17.59-.1.76.14.17.25.11.59-.14.76h0c-.22.15-5.36,3.94,1.01,15.27,6.55,11.65,16.28,15.99,16.38,16.03.09.04.16.1.22.18l9.72,13.09c.18.24.13.59-.11.77-.1.07-.21.11-.33.11Z"/>
            </g>
            <path class="cls-7" d="m32.47,184.58c-.08,0-.16-.02-.24-.06-.27-.13-.39-.46-.25-.73l8.97-18.51c.08-.17.25-.29.45-.31.19,0,.38.07.49.22.13.18,3.21,4.47,2.06,10.8-.05.3-.34.49-.64.44-.3-.05-.5-.34-.44-.64.78-4.31-.59-7.65-1.37-9.13l-8.53,17.6c-.1.2-.29.31-.49.31Z"/>
          </g>
          <g>
            <g>
              <path class="cls-7" d="m403.21,76.67c-2.15-6.97-7.42-12.92-14.09-15.89-6.67-2.96-14.62-2.9-21.23.18-2.18-6.78-9.09-10.98-15.97-12.85-5.23-1.43-10.81-1.87-16.11-.69-5.3,1.18-10.3,4.05-13.54,8.4-3.99,5.34-5.01,12.3-5.42,18.95-2.66-.98-5.66-.3-8.24.87-6.37,2.89-11.3,8.79-13,15.58-1.71,6.79-.15,14.31,4.1,19.87.97,1.27,2.12,2.55,2.32,4.14.15,1.22-.3,2.43-.6,3.62-1.05,4.1-.39,8.65,1.95,12.19,1.73,2.62,4.27,4.61,6.98,6.17,7.35,4.23,16.05,5.54,24.53,5.42,7.78-.1,15.66-1.38,22.67-4.76,6.28-3.03,11.67-7.66,16.42-12.76,11.82-12.72,20.04-28.78,23.28-45.84l5.97-2.6Z"/>
              <g class="cls-9">
                <path class="cls-4" d="m403.21,76.67c-2.15-6.97-7.42-12.92-14.09-15.89-6.67-2.96-14.62-2.9-21.23.18-2.18-6.78-9.09-10.98-15.97-12.85-5.23-1.43-10.81-1.87-16.11-.69-5.3,1.18-10.3,4.05-13.54,8.4-3.99,5.34-5.01,12.3-5.42,18.95-2.66-.98-5.66-.3-8.24.87-6.37,2.89-11.3,8.79-13,15.58-1.71,6.79-.15,14.31,4.1,19.87.97,1.27,2.12,2.55,2.32,4.14.15,1.22-.3,2.43-.6,3.62-1.05,4.1-.39,8.65,1.95,12.19,1.73,2.62,4.27,4.61,6.98,6.17,7.35,4.23,16.05,5.54,24.53,5.42,7.78-.1,15.66-1.38,22.67-4.76,6.28-3.03,11.67-7.66,16.42-12.76,11.82-12.72,20.04-28.78,23.28-45.84l5.97-2.6Z"/>
              </g>
              <g>
                <polygon class="cls-2" points="393.78 158.9 393.99 204.88 365.1 224.24 342.53 201.65 342.53 165.89 344.86 165.62 385.18 161.25 393.78 158.9"/>
                <g class="cls-5">
                  <path class="cls-7" d="m384.8,168.04c-1.56,4.44-5.21,8.04-9.23,10.94-9.29,6.7-21.16,9.71-33.04,10.06v-20.17l.48-.7c.57-.88,1.19-1.74,1.85-2.55l40.31-4.37c.53,2.22.37,4.61-.37,6.79Z"/>
                </g>
              </g>
              <path class="cls-2" d="m404.84,132.32c1.01-3.72,1.59-7.63,1.59-11.68,0-24.68-20.01-44.69-44.69-44.69-22.4,0-41.59,17.54-44.31,39.6-1.28,10.4-.06,20.92.47,31.33.39,7.62-.05,18.16,3.88,25.03.26.45.52.89.88,1.27,7.67,8.04,54.5,7.85,63.76,3.93,3.52-1.49,5.78-9.09,7.24-17.92,2.39,1.63,5.27,2.59,8.38,2.59,8.21,0,14.86-6.66,14.86-14.86,0-7.25-5.19-13.28-12.06-14.59Z"/>
              <g>
                <path class="cls-7" d="m333.69,123.71c0,2.13-1.73,3.86-3.86,3.86s-3.86-1.73-3.86-3.86,1.73-3.86,3.86-3.86,3.86,1.73,3.86,3.86Z"/>
                <circle class="cls-7" cx="365.46" cy="123.71" r="3.86"/>
              </g>
              <path class="cls-7" d="m341.13,136.95c-.13,0-.26-.04-.36-.13l-3.09-2.67c-.21-.18-.25-.48-.1-.71l3.45-5.38,2.22-11.54c.06-.3.35-.49.64-.43.3.06.49.34.44.64l-2.24,11.64c-.01.07-.04.13-.08.19l-3.25,5.07,2.73,2.35c.23.2.25.55.06.77-.11.13-.26.19-.42.19Z"/>
              <path class="cls-7" d="m336.78,139.62l17.81-2.8s1.12,23.42-4.91,24.4c-6.03.98-12.9-21.6-12.9-21.6Z"/>
              <path class="cls-7" d="m416.78,144.56c-.26-2.92-1.75-5.67-3.89-7.68-2.14-2.01-4.9-3.3-7.77-3.91-1.23-.26-2.51-.4-3.75-.22-1.31.2-2.55.76-3.69,1.44-3.59,2.14-6.39,5.43-7.8,9.36-3.51-3.45-7.05-7.24-8.23-12.01-.63-2.56-.53-5.24-.25-7.86.32-2.94.4-5.79,1.9-8.34-5.31-2.6-8.73-8.23-9.65-14.07-.92-5.84.39-11.84,2.61-17.32,7.37-2.76,14.58-5.4,22.3-6.92,2.11-.42,4.09-.89,6.19-.41,6.36,1.44,12.08,5.53,15.51,11.07s4.53,12.49,2.98,18.82c-.11.46-.23.98,0,1.39.18.33.54.51.88.68,7.16,3.66,11.57,12.06,10.52,20.03-1.04,7.97-10.01,14.26-17.87,15.96Z"/>
              <g class="cls-9">
                <path class="cls-4" d="m416.78,144.56c-.26-2.92-1.75-5.67-3.89-7.68-2.14-2.01-4.9-3.3-7.77-3.91-1.23-.26-2.51-.4-3.75-.22-1.31.2-2.55.76-3.69,1.44-3.59,2.14-6.39,5.43-7.8,9.36-3.51-3.45-7.05-7.24-8.23-12.01-.63-2.56-.53-5.24-.25-7.86.32-2.94.4-5.79,1.9-8.34-5.31-2.6-8.73-8.23-9.65-14.07-.92-5.84.39-11.84,2.61-17.32,7.37-2.76,14.58-5.4,22.3-6.92,2.11-.42,4.09-.89,6.19-.41,6.36,1.44,12.08,5.53,15.51,11.07s4.53,12.49,2.98,18.82c-.11.46-.23.98,0,1.39.18.33.54.51.88.68,7.16,3.66,11.57,12.06,10.52,20.03-1.04,7.97-10.01,14.26-17.87,15.96Z"/>
              </g>
              <g>
                <path class="cls-7" d="m394.86,154.89s-.09,0-.13-.01c-.3-.07-.48-.37-.41-.66.99-4.12,2.59-7.52,4.75-10.12,2.61-3.13,6.17-5.12,9.74-5.45.3,0,.57.2.6.5.03.3-.19.57-.5.6-3.29.3-6.57,2.15-9,5.06-2.05,2.46-3.58,5.71-4.52,9.67-.06.25-.29.42-.53.42Z"/>
                <path class="cls-7" d="m407.54,153.49h-.01c-.3,0-.54-.26-.54-.56.04-1.91,0-3.72-1.04-4.97-.89-1.06-2.54-1.61-4.5-1.51-.72.04-3.14.29-3.9,2-.12.27-.45.4-.72.28-.28-.12-.4-.45-.28-.73.68-1.54,2.49-2.53,4.84-2.65,1.36-.07,3.88.08,5.4,1.9,1.39,1.66,1.33,4.09,1.3,5.7,0,.3-.25.54-.55.54Z"/>
              </g>
              <g>
                <path class="cls-7" d="m326.01,107.41c-1.31.54-2.62,1.18-3.39,2.14-.77.96-.84,2.3.19,3.05.84.6,2.14.68,3.33.67,1.39,0,2.78-.08,4.17-.21,1.16-.11,2.32-.27,3.39-.64.76-.27,1.46-.64,2.05-1.09.81-.63,1.43-1.45,1.4-2.31-.03-.86-.73-1.64-1.68-2.1-2.92-1.42-6.52-.7-9.45.5Z"/>
                <path class="cls-7" d="m369.91,107.83c1.31.54,2.62,1.18,3.39,2.14s.84,2.3-.19,3.05c-.84.61-2.14.68-3.33.67-1.39,0-2.78-.08-4.17-.21-1.16-.11-2.32-.27-3.39-.64-.76-.27-1.46-.64-2.05-1.09-.81-.63-1.43-1.45-1.4-2.31.03-.86.73-1.64,1.68-2.1,2.92-1.42,6.52-.7,9.45.5Z"/>
              </g>
              <path class="cls-7" d="m379.25,83.52c-9.56,6.49-22.59,7.5-33.04,2.57-.95-.45-2-1.11-2.11-2.15-2.36,4.25-6.28,7.75-10.99,8.96-4.7,1.22-10.14-.13-13.29-3.83,8.08-11.91,20.49-20.88,34.87-21.65,4.51-.24,9.04.25,13.47,1.14,3.51.71,7.02,1.69,10.09,3.53,4.1,2.45,7.23,6.34,9.33,10.63-2.75.3-6.03-.76-8.33.79Z"/>
              <g class="cls-9">
                <path class="cls-4" d="m379.25,83.52c-9.56,6.49-22.59,7.5-33.04,2.57-.95-.45-2-1.11-2.11-2.15-2.36,4.25-6.28,7.75-10.99,8.96-4.7,1.22-10.14-.13-13.29-3.83,8.08-11.91,20.49-20.88,34.87-21.65,4.51-.24,9.04.25,13.47,1.14,3.51.71,7.02,1.69,10.09,3.53,4.1,2.45,7.23,6.34,9.33,10.63-2.75.3-6.03-.76-8.33.79Z"/>
              </g>
            </g>
            <g>
              <polygon class="cls-6" points="340.99 185.53 369.78 199.36 395.12 178.33 397.34 191.61 391.66 201.04 399.32 203.48 407.92 208.71 372.77 319.78 324.9 205.72 335.51 202.91 343.14 204.04 338.99 195.52 340.99 185.53"/>
              <path class="cls-8" d="m424.84,345.32c-6.74,5.82-10.13,32.29-17.62,37.17-11.8,7.73-24.46,14.24-37.82,19.36-.38.17-.75.3-1.13.43-20.86,7.9-43.36,12.42-66.86,12.91-1.44.04-3.8-12.71-5.26-12.71-7.13,0-13.5-8.85-20.44-9.58l6.94-181.75,21.5-3.34,1.44-.23h.02l24.14-3.73.21.53,27.56,69.96.68,1.71,14,35.55.21.51.15-.51,14.28-46.77s0-.04.02-.06l.92-2.98s.02-.02.02-.04l16.79-55.06.36-1.14,7.3,5.61,2.51,23.9.13,1.26.02.21.17,1.61,2.59,24.46s-.02,0,0,.02l.15,1.39,7.03,81.32Z"/>
              <path class="cls-4" d="m358.93,278.63s-.24,2.14-.9,6.02c-1.35,8.09-4.48,23.81-10.88,43.51-.06.21-.13.41-.21.64-4.69,14.33-11.09,30.73-19.79,47.82-7.64,14.99-16.72,27.86-25.74,38.57-1.44.04-2.93.06-4.39.06-7.13,0-14.16-.38-21.11-1.11-5.68-.58-11.31-1.41-16.85-2.48-.19-.04-.36-.06-.54-.11v-201.53l43.26-4.24,1.48-.15,33.99-3.32.06.19.21.71.21.73,12.94,45.63s0,.02.02.04l7.5,26.43.38,1.33c0,.06.02.11.04.17l.32,1.09Z"/>
              <path class="cls-4" d="m473.37,238.63l-2.96,77.93v.06l-.02.02c-.11.23-.24.43-.38.64v.04c-.88,1.44-1.78,2.89-2.68,4.3l.1.16c-10.66,16.79-23.87,31.75-38.86,44.65-6.74,5.82-13.86,11.18-21.35,16.06-6.92-17.54-13.08-36.51-16.75-55.27-.26-1.28-.51-2.59-.73-3.85.02-.04.02-.06,0-.08-.47-2.68-.9-5.35-1.26-8.01-1.89-13.86-2.27-27.28-1.71-39.72v-.04c.21-4.73.54-9.34.99-13.75t.02-.04c.11-1.26.26-2.46.39-3.68-.02-.04-.02-.06,0-.08.36-3,.75-5.89,1.18-8.7v-.06c3.62-23.99,9.62-41.03,11.12-45.04.21-.6.34-.9.34-.9l33.79,16.47,1.11.53,37.65,18.35Z"/>
              <path class="cls-4" d="m494.77,254.3c-4.61,22.47-12.94,43.54-24.34,62.63v.06l-.02.02c-.11.23-.25.43-.38.64v.04c-.89,1.45-1.79,2.9-2.7,4.32l6.08-83.37,21.36,15.66Z"/>
              <polygon class="cls-4" points="258.53 210.02 185.61 220.12 93.61 174.12 65.57 240.87 177.75 307.62 274.23 313.23 258.53 210.02"/>
              <g>
                <path class="cls-7" d="m339.02,195.44s24.96-.28,29.17,19.63c0,0,6.17-24.4,29.17-23.56l1.96,11.97-24.68,14.12s14.3,7.85,14.86,26.92c.56,19.07-16.83,69.56-16.83,69.56,0,0-22.44-52.73-22.72-70.96-.28-18.23,12.62-25.52,12.62-25.52l-25.52-14.02,1.96-8.13Z"/>
                <path class="cls-7" d="m390.35,327.24c-.29,0-.54-.23-.55-.53-1.57-43.34,35.48-71.54,40.61-75.23l-16.86-14.68c-.12-.11-.19-.27-.19-.43,0-.16.08-.32.21-.42l21.88-16.83c.24-.18.59-.14.77.1.19.24.14.59-.1.77l-21.35,16.42,16.88,14.7c.13.11.2.28.19.45-.01.17-.1.33-.24.42-.42.28-42.36,28.98-40.71,74.69.01.3-.23.56-.53.57h-.02Z"/>
                <path class="cls-7" d="m346.59,328.93h0c-.3,0-.55-.25-.54-.56.55-57.38-44.76-91.77-45.21-92.11-.16-.12-.24-.31-.22-.51.02-.19.15-.36.33-.44l23.86-10.31-22.87-19.06c-.23-.19-.26-.54-.07-.77.2-.23.54-.26.77-.07l23.56,19.63c.15.12.22.31.19.5-.03.19-.15.35-.33.43l-23.83,10.29c5.93,4.76,45.44,38.55,44.92,92.42,0,.3-.25.54-.55.54Z"/>
                <path class="cls-7" d="m372.95,312.14l-.06,1.31-.23,6.04v.02l-3.26,82.34c-.38.17-.75.3-1.13.43l3.36-85.21v-.02l.21-4.97v-.02c.02-.21.15-.39.36-.47.07-.04.15-.04.23-.04.04,0,.09.02.13.04.24.06.41.28.39.54Z"/>
                <path class="cls-7" d="m259.07,285.18v126.48c-.19-.04-.36-.06-.54-.11-.11-.02-.24-.04-.36-.06-.06-.02-.13-.02-.19-.04v-126.28c0-.3.24-.54.54-.54s.54.24.54.54Z"/>
              </g>
            </g>
          </g>
        </g>
        <polygon class="cls-8" points="160.17 157.58 165.87 122.71 172.07 156.78 206.08 156.25 178.58 169.64 184.7 194.45 165.91 173.45 147.3 192.44 154.94 168.24 130.76 160.9 160.17 157.58"/>
        <polygon class="cls-8" points="199.44 318.52 205.14 283.65 211.35 317.72 245.35 317.19 217.86 330.58 223.97 355.39 205.18 334.39 186.58 353.38 194.22 329.18 170.03 321.84 199.44 318.52"/>
      </g>
    </g>
  </g>
</svg>