<?xml version="1.0" encoding="UTF-8"?>
<svg id="_Слой_2" data-name="Слой 2" xmlns="http://www.w3.org/2000/svg" viewBox="0 0 200.23 221.5">
  <defs>
    <style>
      .cls-1, .cls-2, .cls-3 {
        fill: #fff;
      }

      .cls-4 {
        fill: #00d4fc;
      }

      .cls-5, .cls-2, .cls-6 {
        opacity: .5;
      }

      .cls-5, .cls-7 {
        fill: #e38921;
      }

      .cls-8, .cls-9, .cls-10 {
        fill: #3c1da1;
      }

      .cls-11, .cls-6 {
        fill: #d811ad;
      }

      .cls-9, .cls-12 {
        opacity: .45;
      }

      .cls-13 {
        fill: #845ef9;
      }

      .cls-14, .cls-15 {
        fill: #0a1640;
      }

      .cls-3 {
        opacity: .75;
      }

      .cls-15, .cls-10, .cls-16 {
        opacity: .25;
      }

      .cls-17 {
        fill: #ffce00;
      }

      .cls-18 {
        fill: #ff8cdb;
      }
    </style>
  </defs>
  <g id="OBJECTS">
    <g>
      <g>
        <g>
          <g>
            <path class="cls-17" d="m171.52,122.56v96.32c0,1.06-.86,1.92-1.92,1.92h-49.48c-1.06,0-1.92-.86-1.92-1.92v-96.32c0-1.06.86-1.92,1.92-1.92h49.48c1.06,0,1.92.86,1.92,1.92Z"/>
            <path class="cls-5" d="m171.52,122.56v96.32c0,1.06-.86,1.92-1.92,1.92h-49.48c-1.06,0-1.92-.86-1.92-1.92v-3.21c0-7.86,7.71-8.87,13.96-8.76,10.81.18,28.09,7.53,28.24-24.79.16-33.92-1.67-44.74,1.38-55.58.77-2.73,2.46-4.65,5.25-5.55,1.49-.48,4.48-.74,4.48,1.57Z"/>
            <path class="cls-4" d="m177.65,118.35v3.02c0,.63-.5,1.13-1.13,1.13h-63.32c-.62,0-1.13-.5-1.13-1.13v-3.02c0-.63.5-1.13,1.13-1.13h63.32c.62,0,1.13.5,1.13,1.13Z"/>
            <path class="cls-10" d="m177.65,118.35v3.02c0,.63-.5,1.13-1.13,1.13h-36.55c2.88-1.5,5.61-3.28,8.16-5.29h28.38c.62,0,1.13.5,1.13,1.13Z"/>
            <path class="cls-3" d="m123.57,127.93c7.32-.92,20.22-.95,27.56-.04.37.05.64.39.59.76-.04.32-.29.55-.59.59-7.38.91-20.27.88-27.56-.04-.74-.09-.74-1.18,0-1.27Z"/>
          </g>
          <path class="cls-14" d="m176.52,116.53h-63.32c-1,0-1.82.82-1.82,1.82v3.03c0,1,.82,1.82,1.82,1.82h4.31v95.69c0,1.44,1.17,2.61,2.61,2.61h49.48c1.44,0,2.62-1.17,2.62-2.61v-95.69h4.3c1.01,0,1.82-.82,1.82-1.82v-3.03c0-1-.81-1.82-1.82-1.82Zm-5.69,102.36c0,.68-.55,1.23-1.23,1.23h-49.48c-.68,0-1.22-.55-1.22-1.23v-95.69h51.93v95.69Zm6.13-97.51c0,.24-.19.43-.44.43h-63.32c-.24,0-.43-.19-.43-.43v-3.03c0-.24.19-.43.43-.43h63.32c.25,0,.44.19.44.43v3.03Z"/>
        </g>
        <g>
          <g>
            <g>
              <path class="cls-11" d="m145.71,54.98c.97,0,1.91.15,2.8.44.1.03.2.07.3.11.12-.37.18-.77.18-1.19,0-2.02-1.47-3.65-3.29-3.65s-3.28,1.63-3.28,3.65c0,.41.06.81.18,1.18.98-.35,2.02-.54,3.11-.54Z"/>
              <path class="cls-11" d="m155.84,65.45c-2.35-1.96-6.38-2.37-9.23-2.38-.42,0-.88,0-1.36.02-3.14.07-7.33.48-9.71,2.45-1.15.94-1.88,2.24-1.88,4.04v.06c4.24-1.55,8.83-1.83,11.59-1.83s5.46.24,7.97.69c1.64.3,3.15.7,4.52,1.18,0-.03,0-.07,0-.1,0-1.84-.75-3.18-1.91-4.13Z"/>
            </g>
            <g>
              <path class="cls-13" d="m146.61,63.07c2.85.01,6.88.42,9.23,2.38-.3-4.67-3.16-8.56-7.03-9.92-.1-.04-.2-.08-.3-.11-.89-.29-1.83-.44-2.8-.44-1.09,0-2.13.19-3.11.54-3.9,1.39-6.77,5.31-7.06,10.02,2.38-1.97,6.57-2.38,9.71-2.45.48-.02.94-.02,1.36-.02Z"/>
              <path class="cls-13" d="m167.3,79.72c-.9-4.32-3.66-7.52-8.21-9.51-.43-.19-.88-.36-1.35-.53-1.37-.48-2.88-.88-4.52-1.18-2.51-.45-5.27-.69-7.97-.69s-7.35.28-11.59,1.83c-4.4,1.61-8.41,4.6-9.55,10.08-1.28,6.17-.87,13.26,1.08,18.97,1.53,4.47,3.89,7.91,7.02,10.19.47.35.99.66,1.52.97l-.42,2.78c-.37,2.42,1.5,4.6,3.95,4.6h16.89c2.44,0,4.32-2.18,3.95-4.6l-.42-2.78c.53-.3,1.04-.62,1.52-.97,8.06-5.88,10.17-19.12,8.1-29.16Z"/>
            </g>
            <path class="cls-2" d="m147.74,71.98c.31.08.5.41.41.72-.12.43-.65.47-.55.43-2.58.21-11.45-.19-16.69,2.84l-.09.05c-.26.15-.59.06-.74-.2-.83-1.43,7.29-6.66,17.66-3.84Z"/>
            <g>
              <path class="cls-8" d="m164.76,83.34c-.71-1.45-2.21-2.38-3.92-2.43-1.87-.07-3.56.65-4.9,2.04-1.59,1.65-2.48,4.15-2.32,6.53.17,2.49,1.3,4.56,2.39,6.56.52.96,1.07,1.95,1.49,2.97.92,2.23.28,5.38-2.36,6.59-1.78.82-3.65.16-4.73-.84-1.14-1.07-1.48-2.5-.93-3.92.4-1.05,1.43-1.8,2.49-1.84.75-.03,1.63.39,2.07,1,.29.4.35.82.19,1.25-.17.46-.66.78-1.09.78-.23,0-.59-.16-.75-.38-.07-.1-.06-.15-.05-.17.1-.37-.12-.75-.49-.85-.37-.1-.75.12-.85.49-.13.47-.03.95.28,1.37.4.54,1.16.92,1.83.93.02,0,.03,0,.05,0,1.03,0,2-.69,2.37-1.69.32-.87.19-1.77-.37-2.54-.71-.98-2-1.61-3.24-1.57-1.6.06-3.14,1.18-3.74,2.73-.75,1.95-.28,3.98,1.27,5.43,1.1,1.04,2.55,1.58,3.99,1.58.78,0,1.55-.16,2.27-.49,3.02-1.39,4.39-5.14,3.06-8.37-.45-1.09-1.01-2.11-1.55-3.1-1.07-1.96-2.08-3.8-2.22-5.99-.13-2,.61-4.1,1.93-5.47.74-.77,2.01-1.66,3.86-1.62,1.19.03,2.23.67,2.71,1.66.4.81.33,1.71-.17,2.4-.54.74-1.64,1.02-2.4.62-.51-.27-.83-.88-.71-1.35.06-.21.25-.42.49-.52.09-.04.32-.11.5,0,.33.2.75.09.95-.24.2-.33.09-.75-.24-.95-.51-.3-1.14-.34-1.73-.09-.65.27-1.14.81-1.3,1.45-.28,1.09.32,2.35,1.4,2.92,1.36.72,3.23.27,4.17-1.02.81-1.11.92-2.54.29-3.82Z"/>
              <path class="cls-8" d="m139.46,97.59c-1.23-.04-2.53.59-3.24,1.57-.56.77-.69,1.67-.37,2.54.37,1,1.34,1.69,2.37,1.69.01,0,.03,0,.05,0,.68-.01,1.43-.4,1.83-.93.31-.41.41-.9.28-1.37-.1-.37-.48-.58-.85-.49-.37.1-.59.48-.49.85,0,.02.02.07-.05.17-.17.22-.52.37-.75.38h-.02c-.45,0-.9-.33-1.07-.78-.16-.43-.1-.85.19-1.25.44-.6,1.3-1.01,2.07-1,1.06.04,2.09.79,2.49,1.84.55,1.42.21,2.85-.93,3.92-1.07,1.01-2.95,1.66-4.73.84-2.63-1.21-3.28-4.36-2.36-6.59.42-1.02.96-2.01,1.49-2.97,1.09-2,2.22-4.07,2.39-6.56.16-2.38-.73-4.88-2.32-6.53-1.34-1.39-3.02-2.11-4.9-2.04-1.7.05-3.2.98-3.92,2.43-.63,1.28-.52,2.71.29,3.82.94,1.29,2.81,1.75,4.17,1.02,1.08-.58,1.68-1.83,1.4-2.93-.17-.64-.65-1.18-1.3-1.45-.59-.24-1.23-.21-1.73.09-.33.2-.44.62-.24.95.2.33.62.44.95.24.18-.11.41-.04.5,0,.24.1.43.3.49.52.12.47-.2,1.08-.71,1.35-.76.4-1.86.12-2.39-.62-.5-.69-.57-1.58-.17-2.4.48-.99,1.52-1.62,2.71-1.66,1.85-.05,3.12.85,3.86,1.62,1.33,1.38,2.07,3.47,1.93,5.47-.15,2.18-1.15,4.03-2.22,5.99-.54.99-1.1,2.02-1.55,3.1-1.33,3.23.04,6.99,3.06,8.37.72.33,1.49.49,2.27.49,1.44,0,2.88-.55,3.99-1.58,1.55-1.45,2.02-3.49,1.27-5.43-.6-1.55-2.13-2.67-3.74-2.73Z"/>
              <path class="cls-8" d="m150.63,94.89c.08,0,.17-.01.25-.05.36-.14.53-.54.4-.9-1.23-3.2-1.87-7.75.03-10.93,1.7-2.83,4.83-4.63,8.18-4.7.38,0,.69-.32.68-.71,0-.38-.32-.68-.69-.68,0,0,0,0-.01,0-3.82.07-7.4,2.13-9.34,5.37-2.16,3.6-1.48,8.63-.13,12.14.11.27.37.44.65.44Z"/>
              <path class="cls-8" d="m131.93,78.33c3.35.06,6.48,1.86,8.18,4.7,1.9,3.17,1.26,7.72.03,10.93-.14.36.04.76.4.9.08.03.17.05.25.05.28,0,.54-.17.65-.44,1.35-3.51,2.03-8.53-.13-12.14-1.94-3.24-5.52-5.3-9.34-5.37,0,0,0,0-.01,0-.38,0-.68.3-.69.68,0,.38.3.7.68.71Z"/>
            </g>
            <g class="cls-16">
              <path class="cls-14" d="m155.84,65.45c-.31-4.79-3.31-8.76-7.33-10.03-.47,2.76-1.57,5.41-3.25,7.66h0c.48-.01.94-.01,1.36-.01,2.85.01,6.88.42,9.23,2.38Z"/>
              <path class="cls-14" d="m166.62,79.86c-.95-4.58-4-7.35-7.8-9.01-.18.27-.35.55-.51.83-5.6,9.73,1.49,23.75-11.15,29.32-4.37,1.92-9.58,1.7-13.88-.35-2.24-1.06-4.49-2.63-6.94-2.28-.16.02-.32.06-.48.09,1.36,3.98,3.56,7.51,6.78,9.86,3.33,2.43,8.05,3.66,12.8,3.71-.29,0-.58,0-.86-.02-.38.45-.79.89-1.22,1.31-1.21,1.19-2.6,2.28-4.12,3.2-.39.24-.79.47-1.2.69h16.13c2.44,0,4.32-2.17,3.95-4.59l-.31-2.05-.22-1.46s-.02,0-.02.01c.43-.25.85-.52,1.24-.81,8.1-5.91,9.72-19.29,7.83-28.47Z"/>
            </g>
          </g>
          <path class="cls-14" d="m167.97,79.58c-.94-4.55-3.83-7.92-8.6-10-.3-.13-.62-.26-.94-.38-.08-1.67-.74-3.05-1.92-4.11-.4-4.48-3.09-8.37-6.89-10,.04-.24.06-.49.06-.75,0-2.39-1.78-4.35-3.98-4.35s-3.98,1.96-3.98,4.35c0,.26.02.51.06.76-3.76,1.62-6.52,5.48-6.9,10.09-.08.07-.16.14-.24.22-1.01,1.01-1.56,2.26-1.65,3.73-5.22,2.05-8.56,5.62-9.56,10.44-1.3,6.29-.89,13.52,1.11,19.33,1.57,4.62,4.01,8.16,7.27,10.53.37.27.75.53,1.16.77l-.35,2.31c-.2,1.36.19,2.73,1.08,3.76.89,1.04,2.19,1.64,3.56,1.64h16.89c1.37,0,2.66-.6,3.55-1.64.89-1.03,1.29-2.4,1.08-3.76l-.34-2.31c.4-.24.79-.5,1.16-.77,8.3-6.06,10.49-19.61,8.37-29.86Zm-24.86-25.24c0-1.63,1.16-2.96,2.59-2.96s2.6,1.33,2.6,2.96c0,.1,0,.2-.01.3-.84-.23-1.7-.35-2.58-.35s-1.76.12-2.59.35c0-.1,0-.2,0-.3Zm-.9,2.09c.42-.2.86-.36,1.32-.47.7-.19,1.43-.29,2.18-.29s1.47.1,2.17.29c.14.03.28.08.42.12.3.1.6.21.89.34,2.94,1.3,5.09,4.18,5.76,7.59-1.99-1.07-4.8-1.63-8.34-1.63-3.14,0-7.29.2-10.2,1.75.66-3.52,2.87-6.4,5.8-7.7Zm-7.33,10.94c.19-.35.44-.68.74-.98.18-.18.38-.35.6-.51,2.77-2.03,7.98-2.11,10.11-2.11h.28c2.58,0,6.33.34,8.56,2.03.57.43,1.04.95,1.36,1.57.22.4.38.85.46,1.34-.2-.07-.4-.13-.6-.18-.44-.13-.89-.25-1.35-.36-.55-.13-1.12-.24-1.7-.35-2.55-.46-5.35-.71-8.09-.71-3.29,0-6.27.33-8.9.98-.46.1-.91.22-1.34.35-.2.06-.38.11-.57.18.08-.45.23-.87.44-1.25Zm21.77,48.01c-.63.73-1.54,1.15-2.5,1.15h-16.89c-.96,0-1.88-.42-2.51-1.15-.62-.73-.9-1.7-.76-2.65l.27-1.8c2.6,1.3,5.74,2.14,9.08,2.4.78.07,1.56.1,2.36.1,4.2,0,8.23-.89,11.44-2.5l.27,1.8c.15.95-.13,1.92-.76,2.65Zm2.14-7.06c-.19.14-.38.27-.58.4-.21.14-.42.27-.64.4-.21.12-.42.25-.64.35-3.2,1.72-7.22,2.57-11.23,2.57-.38,0-.76-.01-1.14-.02-3.63-.15-7.19-.99-10.08-2.54-.44-.23-.87-.49-1.28-.76-.2-.13-.39-.26-.58-.4-3.22-2.35-5.42-5.88-6.77-9.86-2.07-6.02-2.21-13.07-1.06-18.6.96-4.65,4.17-7.56,8.27-9.26.43-.18.87-.34,1.32-.5l.93-.3c.44-.13.88-.24,1.33-.35,2.78-.68,5.76-.95,8.61-.95s5.56.27,7.84.68c.55.1,1.1.21,1.65.34.45.11.9.23,1.35.36.31.09.62.18.93.29.45.15.89.31,1.32.49.16.06.32.12.47.19,3.81,1.66,6.86,4.43,7.81,9.01,1.89,9.17.26,22.55-7.83,28.46Z"/>
        </g>
      </g>
      <g>
        <g>
          <g>
            <path class="cls-4" d="m77.83,105.87v113.01c0,1.07-.86,1.92-1.92,1.92H8.74c-1.05,0-1.91-.85-1.91-1.92v-113.01c0-1.06.85-1.92,1.91-1.92h67.17c1.06,0,1.92.85,1.92,1.92Z"/>
            <g class="cls-12">
              <path class="cls-8" d="m35.45,128.54v92.26h-13.98v-92.26c0-1.92.78-3.68,2.05-4.94,1.26-1.26,3.02-2.05,4.94-2.05,3.86,0,6.99,3.13,6.99,6.99Z"/>
              <path class="cls-8" d="m63.19,128.54v92.26h-13.98v-92.26c0-1.92.78-3.68,2.05-4.94,1.26-1.26,3.01-2.05,4.94-2.05,3.86,0,6.99,3.13,6.99,6.99Z"/>
            </g>
            <path class="cls-10" d="m77.83,105.87v113.01c0,1.06-.86,1.92-1.92,1.92H8.74c-1.06,0-1.92-.86-1.92-1.92v-3.38c0-8.92,11.22-8.36,17.49-8.34,10.14.04,25.23,3.26,33.62-3.35,7.55-5.94,9.12-23.1,8.67-33.87-.81-19.03-.33-38.99.84-58.03.47-7.7,10.4-10.05,10.4-6.04Z"/>
            <path class="cls-11" d="m83.96,101.66v3.02c0,.63-.5,1.13-1.13,1.13H1.82c-.62,0-1.13-.5-1.13-1.13v-3.02c0-.63.5-1.13,1.13-1.13h81.01c.62,0,1.13.5,1.13,1.13Z"/>
            <path class="cls-15" d="m83.96,101.66v3.02c0,.63-.5,1.13-1.13,1.13h-36.55c2.88-1.5,5.61-3.28,8.16-5.29h28.38c.62,0,1.13.5,1.13,1.13Z"/>
            <path class="cls-3" d="m12.19,111.24c7.54-.55,15.08-.68,22.62-.71,7.54.01,15.08.13,22.62.67.37.03.65.35.63.72-.02.34-.3.6-.63.63-7.54.54-15.08.66-22.62.67-7.54-.03-15.08-.16-22.62-.71-.35-.03-.61-.33-.59-.68.02-.32.28-.57.59-.59Z"/>
          </g>
          <path class="cls-14" d="m82.83,99.84H1.82c-1,0-1.82.82-1.82,1.83v3.02c0,1,.82,1.82,1.82,1.82h4.31v112.37c0,1.45,1.17,2.62,2.61,2.62h67.17c1.44,0,2.62-1.17,2.62-2.62v-112.37h4.3c1.01,0,1.82-.82,1.82-1.82v-3.02c0-1.01-.81-1.83-1.82-1.83Zm-5.69,119.04c0,.68-.55,1.24-1.23,1.24H8.74c-.67,0-1.22-.56-1.22-1.24v-112.37h69.62v112.37Zm6.13-114.19c0,.24-.2.44-.44.44H1.82c-.24,0-.43-.2-.43-.44v-3.02c0-.25.19-.44.43-.44h81.01c.24,0,.44.19.44.44v3.02Z"/>
        </g>
        <g>
          <g>
            <g>
              <path class="cls-17" d="m78.32,68.43c-.77-8.43-5.52-12.3-10.04-14.07-.55-.22-1.1-.41-1.64-.57-.75-.22-1.24-.95-1.12-1.73l1.02-7.08.43-2.93c.2-1.35-.85-2.56-2.21-2.56h-10.33c-1.36,0-2.41,1.21-2.21,2.56l.42,2.93,1.02,7.09c.11.77-.37,1.5-1.12,1.72-4.95,1.46-10.82,5.18-11.68,14.63-.7,7.61,1.26,14,3.6,18.7,1.27,2.55,2.65,4.59,3.77,6.07.72.95,1.66,1.67,2.72,2.14-.19.33-.31.7-.31,1.11v2.19c0,1.22.99,2.19,2.19,2.19h13.53c1.22,0,2.19-.98,2.19-2.19v-2.19c0-.41-.12-.78-.31-1.11,1.04-.46,1.97-1.17,2.69-2.1,3.21-4.19,8.47-13.04,7.41-24.82Z"/>
              <path class="cls-5" d="m78.32,68.43c-.77-8.43-5.52-12.3-10.04-14.07-.15.09-.29.2-.43.31-4.85,4.1,1.08,14.63-.3,21.97-1.09,5.77-6.13,8.99-11.46,9.13-3.76.1-8.51-.62-11.65,1.36,1.28,2.57,2.67,4.63,3.81,6.12,1.3,1.71,3.34,2.7,5.48,2.7h5.8c-.59,1.69-1.33,3.34-2.23,4.9h9.04c1.22,0,2.19-.98,2.19-2.19v-2.19c0-.41-.12-.78-.31-1.11,1.04-.46,1.97-1.17,2.69-2.1,3.21-4.19,8.47-13.04,7.41-24.82Z"/>
              <path class="cls-7" d="m57.4,55.51c-.99-.23-2.78-.81-2.23-1.67.17-.27.56-.32.46-.28,2.57-.3,8.28.05,7.91.04.32.04.54.33.5.64-.1.84-3.58,2.03-6.64,1.27Z"/>
              <g>
                <path class="cls-11" d="m52.62,44.98h13.92l.43-2.93c.2-1.35-.85-2.56-2.22-2.56h-10.32c-1.36,0-2.41,1.21-2.21,2.56l.42,2.93Z"/>
                <path class="cls-11" d="m45.96,62.78c.94.22,1.87-.42,2.85-1.1.76-.53,1.63-1.11,2.18-1.04.38.06.96.82,1.42,1.43.77,1.02,1.58,2.07,2.72,2.15.04,0,.09,0,.13,0,.96,0,1.81-.81,2.63-1.6.64-.62,1.37-1.31,1.88-1.32h0c.48,0,1.22.72,1.81,1.3.84.82,1.71,1.66,2.71,1.59,1.12-.09,1.89-1.14,2.64-2.16.42-.58,1-1.36,1.36-1.42.52-.08,1.36.51,2.1,1.04.97.69,1.88,1.34,2.81,1.12.37-.09.6-.46.51-.84-.09-.37-.47-.6-.84-.51-.31.08-1.14-.51-1.68-.9-1-.71-2.04-1.45-3.12-1.28-.92.15-1.57,1.03-2.25,1.97-.51.69-1.14,1.56-1.63,1.6-.37.04-1.1-.68-1.63-1.2-.85-.83-1.74-1.69-2.78-1.69h0c-1.06,0-1.96.87-2.83,1.7-.58.55-1.29,1.26-1.69,1.21-.52-.04-1.16-.87-1.72-1.61-.71-.93-1.38-1.81-2.31-1.96-1.11-.18-2.21.59-3.19,1.26-.6.41-1.41.97-1.74.89-.37-.09-.75.14-.84.51-.09.37.14.75.51.83Z"/>
                <path class="cls-11" d="m71.16,88.11s0,0-.01,0c-.26,0-.98-.6-1.38-.92-.91-.75-1.86-1.52-2.86-1.36-.86.14-1.43,1.03-2.03,1.98-.38.59-.94,1.49-1.29,1.52,0,0,0,0,0,0-.26,0-.97-.79-1.31-1.18-.76-.86-1.55-1.74-2.52-1.74h0c-.99,0-1.79.89-2.57,1.75-.38.42-1.1,1.2-1.37,1.19-.38-.03-.98-.93-1.37-1.53-.62-.94-1.2-1.83-2.08-1.97-1.02-.16-1.99.61-2.92,1.35-.42.33-1.19.94-1.43.92-.37-.09-.75.14-.84.51-.09.37.14.75.51.84.88.21,1.72-.47,2.62-1.18.6-.48,1.42-1.13,1.84-1.07.27.04.81.87,1.13,1.36.67,1.02,1.37,2.07,2.42,2.15.04,0,.08,0,.12,0,.89,0,1.62-.8,2.39-1.64.49-.55,1.17-1.29,1.55-1.29h0c.35,0,1.04.77,1.49,1.28.78.88,1.52,1.71,2.46,1.64,1.04-.08,1.71-1.14,2.35-2.16.29-.46.83-1.31,1.07-1.35.38-.07,1.19.59,1.77,1.07.88.72,1.71,1.41,2.59,1.2.37-.09.6-.46.52-.84-.09-.37-.46-.6-.83-.51Z"/>
                <path class="cls-11" d="m76.43,75.13c-.09-.37-.47-.6-.84-.51-.48.12-1.37-.4-2.16-.85-1.09-.63-2.32-1.34-3.53-1.15-1.01.16-1.83,1.08-2.62,1.97-.72.81-1.47,1.65-2.16,1.71-.55.05-1.35-.6-2.13-1.22-.99-.8-2.02-1.63-3.18-1.63h0c-1.18,0-2.23.84-3.25,1.64-.8.63-1.62,1.29-2.2,1.24-.73-.06-1.52-.9-2.27-1.72-.81-.88-1.66-1.79-2.68-1.95-1.23-.19-2.5.51-3.61,1.13-.85.47-1.73.97-2.23.84-.37-.09-.75.14-.84.51-.09.37.14.75.51.84,1.03.24,2.1-.35,3.23-.98.96-.54,1.95-1.09,2.72-.97.55.09,1.22.82,1.88,1.53.94,1.01,1.91,2.06,3.18,2.16.05,0,.11,0,.16,0,1.06,0,2.05-.78,3.01-1.54.83-.66,1.69-1.34,2.4-1.34h0c.67,0,1.5.67,2.31,1.32.99.79,2,1.61,3.11,1.53,1.25-.1,2.18-1.15,3.09-2.17.63-.71,1.28-1.44,1.8-1.52.73-.11,1.69.44,2.62.98,1.11.64,2.16,1.25,3.17,1,.37-.09.6-.46.51-.84Z"/>
              </g>
              <g>
                <path class="cls-13" d="m72.91,67.65c-.22-1.1-1.31-1.81-2.44-1.62-1.13.18-1.94,1.2-1.8,2.31.14,1.11,1.24,1.88,2.45,1.69,1.21-.2,2.01-1.28,1.79-2.37Z"/>
                <path class="cls-13" d="m63.22,66.81c-1.14.06-2.06.98-2.04,2.1.02,1.12,1.03,2,2.25,1.94,1.22-.07,2.13-1.06,2.03-2.17-.1-1.12-1.11-1.94-2.25-1.87Z"/>
                <path class="cls-13" d="m55.72,70.85c1.22.07,2.23-.82,2.25-1.94.02-1.12-.89-2.04-2.04-2.1-1.14-.06-2.15.76-2.25,1.88-.1,1.11.81,2.1,2.03,2.17Z"/>
                <path class="cls-13" d="m50.48,68.34c.14-1.11-.67-2.13-1.8-2.31-1.13-.18-2.22.53-2.44,1.62-.22,1.1.58,2.18,1.79,2.37,1.21.19,2.31-.58,2.45-1.69Z"/>
                <path class="cls-13" d="m69.97,79.11c-1.08.14-1.87,1.13-1.76,2.24.11,1.11,1.13,1.92,2.28,1.77,1.15-.15,1.93-1.19,1.75-2.3-.18-1.1-1.19-1.86-2.28-1.72Z"/>
                <path class="cls-13" d="m63.05,79.71c-1.09.05-1.96.97-1.95,2.08.02,1.12.97,2.01,2.12,1.96,1.15-.05,2.02-1.02,1.94-2.14-.08-1.12-1.03-1.96-2.12-1.91Z"/>
                <path class="cls-13" d="m56.11,79.71c-1.09-.05-2.04.79-2.12,1.91-.08,1.11.79,2.09,1.94,2.13,1.15.05,2.1-.84,2.12-1.96.02-1.12-.86-2.04-1.95-2.08Z"/>
                <path class="cls-13" d="m49.19,79.11c-1.08-.14-2.1.61-2.28,1.72-.18,1.1.61,2.15,1.75,2.3,1.15.15,2.17-.66,2.28-1.77.11-1.11-.68-2.11-1.76-2.25Z"/>
              </g>
              <path class="cls-1" d="m45.25,71.35v.06c-.11.65-1.05.65-1.16,0-1.19-7.59,4.19-13.63,10-15.22.6-.16.96.64.45.98-7.22,4.78-8.5,9.31-9.29,14.18Z"/>
            </g>
            <path class="cls-14" d="m79.01,68.37c-.83-9.04-6.16-12.96-10.48-14.65-.54-.21-1.11-.41-1.7-.58-.43-.13-.69-.54-.63-.97l1.02-7.08.43-2.93c.12-.85-.13-1.7-.69-2.34-.56-.65-1.37-1.02-2.22-1.02h-10.33c-.85,0-1.66.37-2.21,1.02-.56.64-.81,1.49-.69,2.33l.42,2.93s0,.03.01.04l1.02,7.06c.06.43-.21.83-.64.95-5.05,1.5-11.27,5.35-12.17,15.24-.6,6.55.64,12.97,3.67,19.07,1.09,2.18,2.38,4.26,3.84,6.18.65.84,1.46,1.54,2.38,2.05-.07.25-.11.51-.11.79v2.19c0,1.59,1.29,2.89,2.88,2.89h13.53c1.59,0,2.89-1.3,2.89-2.89v-2.19c0-.27-.04-.53-.11-.77.9-.49,1.7-1.17,2.34-2.02,3.29-4.3,8.64-13.29,7.55-25.3Zm-25.76-27.65c.29-.34.71-.53,1.16-.53h10.33c.45,0,.87.19,1.17.53.19.22.31.47.36.75.03.16.03.32,0,.49l-.34,2.33h-12.72l-.34-2.33c-.06-.45.07-.9.37-1.24Zm14.59,57.93c0,.83-.67,1.5-1.5,1.5h-13.53c-.82,0-1.5-.67-1.5-1.5v-2.19c0-.08.01-.15.02-.22.77.26,1.58.4,2.4.4h11.69c.83,0,1.64-.13,2.4-.38.02.06.02.13.02.2v2.19Zm2.52-5.82c-.53.69-1.19,1.26-1.93,1.65-.46.27-.96.47-1.49.6-.49.12-1,.18-1.52.18h-11.69c-.51,0-1.02-.06-1.5-.19-.53-.13-1.04-.33-1.51-.6-.74-.41-1.42-.98-1.95-1.69-1.41-1.85-2.66-3.85-3.71-5.96-2.92-5.87-4.1-12.03-3.53-18.33.83-9.11,6.54-12.66,11.18-14.03,1.1-.32,1.78-1.36,1.62-2.48l-.91-6.3h12.32l-.91,6.29c-.16,1.12.51,2.17,1.61,2.49.54.16,1.08.35,1.59.55,5.76,2.25,8.99,6.79,9.6,13.48,1.04,11.54-4.11,20.2-7.27,24.34Z"/>
          </g>
          <g>
            <g>
              <path class="cls-8" d="m33.92,86.11c-1.06,5.03-3.91,8.95-7.15,12.67-.97,1.12-2.38,1.76-3.87,1.76h-5.19c-1.48,0-2.89-.63-3.87-1.76-1.99-2.3-3.84-4.66-5.21-7.31-.86-1.66-1.54-3.43-1.94-5.37-2.18-10.39,3.1-17.38,9.72-19.41l-.36-7.4-.22-4.33c-.04-.96.72-1.76,1.68-1.76h5.58c.96,0,1.73.8,1.67,1.76l-.21,4.32-.36,7.33c1.33.38,2.63.99,3.84,1.82,1.17.8,2.28,1.82,3.23,3.07,3.21,4.11,3.69,9.62,2.65,14.59Z"/>
              <path class="cls-15" d="m33.92,86.11c-1.06,5.03-3.91,8.95-7.15,12.68-.97,1.12-2.38,1.76-3.87,1.76h-5.19c-1.47,0-2.89-.64-3.87-1.76-1.99-2.29-3.84-4.66-5.2-7.3.74-.01,1.49.04,2.22.06,2.93.09,5.93-.28,8.57-1.57,2.64-1.27,4.88-3.55,5.67-6.37,1.1-3.89-.64-8.23.77-12.04.43-1.2,1.21-2.26,2.17-3.11,1.17.8,2.27,1.82,3.23,3.07,3.21,4.11,3.7,9.63,2.66,14.58Z"/>
              <path class="cls-4" d="m24.77,54.97l-.21,4.32h-8.51l-.22-4.33c-.04-.96.72-1.76,1.68-1.76h5.58c.96,0,1.73.8,1.67,1.76Z"/>
              <path class="cls-2" d="m14.68,73.96c-3.77,3.72-3.48,7.51-3.75,9.33v.1c-.1.62-.98.67-1.15.07-1.8-6.53,2.3-11.73,7.3-12.72.58-.12.91.66.41.99,0,0-1.96,1.4-2.82,2.23Z"/>
            </g>
            <path class="cls-14" d="m31.82,71.1c-.97-1.27-2.11-2.35-3.39-3.22-1.1-.76-2.28-1.35-3.51-1.76l.33-6.78s0-.01,0-.02l.21-4.32c0-.12,0-.23-.02-.34,0-.05,0-.09,0-.14-.01-.1-.05-.19-.07-.28-.02-.06-.02-.12-.05-.18-.03-.09-.08-.18-.13-.27-.03-.05-.05-.11-.08-.16-.08-.14-.18-.26-.3-.38-.45-.47-1.08-.74-1.72-.74h-5.58c-.65,0-1.26.26-1.71.73-.45.47-.69,1.09-.66,1.75l.56,11.2c-6.53,2.27-11.95,9.24-9.68,20.05.4,1.9,1.05,3.71,2.01,5.54,1.49,2.9,3.52,5.39,5.3,7.44,1.11,1.27,2.71,1.99,4.39,1.99h5.19c1.7,0,3.3-.73,4.39-1.99,3.13-3.6,6.19-7.67,7.31-12.99h0c1.22-5.8.2-11.33-2.78-15.15Zm-15.01-16.9c.19-.2.44-.3.71-.3h5.58c.27,0,.53.11.72.31.19.2.28.45.26.73l-.18,3.66h-7.19l-.18-3.67c-.01-.27.09-.53.27-.73Zm16.44,31.76c-1.06,5.01-3.99,8.9-7,12.36-.83.96-2.05,1.52-3.34,1.52h-5.19c-1.28,0-2.5-.55-3.35-1.52-1.73-1.99-3.69-4.4-5.11-7.17-.9-1.72-1.51-3.42-1.88-5.19-2.15-10.24,3.1-16.72,9.25-18.61.3-.09.5-.38.49-.7l-.33-6.67h7.05l-.33,6.61c-.02.32.19.61.5.7,1.28.36,2.5.95,3.64,1.73,1.16.79,2.2,1.77,3.08,2.93,2.73,3.51,3.65,8.62,2.52,14.02Z"/>
          </g>
        </g>
      </g>
      <g>
        <g>
          <g>
            <path class="cls-11" d="m93.75,132.82s0-.02,0-.03,0-.02,0-.03c0-.15-.02-.24-.02-.24h-.06c-.86-1.78-10.07-3.21-21.85-3.44-1.07-.02-2.17-.03-3.28-.03-13.31,0-24.22,1.53-25.15,3.47h-.05s0,.08-.02.21c0,.02-.01.04-.01.06,0,0,0,.01,0,.02-.02.34-.05.99-.03,1.85.2,8.73,5.05,15.45,11.74,19.34.16.09.33.17.49.26l-1.68,5.07c-.44,1.3.54,2.65,1.91,2.65h25.55c1.37,0,2.34-1.35,1.91-2.65l-1.58-4.76c1.08-.6,2.13-1.28,3.13-2.06,5.48-4.28,8.84-10.88,9-17.84.02-.86,0-1.5-.02-1.84Z"/>
            <path class="cls-2" d="m47.66,132.58c3.01-.99,6.16-1.49,9.32-1.72,3.15-.21,6.33-.16,9.46.32.21.03.36.23.32.44-.03.19-.19.32-.37.33-3.12.14-6.22.23-9.31.45-3.09.2-6.16.54-9.26.9-.2.02-.38-.12-.41-.32-.02-.18.09-.34.25-.39Z"/>
            <g>
              <path class="cls-18" d="m90.14,140.22c-3.6.56-7.19.99-10.79,1.3-1.8.14-3.6.27-5.41.34-1.8.08-3.61.13-5.41.12-3.61.02-7.22-.15-10.82-.43-3.6-.31-7.2-.72-10.8-1.28-.31-.05-.61.13-.71.44-.1.34.08.69.42.8,3.53,1.1,7.16,1.89,10.82,2.4,3.67.52,7.38.76,11.08.77,7.41-.01,14.85-.93,21.92-3.13.32-.1.52-.42.47-.75-.06-.37-.41-.62-.77-.56Z"/>
              <path class="cls-18" d="m85.45,147.15c-2.83.37-5.64.69-8.46.9-2.82.2-5.64.34-8.46.32-2.82.02-5.64-.1-8.46-.3-2.82-.21-5.63-.52-8.47-.89-.29-.04-.59.14-.69.43-.11.33.06.7.4.81,2.76.94,5.61,1.57,8.49,2,2.88.43,5.8.63,8.72.64,2.92,0,5.84-.2,8.72-.62,2.88-.42,5.74-1.05,8.5-1.98.3-.1.5-.41.46-.73-.05-.37-.39-.63-.76-.58Z"/>
            </g>
            <path class="cls-15" d="m93.75,132.82s0-.02,0-.03,0-.02,0-.03c0-.15-.02-.24-.02-.24h-.06c-.86-1.78-10.07-3.21-21.85-3.44-.62.67-1.33,1.29-2.14,1.87-4.28,3.06-10.77,4.34-16.98,4.32-1.31,0-2.61-.06-3.9-.16,4.62.86,11.75,1.41,19.74,1.41,3.64,0,7.1-.12,10.23-.32-1.01,3.59-2.63,6.95-5.3,9.78-4.68,4.95-11.72,7.14-18.43,8.02,4.04,2.35,8.76,3.65,13.51,3.74-.27.52-.55,1.03-.85,1.52-.59.96-1.26,1.86-2,2.72h15.62c1.37,0,2.34-1.35,1.91-2.65l-1.58-4.76c1.08-.6,2.13-1.28,3.13-2.06,5.48-4.28,8.84-10.88,9-17.84.02-.86,0-1.5-.02-1.84Z"/>
          </g>
          <path class="cls-14" d="m94.45,132.83v-.04c0-.07,0-.13-.02-.2v-.02c-.01-.07-.01-.1-.01-.11-.02-.21-.14-.39-.3-.5,0-.01-.02-.02-.03-.03-2.6-3-18.79-3.47-22.26-3.54-1.08-.02-2.18-.03-3.29-.03-.99,0-22.54.04-25.56,3.57h-.01c-.17.12-.29.31-.32.53,0,.01,0,.05-.01.13-.01.04-.02.08-.01.13-.01.02-.01.05-.01.07v.06c-.02.37-.04,1-.02,1.83.19,8.31,4.59,15.56,12.08,19.92l-1.49,4.51c-.28.84-.14,1.72.37,2.44.52.72,1.32,1.13,2.2,1.13h25.55c.88,0,1.68-.41,2.19-1.12.52-.72.66-1.61.38-2.45l-1.4-4.21c.94-.55,1.85-1.17,2.72-1.85,5.64-4.4,9.11-11.27,9.27-18.37.02-.84,0-1.48-.02-1.85Zm-25.91-3.08c1.1,0,2.19.01,3.26.03,10.08.19,16.34,1.17,19.28,2.05,1.18.35,1.83.69,1.97.96-.07.13-.25.28-.55.43-2.18,1.12-10.42,2.62-23.96,2.62-7.69,0-14.84-.51-19.61-1.4-2.46-.46-3.7-.91-4.32-1.22-.5-.24-.59-.4-.61-.4.12-.29.79-.64,2.01-.99,3.42-1.01,11.08-2.08,22.53-2.08Zm14.03,29.8c.13.41.06.85-.19,1.2-.25.34-.64.54-1.07.54h-25.55c-.43,0-.82-.2-1.07-.55-.25-.35-.32-.78-.18-1.19l1.41-4.28c4.13,2.14,8.65,3.2,13.09,3.2s8.48-.97,12.23-2.91l1.33,3.99Zm10.51-24.9c-.15,6.69-3.41,13.16-8.73,17.31-.75.59-1.54,1.13-2.35,1.61-.67.41-1.36.78-2.06,1.11-6.76,3.2-14.94,3.24-22.11,0-.83-.38-1.65-.8-2.45-1.27-.02-.01-.05-.03-.07-.04-7.02-4.12-11.15-10.93-11.32-18.72v-.2c.89.45,2.33.91,4.68,1.35,4.86.91,12.1,1.42,19.87,1.42.91,0,19.32-.04,24.54-2.82,0,.08,0,.16,0,.25Z"/>
        </g>
        <g>
          <g>
            <rect class="cls-13" x="41.87" y="165.4" width="53.32" height="55.4" rx="1.92" ry="1.92"/>
            <path class="cls-15" d="m95.19,167.32v51.56c0,1.06-.86,1.92-1.92,1.92h-49.48c-1.06,0-1.91-.86-1.92-1.91,0-5.94,3.84-9.38,9.43-10.36,8.86-1.55,25.36,4.32,30.6-3.17,2.38-3.41,3.01-7.96,3.41-11.99.9-9.17-.23-18.3-.12-27.47,0-.17,0-.34,0-.5h8.06c1.06,0,1.92.86,1.92,1.92Z"/>
            <path class="cls-17" d="m101.32,163.12v3.02c0,.63-.5,1.13-1.13,1.13h-63.32c-.62,0-1.13-.5-1.13-1.13v-3.02c0-.63.5-1.13,1.13-1.13h63.32c.62,0,1.13.5,1.13,1.13Z"/>
            <path class="cls-5" d="m101.32,163.12v3.02c0,.63-.5,1.13-1.13,1.13h-36.55c2.88-1.5,5.61-3.28,8.16-5.29h28.38c.62,0,1.13.5,1.13,1.13Z"/>
            <path class="cls-2" d="m47.24,172.79c4.59-.47,9.19-.58,13.78-.61,4.59.01,9.19.11,13.78.58.32.03.55.32.52.64-.03.28-.25.49-.52.52-4.59.46-9.19.56-13.78.57-4.59-.02-9.19-.14-13.78-.61-.3-.03-.52-.3-.49-.6.03-.26.24-.46.49-.49Z"/>
            <g>
              <path class="cls-11" d="m76.08,197.55c-1.47-1.56-.25-3.58,1.71-4.28,3.04-1.09,6.04-.24,7.29,1.09,3.34,3.59-5.44,6.96-9,3.19Z"/>
              <path class="cls-11" d="m60.98,197.55c1.47-1.56.25-3.58-1.71-4.28-3.04-1.09-6.04-.24-7.29,1.09-3.34,3.59,5.44,6.96,9,3.19Z"/>
            </g>
          </g>
          <g>
            <path class="cls-14" d="m100.2,161.29h-63.33c-1,0-1.82.82-1.82,1.83v3.02c0,1.01.82,1.82,1.82,1.82h4.31v50.93c0,1.44,1.17,2.61,2.61,2.61h49.48c1.44,0,2.62-1.17,2.62-2.61v-50.93h4.31c1,0,1.81-.81,1.81-1.82v-3.02c0-1.01-.81-1.83-1.81-1.83Zm-5.7,57.6c0,.68-.55,1.23-1.23,1.23h-49.48c-.67,0-1.22-.55-1.22-1.23v-50.93h51.93v50.93Zm6.13-52.75c0,.25-.19.44-.43.44h-63.33c-.24,0-.43-.19-.43-.44v-3.02c0-.25.19-.44.43-.44h63.33c.24,0,.43.19.43.44v3.02Z"/>
            <path class="cls-14" d="m57.55,189.94c1.74-.03,3.11-1.36,3.1-3.2,0-1.75-1.38-3.08-3.18-3.06-1.77.02-3.11,1.38-3.13,3.15-.02,1.63,1.45,3.14,3.21,3.11Z"/>
            <path class="cls-14" d="m79.43,189.95c4.4-.12,4.13-6.36.1-6.27-2.12.05-3.12,1.74-3.18,3.14-.06,1.56,1.5,3.17,3.08,3.13Z"/>
            <path class="cls-14" d="m66.71,194.98c.57.32,1.17.47,1.77.47.72,0,1.44-.22,2.11-.66,2-1.32,2.98-4.16,2.61-7.61-.04-.38-.38-.66-.76-.62-.38.04-.66.38-.62.76.36,3.44-.79,5.51-2,6.31-.79.52-1.66.57-2.44.14-1.51-.85-2.35-3.27-2.24-6.49.01-.38-.29-.7-.67-.71-.39-.01-.7.29-.71.67-.12,3.8.95,6.63,2.95,7.75Z"/>
          </g>
        </g>
      </g>
      <g>
        <g>
          <g>
            <path class="cls-18" d="m185.1,185.42v33.46c0,1.06-.86,1.92-1.92,1.92h-49.48c-1.06,0-1.92-.86-1.92-1.92v-33.46c0-1.06.86-1.92,1.92-1.92h49.48c1.06,0,1.92.86,1.92,1.92Z"/>
            <path class="cls-6" d="m185.1,185.42v33.46c0,1.06-.86,1.92-1.92,1.92h-49.48c-1.06,0-1.92-.86-1.92-1.92v-11.35c7.7-1.9,18.32,2.18,27.33-1.36,10.09-3.96,15.74-13.16,16-22.68h8.06c1.06,0,1.92.86,1.92,1.92Z"/>
            <path class="cls-2" d="m137.15,190.79c2.3-.29,4.59-.44,6.89-.55,2.3-.11,4.59-.15,6.89-.16,2.3,0,4.59.03,6.89.14,2.3.1,4.59.25,6.89.53.37.05.64.39.59.76-.04.32-.29.55-.59.59-2.3.28-4.59.43-6.89.53-2.3.11-4.59.13-6.89.14-2.3-.02-4.59-.05-6.89-.16-2.3-.1-4.59-.26-6.89-.55-.35-.04-.6-.36-.56-.72.04-.3.27-.52.56-.56Z"/>
            <path class="cls-13" d="m191.23,181.21v3.02c0,.63-.5,1.13-1.13,1.13h-63.32c-.62,0-1.13-.5-1.13-1.13v-3.02c0-.63.5-1.13,1.13-1.13h63.32c.62,0,1.13.5,1.13,1.13Z"/>
            <path class="cls-15" d="m191.23,181.21v3.02c0,.63-.5,1.13-1.13,1.13h-36.55c2.88-1.5,5.61-3.28,8.16-5.29h28.38c.62,0,1.13.5,1.13,1.13Z"/>
          </g>
          <path class="cls-14" d="m190.1,179.39h-63.32c-1,0-1.82.82-1.82,1.82v3.03c0,1,.82,1.82,1.82,1.82h4.31v32.83c0,1.44,1.17,2.61,2.61,2.61h49.48c1.44,0,2.61-1.17,2.61-2.61v-32.83h4.31c1,0,1.82-.82,1.82-1.82v-3.03c0-1-.82-1.82-1.82-1.82Zm-5.69,39.5c0,.68-.55,1.23-1.23,1.23h-49.48c-.68,0-1.23-.55-1.23-1.23v-32.83h51.94v32.83Zm6.13-34.65c0,.24-.19.43-.44.43h-63.32c-.24,0-.43-.19-.43-.43v-3.03c0-.24.19-.43.43-.43h63.32c.24,0,.44.19.44.43v3.03Z"/>
        </g>
        <g>
          <g>
            <path class="cls-4" d="m181.79,153.18c-1.36-2.37-3.59-4.03-6.25-5.15-.48-.21-.98-.39-1.48-.56-.6-.2-.95-.81-.83-1.44l.99-5.11c.13-.66-.37-1.27-1.04-1.27h-29.47c-.67,0-1.18.61-1.04,1.27l.99,5.11c.12.62-.24,1.24-.83,1.44-3.3,1.1-6.12,2.91-7.73,5.71-2.8,4.88.07,11.52,3.24,15.69.31.41.63.8.94,1.16,1.2,1.37,2.56,2.64,4.04,3.69.88.62,1.87,1.04,2.91,1.28l-.68,2.89c-.27,1.13.34,2.08,1.36,2.08h23.09c1.02,0,1.63-.95,1.36-2.08l-.68-2.89c1.04-.24,2.03-.66,2.91-1.28,1.47-1.06,2.84-2.32,4.04-3.69,3.48-3.99,7.26-11.48,4.18-16.84Z"/>
            <path class="cls-9" d="m147.26,146.37c1.89.17,3.74.35,5.6.47,1.86.11,3.71.19,5.57.17,1.86,0,3.71-.07,5.57-.19,1.86-.12,3.71-.31,5.6-.48.32-.03.61.2.64.52.03.27-.14.52-.38.61-1.82.66-3.71,1.11-5.62,1.4-1.91.31-3.86.44-5.8.44-3.88-.02-7.77-.57-11.41-1.88-.29-.1-.43-.42-.33-.7.09-.24.32-.38.57-.36h0Z"/>
            <path class="cls-10" d="m181.79,153.18c-1.36-2.37-3.59-4.03-6.25-5.15l-.24.15c-2.33,1.52-4.01,4.28-4.45,7.33-.39,2.69.07,5.71-1.29,7.93-1.29,2.1-3.76,2.68-6,2.89-5.32.5-10.68-.17-16.02-.35-3.28-.11-7.06.24-9.21,2.89.31.41.63.8.94,1.16,1.2,1.37,2.56,2.64,4.04,3.69,1.4.99,3.08,1.52,4.8,1.52h11.18c-.5.99-1.13,1.95-1.88,2.86-.55.66-1.16,1.28-1.82,1.87h14.4c1.02,0,1.63-.95,1.36-2.08l-.68-2.89c1.04-.24,2.03-.66,2.91-1.28,1.47-1.06,2.84-2.32,4.04-3.69,3.48-3.99,7.26-11.48,4.18-16.84Z"/>
            <path class="cls-3" d="m139.44,158.27c-.29.96-.35,3.52-.35,3.36-.07.61-.92.7-1.12.12-3.09-9.05,7.54-12.78,7.76-11.06.03.22-.08.43-.26.54-2.82,1.73-5.33,3.78-6.04,7.04Z"/>
            <g>
              <path class="cls-11" d="m164.84,166.09c-1.14-1.21-.19-2.78,1.33-3.32,2.36-.84,4.69-.19,5.65.85,2.59,2.79-4.22,5.4-6.98,2.47Z"/>
              <path class="cls-11" d="m152.04,166.09c1.14-1.21.19-2.78-1.33-3.32-2.36-.84-4.69-.19-5.65.85-2.59,2.79,4.22,5.4,6.98,2.47Z"/>
            </g>
            <path class="cls-1" d="m158.44,157.93c-2.38-.02-4.8.95-4.8,2.81,0,2.49,2.39,4.29,4.8,4.33,2.41-.05,4.79-1.85,4.8-4.33,0-1.86-2.42-2.83-4.8-2.81Z"/>
          </g>
          <g>
            <path class="cls-14" d="m182.39,152.83c-1.34-2.33-3.56-4.16-6.58-5.44-.47-.2-.99-.39-1.53-.58-.27-.08-.43-.36-.37-.64l.99-5.11c.1-.52-.03-1.05-.36-1.45-.34-.41-.83-.65-1.36-.65h-29.48c-.53,0-1.02.24-1.36.64-.33.41-.46.94-.36,1.46l.99,5.1c.06.29-.1.57-.37.65-3.82,1.28-6.54,3.3-8.11,6.02-2.92,5.09-.22,11.84,3.29,16.45.32.43.65.82.97,1.2,1.27,1.46,2.67,2.74,4.15,3.8.77.54,1.6.96,2.49,1.23l-.53,2.22c-.19.8-.04,1.59.4,2.16.4.49.98.77,1.64.77h23.08c.66,0,1.24-.28,1.64-.77.44-.57.59-1.36.4-2.16l-.53-2.22c.89-.27,1.72-.69,2.49-1.23,1.48-1.06,2.88-2.34,4.15-3.8,4.18-4.8,7.3-12.36,4.26-17.65Zm-11.72,25.22c.09.38.04.75-.14.98-.13.16-.31.24-.55.24h-23.08c-.24,0-.42-.08-.55-.24-.18-.23-.23-.6-.14-.98l.53-2.23c.45.08.91.11,1.37.11h20.66c.47,0,.93-.03,1.38-.11l.52,2.23Zm6.42-8.48c-1.21,1.38-2.52,2.58-3.92,3.58-.62.44-1.29.78-2,1.02-.43.14-.88.25-1.34.3-.35.06-.7.08-1.06.08h-20.66c-.36,0-.71-.02-1.05-.07-.46-.06-.91-.17-1.35-.31-.71-.24-1.38-.58-2-1.02-1.4-1-2.71-2.2-3.92-3.58-.3-.35-.6-.72-.91-1.12-3.09-4.07-5.78-10.42-3.19-14.92,1.39-2.42,3.87-4.24,7.35-5.4.92-.31,1.48-1.26,1.29-2.23l-.99-5.11c-.03-.15.03-.26.07-.31.05-.05.14-.13.29-.13h29.48c.15,0,.24.08.29.13.04.05.1.16.07.31l-.99,5.12c-.19.96.37,1.91,1.29,2.22.51.17.99.35,1.43.54,2.74,1.15,4.73,2.79,5.92,4.86,3.11,5.4-1.32,12.85-4.1,16.04Z"/>
            <path class="cls-14" d="m149.67,155.85c-1.32.02-2.33,1.04-2.34,2.36-.02,1.22,1.09,2.35,2.4,2.33,1.3-.02,2.33-1.01,2.32-2.39,0-1.31-1.03-2.3-2.38-2.29Z"/>
            <path class="cls-14" d="m167.23,155.85c-1.58.03-2.33,1.3-2.38,2.35-.05,1.17,1.12,2.37,2.3,2.34,3.3-.09,3.09-4.76.07-4.69Z"/>
          </g>
        </g>
      </g>
      <g>
        <path class="cls-14" d="m106.02,46.06c-1.38.68-2.72,1.14-4.07,1.76h-.02c-.27-.48-.71-1.29-.87-1.94.14-.27,1.23-.56,1.79-1.02-.36-.75-.58-1.48-1-2.13v-.02c-.64.27-1.29.58-1.92.81h-.02c-.39-.5-.55-1.21-.83-1.81v-.02s.05-.02.05-.02c1.3-.74,2.78-1.13,3.96-2.02v-.02c-.34-.72-.56-1.51-1-2.19-.04-.09-4.01,1.78-6.34,2.99,1.4,3.62,3.15,6.98,4.77,10.55,2.07-.73,4.23-1.9,6.33-2.84-.11-.69-.45-1.43-.79-2.08v-.03Z"/>
        <path class="cls-14" d="m110.87,34.33s.01-.02,0-.04h-.02c-1.22.42-1.89.66-2.43.9v.02c.02,1.05.23,3.03.14,4.03-.58-.71-1.7-2.38-2.26-3.19-.1-.09-.28,0-.86.2-.39.13-.91.33-1.58.61,1.32,1.57,2.68,3.11,3.68,4.87.22,1.93.06,4.25.16,5.98.45,0,.98-.17,1.48-.34.26-.09.51-.19.74-.29.15-1.26-.17-2.68-.04-4.08h.02c.86.85,1.49,2.37,2.31,3.23h.02c.23-.01.45-.07.73-.16.37-.12.68-.27,1.02-.38.15-.05.27-.09.42-.12-1.03-1.62-2.41-3.22-3.33-4.93-.37-2.09-.17-4.25-.21-6.31Z"/>
        <path class="cls-14" d="m116.96,32.82c.46,1.56.75,2.76.99,4.31h-.02c-.53.19-1.2.46-1.77.46h-.02c-.61-1.33-.84-2.77-1.41-4.24-.67-.03-1.41.44-2.1.47h-.03s-.02.01-.02.01v.02c.76,3.37,2.47,9.58,3.06,11.4.34-.31,1.75-.2,2.21-.65-.13-1.43-.75-2.89-.99-4.43.6-.31,1.23-.46,1.9-.5h.02c.53,1.38.79,3.08,1.36,4.49h.02c.53-.19,1.55-.35,2.28-.67l-3.28-11.4c-.67.11-1.69.42-2.21.74Z"/>
        <path class="cls-14" d="m124.26,31.18l-.4.07c-1,.2-1.44.23-1.84.29-.15.03-.57.06-.69.09v.03c.3,3.8,1.65,7.77,2.08,11.85.44-.22,2.7-.28,3-.72-.92-3.74-1.43-7.74-2.14-11.56v-.07Z"/>
        <path class="cls-14" d="m132.5,36.35c-.14-.12-.2-.18-.13-.34.35-.81.6-1.79.47-2.73-.5-3.76-4.48-3.32-7.07-2.22v.02c.57,3.88.92,7.68,1.56,11.54.12.03.24,0,.37-.02,2.44-.25,6.23-.04,6.35-3.28.08-1.48-.73-2.19-1.55-2.97Zm-4.08-3.1c.31-.23.87-.25,1.34-.23.36.04.67.18.9.51.23.33.1.74-.02,1.03-.26.72-1.2.76-1.88.76-.31-.76-.22-1.56-.34-2.07Zm2.87,6.09c-.38.6-1.22.59-1.84.67h-.04c-.44-.5-.44-1.68-.36-2.36.43,0,.89-.1,1.33-.04.29.03.63.22.8.48.2.37.32.88.11,1.25Z"/>
        <path class="cls-14" d="m137.52,29.6l-.41.03c-1.01.1-1.45.08-1.86.1-.15.01-.58,0-.69.02v.03c-.1,3.81.82,7.9.83,11.99.46-.17,2.72,0,3.06-.4-.53-3.81-.61-7.85-.92-11.71v-.07Z"/>
        <path class="cls-14" d="m138.76,29.46s.02.02.02.03c-.05,1.07.06,2.49.15,2.65.27.08,1.5-.11,2.04.14l.02.02c.46,6.3.33,8.81.39,9.02.81-.16,1.95-.04,2.77-.2v-.02s0-.02,0-.02c-.36-7.39-.41-8.63-.35-8.95,0-.02.02-.03.02-.05h.02s.03,0,.03,0c1.06-.08,1.64-.13,2.06-.06.09-.82.06-1.88-.01-2.62-2.33-.18-4.84-.02-7.15.06Z"/>
        <path class="cls-14" d="m148.17,29.28c-.15,0-.57-.06-.69-.05v.03c-.49,3.78,0,7.94-.4,12.01.48-.13,2.7.28,3.08-.08-.13-3.85.19-7.87.28-11.75v-.07s-.41,0-.41,0c-1.02,0-1.46-.07-1.86-.09Z"/>
        <path class="cls-14" d="m158.05,30.73c-1.22-1.1-3.31-1.3-4.85-.69-.16.07-.28.16-.41.27-.75.74-1.03,1.8-1.12,2.81-.26,1.76-.26,3.55-.33,5.31-.03.66-.02,1.32.26,1.9.34.93,1.21,1.2,2.13,1.36.65.1,1.3.12,1.94-.02.71-.13,1.39-.38,1.82-.89.46-.63.71-1.44.82-2.23l.09-.55c.18-1.16.19-2.26.36-3.45.06-.56.1-1.11.1-1.67-.02-.36-.06-.72-.19-1.07-.1-.4-.31-.77-.61-1.08Zm-1.46,3.91l-.06,1.15-.06.81c0,.05-.05.42-.1.87-.16.97,0,.98-.46,1.51-.75.72-2.16.51-2.53-.42-.16-.76-.08-1.6-.13-2.4.02-.95.11-1.91.37-2.76.17-.46.47-.83.88-1.1.38-.24.89-.35,1.33-.13.5.29.76.87.76,1.5-.01.39,0,.95,0,.97Z"/>
        <path class="cls-14" d="m167.83,31.29c-.31-.12-.67-.21-1.09-.28-.42-.07-.82-.1-1.22-.1-.11.55-.2,1.01-.28,1.48-.13.8-.2,1.55-.35,2.43-.06.38-.19.86-.27.9-.05,0-.87-2.68-.95-3.02-.25-1-.38-1.14-.56-2.01.02-.1-1.07-.35-1.36-.39-.27-.04-.54-.07-.76-.06-.35,1.4-.63,2.92-.88,4.45-.34,2.09-.59,3.92-.94,6.04l-.19,1.17c.52.08,1.05.28,1.59.36.25.04.49.06.75.04.05-.39.12-.87.21-1.39.31-1.87.74-4.24.81-4.23.05,0,.09.27.13.54l.09.53c.29,1.51.8,3.19,1.27,4.96.45.07,1.07.26,1.52.33.38.06.51.01.56,0l.05-.33c.08-.45.13-.89.2-1.34.1-.62.21-1.2.32-1.85.15-.95.31-1.92.45-2.86l.88-5.38Z"/>
        <path class="cls-14" d="m167.34,41.38c-.14.61-.65,1.88-.5,1.92l1.24.27h.03c.25.06.36.11.62.17l.11.03c.15-.64.35-1.36.51-1.97-.64-.15-1.44-.53-2.02-.43v.02Z"/>
        <path class="cls-14" d="m169.53,31.74h-.05c-.88,2.95-1.37,5.86-2.09,8.75h.02c.65.14,1.55.35,2.15.42.52-2.85,1.31-5.92,2.01-8.73-.57-.32-1.45-.35-2.04-.44Z"/>
        <path class="cls-14" d="m106.6,28.41c-.08-.7-.39-1.45-.72-2.1v-.03c-1.42.63-2.77,1.04-4.15,1.6h-.02c-.25-.49-.66-1.31-.8-1.97.15-.26,1.25-.51,1.83-.95-.33-.76-.53-1.5-.92-2.16v-.02c-.65.25-1.31.53-1.95.74h-.02c-.37-.52-.5-1.23-.77-1.84v-.02s.06-.02.06-.02c1.33-.69,2.82-1.03,4.03-1.87v-.02c-.31-.74-.51-1.53-.92-2.22-.04-.09-4.07,1.63-6.45,2.75,1.27,3.67,2.89,7.09,4.38,10.72,2.09-.66,4.3-1.74,6.43-2.6Z"/>
        <path class="cls-14" d="m107.51,27.99c.45.02.98-.14,1.49-.29.26-.08.51-.17.75-.26.18-1.26-.09-2.68.09-4.08h.02c.83.87,1.42,2.41,2.21,3.31h.02c.23,0,.46-.06.73-.14.37-.11.69-.24,1.03-.35.15-.04.28-.08.43-.11-.98-1.65-2.31-3.3-3.18-5.04-.3-2.1-.04-4.25,0-6.32,0-.02.01-.02,0-.04h-.02c-1.23.38-1.91.6-2.46.82v.02c-.01,1.05.13,3.04,0,4.03-.56-.73-1.62-2.43-2.16-3.26-.1-.09-.28,0-.87.18-.39.12-.92.3-1.6.56,1.27,1.61,2.58,3.2,3.53,4.98.16,1.93-.07,4.25-.02,5.99Z"/>
        <path class="cls-14" d="m116.09,24.72c.78.47,1.44.64,2.55.49.69-.1,1.5-.52,1.69-.89.17.15.6.43.73.4.25-.05.49-.3.65-.45.21-.24.38-.41.31-.73-.03-.15-.23-.28-.42-.43.09-.45.15-.81.16-1.09.02-.16,0-.31,0-.45.02-.56-.14-1.11-.21-1.67-.09-.67-.18-1.05-.32-1.73-.29-1.32-.68-2.66-1.32-3.77-1.13-1.61-1.94-1.52-3.48-1.18-1.69.37-2.87,1.32-2.98,2.31-.1,1.69.42,3.69.75,5.23.35,1.62.56,3.15,1.9,3.97Zm.81-9.03c1.04-.23,1.47.25,1.71,1.03.26.78.39,1.23.56,2.01.11.5.35,1.43.4,1.92,0,.23.1.84.09,1.07-.34-.22-.56-.74-.84-.68-.25.05-.35.32-.51.47-.21.24-.5.33-.43.65.04.2.26.41.49.59.14.09.29.2.45.3-.11.04-.18.06-.29.08-.66.14-1.3,0-1.69-.6-.36-.61-.62-2.2-.75-2.82-.2-.93-.29-1.48-.41-2.42-.16-1.14-.05-1.32,1.21-1.6Z"/>
        <path class="cls-14" d="m122.92,21.66c.38,2.05,2.81,2.55,4.67,2.09,1.59-.38,2.38-1.65,2.36-3.16-.09-2.93-.49-5.87-1.03-8.72-.58-.24-1.84.16-2.46.3.3,2.61.73,5.44,1,8.14-.07,1.05-1.58,1.42-2.05.38-.61-2.75-1.05-5.5-1.31-8.21v-.02c-.7-.09-1.69.15-2.38.25h-.02s.02.02.02.02c.47,2.94.78,5.98,1.19,8.93Z"/>
        <path class="cls-14" d="m131.61,23.1c.46-.18,2.72-.02,3.06-.42-.56-3.81-.67-7.85-1.01-11.71v-.07s-.41.04-.41.04c-1.01.11-1.45.09-1.86.11-.15.01-.58,0-.7.03v.03c-.07,3.81.88,7.9.92,11.99Z"/>
        <path class="cls-14" d="m138.47,19.04c-.76.04-1.8-.05-2.59.1v.05s0,.05,0,.05c-.07,2.15,2.12,3.36,4.1,3.34,1.39,0,2.71-.64,3.2-2.05.51-1.18.44-2.64-.38-3.63-.69-.94-1.78-1.59-2.98-1.69-.48-.05-.92-.16-1.12-.69-.02-.15-.06-.3-.01-.46.15-1.28,2.36-.89,2.13.36.8.19,1.75.1,2.54-.06h.02c.27-1.7-.46-2.78-1.56-3.31-1.1-.46-2.68-.56-3.76-.07-2.14.97-3.08,4.08-.93,5.99.33.26.71.47,1.17.54.95.16,2.3.27,2.47,1.35.32,1.57-2.15,1.61-2.28.17Z"/>
        <path class="cls-14" d="m148.18,10.71v-.07s-.4-.01-.4-.01c-1.02-.01-1.46-.07-1.86-.1-.15,0-.57-.07-.69-.05v.03c-.51,3.78-.03,7.94-.46,12.02.48-.12,2.7.29,3.08-.07-.11-3.85.23-7.87.34-11.75Z"/>
        <path class="cls-14" d="m153.48,22.83v-.02s0-.02,0-.02c.47-7.39.55-8.62.65-8.93,0-.02.02-.03.02-.05h.02s.03,0,.03,0c1.07.04,1.64.05,2.06.17.18-.8.27-1.86.28-2.61-2.29-.44-4.81-.56-7.11-.73,0,.02.02.02.02.04-.17,1.06-.22,2.48-.15,2.65.26.11,1.51.06,2.01.37l.02.02c-.24,6.32-.65,8.8-.62,9,.82-.07,1.94.18,2.78.11Z"/>
        <path class="cls-14" d="m163.23,24.28c.3-.64.43-1.44.5-2.17v-.03c-1.52-.2-2.89-.57-4.36-.81v-.02c.02-.54.11-1.46.33-2.09.26-.15,1.34.22,2.05.15.12-.82.34-1.56.35-2.33v-.02c-.68-.13-1.38-.23-2.05-.39v-.02c-.06-.63.2-1.3.29-1.96h.02s.05,0,.05,0c1.49.11,2.94.61,4.41.53v-.02c.13-.79.38-1.57.4-2.37.02-.1-4.32-.75-6.93-1.05-.85,3.79-1.27,7.55-1.92,11.42,2.13.54,4.57.78,6.84,1.17Z"/>
      </g>
      <g>
        <path class="cls-7" d="m19.09,31.04c-1.8-.91-3.89-1.3-5.45-1.46-.21-2.58-.71-4.77-1.48-6.53-.16-.37-.51-.59-.92-.59h0c-.4,0-.75.23-.91.59-.77,1.75-1.27,3.94-1.48,6.51-1.56.16-3.65.55-5.44,1.44-.36.18-.58.54-.58.94,0,.4.22.76.58.94,1.45.73,3.32,1.22,5.43,1.44.17,1.87.87,6.53,1.99,7.02.13.06.28.09.42.09.13,0,.25-.02.37-.07.26-.1.46-.3.57-.55.77-1.75,1.26-3.93,1.46-6.5,1.56-.17,3.65-.56,5.44-1.46.19-.1.35-.25.45-.45.12-.24.14-.52.06-.77-.08-.26-.26-.47-.51-.59Z"/>
        <path class="cls-7" d="m77.5,16.51h0c-1.79-.9-3.89-1.3-5.45-1.46-.21-2.58-.71-4.77-1.48-6.53-.16-.37-.51-.59-.92-.59h0c-.4,0-.75.23-.91.59-.77,1.75-1.27,3.94-1.48,6.51-1.56.16-3.65.54-5.43,1.44-.36.18-.58.54-.58.94,0,.4.22.76.58.94,1.45.73,3.32,1.22,5.43,1.44.17,1.87.87,6.53,1.98,7.02.13.06.28.09.42.09.13,0,.25-.02.37-.07.26-.1.46-.29.57-.55.77-1.75,1.26-3.93,1.46-6.5,1.56-.17,3.65-.56,5.44-1.46.19-.1.35-.26.45-.45.25-.5.05-1.11-.45-1.36Z"/>
        <path class="cls-7" d="m187.11,87.38c.77-1.75,1.26-3.93,1.46-6.5,1.56-.17,3.65-.56,5.44-1.46.19-.1.35-.26.45-.45.25-.5.05-1.11-.45-1.36h0c-1.79-.9-3.89-1.3-5.45-1.46-.21-2.58-.71-4.77-1.48-6.53-.16-.37-.51-.59-.92-.59h0c-.4,0-.75.23-.91.59-.77,1.75-1.27,3.94-1.48,6.51-1.56.16-3.65.54-5.43,1.44-.36.18-.58.54-.58.94,0,.4.22.76.58.94,1.45.73,3.32,1.22,5.43,1.44.17,1.87.87,6.53,1.99,7.02.13.06.28.09.42.09.13,0,.25-.02.37-.07.26-.1.46-.29.57-.55Z"/>
        <path class="cls-7" d="m111.46,94.54c-1.79-.9-3.89-1.3-5.46-1.46-.21-2.58-.71-4.77-1.48-6.52-.16-.37-.51-.59-.92-.59h0c-.4,0-.75.23-.91.6-.77,1.75-1.27,3.94-1.48,6.51-1.56.16-3.65.54-5.44,1.44-.36.18-.58.54-.58.94,0,.4.22.76.58.94,1.45.73,3.32,1.22,5.43,1.44.18,1.87.87,6.53,1.99,7.02.13.06.28.09.42.09.13,0,.25-.02.37-.07.26-.1.46-.29.57-.55.77-1.75,1.26-3.94,1.46-6.51,1.56-.17,3.65-.56,5.45-1.46.2-.1.35-.25.45-.45.25-.5.05-1.11-.45-1.36Z"/>
        <path class="cls-7" d="m199.73,136.87h0c-1.47-.74-3.18-1.07-4.47-1.21-.18-2.11-.59-3.91-1.23-5.36-.15-.33-.47-.54-.83-.54h0c-.36,0-.68.21-.83.54-.64,1.44-1.05,3.24-1.23,5.35-1.29.14-2.99.46-4.46,1.19-.32.16-.52.49-.52.85,0,.36.2.68.52.85,1.19.6,2.72,1.01,4.45,1.19.15,1.44.7,5.37,1.68,5.81.12.05.25.08.38.08.36,0,.7-.21.86-.56.64-1.44,1.04-3.23,1.21-5.34,1.29-.14,3-.47,4.46-1.21.18-.09.32-.23.41-.41.23-.45.05-1.01-.41-1.23Z"/>
        <path class="cls-7" d="m39.11,7.11h0c-1.47-.74-3.18-1.07-4.47-1.21-.18-2.11-.59-3.91-1.23-5.36-.15-.33-.47-.54-.83-.54h0c-.36,0-.68.21-.83.54-.64,1.44-1.05,3.24-1.23,5.35-1.29.14-2.99.46-4.46,1.19-.32.16-.52.49-.52.85,0,.36.2.68.52.85,1.19.6,2.72,1.01,4.45,1.19.15,1.44.7,5.37,1.68,5.81.12.05.25.08.38.08.11,0,.23-.02.34-.06.23-.09.42-.27.52-.49.64-1.44,1.04-3.23,1.21-5.34,1.29-.14,3-.47,4.46-1.21.18-.09.32-.23.41-.41.23-.45.05-1-.41-1.23Z"/>
      </g>
    </g>
  </g>
</svg>