<svg viewBox="0 0 718 626" fill="none" xmlns="http://www.w3.org/2000/svg">
<circle cx="405" cy="313" r="313" fill="#FFB600"/>
<path fill-rule="evenodd" clip-rule="evenodd" d="M550.169 365.013C579.413 364.457 611.285 365.79 637.938 365.013C645.416 350.391 638.123 334.732 637.087 318.148C635.606 294.271 638.234 267.359 636.235 248.258C632.608 246.481 625.944 247.74 623.427 244.852C623.427 239.485 623.76 233.71 622.576 229.527C603.697 228.268 577.858 230.193 560.386 230.378C559.312 233.155 559.423 237.115 559.534 241.039C559.349 242.261 559.349 243.446 559.571 244.63C559.571 245.296 559.571 245.963 559.534 246.592C546.356 254.181 521.147 248.147 500.713 249.998C500.342 234.191 498.38 221.494 495.604 205.687C493.753 195.1 493.013 171.446 485.387 165.634C481.574 162.709 465.101 163.413 458.105 163.931C434.858 165.634 406.021 171.26 384.809 174.999C381.478 179.923 379.257 185.92 375.444 190.325C366.819 179.441 355.01 166.3 343.053 151.974C325.988 131.503 307.812 98.5942 270.609 111.069C268.499 106.664 267.018 101.593 263.797 98.298C239.069 96.225 220.82 105.479 200.719 110.218C189.132 112.957 179.137 118.658 167.477 122.138C147.672 128.06 123.388 130.133 100.992 134.057C90.5533 135.871 78.9666 137.907 67.7502 140.017C56.2376 142.201 44.2067 147.273 34.508 146.829C24.3651 146.384 15.5178 138.203 4.67153 140.869C-1.43644 153.011 -1.06626 172.408 2.9687 186.031C6.81857 198.95 22.8474 215.053 31.9538 226.084C63.7522 264.768 101.659 301.49 133.383 334.325C129.2 355.092 134.79 377.488 144.488 389.704C159.592 395.812 172.992 398.033 185.393 406.732C201.348 417.948 211.047 439.123 238.218 435.717C263.983 432.496 277.975 417.467 288.488 399.921C293.042 392.369 296.484 384.891 299.594 376.895C304.776 363.458 310.773 350.094 315.215 336.99C315.438 336.657 315.697 336.361 315.956 336.028C316.474 335.25 316.548 334.399 316.326 333.547C317.066 331.215 317.733 328.92 318.325 326.625C313.142 326.107 311.995 329.623 309.626 331.919C309.144 332.215 308.737 332.548 308.33 332.918C307.997 333.103 307.664 333.325 307.257 333.436C308.034 327.958 303.185 330.401 300.445 330.882C292.82 332.289 287.008 342.506 279.974 347.096C265.13 356.795 237.33 362.162 210.936 359.016C190.983 356.647 181.247 342.691 171.734 329.179C164.774 319.332 158.444 310.522 152.114 302.748C139.491 287.164 130.014 266.36 118.021 248.221C105.657 229.527 94.181 210.87 85.6299 193.693C134.197 195.692 178.73 179.552 223.707 177.479C236.145 176.924 254.395 178.294 263.76 181.737C276.754 186.512 280.826 199.431 291.043 208.167C291.487 209.241 291.894 210.277 292.338 211.314C294.337 217.792 296.892 224.196 299.742 230.378C304.591 243.483 309.182 256.476 314.919 268.655C326.358 293.013 341.017 313.817 353.27 335.991C344.238 337.73 347.569 359.053 353.27 363.273C365.523 364.42 382.033 362.495 396.729 363.273C400.024 369.048 407.538 375.156 408.649 380.301C378.442 378.376 336.131 383.929 309.774 380.301C303.962 387.964 304.591 412.951 313.179 416.949C286.082 452.375 297.891 504.348 330.245 520.081C359.452 534.296 398.765 528.151 418.014 509.864C431.674 496.871 439.411 475.696 435.894 450.191C435.117 444.675 432.081 438.197 429.934 433.163C427.787 428.165 422.642 423.464 424.826 418.689C436.19 420.688 434.006 436.235 438.448 445.12C450.368 442.306 475.911 452.264 476.799 440.862C477.65 429.72 454.033 434.68 444.408 435.754C445.112 429.757 440.854 424.389 441.817 420.651C443.742 420.688 445.667 420.577 447.555 420.317C450.442 420.28 453.256 420.169 456.032 420.021C464.583 421.095 473.986 419.836 483.351 418.17C494.123 417.43 504.97 416.986 516.852 417.837C502.045 437.864 499.935 477.695 513.447 499.647C522.886 515.047 547.429 525.856 568.863 527.781C593.554 529.965 622.317 514.713 631.941 499.647C645.749 477.992 641.27 437.975 629.387 419.54C641.455 415.912 642.121 396.552 639.604 381.189C608.25 380.856 570.714 379.709 536.472 379.487C542.21 375.822 545.208 369.455 550.095 364.976L550.169 365.013ZM152.151 138.314C124.98 146.088 93.1815 155.047 66.0844 162.191C62.0864 160.488 59.4211 157.49 54.1646 157.083C68.4165 153.381 83.2977 150.345 98.327 147.458C98.6602 147.458 99.0304 147.421 99.3635 147.421C100.03 147.421 100.585 147.199 101.029 146.94C120.39 143.275 140.009 139.869 158.963 135.797C164.478 134.242 154.705 137.611 152.151 138.351V138.314Z" fill="#191818"/>
<path fill-rule="evenodd" clip-rule="evenodd" d="M251.874 104.221C230.885 112.476 203.343 114.216 181.984 122.101C182.169 125.691 180.688 127.616 180.281 130.615C204.676 124.063 229.737 118.14 255.28 112.698C252.688 111.291 253.91 106.109 251.874 104.184V104.221Z" fill="#EA4F1F"/>
<path fill-rule="evenodd" clip-rule="evenodd" d="M260.39 107.626C259.761 110.07 262.204 113.66 263.796 111.032C262.278 110.292 262.389 107.922 260.39 107.626Z" fill="#EA4F1F"/>
<path fill-rule="evenodd" clip-rule="evenodd" d="M176.029 124.692C174.77 127.431 172.845 129.467 171.771 132.354C174.363 132.984 174.881 131.503 176.88 131.503C176.362 129.467 177.953 125.321 176.029 124.692Z" fill="#EA4F1F"/>
<path fill-rule="evenodd" clip-rule="evenodd" d="M164.961 125.543C126.462 136.501 81.115 140.536 42.2461 151.123C51.9818 152.307 62.4579 149.568 72.934 147.717C93.405 144.089 114.579 138.685 135.161 134.946C145.489 133.058 156.817 132.984 164.998 127.283C165.849 127.283 166.071 125.803 164.998 125.58L164.961 125.543Z" fill="#AA9A99"/>
<path fill-rule="evenodd" clip-rule="evenodd" d="M269.758 154.528C263.909 145.052 275.718 137.537 278.272 148.569C280.752 144.274 277.791 139.092 275.718 136.649C261.392 133.169 257.616 152.678 269.758 154.528Z" fill="#AA9A99"/>
<path fill-rule="evenodd" clip-rule="evenodd" d="M52.4611 165.597C37.2837 160.859 23.55 150.197 9.85337 146.866V149.42C23.1428 154.566 36.1732 160.044 47.3526 167.337C30.6575 167.004 22.2544 158.341 9.00195 154.566V162.228C22.9948 198.247 49.5737 221.642 68.6379 252.552C45.3536 229.823 23.9942 205.132 9.00195 174.148C9.70529 192.916 19.0338 200.875 28.5845 211.647C61.1973 248.48 94.5876 283.425 128.311 316.482C130.68 318.814 134.345 323.59 135.974 321.591C137.714 317.075 140.157 313.262 141.934 308.783C114.17 272.912 91.7372 231.711 66.0837 193.731C47.4266 198.247 34.9145 171.668 52.4611 165.597Z" fill="#EA4F1F"/>
<path fill-rule="evenodd" clip-rule="evenodd" d="M272.351 146.829C277.349 160.933 285.493 174.592 291.083 186.882C293.045 191.176 293.637 197.654 298.745 199.653C293.859 182.958 280.532 167.3 274.869 148.532C273.647 148.309 273.425 147.125 272.314 146.829H272.351Z" fill="#AA9A99"/>
<path fill-rule="evenodd" clip-rule="evenodd" d="M388.253 180.922C374.038 200.468 362.156 233.969 352.457 261.029C348.829 271.135 343.35 283.018 343.943 291.717C344.387 298.491 350.051 307.154 353.308 314.742C356.344 321.776 357.232 333.695 366.079 334.325C357.713 325.329 351.457 306.894 346.46 291.717C352.198 269.358 359.935 253.403 368.634 231.193C373.927 217.755 378.036 193.286 389.105 186.031C407.355 174 453.516 178.405 479.429 176.665C493.829 216.793 491.607 273.578 496.494 323.256C495.716 325.625 492.2 333.362 498.197 332.659C495.568 280.427 493.532 220.235 482.871 173.259C450.221 168.632 419.385 178.59 388.253 180.922Z" fill="#EA4F1F"/>
<path fill-rule="evenodd" clip-rule="evenodd" d="M460.696 180.922C464.99 199.616 468.766 223.419 466.656 245.704C463.103 230.601 463.177 210.981 460.696 195.433C459.993 190.88 459.623 184.18 455.588 181.811C461.77 220.198 464.99 276.244 460.696 322.442C469.433 320.665 481.723 322.442 490.533 320.739C491.68 271.098 486.794 221.42 476.91 180.145C470.728 179.627 467.026 181.626 460.733 180.996L460.696 180.922Z" fill="#706665"/>
<path fill-rule="evenodd" clip-rule="evenodd" d="M458.14 322.405C457.844 280.612 461.175 238.189 453.883 202.245C457.622 239.855 454.29 284.943 458.14 322.405Z" fill="#EA4F1F"/>
<path fill-rule="evenodd" clip-rule="evenodd" d="M301.293 207.353C300.738 209.352 296.851 207.982 297.888 211.61C300.035 211.092 305.069 208.612 301.293 207.353Z" fill="#EA4F1F"/>
<path fill-rule="evenodd" clip-rule="evenodd" d="M391.66 226.084C402.025 234.191 408.392 246.259 418.942 254.218C412.723 244.519 401.322 232.673 392.511 222.679C392.696 224.27 391.549 224.567 391.66 226.084Z" fill="#706665"/>
<path fill-rule="evenodd" clip-rule="evenodd" d="M564.641 233.784C576.746 237.338 603.917 238.411 615.799 233.784C599.623 236.264 578.781 233.192 564.641 233.784Z" fill="#EA4F1F"/>
<path fill-rule="evenodd" clip-rule="evenodd" d="M565.527 245.704C580.298 247.703 598.77 246 614.946 246.555V238.892C605.063 239.078 590.996 241.632 580.001 241.447C575.263 241.373 564.898 237.005 565.527 245.704Z" fill="#EA4F1F"/>
<path fill-rule="evenodd" clip-rule="evenodd" d="M391.66 250.812C395.584 248.776 398.694 245.926 401.026 242.298C396.435 243.63 393.585 246.777 391.66 250.812Z" fill="#706665"/>
<path fill-rule="evenodd" clip-rule="evenodd" d="M383.141 248.258C373.591 262.843 355.008 268.433 353.305 290.865C358.746 291.643 360.486 285.461 362.67 282.351C370.407 271.32 378.625 262.362 387.398 253.366C384.807 252.848 385.732 248.776 383.141 248.258Z" fill="#706665"/>
<path fill-rule="evenodd" clip-rule="evenodd" d="M626.02 253.367C602.81 253.181 581.043 254.44 558.684 255.069C558.129 280.945 561.72 307.043 559.536 331.771C583.634 331.993 605.623 330.142 628.574 329.216C622.984 307.894 629.611 277.724 626.02 253.367ZM565.495 323.256C559.832 303.452 561.461 277.835 562.941 261.029C566.68 278.428 566.754 303.674 565.495 323.256ZM580.821 325.811C573.565 323.701 576.009 315.187 575.712 307.931C575.083 293.05 572.455 271.987 574.861 260.215V257.661C577.971 257.401 580.414 257.809 582.524 258.512C585.633 264.99 585.226 276.17 585.929 284.943C587.225 300.601 590.705 321.183 580.821 325.848V325.811ZM596.998 325.811C593.814 324.478 593.222 319.74 592.741 315.594C591.038 300.824 590.038 266.878 593.592 259.326C593.814 258.401 595.295 258.771 595.295 257.624C596.035 257.476 596.109 257.957 596.146 258.475H596.998C603.476 263.88 603.143 283.721 603.809 298.528C604.401 311.448 604.772 324.071 596.998 325.811ZM612.323 324.108C609.658 308.819 604.512 269.025 613.175 256.772H614.026C623.021 263.102 620.134 289.977 620.837 306.191C621.171 313.928 623.984 327.032 612.323 324.108Z" fill="#EA4F1F"/>
<path fill-rule="evenodd" clip-rule="evenodd" d="M388.256 255.958C381.815 264.139 374.374 275.281 367.822 283.24C365.601 285.905 361.381 288.126 362.714 290.903C372.005 280.279 383.999 267.915 389.996 256.809C389.811 256.143 389.293 255.81 388.293 255.958H388.256Z" fill="#706665"/>
<path fill-rule="evenodd" clip-rule="evenodd" d="M549.32 259.327C534.883 260.067 519.372 258.512 503.307 260.178C504.232 280.834 506.157 307.894 505.861 332.622C521.26 332.955 534.476 331.104 550.171 331.771C549.468 308.375 546.914 283.092 549.32 259.327ZM537.363 313.003C534.328 313.484 525.962 312.669 520.335 313.003C517.448 305.377 518.521 293.79 516.929 284.869C520.927 282.796 532.81 282.463 539.954 284.018C536.919 289.459 541.657 306.376 537.4 313.003H537.363Z" fill="#EA4F1F"/>
<path fill-rule="evenodd" clip-rule="evenodd" d="M579.152 260.215C577.671 261.103 576.19 266.286 578.3 267.878C579.596 266.397 582.891 261.547 579.152 260.215Z" fill="#AA9A99"/>
<path fill-rule="evenodd" clip-rule="evenodd" d="M614.097 261.918C612.875 262.769 611.024 267.285 613.245 268.729C615.318 267.544 617.206 263.657 614.097 261.918Z" fill="#AA9A99"/>
<path fill-rule="evenodd" clip-rule="evenodd" d="M596.18 273.837C596.18 271.505 599.734 268.359 597.032 266.175C597.032 268.507 593.478 271.653 596.18 273.837Z" fill="#AA9A99"/>
<path fill-rule="evenodd" clip-rule="evenodd" d="M577.45 275.54C579.893 275.355 582.003 270.506 580.004 268.692C579.893 271.727 576.857 271.801 577.45 275.54Z" fill="#AA9A99"/>
<path fill-rule="evenodd" clip-rule="evenodd" d="M614.096 280.649C615.651 277.206 617.501 274.171 614.947 270.432C614.688 273.541 609.95 278.502 614.096 280.649Z" fill="#AA9A99"/>
<path fill-rule="evenodd" clip-rule="evenodd" d="M449.625 273.837C427.637 291.31 387.879 294.715 353.305 296.862C370.222 304.303 388.879 295.789 404.427 292.605C422.121 289.015 438.409 285.202 450.44 276.429C450.329 275.429 450.588 274.022 449.588 273.874L449.625 273.837Z" fill="#EA4F1F"/>
<path fill-rule="evenodd" clip-rule="evenodd" d="M579.154 284.054C580.005 282.018 583.633 278.39 580.856 275.54C580.153 277.724 576.525 281.389 579.154 284.054Z" fill="#AA9A99"/>
<path fill-rule="evenodd" clip-rule="evenodd" d="M595.333 283.203C597.999 282.981 599.664 277.354 597.888 275.54C597.036 278.094 594.889 279.353 595.333 283.203Z" fill="#AA9A99"/>
<path fill-rule="evenodd" clip-rule="evenodd" d="M422.347 295.123C412.39 298.158 401.58 298.491 389.957 301.083C377.371 303.896 367.043 308.968 355.012 303.637C360.824 311.411 360.712 325.811 370.337 328.365C373.854 329.29 381.443 327.921 386.514 327.514C404.653 326.033 430.269 322.331 448.741 323.257C451.703 312.595 450.74 293.457 449.593 281.5C441.967 287.312 433.268 291.828 422.31 295.123H422.347Z" fill="#706665"/>
<path fill-rule="evenodd" clip-rule="evenodd" d="M614.101 295.123C615.73 292.494 618.21 286.201 615.804 282.352C613.657 284.462 611.806 291.384 614.101 295.123Z" fill="#AA9A99"/>
<path fill-rule="evenodd" clip-rule="evenodd" d="M580.003 296.011C580.484 293.605 583.408 289.274 580.854 286.645C579.484 288.163 577.856 293.827 580.003 296.011Z" fill="#AA9A99"/>
<path fill-rule="evenodd" clip-rule="evenodd" d="M523.739 288.312C523.073 295.234 524.961 299.602 524.591 306.228C526.442 307.82 530.847 306.821 533.956 307.08V287.497C530.551 287.793 525.775 286.72 523.739 288.349V288.312Z" fill="#AA9A99"/>
<path fill-rule="evenodd" clip-rule="evenodd" d="M596.179 300.268C600.214 300.009 599.066 290.125 597.882 287.497C595.068 289.533 596.512 295.789 596.179 300.268Z" fill="#AA9A99"/>
<path fill-rule="evenodd" clip-rule="evenodd" d="M615.801 318.148C616.615 313.706 618.318 301.564 614.949 298.528C614.172 303.23 612.469 314.816 615.801 318.148Z" fill="#AA9A99"/>
<path fill-rule="evenodd" clip-rule="evenodd" d="M580.853 299.417C580.927 301.86 577.262 304.303 580.853 305.377C581.815 304.784 584.592 299.343 580.853 299.417Z" fill="#AA9A99"/>
<path fill-rule="evenodd" clip-rule="evenodd" d="M597.072 319.851C602.07 318.592 600.33 306.45 597.924 302.823C596.332 307.191 597.368 314.187 597.072 319.851Z" fill="#AA9A99"/>
<path fill-rule="evenodd" clip-rule="evenodd" d="M580.003 319.851C584.223 320.369 582.779 310.744 581.705 308.782C580.447 311.781 579.484 315.076 580.003 319.851Z" fill="#AA9A99"/>
<path fill-rule="evenodd" clip-rule="evenodd" d="M147.892 315.594C136.86 332.326 133.973 367.012 146.189 384.632C146.115 375.415 143.672 361.829 145.337 350.539C146.707 341.062 154.37 335.324 153.851 329.253C147.632 336.102 145.485 347.022 141.08 355.647C138.674 340.655 149.076 332.104 153.851 321.554C152.223 319.184 150.224 317.222 147.892 315.594Z" fill="#EA4F1F"/>
<path fill-rule="evenodd" clip-rule="evenodd" d="M455.588 330.105C466.101 331.141 478.539 329.66 490.533 330.956V325.848H487.127C479.761 330.438 461.289 323.886 455.588 330.105Z" fill="#EA4F1F"/>
<path fill-rule="evenodd" clip-rule="evenodd" d="M161.557 330.919C168.479 334.843 172.773 345.763 179.436 347.133C174.328 340.025 167.702 334.436 162.408 327.55C162.482 329.031 162.223 330.179 161.557 330.956V330.919Z" fill="#EA4F1F"/>
<path fill-rule="evenodd" clip-rule="evenodd" d="M373.744 333.473C394.585 331.659 430.049 333.251 449.594 330.067C425.754 327.772 396.954 330.067 373.744 333.473Z" fill="#EA4F1F"/>
<path fill-rule="evenodd" clip-rule="evenodd" d="M159.812 335.213C158.294 337.656 157.591 340.914 155.555 342.876C159.108 348.688 164.476 352.686 169.177 357.35C170.251 354.463 173.916 354.129 174.286 350.502C168.622 346.208 165.253 339.655 159.775 335.176L159.812 335.213Z" fill="#EA4F1F"/>
<path fill-rule="evenodd" clip-rule="evenodd" d="M291.93 353.944C292.744 346.985 302.295 339.989 299.63 335.176C290.264 361.126 251.543 371.861 214.414 368.418C199.792 367.049 190.167 359.201 182.023 353.907C198.274 381.967 248.767 367.234 278.344 363.273C255.837 372.416 206.862 381.56 184.578 369.233C180.172 366.79 177.137 361.903 172.658 361.57C170.77 373.342 177.137 392.702 187.983 395.664C195.461 397.737 207.825 395.256 216.117 395.664C243.806 396.959 281.454 387.113 290.264 370.084C293.188 364.458 289.746 359.904 296.224 358.164C299.148 360.608 293.485 364.606 296.224 366.679C299.259 362.347 301.295 356.98 303.887 352.205C296.335 354.611 292.485 360.682 282.564 360.719C285.785 358.535 287.636 354.981 291.93 353.907V353.944Z" fill="#EA4F1F"/>
<path fill-rule="evenodd" clip-rule="evenodd" d="M633.68 338.619C541.653 337.101 451.181 342.061 357.562 341.173V353.093C450.367 348.947 541.838 353.093 634.531 348.836C634.198 345.467 635.308 340.655 633.68 338.619Z" fill="#AA9A99"/>
<path fill-rule="evenodd" clip-rule="evenodd" d="M153.004 350.538C151.116 359.645 152.967 369.047 153.004 378.672C159.778 381.56 166.811 384.188 172.623 388.038C166.293 375.34 167.996 354.573 153.004 350.538Z" fill="#FFAE39"/>
<path fill-rule="evenodd" clip-rule="evenodd" d="M395.912 355.647C395.024 355.684 395.246 356.758 396.764 356.499C448.108 353.648 497.194 357.35 548.464 357.35C571.452 357.35 594.995 357.609 615.799 358.202C621.315 358.35 631.643 361.2 633.679 353.093C634.604 353.056 634.345 351.982 632.828 352.242C555.09 356.388 472.243 351.871 395.912 355.647Z" fill="#AA9A99"/>
<path fill-rule="evenodd" clip-rule="evenodd" d="M371.186 357.35C375.183 356.795 381.403 358.461 383.957 356.499C379.959 357.054 373.74 355.388 371.186 357.35Z" fill="#AA9A99"/>
<path fill-rule="evenodd" clip-rule="evenodd" d="M404.43 364.161C406.503 365.494 408.206 367.197 409.538 369.27C449.11 369.159 488.498 369.27 526.293 370.972C492.347 377.117 448 373.342 412.092 375.229C415.905 380.412 423.087 378.783 430.861 378.635C453.738 378.191 483.167 377.673 504.156 378.635C510.486 378.931 518.334 380.745 522.924 379.487C527.811 378.117 537.398 367.086 535.695 364.975C491.792 363.791 446.149 363.273 404.43 364.124V364.161Z" fill="#EA4F1F"/>
<path fill-rule="evenodd" clip-rule="evenodd" d="M386.546 385.483C363.113 386.557 334.794 384.891 313.25 388.038C342.827 390.074 380.919 388.038 407.831 387.186C402.648 382.152 393.616 385.15 386.509 385.483H386.546Z" fill="#AA9A99"/>
<path fill-rule="evenodd" clip-rule="evenodd" d="M411.275 385.484C420.641 391.999 425.527 403.067 432.561 411.914C427.045 402.068 421.233 388.001 411.275 385.484Z" fill="#EA4F1F"/>
<path fill-rule="evenodd" clip-rule="evenodd" d="M603.883 389.741C589.742 390.37 570.752 390.592 560.424 388.038C567.791 387.742 573.195 385.447 581.71 386.335C582.598 386.298 582.376 385.225 580.858 385.484C527.515 384.743 473.543 383.855 419.756 385.484C420.977 385.965 421.829 386.816 422.31 388.038C466.954 385.41 515.632 386.002 559.536 388.889C517.928 392.739 469.545 389.815 427.419 393.146C430.972 401.401 440.042 398.625 448.741 398.255C463.326 397.626 481.021 397.403 494.754 398.255C509.117 394.183 529.921 397.922 546.728 396.552C553.946 395.96 560.72 392.665 567.162 392.295C586.041 391.221 603.772 401.512 623.429 396.552C623.059 386.113 612.323 389.371 603.809 389.741H603.883Z" fill="#AA9A99"/>
<path fill-rule="evenodd" clip-rule="evenodd" d="M195.609 404.252C222.04 408.102 247.583 403.474 268.905 397.44C252.802 407.917 223.336 412.544 198.164 408.509C209.676 415.098 219.264 430.72 237.366 427.24C240.623 426.611 248.989 423.02 255.282 420.429C270.793 414.025 279.936 400.476 282.565 385.484C276.531 391.814 269.497 393.998 261.242 396.552C242.03 402.512 217.154 403.548 195.609 404.215V404.252Z" fill="#EA4F1F"/>
<path fill-rule="evenodd" clip-rule="evenodd" d="M631.13 393.998V388.889H628.576C628.946 391.073 629.761 392.813 631.13 393.998Z" fill="#AA9A99"/>
<path fill-rule="evenodd" clip-rule="evenodd" d="M377.15 393.146C392.661 393.776 399.139 401.031 416.352 398.255C415.057 387.52 389.922 393.072 377.15 393.146Z" fill="#AA9A99"/>
<path fill-rule="evenodd" clip-rule="evenodd" d="M313.25 393.998V399.106C324.763 398.403 337.682 399.106 344.789 393.998C334.646 394.146 320.654 393.813 313.25 393.998Z" fill="#AA9A99"/>
<path fill-rule="evenodd" clip-rule="evenodd" d="M435.113 402.512C435.632 405.695 437.519 407.509 438.519 410.211C450.439 410.137 469.355 404.918 477.721 411.914C491.825 411.063 508.816 409.138 522.883 411.063C526.733 406.658 532.841 404.548 537.357 400.846C506.41 400.18 471.835 404.103 435.113 402.549V402.512Z" fill="#AA9A99"/>
<path fill-rule="evenodd" clip-rule="evenodd" d="M617.502 424.686C615.799 422.872 618.723 420.873 619.205 418.726C615.984 415.949 615.133 410.878 608.099 411.914C604.73 404.807 591.367 400.809 584.26 405.103C583.26 404.103 583.297 402.067 583.371 399.994C578.744 399.328 576.782 401.327 572.303 400.846C572.451 403.289 572.414 405.51 569.748 405.103C566.195 406.102 568.231 401.512 566.343 400.846C565.714 402.771 561.568 401.179 559.532 401.697C559.532 404.252 559.606 406.917 556.977 406.806C553.313 407.916 555.941 402.771 552.72 403.4C549.241 405.029 544.798 405.695 541.652 407.657C541.652 409.915 542.133 412.692 539.949 412.766C537.247 413.21 537.691 409.841 535.692 411.914C533.878 417.208 527.585 418.022 524.624 422.131C524.883 424.13 525.956 425.315 525.475 428.091H521.218C515.924 443.009 512.26 464.036 513.518 478.362C515.961 478.176 518.182 478.251 517.775 480.916C518.516 483.655 516.48 483.581 515.221 484.321C515.517 487.468 517.331 489.023 517.775 491.984C520.033 491.984 522.773 491.503 522.884 493.687C520.367 500.128 527.733 501.128 529.695 505.607C533.36 502.164 539.468 503.349 536.506 509.864C538.727 511.604 541.541 512.788 544.169 514.121C545.317 511.863 545.613 508.753 550.129 509.864C550.906 513.121 548.722 515.306 550.129 516.675C552.757 516.046 552.646 518.156 555.237 517.527C556.829 516.268 556.237 512.862 559.495 513.27C560.605 514.676 561.753 516.12 561.197 519.229C566.269 518.97 570.489 519.6 573.969 520.932C574.08 517.897 574.82 515.528 577.374 514.972C578.818 516.342 580.484 517.564 579.928 520.932C585.407 521.562 587.48 518.785 592.7 519.229C594.588 518.008 592.218 512.492 595.254 512.418C599.104 511.678 597.253 516.675 600.362 516.675C603.731 515.231 605.989 512.64 609.728 511.567C609.987 508.975 608.803 504.94 611.431 504.755C619.501 506.828 621.241 496.834 626.756 493.687C626.978 491.17 624.831 491.059 625.053 488.579C626.238 486.95 629.199 487.024 631.013 486.024C635.492 465.035 633.79 438.012 623.351 424.648C620.537 424.908 619.094 427.61 617.391 424.648L617.502 424.686ZM618.353 491.17C604.434 517.045 558.421 518.378 535.692 498.833C511.593 478.139 520.848 424.352 546.76 412.729C575.005 401.142 613.393 412.47 621.759 434.051C628.2 450.672 626.904 475.215 618.353 491.17Z" fill="#706665"/>
<path fill-rule="evenodd" clip-rule="evenodd" d="M412.09 422.983C411.905 421.354 413.053 421.095 412.942 419.577C406.575 413.136 398.32 408.657 389.102 405.103C388.399 407.806 386.363 409.212 384.845 411.063C427.046 416.653 436.967 503.571 385.697 506.533C353.491 522.45 318.361 496.427 316.658 466.479C314.585 429.313 339.091 400.698 383.142 410.249H384.845C382.254 407.954 387.288 403.289 383.142 402.549C381.366 404.215 381.069 407.287 378.034 407.657C376.738 406.399 377.294 403.289 377.182 400.846H371.223C371.223 403.437 371.704 406.436 368.668 405.955C366.151 405.955 367.595 401.957 366.114 400.846C361.043 400.328 358.525 402.327 353.343 401.698C352.973 403.326 353.047 405.362 350.789 405.103C348.012 402.068 346.235 403.4 341.423 404.252C340.831 406.214 341.978 409.805 338.017 410.212C337.943 408.842 335.833 409.545 336.315 407.657C330.17 409.693 328.504 413.839 326.949 418.726C322.1 416.209 319.99 421.317 317.584 423.834C320.434 422.983 318.916 426.5 319.286 428.091C317.176 427.98 315.177 427.98 314.178 428.943C313.178 431.904 312.845 435.569 310.772 437.457C310.846 440.196 314.622 439.271 313.326 443.417H309.069C309.625 448.081 306.108 449.562 306.515 452.782C306.774 454.781 310.032 456.891 309.921 457.891C309.736 459.483 301.777 463.555 305.664 469.811C306.922 471.402 310.328 470.81 309.921 474.068C310.254 477.251 306.478 476.289 307.367 480.028C314.215 482.508 309.106 487.727 311.624 492.799C314.178 491.614 316.843 491.799 317.584 494.502C315.214 498.833 319.397 501.054 321.841 503.016C321.73 500.61 323.951 500.573 326.098 500.462C328.097 502.461 325.95 504.645 326.098 507.273C330.355 509.309 332.095 512.826 337.166 509.827C337.166 514.343 340.905 515.195 343.977 516.638C347.161 516.712 346.532 512.974 350.789 514.084C350.455 516.157 352.343 515.935 351.64 518.341C355.157 518.23 356.971 519.822 361.006 519.193C362.745 518.674 361.228 514.899 364.411 515.787C368.187 515.121 366.077 520.377 369.52 520.044C374.85 519.415 379.181 517.786 382.291 514.936C391.064 520.081 396.617 510.123 404.465 508.976C406.094 507.976 402.614 503.571 406.168 503.016C411.017 506.384 416.94 500.499 414.682 494.502C416.829 492.392 421.604 492.91 423.196 490.245C423.825 486.765 420.457 487.32 421.493 483.433C422.492 482.73 423.788 482.323 425.75 482.582C426.564 476.104 425.824 475.882 424.047 471.514C423.455 468.071 427.638 469.403 427.453 466.405C427.12 448.192 419.679 441.418 416.385 425.5C415.311 424.316 412.239 425.13 412.127 422.946L412.09 422.983Z" fill="#706665"/>
<path fill-rule="evenodd" clip-rule="evenodd" d="M313.25 402.512V408.509C320.506 411.544 324.133 404.955 327.724 401.661C322.579 401.661 318.951 403.104 313.25 402.512Z" fill="#AA9A99"/>
<path fill-rule="evenodd" clip-rule="evenodd" d="M405.281 402.512C413.092 404.659 414.684 415.616 425.752 411.914C425.16 407.398 421.236 406.214 420.644 401.66C415.794 402.216 408.724 400.55 405.318 402.512H405.281Z" fill="#AA9A99"/>
<path fill-rule="evenodd" clip-rule="evenodd" d="M610.695 402.512C613.176 403.992 616.137 405.029 617.507 407.62C620.098 405.695 624.799 405.843 626.021 402.512C622.874 401.105 613.842 401.105 610.695 402.512Z" fill="#AA9A99"/>
<path fill-rule="evenodd" clip-rule="evenodd" d="M440.225 416.171C449.109 414.246 459.992 414.32 470.912 414.468C463.546 411.174 447.036 413.284 440.225 416.171Z" fill="#EA4F1F"/>
<path fill-rule="evenodd" clip-rule="evenodd" d="M589.367 503.09C563.232 508.198 539.097 495.316 531.434 480.064C524.845 466.96 527.436 452.449 531.434 435.754C517.7 462.555 531.101 491.762 550.165 501.387C590.737 521.821 633.53 489.652 617.501 441.714C623.646 473.401 613.355 498.425 589.367 503.09Z" fill="#706665"/>
<path fill-rule="evenodd" clip-rule="evenodd" d="M582.562 437.457C602.255 446.045 595.814 477.103 574.899 476.659C568.902 476.548 558.315 472.031 556.131 464.739C553.947 457.409 558.056 448.673 556.982 443.416C551.281 455.299 555.131 472.624 562.942 477.51C574.011 484.432 593.186 478.25 597.036 466.442C600.515 455.743 594.074 439.048 582.562 437.457Z" fill="#EA4F1F"/>
<path fill-rule="evenodd" clip-rule="evenodd" d="M355.858 474.993C349.084 470.292 347.233 455.744 350.75 447.711C352.341 444.083 360.633 438.826 358.412 437.494C352.341 442.306 346.381 447.97 345.641 456.262C343.161 483.211 381.289 488.801 390.803 466.479C390.766 460.297 391.432 453.374 388.249 450.302C393.95 473.253 370.554 485.247 355.858 475.03V474.993Z" fill="#EA4F1F"/>
<path fill-rule="evenodd" clip-rule="evenodd" d="M572.34 454.522V456.225C574.672 456.151 574.08 457.632 575.745 456.225V454.522C574.08 453.115 574.672 454.596 572.34 454.522Z" fill="white"/>
<path fill-rule="evenodd" clip-rule="evenodd" d="M355.858 182.662C350.527 176.665 344.975 169.965 339.644 163.043C331.981 153.048 318.988 128.542 308.105 122.989C300.997 119.361 281.489 115.882 272.308 116.178C263.979 116.437 253.281 120.361 243.323 122.138C182.466 133.132 128.234 152.937 72.8925 166.448C64.6745 168.447 51.8663 168.114 50.7188 180.108C69.2277 186.697 88.1439 183.551 110.355 181.811C122.571 180.848 135.157 179.738 147.003 178.405C195.718 172.963 268.496 159.933 289.337 193.73C268.644 150.049 190.758 180.182 142.745 174.111C167.918 169.669 203.344 167.818 233.921 166.448C241.769 166.115 250.394 164.375 257.797 165.597C267.126 167.152 274.233 175.37 281.637 177.517C278.564 170.964 274.863 165.005 272.271 157.934C267.829 158.378 264.572 157.675 262.054 156.231C258.834 151.419 255.984 143.053 260.352 137.5C261.943 134.65 260.167 136.76 258.649 137.5C254.503 142.72 259.13 152.529 258.649 156.231C244.249 146.866 258.39 121.508 276.528 128.949C276.232 130.948 272.79 129.8 272.271 131.503C285.413 130.245 285.857 149.198 281.637 155.38C289.411 169.484 297.222 183.588 303.811 198.839C307.883 199.32 310.104 201.652 313.176 203.096C319.765 224.937 335.942 237.153 347.27 254.255C351.712 237.079 361.374 220.643 364.335 204.836C353.748 213.572 352.341 231.489 342.161 240.632C344.716 223.863 353.23 213.054 360.078 200.579C346.752 184.883 330.39 166.374 318.322 148.569C313.695 141.757 310.437 133.687 305.551 129.837C286.486 114.808 245.952 127.764 223.741 134.095C207.527 138.722 189.98 141.387 173.47 145.163C139.007 153.011 105.95 166.226 74.5954 167.337C106.875 161.414 139.229 149.235 173.47 140.906C189.832 136.908 207.823 133.724 224.592 128.949C253.133 120.842 283.488 113.772 308.105 126.395C324.43 149.309 344.123 173.186 361.781 193.73C364.15 196.507 365.927 200.838 369.444 202.245C369.629 193.138 360.967 188.437 355.821 182.662H355.858ZM66.9326 179.256C64.0822 182.403 58.0483 182.107 54.9758 179.256C53.0509 170.742 63.2678 168.854 66.9326 173.297V179.256ZM115.5 177.554C104.506 179.923 91.4385 180.219 78.8524 180.959C86.8853 176.628 105.876 174.629 115.5 177.554Z" fill="#EA4F1F"/>
<path fill-rule="evenodd" clip-rule="evenodd" d="M395.916 187.771C385.81 189.436 380.812 212.98 377.148 223.567C372.224 237.893 365.635 251.108 361.822 263.62C368.486 256.365 375.001 248.924 383.959 244.038C390.585 249.22 392.066 242.261 397.582 239.781C394.953 233.044 388.956 229.675 387.365 221.864C388.808 220.198 389.993 218.236 392.473 217.607C404.282 229.379 416.424 240.78 424.012 256.809C416.498 265.73 408.798 251.478 404.43 246.592C400.284 247.518 399.396 251.738 395.916 253.403C394.805 254.958 396.693 257.698 395.064 260.215C390.733 264.583 386.994 270.876 382.293 276.429C378.258 281.167 370.521 287.238 371.225 290.903C400.987 286.868 427.455 279.538 450.48 268.729C450.999 237.523 448.296 209.574 444.52 182.662C426.345 181.589 410.242 185.401 395.953 187.771H395.916Z" fill="#AA9A99"/>
<path fill-rule="evenodd" clip-rule="evenodd" d="M71.1953 193.73C96.4416 227.306 119.208 270.728 145.342 306.228C124.242 273.467 103.512 238.152 83.1151 205.65C80.3758 201.319 77.3773 194.285 71.1953 193.73Z" fill="#EA4F1F"/>
<path fill-rule="evenodd" clip-rule="evenodd" d="M323.472 238.892C318.475 229.675 314.44 219.495 308.998 210.758C313.44 220.531 317.623 230.526 323.472 238.892Z" fill="#EA4F1F"/>
<path fill-rule="evenodd" clip-rule="evenodd" d="M335.43 265.323C322.362 251.405 314.959 231.822 305.593 214.201C302.965 213.572 303.964 216.534 301.336 215.904C309.628 241.151 325.027 266.619 337.984 290.051C346.683 271.838 332.246 255.81 327.767 247.444C329.692 254.033 333.949 258.327 335.467 265.323H335.43Z" fill="#EA4F1F"/>
<path fill-rule="evenodd" clip-rule="evenodd" d="M343.091 265.323C347.126 257.587 335.947 248.591 333.393 244.371C336.502 251.479 339.315 258.882 343.091 265.323Z" fill="#EA4F1F"/>
<path fill-rule="evenodd" clip-rule="evenodd" d="M333.354 244.371C333.169 243.964 333.021 243.556 332.836 243.149C332.836 243.482 333.095 243.89 333.354 244.371Z" fill="#EA4F1F"/>
<path fill-rule="evenodd" clip-rule="evenodd" d="M302.181 347.133C306.845 345.282 310.621 337.989 310.695 334.362C307.586 337.804 300.774 342.024 302.181 347.133Z" fill="#EA4F1F"/>
<path fill-rule="evenodd" clip-rule="evenodd" d="M153.002 388.038C162.738 389.37 171.77 395.96 178.581 397.403C170.882 391.739 162.071 387.186 153.002 382.929V388.038Z" fill="#EA4F1F"/>
<path fill-rule="evenodd" clip-rule="evenodd" d="M441.924 439.16C438.74 430.979 438.185 415.616 431.707 413.617C436.445 420.799 438.481 430.72 440.221 440.862C450.105 438.567 462.617 443.565 470.909 439.16C461.432 441.196 452.252 438.752 441.924 439.16Z" fill="#EA4F1F"/>
<path fill-rule="evenodd" clip-rule="evenodd" d="M354.159 419.577C357.194 414.358 371.224 415.653 374.63 413.617C336.279 408.583 316.586 436.198 321.768 472.402C322.731 479.176 328.32 489.504 332.836 488.579C316.326 473.29 321.287 425.389 343.905 422.946C339.759 429.054 333.984 431.645 331.134 437.42C308.183 484.136 366.264 519.563 401.024 490.244C410.426 479.768 410.167 456.373 408.686 439.974C415.905 450.006 414.239 473.919 410.389 483.433C427.973 442.565 393.916 407.842 354.159 419.503V419.577ZM333.688 460.482C333.799 453.337 336.353 443.898 340.499 438.308C350.864 424.352 387.068 414.987 395.915 434.903C391.029 432.422 384.81 431.238 380.553 428.091H383.107C359.823 425.648 337.649 435.865 337.094 458.779C336.834 468.959 343.016 483.914 353.27 488.616C361.97 492.614 381.441 491.244 388.215 485.21C376.073 510.197 333.207 491.318 333.688 460.482ZM341.351 452.819C343.535 441.899 353.493 434.125 366.079 432.348C385.772 429.572 398.951 444.712 395.064 466.442C390.177 493.798 333.281 492.947 341.388 452.819H341.351ZM392.472 486.061C393.509 480.176 400.802 476.03 401.838 467.33C402.912 458.409 398.432 449.673 397.581 440.899C408.76 450.45 406.354 481.841 392.472 486.061Z" fill="#AA9A99"/>
<path fill-rule="evenodd" clip-rule="evenodd" d="M536.543 429.794C540.652 422.391 548.907 422.983 555.274 417.023C546.316 418.023 537.691 423.834 536.543 429.794Z" fill="#706665"/>
<path fill-rule="evenodd" clip-rule="evenodd" d="M614.947 434.903C612.06 426.981 604.027 419.688 597.068 418.726C601.14 421.021 607.137 425.5 605.582 430.646C588.183 408.694 538.69 416.653 533.138 445.12C531.435 453.819 534.359 460.778 533.138 471.55C539.023 479.028 541.911 489.356 551.869 494.539C568.268 503.09 599.807 500.165 608.136 487.727C617.243 474.142 617.428 450.672 611.542 433.2C613.874 432.571 613.245 434.866 614.947 434.903ZM597.919 428.091C599.437 430.386 594.18 429.757 597.068 430.646C591.108 432.867 586.332 426.611 579.188 427.24C582.298 421.613 595.291 423.649 597.919 428.091ZM583.408 431.497C601.658 435.643 610.69 468.959 593.625 480.065C586.221 484.877 572.636 486.617 563.789 483.47C542.836 476.067 542.762 435.532 568.046 431.497C572.636 430.757 578.818 430.46 583.371 431.497H583.408ZM600.473 485.21C589.183 488.098 580.225 493.169 568.083 491.17C537.395 486.173 531.546 438.16 559.568 428.091C556.496 435.347 548.5 438.753 545.946 446.859C539.69 466.516 554.645 485.543 572.377 486.913C576.893 487.283 583.482 484.692 588.591 484.359C590.404 484.248 592.7 485.543 593.699 485.21C603.99 481.582 608.876 462.74 604.804 448.562C605.101 447.23 606.285 449.303 606.507 447.711C614.244 459.075 608.025 478.547 600.547 485.21H600.473Z" fill="#AA9A99"/>
<path fill-rule="evenodd" clip-rule="evenodd" d="M560.426 447.711C553.244 478.14 592.705 476.252 590.262 454.522C588.781 441.566 567.348 432.422 560.426 447.711ZM583.414 446.008C583.784 448.932 583.155 450.857 580.008 450.265C579.342 449.488 579.083 448.34 579.157 446.859C580.156 446.156 581.452 445.749 583.414 446.008ZM571.494 440.9C573.456 440.64 574.752 441.048 575.751 441.751C576.01 443.713 575.603 445.009 574.9 446.008C571.013 446.304 570.087 443.676 571.494 440.9ZM564.683 443.454C565.682 443.602 566.2 443.269 566.386 442.602C568.533 442.454 569.051 443.898 569.791 445.157C569.643 447.563 568.31 448.784 565.534 448.562C564.572 447.563 564.572 445.564 564.683 443.454ZM561.277 453.671C561.388 450.931 563.202 449.932 566.386 450.265C567.607 452.93 566.534 456.04 562.128 455.374C562.24 454.374 561.943 453.856 561.277 453.671ZM569.791 467.33C568.273 465.813 568.681 461.889 570.643 461.371C573.382 461.482 574.381 463.295 574.048 466.479C573.086 467.182 571.753 467.627 569.791 467.33ZM580.86 466.479C577.343 467.145 575.492 463.555 577.454 461.371C576.232 460.963 570.346 461.482 568.94 458.816C567.348 460.075 567.94 463.481 564.683 463.073C564.683 462.259 563.646 462.407 562.98 462.222V457.965C564.053 456.817 567.015 456.817 568.088 457.965C565.349 442.75 587.153 447.785 578.305 459.668C578.416 461.222 581.193 460.186 581.711 461.371C581.822 463.481 581.859 465.48 580.86 466.479ZM585.968 459.668H582.562C580.823 457.669 581.933 453.375 585.968 454.559C586.745 457.039 586.745 457.188 585.968 459.668Z" fill="#EA4F1F"/>
<path fill-rule="evenodd" clip-rule="evenodd" d="M375.442 439.16C374.517 437.753 367.854 437.753 366.928 439.16C348.641 444.897 350.603 477.547 372.888 473.253C387.177 470.514 386.77 446.563 375.442 439.16ZM371.185 441.714C374.11 441.048 374.776 442.676 376.294 443.417C376.146 446.119 375.702 448.488 372.888 448.525C369.742 448.821 369.779 443.343 371.185 441.714ZM367.78 443.417C371.778 448.007 364.3 453.449 362.671 447.674C362.412 444.305 364.3 443.047 367.78 443.417ZM362.671 467.293C357.007 468.071 357.896 460.963 363.523 462.185C363.634 464.295 363.634 466.294 362.671 467.293ZM360.117 458.779C354.342 458.483 356.378 449.043 362.671 451.116C364.929 453.449 364.189 458.335 360.117 458.779ZM367.78 470.699C365.966 468.404 365.966 466.146 367.78 463.888C373.406 463.295 372.814 471.143 367.78 470.699ZM378.848 467.293C374.998 467.738 373.295 466.035 373.74 462.185C376.997 458.15 381.921 463.036 378.848 467.293ZM380.551 457.928C378.478 457.447 376.183 457.187 376.294 454.522C376.257 460.334 370.26 464.776 365.225 460.482C361.746 450.857 372.407 446.711 375.442 453.671C377.219 453.449 375.665 449.895 377.997 450.265C383.068 449.229 383.179 456.114 380.551 457.928Z" fill="#EA4F1F"/>
<path fill-rule="evenodd" clip-rule="evenodd" d="M378.034 503.09C374.073 503.201 366.744 506.384 360.117 504.793C357.045 504.422 352.677 500.943 349.9 503.09C357.156 505.015 366.781 507.384 372.889 506.495C377.664 505.829 380.477 503.016 377.997 503.09H378.034Z" fill="#706665"/>
</svg>
