<?xml version="1.0" encoding="UTF-8"?>
<svg id="_Слой_2" data-name="Слой 2" xmlns="http://www.w3.org/2000/svg" viewBox="0 0 195.08 260.56">
  <defs>
    <style>
      .cls-1 {
        fill: #fcfdff;
      }

      .cls-2 {
        fill: #c35041;
      }

      .cls-3 {
        fill: #261d2a;
      }

      .cls-4 {
        fill: #76ada2;
      }

      .cls-5 {
        fill: #debc23;
      }

      .cls-6 {
        fill: #403955;
      }

      .cls-7 {
        fill: #c15f7a;
      }

      .cls-8 {
        fill: #eeebd5;
      }
    </style>
  </defs>
  <g id="OBJECTS">
    <g>
      <g>
        <path class="cls-1" d="m163.05,207.26s-.98-7.49,5.98-5.1c6.96,2.39,4.72,9.26,2.06,6.92-2.66-2.33,2.28-10.32,7.61-6.8,5.33,3.52,4.17,10.4.4,10.93-3.77.53,2.25-8.02,7.02-2.78,4.77,5.23-5.57,14.87-9.82,11.37-4.25-3.5-.96-9.21.07-5.75,1.03,3.46-1.7,6.88-9.22,6.78-7.52-.1-4.14-12.12-1.5-8.64s-1.71,7.45-7.03,3.36c-5.32-4.09.7-12.64,4.43-10.29Z"/>
        <path class="cls-3" d="m167.45,223.33c-.1,0-.2,0-.31,0-2.48-.03-4.22-1.33-4.84-3.59-1.2-.15-2.56-.71-3.99-1.8-3.17-2.43-2.67-6.33-.86-8.92,1.43-2.06,3.4-3.01,5.05-2.55-.01-1.18.18-3.31,1.61-4.48,1.17-.96,2.88-1.06,5.07-.31,1.04.36,1.86.8,2.51,1.27,1.64-1.79,4.37-3.01,7.27-1.09,2.7,1.78,3.72,4.25,3.83,6.36,1.12.03,2.42.48,3.68,1.87,2.76,3.03.92,7.07-1.5,9.6-2.63,2.76-6.56,4.5-9.01,2.49-.33-.28-.63-.57-.89-.87-1.68,1.31-4.32,2.02-7.65,2.02Zm-4.09-3.55c.43,1.26,1.45,2.52,3.8,2.55,3.26.04,5.82-.6,7.35-1.82-.97-1.59-1.03-3.34-.54-4.63.34-.9.92-1.42,1.54-1.4.42.02.99.28,1.34,1.43.47,1.58.21,3.13-.73,4.37-.09.12-.19.24-.29.35.22.26.48.52.79.78,1.95,1.61,5.4-.04,7.65-2.41,2.12-2.23,3.78-5.72,1.48-8.24-1.02-1.12-2.05-1.51-2.96-1.54-.03.3-.07.58-.13.85-.45,2-1.79,3.4-3.49,3.63-1.22.17-1.58-.48-1.68-.76-.38-1.07.8-2.91,2.52-3.94.4-.24,1.03-.55,1.81-.7-.08-1.84-.98-4.02-3.38-5.6-2.36-1.56-4.55-.63-5.96.9,1.41,1.39,1.65,2.89,1.69,3.47.08,1.29-.42,2.4-1.27,2.82-.67.33-1.44.17-2.13-.43-1.5-1.32-.97-3.87.32-5.72-.57-.41-1.29-.79-2.21-1.11-1.84-.63-3.23-.59-4.11.13-1.59,1.29-1.21,4.4-1.2,4.43.02.19-.06.38-.23.49-.16.1-.37.1-.54,0-1.52-.96-3.4.32-4.51,1.91-1.54,2.21-2,5.52.65,7.56,1.14.88,2.22,1.36,3.18,1.55-.26-2.35.59-4.9,1.93-5.51.33-.15,1.2-.39,2.02.69,1.22,1.6,1.19,3.52-.07,4.77-.63.63-1.53,1.04-2.62,1.12Zm12.12-4.3c-.1,0-.36.22-.57.75-.29.76-.42,2.16.33,3.55.03-.03.05-.07.08-.1.75-1,.95-2.2.57-3.49-.17-.58-.38-.72-.42-.72h0Zm-10.85-1.42c-.08,0-.15.03-.19.05-.79.36-1.64,2.55-1.32,4.69.91-.02,1.65-.34,2.15-.84.9-.9.89-2.25-.02-3.46-.27-.35-.48-.44-.62-.44Zm17.14-4.72c-.5.12-.92.33-1.25.53-1.48.89-2.24,2.31-2.08,2.75.06.17.51.12.6.1,1.28-.18,2.29-1.28,2.65-2.86.04-.17.07-.34.09-.52Zm-9.93-4.94c-1.13,1.67-1.33,3.51-.42,4.31.26.23.66.47,1.03.29.39-.19.77-.85.71-1.86-.03-.46-.22-1.62-1.32-2.74Z"/>
      </g>
      <g>
        <path class="cls-1" d="m7.03,31.05s-.98-7.49,5.98-5.1c6.96,2.39,4.72,9.26,2.06,6.92s2.28-10.32,7.61-6.8c5.33,3.52,4.17,10.4.4,10.93s2.25-8.02,7.02-2.78c4.77,5.23-5.57,14.87-9.82,11.37-4.25-3.5-.96-9.21.07-5.75,1.03,3.46-1.7,6.88-9.22,6.78-7.52-.1-4.14-12.12-1.5-8.64,2.64,3.48-1.71,7.45-7.03,3.36-5.32-4.09.7-12.64,4.43-10.29Z"/>
        <path class="cls-3" d="m11.43,47.12c-.1,0-.2,0-.31,0-2.47-.03-4.22-1.33-4.84-3.59-1.2-.15-2.56-.71-3.99-1.8-3.17-2.43-2.67-6.33-.86-8.92,1.43-2.06,3.4-3.01,5.05-2.55-.01-1.18.18-3.31,1.61-4.48,1.17-.96,2.88-1.06,5.07-.31,1.04.36,1.86.8,2.51,1.27,1.65-1.79,4.37-3.01,7.27-1.09,2.7,1.78,3.72,4.25,3.83,6.35,1.12.03,2.42.48,3.68,1.87,2.76,3.03.92,7.07-1.5,9.61-2.63,2.76-6.56,4.5-9.01,2.49-.33-.28-.63-.57-.89-.87-1.68,1.31-4.32,2.02-7.65,2.02Zm-4.09-3.55c.43,1.26,1.45,2.52,3.8,2.55,3.26.04,5.82-.6,7.35-1.82-.97-1.59-1.03-3.34-.54-4.63.34-.9.93-1.41,1.54-1.4.42.02.99.28,1.34,1.43.47,1.58.21,3.13-.73,4.37-.09.12-.19.24-.29.35.22.26.48.52.79.78,1.95,1.61,5.4-.04,7.65-2.41,2.12-2.23,3.78-5.72,1.48-8.24-1.02-1.12-2.05-1.51-2.96-1.54-.03.3-.07.58-.13.85-.45,2-1.79,3.4-3.49,3.63-1.21.17-1.58-.48-1.68-.76-.38-1.07.8-2.91,2.51-3.94.4-.24,1.03-.55,1.81-.7-.08-1.84-.98-4.02-3.38-5.6-2.36-1.56-4.55-.63-5.96.9,1.41,1.39,1.65,2.89,1.69,3.47.08,1.29-.42,2.4-1.27,2.82-.67.33-1.44.17-2.13-.43-1.5-1.32-.97-3.87.32-5.72-.57-.41-1.29-.79-2.21-1.11-1.84-.63-3.23-.59-4.12.14-1.59,1.3-1.21,4.39-1.2,4.42.03.19-.06.38-.23.49s-.37.11-.54,0c-1.52-.96-3.4.32-4.51,1.91-1.54,2.21-2,5.52.65,7.56,1.14.88,2.22,1.36,3.18,1.55-.26-2.35.59-4.9,1.93-5.51.33-.15,1.2-.39,2.02.69,1.22,1.6,1.19,3.52-.07,4.77-.63.63-1.53,1.04-2.62,1.12Zm12.12-4.3c-.1,0-.36.22-.57.75-.29.76-.42,2.16.33,3.55.03-.03.05-.07.08-.1.75-1,.95-2.2.57-3.49-.17-.58-.38-.72-.42-.72h0Zm-10.84-1.42c-.08,0-.15.03-.18.05-.79.36-1.64,2.55-1.32,4.69.91-.02,1.65-.34,2.15-.84.9-.9.89-2.25-.02-3.46-.27-.35-.48-.44-.62-.44Zm17.14-4.72c-.5.12-.92.33-1.25.53-1.48.89-2.24,2.31-2.08,2.75.06.17.51.12.6.1,1.28-.18,2.29-1.28,2.65-2.86.04-.16.07-.34.09-.51Zm-9.93-4.94c-1.13,1.67-1.33,3.51-.42,4.31.26.23.66.47,1.03.29.39-.19.77-.85.71-1.86-.03-.46-.22-1.62-1.32-2.74Z"/>
      </g>
      <path class="cls-5" d="m41.44,57.17s-2.9-7.76-1.45-7.14c1.45.62,6.13,2.99,6.13,2.99,0,0,5.04-3.49,5.35-3.02.31.47-.41,6.86-.41,6.86,0,0,6.21,3.31,5.07,4.03-1.14.72-6.83,1.34-6.83,1.34,0,0-2.16,7.97-3.18,7.16-1.56-1.22-2.92-6.13-2.92-6.13,0,0-6.53-.1-6.32-1.14.21-1.03,4.56-4.97,4.56-4.97Z"/>
      <path class="cls-5" d="m178.23,178.25s-2.9-7.76-1.45-7.14c1.45.62,6.13,2.99,6.13,2.99,0,0,5.04-3.49,5.35-3.02.31.47-.41,6.86-.41,6.86,0,0,6.21,3.31,5.07,4.03-1.14.72-6.83,1.34-6.83,1.34,0,0-2.16,7.97-3.18,7.16-1.56-1.22-2.92-6.13-2.92-6.13,0,0-6.53-.1-6.32-1.14.21-1.03,4.56-4.97,4.56-4.97Z"/>
      <g>
        <path class="cls-4" d="m155.39,44.41s-2.1,10.82-1.49,13.5c.62,2.68,10.1,7.2,10.48,7.31s-4.42-7.14-4.42-7.14l3.11-4.59-7.68-9.08Z"/>
        <path class="cls-4" d="m162.78,39.64s10.73,2.54,12.91,4.2c2.19,1.66,2.4,12.17,2.35,12.56-.05.39-4.69-6.97-4.69-6.97l-5.46.94-5.11-10.74Z"/>
        <path class="cls-1" d="m157.01,39.98c-.99.65-6.06,4.89-5.96,5.79.09.85,12.75,12.76,12.75,12.76l.89-.54,1.63,2.92s5.82-3.86,5.92-3.82c.1.04-1.51-2.36-1.51-2.36l-6.04,3.26,7.03-4.26s-6.17-14.75-7.91-16.2c0,0-2.37-.47-6.8,2.44Z"/>
        <path class="cls-3" d="m156.77,39.61c-.06.04-6.31,4.8-6.15,6.21.09.83,7.06,7.55,12.88,13.03.14.13.36.16.53.06l.5-.3,1.41,2.52c.06.11.16.18.28.21.12.03.24,0,.35-.06,2.04-1.35,5.37-3.54,5.81-3.77.08-.03.16-.08.22-.15.04-.06.08-.1.1-.16.07-.23-.19-.62-1.52-2.62l.78-.48c.09-.06.16-.14.19-.24.03-.1.03-.2-.01-.3-.64-1.52-6.26-14.89-8.03-16.37-.06-.05-.12-.08-.19-.09-.1-.02-2.6-.47-7.12,2.5Zm14.87,17.32c-.68.39-2.07,1.31-5.17,3.36l-1.19-2.14,5.13-3.11c.47.7.97,1.46,1.23,1.89Zm-.48-3.37l-7.3,4.43c-4.6-4.34-11.72-11.22-12.36-12.27.3-.9,4.55-4.58,5.75-5.37,3.67-2.41,5.87-2.42,6.36-2.39,1.29,1.32,5.13,9.84,7.55,15.6Z"/>
        <g>
          <path class="cls-1" d="m166.1,46.14c1.27,1.97.7,4.59-1.26,5.86-1.97,1.27-4.59.7-5.86-1.26-1.27-1.97-.7-4.59,1.26-5.86s4.59-.7,5.86,1.26Z"/>
          <path class="cls-3" d="m166.99,49.88c-.32.99-.97,1.89-1.91,2.49-2.17,1.4-5.07.77-6.46-1.39-.68-1.05-.91-2.3-.64-3.52.26-1.22.99-2.27,2.04-2.94,1.05-.68,2.3-.91,3.52-.64,1.22.26,2.27.99,2.94,2.04.79,1.22.93,2.68.52,3.97Zm-8.06-2.6c-.34,1.05-.22,2.23.42,3.23,1.14,1.76,3.49,2.27,5.25,1.13,1.76-1.14,2.27-3.49,1.13-5.25-.55-.85-1.4-1.44-2.39-1.65-.99-.21-2.01-.03-2.86.52-.77.49-1.29,1.22-1.55,2.03Z"/>
        </g>
        <path class="cls-7" d="m150.56,45.91s9.37-.11,13.5-8.73c0,0-9.73-5.05-11.6-4.35-1.87.7-1.9,13.08-1.9,13.08Z"/>
        <path class="cls-2" d="m171.96,59.19s2.5-1.37,5.43,1.36c2.93,2.73,2.06,11.6.97,11.67-1.09.07-9.11-.71-10.68-4.91s-.25-5.51,4.27-8.13Z"/>
        <path class="cls-5" d="m171.59,60.58s1.03-.99,2.54.41c1.51,1.4,1.76,6.09,1.2,6.12-.56.04-5.13-.2-5.94-2.36-.81-2.16-.13-2.83,2.2-4.18Z"/>
        <g>
          <path class="cls-1" d="m161.14,46.27s1.54-1.22,3.24.83"/>
          <path class="cls-3" d="m164.8,47.24c-.02.08-.07.15-.14.2-.19.15-.46.13-.62-.06-1.37-1.65-2.51-.86-2.64-.77-.19.15-.47.11-.61-.08-.15-.19-.11-.46.07-.61.02-.02,1.9-1.45,3.85.9.1.12.12.28.08.41Z"/>
        </g>
        <g>
          <path class="cls-1" d="m154.58,35.03s5.05,1.99,6.45,2.99"/>
          <path class="cls-3" d="m161.44,38.15s-.03.08-.06.12c-.14.2-.41.24-.61.1-1.34-.95-6.31-2.92-6.36-2.94-.23-.09-.34-.33-.25-.57.09-.22.34-.34.57-.25.21.08,5.12,2.02,6.54,3.04.16.11.22.31.16.49Z"/>
        </g>
      </g>
      <g>
        <path class="cls-4" d="m23.65,193.68s4.25-10.17,4.19-12.92c-.06-2.75-8.43-9.09-8.78-9.28-.35-.19,2.88,7.89,2.88,7.89l-3.97,3.87,5.68,10.45Z"/>
        <path class="cls-4" d="m15.44,196.86s-9.99-4.66-11.79-6.73c-1.8-2.07.11-12.4.24-12.77.13-.37,3.18,7.77,3.18,7.77l5.54.18,2.83,11.55Z"/>
        <path class="cls-1" d="m21.16,197.69c1.1-.44,6.92-3.56,7.01-4.47.08-.85-9.9-15.08-9.9-15.08l-.98.35-1.01-3.19s-6.48,2.6-6.57,2.54c-.09-.06,1,2.62,1,2.62l6.57-1.97-7.74,2.75s3.05,15.69,4.47,17.46c0,0,2.22.94,7.15-1.01Z"/>
        <path class="cls-3" d="m21.33,198.1c.07-.03,7.15-3.42,7.28-4.83.08-.83-5.38-8.82-9.98-15.37-.11-.16-.32-.23-.51-.16l-.55.19-.87-2.76c-.04-.12-.12-.21-.23-.26-.11-.05-.24-.06-.35-.01-2.27.91-5.98,2.38-6.45,2.51-.09,0-.17.04-.24.1-.06.05-.1.08-.13.13-.12.21.06.65.96,2.87l-.86.31c-.1.04-.18.11-.23.2-.05.09-.07.19-.05.3.31,1.62,3.12,15.85,4.55,17.65.05.06.1.1.17.13.1.04,2.45.99,7.48-1.01Zm-11.06-19.97c.74-.25,2.3-.86,5.74-2.24l.74,2.34-5.65,2.01c-.32-.78-.65-1.63-.83-2.1Zm-.22,3.4l8.05-2.86c3.63,5.18,9.21,13.36,9.62,14.52-.48.82-5.38,3.56-6.72,4.09-4.08,1.62-6.24,1.18-6.71,1.05-1-1.55-3.03-10.68-4.24-16.81Z"/>
        <g>
          <path class="cls-1" d="m13.51,189.81c-.85-2.18.24-4.64,2.42-5.48s4.64.24,5.48,2.42c.85,2.18-.24,4.64-2.42,5.48-2.18.85-4.64-.24-5.48-2.42Z"/>
          <path class="cls-3" d="m13.39,185.97c.51-.91,1.33-1.65,2.38-2.06,2.4-.93,5.12.27,6.05,2.67.45,1.16.42,2.44-.08,3.58-.5,1.14-1.42,2.02-2.59,2.47-1.16.45-2.44.42-3.58-.08-1.14-.5-2.02-1.42-2.47-2.59-.53-1.36-.37-2.82.29-3.99Zm7.37,4.18c.54-.96.67-2.14.24-3.25-.76-1.95-2.96-2.93-4.92-2.17-1.95.76-2.93,2.96-2.17,4.92.37.95,1.08,1.69,2.01,2.1.93.41,1.96.43,2.91.07.85-.33,1.51-.93,1.93-1.67Z"/>
        </g>
        <path class="cls-7" d="m28.68,193.19s-9.2-1.79-14.99,5.82c0,0,8.51,6.91,10.48,6.6s4.51-12.43,4.51-12.43Z"/>
        <path class="cls-2" d="m10.4,175.84s-2.73.83-5.05-2.43.33-11.78,1.41-11.63,8.78,2.54,9.46,6.96-.87,5.45-5.83,7.09Z"/>
        <path class="cls-5" d="m11.05,174.56s-1.21.76-2.4-.92-.5-6.32.06-6.24c.56.08,4.98,1.23,5.34,3.51.35,2.28-.45,2.8-3,3.65Z"/>
        <g>
          <path class="cls-1" d="m18.39,190.69s-1.76.88-3.01-1.47"/>
          <path class="cls-3" d="m15.01,189.01c.04-.07.1-.13.18-.17.21-.11.48-.03.59.18,1.01,1.89,2.29,1.35,2.43,1.28.22-.1.48-.01.58.2.11.22.02.48-.2.58-.02.01-2.15,1.04-3.59-1.66-.07-.14-.07-.3,0-.42Z"/>
        </g>
        <g>
          <path class="cls-1" d="m22.55,203.02s-4.55-2.97-5.71-4.23"/>
          <path class="cls-3" d="m16.45,198.58s.05-.07.08-.11c.18-.16.45-.15.62.02,1.12,1.2,5.58,4.13,5.63,4.16.2.13.26.39.13.61-.13.2-.4.26-.61.13-.19-.12-4.6-3.02-5.79-4.3-.13-.14-.15-.35-.06-.51Z"/>
        </g>
      </g>
      <path class="cls-3" d="m165.05,23.99c-.37,0-.72-.22-1.6-3.9-3.28-.68-3.56-1.07-3.66-1.2-.09-.13-.13-.35-.08-.5.06-.21.21-.7,3.98-2.16,1.35-3.39,1.82-3.45,2.07-3.48.19-.02.44.09.55.24.24.33.44,1.17.76,2.52.1.42.22.93.29,1.16.2.09.63.25.99.39,1.92.72,2.42.96,2.5,1.42.03.17-.06.42-.19.54-.4.35-2.27,1.02-3.26,1.35-1.64,3.6-1.98,3.61-2.28,3.62-.02,0-.05,0-.07,0Zm-3.98-5.51c.65.2,1.85.49,2.89.69.19.04.34.19.39.38.25,1.09.59,2.32.83,3.03.37-.65.94-1.8,1.4-2.82.06-.13.16-.22.3-.27.9-.3,1.91-.68,2.54-.94-.44-.19-1.03-.41-1.42-.56-1.1-.41-1.3-.5-1.44-.69-.12-.17-.19-.45-.45-1.57-.1-.42-.25-1.07-.38-1.55-.34.62-.81,1.68-1.18,2.61-.05.13-.16.23-.29.28-1.17.45-2.49,1.02-3.19,1.4Zm3.01-1.86h0,0Z"/>
      <path class="cls-3" d="m28.49,158.32c-.37,0-.72-.22-1.6-3.9-3.28-.68-3.56-1.07-3.66-1.2-.09-.13-.13-.36-.08-.5.06-.21.21-.7,3.98-2.16,1.35-3.39,1.82-3.45,2.07-3.48.19-.03.44.09.55.24.24.33.44,1.17.76,2.52.1.42.22.93.29,1.16.2.09.63.25.99.39,1.92.72,2.42.96,2.5,1.42.03.17-.06.42-.19.54-.4.35-2.27,1.02-3.26,1.35-1.64,3.6-1.98,3.61-2.28,3.62-.02,0-.05,0-.07,0Zm-3.98-5.51c.65.2,1.85.49,2.89.69.19.04.34.19.39.38.25,1.09.59,2.32.83,3.03.37-.65.94-1.8,1.4-2.82.06-.13.16-.22.3-.27.9-.3,1.91-.68,2.54-.94-.44-.19-1.03-.41-1.42-.56-1.1-.41-1.3-.5-1.44-.69-.12-.17-.19-.45-.46-1.57-.1-.42-.25-1.07-.38-1.55-.34.62-.81,1.68-1.18,2.61-.05.13-.16.23-.29.28-1.17.45-2.49,1.02-3.18,1.4Zm3.01-1.86h0,0Z"/>
      <path class="cls-3" d="m160.38,143.95h-1.94s2.05-1.4,2.05-1.4c.23-.16.29-.47.13-.69-.16-.23-.47-.29-.69-.13l-2.76,1.87.06-3.23c0-.28-.21-.5-.49-.51h0c-.27,0-.5.22-.51.49l-.05,2.85-1.69-1.83c-.19-.2-.5-.22-.71-.03-.2.19-.22.5-.03.71l1.74,1.89h-3.2c-.28-.01-.5.21-.5.49,0,.27.22.5.49.5h0s2.92.01,2.92.01l-2.28,1.55c-.23.16-.29.47-.13.69.1.14.25.22.41.22.1,0,.2-.03.29-.09l2.65-1.8-.06,3.25c0,.28.21.5.49.51h0c.27,0,.5-.22.51-.49l.06-3.07,1.8,1.95c.1.1.23.16.36.16.12,0,.25-.04.35-.13.2-.19.22-.5.03-.71l-1.89-2.05h2.6c.28,0,.5-.21.5-.49,0-.27-.22-.5-.5-.5Z"/>
      <path class="cls-3" d="m48.66,24.57h-1.94s2.05-1.4,2.05-1.4c.23-.16.29-.47.13-.69-.16-.23-.47-.29-.69-.13l-2.76,1.87.06-3.23c0-.28-.21-.5-.49-.51h0c-.27,0-.5.22-.51.49l-.05,2.85-1.69-1.83c-.19-.2-.5-.22-.71-.03-.2.19-.22.5-.03.71l1.74,1.89h-3.2c-.28-.01-.5.21-.5.49,0,.27.22.5.49.5h2.93s-2.28,1.56-2.28,1.56c-.23.16-.29.47-.13.69.1.14.25.22.41.22.1,0,.2-.03.29-.09l2.65-1.8-.06,3.25c0,.28.21.5.49.51h0c.27,0,.5-.22.51-.49l.06-3.07,1.8,1.95c.1.1.23.16.36.16.12,0,.25-.04.35-.13.2-.19.22-.5.03-.71l-1.89-2.05h2.6c.28,0,.5-.21.5-.49,0-.27-.22-.5-.5-.5Z"/>
      <path class="cls-3" d="m45.96,211.5h-1.94s2.05-1.4,2.05-1.4c.23-.16.29-.47.13-.69-.16-.23-.47-.29-.69-.13l-2.76,1.87.06-3.23c0-.28-.21-.5-.49-.51h0c-.27,0-.5.22-.51.49l-.05,2.85-1.69-1.83c-.19-.2-.5-.22-.71-.03-.2.19-.22.5-.03.71l1.74,1.89h-3.2c-.28-.01-.5.21-.5.49,0,.27.22.5.49.5h0s2.92.01,2.92.01l-2.28,1.55c-.23.16-.29.47-.13.69.1.14.25.22.41.22.1,0,.2-.03.29-.09l2.65-1.8-.06,3.25c0,.28.21.5.49.51h0c.27,0,.5-.22.51-.49l.06-3.07,1.8,1.95c.1.1.23.16.36.16.12,0,.25-.04.35-.13.2-.19.22-.5.03-.71l-1.89-2.05h2.6c.28,0,.5-.21.5-.49,0-.27-.22-.5-.5-.5Z"/>
      <path class="cls-3" d="m20.21,230.94c-.12,0-.23-.03-.34-.09-.38-.22-1.46-1.77-2.65-3.73-2.61.46-4.8.7-5.14.29-.15-.18-.2-.48.01-.75.46-.58,1.56-1.95,2.88-3.51-1.17-2.26-2.02-4.31-1.8-4.99.11-.33.4-.52.75-.47.65.07,2.55.86,4.42,1.68,1.75-1.85,3.39-3.32,4.2-3.39.31-.03.51.09.62.19.12.11.18.26.16.42-.14,1.42-.33,3.12-.55,4.84,4.52,2.22,4.6,2.66,4.65,2.91.04.22-.1.5-.3.6-.05.02-2.31.59-5.06,1.2-.45,2.5-.98,4.43-1.54,4.72-.1.05-.2.08-.31.08Zm-1.98-4.01c.8,1.33,1.52,2.41,1.93,2.85.25-.52.54-1.76.84-3.41-.91.19-1.86.39-2.77.56Zm-2.75-2.83c-.71.84-1.43,1.71-2.12,2.57.73-.05,1.92-.22,3.31-.46-.4-.68-.81-1.4-1.19-2.11Zm.69-.81c.48.91,1.01,1.85,1.52,2.73,1.13-.21,2.34-.44,3.49-.68.17-1.02.34-2.15.5-3.34-1.01-.49-2.07-.99-3.08-1.45-.76.83-1.59,1.75-2.42,2.73Zm6.46-.81c-.12.9-.25,1.8-.39,2.64,1.56-.33,2.92-.64,3.73-.86-.68-.43-1.91-1.08-3.33-1.79Zm-8.49-3.73c.12.67.73,2.03,1.52,3.58.63-.73,1.29-1.48,1.96-2.2-1.51-.66-2.8-1.19-3.48-1.38Zm5.16,1.05c.66.3,1.29.59,1.82.84.24.11.47.22.69.33.16-1.26.31-2.57.45-3.86-.6.35-1.67,1.34-2.95,2.69Z"/>
      <path class="cls-3" d="m187.87,37.33c-.12,0-.23-.03-.34-.09-.38-.22-1.46-1.77-2.65-3.73-2.61.46-4.8.7-5.14.29-.15-.18-.2-.48.01-.75.46-.58,1.56-1.95,2.88-3.51-1.17-2.26-2.02-4.32-1.8-4.99.11-.33.4-.51.75-.47.64.07,2.55.86,4.42,1.68,1.75-1.85,3.39-3.32,4.2-3.39.3-.02.51.09.62.19.12.11.18.26.16.42-.14,1.42-.33,3.12-.55,4.84,4.52,2.22,4.6,2.66,4.65,2.91.04.22-.1.5-.3.6-.05.02-2.3.59-5.06,1.2-.45,2.5-.98,4.43-1.54,4.72-.1.05-.2.08-.31.08Zm-1.98-4.01c.8,1.33,1.52,2.41,1.93,2.85.25-.51.54-1.76.84-3.41-.91.19-1.86.39-2.77.56Zm-2.75-2.83c-.71.84-1.43,1.71-2.12,2.57.73-.05,1.92-.22,3.31-.46-.4-.68-.81-1.4-1.19-2.11Zm.69-.81c.49.91,1.01,1.85,1.52,2.73,1.13-.21,2.34-.44,3.49-.68.17-1.02.34-2.15.5-3.33-1.01-.49-2.07-.99-3.08-1.45-.76.83-1.59,1.75-2.42,2.73Zm6.46-.81c-.12.9-.25,1.79-.39,2.64,1.56-.33,2.92-.64,3.73-.86-.68-.43-1.91-1.08-3.33-1.79Zm-8.49-3.73c.12.67.73,2.03,1.52,3.58.63-.73,1.29-1.48,1.96-2.2-1.51-.66-2.8-1.19-3.48-1.38Zm5.16,1.05c.66.3,1.29.59,1.82.84.24.11.47.22.69.33.16-1.26.31-2.57.45-3.86-.61.35-1.67,1.34-2.95,2.69Z"/>
      <g>
        <g>
          <path class="cls-8" d="m156.33,172.36h-21.39l-4.87-46.58s10.18-33.61,9.27-44.5l11.67-4.53s-7.98-15.99-9.11-19.68c-1.13-3.7-32.63,17.84-33.79,13.41-.4-1.51.13-7.65.27-15.32,10.17-4.19,19.77-13.73,20.79-23.61,5.98-2.41,14.65-8.59,12.35-16.87C138.36,3.28,117.27-.67,113.76.09c-1.91.41-2.83,5.2-3.28,9.48-.14-.05-.27-.11-.41-.16-22.12-8.47-30.26.63-33.26,8.15-1.7-1.59-3.53-2.73-5.23-2.89-5.03-.48-8.06,13.98-1.06,18.95-2.17,6.27-3.54,13.5-4.12,20.81-.28,3.61,7.16-3.73,7.16-3.73,0,0,1.51,9.36,1.42,12.72-.1,3.36,10.51-2.54,11.97-1.78,1.47.76,1.15,8.56,1.41,10.11.26,1.55-37.59,16.67-40.62,18.21-3.02,1.55,4.13,25.27,4.13,25.27l17.08-6.63c8.19,6.46,18.08,13.78,16.64,14.86-2.46,1.84-33.9,3.61-32.81,13.1.83,7.23.39,26.87.14,35.81h-15.67v19.22h32.88v40.34l50.61-.2s-1.33-30.83-1.57-40.14h37.16v-19.22Z"/>
          <g>
            <g>
              <path class="cls-3" d="m124.74,29.4c-.09-.26-.37-.4-.63-.32-.26.09-.4.37-.32.63,2.74,8.21-1.73,14.83-4.64,18.04-4.21,4.65-10.38,7.81-13.76,7.05-.87-.2-1.55-.71-2.09-1.57-2.66-4.25-.54-14.93-.12-16.89,4.31-.92,8.48-7.22,9.58-11.52.59-2.32.04-3.23-.53-3.59-2.29-1.44-7.36-.06-9.68,2.64-1.62,1.89-1.6,4.07.07,6.01.18.21.5.23.71.05.21-.18.23-.5.05-.71-1.71-1.97-.98-3.64-.07-4.7,1.98-2.3,6.52-3.62,8.39-2.45.31.19.49.95.1,2.5-1.08,4.21-5.51,10.64-9.43,10.89-2.16.13-3.99-1.61-5.41-5.2-2.64-6.72-3.85-10.17-4.4-11.96-.12-1.21-.29-1.99-.32-2.09,0-.01-.01-.02-.01-.03,0-.03-.03-.06-.04-.1-.02-.03-.03-.05-.05-.08,0,0,0-.02-.02-.02-.02-.02-.04-.03-.06-.05-.02-.01-.03-.03-.05-.04-.19-.13-.42-.15-.61-.03-.24.15-.49.31.16,2.54.23,2.52.2,6.98-2.23,10.57-1.97,2.91-5.16,4.73-9.48,5.4-5.36.83-8.49-.58-9.06-4.09-.66-4.07,2.11-8.71,2.8-8.84,1.17.17,6.82,4.66,6.78,7.35-.02,1.01-.99,1.63-2.9,1.85-3.7.42-4-.23-4.01-.26-.13-.34.8-1.4,1.91-2.18.23-.16.28-.47.12-.7-.16-.23-.47-.28-.7-.12-.66.46-2.76,2.07-2.27,3.35.37.98,1.93,1.25,5.06.89,3.1-.36,3.77-1.74,3.79-2.83.05-3.21-5.85-8.09-7.64-8.35-.59-.09-1.25.44-1.96,1.55-1.67,2.62-3.11,7.73-1.06,10.86,1.19,1.82,3.32,2.74,6.33,2.74.91,0,1.9-.08,2.96-.25,4.61-.72,8.03-2.68,10.16-5.84,1.72-2.55,2.32-5.45,2.47-7.89.75,2.1,1.84,4.99,3.41,8.99,1.53,3.88,3.57,5.84,6.09,5.84,0,0,0,0,.01,0-.57,2.71-2.44,12.88.33,17.3.68,1.08,1.59,1.76,2.72,2.02.4.09.84.14,1.3.14,3.82,0,9.4-3.05,13.42-7.49,3.05-3.37,7.75-10.33,4.84-19.03Z"/>
              <path class="cls-3" d="m129.1,26.63c-1.48,0-2.11-.69-2.37-1.27-.73-1.59.45-4.32,2-6.04,1.1-1.22,2.2-1.72,3.08-1.43,2.85.97,2.45,2.92,2.44,3-.06.27-.33.44-.6.38-.27-.06-.44-.33-.38-.6,0-.04.19-1.17-1.78-1.84-.45-.15-1.24.3-2.01,1.15-1.29,1.42-2.36,3.81-1.84,4.95.08.18.3.71,1.54.69,3.13-.06,7.11-.94,8.02-3.22.76-1.91-.68-4.71-4.14-8.12-2.67-2.62-4.83-3.63-6.42-3-3,1.2-3.28,7.87-3.28,7.94,0,.28-.26.5-.52.48-.28,0-.49-.24-.48-.52.01-.3.3-7.39,3.91-8.83,1.99-.79,4.5.29,7.49,3.22,3.83,3.76,5.3,6.86,4.37,9.2-1.37,3.44-7.18,3.82-8.93,3.85-.03,0-.06,0-.1,0Z"/>
              <path class="cls-3" d="m80.74,45.65c-.15,0-.29-.03-.4-.07-1.84-.61-2.94-5.91-3.14-6.96-.05-.27.13-.53.4-.59.27-.05.53.13.59.4.44,2.32,1.54,5.89,2.47,6.2.05.02.17.06.39-.15,1.62-1.48,2.55-6.69,2.77-8.58.03-.27.28-.48.56-.44.27.03.47.28.44.56-.03.29-.87,7.16-3.09,9.2-.35.32-.69.43-.98.43Z"/>
              <path class="cls-3" d="m81.65,63.55c-.21,0-.41-.14-.48-.35-.08-.26.07-.54.33-.62.13-.04,12.84-3.95,15.42-5.09,1.58-.7,1.4-7.59.77-12.27-.04-.27.15-.53.43-.56.27-.04.53.16.56.43.27,2,1.48,12.07-1.36,13.32-2.63,1.16-15,4.97-15.53,5.13-.05.02-.1.02-.15.02Z"/>
            </g>
            <path class="cls-3" d="m94.86,84.81c-.5,0-.85-.55-1.64-1.82-1.3-2.07-3.47-5.53-6.46-6.18-1.39-.3-2.86.05-4.36,1.04-.23.15-.54.09-.69-.14-.15-.23-.09-.54.14-.69,1.74-1.14,3.46-1.54,5.13-1.18,3.41.74,5.72,4.43,7.1,6.63.23.37.49.78.69,1.06,1.92-4.48,4.5-7.41,7.67-8.71,3.7-1.52,6.8-.23,6.93-.17.25.11.37.4.26.65s-.4.37-.66.26c-.03-.01-2.87-1.18-6.18.18-3.02,1.25-5.47,4.15-7.3,8.63-.15.37-.44.43-.56.44-.02,0-.04,0-.06,0Z"/>
            <path class="cls-3" d="m80.16,117.95c-.17,0-.33-.08-.42-.23-.15-.23-.08-.54.16-.69.34-.21,33.75-21.64,36.65-48.89.03-.27.27-.48.55-.44.27.03.47.28.44.55-2.95,27.73-36.77,49.41-37.11,49.63-.08.05-.18.08-.27.08Z"/>
            <path class="cls-3" d="m89.04,137.92c-7.69,0-16.48-2.66-26.3-7.98-.24-.13-.33-.43-.2-.68.13-.24.43-.33.68-.2,16.54,8.96,30.05,10.26,40.15,3.87,23.86-15.09,21.29-68.39,21.26-68.93-.01-.28.2-.51.47-.53.27-.02.51.2.53.47.03.54,2.62,54.42-21.73,69.82-4.37,2.76-9.33,4.14-14.87,4.14Z"/>
            <path class="cls-3" d="m84.2,163.31c-11,0-21.18-5.18-30.29-15.41-.18-.21-.17-.52.04-.71.21-.18.52-.17.71.04,9.26,10.4,19.61,15.47,30.81,15.05,23.96-.89,44.01-26.75,44.21-27.01.17-.22.48-.26.7-.09.22.17.26.48.09.7-.2.26-20.53,26.49-44.96,27.4-.44.02-.88.02-1.31.02Z"/>
            <path class="cls-3" d="m133.07,115.72c-.07,0-.14-.01-.2-.04-.25-.11-.37-.41-.26-.66.15-.35,15.18-35.09-2.88-51.6-.2-.19-.22-.5-.03-.71.19-.2.5-.22.71-.03,18.59,16.99,3.27,52.39,3.12,52.74-.08.19-.27.3-.46.3Z"/>
          </g>
          <path class="cls-3" d="m131.2,171.29H60.55c-.28,0-.5-.22-.5-.5s.22-.5.5-.5h70.65c.28,0,.5.22.5.5s-.22.5-.5.5Z"/>
          <path class="cls-3" d="m138.58,190.78c-7.46,0-13.28-4.3-18.18-7.92-2.24-1.66-4.36-3.23-6.27-4.05-3.12-1.35-5.87-1.43-8.18-.23-4.61,2.39-6.05,9.12-6.07,9.18-.06.27-.32.44-.59.39-.27-.06-.44-.32-.39-.59.06-.29,1.55-7.25,6.58-9.87,2.59-1.35,5.64-1.28,9.05.19,2.01.87,4.17,2.47,6.47,4.16,6.22,4.59,13.95,10.31,24.62,6.42,6.07-2.22,6.59-6.12,6.35-8.24-.35-3.17-2.79-6.22-5.22-6.53-1.51-.19-2.72.74-3.48,2.72-1.04,2.69-1.13,4.54-.27,5.37,1.28,1.24,4.59.22,5.76-.28.25-.11.55,0,.66.26.11.25,0,.55-.26.66-.2.08-4.82,2.03-6.84.08-1.19-1.15-1.18-3.32.03-6.45,1.26-3.27,3.38-3.5,4.54-3.35,2.89.38,5.68,3.77,6.08,7.42.46,4.12-2.1,7.5-7,9.29-2.63.96-5.08,1.37-7.38,1.37Z"/>
          <path class="cls-3" d="m52.87,190.78c-2.3,0-4.75-.41-7.38-1.37-4.91-1.79-7.46-5.18-7-9.29.4-3.64,3.19-7.04,6.08-7.42,1.15-.15,3.28.09,4.54,3.35,1.21,3.13,1.22,5.31.03,6.45-2.02,1.95-6.65,0-6.84-.08-.25-.11-.37-.4-.26-.66.11-.25.4-.37.66-.26,1.17.5,4.47,1.52,5.76.28.86-.83.77-2.69-.27-5.37-.76-1.98-1.96-2.91-3.48-2.72-2.43.32-4.87,3.37-5.22,6.53-.24,2.13.28,6.03,6.35,8.24,10.67,3.89,18.41-1.83,24.62-6.42,2.29-1.69,4.46-3.29,6.46-4.16,3.41-1.48,6.45-1.54,9.05-.19,5.03,2.62,6.52,9.57,6.58,9.87.06.27-.12.53-.39.59-.27.05-.54-.12-.59-.39-.01-.07-1.45-6.79-6.07-9.18-2.31-1.2-5.06-1.12-8.18.23-1.9.82-4.02,2.39-6.27,4.05-4.9,3.62-10.72,7.92-18.18,7.92Z"/>
          <path class="cls-3" d="m120.42,223.82h-13.12s1.7-30.56,1.7-30.56h10.17c.28,0,.5-.22.5-.5s-.22-.5-.5-.5h-47.73c-.28,0-.5.22-.5.5s.22.5.5.5h8.84l1.36,30.56h-10.2c-.28,0-.5.22-.5.5s.22.5.5.5h35.31s.01,0,.02,0c0,0,0,0,0,0h13.65c.28,0,.5-.22.5-.5s-.22-.5-.5-.5Zm-14.12,0h-10.51s-1.32-30.56-1.32-30.56h13.53l-1.7,30.56Zm-25.01-30.56h12.18l1.32,30.56h-12.14s-1.36-30.56-1.36-30.56Z"/>
          <path class="cls-3" d="m87.44,48.93c.05-.27-.13-.53-.4-.58-.27-.05-.53.13-.58.4-.17.88-.52,1.64-.99,2.29l-4.08-2.41c-.16-.25-.4-.28-.49-.29-.29,0-.81-.04-2.35,3.42-.28-.64-.69-1.42-1.24-2.05-.35-.41-.72-.34-.86-.29-.74.25-1.22,2.25-1.42,5.92-.08.31-.53,2.14.34,3.49.47.73,1.23,1.18,2.25,1.32.24.03.49.05.73.05,3.24,0,6.13-3.08,7.67-8.24.68-.83,1.18-1.82,1.41-3.03Zm-10.73,1.63c.86,1.12,1.31,2.67,1.32,2.68.06.2.24.35.45.36.21,0,.41-.11.49-.31.63-1.5,1.46-3.22,1.9-3.82l3.93,2.32c-2.56,2.51-7.18,3-8.74,3.09.12-1.77.38-3.64.66-4.34Zm1.05,8.6c-.73-.1-1.24-.39-1.55-.87-.49-.77-.39-1.84-.29-2.38,1.33-.06,5.57-.4,8.55-2.51-1.59,3.96-4.07,6.14-6.71,5.77Z"/>
          <path class="cls-3" d="m111.27,48.54c-.46,0-.91-.06-1.34-.18-1.56-.43-2.59-1.28-3.06-2.52-1.17-3.12,1.74-7.58,1.86-7.77.15-.23.46-.29.69-.14.23.15.29.46.14.69-.03.04-2.76,4.23-1.76,6.87.35.94,1.13,1.56,2.39,1.9,2.05.57,4.63-.57,6.89-3.03,1.96-2.14,3.09-4.72,2.61-6.02-.18-.49-.59-.77-1.26-.85-2.6-.32-4.4,1-5.15,2.22-.38.62-.45,1.16-.31,1.36.12.18.48.13.63.11.27-.04.53.14.58.41.05.27-.14.53-.41.58-.99.17-1.44-.26-1.63-.54-.4-.59-.29-1.5.29-2.44.91-1.48,3.06-3.08,6.13-2.69,1.32.16,1.85.91,2.07,1.5.72,1.95-.96,5.02-2.81,7.04-2.07,2.25-4.43,3.49-6.56,3.49Z"/>
          <path class="cls-3" d="m104.13,16.82c-.08,0-.16,0-.24,0-5.61-.25-10.06-9.47-10.25-9.86-.12-.25-.01-.55.24-.67.25-.12.55-.01.67.24.04.09,4.38,9.06,9.39,9.29,2.12.09,4.11-1.42,5.93-4.51.14-.24.45-.32.68-.18.24.14.32.45.18.69-1.97,3.32-4.19,5-6.6,5Z"/>
          <path class="cls-3" d="m82.01,20.15c-1.61,0-3.44-.73-5.48-2.18-.23-.16-.28-.47-.12-.7.16-.23.47-.28.7-.12,2.71,1.93,4.94,2.46,6.64,1.59,4.16-2.15,4.19-11.9,4.19-12,0-.28.22-.5.5-.5h0c.28,0,.5.22.5.5,0,.43-.03,10.46-4.73,12.89-.67.35-1.41.52-2.19.52Z"/>
          <path class="cls-3" d="m125.99,28.65c-.25,0-.47-.19-.5-.44-.85-7.54-13.13-16.18-13.26-16.26-.23-.16-.28-.47-.12-.7.16-.23.47-.28.7-.12.52.36,12.78,8.98,13.68,16.97.03.27-.17.52-.44.55-.02,0-.04,0-.06,0Z"/>
          <path class="cls-3" d="m120.31,15.21c-.14,0-.29-.06-.39-.18-.18-.21-.15-.53.07-.7.04-.04,4.25-3.56,4.18-6.8-.02-1.13-.55-2.07-1.62-2.89-2.75-2.1-6.01-1.38-7.81.43-1.04,1.04-1.75,2.67-.64,4.1.37.48.91,1.02,1.38.91.89-.21,1.61-2.4,1.82-3.43.06-.27.32-.45.59-.39.27.06.45.32.39.59-.08.39-.82,3.8-2.58,4.21-.79.18-1.6-.24-2.39-1.27-1.24-1.61-.95-3.73.73-5.42,2.11-2.12,5.92-2.97,9.13-.52,1.31,1,1.99,2.24,2.01,3.67.07,3.73-4.36,7.43-4.55,7.59-.09.08-.21.11-.32.11Z"/>
          <path class="cls-3" d="m82.1,114.44c-4.69,0-8.6-2.45-10.43-5.46-2.09-3.45-1.53-7.41,1.49-10.6,3.72-3.92,3.83-5.75,3.57-6.48-.31-.88-1.43-1.04-1.44-1.04-.27-.03-.47-.28-.44-.56.03-.27.28-.48.56-.44.07,0,1.74.23,2.26,1.69.61,1.7-.66,4.22-3.78,7.51-2.74,2.88-3.23,6.31-1.36,9.4,2.11,3.48,7.32,6.13,13.18,4.46.27-.07.54.08.62.34.08.27-.08.54-.34.62-1.33.38-2.63.55-3.88.55Z"/>
          <g>
            <path class="cls-1" d="m130.2,161.78c-.12,0-.25-.05-.34-.14-.04-.04-.98-.87-2.55-.22-.26.1-.55-.02-.65-.27-.1-.26.02-.55.27-.65,2.2-.9,3.56.37,3.62.42.2.19.21.51.02.71-.1.1-.23.15-.36.15Z"/>
            <path class="cls-1" d="m127.58,163.89c-.12,0-.25-.04-.34-.14-.04-.04-.98-.87-2.55-.22-.26.1-.55-.02-.65-.27-.1-.26.02-.55.27-.65,2.19-.9,3.56.37,3.62.42.2.19.21.51.02.71-.1.1-.23.15-.36.15Z"/>
            <path class="cls-1" d="m124.62,161.24c-.12,0-.25-.04-.34-.14-.04-.04-.98-.87-2.55-.22-.25.11-.55-.02-.65-.27-.1-.26.02-.55.27-.65,2.2-.9,3.56.37,3.62.42.2.19.21.51.02.71-.1.1-.23.15-.36.15Z"/>
            <path class="cls-1" d="m121.42,163.17c-.12,0-.25-.04-.34-.14-.04-.04-.98-.87-2.55-.22-.26.1-.55-.02-.65-.27-.1-.26.02-.55.27-.65,2.19-.9,3.56.37,3.62.42.2.19.21.51.02.71-.1.1-.23.15-.36.15Z"/>
            <path class="cls-1" d="m124.39,165.74c-.12,0-.25-.04-.34-.14-.04-.04-.98-.87-2.55-.22-.26.11-.55-.02-.65-.27-.1-.26.02-.55.27-.65,2.19-.9,3.56.37,3.62.42.2.19.21.51.02.71-.1.1-.23.15-.36.15Z"/>
            <path class="cls-1" d="m119.32,165.04c-.12,0-.25-.05-.34-.14-.05-.04-.98-.87-2.55-.22-.25.11-.55-.02-.65-.27-.1-.26.02-.55.27-.65,2.2-.9,3.56.37,3.62.42.2.19.21.51.02.71-.1.1-.23.15-.36.15Z"/>
            <path class="cls-1" d="m118.27,160.85c-.12,0-.25-.04-.34-.14-.04-.04-.98-.87-2.55-.22-.26.1-.55-.02-.65-.27-.1-.26.02-.55.27-.65,2.19-.9,3.56.37,3.62.42.2.19.21.51.02.71-.1.1-.23.15-.36.15Z"/>
            <path class="cls-1" d="m113,163.11c-.16,0-.31-.07-.41-.21-.16-.22-.11-.54.11-.7,1.93-1.39,3.58-.52,3.65-.48.24.13.33.44.2.68-.13.24-.43.33-.67.2-.05-.03-1.19-.6-2.59.41-.09.06-.19.09-.29.09Z"/>
          </g>
          <g>
            <path class="cls-1" d="m65.17,87.47c-.13,0-.27-.05-.36-.16-.19-.2-.18-.52.02-.71,1.73-1.63,3.46-.93,3.53-.9.25.11.37.4.27.65-.11.25-.4.37-.65.27-.05-.02-1.22-.46-2.46.7-.1.09-.22.14-.34.14Z"/>
            <path class="cls-1" d="m63.47,90.38c-.13,0-.27-.05-.36-.16-.19-.2-.18-.52.02-.71,1.73-1.63,3.46-.93,3.53-.9.25.11.37.4.27.65-.11.25-.4.38-.65.27-.05-.02-1.22-.46-2.46.7-.1.09-.22.14-.34.14Z"/>
            <path class="cls-1" d="m59.76,88.96c-.13,0-.27-.05-.36-.16-.19-.2-.18-.52.02-.71,1.73-1.63,3.46-.93,3.53-.9.25.11.37.4.27.65-.11.25-.4.37-.65.27-.05-.02-1.22-.46-2.46.7-.1.09-.22.14-.34.14Z"/>
            <path class="cls-1" d="m57.46,91.9c-.13,0-.27-.05-.36-.16-.19-.2-.18-.52.02-.71,1.73-1.63,3.46-.93,3.53-.9.25.11.37.4.27.65-.11.25-.4.37-.65.27-.05-.02-1.22-.46-2.46.7-.1.09-.22.14-.34.14Z"/>
            <path class="cls-1" d="m61.14,93.24c-.13,0-.27-.05-.36-.16-.19-.2-.18-.52.02-.71,1.73-1.63,3.46-.93,3.53-.9.25.11.37.4.27.65-.11.25-.4.37-.65.27-.05-.02-1.22-.46-2.46.7-.1.09-.22.14-.34.14Z"/>
            <path class="cls-1" d="m56.16,94.39c-.13,0-.27-.05-.36-.16-.19-.2-.18-.52.02-.71,1.73-1.63,3.46-.93,3.53-.9.25.11.37.4.27.65-.11.25-.4.37-.65.27-.05-.02-1.22-.46-2.46.7-.1.09-.22.14-.34.14Z"/>
            <path class="cls-1" d="m53.68,90.85c-.13,0-.27-.05-.36-.16-.19-.2-.18-.52.02-.71,1.73-1.63,3.46-.93,3.53-.9.25.11.37.4.27.65-.11.25-.4.37-.65.27-.05-.02-1.22-.46-2.46.7-.1.09-.22.14-.34.14Z"/>
            <path class="cls-1" d="m52.56,94.04c-.09,0-.19-.03-.27-.08-.23-.15-.29-.46-.14-.69,1.3-1.98,3.16-1.76,3.23-1.75.27.04.47.29.43.56-.04.27-.28.46-.56.43-.06,0-1.32-.13-2.27,1.31-.1.15-.26.23-.42.23Z"/>
          </g>
        </g>
        <polygon class="cls-6" points="35.86 230.12 155.22 230.12 161.48 254.22 26.33 254.22 35.86 230.12"/>
        <g>
          <path class="cls-8" d="m68.6,239.61s50.72-1.1,50.61-.07c-.26,2.36,0,21.02,0,21.02h-49.43l-1.18-20.95Z"/>
          <path class="cls-3" d="m97.81,248.84c-.18,0-.37-.02-.55-.06-.73-.15-1.19-.44-1.4-.88-.34-.7.06-1.49.44-2.26.31-.61.65-1.3.49-1.73-.09-.23-.35-.42-.77-.58-1.49-.56-2.87.62-4.32,1.87-1.45,1.25-2.95,2.53-4.7,2.1-.5-.13-1.2-.36-1.45-.95-.25-.6.1-1.19.41-1.72.52-.88.63-1.2-.04-1.63-1.44-.91-5.3,2.31-7.4,4.56-.19.2-.5.21-.71.02-.2-.19-.21-.5-.02-.71.61-.66,6.06-6.38,8.66-4.72,1.54.97.77,2.28.37,2.98-.16.28-.4.69-.35.83,0,.02.1.2.77.36,1.25.31,2.49-.75,3.8-1.88,1.54-1.32,3.28-2.83,5.33-2.05.7.26,1.15.65,1.34,1.15.33.84-.12,1.74-.52,2.54-.25.5-.56,1.13-.44,1.38.07.14.32.26.7.34,1.25.25,2.58-.94,3.98-2.2,1.86-1.68,3.96-3.58,6.42-2.17,2.33,1.35,1.99,3.92,1.49,5.1-.11.25-.4.37-.65.26-.25-.11-.37-.4-.26-.66.04-.11,1.07-2.6-1.07-3.84-1.82-1.05-3.48.45-5.24,2.04-1.36,1.23-2.76,2.49-4.29,2.49Z"/>
          <path class="cls-3" d="m110.97,252.68h0l-32.82-.47c-.28,0-.5-.23-.49-.51,0-.28.2-.51.51-.49l32.82.47c.28,0,.5.23.49.51,0,.27-.23.49-.5.49Z"/>
          <path class="cls-3" d="m103.87,256.64h-18.04c-.28,0-.5-.22-.5-.5s.22-.5.5-.5h18.04c.28,0,.5.22.5.5s-.22.5-.5.5Z"/>
        </g>
      </g>
      <g>
        <path class="cls-1" d="m151.02,237.66c-.13,0-.26-.05-.36-.15-.04-.04-.94-.91-2.54-.34-.26.09-.55-.04-.64-.3-.09-.26.04-.55.3-.64,2.24-.8,3.54.53,3.59.59.19.2.18.52-.02.71-.1.09-.22.14-.35.14Z"/>
        <path class="cls-1" d="m148.3,239.65c-.13,0-.26-.05-.36-.15-.05-.04-.94-.91-2.54-.34-.26.09-.55-.04-.64-.3-.09-.26.04-.55.3-.64,2.23-.8,3.54.53,3.59.59.19.2.18.52-.02.71-.1.09-.22.14-.35.14Z"/>
        <path class="cls-1" d="m145.47,236.86c-.13,0-.26-.05-.36-.15-.05-.05-.94-.91-2.54-.34-.26.09-.55-.04-.64-.3-.09-.26.04-.55.3-.64,2.24-.8,3.54.53,3.59.59.19.2.18.52-.02.71-.1.09-.22.14-.35.14Z"/>
        <path class="cls-1" d="m142.18,238.64c-.13,0-.26-.05-.36-.15-.05-.05-.94-.91-2.54-.34-.26.09-.55-.04-.64-.3-.09-.26.04-.55.3-.64,2.24-.8,3.54.53,3.59.59.19.2.18.52-.02.71-.1.09-.22.14-.35.14Z"/>
        <path class="cls-1" d="m145.03,241.34c-.13,0-.26-.05-.36-.15-.05-.05-.94-.91-2.54-.34-.26.09-.55-.04-.64-.3-.09-.26.04-.55.3-.64,2.23-.8,3.54.53,3.59.59.19.2.18.52-.02.71-.1.09-.22.14-.35.14Z"/>
        <path class="cls-1" d="m140,240.41c-.13,0-.26-.05-.36-.15-.05-.05-.94-.91-2.54-.34-.26.09-.55-.04-.64-.3-.09-.26.04-.55.3-.64,2.23-.8,3.54.53,3.59.59.19.2.18.52-.02.71-.1.09-.22.14-.35.14Z"/>
        <path class="cls-1" d="m139.14,236.18c-.13,0-.26-.05-.36-.15-.05-.05-.94-.91-2.54-.34-.26.09-.55-.04-.64-.3-.09-.26.04-.55.3-.64,2.24-.8,3.54.53,3.59.59.19.2.18.52-.02.71-.1.09-.22.14-.35.14Z"/>
        <path class="cls-1" d="m133.77,238.19c-.16,0-.32-.08-.42-.23-.15-.23-.09-.54.14-.69,1.99-1.3,3.6-.36,3.67-.31.24.14.31.45.17.69-.14.23-.45.31-.68.17-.05-.03-1.17-.65-2.6.29-.08.06-.18.08-.27.08Z"/>
      </g>
      <g>
        <path class="cls-1" d="m55.62,236.91c-.13,0-.26-.05-.36-.15-.05-.05-.94-.91-2.54-.34-.26.09-.55-.04-.64-.3-.09-.26.04-.55.3-.64,2.24-.8,3.54.53,3.59.59.19.2.18.52-.02.71-.1.09-.22.14-.35.14Z"/>
        <path class="cls-1" d="m52.9,238.89c-.13,0-.26-.05-.36-.15-.04-.04-.94-.91-2.54-.34-.26.09-.55-.04-.64-.3-.09-.26.04-.55.3-.64,2.23-.8,3.54.53,3.59.59.19.2.18.52-.02.71-.1.09-.22.14-.35.14Z"/>
        <path class="cls-1" d="m50.07,236.11c-.13,0-.26-.05-.36-.15-.05-.05-.94-.91-2.54-.34-.26.09-.55-.04-.64-.3-.09-.26.04-.55.3-.64,2.23-.8,3.54.53,3.59.59.19.2.18.52-.02.71-.1.09-.22.14-.35.14Z"/>
        <path class="cls-1" d="m46.79,237.89c-.13,0-.26-.05-.36-.15-.04-.04-.94-.91-2.54-.34-.26.09-.55-.04-.64-.3-.09-.26.04-.55.3-.64,2.23-.8,3.54.53,3.59.59.19.2.18.52-.02.71-.1.09-.22.14-.35.14Z"/>
        <path class="cls-1" d="m49.63,240.59c-.13,0-.26-.05-.36-.15-.04-.04-.93-.91-2.54-.34-.26.09-.55-.04-.64-.3-.09-.26.04-.55.3-.64,2.24-.8,3.54.53,3.59.59.19.2.18.52-.02.71-.1.09-.22.14-.35.14Z"/>
        <path class="cls-1" d="m44.6,239.66c-.13,0-.26-.05-.36-.15-.05-.05-.94-.91-2.54-.34-.26.09-.55-.04-.64-.3-.09-.26.04-.55.3-.64,2.23-.8,3.54.53,3.59.59.19.2.18.52-.02.71-.1.09-.22.14-.35.14Z"/>
        <path class="cls-1" d="m43.74,235.42c-.13,0-.26-.05-.36-.15-.04-.04-.93-.91-2.54-.34-.26.09-.55-.04-.64-.3-.09-.26.04-.55.3-.64,2.24-.8,3.54.53,3.59.59.19.2.18.52-.02.71-.1.09-.22.14-.35.14Z"/>
        <path class="cls-1" d="m38.37,237.44c-.16,0-.32-.08-.42-.23-.15-.23-.09-.54.14-.69,1.99-1.3,3.6-.36,3.66-.31.24.14.31.45.17.69-.14.23-.45.31-.68.17-.06-.03-1.17-.65-2.6.29-.08.06-.18.08-.27.08Z"/>
      </g>
      <path class="cls-3" d="m182.84,154.36c-.52,0-1.04-.02-1.57-.06-.28-.02-.48-.26-.46-.54.02-.27.27-.47.54-.46.65.05,1.3.07,1.95.05.28,0,.51.21.51.49,0,.28-.21.51-.49.51-.16,0-.32,0-.49,0Zm2.46-.19c-.24,0-.45-.17-.49-.42-.05-.27.14-.53.41-.58.65-.11,1.27-.27,1.85-.47.26-.09.55.04.64.3.09.26-.04.55-.3.64-.63.22-1.31.4-2.02.52-.03,0-.06,0-.08,0Zm-5.97-.12s-.05,0-.08,0c-.65-.11-1.32-.24-2-.41-.27-.06-.43-.33-.37-.6.06-.27.34-.43.6-.37.65.16,1.3.29,1.93.39.27.04.46.3.41.58-.04.24-.25.42-.49.42Zm-3.89-.92s-.1,0-.14-.02c-.68-.2-1.32-.42-1.93-.64-.26-.09-.39-.38-.3-.64.09-.26.38-.39.64-.3.59.21,1.22.42,1.88.62.26.08.41.36.33.62-.07.22-.26.36-.48.36Zm13.6-.31c-.17,0-.33-.08-.43-.24-.15-.23-.07-.54.16-.69.54-.33,1.03-.72,1.47-1.17.2-.2.51-.2.71,0s.2.51,0,.71c-.5.5-1.05.94-1.66,1.31-.08.05-.17.07-.26.07Zm-17.37-1.03c-.06,0-.13-.01-.19-.04-.77-.32-1.4-.61-1.86-.82-.25-.12-.36-.42-.24-.67.12-.25.41-.36.67-.24.44.21,1.06.49,1.81.8.26.11.38.4.27.65-.08.19-.27.31-.46.31Zm20.18-1.76c-.09,0-.18-.03-.27-.08-.23-.15-.3-.46-.15-.69.33-.51.62-1.09.87-1.7.1-.26.4-.38.65-.28.26.1.38.4.28.65-.27.67-.59,1.29-.95,1.86-.1.15-.26.23-.42.23Zm1.51-3.68s-.07,0-.1-.01c-.27-.06-.44-.32-.38-.59.13-.6.19-1.2.19-1.78,0-.27.22-.55.5-.55.32,0,.5.17.5.44,0,0,0,.1,0,.11,0,.65-.07,1.32-.21,1.99-.05.23-.26.4-.49.4Zm-.06-3.96c-.22,0-.43-.15-.48-.38-.15-.59-.37-1.19-.67-1.76-.12-.25-.03-.55.22-.67.25-.13.55-.03.67.22.32.64.57,1.3.74,1.97.07.27-.09.54-.36.61-.04.01-.08.02-.12.02Zm-1.77-3.55c-.15,0-.3-.07-.4-.2-.37-.49-.81-.97-1.28-1.43-.2-.19-.2-.51-.01-.71.19-.2.51-.2.71-.01.51.5.98,1.02,1.38,1.54.17.22.13.53-.09.7-.09.07-.2.1-.3.1Zm-2.85-2.79c-.11,0-.21-.03-.3-.1-.5-.38-1.04-.75-1.61-1.11-.23-.15-.31-.45-.16-.69.15-.23.46-.31.69-.16.59.37,1.16.76,1.69,1.16.22.17.26.48.09.7-.1.13-.25.2-.4.2Zm-13.99-1.41c-.25,0-.46-.18-.5-.44-.04-.27.16-.52.43-.56.57-.08,1.2-.22,1.85-.44.26-.09.54.05.63.32.09.26-.05.54-.32.63-.72.24-1.4.4-2.04.49-.02,0-.04,0-.07,0Zm-1.99-.07s-.09,0-.13-.02c-.92-.25-1.54-.79-1.79-1.58-.09-.26.06-.54.32-.63.27-.09.55.06.63.32.15.46.52.77,1.1.92.27.07.42.35.35.61-.06.22-.26.37-.48.37Zm12.59-.64c-.08,0-.15-.02-.23-.06-.57-.29-1.17-.57-1.78-.83-.25-.11-.37-.4-.27-.66.11-.25.4-.37.66-.27.63.27,1.25.56,1.85.86.25.13.34.43.22.67-.09.17-.26.27-.45.27Zm-6.81-.52c-.19,0-.36-.1-.45-.28-.12-.25-.02-.55.23-.67.43-.21.87-.44,1.3-.7-.26-.07-.42-.35-.35-.61.07-.27.35-.42.61-.35.65.17,1.3.37,1.95.59.26.09.4.37.31.64-.09.26-.37.4-.64.31-.25-.08-.49-.17-.74-.24-.03.11-.11.21-.21.27-.59.37-1.2.71-1.8,1-.07.03-.14.05-.22.05Zm-6.63-1.82c-.17,0-.33-.08-.43-.24-.14-.23-.07-.54.16-.69.51-.32,1.23-.52,2.13-.6.27-.03.52.18.54.45.02.28-.18.52-.45.54-.73.06-1.32.22-1.69.45-.08.05-.17.07-.26.07Zm5.9-.25s-.06,0-.09,0c-.67-.12-1.32-.21-1.93-.26-.28-.02-.48-.26-.46-.54.02-.27.26-.48.54-.46.64.05,1.33.14,2.03.27.27.05.45.31.4.58-.04.24-.25.41-.49.41Zm4.13-.04c-.15,0-.3-.07-.4-.2-.17-.22-.13-.53.09-.7.51-.39,1.02-.82,1.5-1.26.2-.19.52-.17.71.03.19.2.17.52-.03.71-.5.46-1.03.91-1.56,1.32-.09.07-.2.1-.3.1Zm2.94-2.71c-.12,0-.24-.04-.34-.13-.2-.19-.22-.5-.03-.71.44-.48.86-.99,1.25-1.51.17-.22.48-.27.7-.1.22.17.26.48.1.7-.41.54-.85,1.07-1.3,1.58-.1.11-.23.16-.37.16Zm2.4-3.19c-.09,0-.18-.02-.26-.07-.23-.15-.31-.45-.16-.69.34-.55.66-1.13.95-1.71.12-.25.42-.35.67-.23.25.12.35.42.23.67-.3.61-.63,1.21-.99,1.79-.09.15-.26.24-.43.24Zm1.77-3.58c-.06,0-.12-.01-.18-.03-.26-.1-.39-.39-.29-.65.23-.6.44-1.23.61-1.85.07-.27.35-.42.61-.35.27.07.42.35.35.61-.18.66-.39,1.31-.64,1.94-.08.2-.27.32-.47.32Zm1.06-3.85s-.06,0-.09,0c-.27-.05-.45-.31-.41-.58.11-.63.2-1.28.25-1.94.02-.27.26-.48.54-.46.27.02.48.26.46.54-.06.68-.14,1.37-.26,2.03-.04.24-.25.41-.49.41Zm.29-3.98c-.26,0-.49-.21-.5-.48-.03-.65-.11-1.29-.24-1.9-.06-.27.12-.54.39-.59.27-.06.54.12.59.39.14.66.23,1.36.26,2.06.01.28-.2.51-.47.52,0,0-.02,0-.03,0Zm-.82-3.89c-.2,0-.39-.12-.46-.32-.23-.59-.52-1.17-.85-1.71-.15-.23-.07-.54.16-.69.23-.15.54-.07.69.16.36.59.68,1.22.93,1.86.1.26-.02.55-.28.65-.06.02-.12.04-.18.04Zm-15.82-.22c-.24,0-.45-.17-.49-.41-.05-.27.13-.53.4-.58.53-.1,1.09-.33,1.68-.68.24-.14.54-.06.69.17.14.24.06.54-.17.69-.69.41-1.37.68-2.01.8-.03,0-.06,0-.09,0Zm-1.95-.23c-.08,0-.15-.02-.23-.05-.64-.32-1.17-.86-1.6-1.59-.14-.24-.06-.54.18-.68.24-.14.54-.06.68.18.33.56.72.97,1.18,1.2.25.12.35.43.22.67-.09.17-.26.27-.45.27Zm5.39-1.71c-.14,0-.27-.06-.37-.16-.18-.21-.17-.52.04-.71.45-.41.91-.88,1.34-1.39.18-.21.49-.24.7-.06.21.18.24.49.06.7-.46.55-.95,1.05-1.43,1.49-.1.09-.22.13-.33.13Zm10.3-1.23c-.14,0-.28-.06-.38-.17-.41-.47-.88-.92-1.37-1.34-.21-.18-.24-.49-.06-.7.18-.21.49-.24.7-.06.54.45,1.04.94,1.48,1.45.18.21.16.52-.05.71-.1.08-.21.12-.33.12Zm-17.78-.32c-.23,0-.44-.16-.49-.4-.06-.29-.09-.59-.09-.87,0-.49.09-.95.26-1.38.1-.26.39-.38.65-.27.26.1.38.4.27.65-.13.31-.19.65-.19,1,0,.22.02.44.07.68.05.27-.12.53-.39.59-.03,0-.07,0-.1,0Zm10.08-1.48c-.1,0-.19-.03-.28-.09-.23-.16-.29-.47-.13-.69.36-.53.7-1.09,1.02-1.67.01-.02.03-.05.05-.07-.55-.17-1.1-.3-1.66-.41-.27-.05-.45-.31-.4-.59.05-.27.31-.45.59-.4.67.13,1.34.3,1.99.51.26.08.41.37.32.63-.02.08-.07.14-.12.2.16.15.21.4.1.61-.33.61-.69,1.19-1.07,1.75-.1.14-.25.22-.41.22Zm4.65-.76c-.09,0-.18-.02-.26-.08-.54-.33-1.11-.64-1.71-.91-.25-.11-.36-.41-.25-.66.11-.25.41-.36.66-.25.63.29,1.25.62,1.82.97.23.15.31.45.16.69-.09.15-.26.24-.43.24Zm-13.32-1.23c-.16,0-.31-.07-.41-.21-.16-.23-.1-.54.12-.7.54-.38,1.2-.68,1.96-.9.27-.08.54.08.62.34.08.27-.08.54-.34.62-.65.19-1.21.44-1.66.76-.09.06-.19.09-.29.09Zm3.78-1.18c-.26,0-.48-.2-.5-.46-.02-.27.18-.52.46-.54.66-.05,1.35-.06,2.07,0,.28.02.48.26.47.53-.02.28-.26.48-.53.47-.67-.05-1.31-.04-1.93,0-.01,0-.03,0-.04,0Zm6.82-.33c-.07,0-.13-.01-.2-.04-.25-.11-.37-.4-.26-.66.26-.6.49-1.21.7-1.83.09-.26.37-.41.63-.32.26.09.4.37.32.63-.21.64-.46,1.29-.73,1.91-.08.19-.27.3-.46.3Zm1.25-3.8s-.07,0-.11-.01c-.27-.06-.44-.33-.38-.6.14-.64.26-1.29.33-1.92.03-.27.29-.47.56-.44.27.03.47.28.44.56-.08.67-.2,1.35-.35,2.02-.05.23-.26.39-.49.39Zm.46-3.99c-.28,0-.5-.2-.5-.48v-.3c-.01-.56-.05-1.11-.11-1.63-.03-.27.17-.52.44-.55.27-.04.52.17.55.44.06.56.1,1.14.11,1.73v.27c0,.28-.22.52-.5.52Zm-.47-3.93c-.22,0-.43-.15-.48-.38-.16-.63-.37-1.24-.61-1.82-.11-.25,0-.55.26-.66.25-.11.55,0,.66.26.27.62.49,1.28.66,1.96.07.27-.09.54-.36.61-.04.01-.08.02-.12.02Zm-1.57-3.65c-.16,0-.33-.08-.42-.23-.34-.53-.74-1.04-1.17-1.51-.19-.2-.17-.52.03-.71.2-.19.52-.17.71.03.47.51.9,1.06,1.27,1.65.15.23.08.54-.15.69-.08.05-.18.08-.27.08Zm-2.69-2.93c-.11,0-.22-.03-.31-.11-.5-.39-1.04-.74-1.6-1.06-.24-.13-.33-.44-.19-.68.13-.24.44-.33.68-.19.61.34,1.19.73,1.73,1.14.22.17.26.48.09.7-.1.13-.25.19-.4.19Zm-3.48-1.95c-.06,0-.12-.01-.18-.03-1.07-.41-1.82-.54-1.83-.54-.27-.05-.46-.3-.41-.58.05-.27.3-.46.57-.41.03,0,.85.14,2.02.59.26.1.39.39.29.65-.08.2-.27.32-.47.32Z"/>
      <path class="cls-3" d="m11.06,151.61c-.1,0-.19-.03-.28-.09-.03-.02-.67-.46-1.62-1.27-.21-.18-.23-.5-.05-.71.18-.21.5-.23.71-.05.9.77,1.53,1.2,1.54,1.21.23.16.29.47.13.69-.1.14-.25.22-.41.22Zm-3.05-2.6c-.13,0-.25-.05-.35-.15-.49-.48-.96-.98-1.39-1.49-.18-.21-.16-.52.05-.71.21-.18.52-.16.71.05.42.49.87.97,1.34,1.43.2.19.2.51,0,.71-.1.1-.23.15-.35.15Zm-2.62-3.02c-.15,0-.31-.07-.4-.2-.41-.56-.79-1.13-1.13-1.7-.14-.24-.06-.54.17-.69.24-.14.54-.07.69.17.33.54.69,1.09,1.08,1.63.16.22.12.54-.11.7-.09.07-.19.1-.3.1Zm-2.05-3.43c-.19,0-.37-.11-.45-.29-.29-.64-.55-1.28-.75-1.92-.08-.26.06-.54.32-.63.26-.08.54.06.63.32.19.6.43,1.2.71,1.8.12.25,0,.55-.24.66-.07.03-.14.05-.21.05Zm-1.22-3.8c-.24,0-.45-.17-.49-.41-.12-.68-.19-1.37-.21-2.06,0-.28.21-.51.48-.52.27,0,.51.21.52.48.02.64.09,1.28.2,1.91.05.27-.13.53-.4.58-.03,0-.06,0-.09,0Zm-.12-3.98s-.04,0-.06,0c-.27-.03-.47-.28-.44-.56.08-.68.21-1.36.4-2.03.07-.27.35-.42.61-.35.27.07.42.35.35.61-.17.62-.29,1.26-.37,1.89-.03.25-.25.44-.5.44Zm1.03-3.85c-.06,0-.13-.01-.19-.04-.26-.1-.38-.4-.27-.65.26-.64.56-1.26.89-1.85.13-.24.44-.33.68-.2.24.13.33.44.2.68-.31.56-.59,1.15-.84,1.75-.08.19-.27.31-.46.31Zm11.79-2.37s-.04,0-.06,0c-.65-.08-1.34-.23-2.05-.47-.26-.09-.4-.37-.31-.63.09-.26.37-.4.63-.31.64.22,1.27.36,1.84.43.27.03.47.28.44.55-.03.25-.25.44-.5.44Zm1.99-.09c-.22,0-.43-.15-.48-.38-.07-.27.09-.54.36-.61.6-.15,1.06-.45,1.37-.87.16-.22.47-.27.7-.11.22.16.27.47.11.7-.45.62-1.09,1.04-1.93,1.25-.04.01-.08.02-.12.02Zm-11.84-1.03c-.1,0-.21-.03-.29-.1-.22-.16-.27-.48-.11-.7.41-.56.85-1.09,1.32-1.58.19-.2.51-.21.71-.02.2.19.21.51.02.71-.44.46-.86.96-1.24,1.48-.1.13-.25.21-.4.21Zm6.06-.11c-.08,0-.15-.02-.23-.05-.6-.3-1.19-.66-1.77-1.05-.23-.15-.29-.47-.13-.69.15-.23.46-.29.69-.13.55.37,1.11.7,1.67.99.25.12.34.43.22.67-.09.17-.26.27-.45.27Zm8.02-1.8s-.02,0-.03,0c-.28-.02-.48-.26-.47-.53,0-.07,0-.14,0-.21,0-.53-.13-1-.39-1.39-.15-.23-.09-.54.15-.69.23-.15.54-.09.69.15.37.56.55,1.22.55,1.94,0,.09,0,.18,0,.27-.02.26-.24.47-.5.47Zm-11.33-.42c-.11,0-.23-.04-.32-.12-.52-.44-1.02-.92-1.49-1.42-.19-.2-.18-.52.02-.71.2-.19.52-.18.71.02.25.27.52.53.79.79.55-.43,1.12-.82,1.72-1.16.24-.14.54-.05.68.19.14.24.05.54-.19.68-.51.29-1,.62-1.47.98.1.18.08.4-.06.56-.1.12-.24.18-.38.18Zm3.48-2.5c-.2,0-.39-.12-.47-.33-.1-.26.04-.55.29-.64.67-.25,1.35-.44,2.02-.55.27-.05.53.14.58.41.05.27-.14.53-.41.58-.61.1-1.22.27-1.84.5-.06.02-.12.03-.17.03Zm5.86-.22c-.07,0-.13-.01-.2-.04-.51-.22-1.11-.35-1.77-.39-.28-.02-.49-.25-.47-.53.02-.28.26-.48.53-.47.78.05,1.49.21,2.11.47.25.11.37.4.26.66-.08.19-.27.3-.46.3Zm-12.07-.19c-.15,0-.3-.07-.4-.2-.41-.55-.8-1.13-1.14-1.71-.14-.24-.06-.54.18-.68s.54-.06.68.18c.32.55.68,1.1,1.07,1.62.17.22.12.53-.1.7-.09.07-.2.1-.3.1Zm-2.01-3.45c-.19,0-.38-.11-.46-.3-.27-.63-.51-1.29-.69-1.94-.08-.27.08-.54.34-.62.27-.08.54.08.62.34.18.61.4,1.23.65,1.82.11.25,0,.55-.26.66-.06.03-.13.04-.2.04Zm-1.1-3.83c-.24,0-.46-.18-.49-.42-.1-.67-.16-1.36-.18-2.05,0-.28.21-.51.49-.51h.01c.27,0,.49.22.5.49.01.65.07,1.3.17,1.93.04.27-.15.53-.42.57-.03,0-.05,0-.08,0Zm-.09-3.99s-.03,0-.05,0c-.27-.03-.48-.27-.45-.55.07-.67.18-1.35.33-2.03.06-.27.33-.44.6-.38.27.06.44.33.38.6-.14.64-.24,1.29-.31,1.92-.03.26-.24.45-.5.45Zm.85-3.9c-.05,0-.11,0-.16-.03-.26-.09-.4-.37-.32-.63.07-.22.15-.45.24-.67.16-.43.33-.84.51-1.24.11-.25.41-.36.66-.25.25.11.36.41.25.66-.17.38-.33.77-.48,1.18-.08.21-.15.43-.23.64-.07.21-.27.34-.47.34Zm1.64-3.64c-.09,0-.17-.02-.25-.07-.24-.14-.32-.45-.18-.68.35-.6.74-1.17,1.15-1.71.17-.22.48-.26.7-.09.22.17.26.48.09.7-.39.5-.75,1.05-1.08,1.61-.09.16-.26.25-.43.25Zm18.93-2.62c-.26,0-.47-.2-.5-.45-.02-.28.18-.52.45-.54.69-.06,1.28-.22,1.73-.46.24-.13.55-.04.68.21.13.24.04.55-.21.68-.57.3-1.28.5-2.11.57-.02,0-.03,0-.05,0Zm-2-.03s-.04,0-.05,0c-.65-.07-1.33-.19-2.03-.36-.27-.06-.43-.33-.37-.6.06-.27.34-.43.6-.37.66.16,1.3.27,1.91.33.27.03.47.28.44.55-.03.26-.24.45-.5.45Zm-14.5-.5c-.13,0-.25-.05-.35-.15-.2-.19-.2-.51,0-.71.49-.49,1.01-.95,1.55-1.36.22-.17.53-.13.7.09.17.22.13.53-.09.7-.51.39-1,.82-1.45,1.28-.1.1-.23.15-.35.15Zm10.61-.4c-.05,0-.11,0-.16-.03-.63-.22-1.27-.47-1.9-.75-.25-.11-.37-.41-.25-.66.11-.25.41-.37.66-.25.6.27,1.22.51,1.82.72.26.09.4.38.31.64-.07.21-.27.34-.47.34Zm9-1.07h0c-.28,0-.5-.22-.5-.5,0-.36-.31-.77-.89-1.15-.23-.15-.29-.47-.13-.69.16-.23.47-.29.69-.13,1.1.74,1.33,1.48,1.33,1.98,0,.28-.22.5-.5.5Zm-12.65-.56c-.08,0-.16-.02-.24-.06-.6-.33-1.18-.68-1.75-1.05-.04-.03-.07-.06-.1-.09-.5.22-.99.47-1.46.74-.24.14-.54.06-.68-.18-.14-.24-.06-.54.18-.68.59-.34,1.21-.65,1.85-.91.24-.1.52,0,.64.24.04.01.08.03.12.06.54.36,1.1.7,1.68,1.01.24.13.33.44.2.68-.09.17-.26.26-.44.26Zm9.74-1.86c-.05,0-.11,0-.16-.03-.57-.19-1.2-.35-1.86-.47-.27-.05-.45-.31-.4-.58.05-.27.31-.45.58-.4.72.13,1.39.3,2.01.51.26.09.4.37.31.63-.07.21-.27.34-.47.34Zm-9.86-.08c-.22,0-.42-.14-.48-.36-.08-.27.08-.54.34-.62.65-.19,1.33-.34,2.01-.45.27-.04.53.14.57.41.04.27-.14.53-.41.57-.64.1-1.28.25-1.9.42-.05.01-.09.02-.14.02Zm-3.21-.26c-.11,0-.22-.04-.31-.11-.54-.43-1.06-.89-1.54-1.35-.2-.19-.2-.51-.01-.71.19-.2.51-.2.71-.01.46.44.95.88,1.47,1.29.22.17.25.49.08.7-.1.12-.24.19-.39.19Zm9.15-.38s-.02,0-.03,0c-.63-.04-1.28-.04-1.94,0-.29.02-.51-.2-.53-.47-.01-.28.2-.51.47-.53.71-.04,1.39-.03,2.05,0,.28.02.49.25.47.53-.01.27-.24.47-.5.47Zm-12.02-2.4c-.14,0-.29-.06-.38-.18-.45-.54-.86-1.1-1.22-1.66-.15-.23-.08-.54.15-.69.23-.15.54-.08.69.15.34.53.72,1.06,1.14,1.56.18.21.15.53-.06.7-.09.08-.21.12-.32.12Zm-2.14-3.36c-.19,0-.37-.11-.46-.29-.29-.64-.53-1.29-.71-1.95-.07-.27.08-.54.35-.62.26-.07.54.08.62.35.17.61.39,1.21.66,1.8.11.25,0,.55-.25.66-.07.03-.14.04-.21.04Zm-1.06-3.84c-.25,0-.47-.19-.5-.45-.04-.41-.06-.83-.06-1.26,0-.27,0-.55.03-.82.02-.28.26-.48.53-.47.28.02.48.26.47.53-.02.25-.03.51-.03.76,0,.39.02.78.06,1.16.03.27-.17.52-.45.55-.02,0-.03,0-.05,0Zm.25-3.97s-.07,0-.11-.01c-.27-.06-.44-.33-.38-.6.15-.65.35-1.32.6-1.98.1-.26.38-.39.64-.29.26.1.39.39.29.64-.23.62-.42,1.24-.56,1.85-.05.23-.26.39-.49.39Zm1.39-3.74c-.08,0-.16-.02-.23-.06-.25-.13-.34-.43-.21-.67.3-.58.65-1.18,1.04-1.77.15-.23.46-.29.69-.15.23.15.3.46.15.69-.37.56-.7,1.13-.99,1.68-.09.17-.26.27-.44.27Zm21.19-1.39c-.2,0-.4-.13-.47-.33-.15-.4-.39-1.04-.76-1.81-.12-.25-.01-.55.24-.67.25-.12.55-.01.67.24.38.8.64,1.47.8,1.89.09.26-.04.55-.3.64-.06.02-.11.03-.17.03Zm-19.02-1.96c-.11,0-.21-.03-.31-.1-.22-.17-.26-.48-.09-.7.44-.56.86-1.08,1.28-1.57.18-.21.5-.23.71-.05.21.18.23.5.05.71-.41.47-.82.98-1.25,1.53-.1.13-.25.19-.4.19Zm17.3-1.66c-.17,0-.34-.09-.43-.24-.34-.58-.71-1.12-1.08-1.61-.17-.22-.13-.53.09-.7.22-.17.53-.13.7.09.4.52.79,1.1,1.15,1.71.14.24.06.54-.17.69-.08.05-.17.07-.25.07Zm-14.67-1.36c-.13,0-.26-.05-.35-.15-.2-.2-.2-.51,0-.71.5-.5,1.01-.97,1.51-1.38.21-.18.53-.15.7.07.18.21.15.53-.07.7-.48.39-.96.84-1.44,1.32-.1.1-.23.15-.35.15Zm12.22-1.79c-.12,0-.25-.05-.34-.14-.49-.46-.99-.84-1.5-1.14-.24-.14-.32-.45-.18-.68.14-.24.45-.32.68-.18.57.34,1.14.77,1.68,1.28.2.19.21.51.02.71-.1.1-.23.16-.36.16Zm-9.13-.73c-.17,0-.33-.08-.42-.24-.15-.23-.07-.54.16-.69.62-.39,1.25-.71,1.87-.94.26-.1.55.03.65.29.1.26-.03.55-.29.65-.56.21-1.13.5-1.7.86-.08.05-.17.08-.26.08Zm5.7-1.23s-.08,0-.12-.01c-.59-.14-1.19-.18-1.82-.12-.27.02-.52-.18-.54-.45-.03-.27.18-.52.45-.54.74-.07,1.45-.02,2.14.15.27.06.44.33.37.6-.05.23-.26.38-.49.38Z"/>
      <path class="cls-3" d="m156.48,117.54h-.01c-1.45-1.14-1.72-3.24-.59-4.69,1.12-1.45,3.22-1.72,4.67-.6.72.56,1.17,1.34,1.28,2.23.11.88-.13,1.76-.67,2.46-1.12,1.45-3.22,1.72-4.67.6Zm3.49-4.52c-1.04-.8-2.53-.61-3.33.42-.8,1.03-.61,2.53.42,3.33h0c1.03.8,2.52.61,3.32-.42.39-.5.56-1.12.48-1.75-.08-.63-.4-1.19-.9-1.58Z"/>
      <path class="cls-3" d="m137.93,214.54h-.01c-1.45-1.14-1.72-3.24-.59-4.69,1.12-1.45,3.22-1.72,4.67-.6.72.56,1.17,1.34,1.28,2.23.11.88-.13,1.76-.67,2.46-1.12,1.45-3.22,1.72-4.67.6Zm3.49-4.52c-1.04-.8-2.53-.61-3.33.42-.8,1.03-.61,2.53.42,3.33h0c1.03.8,2.52.61,3.32-.42.39-.5.56-1.12.48-1.75-.08-.63-.4-1.19-.9-1.58Z"/>
      <path class="cls-3" d="m31.49,128.46h-.01c-1.45-1.14-1.72-3.24-.59-4.69,1.12-1.45,3.22-1.72,4.67-.6.72.56,1.17,1.34,1.28,2.23.11.88-.13,1.76-.67,2.46-1.12,1.45-3.22,1.72-4.67.6Zm3.49-4.52c-1.04-.8-2.53-.61-3.33.42-.8,1.03-.61,2.53.42,3.33h0c1.03.8,2.52.61,3.32-.42.39-.5.56-1.12.48-1.75-.08-.63-.4-1.19-.9-1.58Z"/>
    </g>
  </g>
</svg>