<?xml version="1.0" encoding="UTF-8"?>
<svg id="_Слой_2" data-name="Слой 2" xmlns="http://www.w3.org/2000/svg" viewBox="0 0 160.9 204.72">
  <defs>
    <style>
      .cls-1 {
        fill: #a7d640;
      }

      .cls-2, .cls-3 {
        fill: #fff;
      }

      .cls-4, .cls-3 {
        opacity: .5;
      }

      .cls-5 {
        fill: #488005;
      }

      .cls-6 {
        fill: #3c1da1;
      }

      .cls-7 {
        fill: #d811ad;
      }

      .cls-8 {
        fill: #845ef9;
      }

      .cls-9, .cls-10 {
        fill: #0a1640;
      }

      .cls-10 {
        opacity: .25;
      }

      .cls-11 {
        fill: #ff8cdb;
      }

      .cls-12 {
        fill: #e38921;
      }
    </style>
  </defs>
  <g id="OBJECTS">
    <g>
      <g>
        <g>
          <g>
            <path class="cls-5" d="m39.9,122.02c-2.85-6.64-6.43-5.05-5.38-7.68.81-2.01,2.4-5.3.67-9.74-1.09-2.81-3.42-3.91-4.11-4.41-2.17-1.56.75-2.08,1.61-6.51.75-3.87-.93-8.6-3.87-11.56-2.83-2.85-.44-1.82,1.77-6.5,1.44-3.03,1.45-6.17-.27-9.2-.92-1.62.46-1.43,2.45-3.13,2.85-2.44,5.21-6.27,5.99-11.7.46-3.2-1.51-4.97.93-5.32,5-.72,10.01-4.86,12.31-8.15,1.58-2.26,1.95-4.03,2.17-4.42.26-.46.94-.66,1.79-.12,1.48.95,3.17,1.27,4.86,1.45,2.47.26,4.71-.39,6.64-1.8,1.81-1.32,2.22-2.47,2.83-3.28.55-.73,1.09-.82,1.81-.18,2.23,1.96,6.92,2.79,11.35.45,1.85-.97,1.83-.98,3.07.71,2.46,3.34,6.64,4.8,9.75,4.22.58-.11,1.84-.68,2.15.48.1.36.14.74.19,1.11.52,4.51,5.17,8.84,11.6,8.26,1.16-.1,1.78.45,1.62,1.5-.68,4.48,1.12,8.36,3.58,12.09,1.19,1.8,2.54,3.45,4.49,4.62.92.55,1.05,1.17.5,1.9-3.11,4.04-3.18,9.48-1.84,14.35.41,1.49,1.01,2.57,1.84,3.61,2.29,2.89-2.44,1.61-3.8,7.95-.78,3.63.41,6.09.68,7.06.5,1.78-.65,1.57-3.37,3.02-4.79,2.55-7.95,7.57-6.73,12.82.22.92.15,1.69-.83,1.96-1.15.32-5.75.32-8.2,5.91-.79,1.79-.98,3.66-.99,5.58-.01,2.21-1.82,1.33-4.13,2.4-3.07,1.42-5.27,3.66-6.89,6.44-1.04,1.8-.89,2.52-1.33,4.22-.37,1.44-1.12,1.16-2.7.93-3.97-.57-8.51.88-10.27,4.25-.63,1.19-1.28,1.3-2.31.82-3.06-1.43-6.61.15-8.42,2.83-.56.83-2.03.49-2.33-.4-.47-1.35-.85-3.07-1.95-4.07-1.32-1.2-2.76-2.08-4.68-2.04-2.35.05-1.37-1.72-2.23-3.71-1.38-3.2-4.58-5.35-7.42-6.04-1.23-.3-2.19-.56-1.94-1.92.08-.42,1.37-4.31-.66-9.05Z"/>
            <path class="cls-1" d="m95.89,49.52c.42,5.61,4.34,7.88,5.64,9.09.46.42.53.86.22,1.38-.32.53-.67,1.05-1.07,1.53-2.78,3.43-3.92,9.87-.97,14.66.88,1.43,2.45,2.33.78,3.36-1.64,1.01-2.86,2.37-3.51,4.07-3.55,9.23,3.45,12.04,0,13.3-6.03,2.21-8.41,9.06-8.1,14.51.14,2.53,1.24,3.45-.52,4.03-4.44,1.47-6.72,4.64-7.83,8.76-.47,1.77-.55,3.53.12,5.31,1.57,4.16-3.82-.28-10.63,8.39-1.41,1.8-2.2,3.86-2.19,6.22.02,2.78-2.34-.14-5.61,3.76-.51.61-.95,1.27-1.45,1.88-.6.72-1.43.63-1.83-.22-.44-.94-.43-2.61-1.24-3.88-.62-.98-1.28-1.9-2.39-2.5-.92-.5-1.06-.96-.67-1.84,2.16-4.93-.51-11.45-3.98-14.63-1.85-1.7-3.48-1.97-2.13-3.53,2.02-2.35,2.76-4.68,2.73-7.38-.03-3.29-.92-6.35-3.63-8.76-.97-.87-1-1.11-.33-2.17.84-1.34,1.68-2.66,2.21-4.16,1.32-3.73,1.36-7.44-.23-11.18-1.63-3.85-4.47-3.31-1.66-5.67,5.32-4.47,5.79-11.16,3.18-14.68-1.85-2.5,3.39-1.39,6.26-8.2,1.42-3.38,1.36-6.2.57-9.55-.32-1.39-.28-1.8,2.09-2.34,3.8-.87,6.28-3.14,7.79-6.45,1.29-2.84.89-3.89,1.01-4.54.17-.99.74-1.41,1.86-1.33,5.18.37,10.34-2.23,12.93-5.72.17-.23.28-.49.47-.7.61-.7,1.62-.54,2.02.32.48,1.04.09,4.19,5.34,8.84,1.21,1.07,2.59,1.86,4.11,2.45,3.19,1.25.22,2.38.61,7.56Z"/>
            <path class="cls-10" d="m70.15,95.3c14.49-68.81,13.78-65.56,14.7-65.7.72-.12,1.08.49,1.52,1.12,2.61,3.75,7.3,5.1,10.13,4.39,1.97-.5,1.87.09,2.14,1.85.69,4.46,5.23,8.59,11.45,8.06,1.37-.12,1.97.43,1.71,1.69-.52,2.56.26,4.97,1.13,7.35.9,2.46,2.43,4.62,4.08,6.7,2.04,2.57,4.49,2.58,3.48,4.26-.2.33-1.58,1.65-2.29,4.85-.92,4.09-.37,9.82,1.93,12.83.9,1.17,1.33,1.76.31,2.62-.17.14-.37.24-.53.38-2.15,1.78-3.3,4.01-3.46,6.75-.2,3.48.7,4.95.89,5.8.34,1.45-.51,1.38-3.15,2.69-4.56,2.27-8.25,7.34-7.06,12.67.41,1.84.04,2.15-1.61,2.41-3.8.61-6.13,2.77-7.48,6.06-1.86,4.55.37,6.3-2.25,6.94-.76.19-1.58.26-2.29.55-3.94,1.64-6.53,4.5-8.08,8.21-.32.77-.37,1.65-.57,2.48-.41,1.71-1.15,1.26-2.9,1.06-3.97-.45-8.17.89-10.03,4.13-.62,1.08-1.04,1.59-2.37.97-2.84-1.32-5.9.03-7.37,1.6-1,1.07-1.45,2.16-2.71,1.54-1.15-.57-1.39,2.75,10.61-54.27.02,0,.05,0,.07.01Z"/>
            <g>
              <path class="cls-7" d="m80.92,91.86c-1.29-2.12.57-4.12,2.97-4.45,3.71-.51,6.92,1.17,8.01,2.98,2.93,4.87-7.84,6.6-10.98,1.47Z"/>
              <path class="cls-7" d="m63.78,88.25c2.04-1.42,1.14-4-.92-5.27-3.19-1.96-6.8-1.72-8.53-.5-4.65,3.28,4.51,9.2,9.45,5.77Z"/>
            </g>
          </g>
          <g>
            <path class="cls-9" d="m63.1,71.67c-2.01-.4-3.86.83-4.31,2.82-.41,1.85.9,3.91,2.9,4.29,1.98.38,3.85-.8,4.29-2.89.42-1.99-.83-3.83-2.88-4.23Z"/>
            <path class="cls-9" d="m88.15,76.94c-2.41-.45-3.96,1.23-4.36,2.81-.45,1.76.94,3.96,2.75,4.29,5.03.92,6.21-6.23,1.61-7.1Z"/>
            <path class="cls-9" d="m79.4,78.61c-.39-.04-.74.24-.78.63-.41,4.03-2.25,6.14-3.84,6.76-1.05.41-2.1.25-2.9-.45-1.54-1.34-1.92-4.34-1.03-8,.09-.38-.14-.76-.52-.86-.38-.1-.76.14-.86.52-1.04,4.25-.51,7.68,1.47,9.4.55.48,1.18.8,1.86.94.8.17,1.65.09,2.5-.24,2.55-1.01,4.32-3.97,4.73-7.93.04-.39-.24-.73-.63-.78Z"/>
            <path class="cls-9" d="m128.99,63.89c.39-.06.65-.42.59-.81-.06-.39-.43-.65-.81-.59-.94.15-1.91.25-2.85.35-1.14.12-2.31.25-3.48.46.52-.47,1.29-1.07,2.09-1.7.64-.5,1.37-1.08,2.2-1.75.3-.25.35-.69.1-1-.25-.3-.69-.35-1-.1-.82.67-1.55,1.24-2.18,1.74-1.45,1.14-2.38,1.88-2.87,2.51-.15-.14-.32-.27-.52-.39-1.99-1.19-3.27-2.89-4.26-4.4-2.1-3.19-4.16-7.07-3.48-11.59.64.23,1.5.45,2.68.75.63.16,1.34.33,2.13.54.01,0,.02,0,.04,0,.37.08.73-.15.83-.51.1-.38-.13-.77-.5-.87-.8-.21-1.52-.39-2.15-.55-.62-.15-1.22-.31-1.73-.45.97-.27,1.96-.49,2.93-.7.94-.2,1.91-.41,2.86-.67.38-.1.6-.49.5-.87-.1-.38-.49-.6-.87-.5-.92.25-1.87.45-2.79.65-1.12.24-2.27.49-3.41.83.47-.52,1.17-1.2,1.9-1.91.58-.56,1.25-1.22,2-1.97.28-.28.28-.73,0-1-.28-.28-.73-.28-1,0-.75.75-1.41,1.4-1.99,1.96-1.48,1.44-2.36,2.31-2.72,3.04-.29-.09-.64-.14-1.09-.1-6.08.55-10.35-3.54-10.83-7.64-.03-.3-.08-.61-.15-.92.66.09,1.51.14,2.64.2.64.03,1.38.07,2.2.13.39.03.73-.27.75-.66.03-.39-.28-.73-.66-.75-.83-.05-1.57-.09-2.22-.13-.64-.03-1.25-.07-1.78-.11.9-.45,1.83-.85,2.74-1.24.88-.38,1.8-.77,2.68-1.2.35-.17.5-.6.32-.95-.17-.35-.6-.5-.95-.32-.85.42-1.75.8-2.62,1.17-1.06.45-2.14.92-3.19,1.46.36-.6.92-1.41,1.5-2.24.46-.66.99-1.43,1.59-2.32.22-.32.13-.77-.19-.98-.33-.22-.77-.13-.98.19-.59.88-1.12,1.64-1.58,2.3-1.41,2.03-2.14,3.11-2.16,3.94-.31.03-.61.1-.85.17-.1.03-.19.05-.27.07-2.68.5-6.65-.69-9.07-3.97-1.42-1.94-1.79-2.02-3.95-.88-4.12,2.18-8.52,1.44-10.55-.35-.51-.45-1-.65-1.5-.6-.49.05-.93.34-1.34.89-.16.21-.3.44-.46.68-.45.71-.96,1.52-2.22,2.45-1.83,1.34-3.9,1.9-6.15,1.67-1.45-.15-3.13-.43-4.55-1.34-.76-.49-1.39-.48-1.77-.39-.43.11-.79.37-1.01.75-.09.15-.16.35-.26.65-.26.73-.74,2.1-1.88,3.72-2.31,3.32-7.24,7.19-11.83,7.85-.15.02-.33.06-.5.11-.22-.76-.76-1.79-1.58-3.34-.38-.71-.81-1.53-1.3-2.47-.18-.35-.61-.48-.95-.31-.35.18-.49.61-.31.95.49.95.93,1.78,1.31,2.49.48.89.93,1.76,1.22,2.4-.98-.67-2-1.25-3-1.83-.82-.47-1.66-.96-2.46-1.47-.32-.21-.77-.12-.98.21-.21.33-.12.77.21.98.83.54,1.69,1.03,2.52,1.51.86.49,1.73,1.01,2.58,1.56-.53-.02-1.15-.06-1.78-.1-.65-.04-1.39-.09-2.22-.13-.39-.02-.72.28-.74.67-.02.35.23.66.56.73.04,0,.07.01.11.01.82.04,1.55.09,2.2.13,1.53.1,2.57.16,3.29.06.03.28.07.56.13.87.15.78.33,1.74.17,2.88-.85,5.97-3.6,9.42-5.75,11.26-.48.41-.92.7-1.31.94-.34-.66-.86-1.48-1.58-2.59-.43-.67-.93-1.44-1.49-2.34-.21-.33-.65-.43-.98-.23-.33.21-.43.64-.23.98.56.9,1.06,1.68,1.5,2.36.55.85,1.08,1.68,1.42,2.28-1.04-.58-2.11-1.07-3.16-1.55-.85-.39-1.74-.8-2.58-1.24-.35-.18-.77-.05-.96.3-.18.35-.05.77.3.96.87.46,1.77.87,2.64,1.27.89.41,1.8.84,2.69,1.31-.54.03-1.16.05-1.8.06-.65.02-1.39.04-2.23.07-.39.02-.7.34-.68.74.01.33.25.6.56.67.06.01.11.02.17.01.83-.03,1.56-.05,2.21-.07,1.2-.03,2.09-.06,2.77-.15.04.08.06.15.11.24,1.55,2.74,1.64,5.62.25,8.55-.8,1.68-1.6,2.56-2.19,3.21-.22.24-.39.46-.54.68-.62-.35-1.55-.68-2.86-1.14-.68-.24-1.47-.52-2.37-.85-.36-.13-.78.05-.91.42-.14.37.05.77.42.91.9.34,1.7.62,2.39.86.89.31,1.74.61,2.3.86-1.27.25-2.53.6-3.75.95-.93.26-1.88.53-2.82.75-.38.09-.62.47-.53.85.06.28.28.48.54.53.1.02.2.02.3,0,.97-.22,1.94-.5,2.89-.77.87-.25,1.75-.49,2.64-.7-.45.37-.96.79-1.49,1.21-.56.45-1.2.96-1.91,1.55-.3.25-.35.69-.1,1,.11.13.25.21.4.24.2.04.42,0,.6-.15.71-.58,1.34-1.09,1.9-1.54,1.32-1.06,2.21-1.78,2.74-2.36.2.24.43.5.72.79,2.85,2.87,4.36,7.36,3.68,10.93-.36,1.84-1.1,2.96-1.64,3.78-.68,1.02-1.44,2.18.31,3.44.11.08.26.17.44.29.9.57,2.58,1.62,3.42,3.81,1.51,3.89.3,6.85-.51,8.82l-.16.4c-.7,1.73.27,2.38,1.21,3,1.08.72,2.71,1.81,4.18,5.22.8,1.87,1.57,4.85.67,8.41-.03.11-.05.19-.06.23-.37,2.05,1.34,2.46,2.47,2.74,2.5.61,5.62,2.59,6.93,5.63.25.58.32,1.14.39,1.69.13,1.06.31,2.5,2.51,2.45,1.48-.03,2.74.52,4.19,1.85.77.7,1.14,1.88,1.51,3.03.02.07.04.13.06.19.1.48.21.94.39,1.33.27.58.73.96,1.26,1.08.04,0,.08.02.13.02.59.07,1.19-.19,1.63-.73.25-.31.49-.62.72-.94.19-.25.38-.5.57-.74,1.68-1.63,4.24-2.58,6.6-1.48,1.45.68,2.47.31,3.23-1.13,1.68-3.2,6.08-4.37,9.55-3.88l.45.07c1.25.19,2.55.39,3.04-1.52.13-.51.21-.93.28-1.33.17-.9.29-1.55.97-2.72,1.66-2.86,3.81-4.87,6.57-6.15.73-.34,1.42-.46,2.02-.57,1.17-.21,2.5-.44,2.51-2.47,0-1.5.12-3.46.93-5.3,1.97-4.49,5.39-5.08,7.04-5.37.3-.05.54-.1.71-.14.85-.24,1.76-.92,1.32-2.81-1.07-4.6,1.49-9.43,6.37-12.04.69-.37,1.29-.63,1.77-.84.27-.12.52-.23.75-.35.23.76.76,1.79,1.57,3.36.33.64.7,1.36,1.12,2.17.1.2.28.33.49.37.15.03.32.01.46-.06.35-.18.49-.6.31-.95-.42-.82-.79-1.55-1.12-2.19-.31-.6-.62-1.19-.87-1.71.72.55,1.43,1.13,2.13,1.7.76.62,1.54,1.27,2.34,1.87.08.06.18.1.28.13.26.06.54-.04.71-.27.23-.31.17-.76-.14-.99-.77-.57-1.54-1.21-2.28-1.82-.98-.81-1.99-1.64-3.05-2.38.61,0,1.51.06,2.45.14.73.06,1.57.12,2.54.18.39.02.73-.27.75-.67.02-.39-.27-.72-.67-.75-.95-.06-1.79-.12-2.51-.18-1.47-.11-2.49-.19-3.21-.09-.02-.16-.05-.32-.1-.5-.04-.15-.11-.34-.18-.56-.39-1.14-1.12-3.26-.49-6.16.65-3.01,2.07-4.12,3.11-4.93.22-.17.42-.34.6-.51.59.37,1.44.78,2.61,1.33.59.28,1.25.59,1.99.95.05.03.11.05.17.06.31.07.64-.08.78-.38.17-.35.03-.78-.33-.95-.75-.37-1.42-.68-2.01-.96-.58-.28-1.15-.54-1.63-.79,1-.07,2.01-.1,2.99-.11.96-.02,1.95-.03,2.93-.1.39-.03.68-.36.66-.76-.03-.39-.36-.69-.75-.66-.95.06-1.92.08-2.86.1-1.15.02-2.33.04-3.51.15.56-.42,1.37-.96,2.22-1.52.67-.44,1.44-.95,2.32-1.55.32-.22.41-.66.19-.98-.22-.32-.66-.41-.98-.19-.87.59-1.64,1.1-2.3,1.54-1.11.74-1.93,1.28-2.51,1.75,0-.01-.01-.02-.02-.03-.84-1.06-1.35-2.06-1.71-3.36-.87-3.16-1.8-9.15,1.72-13.73.07-.09.13-.19.18-.28.61.4,1.61.77,3.13,1.33.61.22,1.29.47,2.07.77.04.01.07.02.11.03.34.07.68-.11.81-.44.14-.37-.04-.77-.41-.91-.78-.3-1.47-.55-2.08-.77-.6-.22-1.18-.43-1.67-.63,1-.16,2-.28,2.99-.38.96-.1,1.94-.21,2.92-.36Zm-33.8-14.31c.39,5.1,3.52,7.63,5.2,8.99.26.21.49.4.67.56.23.21.22.28.09.5-.3.51-.64,1-1.01,1.45-2.95,3.64-4.14,10.42-1.02,15.47.25.4.53.75.78,1.06.24.3.66.81.63.97,0,.03-.09.17-.4.36-1.83,1.13-3.11,2.61-3.8,4.42-2.18,5.66-.56,9.08.41,11.12.27.56.6,1.27.52,1.47,0,.01-.07.14-.51.31-6.34,2.32-8.88,9.52-8.56,15.22.05.87.2,1.54.32,2.09q.23,1.04-.35,1.23c-4.29,1.42-7,4.45-8.29,9.25-.56,2.11-.52,3.99.15,5.74.31.82.22,1,.21,1.01-.07.13-.78.3-1.24.4-1.94.44-5.55,1.27-9.5,6.29-1.57,1.99-2.35,4.23-2.34,6.66q0,.66-.75.73c-1.04.1-2.77.27-4.69,2.56-.05.06-.1.13-.14.19-.39.39-.74.8-1.03,1.24-.12.18-.38.17-.48.16-.28-.04-.53-.2-.59-.39-.06-.16-.11-.33-.16-.5,0-.04-.02-.09-.03-.13-.18-.86-.39-1.83-.94-2.7-.64-1.01-1.38-2.06-2.65-2.75-.62-.34-.59-.42-.36-.93,2.25-5.12-.4-12-4.15-15.43-.52-.48-1.03-.85-1.44-1.15-.4-.29-.94-.69-.96-.86,0,0-.01-.15.33-.54,2.03-2.37,2.93-4.79,2.9-7.84-.03-3.96-1.3-6.99-3.86-9.28-.45-.4-.54-.54-.55-.58,0-.06.06-.22.35-.69l.13-.2c.8-1.28,1.62-2.6,2.15-4.09,1.43-4.02,1.34-7.95-.25-11.7-.7-1.65-1.62-2.57-2.23-3.18-.2-.2-.44-.45-.53-.59.1-.15.19-.3.22-.45.14-.15.35-.36.67-.63,5.67-4.76,6.13-11.83,3.3-15.65-.25-.34-.25-.47-.25-.47.04-.16.65-.53,1.06-.77,1.45-.88,3.89-2.36,5.53-6.26,1.34-3.2,1.52-6.09.61-9.99-.05-.23-.18-.76-.1-.88.06-.1.36-.31,1.66-.61,3.82-.88,6.61-3.18,8.28-6.84,1.06-2.32,1.05-3.56,1.05-4.31,0-.16,0-.29.01-.41.1-.57.28-.81,1.11-.75,5.09.37,10.66-2.1,13.55-6,.09-.12.16-.24.24-.37.06-.1.12-.2.19-.29.13-.15.29-.21.44-.19,0,0,.02,0,.03,0,.16.03.29.15.38.34.06.13.12.4.19.72.33,1.57.95,4.48,5.33,8.36,1.21,1.07,2.62,1.92,4.32,2.58,1.23.48,1.2.57.78,1.97-.32,1.06-.79,2.65-.62,4.98Zm-43.05,92.47c-.92.02-.93-.12-1.07-1.21-.07-.58-.16-1.31-.49-2.07-1.62-3.73-5.26-5.8-7.9-6.45-1.49-.36-1.52-.52-1.41-1.11l.04-.14c1-3.94.15-7.24-.74-9.32-1.63-3.8-3.55-5.08-4.7-5.84-.92-.62-.94-.63-.67-1.29l.16-.39c.84-2.04,2.23-5.45.52-9.87-1.02-2.62-3.03-3.88-3.99-4.49-.15-.09-.27-.17-.36-.24q-.65-.47.04-1.51c.57-.87,1.44-2.18,1.85-4.3.77-4-.9-9.02-4.06-12.2q-1.28-1.29-.51-2.14c.61-.67,1.53-1.69,2.42-3.56,1.57-3.33,1.47-6.73-.29-9.85.14-.11.26-.24.35-.41.1-.18.13-.37.14-.58.01,0,.02-.01.03-.02.46-.28,1.08-.66,1.77-1.24,2.34-2,5.31-5.73,6.23-12.14.2-1.38-.02-2.52-.18-3.35-.08-.44-.2-1.04-.1-1.17,0,0,.1-.13.61-.2,5.03-.72,10.24-4.79,12.79-8.44,1.24-1.78,1.77-3.26,2.05-4.05.07-.19.11-.34.16-.41.02-.04.06-.07.12-.08.16-.04.41.04.67.2,1.67,1.07,3.55,1.39,5.17,1.56,2.6.27,5-.38,7.13-1.94,1.48-1.09,2.12-2.1,2.58-2.84.13-.21.26-.41.39-.59.23-.31.35-.33.36-.33.04,0,.18.04.42.25,2.12,1.87,6.13,2.78,10.26,1.36-2.77,2.91-7.26,4.68-11.41,4.38-1.86-.13-2.44.97-2.61,1.92-.04.21-.04.43-.04.66,0,.66.01,1.67-.92,3.71-1.5,3.29-3.89,5.27-7.31,6.05-1.31.3-2.14.6-2.54,1.24-.36.57-.25,1.2-.08,1.95.71,3.03.89,5.73-.53,9.12-1.46,3.48-3.57,4.75-4.96,5.6-.47.28-.88.54-1.18.83-.16-.72-.85-1.63-2.05-3.19-.43-.56-.93-1.22-1.49-1.97-.23-.31-.68-.38-.99-.15-.31.23-.38.68-.15.99.57.76,1.07,1.42,1.51,1.99.49.65.97,1.27,1.31,1.76-.93-.4-1.88-.73-2.8-1.06-.8-.28-1.62-.57-2.41-.89-.36-.15-.78.03-.92.39-.15.36.03.78.39.92.82.34,1.66.63,2.48.92.79.27,1.54.54,2.28.84-.43.06-.92.12-1.41.18-.59.07-1.27.15-2.02.25-.39.05-.66.41-.61.8.04.31.27.54.56.6.08.02.16.02.24,0,.75-.1,1.41-.18,2-.25,1.89-.23,2.97-.36,3.56-.76.07.44.3.81.5,1.09,2.46,3.32,1.81,9.62-3.07,13.72-.12.1-.22.2-.33.3-.52-.45-1.38-.9-2.66-1.56-.59-.31-1.28-.66-2.06-1.08-.35-.19-.77-.06-.96.29-.19.34-.06.77.29.96.78.42,1.48.78,2.08,1.09.69.35,1.35.7,1.82.98-1.08.07-2.15.21-3.19.35-.85.11-1.73.23-2.59.3-.39.03-.68.37-.65.76.03.32.26.57.56.63.07.01.13.02.21.01.89-.07,1.79-.2,2.66-.31.74-.1,1.49-.2,2.24-.27-.38.25-.81.51-1.25.78-.54.33-1.16.71-1.84,1.15-.33.21-.43.65-.22.98.11.17.27.28.45.31.17.04.36,0,.52-.09.68-.43,1.29-.81,1.83-1.14.86-.53,1.54-.95,2.06-1.32.16.21.36.42.57.63.56.57,1.33,1.34,1.93,2.73,1.47,3.45,1.54,6.94.21,10.67-.48,1.35-1.23,2.55-2.02,3.81l-.13.2c-.86,1.38-.77,1.98.46,3.08,2.28,2.04,3.36,4.65,3.39,8.24.02,2.69-.77,4.82-2.56,6.91-.32.37-.74.95-.66,1.63.09.78.72,1.25,1.53,1.84.4.29.85.63,1.32,1.06,3.39,3.11,5.8,9.27,3.81,13.82-.19.44-.27.83-.25,1.18-.06-.01-.11-.04-.17-.05-.45-.1-.94-.15-1.46-.13Zm67.69-77.36c-2.89,3.75-3.59,9.07-1.97,14.97.4,1.47,1.01,2.66,1.97,3.86.08.1.13.18.19.26-.07.18-.11.37-.1.57,0,.13.04.26.08.38-.14.13-.32.27-.49.4-1.07.84-2.87,2.24-3.63,5.75-.71,3.29.1,5.65.53,6.92.07.19.12.35.16.49q.2.72-1.15,1.31c-.5.22-1.13.5-1.87.89-5.46,2.91-8.31,8.38-7.08,13.61.22.96-.03,1.04-.33,1.12-.14.04-.33.07-.57.11-1.74.3-5.82,1.01-8.09,6.19-.91,2.08-1.04,4.22-1.05,5.86,0,.82-.14.87-1.34,1.08-.66.12-1.47.26-2.37.68-3.04,1.4-5.39,3.6-7.2,6.73-.8,1.38-.96,2.21-1.14,3.17-.07.36-.14.76-.26,1.24q-.17.67-1.45.47l-.47-.07c-3.84-.55-8.92.66-11,4.62-.44.83-.67.84-1.38.51-.49-.23-.98-.38-1.48-.48.13-.29.21-.67.21-1.17-.01-2.13.65-4.02,2.04-5.78,3.64-4.63,6.81-5.35,8.7-5.79,1-.23,1.8-.41,2.18-1.11.35-.66.13-1.47-.14-2.18-.56-1.48-.59-3.03-.1-4.87,1.17-4.37,3.51-7,7.36-8.27,1.8-.6,1.53-1.81,1.29-2.88-.12-.52-.25-1.11-.29-1.86-.3-5.19,1.97-11.73,7.63-13.8.25-.09.46-.2.65-.32.33.56.8,1.24,1.41,2.13.36.52.76,1.11,1.22,1.78.11.16.27.26.44.3.18.04.38,0,.54-.11.33-.22.41-.66.19-.98-.45-.68-.86-1.27-1.22-1.79-.29-.42-.58-.84-.83-1.22.66.37,1.3.76,1.94,1.15.75.46,1.52.93,2.31,1.36.06.03.13.06.19.07.3.06.62-.07.77-.36.19-.34.06-.77-.28-.96-.75-.41-1.51-.87-2.25-1.32-.9-.55-1.82-1.11-2.78-1.61.55-.07,1.29-.11,2.06-.16.67-.04,1.45-.09,2.34-.16.39-.03.68-.37.65-.76-.03-.39-.37-.68-.76-.65-.88.07-1.65.12-2.32.16-1.51.09-2.52.16-3.18.39-.09-.21-.19-.42-.3-.64-.93-1.95-2.33-4.9-.37-10,.58-1.51,1.66-2.76,3.22-3.72.43-.27.72-.56.89-.88.28.7,1.22,1.27,3.06,2.36.51.3,1.09.64,1.73,1.04.07.04.15.07.22.09.29.06.59-.06.75-.32.2-.33.1-.77-.24-.97-.65-.4-1.23-.74-1.75-1.05-.43-.26-.85-.51-1.22-.74.8.03,1.6.08,2.43.15.86.07,1.75.14,2.64.16.39.01.72-.3.73-.69s-.3-.72-.69-.73c-.85-.02-1.72-.09-2.57-.16-.98-.08-1.98-.15-2.99-.16.51-.31,1.2-.69,1.91-1.08.63-.34,1.36-.74,2.18-1.21.34-.19.46-.63.27-.97-.19-.34-.63-.46-.97-.27-.82.46-1.54.86-2.16,1.2-1.82,1-2.84,1.56-3.24,2.19-.15-.5-.51-.95-.87-1.39-.24-.29-.48-.59-.68-.91-2.79-4.51-1.72-10.58.92-13.84.34-.42.65-.87.95-1.34.51.39,1.23.82,2.23,1.41.51.3,1.09.64,1.73,1.04.07.04.15.07.22.09.29.06.59-.06.75-.32.2-.33.1-.77-.24-.97-.65-.4-1.23-.74-1.75-1.05-.43-.26-.85-.51-1.22-.74.8.03,1.6.08,2.43.15.86.07,1.75.14,2.64.16.39.01.72-.3.73-.69.01-.39-.3-.72-.69-.73-.85-.02-1.72-.09-2.57-.16-.98-.08-1.98-.15-2.99-.16.51-.31,1.2-.69,1.91-1.08.63-.34,1.36-.74,2.18-1.21.34-.19.46-.63.27-.97-.19-.34-.63-.46-.97-.27-.82.46-1.54.86-2.16,1.2-1.33.73-2.22,1.22-2.77,1.68-.19-.17-.41-.35-.66-.55-1.62-1.31-4.34-3.5-4.68-8h0c-.16-2.07.26-3.46.56-4.47.42-1.41.82-2.73-1.62-3.69-1.54-.6-2.81-1.37-3.9-2.32-3.02-2.67-4.09-4.81-4.56-6.31,2.52,2.49,6.14,3.78,9.31,3.18.11-.02.24-.05.38-.09.26-.07.58-.15.79-.13.08,0,.12.01.16.19.08.31.13.66.17,1.01.55,4.76,5.43,9.51,12.36,8.88.37-.03.66.02.78.15.12.13.1.4.08.54-.76,5,1.44,9.17,3.69,12.59,1.02,1.55,2.48,3.49,4.72,4.84.33.19.46.36.48.46.02.08-.05.23-.18.4Z"/>
          </g>
        </g>
        <g>
          <g>
            <path class="cls-7" d="m56.18,48.85c0-.3-.09-.61-.16-.91-.03-.14-.18-.15-.24-.05-1.36,2.04-1.4,2.53-3.29,4.35-2.57,2.47-5.43,1.74-3.87-2.62.74-2.07,2.01-4.78,2.94-6.76.14-.3.08-.38-.27-.39-1.62-.06-4.66,1.26-8.11-.23-1.16-.5-1.45-1.62-.76-2.74,1.74-2.83,9.27-4.67,9.51-4.77.28-.12.08-.41-.15-.63-1.03-.99-1.84-2.17-2.72-3.3-.61-.79-1.54-2.4-1.7-3.81-.15-1.31.73-2.23,1.89-2.06,2.77.39,5.28,2.36,7.33,4.31,1.93,1.83.15-7.27,3.27-9.34,1.71-1.13,2.8.92,3.12,2.46.95,4.52.29,4.67.64,4.7.17.01.09-.37,2.49-2.94,2.65-2.83,4.7-1.06,3.87,2.43-.76,3.18-1.42,3.81-1.09,3.91.29-.17,4.66-3.57,6.81-2.69,3.51,1.45-3.74,8.27-4,8.92.93.32,4.53.02,6.64,1.95,1.35,1.23,1.16,3.02-1.93,4.1-2.03.71-3.12.67-6.41.93-.96.07,2.67,3.01,3.58,8.18.89,5.06-4.95,2.4-9.02-2.69-.42-.53-.88-1.02-1.32-1.53-.04-.04-.14-.08-.18-.06-.34.19-.11,1.9-.12,2.21-.07,2.15-.33,5.8-1.93,7.36-3.39,3.3-4.82-6.61-4.83-8.32Z"/>
            <path class="cls-2" d="m65.71,37.86c.26,3.25-4.4,5-7.02,4.19-2.58-.8-2.96-3.74-1.09-5.53,2.16-2.07,7.76-2.97,8.11,1.35Z"/>
          </g>
          <path class="cls-9" d="m59.31,58.5c-.13-.03-.25-.07-.35-.11-2.3-.96-3.21-6.6-3.43-8.78-.67,1.09-1.08,1.75-2.54,3.15-1.57,1.51-3.33,2.01-4.49,1.26-.67-.43-1.63-1.61-.54-4.63.69-1.92,1.8-4.34,2.65-6.16-.28.03-.58.08-.91.14-1.75.29-4.14.68-6.8-.47-.73-.31-1.24-.85-1.45-1.51-.22-.7-.09-1.5.37-2.25,1.09-1.78,4.16-3.41,9.14-4.86-.7-.73-1.31-1.54-1.9-2.32-.18-.24-.36-.48-.54-.72-.6-.77-1.66-2.51-1.84-4.17-.1-.88.17-1.69.72-2.23.52-.5,1.22-.72,1.97-.61,3.01.43,5.66,2.58,7.47,4.26.09-.49.15-1.28.2-1.9.19-2.51.46-5.96,2.45-7.27.89-.59,1.64-.48,2.11-.29,1.15.47,1.84,1.96,2.1,3.2.28,1.34.42,2.31.49,3.02.34-.41.8-.93,1.42-1.6,1.97-2.1,3.42-1.67,3.95-1.38,1.2.64,1.63,2.35,1.12,4.46-.21.86-.41,1.55-.58,2.09,2.64-1.67,4.57-2.22,5.88-1.68.91.38,1.23,1.02,1.34,1.49.46,2-1.92,4.91-4.19,7.49-.02.03-.05.05-.07.08,1.53.14,4.07.39,5.78,1.96.81.74,1.16,1.65.98,2.54-.17.81-.85,1.94-3.15,2.75-1.78.63-2.9.7-5.11.86-.2.01-.41.03-.62.04.06.09.12.18.18.27.91,1.33,2.6,3.81,3.19,7.14.38,2.18-.39,3.03-1.12,3.35-2.19.99-6.38-2.01-9.16-5.48-.13-.16-.26-.32-.4-.48,0,.08.01.15.01.2.02.22.03.4.02.48-.08,2.55-.4,6.14-2.15,7.84-.86.84-1.63.95-2.2.83Zm-2.42-9.66c.02,1.79,1.1,7.62,2.61,8.24.1.04.41.17,1.02-.42,1.02-.99,1.6-3.31,1.72-6.88,0-.06,0-.18-.02-.33-.09-1.27-.1-2.12.49-2.47.39-.22.83-.06,1.06.21l.28.32c.36.4.72.81,1.06,1.23,3.03,3.79,6.44,5.53,7.47,5.07.52-.24.39-1.35.3-1.82-.54-3.04-2.05-5.26-2.96-6.59-.64-.94-.96-1.41-.71-1.94.13-.28.4-.45.73-.47.55-.04,1.04-.08,1.49-.11,2.15-.15,3.14-.22,4.74-.78,1.29-.45,2.11-1.07,2.24-1.7.11-.52-.3-.98-.55-1.21-1.37-1.25-3.55-1.46-4.99-1.59-.62-.06-1.08-.1-1.4-.21-.18-.06-.33-.2-.41-.37-.08-.18-.09-.38-.02-.56.09-.24.32-.5,1.01-1.28,1.15-1.31,4.21-4.77,3.87-6.23-.03-.15-.12-.34-.5-.5-.46-.19-1.97-.34-5.89,2.45-.15.11-.25.18-.29.2-.17.1-.37.12-.57.06-.22-.07-.4-.22-.5-.43-.17-.37-.05-.68.15-1.21.21-.55.57-1.48.96-3.12.39-1.62.05-2.63-.42-2.88-.39-.21-1.18-.03-2.25,1.1-1.54,1.65-2.02,2.35-2.23,2.66-.14.2-.37.55-.84.51-.31-.03-.8-.19-.76-1.01.02-.39.08-1.42-.52-4.25-.22-1.06-.75-1.97-1.25-2.18-.15-.06-.38-.11-.79.16-1.41.93-1.64,3.98-1.82,6.2-.15,2.01-.24,3.12-1.06,3.43-.29.11-.74.13-1.28-.37-1.66-1.58-4.17-3.73-6.94-4.12-.32-.04-.59.03-.79.23-.24.23-.35.62-.3,1.06.14,1.25,1,2.75,1.55,3.46.19.24.37.49.56.73.68.9,1.32,1.75,2.09,2.49.15.14.59.57.49,1.12-.05.3-.25.54-.55.67-.03.01-.18.06-.41.13-6.41,1.81-8.25,3.51-8.77,4.37-.24.39-.32.78-.22,1.08.11.34.42.54.66.64,2.28.98,4.35.64,6.01.37.71-.12,1.32-.22,1.85-.2.18,0,.65.02.9.44.25.41.05.83-.02.97-.81,1.72-2.16,4.6-2.91,6.69-.64,1.79-.41,2.71-.02,2.97.47.3,1.58.02,2.73-1.09,1.33-1.28,1.68-1.85,2.32-2.88.23-.38.5-.81.86-1.35.19-.29.53-.43.86-.37.31.06.59.31.66.65l.02.1c.07.28.14.61.15.95h0Zm-1.55-.74s0,0,0,0h0Zm7.38,0s0,0,0,0h0Z"/>
        </g>
        <g>
          <g>
            <path class="cls-11" d="m139.1,141.1c-1.65-9.52-8.18-14.7-19.44-15.5.24-1.6-.05-3.24-.85-4.67-1.04-1.86-2.83-3.17-4.91-3.61l-90.58-19.07c-2.08-.44-4.25.04-5.95,1.32-1.7,1.28-2.76,3.23-2.92,5.35l-.78,10.73-1.15,15.81c-.65,8.91,1.08,17.85,5.02,25.87,2.93,5.97,6.96,11.24,11.98,15.68.01.01.02.02.03.03l-6.46,8.33c-2.45,3.15-3.37,6.53-2.58,8.87.46,1.42,1.55,2.45,3.31,2.82l51.39,10.82c4.65.98,6.93-4.2,5.39-10.4l-2.55-10.23s.03,0,.04-.01c5.71-1.81,10.93-4.54,15.52-8.05,7.72.6,15.37-.03,22.68-2.92,11.87-4.7,25.06-18.32,22.82-31.17Zm-25.1,25.41c-4.43,1.75-9.08,2.53-13.85,2.66,4.45-4.88,7.94-10.66,10.24-17.12l7.26-20.4c9.2.23,14.15,3.66,15.34,10.51,1.14,6.57-5.53,19.01-19,24.35Z"/>
            <path class="cls-7" d="m82.38,153.37c-5.41,6.99-15.96,13.96-25.1,14.08-7.34.09-20.81-17.17-20.09-28.09.47-7.09,6.58-11.79,12.65-9.39,5.03,1.98,8.49,7.18,10.43,12.19.54,1.41.6,1.96,1.13,1.46,1.05-1,3.55-3.53,5.55-4.77,15.26-9.49,23.19,4.51,15.43,14.53Z"/>
            <path class="cls-8" d="m118.65,126.76l-3.61,10.14L14.37,115.7l.78-10.73c.29-3.91,3.87-6.71,7.7-6.09.11.01.21.03.31.06l90.58,19.07c.1.02.21.04.31.07,3.75.97,5.9,4.97,4.59,8.67Z"/>
            <g>
              <rect class="cls-6" x="63.68" y="116.48" width="18.22" height="4.43" transform="translate(-58.36 165.46) rotate(-78.11)"/>
              <rect class="cls-6" x="76.09" y="119.09" width="18.22" height="4.43" transform="translate(-51.06 179.68) rotate(-78.11)"/>
              <rect class="cls-6" x="88.5" y="121.71" width="18.22" height="4.43" transform="translate(-43.77 193.9) rotate(-78.11)"/>
              <path class="cls-6" d="m114.06,118.09l-3.75,17.82-4.33-.91,3.75-17.82,4.02.85c.1.02.21.04.31.07Z"/>
              <path class="cls-6" d="m27.19,99.79l-3.75,17.82-4.33-.91,3.75-17.82c.11.01.21.03.31.06l4.02.85Z"/>
              <rect class="cls-6" x="26.45" y="108.64" width="18.22" height="4.43" transform="translate(-80.25 122.8) rotate(-78.11)"/>
              <rect class="cls-6" x="38.85" y="111.25" width="18.22" height="4.43" transform="translate(-72.95 137.02) rotate(-78.11)"/>
              <rect class="cls-6" x="51.26" y="113.87" width="18.22" height="4.43" transform="translate(-65.66 151.24) rotate(-78.11)"/>
            </g>
            <path class="cls-3" d="m29.02,151.8c2.08,4.97,4.84,8.86,4.77,8.76.85,1.26-.74,2.75-1.95,1.82-11.22-8.7-14.76-27.56-8.57-40.6.61-1.29,2.57-.73,2.41.69.07,1.77-2.63,15.08,3.34,29.33Z"/>
            <g class="cls-4">
              <path class="cls-7" d="m75.2,203.88l-51.39-10.82c-1.76-.37-2.84-1.4-3.31-2.82,5.38-3.1,12.56-3.96,19.24-2.73,6.14,1.14,12.84,3.83,18.17,1.4,2.01-.91,3.38-2.36,4.49-4.04,5.32.06,10.53-.74,15.45-2.31l2.72,10.92c1.54,6.21-.73,11.38-5.39,10.4Z"/>
              <path class="cls-7" d="m115.04,136.9l-5.31,14.92c-5.38,15.12-17.44,26.17-31.86,30.75-4.93,1.57-10.14,2.37-15.45,2.31-3.24-.02-6.53-.37-9.81-1.06-8.67-1.82-16.37-5.82-22.62-11.33-4.91-4.34-8.93-9.59-11.81-15.46.2.06.4.12.6.18,12.11,3.83,17.3,12.34,29.7,15.09,12.4,2.76,33.02-1.01,41.6-10.38,5.08-5.56,7.37-13.06,9.53-20.28.74-2.49,1.51-5.01,2.4-7.47l13.04,2.75Z"/>
            </g>
            <path class="cls-10" d="m118.65,126.76l-3.61,10.14-13.04-2.75c1.7-4.67,3.88-9.13,7.26-12.73,1.25-1.33,2.72-2.5,4.31-3.45l.18.04c3.94.83,6.25,4.95,4.9,8.74Z"/>
          </g>
          <path class="cls-9" d="m139.79,140.98c-1.68-9.69-8.17-15.06-19.36-16.05.08-1.5-.26-3-1.01-4.34-1.14-2.04-3.1-3.48-5.38-3.96l-90.58-19.07c-2.28-.48-4.66.04-6.52,1.45-1.86,1.4-3.03,3.54-3.2,5.86l-.78,10.73-1.15,15.81c-.66,9.04,1.1,18.11,5.09,26.23,2.87,5.86,6.8,11.07,11.68,15.49l-6.06,7.81c-2.53,3.27-3.57,6.92-2.69,9.52.56,1.73,1.92,2.9,3.83,3.3l51.39,10.82c1.87.4,3.51-.07,4.73-1.34,1.94-2.01,2.52-5.81,1.49-9.93l-2.39-9.59c5.38-1.77,10.38-4.43,14.81-7.8,7.75.59,15.46-.07,22.84-2.99,6.2-2.45,12.56-7.21,17-12.74,5.09-6.33,7.32-13.16,6.26-19.21Zm-59.89,52.68c.89,3.58.44,6.96-1.14,8.6-.88.91-2.03,1.23-3.41.93l-51.4-10.82c-1.43-.3-2.37-1.09-2.78-2.35-.72-2.17.22-5.31,2.47-8.21l6.01-7.74c6.46,5.52,14.28,9.37,22.65,11.13,3.33.7,6.73,1.07,10.1,1.09,5.13.07,10.22-.65,15.13-2.14l2.37,9.51Zm-1.37-11.32c-.22.09-.44.16-.67.23-4.92,1.57-10.14,2.37-15.45,2.31-3.25-.02-6.53-.37-9.81-1.06-8.67-1.83-16.37-5.82-22.62-11.34-.18-.15-.35-.31-.52-.47-4.68-4.24-8.51-9.33-11.29-14.99-3.78-7.69-5.61-16.43-4.95-25.5l1.15-15.82.78-10.73c.3-4.02,4.07-6.86,8.02-6.03l90.58,19.08c3.27.69,5.42,3.65,5.28,6.81-.02.47-.09.95-.23,1.42-.04.17-.09.34-.15.51l-1.49,4.17-.51,1.44-1.62,4.53-5.31,14.92c-2.25,6.33-5.67,11.94-9.94,16.66-.44.49-.89.96-1.35,1.43-1.61,1.65-3.33,3.17-5.14,4.57-.55.43-1.12.85-1.69,1.26-4,2.82-8.41,5.06-13.07,6.6Zm39.61-49.93c11,.44,13.41,5.6,14.15,9.88,1.1,6.33-5.43,18.36-18.56,23.56-3.86,1.54-7.91,2.31-12.06,2.56,4.06-4.71,7.27-10.16,9.39-16.11l5.31-14.92,1.77-4.97Zm-2.13,39.21c-6.67,2.64-13.64,3.37-20.68,3,1.79-1.47,3.47-3.05,5.03-4.74,4.77-.14,9.44-.95,13.89-2.71,13.8-5.46,20.62-18.32,19.44-25.13-1.22-6.99-6.07-10.62-15.04-11.06l1.33-3.75c.1-.29.19-.58.25-.88,10.52.94,16.61,5.91,18.17,14.88,2.06,11.87-10.14,25.54-22.39,30.39Z"/>
        </g>
      </g>
      <g>
        <path class="cls-12" d="m157.09,157.42c1.38.25,2.57.42,3.37.91.8.49.42,1.72-.44,1.7-1.4-.04-3.53-.88-3.73-.58-.2.3.19.58.38.84,1.02,1.45,1.77,2.24,2.27,3.31.38.81-.85,1.56-1.44,1.05-.57-.49-.98-1.21-3.26-4.25-.75-1.01-1.01.36-1.59,1.89-.33.87-1.09,1.87-1.9,1.41-.67-.38-.42-1.08-.17-1.81,1.32-3.84,1.76-3.35-2.87-1.61-.85.32-1.92.64-2.19-.26-.28-.91.77-1.21,2.71-2.05.25-.11.55-.14.79-.27.54-.28,1.17-.36,1.63-.8-.35-.66-1.11-.6-1.66-.91-.88-.51-1.76-.4-2.2-1.38-.17-.38.01-.84.41-.93,1.95-.48,4.1,1.76,3.74-.09-.48-2.39-.67-2.93-.67-3.95,0-.97,1.2-1.2,1.61-.33.68,1.44.98,4.5,1.4,4.56.44.06,1.22-3.59,2.08-4.26.62-.48,1.3-.14,1.34.55.06,1.04-.23,1.47-1.11,4.01-.07.2-.2.44.03.6.21.14.43,0,.62-.1.97-.51,3.14-1.69,3.25-1.73,1.03-.38,1.92,1.08.87,1.69-3.65,2.12-4.87,2.34-3.27,2.77,0,.01,0,.02,0,.03Z"/>
        <path class="cls-12" d="m149.85,193.17c1.44.31,3.35.58,3.04,1.66-.22.75-.93.56-1.77.36-.49-.11-1.82-.57-1.96-.38-.18.26.06.28,1.54,2.49.43.65.9,1.41.22,1.77-.94.5-.93.03-3.45-3.54-.59-.84-.83.27-1.34,1.51-.29.7-.93,1.5-1.58,1.11-.54-.32-.31-.9-.1-1.48,1.16-3.1,1.51-2.69-2.3-1.38-.7.24-1.58.47-1.78-.26-.35-1.27,3.44-1.68,4.26-2.42-.27-.55-.89-.51-1.33-.78-.7-.43-1.42-.37-1.77-1.18-.36-.84.82-.95,1.7-.64,2.26.81,1.84,1,1.31-2.38-.11-.68-.17-1.53.5-1.63.72-.11.91.7,1.08,1.49.79,3.47.42,3.75,1.98.06.69-1.63,2.23-1.12,1.37,1.03-1.29,3.19-1.27,2.86,1.86,1.3.29-.15,1.19-.78,1.61.18.15.35.05.71-.34.92-3.02,1.64-4.03,1.79-2.73,2.18,0,0,0,.02,0,.03Z"/>
        <path class="cls-12" d="m111.81,190.83c1.12-.67,2.06-1.28,2.92-1.43.86-.15,1.35.95.73,1.46-1.01.84-3.02,1.55-2.97,1.88.05.33.49.29.78.36,1.6.39,2.61.49,3.62.93.76.34.36,1.62-.37,1.62-.7,0-1.42-.25-4.89-.98-1.15-.24-.49.87.05,2.3.31.81.38,1.98-.47,2.15-.7.14-.96-.51-1.23-1.17-1.43-3.5-.82-3.43-3,.63-.4.74-.96,1.63-1.7,1.16-.77-.48-.16-1.4.65-3.1.11-.23.3-.43.39-.67.2-.53.6-.97.65-1.57-.65-.25-1.15.26-1.72.38-.93.18-1.48.8-2.39.38-.36-.16-.5-.59-.28-.91,1.07-1.53,3.96-1.28,2.57-2.35-2.14-1.65-3.64-2.5-2.96-3.36.52-.66,1.31-.11,2.06.4,3.36,2.3,3.27,2.84,1.7-1.48-.67-1.84.99-2.72,1.94-.2,1.4,3.68,1.16,3.38,2.56-.35.09-.24.16-.5.28-.72.49-.9,2.01-.42,1.65.66-1.26,3.71-2,4.63-.59,3.95,0,0,.01.02.02.03Z"/>
        <path class="cls-12" d="m45.61,7.94c-1.39.18-2.57.39-3.49.17-.91-.22-.93-1.51-.11-1.75,1.35-.4,3.63-.25,3.73-.6.09-.34-.36-.49-.62-.68-1.42-1.06-2.37-1.59-3.17-2.45-.61-.65.33-1.74,1.05-1.44.69.29,1.3.85,4.4,3.04,1.03.73.85-.65.93-2.29.04-.93.46-2.11,1.37-1.92.75.15.73.9.72,1.67-.07,4.05-.64,3.73,3.22.65.71-.56,1.63-1.2,2.17-.43.54.78-.36,1.39-1.95,2.78-.21.18-.48.3-.67.5-.42.44-1.01.71-1.31,1.27.54.52,1.24.23,1.86.36.99.21,1.8-.16,2.52.63.28.31.25.8-.1,1.02-1.71,1.05-4.45-.42-3.53,1.23,1.19,2.13,1.54,2.58,1.85,3.56.29.92-.77,1.51-1.42.81-1.09-1.16-2.32-3.98-2.74-3.91-.43.07-.06,3.8-.67,4.69-.44.65-1.2.53-1.45-.11-.38-.97-.23-1.47-.18-4.16,0-.21.06-.48-.21-.56-.24-.07-.41.13-.56.29-.77.78-2.47,2.57-2.56,2.64-.87.68-2.16-.44-1.35-1.35,2.82-3.14,3.92-3.72,2.26-3.64,0-.01,0-.02,0-.03Z"/>
        <path class="cls-12" d="m6.72,11.5c-1.46.15-3.37.48-3.4-.64-.02-.78.71-.81,1.58-.89.5-.04,1.91-.01,1.98-.24.09-.3-.14-.25-2.23-1.9-.61-.48-1.29-1.06-.75-1.62.74-.76.88-.31,4.37,2.31.82.62.71-.51.81-1.85.06-.76.43-1.71,1.16-1.54.61.14.57.76.55,1.38-.15,3.3-.61,3.02,2.61.61.59-.44,1.36-.94,1.78-.3.72,1.1-2.75,2.65-3.31,3.61.43.44,1.01.21,1.51.34.8.2,1.47-.09,2.04.58.6.69-.49,1.16-1.42,1.13-2.4-.08-2.06-.39-.51,2.67.31.61.63,1.4.03,1.71-.65.33-1.08-.39-1.49-1.08-1.82-3.06-1.55-3.44-1.9.55-.15,1.76-1.78,1.75-1.62-.56.25-3.43.33-3.11-2.17-.66-.23.23-.89,1.11-1.59.33-.26-.29-.27-.66.03-.98,2.37-2.49,3.28-2.94,1.93-2.92,0,0,0-.02,0-.03Z"/>
        <path class="cls-12" d="m6.47,50.35c-.86.98-1.56,1.85-2.34,2.26-.77.4-1.58-.49-1.15-1.16.7-1.11,2.4-2.4,2.25-2.7-.15-.3-.56-.12-.85-.1-1.65.13-2.64.34-3.73.22-.83-.09-.83-1.43-.14-1.65.67-.22,1.43-.2,4.96-.57,1.17-.12.2-.98-.75-2.18-.54-.68-.97-1.77-.22-2.19.62-.35,1.07.19,1.53.73,2.43,2.89,1.83,3.01,2.66-1.52.15-.83.41-1.84,1.26-1.63.89.22.59,1.28.34,3.14-.03.26-.15.5-.17.76-.03.57-.27,1.11-.14,1.69.7.03,1.01-.6,1.52-.89.82-.46,1.16-1.21,2.16-1.1.39.04.66.41.55.78-.55,1.79-3.38,2.44-1.72,3.03,2.55.91,4.23,1.26,3.85,2.29-.29.79-1.21.51-2.09.25-3.91-1.16-3.99-1.7-1.16,1.93,1.2,1.55-.11,2.89-1.79.78-2.46-3.07-2.14-2.86-2.33,1.12-.01.26,0,.52-.04.78-.19,1.01-1.79,1.01-1.77-.12.06-3.92.48-5.02-.65-3.94,0,0-.02-.01-.02-.02Z"/>
      </g>
    </g>
  </g>
</svg>