<?xml version="1.0" encoding="UTF-8"?>
<svg id="_Слой_2" data-name="Слой 2" xmlns="http://www.w3.org/2000/svg" viewBox="0 0 155.12 207.61">
  <defs>
    <style>
      .cls-1 {
        fill: #e23a68;
      }

      .cls-2 {
        fill: #6c2950;
      }

      .cls-3 {
        fill: #a62658;
      }

      .cls-4 {
        fill: #853866;
      }

      .cls-5 {
        fill: #bb3a68;
      }
    </style>
  </defs>
  <g id="OBJECTS">
    <g>
      <g>
        <g>
          <path class="cls-1" d="m109.41,172.58c.02-.23-3.07-3.19.95-5.71,2.66,3.38-.95,5.71-.95,5.71Z"/>
          <path class="cls-1" d="m106.68,174.93c-.07-.22-4.02-1.85-1.19-5.67,3.7,2.18,1.19,5.67,1.19,5.67Z"/>
          <path class="cls-1" d="m104.44,177.91c-.16-.16-4.42.29-3.75-4.42,4.29.15,3.75,4.42,3.75,4.42Z"/>
          <path class="cls-1" d="m102.33,182.97c-.13-.19-4.39-.57-2.82-5.06,4.18.98,2.82,5.06,2.82,5.06Z"/>
          <path class="cls-1" d="m108.89,173.11c.2.1,4.11-1.63,4.92,3.05-4.13,1.18-4.92-3.05-4.92-3.05Z"/>
          <path class="cls-1" d="m105.29,177.1c.23,0,2.87-3.37,5.78.38-3.1,2.98-5.78-.38-5.78-.38Z"/>
          <path class="cls-1" d="m101.9,184.91c.19-.12.7-4.37,5.14-2.67-1.1,4.15-5.14,2.67-5.14,2.67Z"/>
          <path class="cls-3" d="m101.8,197.29c-.05-.21-4.73-21.57,11.46-26.91l.31.95c-15.33,5.06-10.85,25.54-10.8,25.74l-.97.22Z"/>
          <path class="cls-1" d="m112,171.3c.21-.09,1.35-4.21,5.49-1.86-1.72,3.94-5.49,1.86-5.49,1.86Z"/>
        </g>
        <path class="cls-5" d="m71.98,87.88c0,19.88-16.11,35.99-35.99,35.99S0,107.76,0,87.88c0-7.49,2.29-14.45,6.21-20.21,6.48-9.53,17.4-15.78,29.78-15.78,17.99,0,32.9,13.2,35.57,30.44.27,1.81.42,3.66.42,5.55Z"/>
        <path class="cls-5" d="m155.12,45.12c0,5.13-.86,10.07-2.44,14.66-6.08,17.73-22.89,30.47-42.68,30.47-24.93,0-45.13-20.21-45.13-45.13,0-18.77,11.46-34.86,27.76-41.65,5.35-2.24,11.22-3.47,17.37-3.47,24.92,0,45.12,20.2,45.12,45.12Z"/>
        <circle class="cls-5" cx="127.75" cy="115.28" r="22.32" transform="translate(-13.79 213.12) rotate(-76.72)"/>
        <path class="cls-2" d="m96.51,207.61h-12v-110.76c0-.82.17-1.63.49-2.39l19.49-44.96,11.01,4.77-18.99,43.82v109.51Z"/>
        <path class="cls-2" d="m90.5,138.96c-1.23,0-2.47-.38-3.53-1.16l-48.41-35.36c-2.68-1.95-3.26-5.71-1.31-8.38,1.95-2.68,5.71-3.26,8.38-1.31l48.41,35.36c2.68,1.95,3.26,5.71,1.31,8.38-1.17,1.61-3,2.46-4.85,2.46Z"/>
        <path class="cls-2" d="m90.51,153.57c-1.72,0-3.42-.73-4.61-2.15-2.12-2.54-1.79-6.33.76-8.45l30.8-25.74c2.54-2.12,6.33-1.79,8.45.76,2.12,2.54,1.79,6.33-.76,8.45l-30.8,25.74c-1.12.94-2.49,1.4-3.84,1.4Z"/>
        <path class="cls-2" d="m90.51,102.86c-.8,0-1.61-.16-2.38-.5-3.04-1.32-4.44-4.85-3.12-7.89l19.49-44.96c1.32-3.04,4.85-4.44,7.89-3.12,3.04,1.32,4.44,4.85,3.12,7.89l-19.49,44.96c-.98,2.26-3.19,3.62-5.51,3.62Z"/>
        <path class="cls-2" d="m103.21,69.54c-.58,0-1.16-.25-1.55-.74l-12.7-15.65c-.7-.86-.57-2.12.29-2.81.86-.7,2.12-.56,2.81.29l12.7,15.65c.7.86.57,2.12-.29,2.81-.37.3-.82.45-1.26.45Z"/>
        <path class="cls-2" d="m53.89,108.2c-1.1,0-2-.9-2-2v-18.33c0-1.1.9-2,2-2s2,.9,2,2v18.33c0,1.1-.9,2-2,2Z"/>
        <path class="cls-2" d="m92.2,94.95c-.9,0-1.71-.61-1.94-1.52l-6.83-27.43c-.27-1.07.39-2.16,1.46-2.42,1.08-.27,2.16.39,2.42,1.46l6.83,27.43c.27,1.07-.39,2.16-1.46,2.42-.16.04-.33.06-.48.06Z"/>
        <path class="cls-2" d="m111.22,132.27c-.06,0-.12,0-.19,0-1.1-.1-1.91-1.08-1.81-2.17l1.77-19.13c.1-1.1,1.07-1.92,2.18-1.81,1.1.1,1.91,1.08,1.81,2.17l-1.77,19.13c-.1,1.04-.97,1.82-1.99,1.82Z"/>
        <path class="cls-2" d="m59.23,113.14s-.08,0-.12,0l-33.04-1.97c-1.1-.07-1.94-1.01-1.88-2.12.07-1.1,1.01-1.96,2.12-1.88l33.04,1.97c1.1.07,1.94,1.01,1.88,2.12-.06,1.06-.94,1.88-1.99,1.88Z"/>
        <path class="cls-5" d="m121.31,207.61h-55.01c-11.95-7.68-2.63-28.05,8.12-18.66,9.99-16.73,28.79,3.29,28.79,3.29,0,0,10.01-11.91,8.89,9.6,3.49-5.76,9.21,5.77,9.21,5.77Z"/>
        <circle class="cls-3" cx="24.33" cy="109.17" r="6.36"/>
        <circle class="cls-3" cx="54.91" cy="80.69" r="8.69" transform="translate(-26.7 27.16) rotate(-22.5)"/>
        <circle class="cls-3" cx="88.07" cy="48.22" r="9.22" transform="translate(26.36 127.42) rotate(-80.78)"/>
        <path class="cls-3" d="m129.2,104.28c0,2.7-2.19,4.89-4.89,4.89s-4.89-2.19-4.89-4.89,2.19-4.89,4.89-4.89,4.89,2.19,4.89,4.89Z"/>
        <circle class="cls-3" cx="128.73" cy="132.23" r="2.48"/>
        <circle class="cls-3" cx="136.73" cy="118.59" r="6.27"/>
        <path class="cls-3" d="m42.36,82.22c0,3.13-2.53,5.66-5.66,5.66s-5.66-2.53-5.66-5.66,2.53-5.66,5.66-5.66,5.66,2.53,5.66,5.66Z"/>
        <path class="cls-3" d="m42.1,70.82c0,1.28-1.04,2.33-2.33,2.33s-2.33-1.04-2.33-2.33,1.04-2.33,2.33-2.33,2.33,1.04,2.33,2.33Z"/>
        <circle class="cls-3" cx="103.79" cy="31.28" r="10" transform="translate(8.28 82.55) rotate(-45)"/>
        <circle class="cls-3" cx="120.47" cy="76.04" r="7.55" transform="translate(26.11 182.77) rotate(-80.78)"/>
        <path class="cls-3" d="m132.75,60.86c0,1.31-1.06,2.37-2.37,2.37s-2.37-1.06-2.37-2.37,1.06-2.37,2.37-2.37,2.37,1.06,2.37,2.37Z"/>
        <path class="cls-1" d="m50.62,134.05s-3.6-10.81,8.67-12.5c2.66,12.06-8.67,12.5-8.67,12.5Z"/>
        <path class="cls-1" d="m61.55,54.13s-13.11,2.62-13.3-11.91c14.44-1.35,13.3,11.91,13.3,11.91Z"/>
        <path class="cls-1" d="m60.33,42.12s-6.18-3.45-1.26-9.37c6.28,4.42,1.26,9.37,1.26,9.37Z"/>
        <path class="cls-1" d="m122.09,143.66s-6.86,1.74-7.35-5.94c7.6-1.1,7.35,5.94,7.35,5.94Z"/>
        <path class="cls-3" d="m97.51,207.61h-29.21c-.79-3.33-1.43-10.02,6.53-8.74,2.35-9.37,26.68-9.06,22.68,8.74Z"/>
      </g>
      <path class="cls-1" d="m155.12,45.12c0,5.13-.86,10.07-2.44,14.66C147.11,20.31,112.42,7.55,92.63,3.47c5.35-2.24,11.22-3.47,17.37-3.47,24.92,0,45.12,20.2,45.12,45.12Z"/>
      <path class="cls-1" d="m71.56,82.33c-20.63-29.59-50.91-21.12-65.35-14.66,6.48-9.53,17.4-15.78,29.78-15.78,17.99,0,32.9,13.2,35.57,30.44Z"/>
      <ellipse class="cls-4" cx="90.06" cy="171.87" rx="7.22" ry="1.01"/>
      <ellipse class="cls-4" cx="94" cy="161.83" rx="3.95" ry=".66"/>
      <path class="cls-4" d="m92.96,143.04c0,.44-2.01.79-4.48.79s-4.48-.35-4.48-.79,2.01-.79,4.48-.79,4.48.35,4.48.79Z"/>
      <path class="cls-4" d="m97.95,127.31c0,.27-2.05.5-4.58.5s-4.58-.22-4.58-.5,2.05-.5,4.58-.5,4.58.22,4.58.5Z"/>
      <path class="cls-4" d="m97.28,115.27c0,.41-3.23.75-7.22.75s-7.22-.33-7.22-.75,3.23-.75,7.22-.75,7.22.33,7.22.75Z"/>
      <ellipse class="cls-4" cx="89.16" cy="105.63" rx="3.8" ry=".57"/>
      <path class="cls-4" d="m95.45,132.59c0,.2-1,.37-2.22.37s-2.22-.16-2.22-.37,1-.37,2.22-.37,2.22.16,2.22.37Z"/>
      <path class="cls-4" d="m91.01,155.28c0,.32-.97.58-2.18.58s-2.18-.26-2.18-.58.97-.58,2.18-.58,2.18.26,2.18.58Z"/>
      <path class="cls-4" d="m95.45,178.31c0,.22-1.41.4-3.14.4s-3.14-.18-3.14-.4,1.41-.4,3.14-.4,3.14.18,3.14.4Z"/>
      <path class="cls-4" d="m93.23,91.18c0,.52-1.92.93-4.28.93s-4.28-.42-4.28-.93,1.92-.93,4.28-.93,4.28.42,4.28.93Z"/>
      <ellipse class="cls-4" cx="98.44" cy="78.54" rx="2.99" ry=".7"/>
      <path class="cls-4" d="m109.99,70.94c0,.59-3.75,1.06-8.38,1.06s-8.38-.48-8.38-1.06,3.75-1.06,8.38-1.06,8.38.48,8.38,1.06Z"/>
      <path class="cls-4" d="m111.22,61.55c0,.38-1.52.69-3.4.69s-3.4-.31-3.4-.69,1.52-.69,3.4-.69,3.4.31,3.4.69Z"/>
      <path class="cls-4" d="m107.82,53.63c0,.38-1.52.69-3.4.69s-3.4-.31-3.4-.69,1.52-.69,3.4-.69,3.4.31,3.4.69Z"/>
      <path class="cls-4" d="m70.22,115.27c0,.41-1.67.75-3.73.75s-3.73-.33-3.73-.75,1.67-.75,3.73-.75,3.73.33,3.73.75Z"/>
      <ellipse class="cls-4" cx="46.22" cy="102.06" rx="3.73" ry=".75"/>
      <path class="cls-4" d="m113.42,136.66c0,.52-2.58.94-5.76.94s-5.76-.42-5.76-.94,2.58-.94,5.76-.94,5.76.42,5.76.94Z"/>
      <path class="cls-4" d="m78.85,124.87c0,.52-2.58.94-5.76.94s-5.76-.42-5.76-.94,2.58-.94,5.76-.94,5.76.42,5.76.94Z"/>
    </g>
  </g>
</svg>