<svg width="310" height="370" viewBox="0 0 503 326" fill="none" xmlns="http://www.w3.org/2000/svg">
<g clip-path="url(#clip0_500_287)">
<path d="M501.106 94.2876C493.729 145.299 454.871 188.675 458.36 241.659C464.281 260.876 468.189 283.361 456.366 301.162C440.257 328.851 363.119 327.296 320.354 324.644C236.656 319.462 152.581 327.196 68.9034 321.455C-6.49973 322.232 -7.91529 267.673 8.43336 208.948C21.5522 164.934 109.097 169.698 94.1043 114.162C87.8041 102.76 73.3096 99.2711 67.2486 87.5101C49.943 52.7253 73.1301 15.7478 111.39 12.9969C164.025 6.55828 217.178 14.1531 269.892 16.8641C303.327 18.5984 310.744 24.9374 334.689 31.3362C373.347 37.7151 394.022 -3.78745 433.119 0.259144C481.727 -0.478413 510.955 49.8548 501.106 94.2677V94.2876Z" fill="white"/>
<path d="M439.279 229.121L448.75 220.908L451.9 232.908L439.279 229.121Z" fill="#AFC0DD"/>
<path d="M424.726 121.218L422.633 133.657L411.328 127.358L424.726 121.218Z" fill="#AFC0DD"/>
<path d="M341.506 194.934C339.971 195.712 338.037 195.592 336.482 195.173C334.787 194.715 333.272 193.798 332.076 192.482C330.162 190.409 329.424 187.559 329.464 184.728C329.983 184.768 330.501 184.788 331.019 184.768C333.272 184.648 335.465 183.831 337.12 182.316C338.595 180.98 339.513 178.907 339.373 176.894C339.233 174.661 337.758 172.867 335.465 172.648C332.873 172.409 330.72 174.283 329.564 176.435C328.567 178.289 327.969 180.362 327.67 182.456C325.935 181.897 324.42 180.721 323.323 179.286C320.771 175.977 320.433 171.611 321.728 167.724C322.705 168.083 323.742 168.322 324.799 168.362C326.952 168.462 329.364 167.784 330.86 166.17C332.176 164.754 333.013 162.462 332.295 160.588C331.897 159.551 331.119 158.774 330.062 158.375C329.026 157.977 327.869 158.116 326.872 158.535C324.56 159.492 322.925 161.505 321.669 163.598C321.33 164.156 321.031 164.754 320.752 165.352C319.276 164.415 318.16 163.02 317.362 161.445C315.289 157.339 315.927 152.614 317.183 148.368C317.522 147.232 317.881 146.096 318.279 144.96C318.399 144.621 317.861 144.402 317.681 144.721C315.209 149.305 313.614 154.688 315.01 159.87C315.628 162.163 316.824 164.316 318.598 165.89C319.057 166.289 319.555 166.648 320.074 166.967C318.857 170.475 318.778 174.322 320.313 177.831C321.23 179.944 322.745 181.798 324.679 183.093C325.536 183.652 326.493 184.09 327.47 184.369C327.391 186.662 327.769 188.954 328.726 191.047C330.501 194.914 334.967 197.964 339.333 197.227C340.37 197.047 341.267 196.728 342.204 196.25C343.081 195.811 342.304 194.496 341.446 194.934H341.506ZM325.038 162.043C326.095 160.887 327.969 159.432 329.564 160.09C330.262 160.369 330.581 160.887 330.74 161.545C330.8 161.804 330.82 162.223 330.74 162.601C330.7 162.86 330.561 163.359 330.421 163.698C330.142 164.336 329.624 165.033 329.065 165.432C328.328 165.97 327.51 166.309 326.633 166.488C325.237 166.787 323.722 166.628 322.366 166.13C323.044 164.635 323.942 163.219 325.018 162.043H325.038ZM332.734 175.459C333.412 174.861 334.329 174.502 335.246 174.522C335.625 174.522 336.004 174.621 336.343 174.821C336.562 174.94 336.562 174.94 336.721 175.08C336.801 175.14 336.861 175.22 336.921 175.279C336.961 175.319 336.961 175.319 336.981 175.339C336.981 175.339 336.981 175.359 337.02 175.399C337.439 175.997 337.559 176.595 337.539 177.333C337.539 178.03 337.319 178.848 336.981 179.485C336.223 180.941 334.728 181.997 333.113 182.495C331.976 182.854 330.8 182.954 329.624 182.854C329.703 182.196 329.823 181.559 329.983 180.921C330.461 178.967 331.199 176.814 332.734 175.459Z" fill="#AFC0DD"/>
<path d="M384.174 220.848C415.276 197.984 447.116 181.02 448.93 136.787C449.828 114.6 433 98.6731 416.632 86.3539C399.107 73.8952 389.557 48.6189 403.832 30.18C414.997 13.3358 439.919 10.3856 454.692 24.16C474.909 42.3397 481.508 71.5031 481.069 97.7761C478.498 153.751 434.655 201.054 384.174 220.828V220.848Z" fill="url(#paint0_linear_500_287)"/>
<path d="M388.559 130.787C393.504 116.713 382.857 110.095 370.456 107.982C323.823 101.703 338.796 54.1007 363.458 63.8086C373.467 68.812 371.433 81.8289 375.52 90.6397C378.91 98.9322 389.058 101.165 393.145 108.939C397.132 116.175 394.461 125.464 388.559 130.787Z" fill="url(#paint1_linear_500_287)"/>
<path d="M415.714 221.127C406.702 218.516 426.4 207.812 428.573 205.061C429.849 203.207 433.318 205.12 432.621 207.293C430.188 214.31 422.831 219.632 415.694 221.108L415.714 221.127Z" fill="url(#paint2_linear_500_287)"/>
<path d="M402.237 154.09C403.154 155.266 404.23 156.282 405.267 157.359C405.686 157.797 405.606 157.997 405.247 158.395C388.121 176.754 370.995 195.134 353.869 213.493C349.642 218.018 345.435 222.543 341.208 227.068C341.129 227.148 341.009 227.227 340.989 227.327C340.829 227.905 340.51 227.726 340.152 227.546C338.876 226.948 337.58 226.37 336.284 225.772C335.666 225.493 335.666 225.493 336.104 224.995C340.411 220.37 344.717 215.745 349.024 211.121C365.392 193.539 381.761 175.977 398.13 158.395C399.465 156.96 400.761 155.525 402.097 154.09H402.217H402.237Z" fill="#A4D4F0"/>
<path d="M430.687 286.969C425.763 286.91 420.818 286.85 415.874 286.81C415.555 286.81 415.216 286.81 414.897 286.81C406.523 286.73 398.129 286.69 389.736 286.65C389.397 286.65 389.078 286.65 388.739 286.65C365.751 286.571 342.723 286.65 319.676 286.75C319.337 286.75 319.018 286.75 318.679 286.75C278.246 286.969 237.753 287.388 197.34 287.468C197.061 287.468 196.782 287.468 196.503 287.468C178.639 287.508 160.795 287.488 142.991 287.368C142.652 287.368 142.333 287.368 141.994 287.368C118.946 287.209 95.9586 286.87 73.0107 286.292H72.9708C72.6518 286.292 72.3328 286.292 72.0138 286.272C63.5604 286.052 55.1069 285.793 46.6734 285.494C42.4068 285.335 38.5789 282.823 36.7047 278.976C31.84 268.989 32.179 256.43 31.3216 245.626C31.4811 241.58 31.1023 233.427 31.4612 225.872C31.4612 225.573 31.4811 225.274 31.5011 224.975C31.86 218.536 32.7771 212.695 35.03 210.483C46.5339 206.835 58.9548 207.333 70.9173 206.795C71.1964 206.795 71.4755 206.775 71.7546 206.755C71.954 206.635 72.1335 206.516 72.3328 206.376C79.7695 201.492 85.5314 193.918 93.1873 189.074C120.262 172.867 153.578 173.246 184.122 170.077C215.842 167.844 249.118 166.269 279.163 178.469C293.797 184.329 306.079 194.775 314.951 207.752C321.57 218.117 325.817 221.227 337.879 223.121C338.038 223.141 338.198 223.181 338.357 223.201C340.331 223.579 342.325 223.918 344.318 224.237C362.98 227.247 381.741 228.344 400.183 231.832C413.421 234.344 424.347 247.839 430.847 261.693C430.966 261.932 431.066 262.171 431.166 262.391C433.758 268.052 435.612 273.753 436.549 278.757C436.748 282.524 435.871 286.81 430.687 286.949V286.969Z" fill="url(#paint3_linear_500_287)"/>
<path d="M253.922 232.49C233.626 232.749 199.872 233.187 199.872 233.187C199.872 233.187 199.872 198.084 199.273 180.941C199.273 180.482 199.373 180.323 199.872 180.323C212.851 180.163 225.89 180.602 238.67 182.934C250.851 185.027 262.774 188.755 273.52 194.954C284.426 201.433 308.391 214.071 307.773 228.383C306.317 233.546 299.698 231.553 295.651 231.952C282.771 232.111 266.084 232.31 253.922 232.49Z" fill="#D3E2F2"/>
<path d="M154.972 233.706C140.019 233.885 127.458 234.104 114.12 234.224C112.705 223.001 114.12 209.626 113.622 197.685C128.276 187.06 148.113 184.389 165.997 182.635C174.849 181.798 183.702 181 192.574 180.582C193.61 197.187 192.574 215.366 192.953 232.51C192.953 233.128 192.773 233.267 192.195 233.267C180.492 233.407 166.236 233.526 154.972 233.686V233.706Z" fill="#D3E2F2"/>
<path d="M107.422 201.094C107.422 211.978 107.422 222.822 107.422 233.706C107.422 234.244 107.263 234.344 106.764 234.364C101.002 234.423 95.2205 234.503 89.4586 234.583C87.5446 234.144 86.3882 231.932 85.4312 230.317C84.6736 228.603 82.7397 226.669 83.9957 224.735C90.1165 215.367 98.231 207.453 107.422 201.094Z" fill="#D3E2F2"/>
<path d="M72.3523 206.416C68.8832 211.858 62.2441 221.686 58.6354 223.679C55.0467 225.672 42.9646 225.971 36.2457 225.971C33.6937 225.971 31.9193 225.932 31.6601 225.932C31.6003 225.932 31.5405 225.932 31.4807 225.892C31.3013 225.812 31.1816 225.633 31.1816 225.433C31.1816 225.234 31.3212 225.054 31.5206 224.995C31.5605 224.995 31.6203 224.975 31.6801 224.975C31.8994 224.975 53.4118 225.493 58.1569 222.862C61.3668 221.068 67.3879 212.337 70.9368 206.835C71.2159 206.835 71.495 206.815 71.7741 206.795C71.9735 206.675 72.1529 206.556 72.3523 206.416Z" fill="#3A61B1"/>
<path d="M61.5868 286.331C61.5868 286.331 61.5668 286.331 61.5469 286.311C61.1481 285.993 60.7494 285.654 60.3507 285.275C49.7639 275.507 36.5853 248.756 35.9672 247.48C35.8476 247.241 35.9672 246.962 36.1866 246.842C36.4258 246.723 36.7049 246.842 36.8245 247.062C36.9641 247.361 49.724 273.255 60.0516 283.64C60.4503 284.039 60.8491 284.418 61.2279 284.777C61.3276 285.295 61.4472 285.813 61.5868 286.311C61.5868 286.311 61.5868 286.311 61.5868 286.331Z" fill="#3A61B1"/>
<path d="M301.972 207.991C293.239 200.595 282.533 192.203 265.745 186.064C247.881 179.545 225.372 176.436 196.921 176.615C196.343 176.615 195.765 176.615 195.207 176.615H194.988C165.161 176.894 145.284 179.625 128.776 185.725C110.453 192.462 96.1978 203.406 82.5208 221.227C80.3277 224.078 80.2679 228.304 82.4012 231.732C84.2155 234.663 85.4516 236.457 86.0497 237.055C86.289 237.294 86.588 237.593 108.32 237.593C111.948 237.593 116.195 237.593 121.139 237.573C145.084 237.473 174.751 237.174 195.645 236.935C195.865 236.935 196.104 236.935 196.323 236.935C196.423 236.935 196.503 236.935 196.602 236.935C240.385 236.417 305.56 235.46 306.916 235.002C309.029 234.304 311.661 231.732 312.419 227.785C313.256 223.5 312.12 216.583 301.991 207.991H301.972ZM311.462 227.606C310.804 231.015 308.511 233.447 306.637 234.085C305.002 234.423 253.743 235.301 196.921 235.978C196.802 235.978 196.702 235.978 196.583 235.978C196.264 235.978 195.945 235.978 195.626 235.978C130.789 236.736 89.2198 236.855 86.6678 236.317C86.2491 235.859 85.312 234.603 83.2186 231.234C82.2816 229.699 81.8031 228.025 81.8031 226.39C81.8031 224.755 82.3015 223.101 83.2784 221.825C111.27 185.366 142.911 178.11 194.629 177.612C194.948 177.612 195.267 177.612 195.586 177.612C196.024 177.612 196.463 177.612 196.921 177.612C258.967 177.253 281.735 192.144 301.333 208.768C311.621 217.48 312.08 224.337 311.442 227.646L311.462 227.606Z" fill="#3A61B1"/>
<path d="M196.941 287.727C196.682 287.727 196.463 287.508 196.463 287.248L194.648 177.093C194.648 176.834 194.848 176.615 195.127 176.615C195.386 176.615 195.605 176.814 195.605 177.093L197.42 287.248C197.42 287.508 197.22 287.727 196.941 287.727Z" fill="#3A61B1"/>
<path d="M431.225 262.172C431.225 262.172 431.205 262.331 431.165 262.411C431.085 262.55 430.926 262.65 430.746 262.65C430.647 262.65 420.439 262.73 416.99 269.308C414.737 273.594 415.215 281.587 415.873 286.83C415.554 286.83 415.215 286.83 414.896 286.83C414.238 281.488 413.76 273.394 416.132 268.869C419.861 261.793 430.288 261.713 430.746 261.713C430.766 261.713 430.806 261.713 430.826 261.713C431.045 261.753 431.225 261.952 431.225 262.191V262.172Z" fill="#3A61B1"/>
<path d="M354.208 240.962C333.991 240.962 317.543 257.407 317.543 277.62C317.543 280.77 317.942 283.84 318.699 286.75C319.038 286.75 319.357 286.75 319.696 286.75C318.919 283.84 318.52 280.77 318.52 277.62C318.52 257.946 334.55 241.919 354.228 241.919C373.906 241.919 389.936 257.926 389.936 277.62C389.936 280.73 389.537 283.76 388.779 286.63C389.118 286.63 389.437 286.63 389.776 286.63C390.514 283.74 390.913 280.73 390.913 277.6C390.913 257.387 374.464 240.942 354.248 240.942L354.208 240.962Z" fill="#3A61B1"/>
<path d="M107.661 240.962C87.4444 240.962 70.9961 257.407 70.9961 277.62C70.9961 279.674 71.1556 281.667 71.4945 283.64C71.5942 284.179 71.6939 284.737 71.8135 285.275C71.8933 285.614 71.9531 285.953 72.0528 286.292C72.3718 286.292 72.6908 286.292 73.0098 286.312C73.0098 286.312 73.0297 286.312 73.0496 286.331C73.0496 286.331 73.0496 286.331 73.0496 286.312C72.93 285.793 72.8104 285.295 72.6908 284.777C72.2123 282.464 71.973 280.072 71.973 277.64C71.973 257.965 87.9827 241.939 107.681 241.939C127.379 241.939 143.389 257.945 143.389 277.64C143.389 281.029 142.91 284.298 142.033 287.388C142.372 287.388 142.691 287.388 143.03 287.388C143.887 284.278 144.346 281.009 144.346 277.62C144.346 257.407 127.897 240.962 107.681 240.962H107.661Z" fill="#3A61B1"/>
<path d="M343.84 224.835C343.84 224.835 343.781 224.835 343.741 224.835L338.258 223.699C337.999 223.639 337.839 223.4 337.879 223.141C337.939 222.882 338.178 222.722 338.437 222.762L343.92 223.898C344.179 223.958 344.339 224.197 344.299 224.456C344.259 224.676 344.06 224.835 343.82 224.835H343.84Z" fill="#3A61B1"/>
<path d="M207.447 180.223C209.601 180.701 212.312 179.705 214.226 180.841C231.213 198.004 248.239 215.107 265.226 232.29C263.132 232.29 260.541 232.888 258.627 232.091C241.879 214.489 221.942 199.021 206.869 180.223H207.447Z" fill="#EBF1FF"/>
<path d="M178.1 233.506C175.308 233.207 171.899 234.623 170.125 231.792C156.846 217.978 139.581 203.805 128.236 190.17C130.011 189.791 132.164 188.097 133.859 188.675C148.612 203.566 163.386 218.416 178.12 233.327C178.12 233.387 178.12 233.447 178.1 233.526V233.506Z" fill="#EBF1FF"/>
<path d="M104.073 247.241C147.975 246.523 143.828 312.006 100.404 305.647C66.9494 299.428 70.1992 249.314 104.073 247.241Z" fill="#5C5E79"/>
<path d="M104.93 261.554H106.884C115.178 262.132 121.717 269.527 121.219 277.84C119.704 296.857 91.233 296.239 90.7146 277.222C90.5352 268.929 96.8952 262.251 104.93 261.554Z" fill="#84869D"/>
<path d="M105.19 267.414C117.75 266.816 118.707 285.315 106.167 285.933C94.4832 285.933 93.4265 268.869 105.19 267.414Z" fill="#3B3D56"/>
<path d="M351.715 247.241C395.617 246.523 391.471 312.006 348.047 305.647C314.592 299.428 317.842 249.314 351.715 247.241Z" fill="#5C5E79"/>
<path d="M352.573 261.554H354.526C362.82 262.132 369.36 269.527 368.861 277.84C367.346 296.857 338.876 296.239 338.357 277.222C338.178 268.929 344.538 262.251 352.573 261.554Z" fill="#84869D"/>
<path d="M352.811 267.414C365.372 266.816 366.329 285.315 353.788 285.933C342.125 285.933 341.048 268.869 352.811 267.414Z" fill="#3B3D56"/>
<path d="M419.701 279.036C419.841 274.65 419.502 269.567 423.768 267.275C426.021 266.218 430.567 264.464 432.581 266.178C435.073 272.437 438.004 279.135 437.705 285.973C436.887 287.149 434.854 287.009 433.498 287.169C419.203 286.252 420.02 290.916 419.701 279.016V279.036Z" fill="#3A61B1"/>
<path d="M31.2408 239.287C31.5997 237.553 30.6228 230.536 31.9985 230.038C37.5809 229.978 43.1634 229.918 48.7259 230.377C51.0985 230.875 56.1626 230.197 55.7439 233.766C55.1856 238.47 52.8131 242.855 49.8624 246.523C45.2568 250.949 37.6806 248.397 31.8988 248.676C31.5598 248.676 31.4602 248.557 31.4402 248.198C31.3206 245.248 31.3007 242.297 31.2408 239.267V239.287Z" fill="#3A61B1"/>
<path d="M290.088 232.35H294.414C292.58 221.706 283.03 212.257 272.682 211.958C259.863 211.24 259.803 224.516 271.307 226.35C276.63 227.128 282.192 227.367 287.037 230.038C288.612 230.716 289.47 231.553 290.088 232.33V232.35Z" fill="#5C5E79"/>
<path d="M420.738 257.985C418.624 271.202 397.371 254.417 397.969 246.424C397.411 240.503 404.389 240.523 408.177 242.696C414.138 245.706 419.96 251.088 420.738 258.005V257.985Z" fill="white"/>
<path d="M149.291 239.865C144.048 239.865 140.08 241.56 140.08 243.792C140.08 246.025 144.048 247.719 149.291 247.719C154.535 247.719 158.502 246.025 158.502 243.792C158.502 241.56 154.535 239.865 149.291 239.865ZM149.291 246.782C144.426 246.782 141.037 245.208 141.037 243.812C141.037 242.417 144.426 240.842 149.291 240.842C154.156 240.842 157.545 242.417 157.545 243.812C157.545 245.208 154.156 246.782 149.291 246.782Z" fill="#3A61B1"/>
<path d="M213.289 239.865C208.046 239.865 204.078 241.56 204.078 243.792C204.078 246.025 208.046 247.719 213.289 247.719C218.533 247.719 222.5 246.025 222.5 243.792C222.5 241.56 218.533 239.865 213.289 239.865ZM213.289 246.782C208.424 246.782 205.035 245.208 205.035 243.812C205.035 242.417 208.424 240.842 213.289 240.842C218.154 240.842 221.543 242.417 221.543 243.812C221.543 245.208 218.154 246.782 213.289 246.782Z" fill="#3A61B1"/>
<path d="M367.406 150.86L360.089 148.907L358.494 141.352L356.919 148.907L349.582 150.86L356.919 152.794L358.494 160.349L360.089 152.794L367.406 150.86Z" fill="white"/>
<path d="M140.472 75.248C140.472 77.6827 140.164 79.8973 139.548 81.892C138.961 83.8573 138.052 85.5587 136.82 86.996C135.617 88.4333 134.063 89.5333 132.156 90.296C130.279 91.0587 128.064 91.44 125.512 91.44C122.96 91.44 120.731 91.0587 118.824 90.296C116.947 89.504 115.392 88.404 114.16 86.996C112.957 85.5587 112.048 83.8427 111.432 81.848C110.845 79.8533 110.552 77.6387 110.552 75.204C110.552 71.948 111.08 69.1173 112.136 66.712C113.221 64.3067 114.864 62.444 117.064 61.124C119.293 59.7747 122.124 59.1 125.556 59.1C128.959 59.1 131.76 59.7747 133.96 61.124C136.16 62.444 137.788 64.3213 138.844 66.756C139.929 69.1613 140.472 71.992 140.472 75.248ZM117.548 75.248C117.548 77.448 117.827 79.34 118.384 80.924C118.941 82.508 119.807 83.7253 120.98 84.576C122.153 85.4267 123.664 85.852 125.512 85.852C127.419 85.852 128.944 85.4267 130.088 84.576C131.261 83.7253 132.112 82.508 132.64 80.924C133.197 79.34 133.476 77.448 133.476 75.248C133.476 71.9333 132.86 69.3373 131.628 67.46C130.396 65.5827 128.372 64.644 125.556 64.644C123.679 64.644 122.153 65.0693 120.98 65.92C119.807 66.7707 118.941 67.988 118.384 69.572C117.827 71.156 117.548 73.048 117.548 75.248ZM145 76.612C145 73.0627 145.44 70.056 146.32 67.592C147.2 65.0987 148.593 63.1187 150.5 61.652C152.406 60.156 154.9 59.144 157.98 58.616C159.534 58.352 161.104 58.132 162.688 57.956C164.301 57.7507 165.958 57.5453 167.66 57.34L168.408 63.06C167.674 63.148 166.868 63.2507 165.988 63.368C165.108 63.456 164.213 63.5587 163.304 63.676C162.424 63.764 161.573 63.8667 160.752 63.984C159.93 64.1013 159.182 64.204 158.508 64.292C157.422 64.468 156.469 64.7173 155.648 65.04C154.826 65.3333 154.137 65.7587 153.58 66.316C153.022 66.8733 152.582 67.636 152.26 68.604C151.966 69.5427 151.776 70.76 151.688 72.256H151.996C152.348 71.6987 152.832 71.1413 153.448 70.584C154.093 70.0267 154.885 69.5573 155.824 69.176C156.762 68.7947 157.833 68.604 159.036 68.604C160.942 68.604 162.6 69 164.008 69.792C165.416 70.584 166.501 71.7573 167.264 73.312C168.026 74.8667 168.408 76.8027 168.408 79.12C168.408 81.848 167.909 84.1213 166.912 85.94C165.914 87.7587 164.536 89.1373 162.776 90.076C161.016 90.9853 158.977 91.44 156.66 91.44C154.9 91.44 153.301 91.1173 151.864 90.472C150.426 89.8267 149.194 88.8733 148.168 87.612C147.141 86.3507 146.349 84.796 145.792 82.948C145.264 81.1 145 78.988 145 76.612ZM157.056 86.116C157.994 86.116 158.801 85.9107 159.476 85.5C160.18 85.0893 160.722 84.4147 161.104 83.476C161.514 82.5373 161.72 81.276 161.72 79.692C161.72 77.7853 161.397 76.2747 160.752 75.16C160.136 74.016 159.05 73.444 157.496 73.444C156.557 73.444 155.677 73.6787 154.856 74.148C154.064 74.588 153.389 75.1013 152.832 75.688C152.274 76.2453 151.893 76.7293 151.688 77.14C151.688 78.284 151.776 79.3987 151.952 80.484C152.128 81.54 152.421 82.4933 152.832 83.344C153.242 84.1947 153.785 84.8693 154.46 85.368C155.164 85.8667 156.029 86.116 157.056 86.116ZM183.591 91.44C181.215 91.44 179.191 91.0147 177.519 90.164C175.847 89.284 174.571 87.9347 173.691 86.116C172.811 84.2973 172.371 81.9653 172.371 79.12C172.371 76.1867 172.869 73.796 173.867 71.948C174.864 70.1 176.243 68.736 178.003 67.856C179.792 66.976 181.845 66.536 184.163 66.536C185.805 66.536 187.228 66.6973 188.431 67.02C189.663 67.3427 190.733 67.724 191.643 68.164L189.707 73.224C188.68 72.8133 187.712 72.476 186.803 72.212C185.923 71.948 185.043 71.816 184.163 71.816C183.019 71.816 182.065 72.0947 181.303 72.652C180.54 73.18 179.968 73.9867 179.587 75.072C179.235 76.128 179.059 77.4627 179.059 79.076C179.059 80.66 179.249 81.98 179.631 83.036C180.041 84.0627 180.628 84.84 181.391 85.368C182.153 85.8667 183.077 86.116 184.163 86.116C185.541 86.116 186.759 85.94 187.815 85.588C188.871 85.2067 189.897 84.6933 190.895 84.048V89.636C189.897 90.2813 188.841 90.736 187.727 91C186.641 91.2933 185.263 91.44 183.591 91.44ZM192.992 66.976H200.164L204.696 80.484C204.843 80.924 204.96 81.364 205.048 81.804C205.166 82.244 205.254 82.6987 205.312 83.168C205.4 83.6373 205.459 84.136 205.488 84.664H205.62C205.708 83.9013 205.826 83.1827 205.972 82.508C206.148 81.804 206.339 81.1293 206.544 80.484L210.988 66.976H218.028L207.864 94.08C207.248 95.7227 206.442 97.1013 205.444 98.216C204.476 99.3307 203.347 100.167 202.056 100.724C200.766 101.281 199.358 101.56 197.832 101.56C197.099 101.56 196.454 101.516 195.896 101.428C195.368 101.369 194.899 101.296 194.488 101.208V96.016C194.811 96.0747 195.192 96.1333 195.632 96.192C196.102 96.2507 196.586 96.28 197.084 96.28C197.994 96.28 198.771 96.0893 199.416 95.708C200.091 95.3267 200.648 94.7987 201.088 94.124C201.528 93.4787 201.88 92.7747 202.144 92.012L202.54 90.824L192.992 66.976ZM242.132 91H235.576V71.904H229.548C229.254 75.424 228.888 78.4307 228.448 80.924C228.037 83.388 227.509 85.3973 226.864 86.952C226.248 88.5067 225.456 89.6507 224.488 90.384C223.52 91.088 222.332 91.44 220.924 91.44C220.161 91.44 219.472 91.3813 218.856 91.264C218.24 91.1467 217.682 90.9707 217.184 90.736V85.5C217.506 85.6173 217.844 85.72 218.196 85.808C218.548 85.896 218.914 85.94 219.296 85.94C219.706 85.94 220.088 85.7787 220.44 85.456C220.821 85.1333 221.173 84.5613 221.496 83.74C221.848 82.9187 222.17 81.7893 222.464 80.352C222.757 78.9147 223.021 77.1107 223.256 74.94C223.52 72.74 223.754 70.0853 223.96 66.976H242.132V91ZM283.119 66.976L274.275 78.504L283.955 91H276.959L267.807 78.812V91H261.691V78.812L252.539 91H245.543L255.223 78.504L246.379 66.976H253.155L261.691 78.636V66.976H267.807V78.636L276.343 66.976H283.119ZM293.725 76.48C293.725 76.9787 293.696 77.5947 293.637 78.328C293.608 79.0613 293.564 79.8093 293.505 80.572C293.476 81.3347 293.432 82.0093 293.373 82.596C293.314 83.1827 293.27 83.5933 293.241 83.828L304.329 66.976H312.205V91H305.869V81.408C305.869 80.616 305.898 79.7507 305.957 78.812C306.016 77.844 306.074 76.9493 306.133 76.128C306.221 75.2773 306.28 74.632 306.309 74.192L295.265 91H287.389V66.976H293.725V76.48ZM132.728 123.268C132.728 124.559 132.317 125.659 131.496 126.568C130.704 127.477 129.516 128.064 127.932 128.328V128.504C129.604 128.709 130.939 129.281 131.936 130.22C132.963 131.159 133.476 132.361 133.476 133.828C133.476 134.855 133.271 135.808 132.86 136.688C132.479 137.568 131.863 138.331 131.012 138.976C130.161 139.621 129.061 140.12 127.712 140.472C126.392 140.824 124.779 141 122.872 141H111.432V116.976H122.872C124.749 116.976 126.421 117.181 127.888 117.592C129.384 117.973 130.557 118.619 131.408 119.528C132.288 120.437 132.728 121.684 132.728 123.268ZM126.7 133.476C126.7 132.537 126.333 131.863 125.6 131.452C124.867 131.012 123.767 130.792 122.3 130.792H117.988V136.468H122.432C123.664 136.468 124.676 136.248 125.468 135.808C126.289 135.339 126.7 134.561 126.7 133.476ZM126.084 123.796C126.084 123.033 125.791 122.476 125.204 122.124C124.617 121.772 123.752 121.596 122.608 121.596H117.988V126.348H121.86C123.239 126.348 124.28 126.157 124.984 125.776C125.717 125.365 126.084 124.705 126.084 123.796ZM148.96 116.492C152.187 116.492 154.651 117.196 156.352 118.604C158.083 119.983 158.948 122.109 158.948 124.984V141H154.372L153.096 137.744H152.92C152.245 138.595 151.541 139.299 150.808 139.856C150.104 140.413 149.283 140.809 148.344 141.044C147.435 141.308 146.305 141.44 144.956 141.44C143.548 141.44 142.272 141.176 141.128 140.648C140.013 140.091 139.133 139.255 138.488 138.14C137.843 136.996 137.52 135.559 137.52 133.828C137.52 131.276 138.415 129.399 140.204 128.196C141.993 126.964 144.677 126.289 148.256 126.172L152.436 126.04V124.984C152.436 123.723 152.099 122.799 151.424 122.212C150.779 121.625 149.869 121.332 148.696 121.332C147.523 121.332 146.379 121.508 145.264 121.86C144.149 122.183 143.035 122.593 141.92 123.092L139.764 118.648C141.055 117.973 142.477 117.445 144.032 117.064C145.616 116.683 147.259 116.492 148.96 116.492ZM149.884 129.956C147.772 130.015 146.305 130.396 145.484 131.1C144.663 131.804 144.252 132.728 144.252 133.872C144.252 134.869 144.545 135.588 145.132 136.028C145.719 136.439 146.481 136.644 147.42 136.644C148.828 136.644 150.016 136.233 150.984 135.412C151.952 134.561 152.436 133.373 152.436 131.848V129.868L149.884 129.956ZM185.547 121.904H177.671V141H171.115V121.904H163.239V116.976H185.547V121.904ZM201.155 126.26C203.619 126.26 205.658 126.524 207.271 127.052C208.884 127.551 210.072 128.328 210.835 129.384C211.627 130.44 212.023 131.76 212.023 133.344C212.023 134.899 211.656 136.248 210.923 137.392C210.219 138.536 209.09 139.431 207.535 140.076C205.98 140.692 203.942 141 201.419 141H189.979V116.976H196.535V126.26H201.155ZM205.467 133.432C205.467 132.493 205.086 131.819 204.323 131.408C203.59 130.997 202.49 130.792 201.023 130.792H196.535V136.468H201.111C202.402 136.468 203.443 136.233 204.235 135.764C205.056 135.295 205.467 134.517 205.467 133.432Z" fill="#729AEF"/>
</g>
<defs>
<linearGradient id="paint0_linear_500_287" x1="477.66" y1="-34.1867" x2="351.894" y2="332.292" gradientUnits="userSpaceOnUse">
<stop stop-color="#ADB4CD"/>
<stop offset="0.19" stop-color="#A7AEC7"/>
<stop offset="0.43" stop-color="#979DB6"/>
<stop offset="0.72" stop-color="#7D819B"/>
<stop offset="1" stop-color="#5C5E79"/>
</linearGradient>
<linearGradient id="paint1_linear_500_287" x1="420.06" y1="-53.9613" x2="294.274" y2="312.518" gradientUnits="userSpaceOnUse">
<stop stop-color="#ADB4CD"/>
<stop offset="0.19" stop-color="#A7AEC7"/>
<stop offset="0.43" stop-color="#979DB6"/>
<stop offset="0.72" stop-color="#7D819B"/>
<stop offset="1" stop-color="#5C5E79"/>
</linearGradient>
<linearGradient id="paint2_linear_500_287" x1="504.674" y1="-24.9373" x2="378.888" y2="341.562" gradientUnits="userSpaceOnUse">
<stop stop-color="#ADB4CD"/>
<stop offset="0.19" stop-color="#A7AEC7"/>
<stop offset="0.43" stop-color="#979DB6"/>
<stop offset="0.72" stop-color="#7D819B"/>
<stop offset="1" stop-color="#5C5E79"/>
</linearGradient>
<linearGradient id="paint3_linear_500_287" x1="234.663" y1="111.989" x2="233.587" y2="329.03" gradientUnits="userSpaceOnUse">
<stop stop-color="#95C2F0"/>
<stop offset="0.18" stop-color="#99C7F0"/>
<stop offset="0.35" stop-color="#A4D4F0"/>
<stop offset="0.53" stop-color="#90BCEF"/>
<stop offset="0.88" stop-color="#5C81EE"/>
<stop offset="1" stop-color="#4B6DEE"/>
</linearGradient>
<clipPath id="clip0_500_287">
<rect width="503" height="326" fill="white"/>
</clipPath>
</defs>
</svg>
