<svg xmlns="http://www.w3.org/2000/svg" width="256" height="263" viewBox="0 0 256 263" fill="none">
  <g clip-path="url(#clip0_53_2250)">
    <path d="M73.439 0.801758L255.195 69.2565L182.482 262.318L0.726149 193.863L73.439 0.801758Z" fill="white"/>
    <path d="M208.653 96.506L202.051 91.4358L210.286 92.1696L215.47 84.8648L214.369 93.7072L221.22 98.6557L212.736 98.0435L207.801 105.227L208.653 96.506ZM41.1629 143.002L35.9801 139.543L42.228 140.174L45.9203 134.675L44.8905 141.177L50.1798 144.891L43.8253 144.005L40.2396 149.758L41.1629 143.002ZM211.812 109.106L209.363 107.537L212.309 107.786L213.836 105.347L213.374 108.187L215.753 109.944L212.877 109.507L211.28 112.134L211.812 109.106ZM54.3349 110.719L51.8855 109.151L54.7609 109.588L56.3585 106.961L55.8259 109.989L58.2753 111.558L55.3998 111.12L53.8022 113.748L54.3349 110.719Z" fill="#FDCD60"/>
    <path d="M67.5423 73.4992C67.4583 73.722 67.4165 73.9583 67.4192 74.1944C67.4219 74.4306 67.469 74.662 67.558 74.8755C67.647 75.089 67.776 75.2804 67.9377 75.4387C68.0995 75.597 68.2907 75.7192 68.5005 75.7982C68.7103 75.8772 68.9347 75.9116 69.1606 75.8993C69.3866 75.887 69.6098 75.8283 69.8175 75.7265C70.0253 75.6248 70.2134 75.482 70.3712 75.3062C70.529 75.1305 70.6534 74.9254 70.7373 74.7025C70.8213 74.4796 70.8631 74.2434 70.8605 74.0072C70.8578 73.771 70.8106 73.5396 70.7216 73.3261C70.6326 73.1126 70.5036 72.9212 70.3419 72.7629C70.1802 72.6046 69.9889 72.4824 69.7791 72.4034C69.5693 72.3244 69.345 72.29 69.119 72.3023C68.893 72.3146 68.6698 72.3733 68.4621 72.4751C68.2544 72.5769 68.0662 72.7197 67.9084 72.8954C67.7506 73.0711 67.6262 73.2763 67.5423 73.4992Z" fill="#5546CB"/>
    <path d="M184.651 195.752C183.773 195.422 183.019 194.822 182.485 194.03C181.95 193.237 181.658 192.286 181.647 191.299C181.635 190.311 181.904 189.33 182.42 188.48C182.936 187.63 183.675 186.95 184.543 186.524C185.412 186.099 186.372 185.948 187.301 186.09C188.231 186.232 189.088 186.662 189.764 187.324C190.441 187.986 190.906 188.851 191.102 189.81C191.297 190.769 191.214 191.778 190.863 192.71C190.392 193.96 189.473 194.983 188.308 195.554C187.143 196.124 185.828 196.196 184.651 195.752ZM187.207 188.965C187.415 188.483 187.792 188.097 188.258 187.89C188.723 187.684 189.24 187.672 189.698 187.859C190.157 188.046 190.52 188.415 190.711 188.889C190.901 189.363 190.904 189.904 190.719 190.396C190.534 190.887 190.175 191.292 189.719 191.522C189.263 191.752 188.746 191.791 188.279 191.629C187.811 191.466 187.43 191.117 187.216 190.655C187.003 190.192 186.974 189.654 187.136 189.154L187.207 188.965Z" fill="#5546CB"/>
    <path d="M151.426 131.141L163.85 135.82L149.304 174.442L136.88 169.762L151.426 131.141Z" fill="#FDCD60"/>
    <path d="M55.2202 151.956L169.705 195.075L167.22 201.673L52.7349 158.555L55.2202 151.956Z" fill="#AFBCF3"/>
    <path d="M174.676 192.641L53.0908 146.849L47.7652 160.989L169.35 206.781L174.676 192.641ZM167.22 201.674L52.7353 158.555L55.2206 151.956L169.705 195.075L167.22 201.674Z" fill="#5546CB"/>
    <path d="M40.8066 168.701L169.136 217.034L166.651 223.633L38.3213 175.3L40.8066 168.701Z" fill="#AFBCF3"/>
    <path d="M38.1445 163.394L32.8189 177.534L169.136 228.875L174.461 214.735L38.1445 163.394ZM166.651 223.633L38.3215 175.301L40.8068 168.702L169.136 217.035L166.651 223.633Z" fill="#5546CB"/>
    <path d="M125.76 124.488L134.635 127.831L121.64 162.333L112.765 158.99L125.76 124.488Z" fill="#FDCD60"/>
    <path d="M107.795 161.424L123.77 167.44L139.605 125.396L123.63 119.38L107.795 161.424ZM125.76 124.488L134.634 127.83L121.64 162.332L112.765 158.99L125.76 124.488Z" fill="#5546CB"/>
    <path d="M99.4902 114.594L108.365 117.936L95.3705 152.438L86.4957 149.096L99.4902 114.594Z" fill="#FDCD60"/>
    <path d="M81.5259 151.53L97.5006 157.547L113.335 115.503L97.3608 109.486L81.5259 151.53ZM99.4906 114.594L108.365 117.937L95.3708 152.439L86.496 149.096L99.4906 114.594Z" fill="#5546CB"/>
    <path d="M80.8545 83.8945L89.7293 87.237L86.8179 94.967L77.9431 91.6245L80.8545 83.8945Z" fill="#FF8859"/>
    <path d="M94.6992 84.8036L78.7246 78.7871L72.9729 94.0586L88.9475 100.075L94.6992 84.8036ZM86.8178 94.9674L77.943 91.6249L80.8544 83.8949L89.7292 87.2374L86.8178 94.9674Z" fill="#5546CB"/>
    <path d="M186.287 123.604L195.162 126.946L192.251 134.676L183.376 131.334L186.287 123.604Z" fill="#FF8859"/>
    <path d="M200.132 124.513L184.157 118.496L178.406 133.768L194.38 139.784L200.132 124.513ZM192.25 134.676L183.376 131.334L186.287 123.604L195.162 126.946L192.25 134.676Z" fill="#5546CB"/>
    <path d="M160.018 113.71L168.892 117.052L165.981 124.782L157.106 121.44L160.018 113.71Z" fill="#FF8859"/>
    <path d="M173.862 114.618L157.888 108.602L152.136 123.873L168.111 129.89L173.862 114.618ZM165.981 124.782L157.106 121.439L160.017 113.709L168.892 117.052L165.981 124.782Z" fill="#5546CB"/>
    <path d="M133.571 103.749L142.446 107.092L139.534 114.822L130.659 111.479L133.571 103.749Z" fill="#FF8859"/>
    <path d="M147.416 104.658L131.441 98.6416L125.689 113.913L141.664 119.93L147.416 104.658ZM139.534 114.822L130.659 111.479L133.571 103.749L142.445 107.092L139.534 114.822Z" fill="#5546CB"/>
    <path d="M107.301 93.8555L116.176 97.198L113.265 104.928L104.39 101.585L107.301 93.8555Z" fill="#FF8859"/>
    <path d="M121.146 94.7636L105.171 88.7471L99.4197 104.019L115.394 110.035L121.146 94.7636ZM113.265 104.927L104.39 101.585L107.301 93.8548L116.176 97.1973L113.265 104.927Z" fill="#5546CB"/>
    <path d="M155.086 61.692L94.7352 74.4836L191.116 110.783L155.086 61.692Z" fill="#FDCD60"/>
    <path d="M156.79 57.1669L80.7129 73.5077L202.12 119.233L156.79 57.1669ZM155.086 61.6918L191.116 110.783L94.7353 74.4833L155.086 61.6918ZM133.922 171.695L149.897 177.711L165.732 135.668L149.757 129.651L133.922 171.695ZM151.887 134.759L160.762 138.101L147.767 172.604L138.893 169.261L151.887 134.759Z" fill="#5546CB"/>
    <path d="M178.157 144.653L187.032 147.996L174.037 182.498L165.162 179.156L178.157 144.653Z" fill="#FDCD60"/>
    <path d="M160.192 181.589L176.167 187.605L192.001 145.561L176.027 139.545L160.192 181.589ZM178.157 144.653L187.031 147.995L174.037 182.497L165.162 179.155L178.157 144.653Z" fill="#5546CB"/>
    <path d="M59.8712 139.069L68.746 142.411L81.8826 107.532L73.1853 104.256L59.8712 139.069Z" fill="#FDCD60"/>
    <path d="M87.0303 105.165L71.0557 99.1484L55.0787 141.569L70.8759 147.519L87.0303 105.165ZM68.7461 142.411L59.8713 139.069L73.0079 104.189L81.7052 107.465L68.7461 142.411Z" fill="#5546CB"/>
  </g>
  <defs>
    <clipPath id="clip0_53_2250">
      <rect width="194.409" height="206.502" fill="white" transform="translate(73.5098 0.613281) rotate(20.6379)"/>
    </clipPath>
  </defs>
</svg>