<svg xmlns="http://www.w3.org/2000/svg" width="41" height="42" viewBox="0 0 41 42" fill="none">
<path d="M2 7.27778C2 25.3497 16.2647 40 33.8611 40C34.655 40 35.442 39.9702 36.2215 39.9115C37.1159 39.8442 37.563 39.8106 37.9702 39.57C38.3073 39.3707 38.6269 39.0173 38.7959 38.6573C39 38.2229 39 37.716 39 36.7024V30.7548C39 29.9023 39 29.4761 38.8633 29.1109C38.7429 28.7881 38.5467 28.5008 38.2927 28.274C38.0051 28.0173 37.615 27.8717 36.8351 27.5803L30.2433 25.1186C29.3358 24.7797 28.8819 24.6102 28.4515 24.6389C28.0718 24.6643 27.7066 24.7975 27.3962 25.0234C27.0443 25.2794 26.796 25.7046 26.2991 26.5552L24.6111 29.4444C19.1641 26.9109 14.7484 22.3699 12.2778 16.7778L15.0911 15.0442C15.9191 14.5339 16.3331 14.2788 16.5825 13.9173C16.8025 13.5986 16.9322 13.2234 16.9568 12.8336C16.9848 12.3915 16.8197 11.9255 16.4898 10.9934L14.0928 4.22344C13.8092 3.42238 13.6674 3.02184 13.4174 2.72643C13.1966 2.46548 12.9168 2.26421 12.6026 2.14028C12.2469 2 11.8319 2 11.0019 2H5.2108C4.22386 2 3.73039 2 3.30729 2.20953C2.95686 2.38308 2.61284 2.71147 2.41872 3.05773C2.18434 3.47581 2.1516 3.93509 2.08611 4.85365C2.02904 5.65404 2 6.46242 2 7.27778Z" stroke="white" stroke-width="3" stroke-linecap="round" stroke-linejoin="round"/>
</svg>