<svg width="40" height="22" viewBox="0 0 40 22" fill="none" xmlns="http://www.w3.org/2000/svg">
<path d="M20 21.8841C15.5019 21.8841 10.6609 20.125 6.00036 16.7968C2.51633 14.3089 0.36594 11.844 0.276084 11.7402C-0.0920279 11.3151 -0.0920279 10.6842 0.276084 10.2591C0.36594 10.1554 2.51624 7.69039 6.00036 5.20247C10.661 1.87453 15.502 0.115234 20 0.115234C24.4981 0.115234 29.3392 1.87444 33.9996 5.20247C37.4837 7.69039 39.6341 10.1553 39.7239 10.2591C40.092 10.6841 40.092 11.315 39.7239 11.7402C39.6341 11.8439 37.4838 14.3089 33.9996 16.7968C29.3392 20.1249 24.4981 21.8841 20 21.8841ZM2.68193 10.9998C3.55153 11.8865 5.19274 13.4457 7.3597 14.9877C10.3305 17.1017 14.9349 19.6219 20 19.6219C25.0651 19.6219 29.6696 17.1017 32.6403 14.9877C34.807 13.446 36.4483 11.8866 37.3181 10.9998C36.4486 10.1131 34.8073 8.55384 32.6403 7.0118C29.6696 4.89779 25.0651 2.37765 20 2.37765C14.9349 2.37765 10.3305 4.89779 7.3597 7.0118C5.19301 8.55357 3.55171 10.1128 2.68193 10.9998Z" fill="white"/>
<path d="M20.0002 18.0132C16.1333 18.0132 12.9873 14.8671 12.9873 11.0002C12.9873 7.13335 16.1333 3.9873 20.0002 3.9873C21.7009 3.9873 23.3415 4.6039 24.6196 5.72362C25.0895 6.13526 25.1367 6.84985 24.7251 7.31976C24.3134 7.78968 23.5987 7.83682 23.1289 7.42528C22.2635 6.66706 21.1523 6.24954 20.0002 6.24954C17.3806 6.24954 15.2495 8.38075 15.2495 11.0002C15.2495 13.6197 17.3806 15.7509 20.0002 15.7509C22.6198 15.7509 24.7509 13.6197 24.7509 11.0002C24.7509 10.3756 25.2573 9.86913 25.882 9.86913C26.5066 9.86913 27.0131 10.3756 27.0131 11.0002C27.0133 14.8671 23.8672 18.0132 20.0002 18.0132Z" fill="white"/>
<path d="M19.9995 13.2618C18.7521 13.2618 17.7373 12.2469 17.7373 10.9995C17.7373 9.75214 18.7521 8.7373 19.9995 8.7373C21.247 8.7373 22.2618 9.75214 22.2618 10.9995C22.2618 12.2469 21.247 13.2618 19.9995 13.2618Z" fill="white"/>
</svg>
