<svg viewBox="0 0 28 24" fill="none" xmlns="http://www.w3.org/2000/svg">
<path fill-rule="evenodd" clip-rule="evenodd" d="M21.448 23.5757C21.8236 23.8417 22.3078 23.9082 22.7395 23.7448C23.1711 23.5803 23.4885 23.2117 23.5841 22.7648C24.598 18.0002 27.0573 5.94034 27.9801 1.60617C28.0501 1.27951 27.9335 0.940006 27.6768 0.72184C27.4201 0.503673 27.0643 0.440673 26.747 0.558506C21.8551 2.36917 6.78998 8.02167 0.632309 10.3002C0.241476 10.4448 -0.0128575 10.8205 -2.41185e-05 11.2323C0.0139759 11.6453 0.291643 12.0035 0.691809 12.1237C3.45331 12.9497 7.07814 14.0988 7.07814 14.0988C7.07814 14.0988 8.77214 19.2147 9.65531 21.8163C9.76614 22.143 10.0216 22.3997 10.3588 22.4883C10.6948 22.5758 11.0541 22.4837 11.305 22.2468C12.7236 20.9075 14.917 18.8367 14.917 18.8367C14.917 18.8367 19.0843 21.8922 21.448 23.5757ZM8.60298 13.4525L10.5618 19.9135L10.997 15.822C10.997 15.822 18.5651 8.99584 22.8795 5.10501C23.0055 4.99067 23.023 4.79934 22.918 4.66517C22.8141 4.53101 22.6228 4.49951 22.4793 4.59051C17.479 7.78367 8.60298 13.4525 8.60298 13.4525Z" fill="white"/>
</svg>
