<svg xmlns="http://www.w3.org/2000/svg" width="58" height="53" viewBox="0 0 58 53" fill="none">
  <path d="M10.7568 12.8889H13.6757M10.7568 21.0556H13.6757M25.3514 21.0556H28.2703M25.3514 29.2222H28.2703M10.7568 29.2222H13.6757M25.3514 12.8889H28.2703M13.6757 51V42.8333C13.6757 39.8264 16.2894 37.3889 19.5135 37.3889C22.7378 37.3889 25.3514 39.8264 25.3514 42.8333V51H13.6757ZM13.6757 51H2V6.35556C2 4.83097 2 4.06867 2.31813 3.48636C2.598 2.97415 3.04454 2.5577 3.59376 2.29669C4.21815 2 5.03553 2 6.67027 2H32.3568C33.9916 2 34.8089 2 35.4333 2.29669C35.9826 2.5577 36.4289 2.97415 36.7089 3.48636C37.027 4.06867 37.027 4.83097 37.027 6.35556V18.3333M50.7459 30.5833C50.7459 32.8384 48.7856 34.6667 46.3676 34.6667C43.9495 34.6667 41.9892 32.8384 41.9892 30.5833C41.9892 28.3282 43.9495 26.5 46.3676 26.5C48.7856 26.5 50.7459 28.3282 50.7459 30.5833ZM56 51V49.6389C56 45.8803 52.7329 42.8333 48.7027 42.8333H44.3243C40.2942 42.8333 37.027 45.8803 37.027 49.6389V51H56Z" stroke="white" stroke-width="3" stroke-linecap="round" stroke-linejoin="round"/>
</svg>