<svg viewBox="0 0 26 26" fill="none" xmlns="http://www.w3.org/2000/svg">
<path d="M13 0C5.82029 0 0 5.82029 0 13C0 20.1797 5.82029 26 13 26C20.1797 26 26 20.1797 26 13C26 5.82029 20.1797 0 13 0ZM1.66618 13.8125H4.45412C4.51615 15.1615 4.72001 16.3957 5.03662 17.5041H2.55925C2.06318 16.3587 1.75887 15.1149 1.66618 13.8125ZM17.0104 12.1875C16.9492 10.8815 16.7944 9.64446 16.5848 8.49595H19.2481C19.6026 9.58604 19.8459 10.8153 19.9193 12.1875H17.0104ZM10.9508 17.5041C10.7214 16.2379 10.6089 15.0019 10.588 13.8125H15.412C15.3912 15.0019 15.2786 16.2379 15.0492 17.5041H10.9508ZM14.6952 19.1291C14.3142 20.5916 13.7628 22.0825 12.9998 23.5766C12.237 22.0825 11.6857 20.5916 11.3047 19.1291H14.6952ZM10.6102 12.1875C10.6745 10.874 10.8406 9.63634 11.0611 8.49595H14.9389C15.1594 9.63634 15.3255 10.874 15.3899 12.1875H10.6102ZM11.4263 6.871C11.9341 4.88869 12.5615 3.32466 12.9999 2.3617C13.4383 3.32466 14.0658 4.88869 14.5737 6.871H11.4263ZM16.2404 6.871C15.722 4.72271 15.0564 2.997 14.5623 1.88166C15.1764 2.31862 17.2165 3.93369 18.6082 6.871H16.2404ZM11.4375 1.88155C10.9434 2.9969 10.2779 4.72266 9.7595 6.871H7.39148C8.78333 3.93343 10.8236 2.31835 11.4375 1.88155ZM9.41518 8.496C9.20559 9.64451 9.05081 10.8816 8.98969 12.1876H6.08044C6.15383 10.8154 6.39711 9.58609 6.75167 8.496H9.41518ZM4.45587 12.1875H1.66618C1.75887 10.8851 2.06313 9.64144 2.5592 8.49595H5.04787C4.72892 9.60419 4.52103 10.8375 4.45587 12.1875ZM6.0796 13.8125H8.9674C8.98587 15.004 9.0861 16.2383 9.29856 17.5041H6.75252C6.39499 16.4112 6.15086 15.1816 6.0796 13.8125ZM9.63507 19.1291C10.0337 20.7837 10.6257 22.4748 11.4786 24.1727C10.9031 23.7607 8.81082 22.1149 7.39222 19.1291H9.63507ZM14.5194 24.1764C15.3734 22.4773 15.966 20.7849 16.3649 19.1291H18.624C17.2097 22.1301 15.1084 23.7622 14.5194 24.1764ZM16.7015 17.5041C16.914 16.2383 17.0142 15.004 17.0327 13.8125H19.921C19.8511 15.1841 19.6109 16.4134 19.2586 17.5041H16.7015ZM21.5456 13.8125H24.3338C24.2411 15.1149 23.9368 16.3587 23.4408 17.5041H20.9631C21.2797 16.3957 21.4835 15.1615 21.5456 13.8125ZM21.5439 12.1875C21.4787 10.8375 21.2708 9.60419 20.9519 8.49595H23.4409C23.937 9.64138 24.2412 10.8851 24.3339 12.1875H21.5439ZM22.5674 6.871H20.3791C19.6527 5.12136 18.7058 3.73731 17.8147 2.70909C19.764 3.62493 21.4112 5.07244 22.5674 6.871ZM8.1848 2.70931C7.2938 3.73753 6.34697 5.12152 5.62067 6.871H3.43258C4.58873 5.07255 6.23575 3.6252 8.1848 2.70931ZM3.43264 19.1291H5.60746C6.32283 20.8609 7.25639 22.2403 8.14124 23.2697C6.21129 22.3527 4.58014 20.914 3.43264 19.1291ZM17.8591 23.2695C18.7438 22.2402 19.6772 20.8608 20.3924 19.1291H22.5674C21.42 20.9139 19.7889 22.3525 17.8591 23.2695Z" fill="white"/>
</svg>
