<svg width="26" height="26" viewBox="0 0 26 26" fill="none" xmlns="http://www.w3.org/2000/svg">
<path d="M13.0001 21.1865C8.48586 21.1865 4.81348 17.5139 4.81348 12.9997C4.81348 8.4858 8.48586 4.81372 13.0001 4.81372C17.5143 4.81372 21.1867 8.4858 21.1867 12.9997C21.1867 17.5139 17.5143 21.1865 13.0001 21.1865ZM13.0001 5.85206C9.05851 5.85206 5.85183 9.05871 5.85183 12.9997C5.85183 16.9413 9.05877 20.1482 13.0001 20.1482C16.9414 20.1482 20.1483 16.9413 20.1483 12.9997C20.1483 9.05871 16.9417 5.85206 13.0001 5.85206Z" fill="black"/>
<path d="M21.8252 22.3446C21.6922 22.3446 21.5596 22.2939 21.4581 22.1924L19.4987 20.2328C19.296 20.0301 19.296 19.7015 19.4987 19.4987C19.7015 19.296 20.0301 19.296 20.2328 19.4987L22.1922 21.4583C22.3949 21.6611 22.3949 21.9897 22.1922 22.1924C22.091 22.2939 21.9581 22.3446 21.8252 22.3446Z" fill="black"/>
<path d="M6.13424 6.65364C6.00133 6.65364 5.86868 6.60302 5.76718 6.50152L3.80781 4.54192C3.60508 4.33918 3.60508 4.01029 3.80781 3.80781C4.01055 3.60508 4.33919 3.60508 4.54193 3.80781L6.50129 5.76742C6.70403 5.97015 6.70403 6.29905 6.50129 6.50152C6.39979 6.60302 6.26714 6.65364 6.13424 6.65364Z" fill="black"/>
<path d="M19.8658 6.65364C19.7329 6.65364 19.6002 6.60302 19.4987 6.50152C19.296 6.29879 19.296 5.96989 19.4987 5.76742L21.4586 3.80781C21.6614 3.60508 21.99 3.60508 22.1927 3.80781C22.3955 4.01055 22.3955 4.33944 22.1927 4.54192L20.2328 6.50152C20.1316 6.60302 19.9987 6.65364 19.8658 6.65364Z" fill="black"/>
<path d="M4.17487 22.3446C4.04196 22.3446 3.90931 22.2939 3.80781 22.1924C3.60508 21.9897 3.60508 21.6606 3.80781 21.4583L5.76744 19.4987C5.97018 19.296 6.29881 19.296 6.50155 19.4987C6.70429 19.7015 6.70429 20.0306 6.50155 20.2328L4.54193 22.1924C4.44043 22.2939 4.30778 22.3446 4.17487 22.3446Z" fill="black"/>
<path d="M12.9996 26C12.7131 26 12.4805 25.7674 12.4805 25.4808V22.7095C12.4805 22.4226 12.7131 22.1903 12.9996 22.1903C13.2862 22.1903 13.5188 22.4226 13.5188 22.7095V25.4808C13.5188 25.7671 13.2865 26 12.9996 26Z" fill="black"/>
<path d="M12.9996 3.80992C12.7131 3.80992 12.4805 3.57734 12.4805 3.29076V0.519169C12.4805 0.232588 12.7131 0 12.9996 0C13.2862 0 13.5188 0.232588 13.5188 0.519169V3.29076C13.5188 3.5776 13.2865 3.80992 12.9996 3.80992Z" fill="black"/>
<path d="M25.481 13.5192H22.7096C22.423 13.5192 22.1904 13.2866 22.1904 13C22.1904 12.7134 22.423 12.4808 22.7096 12.4808H25.481C25.7675 12.4808 26.0001 12.7134 26.0001 13C26.0001 13.2863 25.7678 13.5192 25.481 13.5192Z" fill="black"/>
<path d="M3.29053 13.5192H0.519175C0.23259 13.5192 0 13.2866 0 13C0 12.7134 0.23259 12.4808 0.519175 12.4808H3.29053C3.57711 12.4808 3.8097 12.7134 3.8097 13C3.8097 13.2863 3.57711 13.5192 3.29053 13.5192Z" fill="black"/>
</svg>
