<svg viewBox="0 0 41 25" fill="none" xmlns="http://www.w3.org/2000/svg">
<path d="M22.4851 24.4479C23.5255 24.4479 23.9508 23.7543 23.9389 22.8848C23.8859 19.6099 25.1586 17.8469 27.4563 20.1446C29.9983 22.6866 30.5245 24.4479 33.6115 24.4479H39.0781C40.4585 24.4479 41.0017 24.0038 41.0017 23.3068C41.0017 21.8325 38.5742 19.2307 36.5173 17.3208C33.6371 14.6472 33.5021 14.584 35.9826 11.3655C39.0593 7.36971 43.0842 2.24984 39.524 2.24984H32.7231C31.4043 2.24984 31.3086 2.99296 30.8388 4.09996C29.139 8.10942 25.9086 13.3028 24.682 12.5084C23.399 11.6798 23.9867 8.39813 24.0841 3.52084C24.1097 2.23275 24.1029 1.34955 22.1349 0.891712C21.0603 0.644004 20.0148 0.541504 19.0445 0.541504C15.1615 0.541504 12.4828 2.16955 14.0049 2.45313C16.6887 2.95367 16.4308 8.7603 15.8055 11.2681C14.7156 15.6346 10.619 7.81046 8.91238 3.91375C8.50067 2.97759 8.37425 2.24984 6.90508 2.24984H1.34446C0.503958 2.24984 0 2.52317 0 3.13134C0 4.15975 5.05667 14.6113 9.88442 19.8218C14.5926 24.904 19.2461 24.4479 22.4851 24.4479Z" fill="white"/>
</svg>
